; NON-PLATED HOLES START AT T1
; THROUGH (PLATED) HOLES START AT T100
M48
INCH
T100C0.038000
T101C0.035000
%
T100
X002669Y004009
X021669Y004009
X002669Y005009
X021669Y005009
X021669Y006009
X002669Y006009
X015669Y009009
X015669Y010009
X008669Y009009
X002669Y007009
X021669Y008009
X002669Y008009
X021669Y007009
X008669Y010009
X002669Y009009
X015669Y006009
X021669Y009009
X008669Y007009
X008669Y008009
X015669Y004009
X015669Y005009
X002669Y010009
X021669Y010009
X015669Y008009
X008669Y004009
X015669Y007009
X008669Y005009
X018669Y001009
X008669Y006009
X017669Y001009
X016669Y001009
T101
X009669Y001009
X005669Y001009
T00
M30
