%TF.GenerationSoftware,Flux,Pcbnew,7.0.11-7.0.11~ubuntu20.04.1*%
%TF.CreationDate,2025-02-14T06:42:17+00:00*%
%TF.ProjectId,input,696e7075-742e-46b6-9963-61645f706362,rev?*%
%TF.SameCoordinates,Original*%
%TF.FileFunction,Legend,Top*%
%TF.FilePolarity,Positive*%
%FSLAX46Y46*%
G04 Gerber Fmt 4.6, Leading zero omitted, Abs format (unit mm)*
G04 Filename: xiao-plus-expander*
G04 Build it with Flux! Visit our site at: https://www.flux.ai (PCBNEW 7.0.11-7.0.11~ubuntu20.04.1) date 2025-02-14 06:42:17*
%MOMM*%
%LPD*%
G01*
G04 APERTURE LIST*
%ADD10C,0.072390*%
%ADD11C,0.095000*%
%ADD12C,0.152400*%
G04 APERTURE END LIST*
D10*
X10412447Y-7385132D02*
X9802847Y-7385132D01*
X9802847Y-7385132D02*
X9802847Y-7239989D01*
X9802847Y-7239989D02*
X9831876Y-7152903D01*
X9831876Y-7152903D02*
X9889933Y-7094846D01*
X9889933Y-7094846D02*
X9947990Y-7065817D01*
X9947990Y-7065817D02*
X10064104Y-7036789D01*
X10064104Y-7036789D02*
X10151190Y-7036789D01*
X10151190Y-7036789D02*
X10267304Y-7065817D01*
X10267304Y-7065817D02*
X10325361Y-7094846D01*
X10325361Y-7094846D02*
X10383419Y-7152903D01*
X10383419Y-7152903D02*
X10412447Y-7239989D01*
X10412447Y-7239989D02*
X10412447Y-7385132D01*
X10064104Y-6688446D02*
X10035076Y-6746503D01*
X10035076Y-6746503D02*
X10006047Y-6775532D01*
X10006047Y-6775532D02*
X9947990Y-6804560D01*
X9947990Y-6804560D02*
X9918961Y-6804560D01*
X9918961Y-6804560D02*
X9860904Y-6775532D01*
X9860904Y-6775532D02*
X9831876Y-6746503D01*
X9831876Y-6746503D02*
X9802847Y-6688446D01*
X9802847Y-6688446D02*
X9802847Y-6572332D01*
X9802847Y-6572332D02*
X9831876Y-6514275D01*
X9831876Y-6514275D02*
X9860904Y-6485246D01*
X9860904Y-6485246D02*
X9918961Y-6456217D01*
X9918961Y-6456217D02*
X9947990Y-6456217D01*
X9947990Y-6456217D02*
X10006047Y-6485246D01*
X10006047Y-6485246D02*
X10035076Y-6514275D01*
X10035076Y-6514275D02*
X10064104Y-6572332D01*
X10064104Y-6572332D02*
X10064104Y-6688446D01*
X10064104Y-6688446D02*
X10093133Y-6746503D01*
X10093133Y-6746503D02*
X10122161Y-6775532D01*
X10122161Y-6775532D02*
X10180219Y-6804560D01*
X10180219Y-6804560D02*
X10296333Y-6804560D01*
X10296333Y-6804560D02*
X10354390Y-6775532D01*
X10354390Y-6775532D02*
X10383419Y-6746503D01*
X10383419Y-6746503D02*
X10412447Y-6688446D01*
X10412447Y-6688446D02*
X10412447Y-6572332D01*
X10412447Y-6572332D02*
X10383419Y-6514275D01*
X10383419Y-6514275D02*
X10354390Y-6485246D01*
X10354390Y-6485246D02*
X10296333Y-6456217D01*
X10296333Y-6456217D02*
X10180219Y-6456217D01*
X10180219Y-6456217D02*
X10122161Y-6485246D01*
X10122161Y-6485246D02*
X10093133Y-6514275D01*
X10093133Y-6514275D02*
X10064104Y-6572332D01*
X-10412847Y6496632D02*
X-9803247Y6496632D01*
X-9803247Y6496632D02*
X-9803247Y6351489D01*
X-9803247Y6351489D02*
X-9832276Y6264403D01*
X-9832276Y6264403D02*
X-9890333Y6206346D01*
X-9890333Y6206346D02*
X-9948390Y6177317D01*
X-9948390Y6177317D02*
X-10064504Y6148289D01*
X-10064504Y6148289D02*
X-10151590Y6148289D01*
X-10151590Y6148289D02*
X-10267704Y6177317D01*
X-10267704Y6177317D02*
X-10325761Y6206346D01*
X-10325761Y6206346D02*
X-10383819Y6264403D01*
X-10383819Y6264403D02*
X-10412847Y6351489D01*
X-10412847Y6351489D02*
X-10412847Y6496632D01*
X-10412847Y5567717D02*
X-10412847Y5916060D01*
X-10412847Y5741889D02*
X-9803247Y5741889D01*
X-9803247Y5741889D02*
X-9890333Y5799946D01*
X-9890333Y5799946D02*
X-9948390Y5858003D01*
X-9948390Y5858003D02*
X-9977419Y5916060D01*
X-9861304Y5335489D02*
X-9832276Y5306461D01*
X-9832276Y5306461D02*
X-9803247Y5248404D01*
X-9803247Y5248404D02*
X-9803247Y5103261D01*
X-9803247Y5103261D02*
X-9832276Y5045204D01*
X-9832276Y5045204D02*
X-9861304Y5016175D01*
X-9861304Y5016175D02*
X-9919361Y4987146D01*
X-9919361Y4987146D02*
X-9977419Y4987146D01*
X-9977419Y4987146D02*
X-10064504Y5016175D01*
X-10064504Y5016175D02*
X-10412847Y5364518D01*
X-10412847Y5364518D02*
X-10412847Y4987146D01*
X9783876Y7848782D02*
X9754847Y7790725D01*
X9754847Y7790725D02*
X9754847Y7703639D01*
X9754847Y7703639D02*
X9783876Y7616553D01*
X9783876Y7616553D02*
X9841933Y7558496D01*
X9841933Y7558496D02*
X9899990Y7529467D01*
X9899990Y7529467D02*
X10016104Y7500439D01*
X10016104Y7500439D02*
X10103190Y7500439D01*
X10103190Y7500439D02*
X10219304Y7529467D01*
X10219304Y7529467D02*
X10277361Y7558496D01*
X10277361Y7558496D02*
X10335419Y7616553D01*
X10335419Y7616553D02*
X10364447Y7703639D01*
X10364447Y7703639D02*
X10364447Y7761696D01*
X10364447Y7761696D02*
X10335419Y7848782D01*
X10335419Y7848782D02*
X10306390Y7877810D01*
X10306390Y7877810D02*
X10103190Y7877810D01*
X10103190Y7877810D02*
X10103190Y7761696D01*
X10364447Y8139067D02*
X9754847Y8139067D01*
X9754847Y8139067D02*
X10364447Y8487410D01*
X10364447Y8487410D02*
X9754847Y8487410D01*
X10364447Y8777696D02*
X9754847Y8777696D01*
X9754847Y8777696D02*
X9754847Y8922839D01*
X9754847Y8922839D02*
X9783876Y9009925D01*
X9783876Y9009925D02*
X9841933Y9067982D01*
X9841933Y9067982D02*
X9899990Y9097011D01*
X9899990Y9097011D02*
X10016104Y9126039D01*
X10016104Y9126039D02*
X10103190Y9126039D01*
X10103190Y9126039D02*
X10219304Y9097011D01*
X10219304Y9097011D02*
X10277361Y9067982D01*
X10277361Y9067982D02*
X10335419Y9009925D01*
X10335419Y9009925D02*
X10364447Y8922839D01*
X10364447Y8922839D02*
X10364447Y8777696D01*
X10412447Y-79932D02*
X9802847Y-79932D01*
X9802847Y-79932D02*
X9802847Y65210D01*
X9802847Y65210D02*
X9831876Y152296D01*
X9831876Y152296D02*
X9889933Y210353D01*
X9889933Y210353D02*
X9947990Y239382D01*
X9947990Y239382D02*
X10064104Y268410D01*
X10064104Y268410D02*
X10151190Y268410D01*
X10151190Y268410D02*
X10267304Y239382D01*
X10267304Y239382D02*
X10325361Y210353D01*
X10325361Y210353D02*
X10383419Y152296D01*
X10383419Y152296D02*
X10412447Y65210D01*
X10412447Y65210D02*
X10412447Y-79932D01*
X10412447Y848982D02*
X10412447Y500639D01*
X10412447Y674810D02*
X9802847Y674810D01*
X9802847Y674810D02*
X9889933Y616753D01*
X9889933Y616753D02*
X9947990Y558696D01*
X9947990Y558696D02*
X9977019Y500639D01*
X10412447Y1139267D02*
X10412447Y1255381D01*
X10412447Y1255381D02*
X10383419Y1313438D01*
X10383419Y1313438D02*
X10354390Y1342467D01*
X10354390Y1342467D02*
X10267304Y1400524D01*
X10267304Y1400524D02*
X10151190Y1429553D01*
X10151190Y1429553D02*
X9918961Y1429553D01*
X9918961Y1429553D02*
X9860904Y1400524D01*
X9860904Y1400524D02*
X9831876Y1371496D01*
X9831876Y1371496D02*
X9802847Y1313438D01*
X9802847Y1313438D02*
X9802847Y1197324D01*
X9802847Y1197324D02*
X9831876Y1139267D01*
X9831876Y1139267D02*
X9860904Y1110238D01*
X9860904Y1110238D02*
X9918961Y1081210D01*
X9918961Y1081210D02*
X10064104Y1081210D01*
X10064104Y1081210D02*
X10122161Y1110238D01*
X10122161Y1110238D02*
X10151190Y1139267D01*
X10151190Y1139267D02*
X10180219Y1197324D01*
X10180219Y1197324D02*
X10180219Y1313438D01*
X10180219Y1313438D02*
X10151190Y1371496D01*
X10151190Y1371496D02*
X10122161Y1400524D01*
X10122161Y1400524D02*
X10064104Y1429553D01*
X-10412847Y-3738467D02*
X-9803247Y-3738467D01*
X-9803247Y-3738467D02*
X-9803247Y-3883610D01*
X-9803247Y-3883610D02*
X-9832276Y-3970696D01*
X-9832276Y-3970696D02*
X-9890333Y-4028753D01*
X-9890333Y-4028753D02*
X-9948390Y-4057782D01*
X-9948390Y-4057782D02*
X-10064504Y-4086810D01*
X-10064504Y-4086810D02*
X-10151590Y-4086810D01*
X-10151590Y-4086810D02*
X-10267704Y-4057782D01*
X-10267704Y-4057782D02*
X-10325761Y-4028753D01*
X-10325761Y-4028753D02*
X-10383819Y-3970696D01*
X-10383819Y-3970696D02*
X-10412847Y-3883610D01*
X-10412847Y-3883610D02*
X-10412847Y-3738467D01*
X-10412847Y-4667382D02*
X-10412847Y-4319039D01*
X-10412847Y-4493210D02*
X-9803247Y-4493210D01*
X-9803247Y-4493210D02*
X-9890333Y-4435153D01*
X-9890333Y-4435153D02*
X-9948390Y-4377096D01*
X-9948390Y-4377096D02*
X-9977419Y-4319039D01*
X-10006447Y-5189896D02*
X-10412847Y-5189896D01*
X-9774219Y-5044753D02*
X-10209647Y-4899610D01*
X-10209647Y-4899610D02*
X-10209647Y-5276981D01*
X9802847Y4956910D02*
X9802847Y5334282D01*
X9802847Y5334282D02*
X10035076Y5131082D01*
X10035076Y5131082D02*
X10035076Y5218167D01*
X10035076Y5218167D02*
X10064104Y5276225D01*
X10064104Y5276225D02*
X10093133Y5305253D01*
X10093133Y5305253D02*
X10151190Y5334282D01*
X10151190Y5334282D02*
X10296333Y5334282D01*
X10296333Y5334282D02*
X10354390Y5305253D01*
X10354390Y5305253D02*
X10383419Y5276225D01*
X10383419Y5276225D02*
X10412447Y5218167D01*
X10412447Y5218167D02*
X10412447Y5043996D01*
X10412447Y5043996D02*
X10383419Y4985939D01*
X10383419Y4985939D02*
X10354390Y4956910D01*
X9802847Y5508453D02*
X10412447Y5711653D01*
X10412447Y5711653D02*
X9802847Y5914853D01*
X9802847Y6059995D02*
X9802847Y6437367D01*
X9802847Y6437367D02*
X10035076Y6234167D01*
X10035076Y6234167D02*
X10035076Y6321252D01*
X10035076Y6321252D02*
X10064104Y6379310D01*
X10064104Y6379310D02*
X10093133Y6408338D01*
X10093133Y6408338D02*
X10151190Y6437367D01*
X10151190Y6437367D02*
X10296333Y6437367D01*
X10296333Y6437367D02*
X10354390Y6408338D01*
X10354390Y6408338D02*
X10383419Y6379310D01*
X10383419Y6379310D02*
X10412447Y6321252D01*
X10412447Y6321252D02*
X10412447Y6147081D01*
X10412447Y6147081D02*
X10383419Y6089024D01*
X10383419Y6089024D02*
X10354390Y6059995D01*
X9831876Y10421582D02*
X9802847Y10363525D01*
X9802847Y10363525D02*
X9802847Y10276439D01*
X9802847Y10276439D02*
X9831876Y10189353D01*
X9831876Y10189353D02*
X9889933Y10131296D01*
X9889933Y10131296D02*
X9947990Y10102267D01*
X9947990Y10102267D02*
X10064104Y10073239D01*
X10064104Y10073239D02*
X10151190Y10073239D01*
X10151190Y10073239D02*
X10267304Y10102267D01*
X10267304Y10102267D02*
X10325361Y10131296D01*
X10325361Y10131296D02*
X10383419Y10189353D01*
X10383419Y10189353D02*
X10412447Y10276439D01*
X10412447Y10276439D02*
X10412447Y10334496D01*
X10412447Y10334496D02*
X10383419Y10421582D01*
X10383419Y10421582D02*
X10354390Y10450610D01*
X10354390Y10450610D02*
X10151190Y10450610D01*
X10151190Y10450610D02*
X10151190Y10334496D01*
X10412447Y10711867D02*
X9802847Y10711867D01*
X9802847Y10711867D02*
X10412447Y11060210D01*
X10412447Y11060210D02*
X9802847Y11060210D01*
X10412447Y11350496D02*
X9802847Y11350496D01*
X9802847Y11350496D02*
X9802847Y11495639D01*
X9802847Y11495639D02*
X9831876Y11582725D01*
X9831876Y11582725D02*
X9889933Y11640782D01*
X9889933Y11640782D02*
X9947990Y11669811D01*
X9947990Y11669811D02*
X10064104Y11698839D01*
X10064104Y11698839D02*
X10151190Y11698839D01*
X10151190Y11698839D02*
X10267304Y11669811D01*
X10267304Y11669811D02*
X10325361Y11640782D01*
X10325361Y11640782D02*
X10383419Y11582725D01*
X10383419Y11582725D02*
X10412447Y11495639D01*
X10412447Y11495639D02*
X10412447Y11350496D01*
X10412447Y2483367D02*
X9802847Y2483367D01*
X9802847Y2483367D02*
X9802847Y2628510D01*
X9802847Y2628510D02*
X9831876Y2715596D01*
X9831876Y2715596D02*
X9889933Y2773653D01*
X9889933Y2773653D02*
X9947990Y2802682D01*
X9947990Y2802682D02*
X10064104Y2831710D01*
X10064104Y2831710D02*
X10151190Y2831710D01*
X10151190Y2831710D02*
X10267304Y2802682D01*
X10267304Y2802682D02*
X10325361Y2773653D01*
X10325361Y2773653D02*
X10383419Y2715596D01*
X10383419Y2715596D02*
X10412447Y2628510D01*
X10412447Y2628510D02*
X10412447Y2483367D01*
X10412447Y3412282D02*
X10412447Y3063939D01*
X10412447Y3238110D02*
X9802847Y3238110D01*
X9802847Y3238110D02*
X9889933Y3180053D01*
X9889933Y3180053D02*
X9947990Y3121996D01*
X9947990Y3121996D02*
X9977019Y3063939D01*
X9802847Y3789653D02*
X9802847Y3847710D01*
X9802847Y3847710D02*
X9831876Y3905767D01*
X9831876Y3905767D02*
X9860904Y3934796D01*
X9860904Y3934796D02*
X9918961Y3963824D01*
X9918961Y3963824D02*
X10035076Y3992853D01*
X10035076Y3992853D02*
X10180219Y3992853D01*
X10180219Y3992853D02*
X10296333Y3963824D01*
X10296333Y3963824D02*
X10354390Y3934796D01*
X10354390Y3934796D02*
X10383419Y3905767D01*
X10383419Y3905767D02*
X10412447Y3847710D01*
X10412447Y3847710D02*
X10412447Y3789653D01*
X10412447Y3789653D02*
X10383419Y3731596D01*
X10383419Y3731596D02*
X10354390Y3702567D01*
X10354390Y3702567D02*
X10296333Y3673538D01*
X10296333Y3673538D02*
X10180219Y3644510D01*
X10180219Y3644510D02*
X10035076Y3644510D01*
X10035076Y3644510D02*
X9918961Y3673538D01*
X9918961Y3673538D02*
X9860904Y3702567D01*
X9860904Y3702567D02*
X9831876Y3731596D01*
X9831876Y3731596D02*
X9802847Y3789653D01*
X10412447Y-12517432D02*
X9802847Y-12517432D01*
X9802847Y-12517432D02*
X9802847Y-12372289D01*
X9802847Y-12372289D02*
X9831876Y-12285203D01*
X9831876Y-12285203D02*
X9889933Y-12227146D01*
X9889933Y-12227146D02*
X9947990Y-12198117D01*
X9947990Y-12198117D02*
X10064104Y-12169089D01*
X10064104Y-12169089D02*
X10151190Y-12169089D01*
X10151190Y-12169089D02*
X10267304Y-12198117D01*
X10267304Y-12198117D02*
X10325361Y-12227146D01*
X10325361Y-12227146D02*
X10383419Y-12285203D01*
X10383419Y-12285203D02*
X10412447Y-12372289D01*
X10412447Y-12372289D02*
X10412447Y-12517432D01*
X9802847Y-11965889D02*
X9802847Y-11559489D01*
X9802847Y-11559489D02*
X10412447Y-11820746D01*
X-10412847Y8687532D02*
X-9803247Y8687532D01*
X-9803247Y8687532D02*
X-9803247Y8542389D01*
X-9803247Y8542389D02*
X-9832276Y8455303D01*
X-9832276Y8455303D02*
X-9890333Y8397246D01*
X-9890333Y8397246D02*
X-9948390Y8368217D01*
X-9948390Y8368217D02*
X-10064504Y8339189D01*
X-10064504Y8339189D02*
X-10151590Y8339189D01*
X-10151590Y8339189D02*
X-10267704Y8368217D01*
X-10267704Y8368217D02*
X-10325761Y8397246D01*
X-10325761Y8397246D02*
X-10383819Y8455303D01*
X-10383819Y8455303D02*
X-10412847Y8542389D01*
X-10412847Y8542389D02*
X-10412847Y8687532D01*
X-10412847Y7758617D02*
X-10412847Y8106960D01*
X-10412847Y7932789D02*
X-9803247Y7932789D01*
X-9803247Y7932789D02*
X-9890333Y7990846D01*
X-9890333Y7990846D02*
X-9948390Y8048903D01*
X-9948390Y8048903D02*
X-9977419Y8106960D01*
X10412447Y-5131232D02*
X9802847Y-5131232D01*
X9802847Y-5131232D02*
X9802847Y-4986089D01*
X9802847Y-4986089D02*
X9831876Y-4899003D01*
X9831876Y-4899003D02*
X9889933Y-4840946D01*
X9889933Y-4840946D02*
X9947990Y-4811917D01*
X9947990Y-4811917D02*
X10064104Y-4782889D01*
X10064104Y-4782889D02*
X10151190Y-4782889D01*
X10151190Y-4782889D02*
X10267304Y-4811917D01*
X10267304Y-4811917D02*
X10325361Y-4840946D01*
X10325361Y-4840946D02*
X10383419Y-4899003D01*
X10383419Y-4899003D02*
X10412447Y-4986089D01*
X10412447Y-4986089D02*
X10412447Y-5131232D01*
X10412447Y-4202317D02*
X10412447Y-4550660D01*
X10412447Y-4376489D02*
X9802847Y-4376489D01*
X9802847Y-4376489D02*
X9889933Y-4434546D01*
X9889933Y-4434546D02*
X9947990Y-4492603D01*
X9947990Y-4492603D02*
X9977019Y-4550660D01*
X10064104Y-3853975D02*
X10035076Y-3912032D01*
X10035076Y-3912032D02*
X10006047Y-3941061D01*
X10006047Y-3941061D02*
X9947990Y-3970089D01*
X9947990Y-3970089D02*
X9918961Y-3970089D01*
X9918961Y-3970089D02*
X9860904Y-3941061D01*
X9860904Y-3941061D02*
X9831876Y-3912032D01*
X9831876Y-3912032D02*
X9802847Y-3853975D01*
X9802847Y-3853975D02*
X9802847Y-3737861D01*
X9802847Y-3737861D02*
X9831876Y-3679804D01*
X9831876Y-3679804D02*
X9860904Y-3650775D01*
X9860904Y-3650775D02*
X9918961Y-3621746D01*
X9918961Y-3621746D02*
X9947990Y-3621746D01*
X9947990Y-3621746D02*
X10006047Y-3650775D01*
X10006047Y-3650775D02*
X10035076Y-3679804D01*
X10035076Y-3679804D02*
X10064104Y-3737861D01*
X10064104Y-3737861D02*
X10064104Y-3853975D01*
X10064104Y-3853975D02*
X10093133Y-3912032D01*
X10093133Y-3912032D02*
X10122161Y-3941061D01*
X10122161Y-3941061D02*
X10180219Y-3970089D01*
X10180219Y-3970089D02*
X10296333Y-3970089D01*
X10296333Y-3970089D02*
X10354390Y-3941061D01*
X10354390Y-3941061D02*
X10383419Y-3912032D01*
X10383419Y-3912032D02*
X10412447Y-3853975D01*
X10412447Y-3853975D02*
X10412447Y-3737861D01*
X10412447Y-3737861D02*
X10383419Y-3679804D01*
X10383419Y-3679804D02*
X10354390Y-3650775D01*
X10354390Y-3650775D02*
X10296333Y-3621746D01*
X10296333Y-3621746D02*
X10180219Y-3621746D01*
X10180219Y-3621746D02*
X10122161Y-3650775D01*
X10122161Y-3650775D02*
X10093133Y-3679804D01*
X10093133Y-3679804D02*
X10064104Y-3737861D01*
X-10412847Y-11594567D02*
X-9803247Y-11594567D01*
X-9803247Y-11594567D02*
X-9803247Y-11739710D01*
X-9803247Y-11739710D02*
X-9832276Y-11826796D01*
X-9832276Y-11826796D02*
X-9890333Y-11884853D01*
X-9890333Y-11884853D02*
X-9948390Y-11913882D01*
X-9948390Y-11913882D02*
X-10064504Y-11942910D01*
X-10064504Y-11942910D02*
X-10151590Y-11942910D01*
X-10151590Y-11942910D02*
X-10267704Y-11913882D01*
X-10267704Y-11913882D02*
X-10325761Y-11884853D01*
X-10325761Y-11884853D02*
X-10383819Y-11826796D01*
X-10383819Y-11826796D02*
X-10412847Y-11739710D01*
X-10412847Y-11739710D02*
X-10412847Y-11594567D01*
X-9803247Y-12494453D02*
X-9803247Y-12204167D01*
X-9803247Y-12204167D02*
X-10093533Y-12175139D01*
X-10093533Y-12175139D02*
X-10064504Y-12204167D01*
X-10064504Y-12204167D02*
X-10035476Y-12262225D01*
X-10035476Y-12262225D02*
X-10035476Y-12407367D01*
X-10035476Y-12407367D02*
X-10064504Y-12465425D01*
X-10064504Y-12465425D02*
X-10093533Y-12494453D01*
X-10093533Y-12494453D02*
X-10151590Y-12523482D01*
X-10151590Y-12523482D02*
X-10296733Y-12523482D01*
X-10296733Y-12523482D02*
X-10354790Y-12494453D01*
X-10354790Y-12494453D02*
X-10383819Y-12465425D01*
X-10383819Y-12465425D02*
X-10412847Y-12407367D01*
X-10412847Y-12407367D02*
X-10412847Y-12262225D01*
X-10412847Y-12262225D02*
X-10383819Y-12204167D01*
X-10383819Y-12204167D02*
X-10354790Y-12175139D01*
X9802847Y13227253D02*
X9802847Y12936967D01*
X9802847Y12936967D02*
X10093133Y12907939D01*
X10093133Y12907939D02*
X10064104Y12936967D01*
X10064104Y12936967D02*
X10035076Y12995025D01*
X10035076Y12995025D02*
X10035076Y13140167D01*
X10035076Y13140167D02*
X10064104Y13198225D01*
X10064104Y13198225D02*
X10093133Y13227253D01*
X10093133Y13227253D02*
X10151190Y13256282D01*
X10151190Y13256282D02*
X10296333Y13256282D01*
X10296333Y13256282D02*
X10354390Y13227253D01*
X10354390Y13227253D02*
X10383419Y13198225D01*
X10383419Y13198225D02*
X10412447Y13140167D01*
X10412447Y13140167D02*
X10412447Y12995025D01*
X10412447Y12995025D02*
X10383419Y12936967D01*
X10383419Y12936967D02*
X10354390Y12907939D01*
X9802847Y13430453D02*
X10412447Y13633653D01*
X10412447Y13633653D02*
X9802847Y13836853D01*
X-10412847Y-8715067D02*
X-9803247Y-8715067D01*
X-9803247Y-8715067D02*
X-9803247Y-8860210D01*
X-9803247Y-8860210D02*
X-9832276Y-8947296D01*
X-9832276Y-8947296D02*
X-9890333Y-9005353D01*
X-9890333Y-9005353D02*
X-9948390Y-9034382D01*
X-9948390Y-9034382D02*
X-10064504Y-9063410D01*
X-10064504Y-9063410D02*
X-10151590Y-9063410D01*
X-10151590Y-9063410D02*
X-10267704Y-9034382D01*
X-10267704Y-9034382D02*
X-10325761Y-9005353D01*
X-10325761Y-9005353D02*
X-10383819Y-8947296D01*
X-10383819Y-8947296D02*
X-10412847Y-8860210D01*
X-10412847Y-8860210D02*
X-10412847Y-8715067D01*
X-10412847Y-9643982D02*
X-10412847Y-9295639D01*
X-10412847Y-9469810D02*
X-9803247Y-9469810D01*
X-9803247Y-9469810D02*
X-9890333Y-9411753D01*
X-9890333Y-9411753D02*
X-9948390Y-9353696D01*
X-9948390Y-9353696D02*
X-9977419Y-9295639D01*
X-9803247Y-10195524D02*
X-9803247Y-9905238D01*
X-9803247Y-9905238D02*
X-10093533Y-9876210D01*
X-10093533Y-9876210D02*
X-10064504Y-9905238D01*
X-10064504Y-9905238D02*
X-10035476Y-9963296D01*
X-10035476Y-9963296D02*
X-10035476Y-10108438D01*
X-10035476Y-10108438D02*
X-10064504Y-10166496D01*
X-10064504Y-10166496D02*
X-10093533Y-10195524D01*
X-10093533Y-10195524D02*
X-10151590Y-10224553D01*
X-10151590Y-10224553D02*
X-10296733Y-10224553D01*
X-10296733Y-10224553D02*
X-10354790Y-10195524D01*
X-10354790Y-10195524D02*
X-10383819Y-10166496D01*
X-10383819Y-10166496D02*
X-10412847Y-10108438D01*
X-10412847Y-10108438D02*
X-10412847Y-9963296D01*
X-10412847Y-9963296D02*
X-10383819Y-9905238D01*
X-10383819Y-9905238D02*
X-10354790Y-9876210D01*
X-10412847Y-1390867D02*
X-9803247Y-1390867D01*
X-9803247Y-1390867D02*
X-9803247Y-1536010D01*
X-9803247Y-1536010D02*
X-9832276Y-1623096D01*
X-9832276Y-1623096D02*
X-9890333Y-1681153D01*
X-9890333Y-1681153D02*
X-9948390Y-1710182D01*
X-9948390Y-1710182D02*
X-10064504Y-1739210D01*
X-10064504Y-1739210D02*
X-10151590Y-1739210D01*
X-10151590Y-1739210D02*
X-10267704Y-1710182D01*
X-10267704Y-1710182D02*
X-10325761Y-1681153D01*
X-10325761Y-1681153D02*
X-10383819Y-1623096D01*
X-10383819Y-1623096D02*
X-10412847Y-1536010D01*
X-10412847Y-1536010D02*
X-10412847Y-1390867D01*
X-9803247Y-1942410D02*
X-9803247Y-2319782D01*
X-9803247Y-2319782D02*
X-10035476Y-2116582D01*
X-10035476Y-2116582D02*
X-10035476Y-2203667D01*
X-10035476Y-2203667D02*
X-10064504Y-2261725D01*
X-10064504Y-2261725D02*
X-10093533Y-2290753D01*
X-10093533Y-2290753D02*
X-10151590Y-2319782D01*
X-10151590Y-2319782D02*
X-10296733Y-2319782D01*
X-10296733Y-2319782D02*
X-10354790Y-2290753D01*
X-10354790Y-2290753D02*
X-10383819Y-2261725D01*
X-10383819Y-2261725D02*
X-10412847Y-2203667D01*
X-10412847Y-2203667D02*
X-10412847Y-2029496D01*
X-10412847Y-2029496D02*
X-10383819Y-1971439D01*
X-10383819Y-1971439D02*
X-10354790Y-1942410D01*
X-10412847Y13849332D02*
X-9803247Y13849332D01*
X-9803247Y13849332D02*
X-9803247Y13704189D01*
X-9803247Y13704189D02*
X-9832276Y13617103D01*
X-9832276Y13617103D02*
X-9890333Y13559046D01*
X-9890333Y13559046D02*
X-9948390Y13530017D01*
X-9948390Y13530017D02*
X-10064504Y13500989D01*
X-10064504Y13500989D02*
X-10151590Y13500989D01*
X-10151590Y13500989D02*
X-10267704Y13530017D01*
X-10267704Y13530017D02*
X-10325761Y13559046D01*
X-10325761Y13559046D02*
X-10383819Y13617103D01*
X-10383819Y13617103D02*
X-10412847Y13704189D01*
X-10412847Y13704189D02*
X-10412847Y13849332D01*
X-9803247Y13123617D02*
X-9803247Y13065560D01*
X-9803247Y13065560D02*
X-9832276Y13007503D01*
X-9832276Y13007503D02*
X-9861304Y12978475D01*
X-9861304Y12978475D02*
X-9919361Y12949446D01*
X-9919361Y12949446D02*
X-10035476Y12920417D01*
X-10035476Y12920417D02*
X-10180619Y12920417D01*
X-10180619Y12920417D02*
X-10296733Y12949446D01*
X-10296733Y12949446D02*
X-10354790Y12978475D01*
X-10354790Y12978475D02*
X-10383819Y13007503D01*
X-10383819Y13007503D02*
X-10412847Y13065560D01*
X-10412847Y13065560D02*
X-10412847Y13123617D01*
X-10412847Y13123617D02*
X-10383819Y13181675D01*
X-10383819Y13181675D02*
X-10354790Y13210703D01*
X-10354790Y13210703D02*
X-10296733Y13239732D01*
X-10296733Y13239732D02*
X-10180619Y13268760D01*
X-10180619Y13268760D02*
X-10035476Y13268760D01*
X-10035476Y13268760D02*
X-9919361Y13239732D01*
X-9919361Y13239732D02*
X-9861304Y13210703D01*
X-9861304Y13210703D02*
X-9832276Y13181675D01*
X-9832276Y13181675D02*
X-9803247Y13123617D01*
X-10412847Y-6461467D02*
X-9803247Y-6461467D01*
X-9803247Y-6461467D02*
X-9803247Y-6606610D01*
X-9803247Y-6606610D02*
X-9832276Y-6693696D01*
X-9832276Y-6693696D02*
X-9890333Y-6751753D01*
X-9890333Y-6751753D02*
X-9948390Y-6780782D01*
X-9948390Y-6780782D02*
X-10064504Y-6809810D01*
X-10064504Y-6809810D02*
X-10151590Y-6809810D01*
X-10151590Y-6809810D02*
X-10267704Y-6780782D01*
X-10267704Y-6780782D02*
X-10325761Y-6751753D01*
X-10325761Y-6751753D02*
X-10383819Y-6693696D01*
X-10383819Y-6693696D02*
X-10412847Y-6606610D01*
X-10412847Y-6606610D02*
X-10412847Y-6461467D01*
X-10006447Y-7332325D02*
X-10412847Y-7332325D01*
X-9774219Y-7187182D02*
X-10209647Y-7042039D01*
X-10209647Y-7042039D02*
X-10209647Y-7419410D01*
X-10412847Y3789232D02*
X-9803247Y3789232D01*
X-9803247Y3789232D02*
X-9803247Y3644089D01*
X-9803247Y3644089D02*
X-9832276Y3557003D01*
X-9832276Y3557003D02*
X-9890333Y3498946D01*
X-9890333Y3498946D02*
X-9948390Y3469917D01*
X-9948390Y3469917D02*
X-10064504Y3440889D01*
X-10064504Y3440889D02*
X-10151590Y3440889D01*
X-10151590Y3440889D02*
X-10267704Y3469917D01*
X-10267704Y3469917D02*
X-10325761Y3498946D01*
X-10325761Y3498946D02*
X-10383819Y3557003D01*
X-10383819Y3557003D02*
X-10412847Y3644089D01*
X-10412847Y3644089D02*
X-10412847Y3789232D01*
X-9861304Y3208660D02*
X-9832276Y3179632D01*
X-9832276Y3179632D02*
X-9803247Y3121575D01*
X-9803247Y3121575D02*
X-9803247Y2976432D01*
X-9803247Y2976432D02*
X-9832276Y2918375D01*
X-9832276Y2918375D02*
X-9861304Y2889346D01*
X-9861304Y2889346D02*
X-9919361Y2860317D01*
X-9919361Y2860317D02*
X-9977419Y2860317D01*
X-9977419Y2860317D02*
X-10064504Y2889346D01*
X-10064504Y2889346D02*
X-10412847Y3237689D01*
X-10412847Y3237689D02*
X-10412847Y2860317D01*
X-10412847Y1363432D02*
X-9803247Y1363432D01*
X-9803247Y1363432D02*
X-9803247Y1218289D01*
X-9803247Y1218289D02*
X-9832276Y1131203D01*
X-9832276Y1131203D02*
X-9890333Y1073146D01*
X-9890333Y1073146D02*
X-9948390Y1044117D01*
X-9948390Y1044117D02*
X-10064504Y1015089D01*
X-10064504Y1015089D02*
X-10151590Y1015089D01*
X-10151590Y1015089D02*
X-10267704Y1044117D01*
X-10267704Y1044117D02*
X-10325761Y1073146D01*
X-10325761Y1073146D02*
X-10383819Y1131203D01*
X-10383819Y1131203D02*
X-10412847Y1218289D01*
X-10412847Y1218289D02*
X-10412847Y1363432D01*
X-10412847Y434517D02*
X-10412847Y782860D01*
X-10412847Y608689D02*
X-9803247Y608689D01*
X-9803247Y608689D02*
X-9890333Y666746D01*
X-9890333Y666746D02*
X-9948390Y724803D01*
X-9948390Y724803D02*
X-9977419Y782860D01*
X-9803247Y231318D02*
X-9803247Y-146053D01*
X-9803247Y-146053D02*
X-10035476Y57146D01*
X-10035476Y57146D02*
X-10035476Y-29938D01*
X-10035476Y-29938D02*
X-10064504Y-87996D01*
X-10064504Y-87996D02*
X-10093533Y-117024D01*
X-10093533Y-117024D02*
X-10151590Y-146053D01*
X-10151590Y-146053D02*
X-10296733Y-146053D01*
X-10296733Y-146053D02*
X-10354790Y-117024D01*
X-10354790Y-117024D02*
X-10383819Y-87996D01*
X-10383819Y-87996D02*
X-10412847Y-29938D01*
X-10412847Y-29938D02*
X-10412847Y144232D01*
X-10412847Y144232D02*
X-10383819Y202289D01*
X-10383819Y202289D02*
X-10354790Y231318D01*
X-10412847Y-13863867D02*
X-9803247Y-13863867D01*
X-9803247Y-13863867D02*
X-9803247Y-14009010D01*
X-9803247Y-14009010D02*
X-9832276Y-14096096D01*
X-9832276Y-14096096D02*
X-9890333Y-14154153D01*
X-9890333Y-14154153D02*
X-9948390Y-14183182D01*
X-9948390Y-14183182D02*
X-10064504Y-14212210D01*
X-10064504Y-14212210D02*
X-10151590Y-14212210D01*
X-10151590Y-14212210D02*
X-10267704Y-14183182D01*
X-10267704Y-14183182D02*
X-10325761Y-14154153D01*
X-10325761Y-14154153D02*
X-10383819Y-14096096D01*
X-10383819Y-14096096D02*
X-10412847Y-14009010D01*
X-10412847Y-14009010D02*
X-10412847Y-13863867D01*
X-10412847Y-14792782D02*
X-10412847Y-14444439D01*
X-10412847Y-14618610D02*
X-9803247Y-14618610D01*
X-9803247Y-14618610D02*
X-9890333Y-14560553D01*
X-9890333Y-14560553D02*
X-9948390Y-14502496D01*
X-9948390Y-14502496D02*
X-9977419Y-14444439D01*
X-9803247Y-15315296D02*
X-9803247Y-15199181D01*
X-9803247Y-15199181D02*
X-9832276Y-15141124D01*
X-9832276Y-15141124D02*
X-9861304Y-15112096D01*
X-9861304Y-15112096D02*
X-9948390Y-15054038D01*
X-9948390Y-15054038D02*
X-10064504Y-15025010D01*
X-10064504Y-15025010D02*
X-10296733Y-15025010D01*
X-10296733Y-15025010D02*
X-10354790Y-15054038D01*
X-10354790Y-15054038D02*
X-10383819Y-15083067D01*
X-10383819Y-15083067D02*
X-10412847Y-15141124D01*
X-10412847Y-15141124D02*
X-10412847Y-15257238D01*
X-10412847Y-15257238D02*
X-10383819Y-15315296D01*
X-10383819Y-15315296D02*
X-10354790Y-15344324D01*
X-10354790Y-15344324D02*
X-10296733Y-15373353D01*
X-10296733Y-15373353D02*
X-10151590Y-15373353D01*
X-10151590Y-15373353D02*
X-10093533Y-15344324D01*
X-10093533Y-15344324D02*
X-10064504Y-15315296D01*
X-10064504Y-15315296D02*
X-10035476Y-15257238D01*
X-10035476Y-15257238D02*
X-10035476Y-15141124D01*
X-10035476Y-15141124D02*
X-10064504Y-15083067D01*
X-10064504Y-15083067D02*
X-10093533Y-15054038D01*
X-10093533Y-15054038D02*
X-10151590Y-15025010D01*
X10412447Y-2322232D02*
X9802847Y-2322232D01*
X9802847Y-2322232D02*
X9802847Y-2177089D01*
X9802847Y-2177089D02*
X9831876Y-2090003D01*
X9831876Y-2090003D02*
X9889933Y-2031946D01*
X9889933Y-2031946D02*
X9947990Y-2002917D01*
X9947990Y-2002917D02*
X10064104Y-1973889D01*
X10064104Y-1973889D02*
X10151190Y-1973889D01*
X10151190Y-1973889D02*
X10267304Y-2002917D01*
X10267304Y-2002917D02*
X10325361Y-2031946D01*
X10325361Y-2031946D02*
X10383419Y-2090003D01*
X10383419Y-2090003D02*
X10412447Y-2177089D01*
X10412447Y-2177089D02*
X10412447Y-2322232D01*
X10412447Y-1683603D02*
X10412447Y-1567489D01*
X10412447Y-1567489D02*
X10383419Y-1509432D01*
X10383419Y-1509432D02*
X10354390Y-1480403D01*
X10354390Y-1480403D02*
X10267304Y-1422346D01*
X10267304Y-1422346D02*
X10151190Y-1393317D01*
X10151190Y-1393317D02*
X9918961Y-1393317D01*
X9918961Y-1393317D02*
X9860904Y-1422346D01*
X9860904Y-1422346D02*
X9831876Y-1451375D01*
X9831876Y-1451375D02*
X9802847Y-1509432D01*
X9802847Y-1509432D02*
X9802847Y-1625546D01*
X9802847Y-1625546D02*
X9831876Y-1683603D01*
X9831876Y-1683603D02*
X9860904Y-1712632D01*
X9860904Y-1712632D02*
X9918961Y-1741660D01*
X9918961Y-1741660D02*
X10064104Y-1741660D01*
X10064104Y-1741660D02*
X10122161Y-1712632D01*
X10122161Y-1712632D02*
X10151190Y-1683603D01*
X10151190Y-1683603D02*
X10180219Y-1625546D01*
X10180219Y-1625546D02*
X10180219Y-1509432D01*
X10180219Y-1509432D02*
X10151190Y-1451375D01*
X10151190Y-1451375D02*
X10122161Y-1422346D01*
X10122161Y-1422346D02*
X10064104Y-1393317D01*
X-10412847Y-16821567D02*
X-9803247Y-16821567D01*
X-9803247Y-16821567D02*
X-9803247Y-16966710D01*
X-9803247Y-16966710D02*
X-9832276Y-17053796D01*
X-9832276Y-17053796D02*
X-9890333Y-17111853D01*
X-9890333Y-17111853D02*
X-9948390Y-17140882D01*
X-9948390Y-17140882D02*
X-10064504Y-17169910D01*
X-10064504Y-17169910D02*
X-10151590Y-17169910D01*
X-10151590Y-17169910D02*
X-10267704Y-17140882D01*
X-10267704Y-17140882D02*
X-10325761Y-17111853D01*
X-10325761Y-17111853D02*
X-10383819Y-17053796D01*
X-10383819Y-17053796D02*
X-10412847Y-16966710D01*
X-10412847Y-16966710D02*
X-10412847Y-16821567D01*
X-9803247Y-17692425D02*
X-9803247Y-17576310D01*
X-9803247Y-17576310D02*
X-9832276Y-17518253D01*
X-9832276Y-17518253D02*
X-9861304Y-17489225D01*
X-9861304Y-17489225D02*
X-9948390Y-17431167D01*
X-9948390Y-17431167D02*
X-10064504Y-17402139D01*
X-10064504Y-17402139D02*
X-10296733Y-17402139D01*
X-10296733Y-17402139D02*
X-10354790Y-17431167D01*
X-10354790Y-17431167D02*
X-10383819Y-17460196D01*
X-10383819Y-17460196D02*
X-10412847Y-17518253D01*
X-10412847Y-17518253D02*
X-10412847Y-17634367D01*
X-10412847Y-17634367D02*
X-10383819Y-17692425D01*
X-10383819Y-17692425D02*
X-10354790Y-17721453D01*
X-10354790Y-17721453D02*
X-10296733Y-17750482D01*
X-10296733Y-17750482D02*
X-10151590Y-17750482D01*
X-10151590Y-17750482D02*
X-10093533Y-17721453D01*
X-10093533Y-17721453D02*
X-10064504Y-17692425D01*
X-10064504Y-17692425D02*
X-10035476Y-17634367D01*
X-10035476Y-17634367D02*
X-10035476Y-17518253D01*
X-10035476Y-17518253D02*
X-10064504Y-17460196D01*
X-10064504Y-17460196D02*
X-10093533Y-17431167D01*
X-10093533Y-17431167D02*
X-10151590Y-17402139D01*
X10093133Y-18073132D02*
X10122161Y-17986046D01*
X10122161Y-17986046D02*
X10151190Y-17957017D01*
X10151190Y-17957017D02*
X10209247Y-17927989D01*
X10209247Y-17927989D02*
X10296333Y-17927989D01*
X10296333Y-17927989D02*
X10354390Y-17957017D01*
X10354390Y-17957017D02*
X10383419Y-17986046D01*
X10383419Y-17986046D02*
X10412447Y-18044103D01*
X10412447Y-18044103D02*
X10412447Y-18276332D01*
X10412447Y-18276332D02*
X9802847Y-18276332D01*
X9802847Y-18276332D02*
X9802847Y-18073132D01*
X9802847Y-18073132D02*
X9831876Y-18015075D01*
X9831876Y-18015075D02*
X9860904Y-17986046D01*
X9860904Y-17986046D02*
X9918961Y-17957017D01*
X9918961Y-17957017D02*
X9977019Y-17957017D01*
X9977019Y-17957017D02*
X10035076Y-17986046D01*
X10035076Y-17986046D02*
X10064104Y-18015075D01*
X10064104Y-18015075D02*
X10093133Y-18073132D01*
X10093133Y-18073132D02*
X10093133Y-18276332D01*
X10238276Y-17695760D02*
X10238276Y-17405475D01*
X10412447Y-17753817D02*
X9802847Y-17550617D01*
X9802847Y-17550617D02*
X10412447Y-17347417D01*
X9802847Y-17231303D02*
X9802847Y-16882961D01*
X10412447Y-17057132D02*
X9802847Y-17057132D01*
X10180219Y-16679761D02*
X10180219Y-16215304D01*
X10412447Y-16447532D02*
X9947990Y-16447532D01*
X10093133Y-15263832D02*
X10122161Y-15176746D01*
X10122161Y-15176746D02*
X10151190Y-15147717D01*
X10151190Y-15147717D02*
X10209247Y-15118689D01*
X10209247Y-15118689D02*
X10296333Y-15118689D01*
X10296333Y-15118689D02*
X10354390Y-15147717D01*
X10354390Y-15147717D02*
X10383419Y-15176746D01*
X10383419Y-15176746D02*
X10412447Y-15234803D01*
X10412447Y-15234803D02*
X10412447Y-15467032D01*
X10412447Y-15467032D02*
X9802847Y-15467032D01*
X9802847Y-15467032D02*
X9802847Y-15263832D01*
X9802847Y-15263832D02*
X9831876Y-15205775D01*
X9831876Y-15205775D02*
X9860904Y-15176746D01*
X9860904Y-15176746D02*
X9918961Y-15147717D01*
X9918961Y-15147717D02*
X9977019Y-15147717D01*
X9977019Y-15147717D02*
X10035076Y-15176746D01*
X10035076Y-15176746D02*
X10064104Y-15205775D01*
X10064104Y-15205775D02*
X10093133Y-15263832D01*
X10093133Y-15263832D02*
X10093133Y-15467032D01*
X10238276Y-14886460D02*
X10238276Y-14596175D01*
X10412447Y-14944517D02*
X9802847Y-14741317D01*
X9802847Y-14741317D02*
X10412447Y-14538117D01*
X9802847Y-14422003D02*
X9802847Y-14073661D01*
X10412447Y-14247832D02*
X9802847Y-14247832D01*
X10209247Y-13928518D02*
X10209247Y-13754346D01*
X-10412847Y11556332D02*
X-9803247Y11556332D01*
X-9803247Y11556332D02*
X-9803247Y11411189D01*
X-9803247Y11411189D02*
X-9832276Y11324103D01*
X-9832276Y11324103D02*
X-9890333Y11266046D01*
X-9890333Y11266046D02*
X-9948390Y11237017D01*
X-9948390Y11237017D02*
X-10064504Y11207989D01*
X-10064504Y11207989D02*
X-10151590Y11207989D01*
X-10151590Y11207989D02*
X-10267704Y11237017D01*
X-10267704Y11237017D02*
X-10325761Y11266046D01*
X-10325761Y11266046D02*
X-10383819Y11324103D01*
X-10383819Y11324103D02*
X-10412847Y11411189D01*
X-10412847Y11411189D02*
X-10412847Y11556332D01*
X-10412847Y10627417D02*
X-10412847Y10975760D01*
X-10412847Y10801589D02*
X-9803247Y10801589D01*
X-9803247Y10801589D02*
X-9890333Y10859646D01*
X-9890333Y10859646D02*
X-9948390Y10917703D01*
X-9948390Y10917703D02*
X-9977419Y10975760D01*
X-10412847Y10046846D02*
X-10412847Y10395189D01*
X-10412847Y10221018D02*
X-9803247Y10221018D01*
X-9803247Y10221018D02*
X-9890333Y10279075D01*
X-9890333Y10279075D02*
X-9948390Y10337132D01*
X-9948390Y10337132D02*
X-9977419Y10395189D01*
X10412447Y-10344332D02*
X9802847Y-10344332D01*
X9802847Y-10344332D02*
X9802847Y-10199189D01*
X9802847Y-10199189D02*
X9831876Y-10112103D01*
X9831876Y-10112103D02*
X9889933Y-10054046D01*
X9889933Y-10054046D02*
X9947990Y-10025017D01*
X9947990Y-10025017D02*
X10064104Y-9995989D01*
X10064104Y-9995989D02*
X10151190Y-9995989D01*
X10151190Y-9995989D02*
X10267304Y-10025017D01*
X10267304Y-10025017D02*
X10325361Y-10054046D01*
X10325361Y-10054046D02*
X10383419Y-10112103D01*
X10383419Y-10112103D02*
X10412447Y-10199189D01*
X10412447Y-10199189D02*
X10412447Y-10344332D01*
X10412447Y-9415417D02*
X10412447Y-9763760D01*
X10412447Y-9589589D02*
X9802847Y-9589589D01*
X9802847Y-9589589D02*
X9889933Y-9647646D01*
X9889933Y-9647646D02*
X9947990Y-9705703D01*
X9947990Y-9705703D02*
X9977019Y-9763760D01*
X9802847Y-9212218D02*
X9802847Y-8805818D01*
X9802847Y-8805818D02*
X10412447Y-9067075D01*
D11*
X-8213214Y-14024155D02*
X-7679880Y-14824155D01*
X-7679880Y-14024155D02*
X-8213214Y-14824155D01*
X-7375118Y-14824155D02*
X-7375118Y-14024155D01*
X-7032262Y-14595583D02*
X-6651309Y-14595583D01*
X-7108452Y-14824155D02*
X-6841785Y-14024155D01*
X-6841785Y-14024155D02*
X-6575119Y-14824155D01*
X-6156071Y-14024155D02*
X-6003690Y-14024155D01*
X-6003690Y-14024155D02*
X-5927500Y-14062250D01*
X-5927500Y-14062250D02*
X-5851309Y-14138440D01*
X-5851309Y-14138440D02*
X-5813214Y-14290821D01*
X-5813214Y-14290821D02*
X-5813214Y-14557488D01*
X-5813214Y-14557488D02*
X-5851309Y-14709869D01*
X-5851309Y-14709869D02*
X-5927500Y-14786060D01*
X-5927500Y-14786060D02*
X-6003690Y-14824155D01*
X-6003690Y-14824155D02*
X-6156071Y-14824155D01*
X-6156071Y-14824155D02*
X-6232262Y-14786060D01*
X-6232262Y-14786060D02*
X-6308452Y-14709869D01*
X-6308452Y-14709869D02*
X-6346548Y-14557488D01*
X-6346548Y-14557488D02*
X-6346548Y-14290821D01*
X-6346548Y-14290821D02*
X-6308452Y-14138440D01*
X-6308452Y-14138440D02*
X-6232262Y-14062250D01*
X-6232262Y-14062250D02*
X-6156071Y-14024155D01*
X-5241786Y-14824155D02*
X-5241786Y-14024155D01*
X-5241786Y-14024155D02*
X-4937024Y-14024155D01*
X-4937024Y-14024155D02*
X-4860834Y-14062250D01*
X-4860834Y-14062250D02*
X-4822739Y-14100345D01*
X-4822739Y-14100345D02*
X-4784643Y-14176536D01*
X-4784643Y-14176536D02*
X-4784643Y-14290821D01*
X-4784643Y-14290821D02*
X-4822739Y-14367012D01*
X-4822739Y-14367012D02*
X-4860834Y-14405107D01*
X-4860834Y-14405107D02*
X-4937024Y-14443202D01*
X-4937024Y-14443202D02*
X-5241786Y-14443202D01*
X-4060834Y-14824155D02*
X-4441786Y-14824155D01*
X-4441786Y-14824155D02*
X-4441786Y-14024155D01*
X-3794167Y-14024155D02*
X-3794167Y-14671774D01*
X-3794167Y-14671774D02*
X-3756072Y-14747964D01*
X-3756072Y-14747964D02*
X-3717977Y-14786060D01*
X-3717977Y-14786060D02*
X-3641786Y-14824155D01*
X-3641786Y-14824155D02*
X-3489405Y-14824155D01*
X-3489405Y-14824155D02*
X-3413215Y-14786060D01*
X-3413215Y-14786060D02*
X-3375120Y-14747964D01*
X-3375120Y-14747964D02*
X-3337024Y-14671774D01*
X-3337024Y-14671774D02*
X-3337024Y-14024155D01*
X-2994168Y-14786060D02*
X-2879882Y-14824155D01*
X-2879882Y-14824155D02*
X-2689406Y-14824155D01*
X-2689406Y-14824155D02*
X-2613215Y-14786060D01*
X-2613215Y-14786060D02*
X-2575120Y-14747964D01*
X-2575120Y-14747964D02*
X-2537025Y-14671774D01*
X-2537025Y-14671774D02*
X-2537025Y-14595583D01*
X-2537025Y-14595583D02*
X-2575120Y-14519393D01*
X-2575120Y-14519393D02*
X-2613215Y-14481298D01*
X-2613215Y-14481298D02*
X-2689406Y-14443202D01*
X-2689406Y-14443202D02*
X-2841787Y-14405107D01*
X-2841787Y-14405107D02*
X-2917977Y-14367012D01*
X-2917977Y-14367012D02*
X-2956072Y-14328917D01*
X-2956072Y-14328917D02*
X-2994168Y-14252726D01*
X-2994168Y-14252726D02*
X-2994168Y-14176536D01*
X-2994168Y-14176536D02*
X-2956072Y-14100345D01*
X-2956072Y-14100345D02*
X-2917977Y-14062250D01*
X-2917977Y-14062250D02*
X-2841787Y-14024155D01*
X-2841787Y-14024155D02*
X-2651310Y-14024155D01*
X-2651310Y-14024155D02*
X-2537025Y-14062250D01*
X-1546549Y-14062250D02*
X-1622739Y-14024155D01*
X-1622739Y-14024155D02*
X-1737025Y-14024155D01*
X-1737025Y-14024155D02*
X-1851311Y-14062250D01*
X-1851311Y-14062250D02*
X-1927501Y-14138440D01*
X-1927501Y-14138440D02*
X-1965596Y-14214631D01*
X-1965596Y-14214631D02*
X-2003692Y-14367012D01*
X-2003692Y-14367012D02*
X-2003692Y-14481298D01*
X-2003692Y-14481298D02*
X-1965596Y-14633679D01*
X-1965596Y-14633679D02*
X-1927501Y-14709869D01*
X-1927501Y-14709869D02*
X-1851311Y-14786060D01*
X-1851311Y-14786060D02*
X-1737025Y-14824155D01*
X-1737025Y-14824155D02*
X-1660834Y-14824155D01*
X-1660834Y-14824155D02*
X-1546549Y-14786060D01*
X-1546549Y-14786060D02*
X-1508453Y-14747964D01*
X-1508453Y-14747964D02*
X-1508453Y-14481298D01*
X-1508453Y-14481298D02*
X-1660834Y-14481298D01*
X-1165596Y-14824155D02*
X-1165596Y-14024155D01*
X-1165596Y-14024155D02*
X-860834Y-14024155D01*
X-860834Y-14024155D02*
X-784644Y-14062250D01*
X-784644Y-14062250D02*
X-746549Y-14100345D01*
X-746549Y-14100345D02*
X-708453Y-14176536D01*
X-708453Y-14176536D02*
X-708453Y-14290821D01*
X-708453Y-14290821D02*
X-746549Y-14367012D01*
X-746549Y-14367012D02*
X-784644Y-14405107D01*
X-784644Y-14405107D02*
X-860834Y-14443202D01*
X-860834Y-14443202D02*
X-1165596Y-14443202D01*
X-365596Y-14824155D02*
X-365596Y-14024155D01*
X167736Y-14024155D02*
X320117Y-14024155D01*
X320117Y-14024155D02*
X396307Y-14062250D01*
X396307Y-14062250D02*
X472498Y-14138440D01*
X472498Y-14138440D02*
X510593Y-14290821D01*
X510593Y-14290821D02*
X510593Y-14557488D01*
X510593Y-14557488D02*
X472498Y-14709869D01*
X472498Y-14709869D02*
X396307Y-14786060D01*
X396307Y-14786060D02*
X320117Y-14824155D01*
X320117Y-14824155D02*
X167736Y-14824155D01*
X167736Y-14824155D02*
X91545Y-14786060D01*
X91545Y-14786060D02*
X15355Y-14709869D01*
X15355Y-14709869D02*
X-22740Y-14557488D01*
X-22740Y-14557488D02*
X-22740Y-14290821D01*
X-22740Y-14290821D02*
X15355Y-14138440D01*
X15355Y-14138440D02*
X91545Y-14062250D01*
X91545Y-14062250D02*
X167736Y-14024155D01*
X1043925Y-14595583D02*
X1424878Y-14595583D01*
X967735Y-14824155D02*
X1234402Y-14024155D01*
X1234402Y-14024155D02*
X1501068Y-14824155D01*
X1767735Y-14824155D02*
X1767735Y-14024155D01*
X1767735Y-14024155D02*
X1958211Y-14024155D01*
X1958211Y-14024155D02*
X2072497Y-14062250D01*
X2072497Y-14062250D02*
X2148687Y-14138440D01*
X2148687Y-14138440D02*
X2186782Y-14214631D01*
X2186782Y-14214631D02*
X2224878Y-14367012D01*
X2224878Y-14367012D02*
X2224878Y-14481298D01*
X2224878Y-14481298D02*
X2186782Y-14633679D01*
X2186782Y-14633679D02*
X2148687Y-14709869D01*
X2148687Y-14709869D02*
X2072497Y-14786060D01*
X2072497Y-14786060D02*
X1958211Y-14824155D01*
X1958211Y-14824155D02*
X1767735Y-14824155D01*
X2529639Y-14595583D02*
X2910592Y-14595583D01*
X2453449Y-14824155D02*
X2720116Y-14024155D01*
X2720116Y-14024155D02*
X2986782Y-14824155D01*
X3253449Y-14824155D02*
X3253449Y-14024155D01*
X3253449Y-14024155D02*
X3558211Y-14024155D01*
X3558211Y-14024155D02*
X3634401Y-14062250D01*
X3634401Y-14062250D02*
X3672496Y-14100345D01*
X3672496Y-14100345D02*
X3710592Y-14176536D01*
X3710592Y-14176536D02*
X3710592Y-14290821D01*
X3710592Y-14290821D02*
X3672496Y-14367012D01*
X3672496Y-14367012D02*
X3634401Y-14405107D01*
X3634401Y-14405107D02*
X3558211Y-14443202D01*
X3558211Y-14443202D02*
X3253449Y-14443202D01*
X3939163Y-14024155D02*
X4396306Y-14024155D01*
X4167734Y-14824155D02*
X4167734Y-14024155D01*
X4662973Y-14405107D02*
X4929639Y-14405107D01*
X5043925Y-14824155D02*
X4662973Y-14824155D01*
X4662973Y-14824155D02*
X4662973Y-14024155D01*
X4662973Y-14024155D02*
X5043925Y-14024155D01*
X5843926Y-14824155D02*
X5577259Y-14443202D01*
X5386783Y-14824155D02*
X5386783Y-14024155D01*
X5386783Y-14024155D02*
X5691545Y-14024155D01*
X5691545Y-14024155D02*
X5767735Y-14062250D01*
X5767735Y-14062250D02*
X5805830Y-14100345D01*
X5805830Y-14100345D02*
X5843926Y-14176536D01*
X5843926Y-14176536D02*
X5843926Y-14290821D01*
X5843926Y-14290821D02*
X5805830Y-14367012D01*
X5805830Y-14367012D02*
X5767735Y-14405107D01*
X5767735Y-14405107D02*
X5691545Y-14443202D01*
X5691545Y-14443202D02*
X5386783Y-14443202D01*
X-11696666Y-1448955D02*
X-11696666Y-2020383D01*
X-11696666Y-2020383D02*
X-11734761Y-2134669D01*
X-11734761Y-2134669D02*
X-11810952Y-2210860D01*
X-11810952Y-2210860D02*
X-11925237Y-2248955D01*
X-11925237Y-2248955D02*
X-12001428Y-2248955D01*
X-10896666Y-2248955D02*
X-11353809Y-2248955D01*
X-11125237Y-2248955D02*
X-11125237Y-1448955D01*
X-11125237Y-1448955D02*
X-11201428Y-1563240D01*
X-11201428Y-1563240D02*
X-11277618Y-1639431D01*
X-11277618Y-1639431D02*
X-11353809Y-1677526D01*
X11163333Y-1448955D02*
X11163333Y-2020383D01*
X11163333Y-2020383D02*
X11125238Y-2134669D01*
X11125238Y-2134669D02*
X11049047Y-2210860D01*
X11049047Y-2210860D02*
X10934762Y-2248955D01*
X10934762Y-2248955D02*
X10858571Y-2248955D01*
X11506190Y-1525145D02*
X11544286Y-1487050D01*
X11544286Y-1487050D02*
X11620476Y-1448955D01*
X11620476Y-1448955D02*
X11810952Y-1448955D01*
X11810952Y-1448955D02*
X11887143Y-1487050D01*
X11887143Y-1487050D02*
X11925238Y-1525145D01*
X11925238Y-1525145D02*
X11963333Y-1601336D01*
X11963333Y-1601336D02*
X11963333Y-1677526D01*
X11963333Y-1677526D02*
X11925238Y-1791812D01*
X11925238Y-1791812D02*
X11468095Y-2248955D01*
X11468095Y-2248955D02*
X11963333Y-2248955D01*
%TO.C,*%
G36*
X-7763851Y-12034261D02*
G01*
X-7705280Y-12038144D01*
X-7648663Y-12044814D01*
X-7594842Y-12054345D01*
X-7558924Y-12062616D01*
X-7522976Y-12072211D01*
X-7487599Y-12082871D01*
X-7453393Y-12094337D01*
X-7420960Y-12106349D01*
X-7390898Y-12118650D01*
X-7363810Y-12130981D01*
X-7340294Y-12143082D01*
X-7320953Y-12154694D01*
X-7306386Y-12165560D01*
X-7297194Y-12175421D01*
X-7293977Y-12184016D01*
X-7295730Y-12197854D01*
X-7300684Y-12218176D01*
X-7308264Y-12243517D01*
X-7317898Y-12272413D01*
X-7329013Y-12303397D01*
X-7341036Y-12335004D01*
X-7353395Y-12365769D01*
X-7365517Y-12394226D01*
X-7376828Y-12418910D01*
X-7386756Y-12438356D01*
X-7394728Y-12451098D01*
X-7400172Y-12455671D01*
X-7402897Y-12455355D01*
X-7406721Y-12454435D01*
X-7411546Y-12452953D01*
X-7417268Y-12450951D01*
X-7423788Y-12448470D01*
X-7431004Y-12445552D01*
X-7438815Y-12442240D01*
X-7447120Y-12438575D01*
X-7455819Y-12434599D01*
X-7464811Y-12430353D01*
X-7473993Y-12425881D01*
X-7483266Y-12421223D01*
X-7552819Y-12390366D01*
X-7624691Y-12366905D01*
X-7697281Y-12350648D01*
X-7768987Y-12341405D01*
X-7838206Y-12338984D01*
X-7903336Y-12343195D01*
X-7962775Y-12353845D01*
X-8014920Y-12370745D01*
X-8058169Y-12393702D01*
X-8090919Y-12422525D01*
X-8111569Y-12457024D01*
X-8118517Y-12497007D01*
X-8117363Y-12521687D01*
X-8113894Y-12543375D01*
X-8107288Y-12562559D01*
X-8096725Y-12579725D01*
X-8081383Y-12595360D01*
X-8060440Y-12609952D01*
X-8033075Y-12623986D01*
X-7998465Y-12637950D01*
X-7955791Y-12652331D01*
X-7904229Y-12667614D01*
X-7842960Y-12684288D01*
X-7771160Y-12702839D01*
X-7693746Y-12723267D01*
X-7624664Y-12743218D01*
X-7563307Y-12763036D01*
X-7509064Y-12783064D01*
X-7461327Y-12803646D01*
X-7419484Y-12825126D01*
X-7382929Y-12847847D01*
X-7351049Y-12872153D01*
X-7323237Y-12898388D01*
X-7298883Y-12926894D01*
X-7277377Y-12958017D01*
X-7258110Y-12992098D01*
X-7247540Y-13016251D01*
X-7238964Y-13043364D01*
X-7232378Y-13072898D01*
X-7227776Y-13104313D01*
X-7225152Y-13137068D01*
X-7224502Y-13170625D01*
X-7225820Y-13204443D01*
X-7229100Y-13237982D01*
X-7234338Y-13270703D01*
X-7241528Y-13302066D01*
X-7250664Y-13331530D01*
X-7261742Y-13358557D01*
X-7274942Y-13383606D01*
X-7290869Y-13408578D01*
X-7309290Y-13433273D01*
X-7329976Y-13457488D01*
X-7352696Y-13481022D01*
X-7377220Y-13503674D01*
X-7403318Y-13525244D01*
X-7430759Y-13545528D01*
X-7459312Y-13564327D01*
X-7488748Y-13581439D01*
X-7518836Y-13596663D01*
X-7549345Y-13609797D01*
X-7587432Y-13622242D01*
X-7632610Y-13632782D01*
X-7683615Y-13641384D01*
X-7739183Y-13648016D01*
X-7798052Y-13652647D01*
X-7858957Y-13655243D01*
X-7920635Y-13655773D01*
X-7981824Y-13654204D01*
X-8041259Y-13650505D01*
X-8097676Y-13644642D01*
X-8149814Y-13636584D01*
X-8196407Y-13626299D01*
X-8224843Y-13618670D01*
X-8250933Y-13611317D01*
X-8275094Y-13604074D01*
X-8297745Y-13596777D01*
X-8319300Y-13589262D01*
X-8340179Y-13581365D01*
X-8360797Y-13572922D01*
X-8381571Y-13563769D01*
X-8402919Y-13553741D01*
X-8425257Y-13542674D01*
X-8449003Y-13530404D01*
X-8474573Y-13516767D01*
X-8529300Y-13487214D01*
X-8487124Y-13362460D01*
X-8472974Y-13320435D01*
X-8461049Y-13285850D01*
X-8450594Y-13258268D01*
X-8440854Y-13237253D01*
X-8431073Y-13222368D01*
X-8420498Y-13213177D01*
X-8408372Y-13209244D01*
X-8393941Y-13210131D01*
X-8376450Y-13215402D01*
X-8355143Y-13224621D01*
X-8329265Y-13237350D01*
X-8298061Y-13253155D01*
X-8256542Y-13272766D01*
X-8213535Y-13290582D01*
X-8169454Y-13306522D01*
X-8124714Y-13320504D01*
X-8079729Y-13332448D01*
X-8034912Y-13342272D01*
X-7990677Y-13349895D01*
X-7947439Y-13355236D01*
X-7905610Y-13358214D01*
X-7865606Y-13358749D01*
X-7827840Y-13356758D01*
X-7792726Y-13352161D01*
X-7762915Y-13346354D01*
X-7735763Y-13339883D01*
X-7711199Y-13332704D01*
X-7689153Y-13324773D01*
X-7669551Y-13316043D01*
X-7652323Y-13306471D01*
X-7637396Y-13296013D01*
X-7624700Y-13284623D01*
X-7614162Y-13272257D01*
X-7605712Y-13258870D01*
X-7599277Y-13244418D01*
X-7594786Y-13228857D01*
X-7590982Y-13203098D01*
X-7591720Y-13179539D01*
X-7597459Y-13157883D01*
X-7608660Y-13137831D01*
X-7625785Y-13119088D01*
X-7649293Y-13101356D01*
X-7679646Y-13084337D01*
X-7717303Y-13067735D01*
X-7762726Y-13051252D01*
X-7816374Y-13034591D01*
X-7878709Y-13017456D01*
X-7950191Y-12999548D01*
X-8047874Y-12974264D01*
X-8133989Y-12948104D01*
X-8209122Y-12920550D01*
X-8273859Y-12891085D01*
X-8328786Y-12859191D01*
X-8374488Y-12824350D01*
X-8411552Y-12786044D01*
X-8440564Y-12743756D01*
X-8462108Y-12696967D01*
X-8476772Y-12645160D01*
X-8485140Y-12587818D01*
X-8487799Y-12524422D01*
X-8487613Y-12500760D01*
X-8487029Y-12479081D01*
X-8486008Y-12459178D01*
X-8484512Y-12440842D01*
X-8482501Y-12423865D01*
X-8479937Y-12408038D01*
X-8476782Y-12393154D01*
X-8472996Y-12379005D01*
X-8468540Y-12365382D01*
X-8463377Y-12352078D01*
X-8457466Y-12338884D01*
X-8450770Y-12325592D01*
X-8440105Y-12307318D01*
X-8426975Y-12287910D01*
X-8411742Y-12267733D01*
X-8394770Y-12247157D01*
X-8376423Y-12226547D01*
X-8357063Y-12206273D01*
X-8337053Y-12186700D01*
X-8316757Y-12168198D01*
X-8296537Y-12151133D01*
X-8276757Y-12135873D01*
X-8257780Y-12122785D01*
X-8239969Y-12112237D01*
X-8201705Y-12094442D01*
X-8157817Y-12078754D01*
X-8109147Y-12065247D01*
X-8056537Y-12053998D01*
X-8000828Y-12045082D01*
X-7942863Y-12038575D01*
X-7883484Y-12034552D01*
X-7823533Y-12033089D01*
X-7763851Y-12034261D01*
G37*
G36*
X-6201443Y-12027831D02*
G01*
X-6149481Y-12033298D01*
X-6097831Y-12042259D01*
X-6046785Y-12054591D01*
X-5996637Y-12070172D01*
X-5947681Y-12088878D01*
X-5900209Y-12110587D01*
X-5854515Y-12135175D01*
X-5810892Y-12162520D01*
X-5769634Y-12192499D01*
X-5731033Y-12224988D01*
X-5695384Y-12259865D01*
X-5657265Y-12303953D01*
X-5621704Y-12352584D01*
X-5588963Y-12405010D01*
X-5559301Y-12460482D01*
X-5532981Y-12518250D01*
X-5510261Y-12577566D01*
X-5491405Y-12637681D01*
X-5476670Y-12697847D01*
X-5466320Y-12757313D01*
X-5460613Y-12815332D01*
X-5459812Y-12871155D01*
X-5464176Y-12924033D01*
X-5475402Y-13005674D01*
X-6066761Y-13005674D01*
X-6181914Y-13005763D01*
X-6281668Y-13006060D01*
X-6367051Y-13006605D01*
X-6439088Y-13007440D01*
X-6498806Y-13008606D01*
X-6547232Y-13010144D01*
X-6585391Y-13012096D01*
X-6614310Y-13014503D01*
X-6635016Y-13017407D01*
X-6648535Y-13020849D01*
X-6655894Y-13024871D01*
X-6658119Y-13029513D01*
X-6657607Y-13033499D01*
X-6656115Y-13038815D01*
X-6653711Y-13045330D01*
X-6650464Y-13052915D01*
X-6646441Y-13061440D01*
X-6641710Y-13070775D01*
X-6636339Y-13080789D01*
X-6630396Y-13091353D01*
X-6623949Y-13102336D01*
X-6617065Y-13113609D01*
X-6609812Y-13125042D01*
X-6602259Y-13136504D01*
X-6592274Y-13150799D01*
X-6582039Y-13164299D01*
X-6571491Y-13177062D01*
X-6560566Y-13189142D01*
X-6549199Y-13200596D01*
X-6537326Y-13211481D01*
X-6524884Y-13221852D01*
X-6511806Y-13231765D01*
X-6498030Y-13241277D01*
X-6483491Y-13250444D01*
X-6468125Y-13259321D01*
X-6451868Y-13267966D01*
X-6432179Y-13277821D01*
X-6414319Y-13286223D01*
X-6397789Y-13293266D01*
X-6382094Y-13299047D01*
X-6366736Y-13303661D01*
X-6351218Y-13307206D01*
X-6335043Y-13309776D01*
X-6317714Y-13311467D01*
X-6298733Y-13312376D01*
X-6277603Y-13312598D01*
X-6253828Y-13312229D01*
X-6226910Y-13311365D01*
X-6200507Y-13310202D01*
X-6177052Y-13308744D01*
X-6156107Y-13306869D01*
X-6137230Y-13304458D01*
X-6119982Y-13301390D01*
X-6103924Y-13297544D01*
X-6088616Y-13292801D01*
X-6073618Y-13287040D01*
X-6058490Y-13280140D01*
X-6042792Y-13271981D01*
X-6026085Y-13262443D01*
X-6007929Y-13251405D01*
X-5919375Y-13196357D01*
X-5762794Y-13254571D01*
X-5741545Y-13262519D01*
X-5720992Y-13270301D01*
X-5701335Y-13277835D01*
X-5682775Y-13285042D01*
X-5665513Y-13291838D01*
X-5649748Y-13298145D01*
X-5635681Y-13303881D01*
X-5623513Y-13308964D01*
X-5613444Y-13313315D01*
X-5605675Y-13316852D01*
X-5600406Y-13319494D01*
X-5597837Y-13321160D01*
X-5594997Y-13330541D01*
X-5599441Y-13344623D01*
X-5610328Y-13362609D01*
X-5626815Y-13383701D01*
X-5648060Y-13407103D01*
X-5673220Y-13432017D01*
X-5701454Y-13457646D01*
X-5731919Y-13483192D01*
X-5763773Y-13507858D01*
X-5796173Y-13530847D01*
X-5828277Y-13551361D01*
X-5859243Y-13568603D01*
X-5910219Y-13592034D01*
X-5964160Y-13612080D01*
X-6020463Y-13628699D01*
X-6078525Y-13641848D01*
X-6137745Y-13651482D01*
X-6197518Y-13657560D01*
X-6257242Y-13660037D01*
X-6316315Y-13658871D01*
X-6374134Y-13654018D01*
X-6430095Y-13645436D01*
X-6483596Y-13633082D01*
X-6534034Y-13616911D01*
X-6592480Y-13592725D01*
X-6648094Y-13564686D01*
X-6700782Y-13532893D01*
X-6750447Y-13497448D01*
X-6796995Y-13458452D01*
X-6840332Y-13416005D01*
X-6880360Y-13370207D01*
X-6916987Y-13321160D01*
X-6950116Y-13268964D01*
X-6979652Y-13213719D01*
X-7005501Y-13155528D01*
X-7027567Y-13094489D01*
X-7032865Y-13077036D01*
X-7037473Y-13059524D01*
X-7041414Y-13041671D01*
X-7044711Y-13023199D01*
X-7047389Y-13003827D01*
X-7049470Y-12983274D01*
X-7050979Y-12961261D01*
X-7051939Y-12937508D01*
X-7052374Y-12911734D01*
X-7052307Y-12883659D01*
X-7051763Y-12853004D01*
X-7050763Y-12819488D01*
X-7049271Y-12780050D01*
X-7047614Y-12745803D01*
X-7045603Y-12715899D01*
X-7043052Y-12689491D01*
X-7039774Y-12665731D01*
X-7038884Y-12661069D01*
X-6640932Y-12661069D01*
X-6638090Y-12663965D01*
X-6629553Y-12666605D01*
X-6615305Y-12668991D01*
X-6595328Y-12671122D01*
X-6569608Y-12673000D01*
X-6538126Y-12674625D01*
X-6500867Y-12675999D01*
X-6457814Y-12677121D01*
X-6408950Y-12677992D01*
X-6354259Y-12678613D01*
X-6293725Y-12678986D01*
X-6227330Y-12679110D01*
X-5813728Y-12679110D01*
X-5853444Y-12608445D01*
X-5892123Y-12550942D01*
X-5938143Y-12501736D01*
X-5990329Y-12461005D01*
X-6047506Y-12428923D01*
X-6108499Y-12405667D01*
X-6172134Y-12391414D01*
X-6237237Y-12386340D01*
X-6302631Y-12390621D01*
X-6367143Y-12404434D01*
X-6429598Y-12427956D01*
X-6488821Y-12461361D01*
X-6543637Y-12504828D01*
X-6555895Y-12516884D01*
X-6567940Y-12529986D01*
X-6579611Y-12543873D01*
X-6590745Y-12558285D01*
X-6601178Y-12572959D01*
X-6610748Y-12587634D01*
X-6619293Y-12602048D01*
X-6626649Y-12615941D01*
X-6632653Y-12629051D01*
X-6637144Y-12641117D01*
X-6639958Y-12651876D01*
X-6640932Y-12661069D01*
X-7038884Y-12661069D01*
X-7035582Y-12643773D01*
X-7030289Y-12622770D01*
X-7023708Y-12601873D01*
X-7015651Y-12580237D01*
X-7005932Y-12557013D01*
X-6994364Y-12531355D01*
X-6980760Y-12502416D01*
X-6961963Y-12465416D01*
X-6941164Y-12429134D01*
X-6918498Y-12393718D01*
X-6894101Y-12359318D01*
X-6868108Y-12326085D01*
X-6840653Y-12294167D01*
X-6811872Y-12263715D01*
X-6781899Y-12234879D01*
X-6750871Y-12207808D01*
X-6718920Y-12182651D01*
X-6686184Y-12159560D01*
X-6652796Y-12138683D01*
X-6626719Y-12124638D01*
X-6597016Y-12110785D01*
X-6564380Y-12097320D01*
X-6529508Y-12084440D01*
X-6493094Y-12072341D01*
X-6455834Y-12061218D01*
X-6418422Y-12051269D01*
X-6381554Y-12042689D01*
X-6345925Y-12035674D01*
X-6312230Y-12030420D01*
X-6281164Y-12027124D01*
X-6253422Y-12025982D01*
X-6201443Y-12027831D01*
G37*
G36*
X-4332865Y-12044230D02*
G01*
X-4228706Y-12073887D01*
X-4130564Y-12118070D01*
X-4039603Y-12175651D01*
X-3956989Y-12245501D01*
X-3883888Y-12326490D01*
X-3821464Y-12417490D01*
X-3770884Y-12517372D01*
X-3733312Y-12625007D01*
X-3709914Y-12739266D01*
X-3701856Y-12859020D01*
X-3701154Y-12895497D01*
X-3700848Y-12925406D01*
X-3703641Y-12949395D01*
X-3712232Y-12968111D01*
X-3729323Y-12982201D01*
X-3757615Y-12992312D01*
X-3799810Y-12999092D01*
X-3858608Y-13003187D01*
X-3936710Y-13005246D01*
X-4036817Y-13005915D01*
X-4161632Y-13005842D01*
X-4313854Y-13005674D01*
X-4393783Y-13005758D01*
X-4470531Y-13006002D01*
X-4543379Y-13006395D01*
X-4611609Y-13006927D01*
X-4674503Y-13007586D01*
X-4731341Y-13008360D01*
X-4781406Y-13009240D01*
X-4823979Y-13010213D01*
X-4858342Y-13011268D01*
X-4883777Y-13012395D01*
X-4899564Y-13013583D01*
X-4904986Y-13014820D01*
X-4901765Y-13036779D01*
X-4892588Y-13061489D01*
X-4878182Y-13088200D01*
X-4859275Y-13116160D01*
X-4836594Y-13144620D01*
X-4810868Y-13172830D01*
X-4782824Y-13200040D01*
X-4753189Y-13225500D01*
X-4722692Y-13248460D01*
X-4692061Y-13268169D01*
X-4662023Y-13283879D01*
X-4633305Y-13294837D01*
X-4596162Y-13304072D01*
X-4557407Y-13310169D01*
X-4517575Y-13313223D01*
X-4477199Y-13313327D01*
X-4436815Y-13310574D01*
X-4396956Y-13305056D01*
X-4358156Y-13296866D01*
X-4320949Y-13286099D01*
X-4285870Y-13272846D01*
X-4253452Y-13257202D01*
X-4224231Y-13239259D01*
X-4198739Y-13219109D01*
X-4191112Y-13213755D01*
X-4181639Y-13210235D01*
X-4169791Y-13208689D01*
X-4155043Y-13209257D01*
X-4136867Y-13212080D01*
X-4114737Y-13217297D01*
X-4088127Y-13225048D01*
X-4056510Y-13235475D01*
X-4019358Y-13248716D01*
X-3976146Y-13264912D01*
X-3926347Y-13284203D01*
X-3869435Y-13306730D01*
X-3859990Y-13310889D01*
X-3852462Y-13315203D01*
X-3846893Y-13319857D01*
X-3843324Y-13325038D01*
X-3841795Y-13330931D01*
X-3842348Y-13337725D01*
X-3845023Y-13345604D01*
X-3849861Y-13354756D01*
X-3856904Y-13365366D01*
X-3866192Y-13377621D01*
X-3877767Y-13391707D01*
X-3891670Y-13407811D01*
X-3911970Y-13429342D01*
X-3935150Y-13451109D01*
X-3960818Y-13472864D01*
X-3988578Y-13494356D01*
X-4018036Y-13515338D01*
X-4048799Y-13535561D01*
X-4080473Y-13554775D01*
X-4112663Y-13572732D01*
X-4144976Y-13589183D01*
X-4177017Y-13603878D01*
X-4208392Y-13616570D01*
X-4238708Y-13627009D01*
X-4274471Y-13636578D01*
X-4314121Y-13644400D01*
X-4356867Y-13650474D01*
X-4401920Y-13654801D01*
X-4448490Y-13657383D01*
X-4495785Y-13658218D01*
X-4543017Y-13657309D01*
X-4589395Y-13654655D01*
X-4634129Y-13650258D01*
X-4676428Y-13644118D01*
X-4715503Y-13636235D01*
X-4750563Y-13626610D01*
X-4830668Y-13596124D01*
X-4905780Y-13557817D01*
X-4975524Y-13512208D01*
X-5039528Y-13459819D01*
X-5097418Y-13401172D01*
X-5148821Y-13336789D01*
X-5193363Y-13267189D01*
X-5230671Y-13192896D01*
X-5260372Y-13114429D01*
X-5282092Y-13032312D01*
X-5295458Y-12947064D01*
X-5300096Y-12859207D01*
X-5293905Y-12751783D01*
X-5278767Y-12667729D01*
X-4887799Y-12667729D01*
X-4884030Y-12669268D01*
X-4873056Y-12670746D01*
X-4855377Y-12672148D01*
X-4831491Y-12673462D01*
X-4801899Y-12674672D01*
X-4767099Y-12675767D01*
X-4727591Y-12676731D01*
X-4683874Y-12677550D01*
X-4636448Y-12678212D01*
X-4585811Y-12678701D01*
X-4532464Y-12679005D01*
X-4476906Y-12679110D01*
X-4386237Y-12679065D01*
X-4310011Y-12678864D01*
X-4247012Y-12678411D01*
X-4196022Y-12677609D01*
X-4155825Y-12676359D01*
X-4125204Y-12674564D01*
X-4102942Y-12672128D01*
X-4087823Y-12668952D01*
X-4078629Y-12664939D01*
X-4074144Y-12659993D01*
X-4073151Y-12654015D01*
X-4074434Y-12646908D01*
X-4079843Y-12631617D01*
X-4088300Y-12614909D01*
X-4099506Y-12597096D01*
X-4113166Y-12578485D01*
X-4128983Y-12559385D01*
X-4146660Y-12540106D01*
X-4165900Y-12520955D01*
X-4186407Y-12502243D01*
X-4207884Y-12484277D01*
X-4230034Y-12467368D01*
X-4252560Y-12451823D01*
X-4275166Y-12437952D01*
X-4292395Y-12428326D01*
X-4308473Y-12419932D01*
X-4323691Y-12412696D01*
X-4338340Y-12406539D01*
X-4352709Y-12401388D01*
X-4367089Y-12397165D01*
X-4381772Y-12393795D01*
X-4397047Y-12391202D01*
X-4413204Y-12389310D01*
X-4430536Y-12388044D01*
X-4449331Y-12387326D01*
X-4469881Y-12387082D01*
X-4498547Y-12387401D01*
X-4524846Y-12388522D01*
X-4549144Y-12390556D01*
X-4571811Y-12393616D01*
X-4593213Y-12397810D01*
X-4613717Y-12403252D01*
X-4633693Y-12410052D01*
X-4653506Y-12418322D01*
X-4673525Y-12428172D01*
X-4694118Y-12439713D01*
X-4715652Y-12453058D01*
X-4738494Y-12468316D01*
X-4753179Y-12479632D01*
X-4768971Y-12493934D01*
X-4785415Y-12510617D01*
X-4802057Y-12529072D01*
X-4818443Y-12548693D01*
X-4834117Y-12568874D01*
X-4848627Y-12589008D01*
X-4861517Y-12608488D01*
X-4872334Y-12626706D01*
X-4880623Y-12643057D01*
X-4885929Y-12656934D01*
X-4887799Y-12667729D01*
X-5278767Y-12667729D01*
X-5275391Y-12648986D01*
X-5245200Y-12551533D01*
X-5203977Y-12460140D01*
X-5152370Y-12375522D01*
X-5091023Y-12298395D01*
X-5020581Y-12229474D01*
X-4941692Y-12169475D01*
X-4855000Y-12119113D01*
X-4761152Y-12079105D01*
X-4660793Y-12050166D01*
X-4554568Y-12033011D01*
X-4441874Y-12030228D01*
X-4332865Y-12044230D01*
G37*
G36*
X-2575126Y-12045480D02*
G01*
X-2467550Y-12075634D01*
X-2366847Y-12120695D01*
X-2274207Y-12179486D01*
X-2190825Y-12250834D01*
X-2117892Y-12333561D01*
X-2056601Y-12426494D01*
X-2008144Y-12528456D01*
X-1973713Y-12638272D01*
X-1954502Y-12754768D01*
X-1951702Y-12876767D01*
X-1957317Y-12997080D01*
X-2553764Y-13005674D01*
X-3150212Y-13014267D01*
X-3119103Y-13083729D01*
X-3089020Y-13137156D01*
X-3050267Y-13184174D01*
X-3004135Y-13224482D01*
X-2951915Y-13257778D01*
X-2894899Y-13283760D01*
X-2834379Y-13302127D01*
X-2771646Y-13312575D01*
X-2707992Y-13314803D01*
X-2644707Y-13308510D01*
X-2583084Y-13293393D01*
X-2524414Y-13269151D01*
X-2469988Y-13235481D01*
X-2415470Y-13195033D01*
X-2263737Y-13249345D01*
X-2215253Y-13266750D01*
X-2175182Y-13281528D01*
X-2143088Y-13294263D01*
X-2118535Y-13305539D01*
X-2101087Y-13315940D01*
X-2090307Y-13326049D01*
X-2085760Y-13336449D01*
X-2087010Y-13347724D01*
X-2093619Y-13360458D01*
X-2105153Y-13375234D01*
X-2121175Y-13392637D01*
X-2141249Y-13413248D01*
X-2183639Y-13454157D01*
X-2226833Y-13491080D01*
X-2271021Y-13524095D01*
X-2316396Y-13553280D01*
X-2363150Y-13578714D01*
X-2411476Y-13600473D01*
X-2461565Y-13618637D01*
X-2513609Y-13633282D01*
X-2567800Y-13644487D01*
X-2624331Y-13652330D01*
X-2683394Y-13656889D01*
X-2745180Y-13658241D01*
X-2770629Y-13657940D01*
X-2795222Y-13657224D01*
X-2818936Y-13656096D01*
X-2841746Y-13654558D01*
X-2863627Y-13652614D01*
X-2884557Y-13650267D01*
X-2904511Y-13647520D01*
X-2923464Y-13644376D01*
X-2941394Y-13640837D01*
X-2958275Y-13636907D01*
X-2974083Y-13632589D01*
X-2988796Y-13627885D01*
X-3102476Y-13579380D01*
X-3204576Y-13517347D01*
X-3294487Y-13443282D01*
X-3371601Y-13358683D01*
X-3435307Y-13265046D01*
X-3484998Y-13163869D01*
X-3520065Y-13056648D01*
X-3539898Y-12944881D01*
X-3543890Y-12830064D01*
X-3531430Y-12713695D01*
X-3520266Y-12669663D01*
X-3134666Y-12669663D01*
X-3130882Y-12670940D01*
X-3119865Y-12672166D01*
X-3102117Y-12673331D01*
X-3078138Y-12674421D01*
X-3048429Y-12675426D01*
X-3013493Y-12676335D01*
X-2973831Y-12677135D01*
X-2929943Y-12677815D01*
X-2882331Y-12678364D01*
X-2831496Y-12678771D01*
X-2777940Y-12679023D01*
X-2722164Y-12679110D01*
X-2666388Y-12679023D01*
X-2612832Y-12678771D01*
X-2561997Y-12678364D01*
X-2514385Y-12677815D01*
X-2470497Y-12677135D01*
X-2430834Y-12676335D01*
X-2395898Y-12675426D01*
X-2366190Y-12674421D01*
X-2342211Y-12673331D01*
X-2324462Y-12672166D01*
X-2313446Y-12670940D01*
X-2309662Y-12669663D01*
X-2312234Y-12653455D01*
X-2319608Y-12634681D01*
X-2331275Y-12613874D01*
X-2346726Y-12591567D01*
X-2365449Y-12568293D01*
X-2386935Y-12544588D01*
X-2410673Y-12520983D01*
X-2436155Y-12498013D01*
X-2462869Y-12476211D01*
X-2490305Y-12456110D01*
X-2517955Y-12438245D01*
X-2545306Y-12423149D01*
X-2568334Y-12413175D01*
X-2594111Y-12404767D01*
X-2622098Y-12397944D01*
X-2651753Y-12392724D01*
X-2682534Y-12389128D01*
X-2713901Y-12387174D01*
X-2745313Y-12386882D01*
X-2776228Y-12388272D01*
X-2806106Y-12391363D01*
X-2834404Y-12396173D01*
X-2860583Y-12402723D01*
X-2884100Y-12411032D01*
X-2909498Y-12423530D01*
X-2936491Y-12440169D01*
X-2964356Y-12460200D01*
X-2992365Y-12482876D01*
X-3019795Y-12507448D01*
X-3045921Y-12533167D01*
X-3070016Y-12559284D01*
X-3091356Y-12585053D01*
X-3109216Y-12609723D01*
X-3122872Y-12632547D01*
X-3131596Y-12652777D01*
X-3134666Y-12669663D01*
X-3520266Y-12669663D01*
X-3501911Y-12597270D01*
X-3454723Y-12482286D01*
X-3421078Y-12420812D01*
X-3382910Y-12363170D01*
X-3340463Y-12309529D01*
X-3293981Y-12260058D01*
X-3243707Y-12214924D01*
X-3189886Y-12174296D01*
X-3132761Y-12138343D01*
X-3072577Y-12107233D01*
X-3009577Y-12081135D01*
X-2944006Y-12060216D01*
X-2876108Y-12044645D01*
X-2806125Y-12034591D01*
X-2688382Y-12031407D01*
X-2575126Y-12045480D01*
G37*
G36*
X-86425Y-11760006D02*
G01*
X-84751Y-11785441D01*
X-83162Y-11826445D01*
X-81675Y-11881860D01*
X-80303Y-11950526D01*
X-79064Y-12031286D01*
X-77972Y-12122979D01*
X-77043Y-12224447D01*
X-76294Y-12334531D01*
X-75739Y-12452072D01*
X-75395Y-12575912D01*
X-75277Y-12704891D01*
X-75277Y-13658802D01*
X-255747Y-13658802D01*
X-436216Y-13658802D01*
X-436216Y-13574118D01*
X-436216Y-13489434D01*
X-535045Y-13548946D01*
X-549185Y-13557224D01*
X-564280Y-13565623D01*
X-580106Y-13574040D01*
X-596440Y-13582372D01*
X-613060Y-13590517D01*
X-629741Y-13598371D01*
X-646261Y-13605831D01*
X-662396Y-13612795D01*
X-677925Y-13619160D01*
X-692622Y-13624823D01*
X-706266Y-13629681D01*
X-718634Y-13633630D01*
X-751079Y-13641664D01*
X-788162Y-13648063D01*
X-828970Y-13652842D01*
X-872594Y-13656015D01*
X-918124Y-13657599D01*
X-964650Y-13657607D01*
X-1011262Y-13656055D01*
X-1057049Y-13652959D01*
X-1101101Y-13648333D01*
X-1142509Y-13642192D01*
X-1180361Y-13634551D01*
X-1213749Y-13625426D01*
X-1279676Y-13600964D01*
X-1342886Y-13570735D01*
X-1403116Y-13535029D01*
X-1460103Y-13494134D01*
X-1513584Y-13448341D01*
X-1563298Y-13397939D01*
X-1608980Y-13343218D01*
X-1650369Y-13284467D01*
X-1687201Y-13221975D01*
X-1719213Y-13156032D01*
X-1746144Y-13086929D01*
X-1767730Y-13014953D01*
X-1774922Y-12985425D01*
X-1780894Y-12957425D01*
X-1785653Y-12930640D01*
X-1789205Y-12904759D01*
X-1791558Y-12879470D01*
X-1792718Y-12854462D01*
X-1792694Y-12829422D01*
X-1791747Y-12809452D01*
X-1411762Y-12809452D01*
X-1411209Y-12898011D01*
X-1395907Y-12980881D01*
X-1367319Y-13057035D01*
X-1326906Y-13125449D01*
X-1276133Y-13185096D01*
X-1216461Y-13234950D01*
X-1149355Y-13273987D01*
X-1076275Y-13301180D01*
X-998686Y-13315504D01*
X-918049Y-13315934D01*
X-835829Y-13301443D01*
X-753487Y-13271006D01*
X-726709Y-13257312D01*
X-701375Y-13242239D01*
X-677457Y-13225757D01*
X-654932Y-13207839D01*
X-633773Y-13188454D01*
X-613956Y-13167576D01*
X-595455Y-13145174D01*
X-578245Y-13121222D01*
X-562300Y-13095689D01*
X-547595Y-13068548D01*
X-534105Y-13039770D01*
X-521805Y-13009326D01*
X-508187Y-12967628D01*
X-498454Y-12925812D01*
X-492575Y-12884041D01*
X-490521Y-12842477D01*
X-492262Y-12801283D01*
X-497768Y-12760622D01*
X-507010Y-12720657D01*
X-519957Y-12681551D01*
X-536580Y-12643465D01*
X-556849Y-12606564D01*
X-580734Y-12571010D01*
X-608206Y-12536965D01*
X-632434Y-12510855D01*
X-656847Y-12487446D01*
X-681631Y-12466659D01*
X-706969Y-12448409D01*
X-733048Y-12432614D01*
X-760051Y-12419193D01*
X-788164Y-12408062D01*
X-817571Y-12399140D01*
X-848458Y-12392343D01*
X-881009Y-12387591D01*
X-915409Y-12384800D01*
X-951843Y-12383888D01*
X-1014320Y-12387371D01*
X-1073442Y-12397628D01*
X-1128900Y-12414370D01*
X-1180380Y-12437312D01*
X-1227574Y-12466164D01*
X-1270169Y-12500638D01*
X-1307855Y-12540448D01*
X-1340321Y-12585305D01*
X-1367256Y-12634922D01*
X-1388348Y-12689010D01*
X-1403287Y-12747283D01*
X-1411762Y-12809452D01*
X-1791747Y-12809452D01*
X-1791491Y-12804040D01*
X-1789117Y-12778003D01*
X-1785580Y-12750999D01*
X-1780885Y-12722718D01*
X-1775041Y-12692846D01*
X-1759861Y-12632188D01*
X-1740042Y-12573153D01*
X-1715759Y-12515962D01*
X-1687185Y-12460836D01*
X-1654492Y-12407995D01*
X-1617854Y-12357658D01*
X-1577444Y-12310047D01*
X-1533435Y-12265380D01*
X-1486000Y-12223879D01*
X-1435313Y-12185763D01*
X-1381546Y-12151252D01*
X-1324873Y-12120567D01*
X-1261826Y-12092135D01*
X-1198513Y-12069008D01*
X-1134986Y-12051185D01*
X-1071300Y-12038666D01*
X-1007508Y-12031450D01*
X-943663Y-12029537D01*
X-879821Y-12032925D01*
X-816033Y-12041615D01*
X-752355Y-12055605D01*
X-688839Y-12074895D01*
X-625539Y-12099485D01*
X-562509Y-12129373D01*
X-437377Y-12194126D01*
X-432500Y-12019880D01*
X-427622Y-11845635D01*
X-264340Y-11798627D01*
X-242144Y-11792267D01*
X-220601Y-11786156D01*
X-199924Y-11780349D01*
X-180328Y-11774905D01*
X-162027Y-11769880D01*
X-145236Y-11765333D01*
X-130167Y-11761321D01*
X-117036Y-11757902D01*
X-106057Y-11755133D01*
X-97443Y-11753071D01*
X-91408Y-11751774D01*
X-88168Y-11751299D01*
X-86425Y-11760006D01*
G37*
G36*
X1393204Y-12044823D02*
G01*
X1465395Y-12052933D01*
X1536839Y-12065305D01*
X1606853Y-12081963D01*
X1674756Y-12102931D01*
X1697743Y-12111126D01*
X1718768Y-12119066D01*
X1737822Y-12126747D01*
X1754900Y-12134164D01*
X1769994Y-12141315D01*
X1783097Y-12148195D01*
X1794203Y-12154800D01*
X1803306Y-12161128D01*
X1810397Y-12167173D01*
X1815470Y-12172932D01*
X1818520Y-12178402D01*
X1819538Y-12183579D01*
X1817997Y-12191888D01*
X1813705Y-12207372D01*
X1807154Y-12228617D01*
X1798839Y-12254209D01*
X1789252Y-12282735D01*
X1778888Y-12312779D01*
X1768240Y-12342929D01*
X1757801Y-12371771D01*
X1748065Y-12397891D01*
X1739526Y-12419874D01*
X1732676Y-12436308D01*
X1728010Y-12445778D01*
X1726412Y-12446968D01*
X1723594Y-12447464D01*
X1719651Y-12447294D01*
X1714680Y-12446490D01*
X1708777Y-12445081D01*
X1702036Y-12443099D01*
X1694553Y-12440572D01*
X1686424Y-12437533D01*
X1677744Y-12434010D01*
X1668610Y-12430035D01*
X1659116Y-12425637D01*
X1649358Y-12420846D01*
X1617975Y-12405709D01*
X1586923Y-12392178D01*
X1556051Y-12380221D01*
X1525209Y-12369805D01*
X1494248Y-12360900D01*
X1463016Y-12353472D01*
X1431364Y-12347490D01*
X1399142Y-12342922D01*
X1366200Y-12339736D01*
X1332387Y-12337900D01*
X1297553Y-12337381D01*
X1261549Y-12338148D01*
X1237227Y-12339188D01*
X1215417Y-12340375D01*
X1195874Y-12341754D01*
X1178353Y-12343368D01*
X1162607Y-12345259D01*
X1148392Y-12347472D01*
X1135460Y-12350050D01*
X1123567Y-12353036D01*
X1112467Y-12356474D01*
X1101914Y-12360406D01*
X1091662Y-12364876D01*
X1081466Y-12369928D01*
X1067634Y-12377828D01*
X1054931Y-12386466D01*
X1043372Y-12395823D01*
X1032971Y-12405875D01*
X1023741Y-12416600D01*
X1015696Y-12427978D01*
X1008851Y-12439986D01*
X1003219Y-12452601D01*
X998814Y-12465803D01*
X995650Y-12479569D01*
X993742Y-12493877D01*
X993103Y-12508705D01*
X994453Y-12530688D01*
X998902Y-12550569D01*
X1007044Y-12568685D01*
X1019473Y-12585372D01*
X1036786Y-12600969D01*
X1059577Y-12615813D01*
X1088441Y-12630240D01*
X1123974Y-12644589D01*
X1166769Y-12659195D01*
X1217423Y-12674397D01*
X1276531Y-12690531D01*
X1344687Y-12707935D01*
X1419799Y-12727374D01*
X1487077Y-12746435D01*
X1547072Y-12765416D01*
X1600338Y-12784618D01*
X1647429Y-12804339D01*
X1688896Y-12824881D01*
X1725293Y-12846541D01*
X1757172Y-12869621D01*
X1785087Y-12894419D01*
X1809590Y-12921236D01*
X1831234Y-12950370D01*
X1850573Y-12982123D01*
X1858198Y-12996144D01*
X1864665Y-13008799D01*
X1870067Y-13020579D01*
X1874499Y-13031975D01*
X1878056Y-13043479D01*
X1880832Y-13055582D01*
X1882921Y-13068775D01*
X1884419Y-13083551D01*
X1885419Y-13100399D01*
X1886017Y-13119813D01*
X1886306Y-13142282D01*
X1886381Y-13168299D01*
X1886292Y-13193664D01*
X1885971Y-13215810D01*
X1885337Y-13235187D01*
X1884311Y-13252245D01*
X1882812Y-13267431D01*
X1880761Y-13281197D01*
X1878078Y-13293990D01*
X1874681Y-13306260D01*
X1870492Y-13318457D01*
X1865431Y-13331029D01*
X1859416Y-13344426D01*
X1852368Y-13359098D01*
X1834380Y-13391613D01*
X1813012Y-13422993D01*
X1788509Y-13453061D01*
X1761114Y-13481643D01*
X1731071Y-13508564D01*
X1698623Y-13533649D01*
X1664014Y-13556722D01*
X1627489Y-13577610D01*
X1589289Y-13596136D01*
X1549660Y-13612126D01*
X1508845Y-13625405D01*
X1467087Y-13635798D01*
X1441568Y-13640399D01*
X1411854Y-13644417D01*
X1378747Y-13647828D01*
X1343045Y-13650610D01*
X1305547Y-13652740D01*
X1267054Y-13654195D01*
X1228364Y-13654952D01*
X1190277Y-13654988D01*
X1153592Y-13654280D01*
X1119109Y-13652805D01*
X1087628Y-13650542D01*
X1059947Y-13647465D01*
X1018623Y-13640981D01*
X976498Y-13632798D01*
X934080Y-13623090D01*
X891872Y-13612033D01*
X850382Y-13599801D01*
X810114Y-13586569D01*
X771574Y-13572514D01*
X735268Y-13557809D01*
X701702Y-13542630D01*
X671381Y-13527152D01*
X644810Y-13511550D01*
X622496Y-13495999D01*
X617024Y-13491631D01*
X612640Y-13487430D01*
X609424Y-13482866D01*
X607455Y-13477410D01*
X606812Y-13470530D01*
X607575Y-13461697D01*
X609822Y-13450380D01*
X613633Y-13436048D01*
X619087Y-13418173D01*
X626264Y-13396223D01*
X635242Y-13369668D01*
X646100Y-13337979D01*
X652655Y-13319144D01*
X659117Y-13301059D01*
X665416Y-13283893D01*
X671484Y-13267815D01*
X677250Y-13252995D01*
X682645Y-13239601D01*
X687600Y-13227804D01*
X692045Y-13217772D01*
X695910Y-13209674D01*
X699127Y-13203681D01*
X701624Y-13199961D01*
X703333Y-13198683D01*
X705118Y-13199009D01*
X707834Y-13199958D01*
X711403Y-13201487D01*
X715745Y-13203553D01*
X720781Y-13206113D01*
X726431Y-13209123D01*
X732615Y-13212540D01*
X739253Y-13216321D01*
X746268Y-13220423D01*
X753578Y-13224802D01*
X761104Y-13229416D01*
X768768Y-13234222D01*
X828950Y-13268169D01*
X893877Y-13297209D01*
X962136Y-13321228D01*
X1032309Y-13340113D01*
X1102983Y-13353748D01*
X1172741Y-13362020D01*
X1240168Y-13364815D01*
X1303850Y-13362018D01*
X1362369Y-13353515D01*
X1414312Y-13339192D01*
X1458263Y-13318935D01*
X1492806Y-13292629D01*
X1499274Y-13285922D01*
X1504952Y-13279483D01*
X1509886Y-13273206D01*
X1514117Y-13266986D01*
X1517689Y-13260715D01*
X1520644Y-13254288D01*
X1523027Y-13247600D01*
X1524880Y-13240545D01*
X1526246Y-13233016D01*
X1527168Y-13224907D01*
X1527690Y-13216114D01*
X1527855Y-13206529D01*
X1526735Y-13182169D01*
X1522913Y-13160474D01*
X1515695Y-13141022D01*
X1504389Y-13123394D01*
X1488301Y-13107167D01*
X1466737Y-13091921D01*
X1439005Y-13077235D01*
X1404410Y-13062688D01*
X1362259Y-13047858D01*
X1311860Y-13032325D01*
X1252518Y-13015668D01*
X1183540Y-12997466D01*
X1122324Y-12981119D01*
X1066165Y-12964960D01*
X1014790Y-12948866D01*
X967926Y-12932709D01*
X925301Y-12916367D01*
X886640Y-12899713D01*
X851671Y-12882622D01*
X820122Y-12864969D01*
X791718Y-12846629D01*
X766186Y-12827477D01*
X743255Y-12807387D01*
X722650Y-12786235D01*
X684297Y-12735210D01*
X656038Y-12679649D01*
X637610Y-12620716D01*
X628750Y-12559573D01*
X629195Y-12497386D01*
X638683Y-12435318D01*
X656949Y-12374532D01*
X683732Y-12316194D01*
X718767Y-12261466D01*
X761794Y-12211514D01*
X812547Y-12167499D01*
X870766Y-12130588D01*
X924340Y-12105441D01*
X982632Y-12084369D01*
X1044959Y-12067395D01*
X1110637Y-12054543D01*
X1178983Y-12045837D01*
X1249315Y-12041299D01*
X1320950Y-12040953D01*
X1393204Y-12044823D01*
G37*
G36*
X2400173Y-12040052D02*
G01*
X2403521Y-12226407D01*
X2506516Y-12226407D01*
X2609512Y-12226407D01*
X2609512Y-12396064D01*
X2609512Y-12565721D01*
X2509246Y-12569250D01*
X2408980Y-12572780D01*
X2408980Y-12909714D01*
X2408961Y-12999462D01*
X2409228Y-13073796D01*
X2410265Y-13134266D01*
X2412557Y-13182423D01*
X2416587Y-13219817D01*
X2422841Y-13248000D01*
X2431802Y-13268523D01*
X2443955Y-13282935D01*
X2459785Y-13292788D01*
X2479777Y-13299632D01*
X2504413Y-13305019D01*
X2534179Y-13310498D01*
X2609512Y-13324508D01*
X2609512Y-13492511D01*
X2609512Y-13660514D01*
X2563936Y-13659548D01*
X2557103Y-13659271D01*
X2549232Y-13658720D01*
X2540468Y-13657916D01*
X2530955Y-13656879D01*
X2520838Y-13655629D01*
X2510260Y-13654187D01*
X2499367Y-13652573D01*
X2488301Y-13650809D01*
X2477209Y-13648914D01*
X2466233Y-13646910D01*
X2455518Y-13644816D01*
X2445209Y-13642653D01*
X2445209Y-13642654D01*
X2410508Y-13634292D01*
X2377820Y-13624732D01*
X2347056Y-13613917D01*
X2318129Y-13601792D01*
X2290948Y-13588300D01*
X2265427Y-13573387D01*
X2241475Y-13556994D01*
X2219006Y-13539067D01*
X2197930Y-13519550D01*
X2178158Y-13498386D01*
X2159603Y-13475519D01*
X2142175Y-13450894D01*
X2124083Y-13422847D01*
X2108954Y-13396227D01*
X2096537Y-13368224D01*
X2086582Y-13336029D01*
X2078838Y-13296833D01*
X2073056Y-13247825D01*
X2068985Y-13186197D01*
X2066374Y-13109138D01*
X2064975Y-13013841D01*
X2064535Y-12897494D01*
X2064806Y-12757289D01*
X2065537Y-12590416D01*
X2068683Y-11941043D01*
X2232755Y-11897370D01*
X2396826Y-11853697D01*
X2400173Y-12040052D01*
G37*
G36*
X3112963Y-12048815D02*
G01*
X3113963Y-12062529D01*
X3114975Y-12084622D01*
X3115986Y-12114471D01*
X3116983Y-12151452D01*
X3117953Y-12194941D01*
X3118884Y-12244313D01*
X3119762Y-12298945D01*
X3120576Y-12358212D01*
X3121312Y-12421492D01*
X3121957Y-12488158D01*
X3122499Y-12557588D01*
X3126034Y-13071072D01*
X3158323Y-13131839D01*
X3175176Y-13160934D01*
X3193409Y-13187329D01*
X3213081Y-13211058D01*
X3234254Y-13232157D01*
X3256986Y-13250662D01*
X3281340Y-13266606D01*
X3307375Y-13280026D01*
X3335150Y-13290956D01*
X3364727Y-13299432D01*
X3396166Y-13305488D01*
X3429526Y-13309160D01*
X3464869Y-13310483D01*
X3503658Y-13309088D01*
X3540432Y-13304586D01*
X3575116Y-13297030D01*
X3607631Y-13286470D01*
X3637903Y-13272957D01*
X3665852Y-13256544D01*
X3691403Y-13237280D01*
X3714479Y-13215218D01*
X3735002Y-13190409D01*
X3752897Y-13162904D01*
X3768085Y-13132754D01*
X3780490Y-13100010D01*
X3784490Y-13086128D01*
X3787935Y-13070381D01*
X3790865Y-13051762D01*
X3793318Y-13029270D01*
X3795336Y-13001899D01*
X3796956Y-12968646D01*
X3798219Y-12928505D01*
X3799163Y-12880474D01*
X3799830Y-12823547D01*
X3800257Y-12756721D01*
X3800484Y-12678991D01*
X3800551Y-12589354D01*
X3800551Y-12140812D01*
X3827896Y-12129455D01*
X3832708Y-12127630D01*
X3839505Y-12125311D01*
X3848104Y-12122552D01*
X3858325Y-12119404D01*
X3869987Y-12115920D01*
X3882910Y-12112151D01*
X3896911Y-12108151D01*
X3911811Y-12103970D01*
X3927429Y-12099662D01*
X3943583Y-12095279D01*
X3960092Y-12090873D01*
X3976776Y-12086495D01*
X3993404Y-12082165D01*
X4009751Y-12077896D01*
X4025644Y-12073734D01*
X4040908Y-12069725D01*
X4055370Y-12065915D01*
X4068857Y-12062351D01*
X4081196Y-12059077D01*
X4092211Y-12056140D01*
X4101731Y-12053585D01*
X4109581Y-12051460D01*
X4115588Y-12049809D01*
X4119579Y-12048680D01*
X4124203Y-12048213D01*
X4128106Y-12050721D01*
X4131349Y-12057675D01*
X4133992Y-12070547D01*
X4136095Y-12090812D01*
X4137721Y-12119940D01*
X4138930Y-12159406D01*
X4139783Y-12210681D01*
X4140340Y-12275238D01*
X4140663Y-12354551D01*
X4140811Y-12450091D01*
X4140848Y-12563331D01*
X4140759Y-12694952D01*
X4140341Y-12806130D01*
X4139363Y-12899187D01*
X4137595Y-12976442D01*
X4134807Y-13040215D01*
X4130769Y-13092825D01*
X4125251Y-13136593D01*
X4118023Y-13173838D01*
X4108855Y-13206881D01*
X4097517Y-13238041D01*
X4083779Y-13269638D01*
X4067411Y-13303993D01*
X4047955Y-13340391D01*
X4025644Y-13375634D01*
X4000691Y-13409542D01*
X3973307Y-13441933D01*
X3943703Y-13472626D01*
X3912093Y-13501441D01*
X3878686Y-13528196D01*
X3843695Y-13552712D01*
X3807331Y-13574806D01*
X3769806Y-13594298D01*
X3731332Y-13611008D01*
X3692120Y-13624754D01*
X3667440Y-13631497D01*
X3639794Y-13637494D01*
X3609776Y-13642706D01*
X3577977Y-13647096D01*
X3544993Y-13650626D01*
X3511415Y-13653256D01*
X3477837Y-13654949D01*
X3444852Y-13655667D01*
X3413055Y-13655371D01*
X3383036Y-13654023D01*
X3355391Y-13651585D01*
X3330713Y-13648020D01*
X3330712Y-13648020D01*
X3266844Y-13633138D01*
X3205366Y-13612112D01*
X3146627Y-13585276D01*
X3090973Y-13552963D01*
X3038751Y-13515506D01*
X2990310Y-13473239D01*
X2945996Y-13426494D01*
X2906156Y-13375605D01*
X2871138Y-13320905D01*
X2841289Y-13262727D01*
X2816957Y-13201406D01*
X2798488Y-13137273D01*
X2795012Y-13120505D01*
X2791973Y-13101114D01*
X2789345Y-13078336D01*
X2787101Y-13051404D01*
X2785216Y-13019552D01*
X2783663Y-12982015D01*
X2782415Y-12938026D01*
X2781447Y-12886821D01*
X2780731Y-12827634D01*
X2780243Y-12759698D01*
X2779954Y-12682247D01*
X2779840Y-12594517D01*
X2779661Y-12130116D01*
X2831313Y-12116782D01*
X2839315Y-12114706D01*
X2848987Y-12112183D01*
X2860129Y-12109263D01*
X2872545Y-12105999D01*
X2886036Y-12102443D01*
X2900405Y-12098648D01*
X2915455Y-12094666D01*
X2930987Y-12090549D01*
X2946804Y-12086349D01*
X2962708Y-12082119D01*
X2978502Y-12077910D01*
X2993988Y-12073776D01*
X3009063Y-12069764D01*
X3023664Y-12065912D01*
X3037646Y-12062255D01*
X3050866Y-12058831D01*
X3063181Y-12055674D01*
X3074446Y-12052821D01*
X3084520Y-12050308D01*
X3093258Y-12048171D01*
X3100517Y-12046446D01*
X3106154Y-12045170D01*
X3110025Y-12044377D01*
X3111987Y-12044105D01*
X3112963Y-12048815D01*
G37*
G36*
X6000112Y-11769223D02*
G01*
X6002588Y-11782941D01*
X6004734Y-11807364D01*
X6006571Y-11843727D01*
X6008117Y-11893264D01*
X6009393Y-11957209D01*
X6010418Y-12036796D01*
X6011213Y-12133259D01*
X6011796Y-12247831D01*
X6012188Y-12381747D01*
X6012409Y-12536240D01*
X6012479Y-12712545D01*
X6012479Y-13660514D01*
X5842330Y-13660514D01*
X5672182Y-13660514D01*
X5672182Y-13569363D01*
X5672126Y-13557039D01*
X5671965Y-13545204D01*
X5671705Y-13533971D01*
X5671353Y-13523450D01*
X5670917Y-13513752D01*
X5670405Y-13504988D01*
X5669824Y-13497268D01*
X5669180Y-13490704D01*
X5668482Y-13485405D01*
X5667736Y-13481483D01*
X5666951Y-13479049D01*
X5666133Y-13478212D01*
X5664786Y-13478589D01*
X5662458Y-13479686D01*
X5659227Y-13481454D01*
X5655172Y-13483842D01*
X5650369Y-13486801D01*
X5644895Y-13490280D01*
X5638830Y-13494231D01*
X5632249Y-13498602D01*
X5625231Y-13503343D01*
X5617853Y-13508406D01*
X5610193Y-13513740D01*
X5602328Y-13519295D01*
X5582863Y-13532830D01*
X5563903Y-13545366D01*
X5545319Y-13556965D01*
X5526983Y-13567689D01*
X5508768Y-13577599D01*
X5490545Y-13586758D01*
X5472188Y-13595225D01*
X5453567Y-13603064D01*
X5434556Y-13610335D01*
X5415026Y-13617100D01*
X5394849Y-13623422D01*
X5373898Y-13629361D01*
X5349380Y-13635065D01*
X5320872Y-13640144D01*
X5289185Y-13644559D01*
X5255129Y-13648270D01*
X5219513Y-13651237D01*
X5183148Y-13653422D01*
X5146845Y-13654783D01*
X5111412Y-13655283D01*
X5077661Y-13654881D01*
X5046400Y-13653538D01*
X5018442Y-13651214D01*
X4994594Y-13647870D01*
X4952881Y-13639394D01*
X4912765Y-13629202D01*
X4874067Y-13617195D01*
X4836607Y-13603277D01*
X4800206Y-13587349D01*
X4764684Y-13569313D01*
X4729861Y-13549073D01*
X4695558Y-13526529D01*
X4661594Y-13501584D01*
X4627791Y-13474141D01*
X4593968Y-13444102D01*
X4559945Y-13411368D01*
X4521786Y-13370957D01*
X4486863Y-13329128D01*
X4455188Y-13285915D01*
X4426778Y-13241351D01*
X4401644Y-13195469D01*
X4379802Y-13148302D01*
X4361265Y-13099883D01*
X4346047Y-13050244D01*
X4334162Y-12999419D01*
X4325624Y-12947441D01*
X4320446Y-12894342D01*
X4319440Y-12864082D01*
X4670765Y-12864082D01*
X4675739Y-12913937D01*
X4686361Y-12962606D01*
X4701955Y-13009842D01*
X4722165Y-13055261D01*
X4746634Y-13098482D01*
X4775006Y-13139120D01*
X4806923Y-13176793D01*
X4842028Y-13211117D01*
X4879966Y-13241709D01*
X4920380Y-13268186D01*
X4962912Y-13290165D01*
X5007207Y-13307262D01*
X5052906Y-13319095D01*
X5070763Y-13322501D01*
X5086706Y-13325295D01*
X5101113Y-13327479D01*
X5114361Y-13329056D01*
X5126827Y-13330027D01*
X5138888Y-13330395D01*
X5150922Y-13330162D01*
X5163306Y-13329329D01*
X5176417Y-13327899D01*
X5190632Y-13325874D01*
X5206328Y-13323256D01*
X5223884Y-13320048D01*
X5271766Y-13308309D01*
X5317736Y-13291635D01*
X5361518Y-13270312D01*
X5402840Y-13244623D01*
X5441429Y-13214854D01*
X5477010Y-13181288D01*
X5509310Y-13144211D01*
X5538056Y-13103907D01*
X5562974Y-13060661D01*
X5583791Y-13014757D01*
X5600234Y-12966481D01*
X5612028Y-12916115D01*
X5617572Y-12867576D01*
X5616904Y-12818217D01*
X5610352Y-12768648D01*
X5598242Y-12719475D01*
X5580904Y-12671306D01*
X5558665Y-12624748D01*
X5531853Y-12580409D01*
X5500795Y-12538896D01*
X5465819Y-12500817D01*
X5427254Y-12466779D01*
X5385426Y-12437390D01*
X5340665Y-12413256D01*
X5324707Y-12406035D01*
X5310195Y-12399869D01*
X5296670Y-12394677D01*
X5283671Y-12390377D01*
X5270739Y-12386887D01*
X5257415Y-12384127D01*
X5243240Y-12382015D01*
X5227753Y-12380470D01*
X5210496Y-12379409D01*
X5191009Y-12378753D01*
X5168832Y-12378418D01*
X5143507Y-12378325D01*
X5118554Y-12378421D01*
X5096629Y-12378757D01*
X5077318Y-12379403D01*
X5060204Y-12380431D01*
X5044871Y-12381912D01*
X5030903Y-12383915D01*
X5017885Y-12386513D01*
X5005400Y-12389776D01*
X4993033Y-12393775D01*
X4980368Y-12398581D01*
X4966988Y-12404264D01*
X4952478Y-12410897D01*
X4906397Y-12435764D01*
X4863590Y-12465390D01*
X4824329Y-12499276D01*
X4788889Y-12536927D01*
X4757543Y-12577843D01*
X4730565Y-12621529D01*
X4708228Y-12667486D01*
X4690806Y-12715217D01*
X4678572Y-12764225D01*
X4671801Y-12814013D01*
X4670765Y-12864082D01*
X4319440Y-12864082D01*
X4318644Y-12840156D01*
X4318977Y-12806897D01*
X4320177Y-12775725D01*
X4322333Y-12746254D01*
X4325537Y-12718098D01*
X4329878Y-12690870D01*
X4335448Y-12664183D01*
X4342337Y-12637651D01*
X4350634Y-12610887D01*
X4360432Y-12583505D01*
X4371819Y-12555118D01*
X4384887Y-12525339D01*
X4399727Y-12493783D01*
X4417523Y-12460124D01*
X4438459Y-12426002D01*
X4462190Y-12391775D01*
X4488366Y-12357801D01*
X4516643Y-12324439D01*
X4546672Y-12292047D01*
X4578107Y-12260982D01*
X4610600Y-12231604D01*
X4643805Y-12204271D01*
X4677375Y-12179340D01*
X4710962Y-12157170D01*
X4744220Y-12138120D01*
X4814342Y-12105425D01*
X4887152Y-12079564D01*
X4962042Y-12060503D01*
X5038407Y-12048206D01*
X5115640Y-12042638D01*
X5193135Y-12043765D01*
X5270286Y-12051551D01*
X5346485Y-12065961D01*
X5421127Y-12086962D01*
X5493605Y-12114516D01*
X5563313Y-12148591D01*
X5629645Y-12189150D01*
X5666105Y-12213926D01*
X5672182Y-12029973D01*
X5678259Y-11846019D01*
X5830177Y-11805700D01*
X5850858Y-11800245D01*
X5870987Y-11794999D01*
X5890363Y-11790013D01*
X5908780Y-11785336D01*
X5926038Y-11781017D01*
X5941932Y-11777107D01*
X5956259Y-11773653D01*
X5968816Y-11770706D01*
X5979401Y-11768316D01*
X5987810Y-11766532D01*
X5993839Y-11765403D01*
X5997287Y-11764978D01*
X6000112Y-11769223D01*
G37*
G36*
X6607998Y-12943118D02*
G01*
X6607998Y-13660514D01*
X6437752Y-13660514D01*
X6267507Y-13660514D01*
X6270642Y-12946499D01*
X6273778Y-12232484D01*
X6440888Y-12229102D01*
X6607998Y-12225721D01*
X6607998Y-12943118D01*
G37*
G36*
X6607998Y-11897921D02*
G01*
X6607970Y-11917662D01*
X6607889Y-11936571D01*
X6607758Y-11954471D01*
X6607581Y-11971189D01*
X6607363Y-11986550D01*
X6607105Y-12000380D01*
X6606813Y-12012505D01*
X6606490Y-12022749D01*
X6606139Y-12030939D01*
X6605765Y-12036901D01*
X6605370Y-12040459D01*
X6604959Y-12041439D01*
X6603012Y-12041044D01*
X6598144Y-12040598D01*
X6590563Y-12040108D01*
X6580475Y-12039582D01*
X6568088Y-12039028D01*
X6553609Y-12038453D01*
X6537246Y-12037866D01*
X6519205Y-12037274D01*
X6499695Y-12036686D01*
X6478922Y-12036108D01*
X6457093Y-12035549D01*
X6434416Y-12035017D01*
X6266912Y-12031261D01*
X6270345Y-11894880D01*
X6273778Y-11758499D01*
X6440888Y-11755118D01*
X6607998Y-11751736D01*
X6607998Y-11897921D01*
G37*
G36*
X7669807Y-12044832D02*
G01*
X7726400Y-12049425D01*
X7780634Y-12057143D01*
X7832707Y-12068068D01*
X7882816Y-12082280D01*
X7931159Y-12099859D01*
X7977935Y-12120884D01*
X8023339Y-12145438D01*
X8067571Y-12173598D01*
X8110827Y-12205447D01*
X8153306Y-12241063D01*
X8195205Y-12280528D01*
X8233007Y-12320337D01*
X8267486Y-12361333D01*
X8298649Y-12403532D01*
X8326503Y-12446951D01*
X8351054Y-12491605D01*
X8372309Y-12537512D01*
X8390276Y-12584687D01*
X8404960Y-12633147D01*
X8416370Y-12682907D01*
X8424511Y-12733985D01*
X8429391Y-12786396D01*
X8431016Y-12840156D01*
X8430550Y-12873516D01*
X8429096Y-12905148D01*
X8426564Y-12935406D01*
X8422866Y-12964649D01*
X8417914Y-12993231D01*
X8411620Y-13021510D01*
X8403896Y-13049842D01*
X8394653Y-13078582D01*
X8383803Y-13108088D01*
X8371258Y-13138715D01*
X8356930Y-13170820D01*
X8340730Y-13204760D01*
X8304800Y-13270638D01*
X8264053Y-13331900D01*
X8218742Y-13388382D01*
X8169117Y-13439921D01*
X8115432Y-13486353D01*
X8057939Y-13527515D01*
X7996889Y-13563242D01*
X7932535Y-13593373D01*
X7865129Y-13617743D01*
X7794923Y-13636188D01*
X7722168Y-13648546D01*
X7647118Y-13654652D01*
X7630165Y-13655188D01*
X7612870Y-13655517D01*
X7595451Y-13655645D01*
X7578124Y-13655579D01*
X7561107Y-13655326D01*
X7544615Y-13654894D01*
X7528866Y-13654288D01*
X7514075Y-13653517D01*
X7500460Y-13652587D01*
X7488238Y-13651505D01*
X7477625Y-13650278D01*
X7468837Y-13648914D01*
X7424714Y-13639916D01*
X7382855Y-13629462D01*
X7342978Y-13617400D01*
X7304799Y-13603577D01*
X7268037Y-13587841D01*
X7232409Y-13570042D01*
X7197632Y-13550027D01*
X7163423Y-13527645D01*
X7129500Y-13502743D01*
X7095581Y-13475170D01*
X7061382Y-13444775D01*
X7026622Y-13411405D01*
X6936569Y-13306632D01*
X6867494Y-13193851D01*
X6819011Y-13075317D01*
X6790738Y-12953286D01*
X6783141Y-12842409D01*
X7135311Y-12842409D01*
X7135407Y-12854820D01*
X7136048Y-12867413D01*
X7137242Y-12880441D01*
X7138996Y-12894156D01*
X7141318Y-12908811D01*
X7144216Y-12924658D01*
X7147696Y-12941951D01*
X7167296Y-13011447D01*
X7195460Y-13075324D01*
X7231356Y-13133103D01*
X7274155Y-13184304D01*
X7323028Y-13228446D01*
X7377144Y-13265048D01*
X7435673Y-13293631D01*
X7497787Y-13313715D01*
X7562654Y-13324819D01*
X7629445Y-13326463D01*
X7697331Y-13318167D01*
X7765481Y-13299451D01*
X7797097Y-13286523D01*
X7828167Y-13270443D01*
X7858444Y-13251473D01*
X7887681Y-13229874D01*
X7915631Y-13205908D01*
X7942046Y-13179837D01*
X7966679Y-13151921D01*
X7989282Y-13122423D01*
X8009609Y-13091603D01*
X8027413Y-13059724D01*
X8042445Y-13027047D01*
X8054459Y-12993833D01*
X8069108Y-12934918D01*
X8076498Y-12876136D01*
X8076857Y-12818010D01*
X8070412Y-12761062D01*
X8057390Y-12705815D01*
X8038019Y-12652793D01*
X8012525Y-12602518D01*
X7981135Y-12555514D01*
X7944077Y-12512303D01*
X7901578Y-12473408D01*
X7853864Y-12439352D01*
X7801164Y-12410658D01*
X7786633Y-12404013D01*
X7773254Y-12398331D01*
X7760581Y-12393540D01*
X7748167Y-12389567D01*
X7735565Y-12386339D01*
X7722329Y-12383781D01*
X7708012Y-12381821D01*
X7692167Y-12380386D01*
X7674349Y-12379402D01*
X7654109Y-12378796D01*
X7631002Y-12378496D01*
X7604581Y-12378427D01*
X7576598Y-12378515D01*
X7552582Y-12378808D01*
X7531940Y-12379421D01*
X7514076Y-12380473D01*
X7498395Y-12382081D01*
X7484303Y-12384360D01*
X7471204Y-12387430D01*
X7458503Y-12391406D01*
X7445606Y-12396405D01*
X7431917Y-12402546D01*
X7416843Y-12409945D01*
X7399787Y-12418718D01*
X7365698Y-12438054D01*
X7333816Y-12459394D01*
X7304170Y-12482699D01*
X7276789Y-12507928D01*
X7251702Y-12535042D01*
X7228938Y-12564000D01*
X7208526Y-12594762D01*
X7190494Y-12627289D01*
X7174872Y-12661540D01*
X7161689Y-12697475D01*
X7150974Y-12735054D01*
X7142755Y-12774237D01*
X7140235Y-12789529D01*
X7138223Y-12803739D01*
X7136727Y-12817121D01*
X7135754Y-12829926D01*
X7135311Y-12842409D01*
X6783141Y-12842409D01*
X6782291Y-12830011D01*
X6793287Y-12707750D01*
X6823340Y-12588756D01*
X6872068Y-12475285D01*
X6939088Y-12369593D01*
X7024014Y-12273933D01*
X7126464Y-12190563D01*
X7246054Y-12121736D01*
X7276957Y-12107538D01*
X7306506Y-12095003D01*
X7335079Y-12084051D01*
X7363054Y-12074601D01*
X7390809Y-12066570D01*
X7418721Y-12059878D01*
X7447169Y-12054444D01*
X7476530Y-12050185D01*
X7507181Y-12047021D01*
X7539501Y-12044871D01*
X7573868Y-12043653D01*
X7610658Y-12043286D01*
X7669807Y-12044832D01*
G37*
D12*
X-5000000Y14471000D02*
X5000000Y14471000D01*
X5120301Y14170400D02*
X5120302Y13170400D01*
X-5219599Y14170400D02*
X-5219598Y13170400D01*
X-5000000Y-8600000D02*
X5000000Y-8600000D01*
X-7000000Y12831400D02*
X7000000Y12831400D01*
%TD*%
M02*
