%TF.GenerationSoftware,Flux,Pcbnew,7.0.11-7.0.11~ubuntu20.04.1*%
%TF.CreationDate,2025-02-14T06:42:17+00:00*%
%TF.ProjectId,input,696e7075-742e-46b6-9963-61645f706362,rev?*%
%TF.SameCoordinates,Original*%
%TF.FileFunction,Soldermask,Bot*%
%TF.FilePolarity,Negative*%
%FSLAX46Y46*%
G04 Gerber Fmt 4.6, Leading zero omitted, Abs format (unit mm)*
G04 Filename: xiao-plus-expander*
G04 Build it with Flux! Visit our site at: https://www.flux.ai (PCBNEW 7.0.11-7.0.11~ubuntu20.04.1) date 2025-02-14 06:42:17*
%MOMM*%
%LPD*%
G01*
G04 APERTURE LIST*
G04 APERTURE END LIST*
%TO.C,*%
G36*
X1185815Y-1976160D02*
G01*
X1195620Y-1976642D01*
X1205405Y-1977444D01*
X1215157Y-1978566D01*
X1224868Y-1980007D01*
X1234527Y-1981764D01*
X1244122Y-1983836D01*
X1253645Y-1986222D01*
X1263085Y-1988917D01*
X1272431Y-1991920D01*
X1281675Y-1995228D01*
X1290805Y-1998836D01*
X1299812Y-2002740D01*
X1308686Y-2006938D01*
X1317419Y-2011423D01*
X1326000Y-2016192D01*
X1334420Y-2021239D01*
X1342671Y-2026559D01*
X1350743Y-2032145D01*
X1358628Y-2037993D01*
X1366317Y-2044096D01*
X1373803Y-2050448D01*
X1381077Y-2057040D01*
X1388132Y-2063867D01*
X1394959Y-2070922D01*
X1401551Y-2078196D01*
X1407903Y-2085682D01*
X1414006Y-2093371D01*
X1419854Y-2101256D01*
X1425440Y-2109328D01*
X1430760Y-2117579D01*
X1435807Y-2126000D01*
X1440576Y-2134580D01*
X1445061Y-2143313D01*
X1449259Y-2152187D01*
X1453163Y-2161194D01*
X1456771Y-2170324D01*
X1460079Y-2179568D01*
X1463082Y-2188914D01*
X1465777Y-2198354D01*
X1468163Y-2207877D01*
X1470235Y-2217472D01*
X1471992Y-2227131D01*
X1473433Y-2236842D01*
X1474555Y-2246594D01*
X1475357Y-2256379D01*
X1475839Y-2266184D01*
X1476000Y-2276000D01*
X1476000Y-3676000D01*
X1475839Y-3685815D01*
X1475357Y-3695620D01*
X1474555Y-3705405D01*
X1473433Y-3715157D01*
X1471992Y-3724868D01*
X1470235Y-3734527D01*
X1468163Y-3744122D01*
X1465777Y-3753645D01*
X1463082Y-3763085D01*
X1460079Y-3772431D01*
X1456771Y-3781675D01*
X1453163Y-3790805D01*
X1449259Y-3799812D01*
X1445061Y-3808686D01*
X1440576Y-3817419D01*
X1435807Y-3826000D01*
X1430760Y-3834420D01*
X1425440Y-3842671D01*
X1419854Y-3850743D01*
X1414006Y-3858628D01*
X1407903Y-3866317D01*
X1401551Y-3873803D01*
X1394959Y-3881077D01*
X1388132Y-3888132D01*
X1381077Y-3894959D01*
X1373803Y-3901551D01*
X1366317Y-3907903D01*
X1358628Y-3914006D01*
X1350743Y-3919854D01*
X1342671Y-3925440D01*
X1334420Y-3930760D01*
X1325999Y-3935807D01*
X1317419Y-3940576D01*
X1308686Y-3945061D01*
X1299812Y-3949259D01*
X1290805Y-3953163D01*
X1281675Y-3956771D01*
X1272431Y-3960079D01*
X1263085Y-3963082D01*
X1253645Y-3965777D01*
X1244122Y-3968163D01*
X1234527Y-3970235D01*
X1224868Y-3971992D01*
X1215157Y-3973433D01*
X1205405Y-3974555D01*
X1195620Y-3975357D01*
X1185815Y-3975839D01*
X1176000Y-3976000D01*
X775999Y-3976000D01*
X766184Y-3975839D01*
X756379Y-3975357D01*
X746594Y-3974555D01*
X736842Y-3973433D01*
X727131Y-3971992D01*
X717472Y-3970235D01*
X707877Y-3968163D01*
X698354Y-3965777D01*
X688914Y-3963082D01*
X679568Y-3960079D01*
X670324Y-3956771D01*
X661194Y-3953163D01*
X652187Y-3949259D01*
X643313Y-3945061D01*
X634580Y-3940576D01*
X625999Y-3935807D01*
X617579Y-3930760D01*
X609328Y-3925440D01*
X601256Y-3919854D01*
X593371Y-3914006D01*
X585682Y-3907903D01*
X578196Y-3901551D01*
X570922Y-3894959D01*
X563867Y-3888132D01*
X557040Y-3881077D01*
X550448Y-3873803D01*
X544096Y-3866317D01*
X537993Y-3858628D01*
X532145Y-3850743D01*
X526559Y-3842671D01*
X521239Y-3834420D01*
X516192Y-3826000D01*
X511423Y-3817419D01*
X506938Y-3808686D01*
X502740Y-3799812D01*
X498836Y-3790805D01*
X495228Y-3781675D01*
X491920Y-3772431D01*
X488917Y-3763085D01*
X486222Y-3753645D01*
X483836Y-3744122D01*
X481764Y-3734527D01*
X480007Y-3724868D01*
X478566Y-3715157D01*
X477444Y-3705405D01*
X476642Y-3695620D01*
X476160Y-3685815D01*
X476000Y-3676000D01*
X476000Y-2276000D01*
X476160Y-2266184D01*
X476642Y-2256379D01*
X477444Y-2246594D01*
X478566Y-2236842D01*
X480007Y-2227131D01*
X481764Y-2217472D01*
X483836Y-2207877D01*
X486222Y-2198354D01*
X488917Y-2188914D01*
X491920Y-2179568D01*
X495228Y-2170324D01*
X498836Y-2161194D01*
X502740Y-2152187D01*
X506938Y-2143313D01*
X511423Y-2134580D01*
X516192Y-2126000D01*
X521239Y-2117579D01*
X526559Y-2109328D01*
X532145Y-2101256D01*
X537993Y-2093371D01*
X544096Y-2085682D01*
X550448Y-2078196D01*
X557040Y-2070922D01*
X563867Y-2063867D01*
X570922Y-2057040D01*
X578196Y-2050448D01*
X585682Y-2044096D01*
X593371Y-2037993D01*
X601256Y-2032145D01*
X609328Y-2026559D01*
X617579Y-2021239D01*
X626000Y-2016192D01*
X634580Y-2011423D01*
X643313Y-2006938D01*
X652187Y-2002740D01*
X661194Y-1998836D01*
X670324Y-1995228D01*
X679568Y-1991920D01*
X688914Y-1988917D01*
X698354Y-1986222D01*
X707877Y-1983836D01*
X717472Y-1981764D01*
X727131Y-1980007D01*
X736842Y-1978566D01*
X746594Y-1977444D01*
X756379Y-1976642D01*
X766184Y-1976160D01*
X776000Y-1976000D01*
X1176000Y-1976000D01*
X1185815Y-1976160D01*
G37*
G36*
X-7313853Y-4880896D02*
G01*
X-7132990Y-4985317D01*
X-6985317Y-5132990D01*
X-6880896Y-5313853D01*
X-6826844Y-5515579D01*
X-6826844Y-5724420D01*
X-6880896Y-5926146D01*
X-6985317Y-6107009D01*
X-7132990Y-6254682D01*
X-7313853Y-6359103D01*
X-7515579Y-6413155D01*
X-7724420Y-6413155D01*
X-7926146Y-6359103D01*
X-8107009Y-6254682D01*
X-8254682Y-6107009D01*
X-8359103Y-5926146D01*
X-8413155Y-5724420D01*
X-8413155Y-5515579D01*
X-8359103Y-5313853D01*
X-8254682Y-5132990D01*
X-8107009Y-4985317D01*
X-7926146Y-4880896D01*
X-7724420Y-4826844D01*
X-7515579Y-4826844D01*
X-7313853Y-4880896D01*
G37*
G36*
X7926146Y7819103D02*
G01*
X8107009Y7714682D01*
X8254682Y7567009D01*
X8359103Y7386146D01*
X8413155Y7184420D01*
X8413155Y6975579D01*
X8359103Y6773853D01*
X8254682Y6592990D01*
X8107009Y6445317D01*
X7926146Y6340896D01*
X7724420Y6286844D01*
X7515579Y6286844D01*
X7313853Y6340896D01*
X7132990Y6445317D01*
X6985317Y6592990D01*
X6880896Y6773853D01*
X6826844Y6975579D01*
X6826844Y7184420D01*
X6880896Y7386146D01*
X6985317Y7567009D01*
X7132990Y7714682D01*
X7313853Y7819103D01*
X7515579Y7873155D01*
X7724420Y7873155D01*
X7926146Y7819103D01*
G37*
G36*
X2185815Y1604839D02*
G01*
X2195620Y1604357D01*
X2205405Y1603555D01*
X2215157Y1602433D01*
X2224868Y1600992D01*
X2234527Y1599235D01*
X2244122Y1597163D01*
X2253645Y1594777D01*
X2263085Y1592082D01*
X2272431Y1589079D01*
X2281675Y1585771D01*
X2290805Y1582163D01*
X2299812Y1578259D01*
X2308686Y1574061D01*
X2317419Y1569576D01*
X2326000Y1564807D01*
X2334420Y1559760D01*
X2342671Y1554440D01*
X2350743Y1548854D01*
X2358628Y1543006D01*
X2366317Y1536903D01*
X2373803Y1530551D01*
X2381077Y1523959D01*
X2388132Y1517132D01*
X2394959Y1510077D01*
X2401551Y1502803D01*
X2407903Y1495317D01*
X2414006Y1487628D01*
X2419854Y1479743D01*
X2425440Y1471671D01*
X2430760Y1463420D01*
X2435807Y1455000D01*
X2440576Y1446419D01*
X2445061Y1437686D01*
X2449259Y1428812D01*
X2453163Y1419805D01*
X2456771Y1410675D01*
X2460079Y1401431D01*
X2463082Y1392085D01*
X2465777Y1382645D01*
X2468163Y1373122D01*
X2470235Y1363527D01*
X2471992Y1353868D01*
X2473433Y1344157D01*
X2474555Y1334405D01*
X2475357Y1324620D01*
X2475839Y1314815D01*
X2476000Y1305000D01*
X2476000Y-1095000D01*
X2475839Y-1104815D01*
X2475357Y-1114620D01*
X2474555Y-1124405D01*
X2473433Y-1134157D01*
X2471992Y-1143868D01*
X2470235Y-1153527D01*
X2468163Y-1163122D01*
X2465777Y-1172645D01*
X2463082Y-1182085D01*
X2460079Y-1191431D01*
X2456771Y-1200675D01*
X2453163Y-1209805D01*
X2449259Y-1218812D01*
X2445061Y-1227686D01*
X2440576Y-1236419D01*
X2435807Y-1245000D01*
X2430760Y-1253420D01*
X2425440Y-1261671D01*
X2419854Y-1269743D01*
X2414006Y-1277628D01*
X2407903Y-1285317D01*
X2401551Y-1292803D01*
X2394959Y-1300077D01*
X2388132Y-1307132D01*
X2381077Y-1313959D01*
X2373803Y-1320551D01*
X2366317Y-1326903D01*
X2358628Y-1333006D01*
X2350743Y-1338854D01*
X2342671Y-1344440D01*
X2334420Y-1349760D01*
X2326000Y-1354807D01*
X2317419Y-1359576D01*
X2308686Y-1364061D01*
X2299812Y-1368259D01*
X2290805Y-1372163D01*
X2281675Y-1375771D01*
X2272431Y-1379079D01*
X2263085Y-1382082D01*
X2253645Y-1384777D01*
X2244122Y-1387163D01*
X2234527Y-1389235D01*
X2224868Y-1390992D01*
X2215157Y-1392433D01*
X2205405Y-1393555D01*
X2195620Y-1394357D01*
X2185815Y-1394839D01*
X2176000Y-1395000D01*
X-223999Y-1395000D01*
X-233815Y-1394839D01*
X-243620Y-1394357D01*
X-253405Y-1393555D01*
X-263157Y-1392433D01*
X-272868Y-1390992D01*
X-282527Y-1389235D01*
X-292122Y-1387163D01*
X-301645Y-1384777D01*
X-311085Y-1382082D01*
X-320431Y-1379079D01*
X-329675Y-1375771D01*
X-338805Y-1372163D01*
X-347812Y-1368259D01*
X-356686Y-1364061D01*
X-365419Y-1359576D01*
X-374000Y-1354807D01*
X-382420Y-1349760D01*
X-390671Y-1344440D01*
X-398743Y-1338854D01*
X-406628Y-1333006D01*
X-414317Y-1326903D01*
X-421803Y-1320551D01*
X-429077Y-1313959D01*
X-436132Y-1307132D01*
X-442959Y-1300077D01*
X-449551Y-1292803D01*
X-455903Y-1285317D01*
X-462006Y-1277628D01*
X-467854Y-1269743D01*
X-473440Y-1261671D01*
X-478760Y-1253420D01*
X-483807Y-1245000D01*
X-488576Y-1236419D01*
X-493061Y-1227686D01*
X-497259Y-1218812D01*
X-501163Y-1209805D01*
X-504771Y-1200675D01*
X-508079Y-1191431D01*
X-511082Y-1182085D01*
X-513777Y-1172645D01*
X-516163Y-1163122D01*
X-518235Y-1153527D01*
X-519992Y-1143868D01*
X-521433Y-1134157D01*
X-522555Y-1124405D01*
X-523357Y-1114620D01*
X-523839Y-1104815D01*
X-524000Y-1095000D01*
X-524000Y1305000D01*
X-523839Y1314815D01*
X-523357Y1324620D01*
X-522555Y1334405D01*
X-521433Y1344157D01*
X-519992Y1353868D01*
X-518235Y1363527D01*
X-516163Y1373122D01*
X-513777Y1382645D01*
X-511082Y1392085D01*
X-508079Y1401431D01*
X-504771Y1410675D01*
X-501163Y1419805D01*
X-497259Y1428812D01*
X-493061Y1437686D01*
X-488576Y1446419D01*
X-483807Y1455000D01*
X-478760Y1463420D01*
X-473440Y1471671D01*
X-467854Y1479743D01*
X-462006Y1487628D01*
X-455903Y1495317D01*
X-449551Y1502803D01*
X-442959Y1510077D01*
X-436132Y1517132D01*
X-429077Y1523959D01*
X-421803Y1530551D01*
X-414317Y1536903D01*
X-406628Y1543006D01*
X-398743Y1548854D01*
X-390671Y1554440D01*
X-382420Y1559760D01*
X-374000Y1564807D01*
X-365419Y1569576D01*
X-356686Y1574061D01*
X-347812Y1578259D01*
X-338805Y1582163D01*
X-329675Y1585771D01*
X-320431Y1589079D01*
X-311085Y1592082D01*
X-301645Y1594777D01*
X-292122Y1597163D01*
X-282527Y1599235D01*
X-272868Y1600992D01*
X-263157Y1602433D01*
X-253405Y1603555D01*
X-243620Y1604357D01*
X-233815Y1604839D01*
X-223999Y1605000D01*
X2176000Y1605000D01*
X2185815Y1604839D01*
G37*
G36*
X7926146Y-4880896D02*
G01*
X8107009Y-4985317D01*
X8254682Y-5132990D01*
X8359103Y-5313853D01*
X8413155Y-5515579D01*
X8413155Y-5724420D01*
X8359103Y-5926146D01*
X8254682Y-6107009D01*
X8107009Y-6254682D01*
X7926146Y-6359103D01*
X7724420Y-6413155D01*
X7515579Y-6413155D01*
X7313853Y-6359103D01*
X7132990Y-6254682D01*
X6985317Y-6107009D01*
X6880896Y-5926146D01*
X6826844Y-5724420D01*
X6826844Y-5515579D01*
X6880896Y-5313853D01*
X6985317Y-5132990D01*
X7132990Y-4985317D01*
X7313853Y-4880896D01*
X7515579Y-4826844D01*
X7724420Y-4826844D01*
X7926146Y-4880896D01*
G37*
G36*
X7926146Y5279103D02*
G01*
X8107009Y5174682D01*
X8254682Y5027009D01*
X8359103Y4846146D01*
X8413155Y4644420D01*
X8413155Y4435579D01*
X8359103Y4233853D01*
X8254682Y4052990D01*
X8107009Y3905317D01*
X7926146Y3800896D01*
X7724420Y3746844D01*
X7515579Y3746844D01*
X7313853Y3800896D01*
X7132990Y3905317D01*
X6985317Y4052990D01*
X6880896Y4233853D01*
X6826844Y4435579D01*
X6826844Y4644420D01*
X6880896Y4846146D01*
X6985317Y5027009D01*
X7132990Y5174682D01*
X7313853Y5279103D01*
X7515579Y5333155D01*
X7724420Y5333155D01*
X7926146Y5279103D01*
G37*
G36*
X-766984Y-1976160D02*
G01*
X-757179Y-1976642D01*
X-747394Y-1977444D01*
X-737642Y-1978566D01*
X-727931Y-1980007D01*
X-718272Y-1981764D01*
X-708677Y-1983836D01*
X-699154Y-1986222D01*
X-689714Y-1988917D01*
X-680368Y-1991920D01*
X-671124Y-1995228D01*
X-661994Y-1998836D01*
X-652987Y-2002740D01*
X-644113Y-2006938D01*
X-635380Y-2011423D01*
X-626800Y-2016192D01*
X-618379Y-2021239D01*
X-610128Y-2026559D01*
X-602056Y-2032145D01*
X-594171Y-2037993D01*
X-586482Y-2044096D01*
X-578996Y-2050448D01*
X-571722Y-2057040D01*
X-564667Y-2063867D01*
X-557840Y-2070922D01*
X-551248Y-2078196D01*
X-544896Y-2085682D01*
X-538793Y-2093371D01*
X-532945Y-2101256D01*
X-527359Y-2109328D01*
X-522039Y-2117579D01*
X-516992Y-2126000D01*
X-512223Y-2134580D01*
X-507738Y-2143313D01*
X-503540Y-2152187D01*
X-499636Y-2161194D01*
X-496028Y-2170324D01*
X-492720Y-2179568D01*
X-489717Y-2188914D01*
X-487022Y-2198354D01*
X-484636Y-2207877D01*
X-482564Y-2217472D01*
X-480807Y-2227131D01*
X-479366Y-2236842D01*
X-478244Y-2246594D01*
X-477442Y-2256379D01*
X-476960Y-2266184D01*
X-476800Y-2276000D01*
X-476800Y-3676000D01*
X-476960Y-3685815D01*
X-477442Y-3695620D01*
X-478244Y-3705405D01*
X-479366Y-3715157D01*
X-480807Y-3724868D01*
X-482564Y-3734527D01*
X-484636Y-3744122D01*
X-487022Y-3753645D01*
X-489717Y-3763085D01*
X-492720Y-3772431D01*
X-496028Y-3781675D01*
X-499636Y-3790805D01*
X-503540Y-3799812D01*
X-507738Y-3808686D01*
X-512223Y-3817419D01*
X-516992Y-3826000D01*
X-522039Y-3834420D01*
X-527359Y-3842671D01*
X-532945Y-3850743D01*
X-538793Y-3858628D01*
X-544896Y-3866317D01*
X-551248Y-3873803D01*
X-557840Y-3881077D01*
X-564667Y-3888132D01*
X-571722Y-3894959D01*
X-578996Y-3901551D01*
X-586482Y-3907903D01*
X-594171Y-3914006D01*
X-602056Y-3919854D01*
X-610128Y-3925440D01*
X-618379Y-3930760D01*
X-626800Y-3935807D01*
X-635380Y-3940576D01*
X-644113Y-3945061D01*
X-652987Y-3949259D01*
X-661994Y-3953163D01*
X-671124Y-3956771D01*
X-680368Y-3960079D01*
X-689714Y-3963082D01*
X-699154Y-3965777D01*
X-708677Y-3968163D01*
X-718272Y-3970235D01*
X-727931Y-3971992D01*
X-737642Y-3973433D01*
X-747394Y-3974555D01*
X-757179Y-3975357D01*
X-766984Y-3975839D01*
X-776800Y-3976000D01*
X-1176800Y-3976000D01*
X-1186615Y-3975839D01*
X-1196420Y-3975357D01*
X-1206205Y-3974555D01*
X-1215957Y-3973433D01*
X-1225668Y-3971992D01*
X-1235327Y-3970235D01*
X-1244922Y-3968163D01*
X-1254445Y-3965777D01*
X-1263885Y-3963082D01*
X-1273231Y-3960079D01*
X-1282475Y-3956771D01*
X-1291605Y-3953163D01*
X-1300612Y-3949259D01*
X-1309486Y-3945061D01*
X-1318219Y-3940576D01*
X-1326800Y-3935807D01*
X-1335220Y-3930760D01*
X-1343471Y-3925440D01*
X-1351543Y-3919854D01*
X-1359428Y-3914006D01*
X-1367117Y-3907903D01*
X-1374603Y-3901551D01*
X-1381877Y-3894959D01*
X-1388932Y-3888132D01*
X-1395759Y-3881077D01*
X-1402351Y-3873803D01*
X-1408703Y-3866317D01*
X-1414806Y-3858628D01*
X-1420654Y-3850743D01*
X-1426240Y-3842671D01*
X-1431560Y-3834420D01*
X-1436607Y-3826000D01*
X-1441376Y-3817419D01*
X-1445861Y-3808686D01*
X-1450059Y-3799812D01*
X-1453963Y-3790805D01*
X-1457571Y-3781675D01*
X-1460879Y-3772431D01*
X-1463882Y-3763085D01*
X-1466577Y-3753645D01*
X-1468963Y-3744122D01*
X-1471035Y-3734527D01*
X-1472792Y-3724868D01*
X-1474233Y-3715157D01*
X-1475355Y-3705405D01*
X-1476157Y-3695620D01*
X-1476639Y-3685815D01*
X-1476800Y-3676000D01*
X-1476800Y-2276000D01*
X-1476639Y-2266184D01*
X-1476157Y-2256379D01*
X-1475355Y-2246594D01*
X-1474233Y-2236842D01*
X-1472792Y-2227131D01*
X-1471035Y-2217472D01*
X-1468963Y-2207877D01*
X-1466577Y-2198354D01*
X-1463882Y-2188914D01*
X-1460879Y-2179568D01*
X-1457571Y-2170324D01*
X-1453963Y-2161194D01*
X-1450059Y-2152187D01*
X-1445861Y-2143313D01*
X-1441376Y-2134580D01*
X-1436607Y-2126000D01*
X-1431560Y-2117579D01*
X-1426240Y-2109328D01*
X-1420654Y-2101256D01*
X-1414806Y-2093371D01*
X-1408703Y-2085682D01*
X-1402351Y-2078196D01*
X-1395759Y-2070922D01*
X-1388932Y-2063867D01*
X-1381877Y-2057040D01*
X-1374603Y-2050448D01*
X-1367117Y-2044096D01*
X-1359428Y-2037993D01*
X-1351543Y-2032145D01*
X-1343471Y-2026559D01*
X-1335220Y-2021239D01*
X-1326800Y-2016192D01*
X-1318219Y-2011423D01*
X-1309486Y-2006938D01*
X-1300612Y-2002740D01*
X-1291605Y-1998836D01*
X-1282475Y-1995228D01*
X-1273231Y-1991920D01*
X-1263885Y-1988917D01*
X-1254445Y-1986222D01*
X-1244922Y-1983836D01*
X-1235327Y-1981764D01*
X-1225668Y-1980007D01*
X-1215957Y-1978566D01*
X-1206205Y-1977444D01*
X-1196420Y-1976642D01*
X-1186615Y-1976160D01*
X-1176800Y-1976000D01*
X-776799Y-1976000D01*
X-766984Y-1976160D01*
G37*
G36*
X7926146Y-2340896D02*
G01*
X8107009Y-2445317D01*
X8254682Y-2592990D01*
X8359103Y-2773853D01*
X8413155Y-2975579D01*
X8413155Y-3184420D01*
X8359103Y-3386146D01*
X8254682Y-3567009D01*
X8107009Y-3714682D01*
X7926146Y-3819103D01*
X7724420Y-3873155D01*
X7515579Y-3873155D01*
X7313853Y-3819103D01*
X7132990Y-3714682D01*
X6985317Y-3567009D01*
X6880896Y-3386146D01*
X6826844Y-3184420D01*
X6826844Y-2975579D01*
X6880896Y-2773853D01*
X6985317Y-2592990D01*
X7132990Y-2445317D01*
X7313853Y-2340896D01*
X7515579Y-2286844D01*
X7724420Y-2286844D01*
X7926146Y-2340896D01*
G37*
G36*
X-7313853Y-2340896D02*
G01*
X-7132990Y-2445317D01*
X-6985317Y-2592990D01*
X-6880896Y-2773853D01*
X-6826844Y-2975579D01*
X-6826844Y-3184420D01*
X-6880896Y-3386146D01*
X-6985317Y-3567009D01*
X-7132990Y-3714682D01*
X-7313853Y-3819103D01*
X-7515579Y-3873155D01*
X-7724420Y-3873155D01*
X-7926146Y-3819103D01*
X-8107009Y-3714682D01*
X-8254682Y-3567009D01*
X-8359103Y-3386146D01*
X-8413155Y-3184420D01*
X-8413155Y-2975579D01*
X-8359103Y-2773853D01*
X-8254682Y-2592990D01*
X-8107009Y-2445317D01*
X-7926146Y-2340896D01*
X-7724420Y-2286844D01*
X-7515579Y-2286844D01*
X-7313853Y-2340896D01*
G37*
G36*
X7926146Y199103D02*
G01*
X8107009Y94682D01*
X8254682Y-52990D01*
X8359103Y-233853D01*
X8413155Y-435579D01*
X8413155Y-644420D01*
X8359103Y-846146D01*
X8254682Y-1027009D01*
X8107009Y-1174682D01*
X7926146Y-1279103D01*
X7724420Y-1333155D01*
X7515579Y-1333155D01*
X7313853Y-1279103D01*
X7132990Y-1174682D01*
X6985317Y-1027009D01*
X6880896Y-846146D01*
X6826844Y-644420D01*
X6826844Y-435579D01*
X6880896Y-233853D01*
X6985317Y-52990D01*
X7132990Y94682D01*
X7313853Y199103D01*
X7515579Y253155D01*
X7724420Y253155D01*
X7926146Y199103D01*
G37*
G36*
X7926146Y2739103D02*
G01*
X8107009Y2634682D01*
X8254682Y2487009D01*
X8359103Y2306146D01*
X8413155Y2104420D01*
X8413155Y1895579D01*
X8359103Y1693853D01*
X8254682Y1512990D01*
X8107009Y1365317D01*
X7926146Y1260896D01*
X7724420Y1206844D01*
X7515579Y1206844D01*
X7313853Y1260896D01*
X7132990Y1365317D01*
X6985317Y1512990D01*
X6880896Y1693853D01*
X6826844Y1895579D01*
X6826844Y2104420D01*
X6880896Y2306146D01*
X6985317Y2487009D01*
X7132990Y2634682D01*
X7313853Y2739103D01*
X7515579Y2793155D01*
X7724420Y2793155D01*
X7926146Y2739103D01*
G37*
G36*
X-7313853Y2739103D02*
G01*
X-7132990Y2634682D01*
X-6985317Y2487009D01*
X-6880896Y2306146D01*
X-6826844Y2104420D01*
X-6826844Y1895579D01*
X-6880896Y1693853D01*
X-6985317Y1512990D01*
X-7132990Y1365317D01*
X-7313853Y1260896D01*
X-7515579Y1206844D01*
X-7724420Y1206844D01*
X-7926146Y1260896D01*
X-8107009Y1365317D01*
X-8254682Y1512990D01*
X-8359103Y1693853D01*
X-8413155Y1895579D01*
X-8413155Y2104420D01*
X-8359103Y2306146D01*
X-8254682Y2487009D01*
X-8107009Y2634682D01*
X-7926146Y2739103D01*
X-7724420Y2793155D01*
X-7515579Y2793155D01*
X-7313853Y2739103D01*
G37*
G36*
X-7313853Y5279103D02*
G01*
X-7132990Y5174682D01*
X-6985317Y5027009D01*
X-6880896Y4846146D01*
X-6826844Y4644420D01*
X-6826844Y4435579D01*
X-6880896Y4233853D01*
X-6985317Y4052990D01*
X-7132990Y3905317D01*
X-7313853Y3800896D01*
X-7515579Y3746844D01*
X-7724420Y3746844D01*
X-7926146Y3800896D01*
X-8107009Y3905317D01*
X-8254682Y4052990D01*
X-8359103Y4233853D01*
X-8413155Y4435579D01*
X-8413155Y4644420D01*
X-8359103Y4846146D01*
X-8254682Y5027009D01*
X-8107009Y5174682D01*
X-7926146Y5279103D01*
X-7724420Y5333155D01*
X-7515579Y5333155D01*
X-7313853Y5279103D01*
G37*
G36*
X-7313853Y10359103D02*
G01*
X-7132990Y10254682D01*
X-6985317Y10107009D01*
X-6880896Y9926146D01*
X-6826844Y9724420D01*
X-6826844Y9515579D01*
X-6880896Y9313853D01*
X-6985317Y9132990D01*
X-7132990Y8985317D01*
X-7313853Y8880896D01*
X-7515579Y8826844D01*
X-7724420Y8826844D01*
X-7926146Y8880896D01*
X-8107009Y8985317D01*
X-8254682Y9132990D01*
X-8359103Y9313853D01*
X-8413155Y9515579D01*
X-8413155Y9724420D01*
X-8359103Y9926146D01*
X-8254682Y10107009D01*
X-8107009Y10254682D01*
X-7926146Y10359103D01*
X-7724420Y10413155D01*
X-7515579Y10413155D01*
X-7313853Y10359103D01*
G37*
G36*
X7926146Y10359103D02*
G01*
X8107009Y10254682D01*
X8254682Y10107009D01*
X8359103Y9926146D01*
X8413155Y9724420D01*
X8413155Y9515579D01*
X8359103Y9313853D01*
X8254682Y9132990D01*
X8107009Y8985317D01*
X7926146Y8880896D01*
X7724420Y8826844D01*
X7515579Y8826844D01*
X7313853Y8880896D01*
X7132990Y8985317D01*
X6985317Y9132990D01*
X6880896Y9313853D01*
X6826844Y9515579D01*
X6826844Y9724420D01*
X6880896Y9926146D01*
X6985317Y10107009D01*
X7132990Y10254682D01*
X7313853Y10359103D01*
X7515579Y10413155D01*
X7724420Y10413155D01*
X7926146Y10359103D01*
G37*
G36*
X-7313853Y199103D02*
G01*
X-7132990Y94682D01*
X-6985317Y-52990D01*
X-6880896Y-233853D01*
X-6826844Y-435579D01*
X-6826844Y-644420D01*
X-6880896Y-846146D01*
X-6985317Y-1027009D01*
X-7132990Y-1174682D01*
X-7313853Y-1279103D01*
X-7515579Y-1333155D01*
X-7724420Y-1333155D01*
X-7926146Y-1279103D01*
X-8107009Y-1174682D01*
X-8254682Y-1027009D01*
X-8359103Y-846146D01*
X-8413155Y-644420D01*
X-8413155Y-435579D01*
X-8359103Y-233853D01*
X-8254682Y-52990D01*
X-8107009Y94682D01*
X-7926146Y199103D01*
X-7724420Y253155D01*
X-7515579Y253155D01*
X-7313853Y199103D01*
G37*
G36*
X-7313853Y7819103D02*
G01*
X-7132990Y7714682D01*
X-6985317Y7567009D01*
X-6880896Y7386146D01*
X-6826844Y7184420D01*
X-6826844Y6975579D01*
X-6880896Y6773853D01*
X-6985317Y6592990D01*
X-7132990Y6445317D01*
X-7313853Y6340896D01*
X-7515579Y6286844D01*
X-7724420Y6286844D01*
X-7926146Y6340896D01*
X-8107009Y6445317D01*
X-8254682Y6592990D01*
X-8359103Y6773853D01*
X-8413155Y6975579D01*
X-8413155Y7184420D01*
X-8359103Y7386146D01*
X-8254682Y7567009D01*
X-8107009Y7714682D01*
X-7926146Y7819103D01*
X-7724420Y7873155D01*
X-7515579Y7873155D01*
X-7313853Y7819103D01*
G37*
G36*
X-11104719Y-3638502D02*
G01*
X-10912552Y-3749449D01*
X-10755649Y-3906352D01*
X-10644702Y-4098519D01*
X-10587271Y-4312852D01*
X-10587271Y-4534747D01*
X-10644702Y-4749080D01*
X-10755649Y-4941247D01*
X-10912552Y-5098150D01*
X-11104719Y-5209097D01*
X-11319052Y-5266528D01*
X-11540947Y-5266528D01*
X-11755280Y-5209097D01*
X-11947447Y-5098150D01*
X-12104350Y-4941247D01*
X-12215297Y-4749080D01*
X-12272728Y-4534747D01*
X-12272728Y-4312852D01*
X-12215297Y-4098519D01*
X-12104350Y-3906352D01*
X-11947447Y-3749449D01*
X-11755280Y-3638502D01*
X-11540947Y-3581071D01*
X-11319052Y-3581071D01*
X-11104719Y-3638502D01*
G37*
G36*
X-11104719Y-11258502D02*
G01*
X-10912552Y-11369449D01*
X-10755649Y-11526352D01*
X-10644702Y-11718519D01*
X-10587271Y-11932852D01*
X-10587271Y-12154747D01*
X-10644702Y-12369080D01*
X-10755649Y-12561247D01*
X-10912552Y-12718150D01*
X-11104719Y-12829097D01*
X-11319052Y-12886528D01*
X-11540947Y-12886528D01*
X-11755280Y-12829097D01*
X-11947447Y-12718150D01*
X-12104350Y-12561247D01*
X-12215297Y-12369080D01*
X-12272728Y-12154747D01*
X-12272728Y-11932852D01*
X-12215297Y-11718519D01*
X-12104350Y-11526352D01*
X-11947447Y-11369449D01*
X-11755280Y-11258502D01*
X-11540947Y-11201071D01*
X-11319052Y-11201071D01*
X-11104719Y-11258502D01*
G37*
G36*
X-11104719Y-6178502D02*
G01*
X-10912552Y-6289449D01*
X-10755649Y-6446352D01*
X-10644702Y-6638519D01*
X-10587271Y-6852852D01*
X-10587271Y-7074747D01*
X-10644702Y-7289080D01*
X-10755649Y-7481247D01*
X-10912552Y-7638150D01*
X-11104719Y-7749097D01*
X-11319052Y-7806528D01*
X-11540947Y-7806528D01*
X-11755280Y-7749097D01*
X-11947447Y-7638150D01*
X-12104350Y-7481247D01*
X-12215297Y-7289080D01*
X-12272728Y-7074747D01*
X-12272728Y-6852852D01*
X-12215297Y-6638519D01*
X-12104350Y-6446352D01*
X-11947447Y-6289449D01*
X-11755280Y-6178502D01*
X-11540947Y-6121071D01*
X-11319052Y-6121071D01*
X-11104719Y-6178502D01*
G37*
G36*
X-11104719Y6521497D02*
G01*
X-10912552Y6410550D01*
X-10755649Y6253647D01*
X-10644702Y6061480D01*
X-10587271Y5847147D01*
X-10587271Y5625252D01*
X-10644702Y5410919D01*
X-10755649Y5218752D01*
X-10912552Y5061849D01*
X-11104719Y4950902D01*
X-11319052Y4893471D01*
X-11540947Y4893471D01*
X-11755280Y4950902D01*
X-11947447Y5061849D01*
X-12104350Y5218752D01*
X-12215297Y5410919D01*
X-12272728Y5625252D01*
X-12272728Y5847147D01*
X-12215297Y6061480D01*
X-12104350Y6253647D01*
X-11947447Y6410550D01*
X-11755280Y6521497D01*
X-11540947Y6578928D01*
X-11319052Y6578928D01*
X-11104719Y6521497D01*
G37*
G36*
X-11104719Y3981497D02*
G01*
X-10912552Y3870550D01*
X-10755649Y3713647D01*
X-10644702Y3521480D01*
X-10587271Y3307147D01*
X-10587271Y3085252D01*
X-10644702Y2870919D01*
X-10755649Y2678752D01*
X-10912552Y2521849D01*
X-11104719Y2410902D01*
X-11319052Y2353471D01*
X-11540947Y2353471D01*
X-11755280Y2410902D01*
X-11947447Y2521849D01*
X-12104350Y2678752D01*
X-12215297Y2870919D01*
X-12272728Y3085252D01*
X-12272728Y3307147D01*
X-12215297Y3521480D01*
X-12104350Y3713647D01*
X-11947447Y3870550D01*
X-11755280Y3981497D01*
X-11540947Y4038928D01*
X-11319052Y4038928D01*
X-11104719Y3981497D01*
G37*
G36*
X-11104719Y11601497D02*
G01*
X-10912552Y11490550D01*
X-10755649Y11333647D01*
X-10644702Y11141480D01*
X-10587271Y10927147D01*
X-10587271Y10705252D01*
X-10644702Y10490919D01*
X-10755649Y10298752D01*
X-10912552Y10141849D01*
X-11104719Y10030902D01*
X-11319052Y9973471D01*
X-11540947Y9973471D01*
X-11755280Y10030902D01*
X-11947447Y10141849D01*
X-12104350Y10298752D01*
X-12215297Y10490919D01*
X-12272728Y10705252D01*
X-12272728Y10927147D01*
X-12215297Y11141480D01*
X-12104350Y11333647D01*
X-11947447Y11490550D01*
X-11755280Y11601497D01*
X-11540947Y11658928D01*
X-11319052Y11658928D01*
X-11104719Y11601497D01*
G37*
G36*
X-11104719Y-13798502D02*
G01*
X-10912552Y-13909449D01*
X-10755649Y-14066352D01*
X-10644702Y-14258519D01*
X-10587271Y-14472852D01*
X-10587271Y-14694747D01*
X-10644702Y-14909080D01*
X-10755649Y-15101247D01*
X-10912552Y-15258150D01*
X-11104719Y-15369097D01*
X-11319052Y-15426528D01*
X-11540947Y-15426528D01*
X-11755280Y-15369097D01*
X-11947447Y-15258150D01*
X-12104350Y-15101247D01*
X-12215297Y-14909080D01*
X-12272728Y-14694747D01*
X-12272728Y-14472852D01*
X-12215297Y-14258519D01*
X-12104350Y-14066352D01*
X-11947447Y-13909449D01*
X-11755280Y-13798502D01*
X-11540947Y-13741071D01*
X-11319052Y-13741071D01*
X-11104719Y-13798502D01*
G37*
G36*
X-11104719Y1441497D02*
G01*
X-10912552Y1330550D01*
X-10755649Y1173647D01*
X-10644702Y981480D01*
X-10587271Y767147D01*
X-10587271Y545252D01*
X-10644702Y330919D01*
X-10755649Y138752D01*
X-10912552Y-18150D01*
X-11104719Y-129097D01*
X-11319052Y-186528D01*
X-11540947Y-186528D01*
X-11755280Y-129097D01*
X-11947447Y-18150D01*
X-12104350Y138752D01*
X-12215297Y330919D01*
X-12272728Y545252D01*
X-12272728Y767147D01*
X-12215297Y981480D01*
X-12104350Y1173647D01*
X-11947447Y1330550D01*
X-11755280Y1441497D01*
X-11540947Y1498928D01*
X-11319052Y1498928D01*
X-11104719Y1441497D01*
G37*
G36*
X-11104719Y9061497D02*
G01*
X-10912552Y8950550D01*
X-10755649Y8793647D01*
X-10644702Y8601480D01*
X-10587271Y8387147D01*
X-10587271Y8165252D01*
X-10644702Y7950919D01*
X-10755649Y7758752D01*
X-10912552Y7601849D01*
X-11104719Y7490902D01*
X-11319052Y7433471D01*
X-11540947Y7433471D01*
X-11755280Y7490902D01*
X-11947447Y7601849D01*
X-12104350Y7758752D01*
X-12215297Y7950919D01*
X-12272728Y8165252D01*
X-12272728Y8387147D01*
X-12215297Y8601480D01*
X-12104350Y8793647D01*
X-11947447Y8950550D01*
X-11755280Y9061497D01*
X-11540947Y9118928D01*
X-11319052Y9118928D01*
X-11104719Y9061497D01*
G37*
G36*
X-11104719Y-8718502D02*
G01*
X-10912552Y-8829449D01*
X-10755649Y-8986352D01*
X-10644702Y-9178519D01*
X-10587271Y-9392852D01*
X-10587271Y-9614747D01*
X-10644702Y-9829080D01*
X-10755649Y-10021247D01*
X-10912552Y-10178150D01*
X-11104719Y-10289097D01*
X-11319052Y-10346528D01*
X-11540947Y-10346528D01*
X-11755280Y-10289097D01*
X-11947447Y-10178150D01*
X-12104350Y-10021247D01*
X-12215297Y-9829080D01*
X-12272728Y-9614747D01*
X-12272728Y-9392852D01*
X-12215297Y-9178519D01*
X-12104350Y-8986352D01*
X-11947447Y-8829449D01*
X-11755280Y-8718502D01*
X-11540947Y-8661071D01*
X-11319052Y-8661071D01*
X-11104719Y-8718502D01*
G37*
G36*
X-11104719Y-16338502D02*
G01*
X-10912552Y-16449449D01*
X-10755649Y-16606352D01*
X-10644702Y-16798519D01*
X-10587271Y-17012852D01*
X-10587271Y-17234747D01*
X-10644702Y-17449080D01*
X-10755649Y-17641247D01*
X-10912552Y-17798150D01*
X-11104719Y-17909097D01*
X-11319052Y-17966528D01*
X-11540947Y-17966528D01*
X-11755280Y-17909097D01*
X-11947447Y-17798150D01*
X-12104350Y-17641247D01*
X-12215297Y-17449080D01*
X-12272728Y-17234747D01*
X-12272728Y-17012852D01*
X-12215297Y-16798519D01*
X-12104350Y-16606352D01*
X-11947447Y-16449449D01*
X-11755280Y-16338502D01*
X-11540947Y-16281071D01*
X-11319052Y-16281071D01*
X-11104719Y-16338502D01*
G37*
G36*
X-11104719Y-1098502D02*
G01*
X-10912552Y-1209449D01*
X-10755649Y-1366352D01*
X-10644702Y-1558519D01*
X-10587271Y-1772852D01*
X-10587271Y-1994747D01*
X-10644702Y-2209080D01*
X-10755649Y-2401247D01*
X-10912552Y-2558150D01*
X-11104719Y-2669097D01*
X-11319052Y-2726528D01*
X-11540947Y-2726528D01*
X-11755280Y-2669097D01*
X-11947447Y-2558150D01*
X-12104350Y-2401247D01*
X-12215297Y-2209080D01*
X-12272728Y-1994747D01*
X-12272728Y-1772852D01*
X-12215297Y-1558519D01*
X-12104350Y-1366352D01*
X-11947447Y-1209449D01*
X-11755280Y-1098502D01*
X-11540947Y-1041071D01*
X-11319052Y-1041071D01*
X-11104719Y-1098502D01*
G37*
G36*
X-10580000Y12506200D02*
G01*
X-12280000Y12506200D01*
X-12280000Y14206199D01*
X-10580000Y14206199D01*
X-10580000Y12506200D01*
G37*
G36*
X11755280Y-3638502D02*
G01*
X11947447Y-3749449D01*
X12104350Y-3906352D01*
X12215297Y-4098519D01*
X12272728Y-4312852D01*
X12272728Y-4534747D01*
X12215297Y-4749080D01*
X12104350Y-4941247D01*
X11947447Y-5098150D01*
X11755280Y-5209097D01*
X11540947Y-5266528D01*
X11319052Y-5266528D01*
X11104719Y-5209097D01*
X10912552Y-5098150D01*
X10755649Y-4941247D01*
X10644702Y-4749080D01*
X10587271Y-4534747D01*
X10587271Y-4312852D01*
X10644702Y-4098519D01*
X10755649Y-3906352D01*
X10912552Y-3749449D01*
X11104719Y-3638502D01*
X11319052Y-3581071D01*
X11540947Y-3581071D01*
X11755280Y-3638502D01*
G37*
G36*
X11755280Y-11258502D02*
G01*
X11947447Y-11369449D01*
X12104350Y-11526352D01*
X12215297Y-11718519D01*
X12272728Y-11932852D01*
X12272728Y-12154747D01*
X12215297Y-12369080D01*
X12104350Y-12561247D01*
X11947447Y-12718150D01*
X11755280Y-12829097D01*
X11540947Y-12886528D01*
X11319052Y-12886528D01*
X11104719Y-12829097D01*
X10912552Y-12718150D01*
X10755649Y-12561247D01*
X10644702Y-12369080D01*
X10587271Y-12154747D01*
X10587271Y-11932852D01*
X10644702Y-11718519D01*
X10755649Y-11526352D01*
X10912552Y-11369449D01*
X11104719Y-11258502D01*
X11319052Y-11201071D01*
X11540947Y-11201071D01*
X11755280Y-11258502D01*
G37*
G36*
X11755280Y-6178502D02*
G01*
X11947447Y-6289449D01*
X12104350Y-6446352D01*
X12215297Y-6638519D01*
X12272728Y-6852852D01*
X12272728Y-7074747D01*
X12215297Y-7289080D01*
X12104350Y-7481247D01*
X11947447Y-7638150D01*
X11755280Y-7749097D01*
X11540947Y-7806528D01*
X11319052Y-7806528D01*
X11104719Y-7749097D01*
X10912552Y-7638150D01*
X10755649Y-7481247D01*
X10644702Y-7289080D01*
X10587271Y-7074747D01*
X10587271Y-6852852D01*
X10644702Y-6638519D01*
X10755649Y-6446352D01*
X10912552Y-6289449D01*
X11104719Y-6178502D01*
X11319052Y-6121071D01*
X11540947Y-6121071D01*
X11755280Y-6178502D01*
G37*
G36*
X11755280Y6521497D02*
G01*
X11947447Y6410550D01*
X12104350Y6253647D01*
X12215297Y6061480D01*
X12272728Y5847147D01*
X12272728Y5625252D01*
X12215297Y5410919D01*
X12104350Y5218752D01*
X11947447Y5061849D01*
X11755280Y4950902D01*
X11540947Y4893471D01*
X11319052Y4893471D01*
X11104719Y4950902D01*
X10912552Y5061849D01*
X10755649Y5218752D01*
X10644702Y5410919D01*
X10587271Y5625252D01*
X10587271Y5847147D01*
X10644702Y6061480D01*
X10755649Y6253647D01*
X10912552Y6410550D01*
X11104719Y6521497D01*
X11319052Y6578928D01*
X11540947Y6578928D01*
X11755280Y6521497D01*
G37*
G36*
X11755280Y3981497D02*
G01*
X11947447Y3870550D01*
X12104350Y3713647D01*
X12215297Y3521480D01*
X12272728Y3307147D01*
X12272728Y3085252D01*
X12215297Y2870919D01*
X12104350Y2678752D01*
X11947447Y2521849D01*
X11755280Y2410902D01*
X11540947Y2353471D01*
X11319052Y2353471D01*
X11104719Y2410902D01*
X10912552Y2521849D01*
X10755649Y2678752D01*
X10644702Y2870919D01*
X10587271Y3085252D01*
X10587271Y3307147D01*
X10644702Y3521480D01*
X10755649Y3713647D01*
X10912552Y3870550D01*
X11104719Y3981497D01*
X11319052Y4038928D01*
X11540947Y4038928D01*
X11755280Y3981497D01*
G37*
G36*
X11755280Y11601497D02*
G01*
X11947447Y11490550D01*
X12104350Y11333647D01*
X12215297Y11141480D01*
X12272728Y10927147D01*
X12272728Y10705252D01*
X12215297Y10490919D01*
X12104350Y10298752D01*
X11947447Y10141849D01*
X11755280Y10030902D01*
X11540947Y9973471D01*
X11319052Y9973471D01*
X11104719Y10030902D01*
X10912552Y10141849D01*
X10755649Y10298752D01*
X10644702Y10490919D01*
X10587271Y10705252D01*
X10587271Y10927147D01*
X10644702Y11141480D01*
X10755649Y11333647D01*
X10912552Y11490550D01*
X11104719Y11601497D01*
X11319052Y11658928D01*
X11540947Y11658928D01*
X11755280Y11601497D01*
G37*
G36*
X11755280Y-13798502D02*
G01*
X11947447Y-13909449D01*
X12104350Y-14066352D01*
X12215297Y-14258519D01*
X12272728Y-14472852D01*
X12272728Y-14694747D01*
X12215297Y-14909080D01*
X12104350Y-15101247D01*
X11947447Y-15258150D01*
X11755280Y-15369097D01*
X11540947Y-15426528D01*
X11319052Y-15426528D01*
X11104719Y-15369097D01*
X10912552Y-15258150D01*
X10755649Y-15101247D01*
X10644702Y-14909080D01*
X10587271Y-14694747D01*
X10587271Y-14472852D01*
X10644702Y-14258519D01*
X10755649Y-14066352D01*
X10912552Y-13909449D01*
X11104719Y-13798502D01*
X11319052Y-13741071D01*
X11540947Y-13741071D01*
X11755280Y-13798502D01*
G37*
G36*
X11755280Y1441497D02*
G01*
X11947447Y1330550D01*
X12104350Y1173647D01*
X12215297Y981480D01*
X12272728Y767147D01*
X12272728Y545252D01*
X12215297Y330919D01*
X12104350Y138752D01*
X11947447Y-18150D01*
X11755280Y-129097D01*
X11540947Y-186528D01*
X11319052Y-186528D01*
X11104719Y-129097D01*
X10912552Y-18150D01*
X10755649Y138752D01*
X10644702Y330919D01*
X10587271Y545252D01*
X10587271Y767147D01*
X10644702Y981480D01*
X10755649Y1173647D01*
X10912552Y1330550D01*
X11104719Y1441497D01*
X11319052Y1498928D01*
X11540947Y1498928D01*
X11755280Y1441497D01*
G37*
G36*
X11755280Y9061497D02*
G01*
X11947447Y8950550D01*
X12104350Y8793647D01*
X12215297Y8601480D01*
X12272728Y8387147D01*
X12272728Y8165252D01*
X12215297Y7950919D01*
X12104350Y7758752D01*
X11947447Y7601849D01*
X11755280Y7490902D01*
X11540947Y7433471D01*
X11319052Y7433471D01*
X11104719Y7490902D01*
X10912552Y7601849D01*
X10755649Y7758752D01*
X10644702Y7950919D01*
X10587271Y8165252D01*
X10587271Y8387147D01*
X10644702Y8601480D01*
X10755649Y8793647D01*
X10912552Y8950550D01*
X11104719Y9061497D01*
X11319052Y9118928D01*
X11540947Y9118928D01*
X11755280Y9061497D01*
G37*
G36*
X11755280Y-8718502D02*
G01*
X11947447Y-8829449D01*
X12104350Y-8986352D01*
X12215297Y-9178519D01*
X12272728Y-9392852D01*
X12272728Y-9614747D01*
X12215297Y-9829080D01*
X12104350Y-10021247D01*
X11947447Y-10178150D01*
X11755280Y-10289097D01*
X11540947Y-10346528D01*
X11319052Y-10346528D01*
X11104719Y-10289097D01*
X10912552Y-10178150D01*
X10755649Y-10021247D01*
X10644702Y-9829080D01*
X10587271Y-9614747D01*
X10587271Y-9392852D01*
X10644702Y-9178519D01*
X10755649Y-8986352D01*
X10912552Y-8829449D01*
X11104719Y-8718502D01*
X11319052Y-8661071D01*
X11540947Y-8661071D01*
X11755280Y-8718502D01*
G37*
G36*
X11755280Y-16338502D02*
G01*
X11947447Y-16449449D01*
X12104350Y-16606352D01*
X12215297Y-16798519D01*
X12272728Y-17012852D01*
X12272728Y-17234747D01*
X12215297Y-17449080D01*
X12104350Y-17641247D01*
X11947447Y-17798150D01*
X11755280Y-17909097D01*
X11540947Y-17966528D01*
X11319052Y-17966528D01*
X11104719Y-17909097D01*
X10912552Y-17798150D01*
X10755649Y-17641247D01*
X10644702Y-17449080D01*
X10587271Y-17234747D01*
X10587271Y-17012852D01*
X10644702Y-16798519D01*
X10755649Y-16606352D01*
X10912552Y-16449449D01*
X11104719Y-16338502D01*
X11319052Y-16281071D01*
X11540947Y-16281071D01*
X11755280Y-16338502D01*
G37*
G36*
X11755280Y-1098502D02*
G01*
X11947447Y-1209449D01*
X12104350Y-1366352D01*
X12215297Y-1558519D01*
X12272728Y-1772852D01*
X12272728Y-1994747D01*
X12215297Y-2209080D01*
X12104350Y-2401247D01*
X11947447Y-2558150D01*
X11755280Y-2669097D01*
X11540947Y-2726528D01*
X11319052Y-2726528D01*
X11104719Y-2669097D01*
X10912552Y-2558150D01*
X10755649Y-2401247D01*
X10644702Y-2209080D01*
X10587271Y-1994747D01*
X10587271Y-1772852D01*
X10644702Y-1558519D01*
X10755649Y-1366352D01*
X10912552Y-1209449D01*
X11104719Y-1098502D01*
X11319052Y-1041071D01*
X11540947Y-1041071D01*
X11755280Y-1098502D01*
G37*
G36*
X12280000Y12506200D02*
G01*
X10580000Y12506200D01*
X10580000Y14206199D01*
X12280000Y14206199D01*
X12280000Y12506200D01*
G37*
%TD*%
M02*
