%TF.GenerationSoftware,Flux,Pcbnew,7.0.11-7.0.11~ubuntu20.04.1*%
%TF.CreationDate,2025-02-14T06:42:17+00:00*%
%TF.ProjectId,input,696e7075-742e-46b6-9963-61645f706362,rev?*%
%TF.SameCoordinates,Original*%
%TF.FileFunction,Copper,L2,Bot*%
%TF.FilePolarity,Positive*%
%FSLAX46Y46*%
G04 Gerber Fmt 4.6, Leading zero omitted, Abs format (unit mm)*
G04 Filename: xiao-plus-expander*
G04 Build it with Flux! Visit our site at: https://www.flux.ai (PCBNEW 7.0.11-7.0.11~ubuntu20.04.1) date 2025-02-14 06:42:17*
%MOMM*%
%LPD*%
G01*
G04 APERTURE LIST*
G04 Aperture macros list*
%AMFreePoly0*
4,1,101,0.719621,0.499358,0.739158,0.497433,0.758527,0.494236,0.777646,0.489778,0.796432,0.484079,0.814805,0.477164,0.832687,0.469062,0.850000,0.459808,0.866671,0.449441,0.882628,0.438006,0.897804,0.425552,0.912132,0.412132,0.925552,0.397804,0.938006,0.382628,0.949441,0.366671,0.959808,0.350000,0.969062,0.332687,0.977164,0.314805,0.984079,0.296432,0.989778,0.277646,
0.994236,0.258527,0.997433,0.239158,0.999358,0.219621,1.000000,0.200000,1.000000,-0.200000,0.999358,-0.219621,0.997433,-0.239158,0.994236,-0.258527,0.989778,-0.277646,0.984079,-0.296432,0.977164,-0.314805,0.969062,-0.332687,0.959808,-0.350000,0.949441,-0.366671,0.938006,-0.382628,0.925552,-0.397804,0.912132,-0.412132,0.897804,-0.425552,0.882628,-0.438006,0.866671,-0.449441,
0.850000,-0.459808,0.832687,-0.469062,0.814805,-0.477164,0.796432,-0.484079,0.777646,-0.489778,0.758527,-0.494236,0.739158,-0.497433,0.719621,-0.499358,0.700000,-0.500000,-0.700000,-0.500000,-0.719621,-0.499358,-0.739158,-0.497433,-0.758527,-0.494236,-0.777646,-0.489778,-0.796432,-0.484079,-0.814805,-0.477164,-0.832687,-0.469062,-0.850000,-0.459808,-0.866671,-0.449441,-0.882628,-0.438006,
-0.897804,-0.425552,-0.912132,-0.412132,-0.925552,-0.397804,-0.938006,-0.382628,-0.949441,-0.366671,-0.959808,-0.350000,-0.969062,-0.332687,-0.977164,-0.314805,-0.984079,-0.296432,-0.989778,-0.277646,-0.994236,-0.258527,-0.997433,-0.239158,-0.999358,-0.219621,-1.000000,-0.200000,-1.000000,0.200000,-0.999358,0.219621,-0.997433,0.239158,-0.994236,0.258527,-0.989778,0.277646,-0.984079,0.296432,
-0.977164,0.314805,-0.969062,0.332687,-0.959808,0.350000,-0.949441,0.366671,-0.938006,0.382628,-0.925552,0.397804,-0.912132,0.412132,-0.897804,0.425552,-0.882628,0.438006,-0.866671,0.449441,-0.850000,0.459808,-0.832687,0.469062,-0.814805,0.477164,-0.796432,0.484079,-0.777646,0.489778,-0.758527,0.494236,-0.739158,0.497433,-0.719621,0.499358,-0.700000,0.500000,0.700000,0.500000,
0.719621,0.499358,0.719621,0.499358,$1*%
%AMFreePoly1*
4,1,65,0.117384,0.791341,0.194384,0.776025,0.269512,0.753235,0.342044,0.723191,0.411282,0.686183,0.476559,0.642566,0.537247,0.592761,0.592761,0.537247,0.642566,0.476559,0.686183,0.411282,0.723191,0.342044,0.753235,0.269512,0.776025,0.194384,0.791341,0.117384,0.799036,0.039254,0.799036,-0.039254,0.791341,-0.117384,0.776025,-0.194384,0.753235,-0.269512,0.723191,-0.342044,
0.686183,-0.411282,0.642566,-0.476559,0.592761,-0.537247,0.537247,-0.592761,0.476559,-0.642566,0.411282,-0.686183,0.342044,-0.723191,0.269512,-0.753235,0.194384,-0.776025,0.117384,-0.791341,0.039254,-0.799036,-0.039254,-0.799036,-0.117384,-0.791341,-0.194384,-0.776025,-0.269512,-0.753235,-0.342044,-0.723191,-0.411282,-0.686183,-0.476559,-0.642566,-0.537247,-0.592761,-0.592761,-0.537247,
-0.642566,-0.476559,-0.686183,-0.411282,-0.723191,-0.342044,-0.753235,-0.269512,-0.776025,-0.194384,-0.791341,-0.117384,-0.799036,-0.039254,-0.799036,0.039254,-0.791341,0.117384,-0.776025,0.194384,-0.753235,0.269512,-0.723191,0.342044,-0.686183,0.411282,-0.642566,0.476559,-0.592761,0.537247,-0.537247,0.592761,-0.476559,0.642566,-0.411282,0.686183,-0.342044,0.723191,-0.269512,0.753235,
-0.194384,0.776025,-0.117384,0.791341,-0.039254,0.799036,0.039254,0.799036,0.117384,0.791341,0.117384,0.791341,$1*%
%AMFreePoly2*
4,1,101,1.219621,1.499358,1.239158,1.497433,1.258527,1.494236,1.277646,1.489778,1.296432,1.484079,1.314805,1.477164,1.332687,1.469062,1.350000,1.459808,1.366671,1.449441,1.382628,1.438006,1.397804,1.425552,1.412132,1.412132,1.425552,1.397804,1.438006,1.382628,1.449441,1.366671,1.459808,1.350000,1.469062,1.332687,1.477164,1.314805,1.484079,1.296432,1.489778,1.277646,
1.494236,1.258527,1.497433,1.239158,1.499358,1.219621,1.500000,1.200000,1.500000,-1.200000,1.499358,-1.219621,1.497433,-1.239158,1.494236,-1.258527,1.489778,-1.277646,1.484079,-1.296432,1.477164,-1.314805,1.469062,-1.332687,1.459808,-1.350000,1.449441,-1.366671,1.438006,-1.382628,1.425552,-1.397804,1.412132,-1.412132,1.397804,-1.425552,1.382628,-1.438006,1.366671,-1.449441,
1.350000,-1.459808,1.332687,-1.469062,1.314805,-1.477164,1.296432,-1.484079,1.277646,-1.489778,1.258527,-1.494236,1.239158,-1.497433,1.219621,-1.499358,1.200000,-1.500000,-1.200000,-1.500000,-1.219621,-1.499358,-1.239158,-1.497433,-1.258527,-1.494236,-1.277646,-1.489778,-1.296432,-1.484079,-1.314805,-1.477164,-1.332687,-1.469062,-1.350000,-1.459808,-1.366671,-1.449441,-1.382628,-1.438006,
-1.397804,-1.425552,-1.412132,-1.412132,-1.425552,-1.397804,-1.438006,-1.382628,-1.449441,-1.366671,-1.459808,-1.350000,-1.469062,-1.332687,-1.477164,-1.314805,-1.484079,-1.296432,-1.489778,-1.277646,-1.494236,-1.258527,-1.497433,-1.239158,-1.499358,-1.219621,-1.500000,-1.200000,-1.500000,1.200000,-1.499358,1.219621,-1.497433,1.239158,-1.494236,1.258527,-1.489778,1.277646,-1.484079,1.296432,
-1.477164,1.314805,-1.469062,1.332687,-1.459808,1.350000,-1.449441,1.366671,-1.438006,1.382628,-1.425552,1.397804,-1.412132,1.412132,-1.397804,1.425552,-1.382628,1.438006,-1.366671,1.449441,-1.350000,1.459808,-1.332687,1.469062,-1.314805,1.477164,-1.296432,1.484079,-1.277646,1.489778,-1.258527,1.494236,-1.239158,1.497433,-1.219621,1.499358,-1.200000,1.500000,1.200000,1.500000,
1.219621,1.499358,1.219621,1.499358,$1*%
%AMFreePoly3*
4,1,65,0.124721,0.840800,0.206533,0.824527,0.286356,0.800312,0.363422,0.768391,0.436987,0.729069,0.506344,0.682726,0.570825,0.629808,0.629808,0.570825,0.682726,0.506344,0.729069,0.436987,0.768391,0.363422,0.800312,0.286356,0.824527,0.206533,0.840800,0.124721,0.848976,0.041708,0.848976,-0.041708,0.840800,-0.124721,0.824527,-0.206533,0.800312,-0.286356,0.768391,-0.363422,
0.729069,-0.436987,0.682726,-0.506344,0.629808,-0.570825,0.570825,-0.629808,0.506344,-0.682726,0.436987,-0.729069,0.363422,-0.768391,0.286356,-0.800312,0.206533,-0.824527,0.124721,-0.840800,0.041708,-0.848976,-0.041708,-0.848976,-0.124721,-0.840800,-0.206533,-0.824527,-0.286356,-0.800312,-0.363422,-0.768391,-0.436987,-0.729069,-0.506344,-0.682726,-0.570825,-0.629808,-0.629808,-0.570825,
-0.682726,-0.506344,-0.729069,-0.436987,-0.768391,-0.363422,-0.800312,-0.286356,-0.824527,-0.206533,-0.840800,-0.124721,-0.848976,-0.041708,-0.848976,0.041708,-0.840800,0.124721,-0.824527,0.206533,-0.800312,0.286356,-0.768391,0.363422,-0.729069,0.436987,-0.682726,0.506344,-0.629808,0.570825,-0.570825,0.629808,-0.506344,0.682726,-0.436987,0.729069,-0.363422,0.768391,-0.286356,0.800312,
-0.206533,0.824527,-0.124721,0.840800,-0.041708,0.848976,0.041708,0.848976,0.124721,0.840800,0.124721,0.840800,$1*%
%AMFreePoly4*
4,1,5,0.850000,-0.850000,-0.850000,-0.850000,-0.850000,0.850000,0.850000,0.850000,0.850000,-0.850000,0.850000,-0.850000,$1*%
%AMFreePoly5*
4,1,129,0.022069,0.299187,0.036723,0.297744,0.051289,0.295583,0.065730,0.292711,0.080014,0.289133,0.094105,0.284858,0.107969,0.279898,0.121572,0.274263,0.134883,0.267967,0.147869,0.261026,0.160499,0.253456,0.172742,0.245275,0.184569,0.236504,0.195952,0.227163,0.206862,0.217274,0.217274,0.206862,0.227163,0.195952,0.236504,0.184569,0.245275,0.172742,0.253456,0.160499,
0.261026,0.147869,0.267967,0.134883,0.274263,0.121572,0.279898,0.107969,0.284858,0.094105,0.289133,0.080014,0.292711,0.065730,0.295583,0.051289,0.297744,0.036723,0.299187,0.022069,0.299910,0.007362,0.299910,-0.007362,0.299187,-0.022069,0.297744,-0.036723,0.295583,-0.051289,0.292711,-0.065730,0.289133,-0.080014,0.284858,-0.094105,0.279898,-0.107969,0.274263,-0.121572,
0.267967,-0.134883,0.261026,-0.147869,0.253456,-0.160499,0.245275,-0.172742,0.236504,-0.184569,0.227163,-0.195952,0.217274,-0.206862,0.206862,-0.217274,0.195952,-0.227163,0.184569,-0.236504,0.172742,-0.245275,0.160499,-0.253456,0.147869,-0.261026,0.134883,-0.267967,0.121572,-0.274263,0.107969,-0.279898,0.094105,-0.284858,0.080014,-0.289133,0.065730,-0.292711,0.051289,-0.295583,
0.036723,-0.297744,0.022069,-0.299187,0.007362,-0.299910,-0.007362,-0.299910,-0.022069,-0.299187,-0.036723,-0.297744,-0.051289,-0.295583,-0.065730,-0.292711,-0.080014,-0.289133,-0.094105,-0.284858,-0.107969,-0.279898,-0.121572,-0.274263,-0.134883,-0.267967,-0.147869,-0.261026,-0.160499,-0.253456,-0.172742,-0.245275,-0.184569,-0.236504,-0.195952,-0.227163,-0.206862,-0.217274,-0.217274,-0.206862,
-0.227163,-0.195952,-0.236504,-0.184569,-0.245275,-0.172742,-0.253456,-0.160499,-0.261026,-0.147869,-0.267967,-0.134883,-0.274263,-0.121572,-0.279898,-0.107969,-0.284858,-0.094105,-0.289133,-0.080014,-0.292711,-0.065730,-0.295583,-0.051289,-0.297744,-0.036723,-0.299187,-0.022069,-0.299910,-0.007362,-0.299910,0.007362,-0.299187,0.022069,-0.297744,0.036723,-0.295583,0.051289,-0.292711,0.065730,
-0.289133,0.080014,-0.284858,0.094105,-0.279898,0.107969,-0.274263,0.121572,-0.267967,0.134883,-0.261026,0.147869,-0.253456,0.160499,-0.245275,0.172742,-0.236504,0.184569,-0.227163,0.195952,-0.217274,0.206862,-0.206862,0.217274,-0.195952,0.227163,-0.184569,0.236504,-0.172742,0.245275,-0.160499,0.253456,-0.147869,0.261026,-0.134883,0.267967,-0.121572,0.274263,-0.107969,0.279898,
-0.094105,0.284858,-0.080014,0.289133,-0.065730,0.292711,-0.051289,0.295583,-0.036723,0.297744,-0.022069,0.299187,-0.007362,0.299910,0.007362,0.299910,0.022069,0.299187,0.022069,0.299187,$1*%
G04 Aperture macros list end*
%TA.AperFunction,ComponentPad*%
%ADD10FreePoly0,90.000000*%
%TD*%
%TA.AperFunction,ComponentPad*%
%ADD11FreePoly1,0.000000*%
%TD*%
%TA.AperFunction,ComponentPad*%
%ADD12FreePoly2,0.000000*%
%TD*%
%TA.AperFunction,ComponentPad*%
%ADD13FreePoly3,0.000000*%
%TD*%
%TA.AperFunction,ComponentPad*%
%ADD14FreePoly4,0.000000*%
%TD*%
%TA.AperFunction,ComponentPad*%
%ADD15FreePoly5,0.000000*%
%TD*%
%TA.AperFunction,Conductor*%
%ADD16C,0.254000*%
%TD*%
G04 APERTURE END LIST*
D10*
%TO.P,,BAT-*%
%TO.N,N/C*%
X976000Y-2976000D03*
D11*
%TO.P,,D6*%
X-7620000Y-5620000D03*
%TO.P,,GND*%
X7620000Y7080000D03*
D12*
%TO.P,,G_PAD*%
X976000Y105000D03*
D11*
%TO.P,,D7*%
X7620000Y-5620000D03*
%TO.P,,3V3*%
X7620000Y4540000D03*
D10*
%TO.P,,BAT+*%
X-976800Y-2976000D03*
D11*
%TO.P,,D8*%
X7620000Y-3080000D03*
%TO.P,,D5*%
X-7620000Y-3080000D03*
%TO.P,,D9*%
X7620000Y-540000D03*
%TO.P,,D10*%
X7620000Y2000000D03*
%TO.P,,D3*%
X-7620000Y2000000D03*
%TO.P,,D2*%
X-7620000Y4540000D03*
%TO.P,,D0*%
X-7620000Y9620000D03*
%TO.P,,5V*%
X7620000Y9620000D03*
%TO.P,,D4*%
X-7620000Y-540000D03*
%TO.P,,D1*%
X-7620000Y7080000D03*
D13*
%TO.P,,Pin_8*%
X-11430000Y-4423800D03*
%TO.P,,Pin_11*%
X-11430000Y-12043800D03*
%TO.P,,Pin_9*%
X-11430000Y-6963800D03*
%TO.P,,Pin_4*%
X-11430000Y5736200D03*
%TO.P,,Pin_5*%
X-11430000Y3196200D03*
%TO.P,,Pin_2*%
X-11430000Y10816200D03*
%TO.P,,Pin_12*%
X-11430000Y-14583800D03*
%TO.P,,Pin_6*%
X-11430000Y656200D03*
%TO.P,,Pin_3*%
X-11430000Y8276200D03*
%TO.P,,Pin_10*%
X-11430000Y-9503800D03*
%TO.P,,Pin_13*%
X-11430000Y-17123800D03*
%TO.P,,Pin_7*%
X-11430000Y-1883800D03*
D14*
%TO.P,,Pin_1*%
X-11430000Y13356200D03*
D13*
%TO.P,,Pin_8*%
X11430000Y-4423800D03*
%TO.P,,Pin_11*%
X11430000Y-12043800D03*
%TO.P,,Pin_9*%
X11430000Y-6963800D03*
%TO.P,,Pin_4*%
X11430000Y5736200D03*
%TO.P,,Pin_5*%
X11430000Y3196200D03*
%TO.P,,Pin_2*%
X11430000Y10816200D03*
%TO.P,,Pin_12*%
X11430000Y-14583800D03*
%TO.P,,Pin_6*%
X11430000Y656200D03*
%TO.P,,Pin_3*%
X11430000Y8276200D03*
%TO.P,,Pin_10*%
X11430000Y-9503800D03*
%TO.P,,Pin_13*%
X11430000Y-17123800D03*
%TO.P,,Pin_7*%
X11430000Y-1883800D03*
D14*
%TO.P,,Pin_1*%
X11430000Y13356200D03*
D15*
%TO.P,,5cec7741-df0d-4e58-be1f-8e526f2aee50.throughHole.0-0*%
%TO.N,Net 8*%
X-1773700Y-5961800D03*
%TO.P,,cc6788e1-2f74-400e-a0eb-2b6e1f5e0c07.throughHole.0-0*%
%TO.N,Net 19*%
X-6383500Y730000D03*
%TO.P,,63698d3d-326b-4d33-9961-7bf11d6fa8f3.throughHole.0-0*%
%TO.N,Net 22*%
X6659300Y-9543400D03*
%TO.P,,34d7d47a-d4e9-4c6a-83db-4c793760fab1.throughHole.0-0*%
%TO.N,Net 7*%
X-3783800Y-3080000D03*
%TO.P,,9e3ea10a-bae8-4f7d-b2a2-1f028199cc09.via.stitch.85*%
%TO.N,GND*%
X-8500000Y-9500000D03*
%TO.P,,9e3ea10a-bae8-4f7d-b2a2-1f028199cc09.via.stitch.84*%
X-8880600Y-14012000D03*
%TO.P,,9e3ea10a-bae8-4f7d-b2a2-1f028199cc09.via.stitch.83*%
X-500000Y-11500000D03*
%TO.P,,9e3ea10a-bae8-4f7d-b2a2-1f028199cc09.via.stitch.82*%
X-2500000Y-11500000D03*
%TO.P,,9e3ea10a-bae8-4f7d-b2a2-1f028199cc09.via.stitch.81*%
X1500000Y-13500000D03*
%TO.P,,9e3ea10a-bae8-4f7d-b2a2-1f028199cc09.via.stitch.80*%
X-500000Y-13500000D03*
%TO.P,,9e3ea10a-bae8-4f7d-b2a2-1f028199cc09.via.stitch.79*%
X-2500000Y-13500000D03*
%TO.P,,9e3ea10a-bae8-4f7d-b2a2-1f028199cc09.via.stitch.78*%
X-4500000Y-13500000D03*
%TO.P,,9e3ea10a-bae8-4f7d-b2a2-1f028199cc09.via.stitch.77*%
X3500000Y-15500000D03*
%TO.P,,9e3ea10a-bae8-4f7d-b2a2-1f028199cc09.via.stitch.76*%
X1500000Y-15500000D03*
%TO.P,,9e3ea10a-bae8-4f7d-b2a2-1f028199cc09.via.stitch.75*%
X-500000Y-15500000D03*
%TO.P,,9e3ea10a-bae8-4f7d-b2a2-1f028199cc09.via.stitch.74*%
X-2500000Y-15500000D03*
%TO.P,,9e3ea10a-bae8-4f7d-b2a2-1f028199cc09.via.stitch.73*%
X-4500000Y-15500000D03*
%TO.P,,9e3ea10a-bae8-4f7d-b2a2-1f028199cc09.via.stitch.72*%
X-6500000Y-15500000D03*
%TO.P,,9e3ea10a-bae8-4f7d-b2a2-1f028199cc09.via.stitch.71*%
X9500000Y-17500000D03*
%TO.P,,9e3ea10a-bae8-4f7d-b2a2-1f028199cc09.via.stitch.70*%
X7500000Y-17500000D03*
%TO.P,,9e3ea10a-bae8-4f7d-b2a2-1f028199cc09.via.stitch.69*%
X5500000Y-17500000D03*
%TO.P,,9e3ea10a-bae8-4f7d-b2a2-1f028199cc09.via.stitch.68*%
X3500000Y-17500000D03*
%TO.P,,9e3ea10a-bae8-4f7d-b2a2-1f028199cc09.via.stitch.67*%
X1500000Y-17500000D03*
%TO.P,,9e3ea10a-bae8-4f7d-b2a2-1f028199cc09.via.stitch.66*%
X-500000Y-17500000D03*
%TO.P,,9e3ea10a-bae8-4f7d-b2a2-1f028199cc09.via.stitch.65*%
X-2500000Y-17500000D03*
%TO.P,,9e3ea10a-bae8-4f7d-b2a2-1f028199cc09.via.stitch.64*%
X-4500000Y-17500000D03*
%TO.P,,9e3ea10a-bae8-4f7d-b2a2-1f028199cc09.via.stitch.63*%
X-6500000Y-17500000D03*
%TO.P,,9e3ea10a-bae8-4f7d-b2a2-1f028199cc09.via.stitch.62*%
X-8500000Y-17500000D03*
%TO.P,,9e3ea10a-bae8-4f7d-b2a2-1f028199cc09.via.stitch.61*%
X9500000Y-7500000D03*
%TO.P,,9e3ea10a-bae8-4f7d-b2a2-1f028199cc09.via.stitch.60*%
X9909100Y-10774500D03*
%TO.P,,9e3ea10a-bae8-4f7d-b2a2-1f028199cc09.via.stitch.59*%
X9500000Y14500000D03*
%TO.P,,9e3ea10a-bae8-4f7d-b2a2-1f028199cc09.via.stitch.58*%
X7500000Y14500000D03*
%TO.P,,9e3ea10a-bae8-4f7d-b2a2-1f028199cc09.via.stitch.57*%
X5500000Y14500000D03*
%TO.P,,9e3ea10a-bae8-4f7d-b2a2-1f028199cc09.via.stitch.56*%
X3500000Y14500000D03*
%TO.P,,9e3ea10a-bae8-4f7d-b2a2-1f028199cc09.via.stitch.55*%
X1500000Y14500000D03*
%TO.P,,9e3ea10a-bae8-4f7d-b2a2-1f028199cc09.via.stitch.54*%
X-500000Y14500000D03*
%TO.P,,9e3ea10a-bae8-4f7d-b2a2-1f028199cc09.via.stitch.53*%
X-2500000Y14500000D03*
%TO.P,,9e3ea10a-bae8-4f7d-b2a2-1f028199cc09.via.stitch.52*%
X-4500000Y14500000D03*
%TO.P,,9e3ea10a-bae8-4f7d-b2a2-1f028199cc09.via.stitch.51*%
X-6500000Y14500000D03*
%TO.P,,9e3ea10a-bae8-4f7d-b2a2-1f028199cc09.via.stitch.50*%
X-8500000Y14500000D03*
%TO.P,,9e3ea10a-bae8-4f7d-b2a2-1f028199cc09.via.stitch.49*%
X7500000Y12500000D03*
%TO.P,,9e3ea10a-bae8-4f7d-b2a2-1f028199cc09.via.stitch.48*%
X5500000Y12500000D03*
%TO.P,,9e3ea10a-bae8-4f7d-b2a2-1f028199cc09.via.stitch.47*%
X3500000Y12500000D03*
%TO.P,,9e3ea10a-bae8-4f7d-b2a2-1f028199cc09.via.stitch.46*%
X1500000Y12500000D03*
%TO.P,,9e3ea10a-bae8-4f7d-b2a2-1f028199cc09.via.stitch.45*%
X-500000Y12500000D03*
%TO.P,,9e3ea10a-bae8-4f7d-b2a2-1f028199cc09.via.stitch.44*%
X-2500000Y12500000D03*
%TO.P,,9e3ea10a-bae8-4f7d-b2a2-1f028199cc09.via.stitch.43*%
X-4500000Y12500000D03*
%TO.P,,9e3ea10a-bae8-4f7d-b2a2-1f028199cc09.via.stitch.42*%
X-6500000Y12500000D03*
%TO.P,,9e3ea10a-bae8-4f7d-b2a2-1f028199cc09.via.stitch.41*%
X-8500000Y12500000D03*
%TO.P,,9e3ea10a-bae8-4f7d-b2a2-1f028199cc09.via.stitch.40*%
X5500000Y10500000D03*
%TO.P,,9e3ea10a-bae8-4f7d-b2a2-1f028199cc09.via.stitch.39*%
X3500000Y10500000D03*
%TO.P,,9e3ea10a-bae8-4f7d-b2a2-1f028199cc09.via.stitch.38*%
X1500000Y10500000D03*
%TO.P,,9e3ea10a-bae8-4f7d-b2a2-1f028199cc09.via.stitch.37*%
X-500000Y10500000D03*
%TO.P,,9e3ea10a-bae8-4f7d-b2a2-1f028199cc09.via.stitch.36*%
X-2500000Y10500000D03*
%TO.P,,9e3ea10a-bae8-4f7d-b2a2-1f028199cc09.via.stitch.35*%
X-4500000Y10500000D03*
%TO.P,,9e3ea10a-bae8-4f7d-b2a2-1f028199cc09.via.stitch.34*%
X5500000Y8500000D03*
%TO.P,,9e3ea10a-bae8-4f7d-b2a2-1f028199cc09.via.stitch.33*%
X3500000Y8500000D03*
%TO.P,,9e3ea10a-bae8-4f7d-b2a2-1f028199cc09.via.stitch.32*%
X1500000Y8500000D03*
%TO.P,,9e3ea10a-bae8-4f7d-b2a2-1f028199cc09.via.stitch.31*%
X-500000Y8500000D03*
%TO.P,,9e3ea10a-bae8-4f7d-b2a2-1f028199cc09.via.stitch.30*%
X-2500000Y8500000D03*
%TO.P,,9e3ea10a-bae8-4f7d-b2a2-1f028199cc09.via.stitch.29*%
X-4500000Y8500000D03*
%TO.P,,9e3ea10a-bae8-4f7d-b2a2-1f028199cc09.via.stitch.28*%
X5500000Y6500000D03*
%TO.P,,9e3ea10a-bae8-4f7d-b2a2-1f028199cc09.via.stitch.27*%
X3500000Y6500000D03*
%TO.P,,9e3ea10a-bae8-4f7d-b2a2-1f028199cc09.via.stitch.26*%
X1500000Y6500000D03*
%TO.P,,9e3ea10a-bae8-4f7d-b2a2-1f028199cc09.via.stitch.25*%
X-500000Y6500000D03*
%TO.P,,9e3ea10a-bae8-4f7d-b2a2-1f028199cc09.via.stitch.24*%
X-2500000Y6500000D03*
%TO.P,,9e3ea10a-bae8-4f7d-b2a2-1f028199cc09.via.stitch.23*%
X-4500000Y6500000D03*
%TO.P,,9e3ea10a-bae8-4f7d-b2a2-1f028199cc09.via.stitch.22*%
X5500000Y4500000D03*
%TO.P,,9e3ea10a-bae8-4f7d-b2a2-1f028199cc09.via.stitch.21*%
X3500000Y4500000D03*
%TO.P,,9e3ea10a-bae8-4f7d-b2a2-1f028199cc09.via.stitch.20*%
X1500000Y4500000D03*
%TO.P,,9e3ea10a-bae8-4f7d-b2a2-1f028199cc09.via.stitch.19*%
X-500000Y4500000D03*
%TO.P,,9e3ea10a-bae8-4f7d-b2a2-1f028199cc09.via.stitch.18*%
X-2500000Y4500000D03*
%TO.P,,9e3ea10a-bae8-4f7d-b2a2-1f028199cc09.via.stitch.17*%
X-4500000Y4500000D03*
%TO.P,,9e3ea10a-bae8-4f7d-b2a2-1f028199cc09.via.stitch.16*%
X5500000Y2500000D03*
%TO.P,,9e3ea10a-bae8-4f7d-b2a2-1f028199cc09.via.stitch.15*%
X3500000Y2500000D03*
%TO.P,,9e3ea10a-bae8-4f7d-b2a2-1f028199cc09.via.stitch.14*%
X1500000Y2500000D03*
%TO.P,,9e3ea10a-bae8-4f7d-b2a2-1f028199cc09.via.stitch.13*%
X-500000Y2500000D03*
%TO.P,,9e3ea10a-bae8-4f7d-b2a2-1f028199cc09.via.stitch.12*%
X-2500000Y2500000D03*
%TO.P,,9e3ea10a-bae8-4f7d-b2a2-1f028199cc09.via.stitch.11*%
X-4500000Y2500000D03*
%TO.P,,9e3ea10a-bae8-4f7d-b2a2-1f028199cc09.via.stitch.10*%
X5500000Y500000D03*
%TO.P,,9e3ea10a-bae8-4f7d-b2a2-1f028199cc09.via.stitch.9*%
X3500000Y500000D03*
%TO.P,,9e3ea10a-bae8-4f7d-b2a2-1f028199cc09.via.stitch.8*%
X-2500000Y500000D03*
%TO.P,,9e3ea10a-bae8-4f7d-b2a2-1f028199cc09.via.stitch.7*%
X-4500000Y500000D03*
%TO.P,,9e3ea10a-bae8-4f7d-b2a2-1f028199cc09.via.stitch.6*%
X5500000Y-1500000D03*
%TO.P,,9e3ea10a-bae8-4f7d-b2a2-1f028199cc09.via.stitch.5*%
X3500000Y-1500000D03*
%TO.P,,9e3ea10a-bae8-4f7d-b2a2-1f028199cc09.via.stitch.4*%
X-2500000Y-1500000D03*
%TO.P,,9e3ea10a-bae8-4f7d-b2a2-1f028199cc09.via.stitch.3*%
X5500000Y-3500000D03*
%TO.P,,9e3ea10a-bae8-4f7d-b2a2-1f028199cc09.via.stitch.2*%
X3500000Y-3500000D03*
%TO.P,,9e3ea10a-bae8-4f7d-b2a2-1f028199cc09.via.stitch.1*%
X3500000Y-5500000D03*
%TO.P,,9e3ea10a-bae8-4f7d-b2a2-1f028199cc09.via.stitch.0*%
X3500000Y-7500000D03*
%TO.P,,1224965a-0004-4c30-afbb-87cecafa3a9b.throughHole.0-0*%
%TO.N,Net 6*%
X-5568600Y-540000D03*
%TO.P,,b1dacd5e-a22e-4ca8-b1eb-7b7fc03cb02e.throughHole.0-0*%
%TO.N,Net 20*%
X-4834800Y-1883800D03*
%TO.P,,0a5f74fc-a8b5-406b-8929-1fd92e2176a7.throughHole.0-0*%
%TO.N,Net 21*%
X-2856600Y-4350000D03*
%TD*%
D16*
%TO.N,Net 8*%
X-1773700Y-5961800D02*
X-1773700Y-8926800D01*
X-8069800Y-15222900D02*
X-1773700Y-8926800D01*
X-8069800Y-15222900D02*
X-9529200Y-15222900D01*
X-9529200Y-15223000D02*
X-11430000Y-17123800D01*
%TO.N,Net 5*%
X-9228400Y2000000D02*
X-10086200Y1142200D01*
X-11430000Y-1883800D02*
X-11430000Y-1182200D01*
X-11430000Y-1182200D02*
X-10086200Y161600D01*
X-10086200Y1142200D02*
X-10086200Y161600D01*
X-7620000Y2000000D02*
X-9228400Y2000000D01*
%TO.N,Net 19*%
X-6383500Y-1375400D02*
X-6818100Y-1810000D01*
X-6818000Y-1810000D02*
X-8816200Y-1810000D01*
X-6383500Y730000D02*
X-6383500Y-1375400D01*
X-8816200Y-1810000D02*
X-11430000Y-4423800D01*
%TO.N,Net 22*%
X11430000Y-9503800D02*
X6659300Y-9543400D01*
X11430000Y-9503800D02*
X11430200Y-9503600D01*
%TO.N,Net 7*%
X-10567000Y-11180800D02*
X-11430000Y-12043800D01*
X-3783800Y-3080000D02*
X-3783800Y-6725400D01*
X-8239200Y-11180800D02*
X-10567000Y-11180800D01*
X-8239200Y-11180800D02*
X-3783800Y-6725400D01*
%TO.N,Net 6*%
X-6362500Y-4263200D02*
X-5568600Y-3469300D01*
X-5568600Y-540000D02*
X-5568600Y-3469300D01*
X-11430000Y-6963800D02*
X-11430000Y-6334200D01*
X-6362500Y-4263200D02*
X-9359000Y-4263200D01*
X-11430000Y-6334200D02*
X-9359000Y-4263200D01*
%TO.N,Net 20*%
X-4834800Y-1883800D02*
X-4834800Y-5768700D01*
X-9631000Y-7704800D02*
X-11430000Y-9503800D01*
X-6770900Y-7704800D02*
X-4834800Y-5768700D01*
X-9177800Y-7704800D02*
X-6770900Y-7704800D01*
X-9177800Y-7704800D02*
X-9631000Y-7704800D01*
%TO.N,Net 21*%
X-7620000Y-12800800D02*
X-9647000Y-12800800D01*
X-2856600Y-8037300D02*
X-7620000Y-12800700D01*
X-9647000Y-12800800D02*
X-11430000Y-14583800D01*
X-2856600Y-4350000D02*
X-2856600Y-8037400D01*
%TO.N,Net 10*%
X7620000Y-3080000D02*
X9412200Y-3080000D01*
X9412200Y-3080000D02*
X10015000Y-3682800D01*
X10015000Y-5548800D02*
X10015000Y-3682800D01*
X10015000Y-5548800D02*
X11430000Y-6963800D01*
%TD*%
%TA.AperFunction,Conductor*%
%TO.N,GND*%
G36*
X-7662000Y-13428000D02*
G01*
X-7574000Y-13428000D01*
X-7565000Y-13427000D01*
X-7563000Y-13427000D01*
X-7553000Y-13426000D01*
X-7426000Y-13419000D01*
X-7342000Y-13607000D01*
X-8308000Y-14573000D01*
X-8363000Y-14596000D01*
X-9438000Y-14596000D01*
X-9447000Y-14595000D01*
X-9488000Y-14596000D01*
X-9575000Y-14596000D01*
X-9583000Y-14597000D01*
X-9583000Y-14596000D01*
X-9592000Y-14598000D01*
X-9601000Y-14599000D01*
X-9635000Y-14600000D01*
X-9691000Y-14617000D01*
X-9698000Y-14619000D01*
X-9749000Y-14630000D01*
X-9770000Y-14641000D01*
X-9783000Y-14647000D01*
X-9814000Y-14657000D01*
X-9922000Y-14737000D01*
X-10087000Y-14653000D01*
X-10087000Y-14408000D01*
X-10134000Y-14232000D01*
X-10114000Y-14154000D01*
X-9410000Y-13451000D01*
X-9355000Y-13428000D01*
X-7710000Y-13428000D01*
X-7700000Y-13429000D01*
X-7662000Y-13428000D01*
G37*
%TD.AperFunction*%
%TA.AperFunction,Conductor*%
G36*
X-6812000Y-8332000D02*
G01*
X-6727000Y-8332000D01*
X-6717000Y-8331000D01*
X-6715000Y-8331000D01*
X-6702000Y-8329000D01*
X-6666000Y-8328000D01*
X-6551000Y-8308000D01*
X-6449000Y-8503000D01*
X-8478000Y-10531000D01*
X-8533000Y-10554000D01*
X-10313000Y-10554000D01*
X-10399000Y-10404000D01*
X-10181000Y-10027000D01*
X-10180000Y-10026000D01*
X-10087000Y-9680000D01*
X-10087000Y-9330000D01*
X-10134000Y-9152000D01*
X-10114000Y-9074000D01*
X-9394000Y-8355000D01*
X-9339000Y-8332000D01*
X-6860000Y-8332000D01*
X-6850000Y-8333000D01*
X-6812000Y-8332000D01*
G37*
%TD.AperFunction*%
%TA.AperFunction,Conductor*%
G36*
X10355000Y-17947000D02*
G01*
X10607000Y-18199000D01*
X10909000Y-18374000D01*
X11254000Y-18467000D01*
X11606000Y-18467000D01*
X11949000Y-18375000D01*
X12099000Y-18288000D01*
X12250000Y-18374000D01*
X12250000Y-18505000D01*
X12249000Y-18528000D01*
X12248000Y-18561000D01*
X12247000Y-18567000D01*
X12246000Y-18580000D01*
X12246000Y-18583000D01*
X12242000Y-18605000D01*
X12238000Y-18635000D01*
X12237000Y-18640000D01*
X12229000Y-18675000D01*
X12229000Y-18677000D01*
X12222000Y-18703000D01*
X12219000Y-18713000D01*
X12217000Y-18718000D01*
X12208000Y-18745000D01*
X12208000Y-18747000D01*
X12201000Y-18768000D01*
X12200000Y-18768000D01*
X12198000Y-18775000D01*
X12196000Y-18781000D01*
X12181000Y-18816000D01*
X12179000Y-18819000D01*
X12177000Y-18823000D01*
X12184000Y-18836000D01*
X12122000Y-18918000D01*
X12113000Y-18931000D01*
X12101000Y-18949000D01*
X12078000Y-18978000D01*
X12077000Y-18979000D01*
X12059000Y-19001000D01*
X12000000Y-19060000D01*
X11991000Y-19067000D01*
X11990000Y-19068000D01*
X11979000Y-19077000D01*
X11978000Y-19078000D01*
X11949000Y-19101000D01*
X11931000Y-19113000D01*
X11918000Y-19122000D01*
X11836000Y-19184000D01*
X11823000Y-19177000D01*
X11821000Y-19178000D01*
X11810000Y-19183000D01*
X11809000Y-19183000D01*
X11784000Y-19194000D01*
X11780000Y-19196000D01*
X11770000Y-19200000D01*
X11768000Y-19200000D01*
X11747000Y-19208000D01*
X11745000Y-19208000D01*
X11709000Y-19220000D01*
X11694000Y-19224000D01*
X11693000Y-19225000D01*
X11680000Y-19228000D01*
X11676000Y-19229000D01*
X11641000Y-19237000D01*
X11640000Y-19237000D01*
X11632000Y-19239000D01*
X11627000Y-19239000D01*
X11600000Y-19243000D01*
X11566000Y-19247000D01*
X11558000Y-19248000D01*
X11526000Y-19249000D01*
X11491000Y-19250000D01*
X-11492000Y-19250000D01*
X-11526000Y-19249000D01*
X-11559000Y-19248000D01*
X-11565000Y-19247000D01*
X-11600000Y-19243000D01*
X-11626000Y-19240000D01*
X-11632000Y-19239000D01*
X-11640000Y-19237000D01*
X-11641000Y-19237000D01*
X-11676000Y-19229000D01*
X-11680000Y-19228000D01*
X-11693000Y-19225000D01*
X-11694000Y-19224000D01*
X-11709000Y-19220000D01*
X-11745000Y-19208000D01*
X-11747000Y-19208000D01*
X-11768000Y-19200000D01*
X-11770000Y-19200000D01*
X-11780000Y-19196000D01*
X-11784000Y-19194000D01*
X-11810000Y-19183000D01*
X-11822000Y-19177000D01*
X-11836000Y-19184000D01*
X-11918000Y-19122000D01*
X-11931000Y-19113000D01*
X-11949000Y-19101000D01*
X-11978000Y-19078000D01*
X-11979000Y-19077000D01*
X-12001000Y-19059000D01*
X-12060000Y-19000000D01*
X-12083000Y-18972000D01*
X-12085000Y-18970000D01*
X-12102000Y-18948000D01*
X-12107000Y-18940000D01*
X-12113000Y-18931000D01*
X-12122000Y-18918000D01*
X-12184000Y-18836000D01*
X-12177000Y-18823000D01*
X-12179000Y-18819000D01*
X-12181000Y-18816000D01*
X-12195000Y-18782000D01*
X-12197000Y-18778000D01*
X-12204000Y-18759000D01*
X-12205000Y-18757000D01*
X-12213000Y-18733000D01*
X-12213000Y-18731000D01*
X-12227000Y-18687000D01*
X-12227000Y-18684000D01*
X-12229000Y-18681000D01*
X-12238000Y-18637000D01*
X-12238000Y-18633000D01*
X-12243000Y-18601000D01*
X-12247000Y-18566000D01*
X-12248000Y-18558000D01*
X-12249000Y-18526000D01*
X-12250000Y-18491000D01*
X-12250000Y-18374000D01*
X-12099000Y-18288000D01*
X-11949000Y-18375000D01*
X-11606000Y-18467000D01*
X-11254000Y-18467000D01*
X-10908000Y-18374000D01*
X-10909000Y-18374000D01*
X-10607000Y-18199000D01*
X-10355000Y-17947000D01*
X-10180000Y-17645000D01*
X-10087000Y-17300000D01*
X-10087000Y-16948000D01*
X-10134000Y-16772000D01*
X-10114000Y-16694000D01*
X-9292000Y-15873000D01*
X-9237000Y-15850000D01*
X-8160000Y-15850000D01*
X-8150000Y-15851000D01*
X-8112000Y-15850000D01*
X-8025000Y-15850000D01*
X-8017000Y-15849000D01*
X-8017000Y-15850000D01*
X-8008000Y-15848000D01*
X-7999000Y-15847000D01*
X-7965000Y-15846000D01*
X-7909000Y-15829000D01*
X-7902000Y-15827000D01*
X-7851000Y-15816000D01*
X-7830000Y-15805000D01*
X-7817000Y-15799000D01*
X-7785000Y-15789000D01*
X-7786000Y-15789000D01*
X-7737000Y-15753000D01*
X-7728000Y-15748000D01*
X-7673000Y-15717000D01*
X-7630000Y-15670000D01*
X-7627000Y-15667000D01*
X-1296000Y-9337000D01*
X-1294000Y-9333000D01*
X-1281000Y-9316000D01*
X-1256000Y-9291000D01*
X-1234000Y-9246000D01*
X-1230000Y-9239000D01*
X-1198000Y-9189000D01*
X-1197000Y-9186000D01*
X-1189000Y-9156000D01*
X-1183000Y-9140000D01*
X-1172000Y-9118000D01*
X-1162000Y-9055000D01*
X-1160000Y-9047000D01*
X-1145000Y-8992000D01*
X-1147000Y-8949000D01*
X-1147000Y-6492000D01*
X-1137000Y-6454000D01*
X-1033000Y-6276000D01*
X-976000Y-6066000D01*
X-976000Y-5858000D01*
X-1033000Y-5652000D01*
X-1136000Y-5472000D01*
X-1284000Y-5324000D01*
X-1464000Y-5221000D01*
X-1463000Y-5221000D01*
X-1670000Y-5164000D01*
X-1879000Y-5164000D01*
X-2112000Y-5227000D01*
X-2230000Y-5137000D01*
X-2230000Y-4878000D01*
X-2219000Y-4839000D01*
X-2114000Y-4662000D01*
X-2114000Y-4660000D01*
X-2059000Y-4455000D01*
X-2059000Y-4178000D01*
X-1866000Y-4104000D01*
X-1736000Y-4249000D01*
X-1669000Y-4307000D01*
X-1666000Y-4309000D01*
X-1586000Y-4365000D01*
X-1577000Y-4370000D01*
X-1488000Y-4414000D01*
X-1487000Y-4414000D01*
X-1381000Y-4451000D01*
X-1287000Y-4469000D01*
X-1285000Y-4469000D01*
X-1193000Y-4476000D01*
X-762000Y-4476000D01*
X-671000Y-4469000D01*
X-670000Y-4469000D01*
X-670000Y-4470000D01*
X-577000Y-4452000D01*
X-572000Y-4451000D01*
X-464000Y-4413000D01*
X-381000Y-4373000D01*
X-292000Y-4314000D01*
X-291000Y-4313000D01*
X-212000Y-4243000D01*
X-140000Y-4162000D01*
X-83000Y-4074000D01*
X78000Y-4072000D01*
X139000Y-4162000D01*
X211000Y-4243000D01*
X289000Y-4312000D01*
X291000Y-4314000D01*
X380000Y-4373000D01*
X463000Y-4413000D01*
X571000Y-4451000D01*
X576000Y-4452000D01*
X669000Y-4470000D01*
X669000Y-4469000D01*
X670000Y-4469000D01*
X761000Y-4476000D01*
X1191000Y-4476000D01*
X1282000Y-4469000D01*
X1283000Y-4469000D01*
X1283000Y-4470000D01*
X1376000Y-4452000D01*
X1381000Y-4451000D01*
X1489000Y-4413000D01*
X1572000Y-4373000D01*
X1661000Y-4314000D01*
X1662000Y-4313000D01*
X1741000Y-4243000D01*
X1813000Y-4162000D01*
X1872000Y-4074000D01*
X1913000Y-3989000D01*
X1949000Y-3887000D01*
X1952000Y-3876000D01*
X1970000Y-3783000D01*
X1969000Y-3783000D01*
X1969000Y-3782000D01*
X1976000Y-3691000D01*
X1976000Y-2261000D01*
X1970000Y-2177000D01*
X1969000Y-2169000D01*
X1970000Y-2169000D01*
X1952000Y-2076000D01*
X1952000Y-2075000D01*
X1913000Y-1963000D01*
X1873000Y-1880000D01*
X1813000Y-1790000D01*
X1742000Y-1710000D01*
X1663000Y-1640000D01*
X1662000Y-1639000D01*
X1574000Y-1580000D01*
X1489000Y-1539000D01*
X1383000Y-1502000D01*
X1376000Y-1500000D01*
X1283000Y-1482000D01*
X1283000Y-1483000D01*
X1282000Y-1483000D01*
X1191000Y-1476000D01*
X761000Y-1476000D01*
X670000Y-1483000D01*
X669000Y-1483000D01*
X669000Y-1482000D01*
X576000Y-1500000D01*
X569000Y-1502000D01*
X463000Y-1539000D01*
X378000Y-1580000D01*
X290000Y-1639000D01*
X289000Y-1640000D01*
X210000Y-1710000D01*
X139000Y-1790000D01*
X137000Y-1793000D01*
X78000Y-1880000D01*
X-83000Y-1878000D01*
X-140000Y-1790000D01*
X-211000Y-1710000D01*
X-290000Y-1640000D01*
X-291000Y-1639000D01*
X-379000Y-1580000D01*
X-464000Y-1539000D01*
X-570000Y-1502000D01*
X-577000Y-1500000D01*
X-670000Y-1482000D01*
X-670000Y-1483000D01*
X-671000Y-1483000D01*
X-762000Y-1476000D01*
X-1193000Y-1476000D01*
X-1285000Y-1483000D01*
X-1287000Y-1483000D01*
X-1381000Y-1501000D01*
X-1487000Y-1538000D01*
X-1488000Y-1538000D01*
X-1581000Y-1584000D01*
X-1586000Y-1587000D01*
X-1666000Y-1643000D01*
X-1670000Y-1646000D01*
X-1737000Y-1704000D01*
X-1740000Y-1707000D01*
X-1814000Y-1790000D01*
X-1874000Y-1880000D01*
X-1914000Y-1963000D01*
X-1953000Y-2075000D01*
X-1953000Y-2076000D01*
X-1971000Y-2169000D01*
X-1970000Y-2169000D01*
X-1971000Y-2177000D01*
X-1977000Y-2261000D01*
X-1977000Y-3692000D01*
X-1967000Y-3836000D01*
X-2156000Y-3923000D01*
X-2367000Y-3712000D01*
X-2549000Y-3608000D01*
X-2548000Y-3608000D01*
X-2754000Y-3553000D01*
X-2964000Y-3553000D01*
X-3054000Y-3435000D01*
X-2986000Y-3184000D01*
X-2986000Y-2976000D01*
X-3043000Y-2770000D01*
X-3145000Y-2591000D01*
X-3294000Y-2442000D01*
X-3481000Y-2335000D01*
X-3678000Y-2283000D01*
X-3889000Y-2283000D01*
X-3975000Y-2301000D01*
X-4089000Y-2178000D01*
X-4037000Y-1988000D01*
X-4037000Y-1781000D01*
X-4094000Y-1574000D01*
X-4195000Y-1397000D01*
X-4197000Y-1394000D01*
X-4345000Y-1246000D01*
X-4525000Y-1143000D01*
X-4524000Y-1143000D01*
X-4738000Y-1084000D01*
X-4808000Y-1070000D01*
X-4872000Y-928000D01*
X-4827000Y-854000D01*
X-4826000Y-850000D01*
X-4771000Y-645000D01*
X-4771000Y-435000D01*
X-4826000Y-230000D01*
X-4826000Y-229000D01*
X-4934000Y-48000D01*
X-4933000Y-48000D01*
X-5079000Y98000D01*
X-5168250Y149000D01*
X629000Y149000D01*
X629000Y61000D01*
X654000Y-30000D01*
X655000Y-33000D01*
X699000Y-109000D01*
X762000Y-172000D01*
X841000Y-217000D01*
X842000Y-218000D01*
X932000Y-242000D01*
X1020000Y-242000D01*
X1110000Y-218000D01*
X1111000Y-217000D01*
X1190000Y-172000D01*
X1253000Y-109000D01*
X1297000Y-33000D01*
X1298000Y-30000D01*
X1323000Y61000D01*
X1323000Y149000D01*
X1299000Y239000D01*
X1298000Y240000D01*
X1253000Y319000D01*
X1190000Y382000D01*
X1111000Y427000D01*
X1110000Y428000D01*
X1020000Y452000D01*
X932000Y452000D01*
X842000Y428000D01*
X841000Y427000D01*
X762000Y382000D01*
X699000Y319000D01*
X654000Y240000D01*
X653000Y239000D01*
X629000Y149000D01*
X-5168250Y149000D01*
X-5261000Y202000D01*
X-5260000Y202000D01*
X-5466000Y257000D01*
X-5562000Y257000D01*
X-5652000Y374000D01*
X-5586000Y624000D01*
X-5586000Y836000D01*
X-5638000Y1033000D01*
X-5745000Y1220000D01*
X-5746000Y1221000D01*
X-5895000Y1369000D01*
X-5898000Y1371000D01*
X-6073000Y1471000D01*
X-6075000Y1472000D01*
X-6315000Y1536000D01*
X-6377000Y1643000D01*
X-6327000Y1831000D01*
X-6327000Y2167000D01*
X-6416000Y2499000D01*
X-6586000Y2795000D01*
X-6825000Y3034000D01*
X-7084000Y3183000D01*
X-7084000Y3357000D01*
X-6825000Y3506000D01*
X-6586000Y3745000D01*
X-6416000Y4041000D01*
X-6327000Y4373000D01*
X-6327000Y4707000D01*
X-6416000Y5039000D01*
X-6586000Y5335000D01*
X-6825000Y5574000D01*
X-7084000Y5723000D01*
X-7084000Y5897000D01*
X-6825000Y6046000D01*
X-6586000Y6285000D01*
X-6416000Y6581000D01*
X-6327000Y6913000D01*
X-6327000Y7143000D01*
X7124000Y7143000D01*
X7124000Y7017000D01*
X7159000Y6888000D01*
X7224000Y6775000D01*
X7315000Y6684000D01*
X7428000Y6619000D01*
X7557000Y6584000D01*
X7683000Y6584000D01*
X7813000Y6619000D01*
X7812000Y6619000D01*
X7925000Y6684000D01*
X8016000Y6775000D01*
X8081000Y6888000D01*
X8116000Y7017000D01*
X8116000Y7143000D01*
X8081000Y7272000D01*
X8016000Y7385000D01*
X7925000Y7476000D01*
X7812000Y7541000D01*
X7813000Y7541000D01*
X7683000Y7576000D01*
X7557000Y7576000D01*
X7428000Y7541000D01*
X7315000Y7476000D01*
X7224000Y7385000D01*
X7159000Y7272000D01*
X7124000Y7143000D01*
X-6327000Y7143000D01*
X-6327000Y7247000D01*
X-6416000Y7579000D01*
X-6586000Y7875000D01*
X-6825000Y8114000D01*
X-7084000Y8263000D01*
X-7084000Y8437000D01*
X-6825000Y8586000D01*
X-6586000Y8825000D01*
X-6416000Y9121000D01*
X-6327000Y9453000D01*
X-6327000Y9787000D01*
X6327000Y9787000D01*
X6327000Y9453000D01*
X6416000Y9121000D01*
X6586000Y8825000D01*
X6825000Y8586000D01*
X7121000Y8416000D01*
X7453000Y8327000D01*
X7787000Y8327000D01*
X8120000Y8416000D01*
X8119000Y8416000D01*
X8415000Y8586000D01*
X8654000Y8825000D01*
X8824000Y9121000D01*
X8913000Y9453000D01*
X8913000Y9787000D01*
X8824000Y10119000D01*
X8654000Y10415000D01*
X8415000Y10654000D01*
X8119000Y10824000D01*
X8120000Y10824000D01*
X7787000Y10913000D01*
X7453000Y10913000D01*
X7121000Y10824000D01*
X6825000Y10654000D01*
X6586000Y10415000D01*
X6416000Y10119000D01*
X6327000Y9787000D01*
X-6327000Y9787000D01*
X-6416000Y10119000D01*
X-6586000Y10415000D01*
X-6825000Y10654000D01*
X-7121000Y10824000D01*
X-7120000Y10824000D01*
X-7453000Y10913000D01*
X-7787000Y10913000D01*
X-8119000Y10824000D01*
X-8415000Y10654000D01*
X-8654000Y10415000D01*
X-8824000Y10119000D01*
X-8913000Y9787000D01*
X-8913000Y9453000D01*
X-8824000Y9121000D01*
X-8654000Y8825000D01*
X-8415000Y8586000D01*
X-8156000Y8437000D01*
X-8156000Y8263000D01*
X-8415000Y8114000D01*
X-8654000Y7875000D01*
X-8824000Y7579000D01*
X-8913000Y7247000D01*
X-8913000Y6913000D01*
X-8824000Y6581000D01*
X-8654000Y6285000D01*
X-8415000Y6046000D01*
X-8156000Y5897000D01*
X-8156000Y5723000D01*
X-8415000Y5574000D01*
X-8654000Y5335000D01*
X-8824000Y5039000D01*
X-8913000Y4707000D01*
X-8913000Y4373000D01*
X-8824000Y4041000D01*
X-8654000Y3745000D01*
X-8415000Y3506000D01*
X-8156000Y3357000D01*
X-8156000Y3183000D01*
X-8415000Y3034000D01*
X-8654000Y2795000D01*
X-8728000Y2667000D01*
X-8798000Y2627000D01*
X-9136000Y2627000D01*
X-9145000Y2628000D01*
X-9186000Y2627000D01*
X-9273000Y2627000D01*
X-9281000Y2626000D01*
X-9281000Y2627000D01*
X-9290000Y2625000D01*
X-9299000Y2624000D01*
X-9333000Y2623000D01*
X-9389000Y2606000D01*
X-9396000Y2604000D01*
X-9447000Y2593000D01*
X-9468000Y2582000D01*
X-9481000Y2576000D01*
X-9512000Y2566000D01*
X-9561000Y2530000D01*
X-9570000Y2525000D01*
X-9625000Y2494000D01*
X-9668000Y2447000D01*
X-10433000Y1682000D01*
X-10557000Y1682000D01*
X-10606000Y1731000D01*
X-10794000Y1839000D01*
X-10794000Y2012000D01*
X-10607000Y2121000D01*
X-10355000Y2373000D01*
X-10180000Y2675000D01*
X-10087000Y3020000D01*
X-10087000Y3372000D01*
X-10180000Y3716000D01*
X-10357000Y4022000D01*
X-10606000Y4271000D01*
X-10794000Y4379000D01*
X-10794000Y4552000D01*
X-10607000Y4661000D01*
X-10355000Y4913000D01*
X-10180000Y5215000D01*
X-10087000Y5560000D01*
X-10087000Y5912000D01*
X-10180000Y6256000D01*
X-10357000Y6562000D01*
X-10606000Y6811000D01*
X-10794000Y6919000D01*
X-10794000Y7092000D01*
X-10607000Y7201000D01*
X-10355000Y7453000D01*
X-10180000Y7755000D01*
X-10087000Y8100000D01*
X-10087000Y8452000D01*
X-10180000Y8796000D01*
X-10357000Y9102000D01*
X-10606000Y9351000D01*
X-10794000Y9459000D01*
X-10794000Y9632000D01*
X-10607000Y9741000D01*
X-10355000Y9993000D01*
X-10180000Y10295000D01*
X-10087000Y10640000D01*
X-10087000Y10992000D01*
X-10180000Y11336000D01*
X-10357000Y11642000D01*
X-10536000Y11821000D01*
X-10459000Y12006000D01*
X-10080000Y12006000D01*
X-10080000Y14706000D01*
X-12073000Y14706000D01*
X-12158000Y14864000D01*
X-12104000Y14944000D01*
X-12101000Y14949000D01*
X-12085000Y14970000D01*
X-12083000Y14972000D01*
X-12060000Y15000000D01*
X-12001000Y15059000D01*
X-11979000Y15077000D01*
X-11977000Y15078000D01*
X-11952000Y15098000D01*
X-11950000Y15100000D01*
X-11941000Y15106000D01*
X-11940000Y15107000D01*
X-11918000Y15122000D01*
X-11836000Y15184000D01*
X-11823000Y15177000D01*
X-11815000Y15181000D01*
X-11786000Y15193000D01*
X-11784000Y15194000D01*
X-11772000Y15199000D01*
X-11769000Y15200000D01*
X-11747000Y15208000D01*
X-11745000Y15208000D01*
X-11709000Y15220000D01*
X-11694000Y15224000D01*
X-11693000Y15225000D01*
X-11679000Y15228000D01*
X-11675000Y15229000D01*
X-11649000Y15235000D01*
X-11646000Y15236000D01*
X-11631000Y15239000D01*
X-11600000Y15243000D01*
X-11566000Y15247000D01*
X-11558000Y15248000D01*
X-11526000Y15249000D01*
X-11491000Y15250000D01*
X11492000Y15250000D01*
X11526000Y15249000D01*
X11559000Y15248000D01*
X11565000Y15247000D01*
X11600000Y15243000D01*
X11631000Y15239000D01*
X11645000Y15236000D01*
X11648000Y15235000D01*
X11675000Y15229000D01*
X11679000Y15228000D01*
X11693000Y15225000D01*
X11694000Y15224000D01*
X11709000Y15220000D01*
X11745000Y15208000D01*
X11747000Y15208000D01*
X11769000Y15200000D01*
X11772000Y15199000D01*
X11784000Y15194000D01*
X11786000Y15193000D01*
X11815000Y15181000D01*
X11823000Y15177000D01*
X11836000Y15184000D01*
X11918000Y15122000D01*
X11940000Y15107000D01*
X11941000Y15106000D01*
X11950000Y15100000D01*
X11952000Y15098000D01*
X11977000Y15078000D01*
X11979000Y15077000D01*
X12001000Y15059000D01*
X12060000Y15000000D01*
X12083000Y14972000D01*
X12085000Y14970000D01*
X12101000Y14949000D01*
X12104000Y14944000D01*
X12158000Y14864000D01*
X12073000Y14706000D01*
X10080000Y14706000D01*
X10080000Y12006000D01*
X10459000Y12006000D01*
X10536000Y11821000D01*
X10357000Y11642000D01*
X10180000Y11336000D01*
X10087000Y10992000D01*
X10087000Y10640000D01*
X10180000Y10295000D01*
X10355000Y9993000D01*
X10607000Y9741000D01*
X10794000Y9632000D01*
X10794000Y9459000D01*
X10606000Y9351000D01*
X10357000Y9102000D01*
X10180000Y8796000D01*
X10087000Y8452000D01*
X10087000Y8100000D01*
X10180000Y7755000D01*
X10355000Y7453000D01*
X10607000Y7201000D01*
X10794000Y7092000D01*
X10794000Y6919000D01*
X10606000Y6811000D01*
X10357000Y6562000D01*
X10180000Y6256000D01*
X10087000Y5912000D01*
X10087000Y5560000D01*
X10180000Y5215000D01*
X10355000Y4913000D01*
X10607000Y4661000D01*
X10794000Y4552000D01*
X10794000Y4379000D01*
X10606000Y4271000D01*
X10357000Y4022000D01*
X10180000Y3716000D01*
X10087000Y3372000D01*
X10087000Y3020000D01*
X10180000Y2675000D01*
X10355000Y2373000D01*
X10607000Y2121000D01*
X10794000Y2012000D01*
X10794000Y1839000D01*
X10606000Y1731000D01*
X10357000Y1482000D01*
X10180000Y1176000D01*
X10087000Y832000D01*
X10087000Y480000D01*
X10180000Y135000D01*
X10356000Y-168000D01*
X10607000Y-419000D01*
X10794000Y-528000D01*
X10794000Y-701000D01*
X10606000Y-809000D01*
X10357000Y-1058000D01*
X10179000Y-1366000D01*
X10087000Y-1709000D01*
X10087000Y-2060000D01*
X10180000Y-2405000D01*
X10355000Y-2707000D01*
X10607000Y-2959000D01*
X10794000Y-3068000D01*
X10794000Y-3241000D01*
X10641000Y-3328000D01*
X10544000Y-3318000D01*
X10462000Y-3243000D01*
X10459000Y-3240000D01*
X9822000Y-2602000D01*
X9818000Y-2600000D01*
X9801000Y-2587000D01*
X9776000Y-2562000D01*
X9725000Y-2537000D01*
X9717000Y-2532000D01*
X9671000Y-2503000D01*
X9641000Y-2495000D01*
X9625000Y-2489000D01*
X9602000Y-2477000D01*
X9545000Y-2469000D01*
X9535000Y-2467000D01*
X9477000Y-2451000D01*
X9432000Y-2453000D01*
X8798000Y-2453000D01*
X8728000Y-2413000D01*
X8654000Y-2285000D01*
X8415000Y-2046000D01*
X8156000Y-1897000D01*
X8156000Y-1723000D01*
X8415000Y-1574000D01*
X8654000Y-1335000D01*
X8824000Y-1039000D01*
X8913000Y-707000D01*
X8913000Y-373000D01*
X8824000Y-41000D01*
X8654000Y255000D01*
X8415000Y494000D01*
X8156000Y643000D01*
X8156000Y817000D01*
X8415000Y966000D01*
X8654000Y1205000D01*
X8824000Y1501000D01*
X8913000Y1833000D01*
X8913000Y2167000D01*
X8824000Y2499000D01*
X8654000Y2795000D01*
X8415000Y3034000D01*
X8156000Y3183000D01*
X8156000Y3357000D01*
X8415000Y3506000D01*
X8654000Y3745000D01*
X8824000Y4041000D01*
X8913000Y4373000D01*
X8913000Y4707000D01*
X8824000Y5039000D01*
X8654000Y5335000D01*
X8415000Y5574000D01*
X8119000Y5744000D01*
X8120000Y5744000D01*
X7787000Y5833000D01*
X7453000Y5833000D01*
X7121000Y5744000D01*
X6825000Y5574000D01*
X6586000Y5335000D01*
X6416000Y5039000D01*
X6327000Y4707000D01*
X6327000Y4373000D01*
X6416000Y4041000D01*
X6586000Y3745000D01*
X6825000Y3506000D01*
X7084000Y3357000D01*
X7084000Y3183000D01*
X6825000Y3034000D01*
X6586000Y2795000D01*
X6416000Y2499000D01*
X6327000Y2167000D01*
X6327000Y1833000D01*
X6416000Y1501000D01*
X6586000Y1205000D01*
X6825000Y966000D01*
X7084000Y817000D01*
X7084000Y643000D01*
X6825000Y494000D01*
X6586000Y255000D01*
X6416000Y-41000D01*
X6327000Y-373000D01*
X6327000Y-707000D01*
X6416000Y-1039000D01*
X6586000Y-1335000D01*
X6825000Y-1574000D01*
X7084000Y-1723000D01*
X7084000Y-1897000D01*
X6825000Y-2046000D01*
X6586000Y-2285000D01*
X6416000Y-2581000D01*
X6327000Y-2913000D01*
X6327000Y-3247000D01*
X6416000Y-3579000D01*
X6587000Y-3876000D01*
X6825000Y-4114000D01*
X7084000Y-4263000D01*
X7084000Y-4437000D01*
X6825000Y-4586000D01*
X6586000Y-4825000D01*
X6416000Y-5121000D01*
X6327000Y-5453000D01*
X6327000Y-5787000D01*
X6416000Y-6119000D01*
X6586000Y-6415000D01*
X6825000Y-6654000D01*
X7121000Y-6824000D01*
X7453000Y-6913000D01*
X7787000Y-6913000D01*
X8120000Y-6824000D01*
X8119000Y-6824000D01*
X8415000Y-6654000D01*
X8654000Y-6415000D01*
X8824000Y-6119000D01*
X8913000Y-5787000D01*
X8913000Y-5453000D01*
X8824000Y-5121000D01*
X8654000Y-4825000D01*
X8415000Y-4586000D01*
X8156000Y-4437000D01*
X8156000Y-4263000D01*
X8415000Y-4114000D01*
X8653000Y-3876000D01*
X8728000Y-3747000D01*
X8798000Y-3707000D01*
X9120000Y-3707000D01*
X9175000Y-3730000D01*
X9365000Y-3921000D01*
X9388000Y-3976000D01*
X9388000Y-5458000D01*
X9387000Y-5471000D01*
X9388000Y-5506000D01*
X9388000Y-5594000D01*
X9389000Y-5602000D01*
X9388000Y-5602000D01*
X9390000Y-5611000D01*
X9391000Y-5620000D01*
X9392000Y-5650000D01*
X9394000Y-5662000D01*
X9410000Y-5712000D01*
X9412000Y-5720000D01*
X9421000Y-5764000D01*
X9423000Y-5770000D01*
X9436000Y-5794000D01*
X9443000Y-5809000D01*
X9450000Y-5833000D01*
X9451000Y-5835000D01*
X9483000Y-5880000D01*
X9520000Y-5945000D01*
X9520000Y-5946000D01*
X9576000Y-5996000D01*
X9580000Y-5999000D01*
X10114000Y-6534000D01*
X10134000Y-6612000D01*
X10087000Y-6788000D01*
X10087000Y-7140000D01*
X10180000Y-7485000D01*
X10355000Y-7787000D01*
X10607000Y-8039000D01*
X10794000Y-8148000D01*
X10794000Y-8321000D01*
X10606000Y-8429000D01*
X10357000Y-8678000D01*
X10259000Y-8848000D01*
X10190000Y-8888000D01*
X7181000Y-8912000D01*
X7142000Y-8902000D01*
X6962000Y-8798000D01*
X6765000Y-8746000D01*
X6556000Y-8746000D01*
X6352000Y-8800000D01*
X6350000Y-8801000D01*
X6168000Y-8907000D01*
X6020000Y-9055000D01*
X5917000Y-9236000D01*
X5916000Y-9239000D01*
X5862000Y-9441000D01*
X5862000Y-9646000D01*
X5917000Y-9851000D01*
X6021000Y-10033000D01*
X6024000Y-10036000D01*
X6167000Y-10178000D01*
X6169000Y-10180000D01*
X6348000Y-10287000D01*
X6553000Y-10341000D01*
X6764000Y-10341000D01*
X6969000Y-10286000D01*
X6973000Y-10285000D01*
X7154000Y-10178000D01*
X7192000Y-10167000D01*
X10201000Y-10142000D01*
X10272000Y-10182000D01*
X10355000Y-10327000D01*
X10607000Y-10579000D01*
X10794000Y-10688000D01*
X10794000Y-10861000D01*
X10606000Y-10969000D01*
X10357000Y-11218000D01*
X10180000Y-11524000D01*
X10087000Y-11868000D01*
X10087000Y-12220000D01*
X10180000Y-12565000D01*
X10355000Y-12867000D01*
X10607000Y-13119000D01*
X10794000Y-13228000D01*
X10794000Y-13401000D01*
X10606000Y-13509000D01*
X10357000Y-13758000D01*
X10180000Y-14064000D01*
X10087000Y-14408000D01*
X10087000Y-14760000D01*
X10180000Y-15105000D01*
X10355000Y-15407000D01*
X10607000Y-15659000D01*
X10794000Y-15768000D01*
X10794000Y-15941000D01*
X10606000Y-16049000D01*
X10357000Y-16298000D01*
X10180000Y-16604000D01*
X10087000Y-16948000D01*
X10087000Y-17300000D01*
X10180000Y-17645000D01*
X10355000Y-17947000D01*
G37*
%TD.AperFunction*%
%TD*%
M02*
