%TF.GenerationSoftware,Flux,Pcbnew,7.0.11-7.0.11~ubuntu20.04.1*%
%TF.CreationDate,2025-02-14T06:42:17+00:00*%
%TF.ProjectId,input,696e7075-742e-46b6-9963-61645f706362,rev?*%
%TF.SameCoordinates,Original*%
%TF.FileFunction,Profile,NP*%
%FSLAX46Y46*%
G04 Gerber Fmt 4.6, Leading zero omitted, Abs format (unit mm)*
G04 Filename: xiao-plus-expander*
G04 Build it with Flux! Visit our site at: https://www.flux.ai (PCBNEW 7.0.11-7.0.11~ubuntu20.04.1) date 2025-02-14 06:42:17*
%MOMM*%
%LPD*%
G01*
G04 APERTURE LIST*
%TA.AperFunction,Profile*%
%ADD10C,0.050000*%
%TD*%
G04 APERTURE END LIST*
D10*
X-11500000Y-19500000D02*
X-11512272Y-19499925D01*
X-11512272Y-19499925D02*
X-11524541Y-19499699D01*
X-11524541Y-19499699D02*
X-11536807Y-19499322D01*
X-11536807Y-19499322D02*
X-11549068Y-19498795D01*
X-11549068Y-19498795D02*
X-11561321Y-19498118D01*
X-11561321Y-19498118D02*
X-11573565Y-19497290D01*
X-11573565Y-19497290D02*
X-11585797Y-19496313D01*
X-11585797Y-19496313D02*
X-11598017Y-19495185D01*
X-11598017Y-19495185D02*
X-11610222Y-19493907D01*
X-11610222Y-19493907D02*
X-11622411Y-19492480D01*
X-11622411Y-19492480D02*
X-11634581Y-19490903D01*
X-11634581Y-19490903D02*
X-11646730Y-19489177D01*
X-11646730Y-19489177D02*
X-11658858Y-19487301D01*
X-11658858Y-19487301D02*
X-11670962Y-19485278D01*
X-11670962Y-19485278D02*
X-11683040Y-19483105D01*
X-11683040Y-19483105D02*
X-11695090Y-19480785D01*
X-11695090Y-19480785D02*
X-11707111Y-19478317D01*
X-11707111Y-19478317D02*
X-11719101Y-19475702D01*
X-11719101Y-19475702D02*
X-11731058Y-19472940D01*
X-11731058Y-19472940D02*
X-11742980Y-19470031D01*
X-11742980Y-19470031D02*
X-11754866Y-19466976D01*
X-11754866Y-19466976D02*
X-11766713Y-19463776D01*
X-11766713Y-19463776D02*
X-11778520Y-19460431D01*
X-11778520Y-19460431D02*
X-11790285Y-19456940D01*
X-11790285Y-19456940D02*
X-11802006Y-19453306D01*
X-11802006Y-19453306D02*
X-11813682Y-19449528D01*
X-11813682Y-19449528D02*
X-11825310Y-19445607D01*
X-11825310Y-19445607D02*
X-11836890Y-19441544D01*
X-11836890Y-19441544D02*
X-11848419Y-19437339D01*
X-11848419Y-19437339D02*
X-11859895Y-19432993D01*
X-11859895Y-19432993D02*
X-11871317Y-19428506D01*
X-11871317Y-19428506D02*
X-11882683Y-19423880D01*
X-11882683Y-19423880D02*
X-11893992Y-19419114D01*
X-11893992Y-19419114D02*
X-11905241Y-19414210D01*
X-11905241Y-19414210D02*
X-11916430Y-19409168D01*
X-11916430Y-19409168D02*
X-11927555Y-19403989D01*
X-11927555Y-19403989D02*
X-11938616Y-19398674D01*
X-11938616Y-19398674D02*
X-11949611Y-19393224D01*
X-11949611Y-19393224D02*
X-11960539Y-19387640D01*
X-11960539Y-19387640D02*
X-11971397Y-19381921D01*
X-11971397Y-19381921D02*
X-11982184Y-19376070D01*
X-11982184Y-19376070D02*
X-11992898Y-19370087D01*
X-11992898Y-19370087D02*
X-12003538Y-19363973D01*
X-12003538Y-19363973D02*
X-12014103Y-19357729D01*
X-12014103Y-19357729D02*
X-12024590Y-19351355D01*
X-12024590Y-19351355D02*
X-12034998Y-19344854D01*
X-12034998Y-19344854D02*
X-12045325Y-19338225D01*
X-12045325Y-19338225D02*
X-12055570Y-19331470D01*
X-12055570Y-19331470D02*
X-12065732Y-19324589D01*
X-12065732Y-19324589D02*
X-12075808Y-19317585D01*
X-12075808Y-19317585D02*
X-12085798Y-19310457D01*
X-12085798Y-19310457D02*
X-12095699Y-19303208D01*
X-12095699Y-19303208D02*
X-12105511Y-19295837D01*
X-12105511Y-19295837D02*
X-12115232Y-19288346D01*
X-12115232Y-19288346D02*
X-12124859Y-19280737D01*
X-12124859Y-19280737D02*
X-12134393Y-19273010D01*
X-12134393Y-19273010D02*
X-12143832Y-19265167D01*
X-12143832Y-19265167D02*
X-12153173Y-19257209D01*
X-12153173Y-19257209D02*
X-12162416Y-19249136D01*
X-12162416Y-19249136D02*
X-12171559Y-19240951D01*
X-12171559Y-19240951D02*
X-12180601Y-19232654D01*
X-12180601Y-19232654D02*
X-12189541Y-19224247D01*
X-12189541Y-19224247D02*
X-12198376Y-19215731D01*
X-12198376Y-19215731D02*
X-12207107Y-19207107D01*
X-12207107Y-19207107D02*
X-12215731Y-19198376D01*
X-12215731Y-19198376D02*
X-12224247Y-19189541D01*
X-12224247Y-19189541D02*
X-12232654Y-19180601D01*
X-12232654Y-19180601D02*
X-12240951Y-19171559D01*
X-12240951Y-19171559D02*
X-12249136Y-19162416D01*
X-12249136Y-19162416D02*
X-12257209Y-19153173D01*
X-12257209Y-19153173D02*
X-12265167Y-19143832D01*
X-12265167Y-19143832D02*
X-12273010Y-19134393D01*
X-12273010Y-19134393D02*
X-12280737Y-19124859D01*
X-12280737Y-19124859D02*
X-12288346Y-19115232D01*
X-12288346Y-19115232D02*
X-12295837Y-19105511D01*
X-12295837Y-19105511D02*
X-12303208Y-19095699D01*
X-12303208Y-19095699D02*
X-12310457Y-19085798D01*
X-12310457Y-19085798D02*
X-12317585Y-19075808D01*
X-12317585Y-19075808D02*
X-12324589Y-19065732D01*
X-12324589Y-19065732D02*
X-12331470Y-19055570D01*
X-12331470Y-19055570D02*
X-12338225Y-19045325D01*
X-12338225Y-19045325D02*
X-12344854Y-19034998D01*
X-12344854Y-19034998D02*
X-12351355Y-19024590D01*
X-12351355Y-19024590D02*
X-12357729Y-19014103D01*
X-12357729Y-19014103D02*
X-12363973Y-19003538D01*
X-12363973Y-19003538D02*
X-12370087Y-18992898D01*
X-12370087Y-18992898D02*
X-12376070Y-18982184D01*
X-12376070Y-18982184D02*
X-12381921Y-18971397D01*
X-12381921Y-18971397D02*
X-12387640Y-18960539D01*
X-12387640Y-18960539D02*
X-12393224Y-18949611D01*
X-12393224Y-18949611D02*
X-12398674Y-18938616D01*
X-12398674Y-18938616D02*
X-12403989Y-18927555D01*
X-12403989Y-18927555D02*
X-12409168Y-18916430D01*
X-12409168Y-18916430D02*
X-12414210Y-18905241D01*
X-12414210Y-18905241D02*
X-12419114Y-18893992D01*
X-12419114Y-18893992D02*
X-12423880Y-18882683D01*
X-12423880Y-18882683D02*
X-12428506Y-18871317D01*
X-12428506Y-18871317D02*
X-12432993Y-18859895D01*
X-12432993Y-18859895D02*
X-12437339Y-18848419D01*
X-12437339Y-18848419D02*
X-12441544Y-18836890D01*
X-12441544Y-18836890D02*
X-12445607Y-18825310D01*
X-12445607Y-18825310D02*
X-12449528Y-18813682D01*
X-12449528Y-18813682D02*
X-12453306Y-18802006D01*
X-12453306Y-18802006D02*
X-12456940Y-18790285D01*
X-12456940Y-18790285D02*
X-12460431Y-18778520D01*
X-12460431Y-18778520D02*
X-12463776Y-18766713D01*
X-12463776Y-18766713D02*
X-12466976Y-18754866D01*
X-12466976Y-18754866D02*
X-12470031Y-18742980D01*
X-12470031Y-18742980D02*
X-12472940Y-18731058D01*
X-12472940Y-18731058D02*
X-12475702Y-18719101D01*
X-12475702Y-18719101D02*
X-12478317Y-18707111D01*
X-12478317Y-18707111D02*
X-12480785Y-18695090D01*
X-12480785Y-18695090D02*
X-12483105Y-18683040D01*
X-12483105Y-18683040D02*
X-12485278Y-18670962D01*
X-12485278Y-18670962D02*
X-12487301Y-18658858D01*
X-12487301Y-18658858D02*
X-12489177Y-18646730D01*
X-12489177Y-18646730D02*
X-12490903Y-18634581D01*
X-12490903Y-18634581D02*
X-12492480Y-18622411D01*
X-12492480Y-18622411D02*
X-12493907Y-18610222D01*
X-12493907Y-18610222D02*
X-12495185Y-18598017D01*
X-12495185Y-18598017D02*
X-12496313Y-18585797D01*
X-12496313Y-18585797D02*
X-12497290Y-18573565D01*
X-12497290Y-18573565D02*
X-12498118Y-18561321D01*
X-12498118Y-18561321D02*
X-12498795Y-18549068D01*
X-12498795Y-18549068D02*
X-12499322Y-18536807D01*
X-12499322Y-18536807D02*
X-12499699Y-18524541D01*
X-12499699Y-18524541D02*
X-12499925Y-18512272D01*
X-12499925Y-18512272D02*
X-12500000Y-18500000D01*
X-12500000Y-18500000D02*
X-12500000Y14500000D01*
X-12500000Y14500000D02*
X-12499925Y14512272D01*
X-12499925Y14512272D02*
X-12499699Y14524541D01*
X-12499699Y14524541D02*
X-12499322Y14536807D01*
X-12499322Y14536807D02*
X-12498795Y14549068D01*
X-12498795Y14549068D02*
X-12498118Y14561321D01*
X-12498118Y14561321D02*
X-12497290Y14573565D01*
X-12497290Y14573565D02*
X-12496313Y14585797D01*
X-12496313Y14585797D02*
X-12495185Y14598017D01*
X-12495185Y14598017D02*
X-12493907Y14610222D01*
X-12493907Y14610222D02*
X-12492480Y14622411D01*
X-12492480Y14622411D02*
X-12490903Y14634581D01*
X-12490903Y14634581D02*
X-12489177Y14646730D01*
X-12489177Y14646730D02*
X-12487301Y14658858D01*
X-12487301Y14658858D02*
X-12485278Y14670962D01*
X-12485278Y14670962D02*
X-12483105Y14683040D01*
X-12483105Y14683040D02*
X-12480785Y14695090D01*
X-12480785Y14695090D02*
X-12478317Y14707111D01*
X-12478317Y14707111D02*
X-12475702Y14719101D01*
X-12475702Y14719101D02*
X-12472940Y14731058D01*
X-12472940Y14731058D02*
X-12470031Y14742980D01*
X-12470031Y14742980D02*
X-12466976Y14754866D01*
X-12466976Y14754866D02*
X-12463776Y14766713D01*
X-12463776Y14766713D02*
X-12460431Y14778520D01*
X-12460431Y14778520D02*
X-12456940Y14790285D01*
X-12456940Y14790285D02*
X-12453306Y14802006D01*
X-12453306Y14802006D02*
X-12449528Y14813682D01*
X-12449528Y14813682D02*
X-12445607Y14825310D01*
X-12445607Y14825310D02*
X-12441544Y14836890D01*
X-12441544Y14836890D02*
X-12437339Y14848419D01*
X-12437339Y14848419D02*
X-12432993Y14859895D01*
X-12432993Y14859895D02*
X-12428506Y14871317D01*
X-12428506Y14871317D02*
X-12423880Y14882683D01*
X-12423880Y14882683D02*
X-12419114Y14893992D01*
X-12419114Y14893992D02*
X-12414210Y14905241D01*
X-12414210Y14905241D02*
X-12409168Y14916430D01*
X-12409168Y14916430D02*
X-12403989Y14927555D01*
X-12403989Y14927555D02*
X-12398674Y14938616D01*
X-12398674Y14938616D02*
X-12393224Y14949611D01*
X-12393224Y14949611D02*
X-12387640Y14960539D01*
X-12387640Y14960539D02*
X-12381921Y14971397D01*
X-12381921Y14971397D02*
X-12376070Y14982184D01*
X-12376070Y14982184D02*
X-12370087Y14992898D01*
X-12370087Y14992898D02*
X-12363973Y15003538D01*
X-12363973Y15003538D02*
X-12357729Y15014103D01*
X-12357729Y15014103D02*
X-12351355Y15024590D01*
X-12351355Y15024590D02*
X-12344854Y15034998D01*
X-12344854Y15034998D02*
X-12338225Y15045325D01*
X-12338225Y15045325D02*
X-12331470Y15055570D01*
X-12331470Y15055570D02*
X-12324589Y15065732D01*
X-12324589Y15065732D02*
X-12317585Y15075808D01*
X-12317585Y15075808D02*
X-12310457Y15085798D01*
X-12310457Y15085798D02*
X-12303208Y15095699D01*
X-12303208Y15095699D02*
X-12295837Y15105511D01*
X-12295837Y15105511D02*
X-12288346Y15115232D01*
X-12288346Y15115232D02*
X-12280737Y15124859D01*
X-12280737Y15124859D02*
X-12273010Y15134393D01*
X-12273010Y15134393D02*
X-12265167Y15143832D01*
X-12265167Y15143832D02*
X-12257209Y15153173D01*
X-12257209Y15153173D02*
X-12249136Y15162416D01*
X-12249136Y15162416D02*
X-12240951Y15171559D01*
X-12240951Y15171559D02*
X-12232654Y15180601D01*
X-12232654Y15180601D02*
X-12224247Y15189541D01*
X-12224247Y15189541D02*
X-12215731Y15198376D01*
X-12215731Y15198376D02*
X-12207107Y15207107D01*
X-12207107Y15207107D02*
X-12198376Y15215731D01*
X-12198376Y15215731D02*
X-12189541Y15224247D01*
X-12189541Y15224247D02*
X-12180601Y15232654D01*
X-12180601Y15232654D02*
X-12171559Y15240951D01*
X-12171559Y15240951D02*
X-12162416Y15249136D01*
X-12162416Y15249136D02*
X-12153173Y15257209D01*
X-12153173Y15257209D02*
X-12143832Y15265167D01*
X-12143832Y15265167D02*
X-12134393Y15273010D01*
X-12134393Y15273010D02*
X-12124859Y15280737D01*
X-12124859Y15280737D02*
X-12115232Y15288346D01*
X-12115232Y15288346D02*
X-12105511Y15295837D01*
X-12105511Y15295837D02*
X-12095699Y15303208D01*
X-12095699Y15303208D02*
X-12085798Y15310457D01*
X-12085798Y15310457D02*
X-12075808Y15317585D01*
X-12075808Y15317585D02*
X-12065732Y15324589D01*
X-12065732Y15324589D02*
X-12055570Y15331470D01*
X-12055570Y15331470D02*
X-12045325Y15338225D01*
X-12045325Y15338225D02*
X-12034998Y15344854D01*
X-12034998Y15344854D02*
X-12024590Y15351355D01*
X-12024590Y15351355D02*
X-12014103Y15357729D01*
X-12014103Y15357729D02*
X-12003538Y15363973D01*
X-12003538Y15363973D02*
X-11992898Y15370087D01*
X-11992898Y15370087D02*
X-11982184Y15376070D01*
X-11982184Y15376070D02*
X-11971397Y15381921D01*
X-11971397Y15381921D02*
X-11960539Y15387640D01*
X-11960539Y15387640D02*
X-11949611Y15393224D01*
X-11949611Y15393224D02*
X-11938616Y15398674D01*
X-11938616Y15398674D02*
X-11927555Y15403989D01*
X-11927555Y15403989D02*
X-11916430Y15409168D01*
X-11916430Y15409168D02*
X-11905241Y15414210D01*
X-11905241Y15414210D02*
X-11893992Y15419114D01*
X-11893992Y15419114D02*
X-11882683Y15423880D01*
X-11882683Y15423880D02*
X-11871317Y15428506D01*
X-11871317Y15428506D02*
X-11859895Y15432993D01*
X-11859895Y15432993D02*
X-11848419Y15437339D01*
X-11848419Y15437339D02*
X-11836890Y15441544D01*
X-11836890Y15441544D02*
X-11825310Y15445607D01*
X-11825310Y15445607D02*
X-11813682Y15449528D01*
X-11813682Y15449528D02*
X-11802006Y15453306D01*
X-11802006Y15453306D02*
X-11790285Y15456940D01*
X-11790285Y15456940D02*
X-11778520Y15460431D01*
X-11778520Y15460431D02*
X-11766713Y15463776D01*
X-11766713Y15463776D02*
X-11754866Y15466976D01*
X-11754866Y15466976D02*
X-11742980Y15470031D01*
X-11742980Y15470031D02*
X-11731058Y15472940D01*
X-11731058Y15472940D02*
X-11719101Y15475702D01*
X-11719101Y15475702D02*
X-11707111Y15478317D01*
X-11707111Y15478317D02*
X-11695090Y15480785D01*
X-11695090Y15480785D02*
X-11683040Y15483105D01*
X-11683040Y15483105D02*
X-11670962Y15485278D01*
X-11670962Y15485278D02*
X-11658858Y15487301D01*
X-11658858Y15487301D02*
X-11646730Y15489177D01*
X-11646730Y15489177D02*
X-11634581Y15490903D01*
X-11634581Y15490903D02*
X-11622411Y15492480D01*
X-11622411Y15492480D02*
X-11610222Y15493907D01*
X-11610222Y15493907D02*
X-11598017Y15495185D01*
X-11598017Y15495185D02*
X-11585797Y15496313D01*
X-11585797Y15496313D02*
X-11573565Y15497290D01*
X-11573565Y15497290D02*
X-11561321Y15498118D01*
X-11561321Y15498118D02*
X-11549068Y15498795D01*
X-11549068Y15498795D02*
X-11536807Y15499322D01*
X-11536807Y15499322D02*
X-11524541Y15499699D01*
X-11524541Y15499699D02*
X-11512272Y15499925D01*
X-11512272Y15499925D02*
X-11500000Y15500000D01*
X-11500000Y15500000D02*
X11500000Y15500000D01*
X11500000Y15500000D02*
X11512272Y15499925D01*
X11512272Y15499925D02*
X11524541Y15499699D01*
X11524541Y15499699D02*
X11536807Y15499322D01*
X11536807Y15499322D02*
X11549068Y15498795D01*
X11549068Y15498795D02*
X11561321Y15498118D01*
X11561321Y15498118D02*
X11573565Y15497290D01*
X11573565Y15497290D02*
X11585797Y15496313D01*
X11585797Y15496313D02*
X11598017Y15495185D01*
X11598017Y15495185D02*
X11610222Y15493907D01*
X11610222Y15493907D02*
X11622411Y15492480D01*
X11622411Y15492480D02*
X11634581Y15490903D01*
X11634581Y15490903D02*
X11646730Y15489177D01*
X11646730Y15489177D02*
X11658858Y15487301D01*
X11658858Y15487301D02*
X11670962Y15485278D01*
X11670962Y15485278D02*
X11683040Y15483105D01*
X11683040Y15483105D02*
X11695090Y15480785D01*
X11695090Y15480785D02*
X11707111Y15478317D01*
X11707111Y15478317D02*
X11719101Y15475702D01*
X11719101Y15475702D02*
X11731058Y15472940D01*
X11731058Y15472940D02*
X11742980Y15470031D01*
X11742980Y15470031D02*
X11754866Y15466976D01*
X11754866Y15466976D02*
X11766713Y15463776D01*
X11766713Y15463776D02*
X11778520Y15460431D01*
X11778520Y15460431D02*
X11790285Y15456940D01*
X11790285Y15456940D02*
X11802006Y15453306D01*
X11802006Y15453306D02*
X11813682Y15449528D01*
X11813682Y15449528D02*
X11825310Y15445607D01*
X11825310Y15445607D02*
X11836890Y15441544D01*
X11836890Y15441544D02*
X11848419Y15437339D01*
X11848419Y15437339D02*
X11859895Y15432993D01*
X11859895Y15432993D02*
X11871317Y15428506D01*
X11871317Y15428506D02*
X11882683Y15423880D01*
X11882683Y15423880D02*
X11893992Y15419114D01*
X11893992Y15419114D02*
X11905241Y15414210D01*
X11905241Y15414210D02*
X11916430Y15409168D01*
X11916430Y15409168D02*
X11927555Y15403989D01*
X11927555Y15403989D02*
X11938616Y15398674D01*
X11938616Y15398674D02*
X11949611Y15393224D01*
X11949611Y15393224D02*
X11960539Y15387640D01*
X11960539Y15387640D02*
X11971397Y15381921D01*
X11971397Y15381921D02*
X11982184Y15376070D01*
X11982184Y15376070D02*
X11992898Y15370087D01*
X11992898Y15370087D02*
X12003538Y15363973D01*
X12003538Y15363973D02*
X12014103Y15357729D01*
X12014103Y15357729D02*
X12024590Y15351355D01*
X12024590Y15351355D02*
X12034998Y15344854D01*
X12034998Y15344854D02*
X12045325Y15338225D01*
X12045325Y15338225D02*
X12055570Y15331470D01*
X12055570Y15331470D02*
X12065732Y15324589D01*
X12065732Y15324589D02*
X12075808Y15317585D01*
X12075808Y15317585D02*
X12085798Y15310457D01*
X12085798Y15310457D02*
X12095699Y15303208D01*
X12095699Y15303208D02*
X12105511Y15295837D01*
X12105511Y15295837D02*
X12115232Y15288346D01*
X12115232Y15288346D02*
X12124859Y15280737D01*
X12124859Y15280737D02*
X12134393Y15273010D01*
X12134393Y15273010D02*
X12143832Y15265167D01*
X12143832Y15265167D02*
X12153173Y15257209D01*
X12153173Y15257209D02*
X12162416Y15249136D01*
X12162416Y15249136D02*
X12171559Y15240951D01*
X12171559Y15240951D02*
X12180601Y15232654D01*
X12180601Y15232654D02*
X12189541Y15224247D01*
X12189541Y15224247D02*
X12198376Y15215731D01*
X12198376Y15215731D02*
X12207107Y15207107D01*
X12207107Y15207107D02*
X12215731Y15198376D01*
X12215731Y15198376D02*
X12224247Y15189541D01*
X12224247Y15189541D02*
X12232654Y15180601D01*
X12232654Y15180601D02*
X12240951Y15171559D01*
X12240951Y15171559D02*
X12249136Y15162416D01*
X12249136Y15162416D02*
X12257209Y15153173D01*
X12257209Y15153173D02*
X12265167Y15143832D01*
X12265167Y15143832D02*
X12273010Y15134393D01*
X12273010Y15134393D02*
X12280737Y15124859D01*
X12280737Y15124859D02*
X12288346Y15115232D01*
X12288346Y15115232D02*
X12295837Y15105511D01*
X12295837Y15105511D02*
X12303208Y15095699D01*
X12303208Y15095699D02*
X12310457Y15085798D01*
X12310457Y15085798D02*
X12317585Y15075808D01*
X12317585Y15075808D02*
X12324589Y15065732D01*
X12324589Y15065732D02*
X12331470Y15055570D01*
X12331470Y15055570D02*
X12338225Y15045325D01*
X12338225Y15045325D02*
X12344854Y15034998D01*
X12344854Y15034998D02*
X12351355Y15024590D01*
X12351355Y15024590D02*
X12357729Y15014103D01*
X12357729Y15014103D02*
X12363973Y15003538D01*
X12363973Y15003538D02*
X12370087Y14992898D01*
X12370087Y14992898D02*
X12376070Y14982184D01*
X12376070Y14982184D02*
X12381921Y14971397D01*
X12381921Y14971397D02*
X12387640Y14960539D01*
X12387640Y14960539D02*
X12393224Y14949611D01*
X12393224Y14949611D02*
X12398674Y14938616D01*
X12398674Y14938616D02*
X12403989Y14927555D01*
X12403989Y14927555D02*
X12409168Y14916430D01*
X12409168Y14916430D02*
X12414210Y14905241D01*
X12414210Y14905241D02*
X12419114Y14893992D01*
X12419114Y14893992D02*
X12423880Y14882683D01*
X12423880Y14882683D02*
X12428506Y14871317D01*
X12428506Y14871317D02*
X12432993Y14859895D01*
X12432993Y14859895D02*
X12437339Y14848419D01*
X12437339Y14848419D02*
X12441544Y14836890D01*
X12441544Y14836890D02*
X12445607Y14825310D01*
X12445607Y14825310D02*
X12449528Y14813682D01*
X12449528Y14813682D02*
X12453306Y14802006D01*
X12453306Y14802006D02*
X12456940Y14790285D01*
X12456940Y14790285D02*
X12460431Y14778520D01*
X12460431Y14778520D02*
X12463776Y14766713D01*
X12463776Y14766713D02*
X12466976Y14754866D01*
X12466976Y14754866D02*
X12470031Y14742980D01*
X12470031Y14742980D02*
X12472940Y14731058D01*
X12472940Y14731058D02*
X12475702Y14719101D01*
X12475702Y14719101D02*
X12478317Y14707111D01*
X12478317Y14707111D02*
X12480785Y14695090D01*
X12480785Y14695090D02*
X12483105Y14683040D01*
X12483105Y14683040D02*
X12485278Y14670962D01*
X12485278Y14670962D02*
X12487301Y14658858D01*
X12487301Y14658858D02*
X12489177Y14646730D01*
X12489177Y14646730D02*
X12490903Y14634581D01*
X12490903Y14634581D02*
X12492480Y14622411D01*
X12492480Y14622411D02*
X12493907Y14610222D01*
X12493907Y14610222D02*
X12495185Y14598017D01*
X12495185Y14598017D02*
X12496313Y14585797D01*
X12496313Y14585797D02*
X12497290Y14573565D01*
X12497290Y14573565D02*
X12498118Y14561321D01*
X12498118Y14561321D02*
X12498795Y14549068D01*
X12498795Y14549068D02*
X12499322Y14536807D01*
X12499322Y14536807D02*
X12499699Y14524541D01*
X12499699Y14524541D02*
X12499925Y14512272D01*
X12499925Y14512272D02*
X12500000Y14500000D01*
X12500000Y14500000D02*
X12500000Y-18500000D01*
X12500000Y-18500000D02*
X12499925Y-18512272D01*
X12499925Y-18512272D02*
X12499699Y-18524541D01*
X12499699Y-18524541D02*
X12499322Y-18536807D01*
X12499322Y-18536807D02*
X12498795Y-18549068D01*
X12498795Y-18549068D02*
X12498118Y-18561321D01*
X12498118Y-18561321D02*
X12497290Y-18573565D01*
X12497290Y-18573565D02*
X12496313Y-18585797D01*
X12496313Y-18585797D02*
X12495185Y-18598017D01*
X12495185Y-18598017D02*
X12493907Y-18610222D01*
X12493907Y-18610222D02*
X12492480Y-18622411D01*
X12492480Y-18622411D02*
X12490903Y-18634581D01*
X12490903Y-18634581D02*
X12489177Y-18646730D01*
X12489177Y-18646730D02*
X12487301Y-18658858D01*
X12487301Y-18658858D02*
X12485278Y-18670962D01*
X12485278Y-18670962D02*
X12483105Y-18683040D01*
X12483105Y-18683040D02*
X12480785Y-18695090D01*
X12480785Y-18695090D02*
X12478317Y-18707111D01*
X12478317Y-18707111D02*
X12475702Y-18719101D01*
X12475702Y-18719101D02*
X12472940Y-18731058D01*
X12472940Y-18731058D02*
X12470031Y-18742980D01*
X12470031Y-18742980D02*
X12466976Y-18754866D01*
X12466976Y-18754866D02*
X12463776Y-18766713D01*
X12463776Y-18766713D02*
X12460431Y-18778520D01*
X12460431Y-18778520D02*
X12456940Y-18790285D01*
X12456940Y-18790285D02*
X12453306Y-18802006D01*
X12453306Y-18802006D02*
X12449528Y-18813682D01*
X12449528Y-18813682D02*
X12445607Y-18825310D01*
X12445607Y-18825310D02*
X12441544Y-18836890D01*
X12441544Y-18836890D02*
X12437339Y-18848419D01*
X12437339Y-18848419D02*
X12432993Y-18859895D01*
X12432993Y-18859895D02*
X12428506Y-18871317D01*
X12428506Y-18871317D02*
X12423880Y-18882683D01*
X12423880Y-18882683D02*
X12419114Y-18893992D01*
X12419114Y-18893992D02*
X12414210Y-18905241D01*
X12414210Y-18905241D02*
X12409168Y-18916430D01*
X12409168Y-18916430D02*
X12403989Y-18927555D01*
X12403989Y-18927555D02*
X12398674Y-18938616D01*
X12398674Y-18938616D02*
X12393224Y-18949611D01*
X12393224Y-18949611D02*
X12387640Y-18960539D01*
X12387640Y-18960539D02*
X12381921Y-18971397D01*
X12381921Y-18971397D02*
X12376070Y-18982184D01*
X12376070Y-18982184D02*
X12370087Y-18992898D01*
X12370087Y-18992898D02*
X12363973Y-19003538D01*
X12363973Y-19003538D02*
X12357729Y-19014103D01*
X12357729Y-19014103D02*
X12351355Y-19024590D01*
X12351355Y-19024590D02*
X12344854Y-19034998D01*
X12344854Y-19034998D02*
X12338225Y-19045325D01*
X12338225Y-19045325D02*
X12331470Y-19055570D01*
X12331470Y-19055570D02*
X12324589Y-19065732D01*
X12324589Y-19065732D02*
X12317585Y-19075808D01*
X12317585Y-19075808D02*
X12310457Y-19085798D01*
X12310457Y-19085798D02*
X12303208Y-19095699D01*
X12303208Y-19095699D02*
X12295837Y-19105511D01*
X12295837Y-19105511D02*
X12288346Y-19115232D01*
X12288346Y-19115232D02*
X12280737Y-19124859D01*
X12280737Y-19124859D02*
X12273010Y-19134393D01*
X12273010Y-19134393D02*
X12265167Y-19143832D01*
X12265167Y-19143832D02*
X12257209Y-19153173D01*
X12257209Y-19153173D02*
X12249136Y-19162416D01*
X12249136Y-19162416D02*
X12240951Y-19171559D01*
X12240951Y-19171559D02*
X12232654Y-19180601D01*
X12232654Y-19180601D02*
X12224247Y-19189541D01*
X12224247Y-19189541D02*
X12215731Y-19198376D01*
X12215731Y-19198376D02*
X12207107Y-19207107D01*
X12207107Y-19207107D02*
X12198376Y-19215731D01*
X12198376Y-19215731D02*
X12189541Y-19224247D01*
X12189541Y-19224247D02*
X12180601Y-19232654D01*
X12180601Y-19232654D02*
X12171559Y-19240951D01*
X12171559Y-19240951D02*
X12162416Y-19249136D01*
X12162416Y-19249136D02*
X12153173Y-19257209D01*
X12153173Y-19257209D02*
X12143832Y-19265167D01*
X12143832Y-19265167D02*
X12134393Y-19273010D01*
X12134393Y-19273010D02*
X12124859Y-19280737D01*
X12124859Y-19280737D02*
X12115232Y-19288346D01*
X12115232Y-19288346D02*
X12105511Y-19295837D01*
X12105511Y-19295837D02*
X12095699Y-19303208D01*
X12095699Y-19303208D02*
X12085798Y-19310457D01*
X12085798Y-19310457D02*
X12075808Y-19317585D01*
X12075808Y-19317585D02*
X12065732Y-19324589D01*
X12065732Y-19324589D02*
X12055570Y-19331470D01*
X12055570Y-19331470D02*
X12045325Y-19338225D01*
X12045325Y-19338225D02*
X12034998Y-19344854D01*
X12034998Y-19344854D02*
X12024590Y-19351355D01*
X12024590Y-19351355D02*
X12014103Y-19357729D01*
X12014103Y-19357729D02*
X12003538Y-19363973D01*
X12003538Y-19363973D02*
X11992898Y-19370087D01*
X11992898Y-19370087D02*
X11982184Y-19376070D01*
X11982184Y-19376070D02*
X11971397Y-19381921D01*
X11971397Y-19381921D02*
X11960539Y-19387640D01*
X11960539Y-19387640D02*
X11949611Y-19393224D01*
X11949611Y-19393224D02*
X11938616Y-19398674D01*
X11938616Y-19398674D02*
X11927555Y-19403989D01*
X11927555Y-19403989D02*
X11916430Y-19409168D01*
X11916430Y-19409168D02*
X11905241Y-19414210D01*
X11905241Y-19414210D02*
X11893992Y-19419114D01*
X11893992Y-19419114D02*
X11882683Y-19423880D01*
X11882683Y-19423880D02*
X11871317Y-19428506D01*
X11871317Y-19428506D02*
X11859895Y-19432993D01*
X11859895Y-19432993D02*
X11848419Y-19437339D01*
X11848419Y-19437339D02*
X11836890Y-19441544D01*
X11836890Y-19441544D02*
X11825310Y-19445607D01*
X11825310Y-19445607D02*
X11813682Y-19449528D01*
X11813682Y-19449528D02*
X11802006Y-19453306D01*
X11802006Y-19453306D02*
X11790285Y-19456940D01*
X11790285Y-19456940D02*
X11778520Y-19460431D01*
X11778520Y-19460431D02*
X11766713Y-19463776D01*
X11766713Y-19463776D02*
X11754866Y-19466976D01*
X11754866Y-19466976D02*
X11742980Y-19470031D01*
X11742980Y-19470031D02*
X11731058Y-19472940D01*
X11731058Y-19472940D02*
X11719101Y-19475702D01*
X11719101Y-19475702D02*
X11707111Y-19478317D01*
X11707111Y-19478317D02*
X11695090Y-19480785D01*
X11695090Y-19480785D02*
X11683040Y-19483105D01*
X11683040Y-19483105D02*
X11670962Y-19485278D01*
X11670962Y-19485278D02*
X11658858Y-19487301D01*
X11658858Y-19487301D02*
X11646730Y-19489177D01*
X11646730Y-19489177D02*
X11634581Y-19490903D01*
X11634581Y-19490903D02*
X11622411Y-19492480D01*
X11622411Y-19492480D02*
X11610222Y-19493907D01*
X11610222Y-19493907D02*
X11598017Y-19495185D01*
X11598017Y-19495185D02*
X11585797Y-19496313D01*
X11585797Y-19496313D02*
X11573565Y-19497290D01*
X11573565Y-19497290D02*
X11561321Y-19498118D01*
X11561321Y-19498118D02*
X11549068Y-19498795D01*
X11549068Y-19498795D02*
X11536807Y-19499322D01*
X11536807Y-19499322D02*
X11524541Y-19499699D01*
X11524541Y-19499699D02*
X11512272Y-19499925D01*
X11512272Y-19499925D02*
X11500000Y-19500000D01*
X11500000Y-19500000D02*
X-11500000Y-19500000D01*
M02*
