%TF.GenerationSoftware,Flux,Pcbnew,7.0.11-7.0.11~ubuntu20.04.1*%
%TF.CreationDate,2025-02-14T06:42:17+00:00*%
%TF.ProjectId,input,696e7075-742e-46b6-9963-61645f706362,rev?*%
%TF.SameCoordinates,Original*%
%TF.FileFunction,Soldermask,Top*%
%TF.FilePolarity,Negative*%
%FSLAX46Y46*%
G04 Gerber Fmt 4.6, Leading zero omitted, Abs format (unit mm)*
G04 Filename: xiao-plus-expander*
G04 Build it with Flux! Visit our site at: https://www.flux.ai (PCBNEW 7.0.11-7.0.11~ubuntu20.04.1) date 2025-02-14 06:42:17*
%MOMM*%
%LPD*%
G01*
G04 APERTURE LIST*
G04 APERTURE END LIST*
%TO.C,*%
G36*
X1185815Y-1976160D02*
G01*
X1195620Y-1976642D01*
X1205405Y-1977444D01*
X1215157Y-1978566D01*
X1224868Y-1980007D01*
X1234527Y-1981764D01*
X1244122Y-1983836D01*
X1253645Y-1986222D01*
X1263085Y-1988917D01*
X1272431Y-1991920D01*
X1281675Y-1995228D01*
X1290805Y-1998836D01*
X1299812Y-2002740D01*
X1308686Y-2006938D01*
X1317419Y-2011423D01*
X1326000Y-2016192D01*
X1334420Y-2021239D01*
X1342671Y-2026559D01*
X1350743Y-2032145D01*
X1358628Y-2037993D01*
X1366317Y-2044096D01*
X1373803Y-2050448D01*
X1381077Y-2057040D01*
X1388132Y-2063867D01*
X1394959Y-2070922D01*
X1401551Y-2078196D01*
X1407903Y-2085682D01*
X1414006Y-2093371D01*
X1419854Y-2101256D01*
X1425440Y-2109328D01*
X1430760Y-2117579D01*
X1435807Y-2126000D01*
X1440576Y-2134580D01*
X1445061Y-2143313D01*
X1449259Y-2152187D01*
X1453163Y-2161194D01*
X1456771Y-2170324D01*
X1460079Y-2179568D01*
X1463082Y-2188914D01*
X1465777Y-2198354D01*
X1468163Y-2207877D01*
X1470235Y-2217472D01*
X1471992Y-2227131D01*
X1473433Y-2236842D01*
X1474555Y-2246594D01*
X1475357Y-2256379D01*
X1475839Y-2266184D01*
X1476000Y-2276000D01*
X1476000Y-3676000D01*
X1475839Y-3685815D01*
X1475357Y-3695620D01*
X1474555Y-3705405D01*
X1473433Y-3715157D01*
X1471992Y-3724868D01*
X1470235Y-3734527D01*
X1468163Y-3744122D01*
X1465777Y-3753645D01*
X1463082Y-3763085D01*
X1460079Y-3772431D01*
X1456771Y-3781675D01*
X1453163Y-3790805D01*
X1449259Y-3799812D01*
X1445061Y-3808686D01*
X1440576Y-3817419D01*
X1435807Y-3826000D01*
X1430760Y-3834420D01*
X1425440Y-3842671D01*
X1419854Y-3850743D01*
X1414006Y-3858628D01*
X1407903Y-3866317D01*
X1401551Y-3873803D01*
X1394959Y-3881077D01*
X1388132Y-3888132D01*
X1381077Y-3894959D01*
X1373803Y-3901551D01*
X1366317Y-3907903D01*
X1358628Y-3914006D01*
X1350743Y-3919854D01*
X1342671Y-3925440D01*
X1334420Y-3930760D01*
X1325999Y-3935807D01*
X1317419Y-3940576D01*
X1308686Y-3945061D01*
X1299812Y-3949259D01*
X1290805Y-3953163D01*
X1281675Y-3956771D01*
X1272431Y-3960079D01*
X1263085Y-3963082D01*
X1253645Y-3965777D01*
X1244122Y-3968163D01*
X1234527Y-3970235D01*
X1224868Y-3971992D01*
X1215157Y-3973433D01*
X1205405Y-3974555D01*
X1195620Y-3975357D01*
X1185815Y-3975839D01*
X1176000Y-3976000D01*
X775999Y-3976000D01*
X766184Y-3975839D01*
X756379Y-3975357D01*
X746594Y-3974555D01*
X736842Y-3973433D01*
X727131Y-3971992D01*
X717472Y-3970235D01*
X707877Y-3968163D01*
X698354Y-3965777D01*
X688914Y-3963082D01*
X679568Y-3960079D01*
X670324Y-3956771D01*
X661194Y-3953163D01*
X652187Y-3949259D01*
X643313Y-3945061D01*
X634580Y-3940576D01*
X625999Y-3935807D01*
X617579Y-3930760D01*
X609328Y-3925440D01*
X601256Y-3919854D01*
X593371Y-3914006D01*
X585682Y-3907903D01*
X578196Y-3901551D01*
X570922Y-3894959D01*
X563867Y-3888132D01*
X557040Y-3881077D01*
X550448Y-3873803D01*
X544096Y-3866317D01*
X537993Y-3858628D01*
X532145Y-3850743D01*
X526559Y-3842671D01*
X521239Y-3834420D01*
X516192Y-3826000D01*
X511423Y-3817419D01*
X506938Y-3808686D01*
X502740Y-3799812D01*
X498836Y-3790805D01*
X495228Y-3781675D01*
X491920Y-3772431D01*
X488917Y-3763085D01*
X486222Y-3753645D01*
X483836Y-3744122D01*
X481764Y-3734527D01*
X480007Y-3724868D01*
X478566Y-3715157D01*
X477444Y-3705405D01*
X476642Y-3695620D01*
X476160Y-3685815D01*
X476000Y-3676000D01*
X476000Y-2276000D01*
X476160Y-2266184D01*
X476642Y-2256379D01*
X477444Y-2246594D01*
X478566Y-2236842D01*
X480007Y-2227131D01*
X481764Y-2217472D01*
X483836Y-2207877D01*
X486222Y-2198354D01*
X488917Y-2188914D01*
X491920Y-2179568D01*
X495228Y-2170324D01*
X498836Y-2161194D01*
X502740Y-2152187D01*
X506938Y-2143313D01*
X511423Y-2134580D01*
X516192Y-2126000D01*
X521239Y-2117579D01*
X526559Y-2109328D01*
X532145Y-2101256D01*
X537993Y-2093371D01*
X544096Y-2085682D01*
X550448Y-2078196D01*
X557040Y-2070922D01*
X563867Y-2063867D01*
X570922Y-2057040D01*
X578196Y-2050448D01*
X585682Y-2044096D01*
X593371Y-2037993D01*
X601256Y-2032145D01*
X609328Y-2026559D01*
X617579Y-2021239D01*
X626000Y-2016192D01*
X634580Y-2011423D01*
X643313Y-2006938D01*
X652187Y-2002740D01*
X661194Y-1998836D01*
X670324Y-1995228D01*
X679568Y-1991920D01*
X688914Y-1988917D01*
X698354Y-1986222D01*
X707877Y-1983836D01*
X717472Y-1981764D01*
X727131Y-1980007D01*
X736842Y-1978566D01*
X746594Y-1977444D01*
X756379Y-1976642D01*
X766184Y-1976160D01*
X776000Y-1976000D01*
X1176000Y-1976000D01*
X1185815Y-1976160D01*
G37*
G36*
X9419215Y1229839D02*
G01*
X9429020Y1229357D01*
X9438805Y1228555D01*
X9448557Y1227433D01*
X9458268Y1225992D01*
X9467927Y1224235D01*
X9477522Y1222163D01*
X9487045Y1219777D01*
X9496485Y1217082D01*
X9505831Y1214079D01*
X9515075Y1210771D01*
X9524205Y1207163D01*
X9533212Y1203259D01*
X9542086Y1199061D01*
X9550819Y1194576D01*
X9559400Y1189807D01*
X9567820Y1184760D01*
X9576071Y1179440D01*
X9584143Y1173854D01*
X9592028Y1168006D01*
X9599717Y1161903D01*
X9607203Y1155551D01*
X9614477Y1148959D01*
X9621532Y1142132D01*
X9628359Y1135077D01*
X9634951Y1127803D01*
X9641303Y1120317D01*
X9647406Y1112628D01*
X9653254Y1104743D01*
X9658840Y1096671D01*
X9664160Y1088420D01*
X9669207Y1080000D01*
X9673976Y1071419D01*
X9678461Y1062686D01*
X9682659Y1053812D01*
X9686563Y1044805D01*
X9690171Y1035675D01*
X9693479Y1026431D01*
X9696482Y1017085D01*
X9699177Y1007645D01*
X9701563Y998122D01*
X9703635Y988527D01*
X9705392Y978868D01*
X9706833Y969157D01*
X9707955Y959405D01*
X9708757Y949620D01*
X9709239Y939815D01*
X9709400Y929999D01*
X9709400Y530000D01*
X9709239Y520184D01*
X9708757Y510379D01*
X9707955Y500594D01*
X9706833Y490842D01*
X9705392Y481131D01*
X9703635Y471472D01*
X9701563Y461877D01*
X9699177Y452354D01*
X9696482Y442914D01*
X9693479Y433568D01*
X9690171Y424324D01*
X9686563Y415194D01*
X9682659Y406187D01*
X9678461Y397313D01*
X9673976Y388580D01*
X9669207Y380000D01*
X9664160Y371579D01*
X9658840Y363328D01*
X9653254Y355256D01*
X9647406Y347371D01*
X9641303Y339682D01*
X9634951Y332196D01*
X9628359Y324922D01*
X9621532Y317867D01*
X9614477Y311040D01*
X9607203Y304448D01*
X9599717Y298096D01*
X9592028Y291993D01*
X9584143Y286145D01*
X9576071Y280559D01*
X9567820Y275239D01*
X9559400Y270192D01*
X9550819Y265423D01*
X9542086Y260938D01*
X9533212Y256740D01*
X9524205Y252836D01*
X9515075Y249228D01*
X9505831Y245920D01*
X9496485Y242917D01*
X9487045Y240222D01*
X9477522Y237836D01*
X9467927Y235764D01*
X9458268Y234007D01*
X9448557Y232566D01*
X9438805Y231444D01*
X9429020Y230642D01*
X9419215Y230160D01*
X9409400Y229999D01*
X8409400Y229999D01*
X8399584Y230160D01*
X8389779Y230642D01*
X8379994Y231444D01*
X8370242Y232566D01*
X8360531Y234007D01*
X8350872Y235764D01*
X8341277Y237836D01*
X8331754Y240222D01*
X8322314Y242917D01*
X8312968Y245920D01*
X8303724Y249228D01*
X8294594Y252836D01*
X8285587Y256740D01*
X8276713Y260938D01*
X8267980Y265423D01*
X8259399Y270192D01*
X8250979Y275239D01*
X8242728Y280559D01*
X8234656Y286145D01*
X8226771Y291993D01*
X8219082Y298096D01*
X8211596Y304448D01*
X8204322Y311040D01*
X8197267Y317867D01*
X8190440Y324922D01*
X8183848Y332196D01*
X8177496Y339682D01*
X8171393Y347371D01*
X8165545Y355256D01*
X8159959Y363328D01*
X8154639Y371579D01*
X8149592Y380000D01*
X8144823Y388580D01*
X8140338Y397313D01*
X8136140Y406187D01*
X8132236Y415194D01*
X8128628Y424324D01*
X8125320Y433568D01*
X8122317Y442914D01*
X8119622Y452354D01*
X8117236Y461877D01*
X8115164Y471472D01*
X8113407Y481131D01*
X8111966Y490842D01*
X8110844Y500594D01*
X8110042Y510379D01*
X8109560Y520184D01*
X8109399Y530000D01*
X8109399Y929999D01*
X8109560Y939815D01*
X8110042Y949620D01*
X8110844Y959405D01*
X8111966Y969157D01*
X8113407Y978868D01*
X8115164Y988527D01*
X8117236Y998122D01*
X8119622Y1007645D01*
X8122317Y1017085D01*
X8125320Y1026431D01*
X8128628Y1035675D01*
X8132236Y1044805D01*
X8136140Y1053812D01*
X8140338Y1062686D01*
X8144823Y1071419D01*
X8149592Y1080000D01*
X8154639Y1088420D01*
X8159959Y1096671D01*
X8165545Y1104743D01*
X8171393Y1112628D01*
X8177496Y1120317D01*
X8183848Y1127803D01*
X8190440Y1135077D01*
X8197267Y1142132D01*
X8204322Y1148959D01*
X8211596Y1155551D01*
X8219082Y1161903D01*
X8226771Y1168006D01*
X8234656Y1173854D01*
X8242728Y1179440D01*
X8250979Y1184760D01*
X8259399Y1189807D01*
X8267980Y1194576D01*
X8276713Y1199061D01*
X8285587Y1203259D01*
X8294594Y1207163D01*
X8303724Y1210771D01*
X8312968Y1214079D01*
X8322314Y1217082D01*
X8331754Y1219777D01*
X8341277Y1222163D01*
X8350872Y1224235D01*
X8360531Y1225992D01*
X8370242Y1227433D01*
X8379994Y1228555D01*
X8389779Y1229357D01*
X8399584Y1229839D01*
X8409400Y1230000D01*
X9409400Y1230000D01*
X9419215Y1229839D01*
G37*
G36*
X-8399584Y3769839D02*
G01*
X-8389779Y3769357D01*
X-8379994Y3768555D01*
X-8370242Y3767433D01*
X-8360531Y3765992D01*
X-8350872Y3764235D01*
X-8341277Y3762163D01*
X-8331754Y3759777D01*
X-8322314Y3757082D01*
X-8312968Y3754079D01*
X-8303724Y3750771D01*
X-8294594Y3747163D01*
X-8285587Y3743259D01*
X-8276713Y3739061D01*
X-8267980Y3734576D01*
X-8259399Y3729807D01*
X-8250979Y3724760D01*
X-8242728Y3719440D01*
X-8234656Y3713854D01*
X-8226771Y3708006D01*
X-8219082Y3701903D01*
X-8211596Y3695551D01*
X-8204322Y3688959D01*
X-8197267Y3682132D01*
X-8190440Y3675077D01*
X-8183848Y3667803D01*
X-8177496Y3660317D01*
X-8171393Y3652628D01*
X-8165545Y3644743D01*
X-8159959Y3636671D01*
X-8154639Y3628420D01*
X-8149592Y3620000D01*
X-8144823Y3611419D01*
X-8140338Y3602686D01*
X-8136140Y3593812D01*
X-8132236Y3584805D01*
X-8128628Y3575675D01*
X-8125320Y3566431D01*
X-8122317Y3557085D01*
X-8119622Y3547645D01*
X-8117236Y3538122D01*
X-8115164Y3528527D01*
X-8113407Y3518868D01*
X-8111966Y3509157D01*
X-8110844Y3499405D01*
X-8110042Y3489620D01*
X-8109560Y3479815D01*
X-8109399Y3470000D01*
X-8109399Y3070000D01*
X-8109560Y3060184D01*
X-8110042Y3050379D01*
X-8110844Y3040594D01*
X-8111966Y3030842D01*
X-8113407Y3021131D01*
X-8115164Y3011472D01*
X-8117236Y3001877D01*
X-8119622Y2992354D01*
X-8122317Y2982914D01*
X-8125320Y2973568D01*
X-8128628Y2964324D01*
X-8132236Y2955194D01*
X-8136140Y2946187D01*
X-8140338Y2937313D01*
X-8144823Y2928580D01*
X-8149592Y2920000D01*
X-8154639Y2911579D01*
X-8159959Y2903328D01*
X-8165545Y2895256D01*
X-8171393Y2887371D01*
X-8177496Y2879682D01*
X-8183848Y2872196D01*
X-8190440Y2864922D01*
X-8197267Y2857867D01*
X-8204322Y2851040D01*
X-8211596Y2844448D01*
X-8219082Y2838096D01*
X-8226771Y2831993D01*
X-8234656Y2826145D01*
X-8242728Y2820559D01*
X-8250979Y2815239D01*
X-8259399Y2810192D01*
X-8267980Y2805423D01*
X-8276713Y2800938D01*
X-8285587Y2796740D01*
X-8294594Y2792836D01*
X-8303724Y2789228D01*
X-8312968Y2785920D01*
X-8322314Y2782917D01*
X-8331754Y2780222D01*
X-8341277Y2777836D01*
X-8350872Y2775764D01*
X-8360531Y2774007D01*
X-8370242Y2772566D01*
X-8379994Y2771444D01*
X-8389779Y2770642D01*
X-8399584Y2770160D01*
X-8409400Y2770000D01*
X-9409400Y2770000D01*
X-9419215Y2770160D01*
X-9429020Y2770642D01*
X-9438805Y2771444D01*
X-9448557Y2772566D01*
X-9458268Y2774007D01*
X-9467927Y2775764D01*
X-9477522Y2777836D01*
X-9487045Y2780222D01*
X-9496485Y2782917D01*
X-9505831Y2785920D01*
X-9515075Y2789228D01*
X-9524205Y2792836D01*
X-9533212Y2796740D01*
X-9542086Y2800938D01*
X-9550819Y2805423D01*
X-9559400Y2810192D01*
X-9567820Y2815239D01*
X-9576071Y2820559D01*
X-9584143Y2826145D01*
X-9592028Y2831993D01*
X-9599717Y2838096D01*
X-9607203Y2844448D01*
X-9614477Y2851040D01*
X-9621532Y2857867D01*
X-9628359Y2864922D01*
X-9634951Y2872196D01*
X-9641303Y2879682D01*
X-9647406Y2887371D01*
X-9653254Y2895256D01*
X-9658840Y2903328D01*
X-9664160Y2911579D01*
X-9669207Y2920000D01*
X-9673976Y2928580D01*
X-9678461Y2937313D01*
X-9682659Y2946187D01*
X-9686563Y2955194D01*
X-9690171Y2964324D01*
X-9693479Y2973568D01*
X-9696482Y2982914D01*
X-9699177Y2992354D01*
X-9701563Y3001877D01*
X-9703635Y3011472D01*
X-9705392Y3021131D01*
X-9706833Y3030842D01*
X-9707955Y3040594D01*
X-9708757Y3050379D01*
X-9709239Y3060184D01*
X-9709400Y3070000D01*
X-9709400Y3470000D01*
X-9709239Y3479815D01*
X-9708757Y3489620D01*
X-9707955Y3499405D01*
X-9706833Y3509157D01*
X-9705392Y3518868D01*
X-9703635Y3528527D01*
X-9701563Y3538122D01*
X-9699177Y3547645D01*
X-9696482Y3557085D01*
X-9693479Y3566431D01*
X-9690171Y3575675D01*
X-9686563Y3584805D01*
X-9682659Y3593812D01*
X-9678461Y3602686D01*
X-9673976Y3611419D01*
X-9669207Y3620000D01*
X-9664160Y3628420D01*
X-9658840Y3636671D01*
X-9653254Y3644743D01*
X-9647406Y3652628D01*
X-9641303Y3660317D01*
X-9634951Y3667803D01*
X-9628359Y3675077D01*
X-9621532Y3682132D01*
X-9614477Y3688959D01*
X-9607203Y3695551D01*
X-9599717Y3701903D01*
X-9592028Y3708006D01*
X-9584143Y3713854D01*
X-9576071Y3719440D01*
X-9567820Y3724760D01*
X-9559400Y3729807D01*
X-9550819Y3734576D01*
X-9542086Y3739061D01*
X-9533212Y3743259D01*
X-9524205Y3747163D01*
X-9515075Y3750771D01*
X-9505831Y3754079D01*
X-9496485Y3757082D01*
X-9487045Y3759777D01*
X-9477522Y3762163D01*
X-9467927Y3764235D01*
X-9458268Y3765992D01*
X-9448557Y3767433D01*
X-9438805Y3768555D01*
X-9429020Y3769357D01*
X-9419215Y3769839D01*
X-9409400Y3770000D01*
X-8409400Y3770000D01*
X-8399584Y3769839D01*
G37*
G36*
X-8349584Y8849839D02*
G01*
X-8339779Y8849357D01*
X-8329994Y8848555D01*
X-8320242Y8847433D01*
X-8310531Y8845992D01*
X-8300872Y8844235D01*
X-8291277Y8842163D01*
X-8281754Y8839777D01*
X-8272314Y8837082D01*
X-8262968Y8834079D01*
X-8253724Y8830771D01*
X-8244594Y8827163D01*
X-8235587Y8823259D01*
X-8226713Y8819061D01*
X-8217980Y8814576D01*
X-8209400Y8809807D01*
X-8200979Y8804760D01*
X-8192728Y8799440D01*
X-8184656Y8793854D01*
X-8176771Y8788006D01*
X-8169082Y8781903D01*
X-8161596Y8775551D01*
X-8154322Y8768959D01*
X-8147267Y8762132D01*
X-8140440Y8755077D01*
X-8133848Y8747803D01*
X-8127496Y8740317D01*
X-8121393Y8732628D01*
X-8115545Y8724743D01*
X-8109959Y8716671D01*
X-8104639Y8708420D01*
X-8099592Y8700000D01*
X-8094823Y8691419D01*
X-8090338Y8682686D01*
X-8086140Y8673812D01*
X-8082236Y8664805D01*
X-8078628Y8655675D01*
X-8075320Y8646431D01*
X-8072317Y8637085D01*
X-8069622Y8627645D01*
X-8067236Y8618122D01*
X-8065164Y8608527D01*
X-8063407Y8598868D01*
X-8061966Y8589157D01*
X-8060844Y8579405D01*
X-8060042Y8569620D01*
X-8059560Y8559815D01*
X-8059400Y8549999D01*
X-8059400Y8150000D01*
X-8059560Y8140184D01*
X-8060042Y8130379D01*
X-8060844Y8120594D01*
X-8061966Y8110842D01*
X-8063407Y8101131D01*
X-8065164Y8091472D01*
X-8067236Y8081877D01*
X-8069622Y8072354D01*
X-8072317Y8062914D01*
X-8075320Y8053568D01*
X-8078628Y8044324D01*
X-8082236Y8035194D01*
X-8086140Y8026187D01*
X-8090338Y8017313D01*
X-8094823Y8008580D01*
X-8099592Y8000000D01*
X-8104639Y7991579D01*
X-8109959Y7983328D01*
X-8115545Y7975256D01*
X-8121393Y7967371D01*
X-8127496Y7959682D01*
X-8133848Y7952196D01*
X-8140440Y7944922D01*
X-8147267Y7937867D01*
X-8154322Y7931040D01*
X-8161596Y7924448D01*
X-8169082Y7918096D01*
X-8176771Y7911993D01*
X-8184656Y7906145D01*
X-8192728Y7900559D01*
X-8200979Y7895239D01*
X-8209400Y7890192D01*
X-8217980Y7885423D01*
X-8226713Y7880938D01*
X-8235587Y7876740D01*
X-8244594Y7872836D01*
X-8253724Y7869228D01*
X-8262968Y7865920D01*
X-8272314Y7862917D01*
X-8281754Y7860222D01*
X-8291277Y7857836D01*
X-8300872Y7855764D01*
X-8310531Y7854007D01*
X-8320242Y7852566D01*
X-8329994Y7851444D01*
X-8339779Y7850642D01*
X-8349584Y7850160D01*
X-8359399Y7850000D01*
X-9459400Y7850000D01*
X-9469215Y7850160D01*
X-9479020Y7850642D01*
X-9488805Y7851444D01*
X-9498557Y7852566D01*
X-9508268Y7854007D01*
X-9517927Y7855764D01*
X-9527522Y7857836D01*
X-9537045Y7860222D01*
X-9546485Y7862917D01*
X-9555831Y7865920D01*
X-9565075Y7869228D01*
X-9574205Y7872836D01*
X-9583212Y7876740D01*
X-9592086Y7880938D01*
X-9600819Y7885423D01*
X-9609399Y7890192D01*
X-9617820Y7895239D01*
X-9626071Y7900559D01*
X-9634143Y7906145D01*
X-9642028Y7911993D01*
X-9649717Y7918096D01*
X-9657203Y7924448D01*
X-9664477Y7931040D01*
X-9671532Y7937867D01*
X-9678359Y7944922D01*
X-9684951Y7952196D01*
X-9691303Y7959682D01*
X-9697406Y7967371D01*
X-9703254Y7975256D01*
X-9708840Y7983328D01*
X-9714160Y7991579D01*
X-9719207Y8000000D01*
X-9723976Y8008580D01*
X-9728461Y8017313D01*
X-9732659Y8026187D01*
X-9736563Y8035194D01*
X-9740171Y8044324D01*
X-9743479Y8053568D01*
X-9746482Y8062914D01*
X-9749177Y8072354D01*
X-9751563Y8081877D01*
X-9753635Y8091472D01*
X-9755392Y8101131D01*
X-9756833Y8110842D01*
X-9757955Y8120594D01*
X-9758757Y8130379D01*
X-9759239Y8140184D01*
X-9759400Y8150000D01*
X-9759400Y8549999D01*
X-9759239Y8559815D01*
X-9758757Y8569620D01*
X-9757955Y8579405D01*
X-9756833Y8589157D01*
X-9755392Y8598868D01*
X-9753635Y8608527D01*
X-9751563Y8618122D01*
X-9749177Y8627645D01*
X-9746482Y8637085D01*
X-9743479Y8646431D01*
X-9740171Y8655675D01*
X-9736563Y8664805D01*
X-9732659Y8673812D01*
X-9728461Y8682686D01*
X-9723976Y8691419D01*
X-9719207Y8700000D01*
X-9714160Y8708420D01*
X-9708840Y8716671D01*
X-9703254Y8724743D01*
X-9697406Y8732628D01*
X-9691303Y8740317D01*
X-9684951Y8747803D01*
X-9678359Y8755077D01*
X-9671532Y8762132D01*
X-9664477Y8768959D01*
X-9657203Y8775551D01*
X-9649717Y8781903D01*
X-9642028Y8788006D01*
X-9634143Y8793854D01*
X-9626071Y8799440D01*
X-9617820Y8804760D01*
X-9609399Y8809807D01*
X-9600819Y8814576D01*
X-9592086Y8819061D01*
X-9583212Y8823259D01*
X-9574205Y8827163D01*
X-9565075Y8830771D01*
X-9555831Y8834079D01*
X-9546485Y8837082D01*
X-9537045Y8839777D01*
X-9527522Y8842163D01*
X-9517927Y8844235D01*
X-9508268Y8845992D01*
X-9498557Y8847433D01*
X-9488805Y8848555D01*
X-9479020Y8849357D01*
X-9469215Y8849839D01*
X-9459400Y8850000D01*
X-8359399Y8850000D01*
X-8349584Y8849839D01*
G37*
G36*
X-7313853Y-4880896D02*
G01*
X-7132990Y-4985317D01*
X-6985317Y-5132990D01*
X-6880896Y-5313853D01*
X-6826844Y-5515579D01*
X-6826844Y-5724420D01*
X-6880896Y-5926146D01*
X-6985317Y-6107009D01*
X-7132990Y-6254682D01*
X-7313853Y-6359103D01*
X-7515579Y-6413155D01*
X-7724420Y-6413155D01*
X-7926146Y-6359103D01*
X-8107009Y-6254682D01*
X-8254682Y-6107009D01*
X-8359103Y-5926146D01*
X-8413155Y-5724420D01*
X-8413155Y-5515579D01*
X-8359103Y-5313853D01*
X-8254682Y-5132990D01*
X-8107009Y-4985317D01*
X-7926146Y-4880896D01*
X-7724420Y-4826844D01*
X-7515579Y-4826844D01*
X-7313853Y-4880896D01*
G37*
G36*
X7926146Y7819103D02*
G01*
X8107009Y7714682D01*
X8254682Y7567009D01*
X8359103Y7386146D01*
X8413155Y7184420D01*
X8413155Y6975579D01*
X8359103Y6773853D01*
X8254682Y6592990D01*
X8107009Y6445317D01*
X7926146Y6340896D01*
X7724420Y6286844D01*
X7515579Y6286844D01*
X7313853Y6340896D01*
X7132990Y6445317D01*
X6985317Y6592990D01*
X6880896Y6773853D01*
X6826844Y6975579D01*
X6826844Y7184420D01*
X6880896Y7386146D01*
X6985317Y7567009D01*
X7132990Y7714682D01*
X7313853Y7819103D01*
X7515579Y7873155D01*
X7724420Y7873155D01*
X7926146Y7819103D01*
G37*
G36*
X2185815Y1604839D02*
G01*
X2195620Y1604357D01*
X2205405Y1603555D01*
X2215157Y1602433D01*
X2224868Y1600992D01*
X2234527Y1599235D01*
X2244122Y1597163D01*
X2253645Y1594777D01*
X2263085Y1592082D01*
X2272431Y1589079D01*
X2281675Y1585771D01*
X2290805Y1582163D01*
X2299812Y1578259D01*
X2308686Y1574061D01*
X2317419Y1569576D01*
X2326000Y1564807D01*
X2334420Y1559760D01*
X2342671Y1554440D01*
X2350743Y1548854D01*
X2358628Y1543006D01*
X2366317Y1536903D01*
X2373803Y1530551D01*
X2381077Y1523959D01*
X2388132Y1517132D01*
X2394959Y1510077D01*
X2401551Y1502803D01*
X2407903Y1495317D01*
X2414006Y1487628D01*
X2419854Y1479743D01*
X2425440Y1471671D01*
X2430760Y1463420D01*
X2435807Y1455000D01*
X2440576Y1446419D01*
X2445061Y1437686D01*
X2449259Y1428812D01*
X2453163Y1419805D01*
X2456771Y1410675D01*
X2460079Y1401431D01*
X2463082Y1392085D01*
X2465777Y1382645D01*
X2468163Y1373122D01*
X2470235Y1363527D01*
X2471992Y1353868D01*
X2473433Y1344157D01*
X2474555Y1334405D01*
X2475357Y1324620D01*
X2475839Y1314815D01*
X2476000Y1305000D01*
X2476000Y-1095000D01*
X2475839Y-1104815D01*
X2475357Y-1114620D01*
X2474555Y-1124405D01*
X2473433Y-1134157D01*
X2471992Y-1143868D01*
X2470235Y-1153527D01*
X2468163Y-1163122D01*
X2465777Y-1172645D01*
X2463082Y-1182085D01*
X2460079Y-1191431D01*
X2456771Y-1200675D01*
X2453163Y-1209805D01*
X2449259Y-1218812D01*
X2445061Y-1227686D01*
X2440576Y-1236419D01*
X2435807Y-1245000D01*
X2430760Y-1253420D01*
X2425440Y-1261671D01*
X2419854Y-1269743D01*
X2414006Y-1277628D01*
X2407903Y-1285317D01*
X2401551Y-1292803D01*
X2394959Y-1300077D01*
X2388132Y-1307132D01*
X2381077Y-1313959D01*
X2373803Y-1320551D01*
X2366317Y-1326903D01*
X2358628Y-1333006D01*
X2350743Y-1338854D01*
X2342671Y-1344440D01*
X2334420Y-1349760D01*
X2326000Y-1354807D01*
X2317419Y-1359576D01*
X2308686Y-1364061D01*
X2299812Y-1368259D01*
X2290805Y-1372163D01*
X2281675Y-1375771D01*
X2272431Y-1379079D01*
X2263085Y-1382082D01*
X2253645Y-1384777D01*
X2244122Y-1387163D01*
X2234527Y-1389235D01*
X2224868Y-1390992D01*
X2215157Y-1392433D01*
X2205405Y-1393555D01*
X2195620Y-1394357D01*
X2185815Y-1394839D01*
X2176000Y-1395000D01*
X-223999Y-1395000D01*
X-233815Y-1394839D01*
X-243620Y-1394357D01*
X-253405Y-1393555D01*
X-263157Y-1392433D01*
X-272868Y-1390992D01*
X-282527Y-1389235D01*
X-292122Y-1387163D01*
X-301645Y-1384777D01*
X-311085Y-1382082D01*
X-320431Y-1379079D01*
X-329675Y-1375771D01*
X-338805Y-1372163D01*
X-347812Y-1368259D01*
X-356686Y-1364061D01*
X-365419Y-1359576D01*
X-374000Y-1354807D01*
X-382420Y-1349760D01*
X-390671Y-1344440D01*
X-398743Y-1338854D01*
X-406628Y-1333006D01*
X-414317Y-1326903D01*
X-421803Y-1320551D01*
X-429077Y-1313959D01*
X-436132Y-1307132D01*
X-442959Y-1300077D01*
X-449551Y-1292803D01*
X-455903Y-1285317D01*
X-462006Y-1277628D01*
X-467854Y-1269743D01*
X-473440Y-1261671D01*
X-478760Y-1253420D01*
X-483807Y-1245000D01*
X-488576Y-1236419D01*
X-493061Y-1227686D01*
X-497259Y-1218812D01*
X-501163Y-1209805D01*
X-504771Y-1200675D01*
X-508079Y-1191431D01*
X-511082Y-1182085D01*
X-513777Y-1172645D01*
X-516163Y-1163122D01*
X-518235Y-1153527D01*
X-519992Y-1143868D01*
X-521433Y-1134157D01*
X-522555Y-1124405D01*
X-523357Y-1114620D01*
X-523839Y-1104815D01*
X-524000Y-1095000D01*
X-524000Y1305000D01*
X-523839Y1314815D01*
X-523357Y1324620D01*
X-522555Y1334405D01*
X-521433Y1344157D01*
X-519992Y1353868D01*
X-518235Y1363527D01*
X-516163Y1373122D01*
X-513777Y1382645D01*
X-511082Y1392085D01*
X-508079Y1401431D01*
X-504771Y1410675D01*
X-501163Y1419805D01*
X-497259Y1428812D01*
X-493061Y1437686D01*
X-488576Y1446419D01*
X-483807Y1455000D01*
X-478760Y1463420D01*
X-473440Y1471671D01*
X-467854Y1479743D01*
X-462006Y1487628D01*
X-455903Y1495317D01*
X-449551Y1502803D01*
X-442959Y1510077D01*
X-436132Y1517132D01*
X-429077Y1523959D01*
X-421803Y1530551D01*
X-414317Y1536903D01*
X-406628Y1543006D01*
X-398743Y1548854D01*
X-390671Y1554440D01*
X-382420Y1559760D01*
X-374000Y1564807D01*
X-365419Y1569576D01*
X-356686Y1574061D01*
X-347812Y1578259D01*
X-338805Y1582163D01*
X-329675Y1585771D01*
X-320431Y1589079D01*
X-311085Y1592082D01*
X-301645Y1594777D01*
X-292122Y1597163D01*
X-282527Y1599235D01*
X-272868Y1600992D01*
X-263157Y1602433D01*
X-253405Y1603555D01*
X-243620Y1604357D01*
X-233815Y1604839D01*
X-223999Y1605000D01*
X2176000Y1605000D01*
X2185815Y1604839D01*
G37*
G36*
X7926146Y-4880896D02*
G01*
X8107009Y-4985317D01*
X8254682Y-5132990D01*
X8359103Y-5313853D01*
X8413155Y-5515579D01*
X8413155Y-5724420D01*
X8359103Y-5926146D01*
X8254682Y-6107009D01*
X8107009Y-6254682D01*
X7926146Y-6359103D01*
X7724420Y-6413155D01*
X7515579Y-6413155D01*
X7313853Y-6359103D01*
X7132990Y-6254682D01*
X6985317Y-6107009D01*
X6880896Y-5926146D01*
X6826844Y-5724420D01*
X6826844Y-5515579D01*
X6880896Y-5313853D01*
X6985317Y-5132990D01*
X7132990Y-4985317D01*
X7313853Y-4880896D01*
X7515579Y-4826844D01*
X7724420Y-4826844D01*
X7926146Y-4880896D01*
G37*
G36*
X9419215Y-3850160D02*
G01*
X9429020Y-3850642D01*
X9438805Y-3851444D01*
X9448557Y-3852566D01*
X9458268Y-3854007D01*
X9467927Y-3855764D01*
X9477522Y-3857836D01*
X9487045Y-3860222D01*
X9496485Y-3862917D01*
X9505831Y-3865920D01*
X9515075Y-3869228D01*
X9524205Y-3872836D01*
X9533212Y-3876740D01*
X9542086Y-3880938D01*
X9550819Y-3885423D01*
X9559400Y-3890192D01*
X9567820Y-3895239D01*
X9576071Y-3900559D01*
X9584143Y-3906145D01*
X9592028Y-3911993D01*
X9599717Y-3918096D01*
X9607203Y-3924448D01*
X9614477Y-3931040D01*
X9621532Y-3937867D01*
X9628359Y-3944922D01*
X9634951Y-3952196D01*
X9641303Y-3959682D01*
X9647406Y-3967371D01*
X9653254Y-3975256D01*
X9658840Y-3983328D01*
X9664160Y-3991579D01*
X9669207Y-3999999D01*
X9673976Y-4008580D01*
X9678461Y-4017313D01*
X9682659Y-4026187D01*
X9686563Y-4035194D01*
X9690171Y-4044324D01*
X9693479Y-4053568D01*
X9696482Y-4062914D01*
X9699177Y-4072354D01*
X9701563Y-4081877D01*
X9703635Y-4091472D01*
X9705392Y-4101131D01*
X9706833Y-4110842D01*
X9707955Y-4120594D01*
X9708757Y-4130379D01*
X9709239Y-4140184D01*
X9709400Y-4149999D01*
X9709400Y-4550000D01*
X9709239Y-4559815D01*
X9708757Y-4569620D01*
X9707955Y-4579405D01*
X9706833Y-4589157D01*
X9705392Y-4598868D01*
X9703635Y-4608527D01*
X9701563Y-4618122D01*
X9699177Y-4627645D01*
X9696482Y-4637085D01*
X9693479Y-4646431D01*
X9690171Y-4655675D01*
X9686563Y-4664805D01*
X9682659Y-4673812D01*
X9678461Y-4682686D01*
X9673976Y-4691419D01*
X9669207Y-4699999D01*
X9664160Y-4708420D01*
X9658840Y-4716671D01*
X9653254Y-4724743D01*
X9647406Y-4732628D01*
X9641303Y-4740317D01*
X9634951Y-4747803D01*
X9628359Y-4755077D01*
X9621532Y-4762132D01*
X9614477Y-4768959D01*
X9607203Y-4775551D01*
X9599717Y-4781903D01*
X9592028Y-4788006D01*
X9584143Y-4793854D01*
X9576071Y-4799440D01*
X9567820Y-4804760D01*
X9559400Y-4809807D01*
X9550819Y-4814576D01*
X9542086Y-4819061D01*
X9533212Y-4823259D01*
X9524205Y-4827163D01*
X9515075Y-4830771D01*
X9505831Y-4834079D01*
X9496485Y-4837082D01*
X9487045Y-4839777D01*
X9477522Y-4842163D01*
X9467927Y-4844235D01*
X9458268Y-4845992D01*
X9448557Y-4847433D01*
X9438805Y-4848555D01*
X9429020Y-4849357D01*
X9419215Y-4849839D01*
X9409400Y-4850000D01*
X8409400Y-4850000D01*
X8399584Y-4849839D01*
X8389779Y-4849357D01*
X8379994Y-4848555D01*
X8370242Y-4847433D01*
X8360531Y-4845992D01*
X8350872Y-4844235D01*
X8341277Y-4842163D01*
X8331754Y-4839777D01*
X8322314Y-4837082D01*
X8312968Y-4834079D01*
X8303724Y-4830771D01*
X8294594Y-4827163D01*
X8285587Y-4823259D01*
X8276713Y-4819061D01*
X8267980Y-4814576D01*
X8259399Y-4809807D01*
X8250979Y-4804760D01*
X8242728Y-4799440D01*
X8234656Y-4793854D01*
X8226771Y-4788006D01*
X8219082Y-4781903D01*
X8211596Y-4775551D01*
X8204322Y-4768959D01*
X8197267Y-4762132D01*
X8190440Y-4755077D01*
X8183848Y-4747803D01*
X8177496Y-4740317D01*
X8171393Y-4732628D01*
X8165545Y-4724743D01*
X8159959Y-4716671D01*
X8154639Y-4708420D01*
X8149592Y-4699999D01*
X8144823Y-4691419D01*
X8140338Y-4682686D01*
X8136140Y-4673812D01*
X8132236Y-4664805D01*
X8128628Y-4655675D01*
X8125320Y-4646431D01*
X8122317Y-4637085D01*
X8119622Y-4627645D01*
X8117236Y-4618122D01*
X8115164Y-4608527D01*
X8113407Y-4598868D01*
X8111966Y-4589157D01*
X8110844Y-4579405D01*
X8110042Y-4569620D01*
X8109560Y-4559815D01*
X8109399Y-4550000D01*
X8109399Y-4149999D01*
X8109560Y-4140184D01*
X8110042Y-4130379D01*
X8110844Y-4120594D01*
X8111966Y-4110842D01*
X8113407Y-4101131D01*
X8115164Y-4091472D01*
X8117236Y-4081877D01*
X8119622Y-4072354D01*
X8122317Y-4062914D01*
X8125320Y-4053568D01*
X8128628Y-4044324D01*
X8132236Y-4035194D01*
X8136140Y-4026187D01*
X8140338Y-4017313D01*
X8144823Y-4008580D01*
X8149592Y-3999999D01*
X8154639Y-3991579D01*
X8159959Y-3983328D01*
X8165545Y-3975256D01*
X8171393Y-3967371D01*
X8177496Y-3959682D01*
X8183848Y-3952196D01*
X8190440Y-3944922D01*
X8197267Y-3937867D01*
X8204322Y-3931040D01*
X8211596Y-3924448D01*
X8219082Y-3918096D01*
X8226771Y-3911993D01*
X8234656Y-3906145D01*
X8242728Y-3900559D01*
X8250979Y-3895239D01*
X8259399Y-3890192D01*
X8267980Y-3885423D01*
X8276713Y-3880938D01*
X8285587Y-3876740D01*
X8294594Y-3872836D01*
X8303724Y-3869228D01*
X8312968Y-3865920D01*
X8322314Y-3862917D01*
X8331754Y-3860222D01*
X8341277Y-3857836D01*
X8350872Y-3855764D01*
X8360531Y-3854007D01*
X8370242Y-3852566D01*
X8379994Y-3851444D01*
X8389779Y-3850642D01*
X8399584Y-3850160D01*
X8409400Y-3849999D01*
X9409400Y-3849999D01*
X9419215Y-3850160D01*
G37*
G36*
X7926146Y5279103D02*
G01*
X8107009Y5174682D01*
X8254682Y5027009D01*
X8359103Y4846146D01*
X8413155Y4644420D01*
X8413155Y4435579D01*
X8359103Y4233853D01*
X8254682Y4052990D01*
X8107009Y3905317D01*
X7926146Y3800896D01*
X7724420Y3746844D01*
X7515579Y3746844D01*
X7313853Y3800896D01*
X7132990Y3905317D01*
X6985317Y4052990D01*
X6880896Y4233853D01*
X6826844Y4435579D01*
X6826844Y4644420D01*
X6880896Y4846146D01*
X6985317Y5027009D01*
X7132990Y5174682D01*
X7313853Y5279103D01*
X7515579Y5333155D01*
X7724420Y5333155D01*
X7926146Y5279103D01*
G37*
G36*
X-766984Y-1976160D02*
G01*
X-757179Y-1976642D01*
X-747394Y-1977444D01*
X-737642Y-1978566D01*
X-727931Y-1980007D01*
X-718272Y-1981764D01*
X-708677Y-1983836D01*
X-699154Y-1986222D01*
X-689714Y-1988917D01*
X-680368Y-1991920D01*
X-671124Y-1995228D01*
X-661994Y-1998836D01*
X-652987Y-2002740D01*
X-644113Y-2006938D01*
X-635380Y-2011423D01*
X-626800Y-2016192D01*
X-618379Y-2021239D01*
X-610128Y-2026559D01*
X-602056Y-2032145D01*
X-594171Y-2037993D01*
X-586482Y-2044096D01*
X-578996Y-2050448D01*
X-571722Y-2057040D01*
X-564667Y-2063867D01*
X-557840Y-2070922D01*
X-551248Y-2078196D01*
X-544896Y-2085682D01*
X-538793Y-2093371D01*
X-532945Y-2101256D01*
X-527359Y-2109328D01*
X-522039Y-2117579D01*
X-516992Y-2126000D01*
X-512223Y-2134580D01*
X-507738Y-2143313D01*
X-503540Y-2152187D01*
X-499636Y-2161194D01*
X-496028Y-2170324D01*
X-492720Y-2179568D01*
X-489717Y-2188914D01*
X-487022Y-2198354D01*
X-484636Y-2207877D01*
X-482564Y-2217472D01*
X-480807Y-2227131D01*
X-479366Y-2236842D01*
X-478244Y-2246594D01*
X-477442Y-2256379D01*
X-476960Y-2266184D01*
X-476800Y-2276000D01*
X-476800Y-3676000D01*
X-476960Y-3685815D01*
X-477442Y-3695620D01*
X-478244Y-3705405D01*
X-479366Y-3715157D01*
X-480807Y-3724868D01*
X-482564Y-3734527D01*
X-484636Y-3744122D01*
X-487022Y-3753645D01*
X-489717Y-3763085D01*
X-492720Y-3772431D01*
X-496028Y-3781675D01*
X-499636Y-3790805D01*
X-503540Y-3799812D01*
X-507738Y-3808686D01*
X-512223Y-3817419D01*
X-516992Y-3826000D01*
X-522039Y-3834420D01*
X-527359Y-3842671D01*
X-532945Y-3850743D01*
X-538793Y-3858628D01*
X-544896Y-3866317D01*
X-551248Y-3873803D01*
X-557840Y-3881077D01*
X-564667Y-3888132D01*
X-571722Y-3894959D01*
X-578996Y-3901551D01*
X-586482Y-3907903D01*
X-594171Y-3914006D01*
X-602056Y-3919854D01*
X-610128Y-3925440D01*
X-618379Y-3930760D01*
X-626800Y-3935807D01*
X-635380Y-3940576D01*
X-644113Y-3945061D01*
X-652987Y-3949259D01*
X-661994Y-3953163D01*
X-671124Y-3956771D01*
X-680368Y-3960079D01*
X-689714Y-3963082D01*
X-699154Y-3965777D01*
X-708677Y-3968163D01*
X-718272Y-3970235D01*
X-727931Y-3971992D01*
X-737642Y-3973433D01*
X-747394Y-3974555D01*
X-757179Y-3975357D01*
X-766984Y-3975839D01*
X-776800Y-3976000D01*
X-1176800Y-3976000D01*
X-1186615Y-3975839D01*
X-1196420Y-3975357D01*
X-1206205Y-3974555D01*
X-1215957Y-3973433D01*
X-1225668Y-3971992D01*
X-1235327Y-3970235D01*
X-1244922Y-3968163D01*
X-1254445Y-3965777D01*
X-1263885Y-3963082D01*
X-1273231Y-3960079D01*
X-1282475Y-3956771D01*
X-1291605Y-3953163D01*
X-1300612Y-3949259D01*
X-1309486Y-3945061D01*
X-1318219Y-3940576D01*
X-1326800Y-3935807D01*
X-1335220Y-3930760D01*
X-1343471Y-3925440D01*
X-1351543Y-3919854D01*
X-1359428Y-3914006D01*
X-1367117Y-3907903D01*
X-1374603Y-3901551D01*
X-1381877Y-3894959D01*
X-1388932Y-3888132D01*
X-1395759Y-3881077D01*
X-1402351Y-3873803D01*
X-1408703Y-3866317D01*
X-1414806Y-3858628D01*
X-1420654Y-3850743D01*
X-1426240Y-3842671D01*
X-1431560Y-3834420D01*
X-1436607Y-3826000D01*
X-1441376Y-3817419D01*
X-1445861Y-3808686D01*
X-1450059Y-3799812D01*
X-1453963Y-3790805D01*
X-1457571Y-3781675D01*
X-1460879Y-3772431D01*
X-1463882Y-3763085D01*
X-1466577Y-3753645D01*
X-1468963Y-3744122D01*
X-1471035Y-3734527D01*
X-1472792Y-3724868D01*
X-1474233Y-3715157D01*
X-1475355Y-3705405D01*
X-1476157Y-3695620D01*
X-1476639Y-3685815D01*
X-1476800Y-3676000D01*
X-1476800Y-2276000D01*
X-1476639Y-2266184D01*
X-1476157Y-2256379D01*
X-1475355Y-2246594D01*
X-1474233Y-2236842D01*
X-1472792Y-2227131D01*
X-1471035Y-2217472D01*
X-1468963Y-2207877D01*
X-1466577Y-2198354D01*
X-1463882Y-2188914D01*
X-1460879Y-2179568D01*
X-1457571Y-2170324D01*
X-1453963Y-2161194D01*
X-1450059Y-2152187D01*
X-1445861Y-2143313D01*
X-1441376Y-2134580D01*
X-1436607Y-2126000D01*
X-1431560Y-2117579D01*
X-1426240Y-2109328D01*
X-1420654Y-2101256D01*
X-1414806Y-2093371D01*
X-1408703Y-2085682D01*
X-1402351Y-2078196D01*
X-1395759Y-2070922D01*
X-1388932Y-2063867D01*
X-1381877Y-2057040D01*
X-1374603Y-2050448D01*
X-1367117Y-2044096D01*
X-1359428Y-2037993D01*
X-1351543Y-2032145D01*
X-1343471Y-2026559D01*
X-1335220Y-2021239D01*
X-1326800Y-2016192D01*
X-1318219Y-2011423D01*
X-1309486Y-2006938D01*
X-1300612Y-2002740D01*
X-1291605Y-1998836D01*
X-1282475Y-1995228D01*
X-1273231Y-1991920D01*
X-1263885Y-1988917D01*
X-1254445Y-1986222D01*
X-1244922Y-1983836D01*
X-1235327Y-1981764D01*
X-1225668Y-1980007D01*
X-1215957Y-1978566D01*
X-1206205Y-1977444D01*
X-1196420Y-1976642D01*
X-1186615Y-1976160D01*
X-1176800Y-1976000D01*
X-776799Y-1976000D01*
X-766984Y-1976160D01*
G37*
G36*
X7926146Y-2340896D02*
G01*
X8107009Y-2445317D01*
X8254682Y-2592990D01*
X8359103Y-2773853D01*
X8413155Y-2975579D01*
X8413155Y-3184420D01*
X8359103Y-3386146D01*
X8254682Y-3567009D01*
X8107009Y-3714682D01*
X7926146Y-3819103D01*
X7724420Y-3873155D01*
X7515579Y-3873155D01*
X7313853Y-3819103D01*
X7132990Y-3714682D01*
X6985317Y-3567009D01*
X6880896Y-3386146D01*
X6826844Y-3184420D01*
X6826844Y-2975579D01*
X6880896Y-2773853D01*
X6985317Y-2592990D01*
X7132990Y-2445317D01*
X7313853Y-2340896D01*
X7515579Y-2286844D01*
X7724420Y-2286844D01*
X7926146Y-2340896D01*
G37*
G36*
X-7313853Y-2340896D02*
G01*
X-7132990Y-2445317D01*
X-6985317Y-2592990D01*
X-6880896Y-2773853D01*
X-6826844Y-2975579D01*
X-6826844Y-3184420D01*
X-6880896Y-3386146D01*
X-6985317Y-3567009D01*
X-7132990Y-3714682D01*
X-7313853Y-3819103D01*
X-7515579Y-3873155D01*
X-7724420Y-3873155D01*
X-7926146Y-3819103D01*
X-8107009Y-3714682D01*
X-8254682Y-3567009D01*
X-8359103Y-3386146D01*
X-8413155Y-3184420D01*
X-8413155Y-2975579D01*
X-8359103Y-2773853D01*
X-8254682Y-2592990D01*
X-8107009Y-2445317D01*
X-7926146Y-2340896D01*
X-7724420Y-2286844D01*
X-7515579Y-2286844D01*
X-7313853Y-2340896D01*
G37*
G36*
X7926146Y199103D02*
G01*
X8107009Y94682D01*
X8254682Y-52990D01*
X8359103Y-233853D01*
X8413155Y-435579D01*
X8413155Y-644420D01*
X8359103Y-846146D01*
X8254682Y-1027009D01*
X8107009Y-1174682D01*
X7926146Y-1279103D01*
X7724420Y-1333155D01*
X7515579Y-1333155D01*
X7313853Y-1279103D01*
X7132990Y-1174682D01*
X6985317Y-1027009D01*
X6880896Y-846146D01*
X6826844Y-644420D01*
X6826844Y-435579D01*
X6880896Y-233853D01*
X6985317Y-52990D01*
X7132990Y94682D01*
X7313853Y199103D01*
X7515579Y253155D01*
X7724420Y253155D01*
X7926146Y199103D01*
G37*
G36*
X7926146Y2739103D02*
G01*
X8107009Y2634682D01*
X8254682Y2487009D01*
X8359103Y2306146D01*
X8413155Y2104420D01*
X8413155Y1895579D01*
X8359103Y1693853D01*
X8254682Y1512990D01*
X8107009Y1365317D01*
X7926146Y1260896D01*
X7724420Y1206844D01*
X7515579Y1206844D01*
X7313853Y1260896D01*
X7132990Y1365317D01*
X6985317Y1512990D01*
X6880896Y1693853D01*
X6826844Y1895579D01*
X6826844Y2104420D01*
X6880896Y2306146D01*
X6985317Y2487009D01*
X7132990Y2634682D01*
X7313853Y2739103D01*
X7515579Y2793155D01*
X7724420Y2793155D01*
X7926146Y2739103D01*
G37*
G36*
X-7313853Y2739103D02*
G01*
X-7132990Y2634682D01*
X-6985317Y2487009D01*
X-6880896Y2306146D01*
X-6826844Y2104420D01*
X-6826844Y1895579D01*
X-6880896Y1693853D01*
X-6985317Y1512990D01*
X-7132990Y1365317D01*
X-7313853Y1260896D01*
X-7515579Y1206844D01*
X-7724420Y1206844D01*
X-7926146Y1260896D01*
X-8107009Y1365317D01*
X-8254682Y1512990D01*
X-8359103Y1693853D01*
X-8413155Y1895579D01*
X-8413155Y2104420D01*
X-8359103Y2306146D01*
X-8254682Y2487009D01*
X-8107009Y2634682D01*
X-7926146Y2739103D01*
X-7724420Y2793155D01*
X-7515579Y2793155D01*
X-7313853Y2739103D01*
G37*
G36*
X-7313853Y5279103D02*
G01*
X-7132990Y5174682D01*
X-6985317Y5027009D01*
X-6880896Y4846146D01*
X-6826844Y4644420D01*
X-6826844Y4435579D01*
X-6880896Y4233853D01*
X-6985317Y4052990D01*
X-7132990Y3905317D01*
X-7313853Y3800896D01*
X-7515579Y3746844D01*
X-7724420Y3746844D01*
X-7926146Y3800896D01*
X-8107009Y3905317D01*
X-8254682Y4052990D01*
X-8359103Y4233853D01*
X-8413155Y4435579D01*
X-8413155Y4644420D01*
X-8359103Y4846146D01*
X-8254682Y5027009D01*
X-8107009Y5174682D01*
X-7926146Y5279103D01*
X-7724420Y5333155D01*
X-7515579Y5333155D01*
X-7313853Y5279103D01*
G37*
G36*
X-8399584Y1229839D02*
G01*
X-8389779Y1229357D01*
X-8379994Y1228555D01*
X-8370242Y1227433D01*
X-8360531Y1225992D01*
X-8350872Y1224235D01*
X-8341277Y1222163D01*
X-8331754Y1219777D01*
X-8322314Y1217082D01*
X-8312968Y1214079D01*
X-8303724Y1210771D01*
X-8294594Y1207163D01*
X-8285587Y1203259D01*
X-8276713Y1199061D01*
X-8267980Y1194576D01*
X-8259399Y1189807D01*
X-8250979Y1184760D01*
X-8242728Y1179440D01*
X-8234656Y1173854D01*
X-8226771Y1168006D01*
X-8219082Y1161903D01*
X-8211596Y1155551D01*
X-8204322Y1148959D01*
X-8197267Y1142132D01*
X-8190440Y1135077D01*
X-8183848Y1127803D01*
X-8177496Y1120317D01*
X-8171393Y1112628D01*
X-8165545Y1104743D01*
X-8159959Y1096671D01*
X-8154639Y1088420D01*
X-8149592Y1080000D01*
X-8144823Y1071419D01*
X-8140338Y1062686D01*
X-8136140Y1053812D01*
X-8132236Y1044805D01*
X-8128628Y1035675D01*
X-8125320Y1026431D01*
X-8122317Y1017085D01*
X-8119622Y1007645D01*
X-8117236Y998122D01*
X-8115164Y988527D01*
X-8113407Y978868D01*
X-8111966Y969157D01*
X-8110844Y959405D01*
X-8110042Y949620D01*
X-8109560Y939815D01*
X-8109399Y929999D01*
X-8109399Y530000D01*
X-8109560Y520184D01*
X-8110042Y510379D01*
X-8110844Y500594D01*
X-8111966Y490842D01*
X-8113407Y481131D01*
X-8115164Y471472D01*
X-8117236Y461877D01*
X-8119622Y452354D01*
X-8122317Y442914D01*
X-8125320Y433568D01*
X-8128628Y424324D01*
X-8132236Y415194D01*
X-8136140Y406187D01*
X-8140338Y397313D01*
X-8144823Y388580D01*
X-8149592Y380000D01*
X-8154639Y371579D01*
X-8159959Y363328D01*
X-8165545Y355256D01*
X-8171393Y347371D01*
X-8177496Y339682D01*
X-8183848Y332196D01*
X-8190440Y324922D01*
X-8197267Y317867D01*
X-8204322Y311040D01*
X-8211596Y304448D01*
X-8219082Y298096D01*
X-8226771Y291993D01*
X-8234656Y286145D01*
X-8242728Y280559D01*
X-8250979Y275239D01*
X-8259399Y270192D01*
X-8267980Y265423D01*
X-8276713Y260938D01*
X-8285587Y256740D01*
X-8294594Y252836D01*
X-8303724Y249228D01*
X-8312968Y245920D01*
X-8322314Y242917D01*
X-8331754Y240222D01*
X-8341277Y237836D01*
X-8350872Y235764D01*
X-8360531Y234007D01*
X-8370242Y232566D01*
X-8379994Y231444D01*
X-8389779Y230642D01*
X-8399584Y230160D01*
X-8409400Y229999D01*
X-9409400Y229999D01*
X-9419215Y230160D01*
X-9429020Y230642D01*
X-9438805Y231444D01*
X-9448557Y232566D01*
X-9458268Y234007D01*
X-9467927Y235764D01*
X-9477522Y237836D01*
X-9487045Y240222D01*
X-9496485Y242917D01*
X-9505831Y245920D01*
X-9515075Y249228D01*
X-9524205Y252836D01*
X-9533212Y256740D01*
X-9542086Y260938D01*
X-9550819Y265423D01*
X-9559400Y270192D01*
X-9567820Y275239D01*
X-9576071Y280559D01*
X-9584143Y286145D01*
X-9592028Y291993D01*
X-9599717Y298096D01*
X-9607203Y304448D01*
X-9614477Y311040D01*
X-9621532Y317867D01*
X-9628359Y324922D01*
X-9634951Y332196D01*
X-9641303Y339682D01*
X-9647406Y347371D01*
X-9653254Y355256D01*
X-9658840Y363328D01*
X-9664160Y371579D01*
X-9669207Y380000D01*
X-9673976Y388580D01*
X-9678461Y397313D01*
X-9682659Y406187D01*
X-9686563Y415194D01*
X-9690171Y424324D01*
X-9693479Y433568D01*
X-9696482Y442914D01*
X-9699177Y452354D01*
X-9701563Y461877D01*
X-9703635Y471472D01*
X-9705392Y481131D01*
X-9706833Y490842D01*
X-9707955Y500594D01*
X-9708757Y510379D01*
X-9709239Y520184D01*
X-9709400Y530000D01*
X-9709400Y929999D01*
X-9709239Y939815D01*
X-9708757Y949620D01*
X-9707955Y959405D01*
X-9706833Y969157D01*
X-9705392Y978868D01*
X-9703635Y988527D01*
X-9701563Y998122D01*
X-9699177Y1007645D01*
X-9696482Y1017085D01*
X-9693479Y1026431D01*
X-9690171Y1035675D01*
X-9686563Y1044805D01*
X-9682659Y1053812D01*
X-9678461Y1062686D01*
X-9673976Y1071419D01*
X-9669207Y1080000D01*
X-9664160Y1088420D01*
X-9658840Y1096671D01*
X-9653254Y1104743D01*
X-9647406Y1112628D01*
X-9641303Y1120317D01*
X-9634951Y1127803D01*
X-9628359Y1135077D01*
X-9621532Y1142132D01*
X-9614477Y1148959D01*
X-9607203Y1155551D01*
X-9599717Y1161903D01*
X-9592028Y1168006D01*
X-9584143Y1173854D01*
X-9576071Y1179440D01*
X-9567820Y1184760D01*
X-9559400Y1189807D01*
X-9550819Y1194576D01*
X-9542086Y1199061D01*
X-9533212Y1203259D01*
X-9524205Y1207163D01*
X-9515075Y1210771D01*
X-9505831Y1214079D01*
X-9496485Y1217082D01*
X-9487045Y1219777D01*
X-9477522Y1222163D01*
X-9467927Y1224235D01*
X-9458268Y1225992D01*
X-9448557Y1227433D01*
X-9438805Y1228555D01*
X-9429020Y1229357D01*
X-9419215Y1229839D01*
X-9409400Y1230000D01*
X-8409400Y1230000D01*
X-8399584Y1229839D01*
G37*
G36*
X-7313853Y10359103D02*
G01*
X-7132990Y10254682D01*
X-6985317Y10107009D01*
X-6880896Y9926146D01*
X-6826844Y9724420D01*
X-6826844Y9515579D01*
X-6880896Y9313853D01*
X-6985317Y9132990D01*
X-7132990Y8985317D01*
X-7313853Y8880896D01*
X-7515579Y8826844D01*
X-7724420Y8826844D01*
X-7926146Y8880896D01*
X-8107009Y8985317D01*
X-8254682Y9132990D01*
X-8359103Y9313853D01*
X-8413155Y9515579D01*
X-8413155Y9724420D01*
X-8359103Y9926146D01*
X-8254682Y10107009D01*
X-8107009Y10254682D01*
X-7926146Y10359103D01*
X-7724420Y10413155D01*
X-7515579Y10413155D01*
X-7313853Y10359103D01*
G37*
G36*
X-8399584Y6309839D02*
G01*
X-8389779Y6309357D01*
X-8379994Y6308555D01*
X-8370242Y6307433D01*
X-8360531Y6305992D01*
X-8350872Y6304235D01*
X-8341277Y6302163D01*
X-8331754Y6299777D01*
X-8322314Y6297082D01*
X-8312968Y6294079D01*
X-8303724Y6290771D01*
X-8294594Y6287163D01*
X-8285587Y6283259D01*
X-8276713Y6279061D01*
X-8267980Y6274576D01*
X-8259399Y6269807D01*
X-8250979Y6264760D01*
X-8242728Y6259440D01*
X-8234656Y6253854D01*
X-8226771Y6248006D01*
X-8219082Y6241903D01*
X-8211596Y6235551D01*
X-8204322Y6228959D01*
X-8197267Y6222132D01*
X-8190440Y6215077D01*
X-8183848Y6207803D01*
X-8177496Y6200317D01*
X-8171393Y6192628D01*
X-8165545Y6184743D01*
X-8159959Y6176671D01*
X-8154639Y6168420D01*
X-8149592Y6159999D01*
X-8144823Y6151419D01*
X-8140338Y6142686D01*
X-8136140Y6133812D01*
X-8132236Y6124805D01*
X-8128628Y6115675D01*
X-8125320Y6106431D01*
X-8122317Y6097085D01*
X-8119622Y6087645D01*
X-8117236Y6078122D01*
X-8115164Y6068527D01*
X-8113407Y6058868D01*
X-8111966Y6049157D01*
X-8110844Y6039405D01*
X-8110042Y6029620D01*
X-8109560Y6019815D01*
X-8109399Y6010000D01*
X-8109399Y5609999D01*
X-8109560Y5600184D01*
X-8110042Y5590379D01*
X-8110844Y5580594D01*
X-8111966Y5570842D01*
X-8113407Y5561131D01*
X-8115164Y5551472D01*
X-8117236Y5541877D01*
X-8119622Y5532354D01*
X-8122317Y5522914D01*
X-8125320Y5513568D01*
X-8128628Y5504324D01*
X-8132236Y5495194D01*
X-8136140Y5486187D01*
X-8140338Y5477313D01*
X-8144823Y5468580D01*
X-8149592Y5460000D01*
X-8154639Y5451579D01*
X-8159959Y5443328D01*
X-8165545Y5435256D01*
X-8171393Y5427371D01*
X-8177496Y5419682D01*
X-8183848Y5412196D01*
X-8190440Y5404922D01*
X-8197267Y5397867D01*
X-8204322Y5391040D01*
X-8211596Y5384448D01*
X-8219082Y5378096D01*
X-8226771Y5371993D01*
X-8234656Y5366145D01*
X-8242728Y5360559D01*
X-8250979Y5355239D01*
X-8259399Y5350192D01*
X-8267980Y5345423D01*
X-8276713Y5340938D01*
X-8285587Y5336740D01*
X-8294594Y5332836D01*
X-8303724Y5329228D01*
X-8312968Y5325920D01*
X-8322314Y5322917D01*
X-8331754Y5320222D01*
X-8341277Y5317836D01*
X-8350872Y5315764D01*
X-8360531Y5314007D01*
X-8370242Y5312566D01*
X-8379994Y5311444D01*
X-8389779Y5310642D01*
X-8399584Y5310160D01*
X-8409400Y5310000D01*
X-9409400Y5310000D01*
X-9419215Y5310160D01*
X-9429020Y5310642D01*
X-9438805Y5311444D01*
X-9448557Y5312566D01*
X-9458268Y5314007D01*
X-9467927Y5315764D01*
X-9477522Y5317836D01*
X-9487045Y5320222D01*
X-9496485Y5322917D01*
X-9505831Y5325920D01*
X-9515075Y5329228D01*
X-9524205Y5332836D01*
X-9533212Y5336740D01*
X-9542086Y5340938D01*
X-9550819Y5345423D01*
X-9559400Y5350192D01*
X-9567820Y5355239D01*
X-9576071Y5360559D01*
X-9584143Y5366145D01*
X-9592028Y5371993D01*
X-9599717Y5378096D01*
X-9607203Y5384448D01*
X-9614477Y5391040D01*
X-9621532Y5397867D01*
X-9628359Y5404922D01*
X-9634951Y5412196D01*
X-9641303Y5419682D01*
X-9647406Y5427371D01*
X-9653254Y5435256D01*
X-9658840Y5443328D01*
X-9664160Y5451579D01*
X-9669207Y5460000D01*
X-9673976Y5468580D01*
X-9678461Y5477313D01*
X-9682659Y5486187D01*
X-9686563Y5495194D01*
X-9690171Y5504324D01*
X-9693479Y5513568D01*
X-9696482Y5522914D01*
X-9699177Y5532354D01*
X-9701563Y5541877D01*
X-9703635Y5551472D01*
X-9705392Y5561131D01*
X-9706833Y5570842D01*
X-9707955Y5580594D01*
X-9708757Y5590379D01*
X-9709239Y5600184D01*
X-9709400Y5609999D01*
X-9709400Y6010000D01*
X-9709239Y6019815D01*
X-9708757Y6029620D01*
X-9707955Y6039405D01*
X-9706833Y6049157D01*
X-9705392Y6058868D01*
X-9703635Y6068527D01*
X-9701563Y6078122D01*
X-9699177Y6087645D01*
X-9696482Y6097085D01*
X-9693479Y6106431D01*
X-9690171Y6115675D01*
X-9686563Y6124805D01*
X-9682659Y6133812D01*
X-9678461Y6142686D01*
X-9673976Y6151419D01*
X-9669207Y6159999D01*
X-9664160Y6168420D01*
X-9658840Y6176671D01*
X-9653254Y6184743D01*
X-9647406Y6192628D01*
X-9641303Y6200317D01*
X-9634951Y6207803D01*
X-9628359Y6215077D01*
X-9621532Y6222132D01*
X-9614477Y6228959D01*
X-9607203Y6235551D01*
X-9599717Y6241903D01*
X-9592028Y6248006D01*
X-9584143Y6253854D01*
X-9576071Y6259440D01*
X-9567820Y6264760D01*
X-9559400Y6269807D01*
X-9550819Y6274576D01*
X-9542086Y6279061D01*
X-9533212Y6283259D01*
X-9524205Y6287163D01*
X-9515075Y6290771D01*
X-9505831Y6294079D01*
X-9496485Y6297082D01*
X-9487045Y6299777D01*
X-9477522Y6302163D01*
X-9467927Y6304235D01*
X-9458268Y6305992D01*
X-9448557Y6307433D01*
X-9438805Y6308555D01*
X-9429020Y6309357D01*
X-9419215Y6309839D01*
X-9409400Y6310000D01*
X-8409400Y6310000D01*
X-8399584Y6309839D01*
G37*
G36*
X7926146Y10359103D02*
G01*
X8107009Y10254682D01*
X8254682Y10107009D01*
X8359103Y9926146D01*
X8413155Y9724420D01*
X8413155Y9515579D01*
X8359103Y9313853D01*
X8254682Y9132990D01*
X8107009Y8985317D01*
X7926146Y8880896D01*
X7724420Y8826844D01*
X7515579Y8826844D01*
X7313853Y8880896D01*
X7132990Y8985317D01*
X6985317Y9132990D01*
X6880896Y9313853D01*
X6826844Y9515579D01*
X6826844Y9724420D01*
X6880896Y9926146D01*
X6985317Y10107009D01*
X7132990Y10254682D01*
X7313853Y10359103D01*
X7515579Y10413155D01*
X7724420Y10413155D01*
X7926146Y10359103D01*
G37*
G36*
X-7313853Y199103D02*
G01*
X-7132990Y94682D01*
X-6985317Y-52990D01*
X-6880896Y-233853D01*
X-6826844Y-435579D01*
X-6826844Y-644420D01*
X-6880896Y-846146D01*
X-6985317Y-1027009D01*
X-7132990Y-1174682D01*
X-7313853Y-1279103D01*
X-7515579Y-1333155D01*
X-7724420Y-1333155D01*
X-7926146Y-1279103D01*
X-8107009Y-1174682D01*
X-8254682Y-1027009D01*
X-8359103Y-846146D01*
X-8413155Y-644420D01*
X-8413155Y-435579D01*
X-8359103Y-233853D01*
X-8254682Y-52990D01*
X-8107009Y94682D01*
X-7926146Y199103D01*
X-7724420Y253155D01*
X-7515579Y253155D01*
X-7313853Y199103D01*
G37*
G36*
X-8399584Y-3850160D02*
G01*
X-8389779Y-3850642D01*
X-8379994Y-3851444D01*
X-8370242Y-3852566D01*
X-8360531Y-3854007D01*
X-8350872Y-3855764D01*
X-8341277Y-3857836D01*
X-8331754Y-3860222D01*
X-8322314Y-3862917D01*
X-8312968Y-3865920D01*
X-8303724Y-3869228D01*
X-8294594Y-3872836D01*
X-8285587Y-3876740D01*
X-8276713Y-3880938D01*
X-8267980Y-3885423D01*
X-8259399Y-3890192D01*
X-8250979Y-3895239D01*
X-8242728Y-3900559D01*
X-8234656Y-3906145D01*
X-8226771Y-3911993D01*
X-8219082Y-3918096D01*
X-8211596Y-3924448D01*
X-8204322Y-3931040D01*
X-8197267Y-3937867D01*
X-8190440Y-3944922D01*
X-8183848Y-3952196D01*
X-8177496Y-3959682D01*
X-8171393Y-3967371D01*
X-8165545Y-3975256D01*
X-8159959Y-3983328D01*
X-8154639Y-3991579D01*
X-8149592Y-3999999D01*
X-8144823Y-4008580D01*
X-8140338Y-4017313D01*
X-8136140Y-4026187D01*
X-8132236Y-4035194D01*
X-8128628Y-4044324D01*
X-8125320Y-4053568D01*
X-8122317Y-4062914D01*
X-8119622Y-4072354D01*
X-8117236Y-4081877D01*
X-8115164Y-4091472D01*
X-8113407Y-4101131D01*
X-8111966Y-4110842D01*
X-8110844Y-4120594D01*
X-8110042Y-4130379D01*
X-8109560Y-4140184D01*
X-8109399Y-4149999D01*
X-8109399Y-4550000D01*
X-8109560Y-4559815D01*
X-8110042Y-4569620D01*
X-8110844Y-4579405D01*
X-8111966Y-4589157D01*
X-8113407Y-4598868D01*
X-8115164Y-4608527D01*
X-8117236Y-4618122D01*
X-8119622Y-4627645D01*
X-8122317Y-4637085D01*
X-8125320Y-4646431D01*
X-8128628Y-4655675D01*
X-8132236Y-4664805D01*
X-8136140Y-4673812D01*
X-8140338Y-4682686D01*
X-8144823Y-4691419D01*
X-8149592Y-4699999D01*
X-8154639Y-4708420D01*
X-8159959Y-4716671D01*
X-8165545Y-4724743D01*
X-8171393Y-4732628D01*
X-8177496Y-4740317D01*
X-8183848Y-4747803D01*
X-8190440Y-4755077D01*
X-8197267Y-4762132D01*
X-8204322Y-4768959D01*
X-8211596Y-4775551D01*
X-8219082Y-4781903D01*
X-8226771Y-4788006D01*
X-8234656Y-4793854D01*
X-8242728Y-4799440D01*
X-8250979Y-4804760D01*
X-8259399Y-4809807D01*
X-8267980Y-4814576D01*
X-8276713Y-4819061D01*
X-8285587Y-4823259D01*
X-8294594Y-4827163D01*
X-8303724Y-4830771D01*
X-8312968Y-4834079D01*
X-8322314Y-4837082D01*
X-8331754Y-4839777D01*
X-8341277Y-4842163D01*
X-8350872Y-4844235D01*
X-8360531Y-4845992D01*
X-8370242Y-4847433D01*
X-8379994Y-4848555D01*
X-8389779Y-4849357D01*
X-8399584Y-4849839D01*
X-8409400Y-4850000D01*
X-9409400Y-4850000D01*
X-9419215Y-4849839D01*
X-9429020Y-4849357D01*
X-9438805Y-4848555D01*
X-9448557Y-4847433D01*
X-9458268Y-4845992D01*
X-9467927Y-4844235D01*
X-9477522Y-4842163D01*
X-9487045Y-4839777D01*
X-9496485Y-4837082D01*
X-9505831Y-4834079D01*
X-9515075Y-4830771D01*
X-9524205Y-4827163D01*
X-9533212Y-4823259D01*
X-9542086Y-4819061D01*
X-9550819Y-4814576D01*
X-9559400Y-4809807D01*
X-9567820Y-4804760D01*
X-9576071Y-4799440D01*
X-9584143Y-4793854D01*
X-9592028Y-4788006D01*
X-9599717Y-4781903D01*
X-9607203Y-4775551D01*
X-9614477Y-4768959D01*
X-9621532Y-4762132D01*
X-9628359Y-4755077D01*
X-9634951Y-4747803D01*
X-9641303Y-4740317D01*
X-9647406Y-4732628D01*
X-9653254Y-4724743D01*
X-9658840Y-4716671D01*
X-9664160Y-4708420D01*
X-9669207Y-4699999D01*
X-9673976Y-4691419D01*
X-9678461Y-4682686D01*
X-9682659Y-4673812D01*
X-9686563Y-4664805D01*
X-9690171Y-4655675D01*
X-9693479Y-4646431D01*
X-9696482Y-4637085D01*
X-9699177Y-4627645D01*
X-9701563Y-4618122D01*
X-9703635Y-4608527D01*
X-9705392Y-4598868D01*
X-9706833Y-4589157D01*
X-9707955Y-4579405D01*
X-9708757Y-4569620D01*
X-9709239Y-4559815D01*
X-9709400Y-4550000D01*
X-9709400Y-4149999D01*
X-9709239Y-4140184D01*
X-9708757Y-4130379D01*
X-9707955Y-4120594D01*
X-9706833Y-4110842D01*
X-9705392Y-4101131D01*
X-9703635Y-4091472D01*
X-9701563Y-4081877D01*
X-9699177Y-4072354D01*
X-9696482Y-4062914D01*
X-9693479Y-4053568D01*
X-9690171Y-4044324D01*
X-9686563Y-4035194D01*
X-9682659Y-4026187D01*
X-9678461Y-4017313D01*
X-9673976Y-4008580D01*
X-9669207Y-3999999D01*
X-9664160Y-3991579D01*
X-9658840Y-3983328D01*
X-9653254Y-3975256D01*
X-9647406Y-3967371D01*
X-9641303Y-3959682D01*
X-9634951Y-3952196D01*
X-9628359Y-3944922D01*
X-9621532Y-3937867D01*
X-9614477Y-3931040D01*
X-9607203Y-3924448D01*
X-9599717Y-3918096D01*
X-9592028Y-3911993D01*
X-9584143Y-3906145D01*
X-9576071Y-3900559D01*
X-9567820Y-3895239D01*
X-9559400Y-3890192D01*
X-9550819Y-3885423D01*
X-9542086Y-3880938D01*
X-9533212Y-3876740D01*
X-9524205Y-3872836D01*
X-9515075Y-3869228D01*
X-9505831Y-3865920D01*
X-9496485Y-3862917D01*
X-9487045Y-3860222D01*
X-9477522Y-3857836D01*
X-9467927Y-3855764D01*
X-9458268Y-3854007D01*
X-9448557Y-3852566D01*
X-9438805Y-3851444D01*
X-9429020Y-3850642D01*
X-9419215Y-3850160D01*
X-9409400Y-3849999D01*
X-8409400Y-3849999D01*
X-8399584Y-3850160D01*
G37*
G36*
X9419215Y-1310160D02*
G01*
X9429020Y-1310642D01*
X9438805Y-1311444D01*
X9448557Y-1312566D01*
X9458268Y-1314007D01*
X9467927Y-1315764D01*
X9477522Y-1317836D01*
X9487045Y-1320222D01*
X9496485Y-1322917D01*
X9505831Y-1325920D01*
X9515075Y-1329228D01*
X9524205Y-1332836D01*
X9533212Y-1336740D01*
X9542086Y-1340938D01*
X9550819Y-1345423D01*
X9559400Y-1350192D01*
X9567820Y-1355239D01*
X9576071Y-1360559D01*
X9584143Y-1366145D01*
X9592028Y-1371993D01*
X9599717Y-1378096D01*
X9607203Y-1384448D01*
X9614477Y-1391040D01*
X9621532Y-1397867D01*
X9628359Y-1404922D01*
X9634951Y-1412196D01*
X9641303Y-1419682D01*
X9647406Y-1427371D01*
X9653254Y-1435256D01*
X9658840Y-1443328D01*
X9664160Y-1451579D01*
X9669207Y-1460000D01*
X9673976Y-1468580D01*
X9678461Y-1477313D01*
X9682659Y-1486187D01*
X9686563Y-1495194D01*
X9690171Y-1504324D01*
X9693479Y-1513568D01*
X9696482Y-1522914D01*
X9699177Y-1532354D01*
X9701563Y-1541877D01*
X9703635Y-1551472D01*
X9705392Y-1561131D01*
X9706833Y-1570842D01*
X9707955Y-1580594D01*
X9708757Y-1590379D01*
X9709239Y-1600184D01*
X9709400Y-1610000D01*
X9709400Y-2010000D01*
X9709239Y-2019815D01*
X9708757Y-2029620D01*
X9707955Y-2039405D01*
X9706833Y-2049157D01*
X9705392Y-2058868D01*
X9703635Y-2068527D01*
X9701563Y-2078122D01*
X9699177Y-2087645D01*
X9696482Y-2097085D01*
X9693479Y-2106431D01*
X9690171Y-2115675D01*
X9686563Y-2124805D01*
X9682659Y-2133812D01*
X9678461Y-2142686D01*
X9673976Y-2151419D01*
X9669207Y-2160000D01*
X9664160Y-2168420D01*
X9658840Y-2176671D01*
X9653254Y-2184743D01*
X9647406Y-2192628D01*
X9641303Y-2200317D01*
X9634951Y-2207803D01*
X9628359Y-2215077D01*
X9621532Y-2222132D01*
X9614477Y-2228959D01*
X9607203Y-2235551D01*
X9599717Y-2241903D01*
X9592028Y-2248006D01*
X9584143Y-2253854D01*
X9576071Y-2259440D01*
X9567820Y-2264760D01*
X9559400Y-2269807D01*
X9550819Y-2274576D01*
X9542086Y-2279061D01*
X9533212Y-2283259D01*
X9524205Y-2287163D01*
X9515075Y-2290771D01*
X9505831Y-2294079D01*
X9496485Y-2297082D01*
X9487045Y-2299777D01*
X9477522Y-2302163D01*
X9467927Y-2304235D01*
X9458268Y-2305992D01*
X9448557Y-2307433D01*
X9438805Y-2308555D01*
X9429020Y-2309357D01*
X9419215Y-2309839D01*
X9409400Y-2310000D01*
X8409400Y-2310000D01*
X8399584Y-2309839D01*
X8389779Y-2309357D01*
X8379994Y-2308555D01*
X8370242Y-2307433D01*
X8360531Y-2305992D01*
X8350872Y-2304235D01*
X8341277Y-2302163D01*
X8331754Y-2299777D01*
X8322314Y-2297082D01*
X8312968Y-2294079D01*
X8303724Y-2290771D01*
X8294594Y-2287163D01*
X8285587Y-2283259D01*
X8276713Y-2279061D01*
X8267980Y-2274576D01*
X8259399Y-2269807D01*
X8250979Y-2264760D01*
X8242728Y-2259440D01*
X8234656Y-2253854D01*
X8226771Y-2248006D01*
X8219082Y-2241903D01*
X8211596Y-2235551D01*
X8204322Y-2228959D01*
X8197267Y-2222132D01*
X8190440Y-2215077D01*
X8183848Y-2207803D01*
X8177496Y-2200317D01*
X8171393Y-2192628D01*
X8165545Y-2184743D01*
X8159959Y-2176671D01*
X8154639Y-2168420D01*
X8149592Y-2160000D01*
X8144823Y-2151419D01*
X8140338Y-2142686D01*
X8136140Y-2133812D01*
X8132236Y-2124805D01*
X8128628Y-2115675D01*
X8125320Y-2106431D01*
X8122317Y-2097085D01*
X8119622Y-2087645D01*
X8117236Y-2078122D01*
X8115164Y-2068527D01*
X8113407Y-2058868D01*
X8111966Y-2049157D01*
X8110844Y-2039405D01*
X8110042Y-2029620D01*
X8109560Y-2019815D01*
X8109399Y-2010000D01*
X8109399Y-1610000D01*
X8109560Y-1600184D01*
X8110042Y-1590379D01*
X8110844Y-1580594D01*
X8111966Y-1570842D01*
X8113407Y-1561131D01*
X8115164Y-1551472D01*
X8117236Y-1541877D01*
X8119622Y-1532354D01*
X8122317Y-1522914D01*
X8125320Y-1513568D01*
X8128628Y-1504324D01*
X8132236Y-1495194D01*
X8136140Y-1486187D01*
X8140338Y-1477313D01*
X8144823Y-1468580D01*
X8149592Y-1460000D01*
X8154639Y-1451579D01*
X8159959Y-1443328D01*
X8165545Y-1435256D01*
X8171393Y-1427371D01*
X8177496Y-1419682D01*
X8183848Y-1412196D01*
X8190440Y-1404922D01*
X8197267Y-1397867D01*
X8204322Y-1391040D01*
X8211596Y-1384448D01*
X8219082Y-1378096D01*
X8226771Y-1371993D01*
X8234656Y-1366145D01*
X8242728Y-1360559D01*
X8250979Y-1355239D01*
X8259399Y-1350192D01*
X8267980Y-1345423D01*
X8276713Y-1340938D01*
X8285587Y-1336740D01*
X8294594Y-1332836D01*
X8303724Y-1329228D01*
X8312968Y-1325920D01*
X8322314Y-1322917D01*
X8331754Y-1320222D01*
X8341277Y-1317836D01*
X8350872Y-1315764D01*
X8360531Y-1314007D01*
X8370242Y-1312566D01*
X8379994Y-1311444D01*
X8389779Y-1310642D01*
X8399584Y-1310160D01*
X8409400Y-1310000D01*
X9409400Y-1310000D01*
X9419215Y-1310160D01*
G37*
G36*
X-7313853Y7819103D02*
G01*
X-7132990Y7714682D01*
X-6985317Y7567009D01*
X-6880896Y7386146D01*
X-6826844Y7184420D01*
X-6826844Y6975579D01*
X-6880896Y6773853D01*
X-6985317Y6592990D01*
X-7132990Y6445317D01*
X-7313853Y6340896D01*
X-7515579Y6286844D01*
X-7724420Y6286844D01*
X-7926146Y6340896D01*
X-8107009Y6445317D01*
X-8254682Y6592990D01*
X-8359103Y6773853D01*
X-8413155Y6975579D01*
X-8413155Y7184420D01*
X-8359103Y7386146D01*
X-8254682Y7567009D01*
X-8107009Y7714682D01*
X-7926146Y7819103D01*
X-7724420Y7873155D01*
X-7515579Y7873155D01*
X-7313853Y7819103D01*
G37*
G36*
X-8399584Y-1310160D02*
G01*
X-8389779Y-1310642D01*
X-8379994Y-1311444D01*
X-8370242Y-1312566D01*
X-8360531Y-1314007D01*
X-8350872Y-1315764D01*
X-8341277Y-1317836D01*
X-8331754Y-1320222D01*
X-8322314Y-1322917D01*
X-8312968Y-1325920D01*
X-8303724Y-1329228D01*
X-8294594Y-1332836D01*
X-8285587Y-1336740D01*
X-8276713Y-1340938D01*
X-8267980Y-1345423D01*
X-8259399Y-1350192D01*
X-8250979Y-1355239D01*
X-8242728Y-1360559D01*
X-8234656Y-1366145D01*
X-8226771Y-1371993D01*
X-8219082Y-1378096D01*
X-8211596Y-1384448D01*
X-8204322Y-1391040D01*
X-8197267Y-1397867D01*
X-8190440Y-1404922D01*
X-8183848Y-1412196D01*
X-8177496Y-1419682D01*
X-8171393Y-1427371D01*
X-8165545Y-1435256D01*
X-8159959Y-1443328D01*
X-8154639Y-1451579D01*
X-8149592Y-1460000D01*
X-8144823Y-1468580D01*
X-8140338Y-1477313D01*
X-8136140Y-1486187D01*
X-8132236Y-1495194D01*
X-8128628Y-1504324D01*
X-8125320Y-1513568D01*
X-8122317Y-1522914D01*
X-8119622Y-1532354D01*
X-8117236Y-1541877D01*
X-8115164Y-1551472D01*
X-8113407Y-1561131D01*
X-8111966Y-1570842D01*
X-8110844Y-1580594D01*
X-8110042Y-1590379D01*
X-8109560Y-1600184D01*
X-8109399Y-1610000D01*
X-8109399Y-2010000D01*
X-8109560Y-2019815D01*
X-8110042Y-2029620D01*
X-8110844Y-2039405D01*
X-8111966Y-2049157D01*
X-8113407Y-2058868D01*
X-8115164Y-2068527D01*
X-8117236Y-2078122D01*
X-8119622Y-2087645D01*
X-8122317Y-2097085D01*
X-8125320Y-2106431D01*
X-8128628Y-2115675D01*
X-8132236Y-2124805D01*
X-8136140Y-2133812D01*
X-8140338Y-2142686D01*
X-8144823Y-2151419D01*
X-8149592Y-2160000D01*
X-8154639Y-2168420D01*
X-8159959Y-2176671D01*
X-8165545Y-2184743D01*
X-8171393Y-2192628D01*
X-8177496Y-2200317D01*
X-8183848Y-2207803D01*
X-8190440Y-2215077D01*
X-8197267Y-2222132D01*
X-8204322Y-2228959D01*
X-8211596Y-2235551D01*
X-8219082Y-2241903D01*
X-8226771Y-2248006D01*
X-8234656Y-2253854D01*
X-8242728Y-2259440D01*
X-8250979Y-2264760D01*
X-8259399Y-2269807D01*
X-8267980Y-2274576D01*
X-8276713Y-2279061D01*
X-8285587Y-2283259D01*
X-8294594Y-2287163D01*
X-8303724Y-2290771D01*
X-8312968Y-2294079D01*
X-8322314Y-2297082D01*
X-8331754Y-2299777D01*
X-8341277Y-2302163D01*
X-8350872Y-2304235D01*
X-8360531Y-2305992D01*
X-8370242Y-2307433D01*
X-8379994Y-2308555D01*
X-8389779Y-2309357D01*
X-8399584Y-2309839D01*
X-8409400Y-2310000D01*
X-9409400Y-2310000D01*
X-9419215Y-2309839D01*
X-9429020Y-2309357D01*
X-9438805Y-2308555D01*
X-9448557Y-2307433D01*
X-9458268Y-2305992D01*
X-9467927Y-2304235D01*
X-9477522Y-2302163D01*
X-9487045Y-2299777D01*
X-9496485Y-2297082D01*
X-9505831Y-2294079D01*
X-9515075Y-2290771D01*
X-9524205Y-2287163D01*
X-9533212Y-2283259D01*
X-9542086Y-2279061D01*
X-9550819Y-2274576D01*
X-9559400Y-2269807D01*
X-9567820Y-2264760D01*
X-9576071Y-2259440D01*
X-9584143Y-2253854D01*
X-9592028Y-2248006D01*
X-9599717Y-2241903D01*
X-9607203Y-2235551D01*
X-9614477Y-2228959D01*
X-9621532Y-2222132D01*
X-9628359Y-2215077D01*
X-9634951Y-2207803D01*
X-9641303Y-2200317D01*
X-9647406Y-2192628D01*
X-9653254Y-2184743D01*
X-9658840Y-2176671D01*
X-9664160Y-2168420D01*
X-9669207Y-2160000D01*
X-9673976Y-2151419D01*
X-9678461Y-2142686D01*
X-9682659Y-2133812D01*
X-9686563Y-2124805D01*
X-9690171Y-2115675D01*
X-9693479Y-2106431D01*
X-9696482Y-2097085D01*
X-9699177Y-2087645D01*
X-9701563Y-2078122D01*
X-9703635Y-2068527D01*
X-9705392Y-2058868D01*
X-9706833Y-2049157D01*
X-9707955Y-2039405D01*
X-9708757Y-2029620D01*
X-9709239Y-2019815D01*
X-9709400Y-2010000D01*
X-9709400Y-1610000D01*
X-9709239Y-1600184D01*
X-9708757Y-1590379D01*
X-9707955Y-1580594D01*
X-9706833Y-1570842D01*
X-9705392Y-1561131D01*
X-9703635Y-1551472D01*
X-9701563Y-1541877D01*
X-9699177Y-1532354D01*
X-9696482Y-1522914D01*
X-9693479Y-1513568D01*
X-9690171Y-1504324D01*
X-9686563Y-1495194D01*
X-9682659Y-1486187D01*
X-9678461Y-1477313D01*
X-9673976Y-1468580D01*
X-9669207Y-1460000D01*
X-9664160Y-1451579D01*
X-9658840Y-1443328D01*
X-9653254Y-1435256D01*
X-9647406Y-1427371D01*
X-9641303Y-1419682D01*
X-9634951Y-1412196D01*
X-9628359Y-1404922D01*
X-9621532Y-1397867D01*
X-9614477Y-1391040D01*
X-9607203Y-1384448D01*
X-9599717Y-1378096D01*
X-9592028Y-1371993D01*
X-9584143Y-1366145D01*
X-9576071Y-1360559D01*
X-9567820Y-1355239D01*
X-9559400Y-1350192D01*
X-9550819Y-1345423D01*
X-9542086Y-1340938D01*
X-9533212Y-1336740D01*
X-9524205Y-1332836D01*
X-9515075Y-1329228D01*
X-9505831Y-1325920D01*
X-9496485Y-1322917D01*
X-9487045Y-1320222D01*
X-9477522Y-1317836D01*
X-9467927Y-1315764D01*
X-9458268Y-1314007D01*
X-9448557Y-1312566D01*
X-9438805Y-1311444D01*
X-9429020Y-1310642D01*
X-9419215Y-1310160D01*
X-9409400Y-1310000D01*
X-8409400Y-1310000D01*
X-8399584Y-1310160D01*
G37*
G36*
X-8302856Y-5120107D02*
G01*
X-8296319Y-5120428D01*
X-8289796Y-5120963D01*
X-8283294Y-5121711D01*
X-8276820Y-5122671D01*
X-8270381Y-5123842D01*
X-8263984Y-5125224D01*
X-8257636Y-5126814D01*
X-8251343Y-5128611D01*
X-8245112Y-5130613D01*
X-8238949Y-5132818D01*
X-8232863Y-5135224D01*
X-8226858Y-5137827D01*
X-8220942Y-5140625D01*
X-8215120Y-5143615D01*
X-8209400Y-5146794D01*
X-8203786Y-5150159D01*
X-8198285Y-5153706D01*
X-8192904Y-5157430D01*
X-8187647Y-5161329D01*
X-8182521Y-5165397D01*
X-8177530Y-5169632D01*
X-8172681Y-5174027D01*
X-8167978Y-5178578D01*
X-8163427Y-5183281D01*
X-8159032Y-5188130D01*
X-8154797Y-5193121D01*
X-8150729Y-5198247D01*
X-8146830Y-5203504D01*
X-8143106Y-5208885D01*
X-8139559Y-5214386D01*
X-8136194Y-5220000D01*
X-8133015Y-5225720D01*
X-8130025Y-5231542D01*
X-8127227Y-5237458D01*
X-8124624Y-5243463D01*
X-8122218Y-5249549D01*
X-8120013Y-5255712D01*
X-8118011Y-5261943D01*
X-8116214Y-5268236D01*
X-8114624Y-5274584D01*
X-8113242Y-5280981D01*
X-8112071Y-5287420D01*
X-8111111Y-5293894D01*
X-8110363Y-5300396D01*
X-8109828Y-5306919D01*
X-8109507Y-5313456D01*
X-8109399Y-5320000D01*
X-8109399Y-5920000D01*
X-8109507Y-5926543D01*
X-8109828Y-5933080D01*
X-8110363Y-5939603D01*
X-8111111Y-5946105D01*
X-8112071Y-5952579D01*
X-8113242Y-5959018D01*
X-8114624Y-5965415D01*
X-8116214Y-5971763D01*
X-8118011Y-5978056D01*
X-8120013Y-5984287D01*
X-8122218Y-5990450D01*
X-8124624Y-5996536D01*
X-8127227Y-6002541D01*
X-8130025Y-6008457D01*
X-8133015Y-6014279D01*
X-8136194Y-6020000D01*
X-8139559Y-6025613D01*
X-8143106Y-6031114D01*
X-8146830Y-6036495D01*
X-8150729Y-6041752D01*
X-8154797Y-6046878D01*
X-8159032Y-6051869D01*
X-8163427Y-6056718D01*
X-8167978Y-6061421D01*
X-8172681Y-6065972D01*
X-8177530Y-6070367D01*
X-8182521Y-6074602D01*
X-8187647Y-6078670D01*
X-8192904Y-6082569D01*
X-8198285Y-6086293D01*
X-8203786Y-6089840D01*
X-8209400Y-6093205D01*
X-8215120Y-6096384D01*
X-8220942Y-6099374D01*
X-8226858Y-6102172D01*
X-8232863Y-6104775D01*
X-8238949Y-6107181D01*
X-8245112Y-6109386D01*
X-8251343Y-6111388D01*
X-8257636Y-6113185D01*
X-8263984Y-6114775D01*
X-8270381Y-6116157D01*
X-8276820Y-6117328D01*
X-8283294Y-6118288D01*
X-8289796Y-6119036D01*
X-8296319Y-6119571D01*
X-8302856Y-6119892D01*
X-8309400Y-6120000D01*
X-9509400Y-6120000D01*
X-9515943Y-6119892D01*
X-9522480Y-6119571D01*
X-9529003Y-6119036D01*
X-9535505Y-6118288D01*
X-9541979Y-6117328D01*
X-9548418Y-6116157D01*
X-9554815Y-6114775D01*
X-9561163Y-6113185D01*
X-9567456Y-6111388D01*
X-9573687Y-6109386D01*
X-9579850Y-6107181D01*
X-9585936Y-6104775D01*
X-9591941Y-6102172D01*
X-9597857Y-6099374D01*
X-9603679Y-6096384D01*
X-9609399Y-6093205D01*
X-9615013Y-6089840D01*
X-9620514Y-6086293D01*
X-9625895Y-6082569D01*
X-9631152Y-6078670D01*
X-9636278Y-6074602D01*
X-9641269Y-6070367D01*
X-9646118Y-6065972D01*
X-9650821Y-6061421D01*
X-9655372Y-6056718D01*
X-9659767Y-6051869D01*
X-9664002Y-6046878D01*
X-9668070Y-6041752D01*
X-9671969Y-6036495D01*
X-9675693Y-6031114D01*
X-9679240Y-6025613D01*
X-9682605Y-6020000D01*
X-9685784Y-6014279D01*
X-9688774Y-6008457D01*
X-9691572Y-6002541D01*
X-9694175Y-5996536D01*
X-9696581Y-5990450D01*
X-9698786Y-5984287D01*
X-9700788Y-5978056D01*
X-9702585Y-5971763D01*
X-9704175Y-5965415D01*
X-9705557Y-5959018D01*
X-9706728Y-5952579D01*
X-9707688Y-5946105D01*
X-9708436Y-5939603D01*
X-9708971Y-5933080D01*
X-9709292Y-5926543D01*
X-9709400Y-5920000D01*
X-9709400Y-5320000D01*
X-9709292Y-5313456D01*
X-9708971Y-5306919D01*
X-9708436Y-5300396D01*
X-9707688Y-5293894D01*
X-9706728Y-5287420D01*
X-9705557Y-5280981D01*
X-9704175Y-5274584D01*
X-9702585Y-5268236D01*
X-9700788Y-5261943D01*
X-9698786Y-5255712D01*
X-9696581Y-5249549D01*
X-9694175Y-5243463D01*
X-9691572Y-5237458D01*
X-9688774Y-5231542D01*
X-9685784Y-5225720D01*
X-9682605Y-5220000D01*
X-9679240Y-5214386D01*
X-9675693Y-5208885D01*
X-9671969Y-5203504D01*
X-9668070Y-5198247D01*
X-9664002Y-5193121D01*
X-9659767Y-5188130D01*
X-9655372Y-5183281D01*
X-9650821Y-5178578D01*
X-9646118Y-5174027D01*
X-9641269Y-5169632D01*
X-9636278Y-5165397D01*
X-9631152Y-5161329D01*
X-9625895Y-5157430D01*
X-9620514Y-5153706D01*
X-9615013Y-5150159D01*
X-9609399Y-5146794D01*
X-9603679Y-5143615D01*
X-9597857Y-5140625D01*
X-9591941Y-5137827D01*
X-9585936Y-5135224D01*
X-9579850Y-5132818D01*
X-9573687Y-5130613D01*
X-9567456Y-5128611D01*
X-9561163Y-5126814D01*
X-9554815Y-5125224D01*
X-9548418Y-5123842D01*
X-9541979Y-5122671D01*
X-9535505Y-5121711D01*
X-9529003Y-5120963D01*
X-9522480Y-5120428D01*
X-9515943Y-5120107D01*
X-9509400Y-5120000D01*
X-8309400Y-5120000D01*
X-8302856Y-5120107D01*
G37*
G36*
X9515943Y7579892D02*
G01*
X9522480Y7579571D01*
X9529003Y7579036D01*
X9535505Y7578288D01*
X9541979Y7577328D01*
X9548418Y7576157D01*
X9554815Y7574775D01*
X9561163Y7573185D01*
X9567456Y7571388D01*
X9573687Y7569386D01*
X9579850Y7567181D01*
X9585936Y7564775D01*
X9591941Y7562172D01*
X9597857Y7559374D01*
X9603679Y7556384D01*
X9609399Y7553205D01*
X9615013Y7549840D01*
X9620514Y7546293D01*
X9625895Y7542569D01*
X9631152Y7538670D01*
X9636278Y7534602D01*
X9641269Y7530367D01*
X9646118Y7525972D01*
X9650821Y7521421D01*
X9655372Y7516718D01*
X9659767Y7511869D01*
X9664002Y7506878D01*
X9668070Y7501752D01*
X9671969Y7496495D01*
X9675693Y7491114D01*
X9679240Y7485613D01*
X9682605Y7480000D01*
X9685784Y7474279D01*
X9688774Y7468457D01*
X9691572Y7462541D01*
X9694175Y7456536D01*
X9696581Y7450450D01*
X9698786Y7444287D01*
X9700788Y7438056D01*
X9702585Y7431763D01*
X9704175Y7425415D01*
X9705557Y7419018D01*
X9706728Y7412579D01*
X9707688Y7406105D01*
X9708436Y7399603D01*
X9708971Y7393080D01*
X9709292Y7386543D01*
X9709400Y7380000D01*
X9709400Y6780000D01*
X9709292Y6773456D01*
X9708971Y6766919D01*
X9708436Y6760396D01*
X9707688Y6753894D01*
X9706728Y6747420D01*
X9705557Y6740981D01*
X9704175Y6734584D01*
X9702585Y6728236D01*
X9700788Y6721943D01*
X9698786Y6715712D01*
X9696581Y6709549D01*
X9694175Y6703463D01*
X9691572Y6697458D01*
X9688774Y6691542D01*
X9685784Y6685720D01*
X9682605Y6680000D01*
X9679240Y6674386D01*
X9675693Y6668885D01*
X9671969Y6663504D01*
X9668070Y6658247D01*
X9664002Y6653121D01*
X9659767Y6648130D01*
X9655372Y6643281D01*
X9650821Y6638578D01*
X9646118Y6634027D01*
X9641269Y6629632D01*
X9636278Y6625397D01*
X9631152Y6621329D01*
X9625895Y6617430D01*
X9620514Y6613706D01*
X9615013Y6610159D01*
X9609399Y6606794D01*
X9603679Y6603615D01*
X9597857Y6600625D01*
X9591941Y6597827D01*
X9585936Y6595224D01*
X9579850Y6592818D01*
X9573687Y6590613D01*
X9567456Y6588611D01*
X9561163Y6586814D01*
X9554815Y6585224D01*
X9548418Y6583842D01*
X9541979Y6582671D01*
X9535505Y6581711D01*
X9529003Y6580963D01*
X9522480Y6580428D01*
X9515943Y6580107D01*
X9509400Y6580000D01*
X8309400Y6580000D01*
X8302856Y6580107D01*
X8296319Y6580428D01*
X8289796Y6580963D01*
X8283294Y6581711D01*
X8276820Y6582671D01*
X8270381Y6583842D01*
X8263984Y6585224D01*
X8257636Y6586814D01*
X8251343Y6588611D01*
X8245112Y6590613D01*
X8238949Y6592818D01*
X8232863Y6595224D01*
X8226858Y6597827D01*
X8220942Y6600625D01*
X8215120Y6603615D01*
X8209400Y6606794D01*
X8203786Y6610159D01*
X8198285Y6613706D01*
X8192904Y6617430D01*
X8187647Y6621329D01*
X8182521Y6625397D01*
X8177530Y6629632D01*
X8172681Y6634027D01*
X8167978Y6638578D01*
X8163427Y6643281D01*
X8159032Y6648130D01*
X8154797Y6653121D01*
X8150729Y6658247D01*
X8146830Y6663504D01*
X8143106Y6668885D01*
X8139559Y6674386D01*
X8136194Y6680000D01*
X8133015Y6685720D01*
X8130025Y6691542D01*
X8127227Y6697458D01*
X8124624Y6703463D01*
X8122218Y6709549D01*
X8120013Y6715712D01*
X8118011Y6721943D01*
X8116214Y6728236D01*
X8114624Y6734584D01*
X8113242Y6740981D01*
X8112071Y6747420D01*
X8111111Y6753894D01*
X8110363Y6760396D01*
X8109828Y6766919D01*
X8109507Y6773456D01*
X8109399Y6780000D01*
X8109399Y7380000D01*
X8109507Y7386543D01*
X8109828Y7393080D01*
X8110363Y7399603D01*
X8111111Y7406105D01*
X8112071Y7412579D01*
X8113242Y7419018D01*
X8114624Y7425415D01*
X8116214Y7431763D01*
X8118011Y7438056D01*
X8120013Y7444287D01*
X8122218Y7450450D01*
X8124624Y7456536D01*
X8127227Y7462541D01*
X8130025Y7468457D01*
X8133015Y7474279D01*
X8136194Y7480000D01*
X8139559Y7485613D01*
X8143106Y7491114D01*
X8146830Y7496495D01*
X8150729Y7501752D01*
X8154797Y7506878D01*
X8159032Y7511869D01*
X8163427Y7516718D01*
X8167978Y7521421D01*
X8172681Y7525972D01*
X8177530Y7530367D01*
X8182521Y7534602D01*
X8187647Y7538670D01*
X8192904Y7542569D01*
X8198285Y7546293D01*
X8203786Y7549840D01*
X8209400Y7553205D01*
X8215120Y7556384D01*
X8220942Y7559374D01*
X8226858Y7562172D01*
X8232863Y7564775D01*
X8238949Y7567181D01*
X8245112Y7569386D01*
X8251343Y7571388D01*
X8257636Y7573185D01*
X8263984Y7574775D01*
X8270381Y7576157D01*
X8276820Y7577328D01*
X8283294Y7578288D01*
X8289796Y7579036D01*
X8296319Y7579571D01*
X8302856Y7579892D01*
X8309400Y7580000D01*
X9509400Y7580000D01*
X9515943Y7579892D01*
G37*
G36*
X9515943Y-5120107D02*
G01*
X9522480Y-5120428D01*
X9529003Y-5120963D01*
X9535505Y-5121711D01*
X9541979Y-5122671D01*
X9548418Y-5123842D01*
X9554815Y-5125224D01*
X9561163Y-5126814D01*
X9567456Y-5128611D01*
X9573687Y-5130613D01*
X9579850Y-5132818D01*
X9585936Y-5135224D01*
X9591941Y-5137827D01*
X9597857Y-5140625D01*
X9603679Y-5143615D01*
X9609399Y-5146794D01*
X9615013Y-5150159D01*
X9620514Y-5153706D01*
X9625895Y-5157430D01*
X9631152Y-5161329D01*
X9636278Y-5165397D01*
X9641269Y-5169632D01*
X9646118Y-5174027D01*
X9650821Y-5178578D01*
X9655372Y-5183281D01*
X9659767Y-5188130D01*
X9664002Y-5193121D01*
X9668070Y-5198247D01*
X9671969Y-5203504D01*
X9675693Y-5208885D01*
X9679240Y-5214386D01*
X9682605Y-5220000D01*
X9685784Y-5225720D01*
X9688774Y-5231542D01*
X9691572Y-5237458D01*
X9694175Y-5243463D01*
X9696581Y-5249549D01*
X9698786Y-5255712D01*
X9700788Y-5261943D01*
X9702585Y-5268236D01*
X9704175Y-5274584D01*
X9705557Y-5280981D01*
X9706728Y-5287420D01*
X9707688Y-5293894D01*
X9708436Y-5300396D01*
X9708971Y-5306919D01*
X9709292Y-5313456D01*
X9709400Y-5320000D01*
X9709400Y-5920000D01*
X9709292Y-5926543D01*
X9708971Y-5933080D01*
X9708436Y-5939603D01*
X9707688Y-5946105D01*
X9706728Y-5952579D01*
X9705557Y-5959018D01*
X9704175Y-5965415D01*
X9702585Y-5971763D01*
X9700788Y-5978056D01*
X9698786Y-5984287D01*
X9696581Y-5990450D01*
X9694175Y-5996536D01*
X9691572Y-6002541D01*
X9688774Y-6008457D01*
X9685784Y-6014279D01*
X9682605Y-6020000D01*
X9679240Y-6025613D01*
X9675693Y-6031114D01*
X9671969Y-6036495D01*
X9668070Y-6041752D01*
X9664002Y-6046878D01*
X9659767Y-6051869D01*
X9655372Y-6056718D01*
X9650821Y-6061421D01*
X9646118Y-6065972D01*
X9641269Y-6070367D01*
X9636278Y-6074602D01*
X9631152Y-6078670D01*
X9625895Y-6082569D01*
X9620514Y-6086293D01*
X9615013Y-6089840D01*
X9609399Y-6093205D01*
X9603679Y-6096384D01*
X9597857Y-6099374D01*
X9591941Y-6102172D01*
X9585936Y-6104775D01*
X9579850Y-6107181D01*
X9573687Y-6109386D01*
X9567456Y-6111388D01*
X9561163Y-6113185D01*
X9554815Y-6114775D01*
X9548418Y-6116157D01*
X9541979Y-6117328D01*
X9535505Y-6118288D01*
X9529003Y-6119036D01*
X9522480Y-6119571D01*
X9515943Y-6119892D01*
X9509400Y-6120000D01*
X8309400Y-6120000D01*
X8302856Y-6119892D01*
X8296319Y-6119571D01*
X8289796Y-6119036D01*
X8283294Y-6118288D01*
X8276820Y-6117328D01*
X8270381Y-6116157D01*
X8263984Y-6114775D01*
X8257636Y-6113185D01*
X8251343Y-6111388D01*
X8245112Y-6109386D01*
X8238949Y-6107181D01*
X8232863Y-6104775D01*
X8226858Y-6102172D01*
X8220942Y-6099374D01*
X8215120Y-6096384D01*
X8209400Y-6093205D01*
X8203786Y-6089840D01*
X8198285Y-6086293D01*
X8192904Y-6082569D01*
X8187647Y-6078670D01*
X8182521Y-6074602D01*
X8177530Y-6070367D01*
X8172681Y-6065972D01*
X8167978Y-6061421D01*
X8163427Y-6056718D01*
X8159032Y-6051869D01*
X8154797Y-6046878D01*
X8150729Y-6041752D01*
X8146830Y-6036495D01*
X8143106Y-6031114D01*
X8139559Y-6025613D01*
X8136194Y-6020000D01*
X8133015Y-6014279D01*
X8130025Y-6008457D01*
X8127227Y-6002541D01*
X8124624Y-5996536D01*
X8122218Y-5990450D01*
X8120013Y-5984287D01*
X8118011Y-5978056D01*
X8116214Y-5971763D01*
X8114624Y-5965415D01*
X8113242Y-5959018D01*
X8112071Y-5952579D01*
X8111111Y-5946105D01*
X8110363Y-5939603D01*
X8109828Y-5933080D01*
X8109507Y-5926543D01*
X8109399Y-5920000D01*
X8109399Y-5320000D01*
X8109507Y-5313456D01*
X8109828Y-5306919D01*
X8110363Y-5300396D01*
X8111111Y-5293894D01*
X8112071Y-5287420D01*
X8113242Y-5280981D01*
X8114624Y-5274584D01*
X8116214Y-5268236D01*
X8118011Y-5261943D01*
X8120013Y-5255712D01*
X8122218Y-5249549D01*
X8124624Y-5243463D01*
X8127227Y-5237458D01*
X8130025Y-5231542D01*
X8133015Y-5225720D01*
X8136194Y-5220000D01*
X8139559Y-5214386D01*
X8143106Y-5208885D01*
X8146830Y-5203504D01*
X8150729Y-5198247D01*
X8154797Y-5193121D01*
X8159032Y-5188130D01*
X8163427Y-5183281D01*
X8167978Y-5178578D01*
X8172681Y-5174027D01*
X8177530Y-5169632D01*
X8182521Y-5165397D01*
X8187647Y-5161329D01*
X8192904Y-5157430D01*
X8198285Y-5153706D01*
X8203786Y-5150159D01*
X8209400Y-5146794D01*
X8215120Y-5143615D01*
X8220942Y-5140625D01*
X8226858Y-5137827D01*
X8232863Y-5135224D01*
X8238949Y-5132818D01*
X8245112Y-5130613D01*
X8251343Y-5128611D01*
X8257636Y-5126814D01*
X8263984Y-5125224D01*
X8270381Y-5123842D01*
X8276820Y-5122671D01*
X8283294Y-5121711D01*
X8289796Y-5120963D01*
X8296319Y-5120428D01*
X8302856Y-5120107D01*
X8309400Y-5120000D01*
X9509400Y-5120000D01*
X9515943Y-5120107D01*
G37*
G36*
X9515943Y-2580107D02*
G01*
X9522480Y-2580428D01*
X9529003Y-2580963D01*
X9535505Y-2581711D01*
X9541979Y-2582671D01*
X9548418Y-2583842D01*
X9554815Y-2585224D01*
X9561163Y-2586814D01*
X9567456Y-2588611D01*
X9573687Y-2590613D01*
X9579850Y-2592818D01*
X9585936Y-2595224D01*
X9591941Y-2597827D01*
X9597857Y-2600625D01*
X9603679Y-2603615D01*
X9609399Y-2606794D01*
X9615013Y-2610159D01*
X9620514Y-2613706D01*
X9625895Y-2617430D01*
X9631152Y-2621329D01*
X9636278Y-2625397D01*
X9641269Y-2629632D01*
X9646118Y-2634027D01*
X9650821Y-2638578D01*
X9655372Y-2643281D01*
X9659767Y-2648130D01*
X9664002Y-2653121D01*
X9668070Y-2658247D01*
X9671969Y-2663504D01*
X9675693Y-2668885D01*
X9679240Y-2674386D01*
X9682605Y-2680000D01*
X9685784Y-2685720D01*
X9688774Y-2691542D01*
X9691572Y-2697458D01*
X9694175Y-2703463D01*
X9696581Y-2709549D01*
X9698786Y-2715712D01*
X9700788Y-2721943D01*
X9702585Y-2728236D01*
X9704175Y-2734584D01*
X9705557Y-2740981D01*
X9706728Y-2747420D01*
X9707688Y-2753894D01*
X9708436Y-2760396D01*
X9708971Y-2766919D01*
X9709292Y-2773456D01*
X9709400Y-2780000D01*
X9709400Y-3380000D01*
X9709292Y-3386543D01*
X9708971Y-3393080D01*
X9708436Y-3399603D01*
X9707688Y-3406105D01*
X9706728Y-3412579D01*
X9705557Y-3419018D01*
X9704175Y-3425415D01*
X9702585Y-3431763D01*
X9700788Y-3438056D01*
X9698786Y-3444287D01*
X9696581Y-3450450D01*
X9694175Y-3456536D01*
X9691572Y-3462541D01*
X9688774Y-3468457D01*
X9685784Y-3474279D01*
X9682605Y-3480000D01*
X9679240Y-3485613D01*
X9675693Y-3491114D01*
X9671969Y-3496495D01*
X9668070Y-3501752D01*
X9664002Y-3506878D01*
X9659767Y-3511869D01*
X9655372Y-3516718D01*
X9650821Y-3521421D01*
X9646118Y-3525972D01*
X9641269Y-3530367D01*
X9636278Y-3534602D01*
X9631152Y-3538670D01*
X9625895Y-3542569D01*
X9620514Y-3546293D01*
X9615013Y-3549840D01*
X9609399Y-3553205D01*
X9603679Y-3556384D01*
X9597857Y-3559374D01*
X9591941Y-3562172D01*
X9585936Y-3564775D01*
X9579850Y-3567181D01*
X9573687Y-3569386D01*
X9567456Y-3571388D01*
X9561163Y-3573185D01*
X9554815Y-3574775D01*
X9548418Y-3576157D01*
X9541979Y-3577328D01*
X9535505Y-3578288D01*
X9529003Y-3579036D01*
X9522480Y-3579571D01*
X9515943Y-3579892D01*
X9509400Y-3580000D01*
X8309400Y-3580000D01*
X8302856Y-3579892D01*
X8296319Y-3579571D01*
X8289796Y-3579036D01*
X8283294Y-3578288D01*
X8276820Y-3577328D01*
X8270381Y-3576157D01*
X8263984Y-3574775D01*
X8257636Y-3573185D01*
X8251343Y-3571388D01*
X8245112Y-3569386D01*
X8238949Y-3567181D01*
X8232863Y-3564775D01*
X8226858Y-3562172D01*
X8220942Y-3559374D01*
X8215120Y-3556384D01*
X8209400Y-3553205D01*
X8203786Y-3549840D01*
X8198285Y-3546293D01*
X8192904Y-3542569D01*
X8187647Y-3538670D01*
X8182521Y-3534602D01*
X8177530Y-3530367D01*
X8172681Y-3525972D01*
X8167978Y-3521421D01*
X8163427Y-3516718D01*
X8159032Y-3511869D01*
X8154797Y-3506878D01*
X8150729Y-3501752D01*
X8146830Y-3496495D01*
X8143106Y-3491114D01*
X8139559Y-3485613D01*
X8136194Y-3480000D01*
X8133015Y-3474279D01*
X8130025Y-3468457D01*
X8127227Y-3462541D01*
X8124624Y-3456536D01*
X8122218Y-3450450D01*
X8120013Y-3444287D01*
X8118011Y-3438056D01*
X8116214Y-3431763D01*
X8114624Y-3425415D01*
X8113242Y-3419018D01*
X8112071Y-3412579D01*
X8111111Y-3406105D01*
X8110363Y-3399603D01*
X8109828Y-3393080D01*
X8109507Y-3386543D01*
X8109399Y-3380000D01*
X8109399Y-2780000D01*
X8109507Y-2773456D01*
X8109828Y-2766919D01*
X8110363Y-2760396D01*
X8111111Y-2753894D01*
X8112071Y-2747420D01*
X8113242Y-2740981D01*
X8114624Y-2734584D01*
X8116214Y-2728236D01*
X8118011Y-2721943D01*
X8120013Y-2715712D01*
X8122218Y-2709549D01*
X8124624Y-2703463D01*
X8127227Y-2697458D01*
X8130025Y-2691542D01*
X8133015Y-2685720D01*
X8136194Y-2680000D01*
X8139559Y-2674386D01*
X8143106Y-2668885D01*
X8146830Y-2663504D01*
X8150729Y-2658247D01*
X8154797Y-2653121D01*
X8159032Y-2648130D01*
X8163427Y-2643281D01*
X8167978Y-2638578D01*
X8172681Y-2634027D01*
X8177530Y-2629632D01*
X8182521Y-2625397D01*
X8187647Y-2621329D01*
X8192904Y-2617430D01*
X8198285Y-2613706D01*
X8203786Y-2610159D01*
X8209400Y-2606794D01*
X8215120Y-2603615D01*
X8220942Y-2600625D01*
X8226858Y-2597827D01*
X8232863Y-2595224D01*
X8238949Y-2592818D01*
X8245112Y-2590613D01*
X8251343Y-2588611D01*
X8257636Y-2586814D01*
X8263984Y-2585224D01*
X8270381Y-2583842D01*
X8276820Y-2582671D01*
X8283294Y-2581711D01*
X8289796Y-2580963D01*
X8296319Y-2580428D01*
X8302856Y-2580107D01*
X8309400Y-2580000D01*
X9509400Y-2580000D01*
X9515943Y-2580107D01*
G37*
G36*
X9515943Y5039892D02*
G01*
X9522480Y5039571D01*
X9529003Y5039036D01*
X9535505Y5038288D01*
X9541979Y5037328D01*
X9548418Y5036157D01*
X9554815Y5034775D01*
X9561163Y5033185D01*
X9567456Y5031388D01*
X9573687Y5029386D01*
X9579850Y5027181D01*
X9585936Y5024775D01*
X9591941Y5022172D01*
X9597857Y5019374D01*
X9603679Y5016384D01*
X9609399Y5013205D01*
X9615013Y5009840D01*
X9620514Y5006293D01*
X9625895Y5002569D01*
X9631152Y4998670D01*
X9636278Y4994602D01*
X9641269Y4990367D01*
X9646118Y4985972D01*
X9650821Y4981421D01*
X9655372Y4976718D01*
X9659767Y4971869D01*
X9664002Y4966878D01*
X9668070Y4961752D01*
X9671969Y4956495D01*
X9675693Y4951114D01*
X9679240Y4945613D01*
X9682605Y4940000D01*
X9685784Y4934279D01*
X9688774Y4928457D01*
X9691572Y4922541D01*
X9694175Y4916536D01*
X9696581Y4910450D01*
X9698786Y4904287D01*
X9700788Y4898056D01*
X9702585Y4891763D01*
X9704175Y4885415D01*
X9705557Y4879018D01*
X9706728Y4872579D01*
X9707688Y4866105D01*
X9708436Y4859603D01*
X9708971Y4853080D01*
X9709292Y4846543D01*
X9709400Y4840000D01*
X9709400Y4240000D01*
X9709292Y4233456D01*
X9708971Y4226919D01*
X9708436Y4220396D01*
X9707688Y4213894D01*
X9706728Y4207420D01*
X9705557Y4200981D01*
X9704175Y4194584D01*
X9702585Y4188236D01*
X9700788Y4181943D01*
X9698786Y4175712D01*
X9696581Y4169549D01*
X9694175Y4163463D01*
X9691572Y4157458D01*
X9688774Y4151542D01*
X9685784Y4145720D01*
X9682605Y4139999D01*
X9679240Y4134386D01*
X9675693Y4128885D01*
X9671969Y4123504D01*
X9668070Y4118247D01*
X9664002Y4113121D01*
X9659767Y4108130D01*
X9655372Y4103281D01*
X9650821Y4098578D01*
X9646118Y4094027D01*
X9641269Y4089632D01*
X9636278Y4085397D01*
X9631152Y4081329D01*
X9625895Y4077430D01*
X9620514Y4073706D01*
X9615013Y4070159D01*
X9609399Y4066794D01*
X9603679Y4063615D01*
X9597857Y4060625D01*
X9591941Y4057827D01*
X9585936Y4055224D01*
X9579850Y4052818D01*
X9573687Y4050613D01*
X9567456Y4048611D01*
X9561163Y4046814D01*
X9554815Y4045224D01*
X9548418Y4043842D01*
X9541979Y4042671D01*
X9535505Y4041711D01*
X9529003Y4040963D01*
X9522480Y4040428D01*
X9515943Y4040107D01*
X9509400Y4040000D01*
X8309400Y4040000D01*
X8302856Y4040107D01*
X8296319Y4040428D01*
X8289796Y4040963D01*
X8283294Y4041711D01*
X8276820Y4042671D01*
X8270381Y4043842D01*
X8263984Y4045224D01*
X8257636Y4046814D01*
X8251343Y4048611D01*
X8245112Y4050613D01*
X8238949Y4052818D01*
X8232863Y4055224D01*
X8226858Y4057827D01*
X8220942Y4060625D01*
X8215120Y4063615D01*
X8209400Y4066794D01*
X8203786Y4070159D01*
X8198285Y4073706D01*
X8192904Y4077430D01*
X8187647Y4081329D01*
X8182521Y4085397D01*
X8177530Y4089632D01*
X8172681Y4094027D01*
X8167978Y4098578D01*
X8163427Y4103281D01*
X8159032Y4108130D01*
X8154797Y4113121D01*
X8150729Y4118247D01*
X8146830Y4123504D01*
X8143106Y4128885D01*
X8139559Y4134386D01*
X8136194Y4139999D01*
X8133015Y4145720D01*
X8130025Y4151542D01*
X8127227Y4157458D01*
X8124624Y4163463D01*
X8122218Y4169549D01*
X8120013Y4175712D01*
X8118011Y4181943D01*
X8116214Y4188236D01*
X8114624Y4194584D01*
X8113242Y4200981D01*
X8112071Y4207420D01*
X8111111Y4213894D01*
X8110363Y4220396D01*
X8109828Y4226919D01*
X8109507Y4233456D01*
X8109399Y4240000D01*
X8109399Y4840000D01*
X8109507Y4846543D01*
X8109828Y4853080D01*
X8110363Y4859603D01*
X8111111Y4866105D01*
X8112071Y4872579D01*
X8113242Y4879018D01*
X8114624Y4885415D01*
X8116214Y4891763D01*
X8118011Y4898056D01*
X8120013Y4904287D01*
X8122218Y4910450D01*
X8124624Y4916536D01*
X8127227Y4922541D01*
X8130025Y4928457D01*
X8133015Y4934279D01*
X8136194Y4940000D01*
X8139559Y4945613D01*
X8143106Y4951114D01*
X8146830Y4956495D01*
X8150729Y4961752D01*
X8154797Y4966878D01*
X8159032Y4971869D01*
X8163427Y4976718D01*
X8167978Y4981421D01*
X8172681Y4985972D01*
X8177530Y4990367D01*
X8182521Y4994602D01*
X8187647Y4998670D01*
X8192904Y5002569D01*
X8198285Y5006293D01*
X8203786Y5009840D01*
X8209400Y5013205D01*
X8215120Y5016384D01*
X8220942Y5019374D01*
X8226858Y5022172D01*
X8232863Y5024775D01*
X8238949Y5027181D01*
X8245112Y5029386D01*
X8251343Y5031388D01*
X8257636Y5033185D01*
X8263984Y5034775D01*
X8270381Y5036157D01*
X8276820Y5037328D01*
X8283294Y5038288D01*
X8289796Y5039036D01*
X8296319Y5039571D01*
X8302856Y5039892D01*
X8309400Y5040000D01*
X9509400Y5040000D01*
X9515943Y5039892D01*
G37*
G36*
X-8302856Y-2580107D02*
G01*
X-8296319Y-2580428D01*
X-8289796Y-2580963D01*
X-8283294Y-2581711D01*
X-8276820Y-2582671D01*
X-8270381Y-2583842D01*
X-8263984Y-2585224D01*
X-8257636Y-2586814D01*
X-8251343Y-2588611D01*
X-8245112Y-2590613D01*
X-8238949Y-2592818D01*
X-8232863Y-2595224D01*
X-8226858Y-2597827D01*
X-8220942Y-2600625D01*
X-8215120Y-2603615D01*
X-8209400Y-2606794D01*
X-8203786Y-2610159D01*
X-8198285Y-2613706D01*
X-8192904Y-2617430D01*
X-8187647Y-2621329D01*
X-8182521Y-2625397D01*
X-8177530Y-2629632D01*
X-8172681Y-2634027D01*
X-8167978Y-2638578D01*
X-8163427Y-2643281D01*
X-8159032Y-2648130D01*
X-8154797Y-2653121D01*
X-8150729Y-2658247D01*
X-8146830Y-2663504D01*
X-8143106Y-2668885D01*
X-8139559Y-2674386D01*
X-8136194Y-2680000D01*
X-8133015Y-2685720D01*
X-8130025Y-2691542D01*
X-8127227Y-2697458D01*
X-8124624Y-2703463D01*
X-8122218Y-2709549D01*
X-8120013Y-2715712D01*
X-8118011Y-2721943D01*
X-8116214Y-2728236D01*
X-8114624Y-2734584D01*
X-8113242Y-2740981D01*
X-8112071Y-2747420D01*
X-8111111Y-2753894D01*
X-8110363Y-2760396D01*
X-8109828Y-2766919D01*
X-8109507Y-2773456D01*
X-8109399Y-2780000D01*
X-8109399Y-3380000D01*
X-8109507Y-3386543D01*
X-8109828Y-3393080D01*
X-8110363Y-3399603D01*
X-8111111Y-3406105D01*
X-8112071Y-3412579D01*
X-8113242Y-3419018D01*
X-8114624Y-3425415D01*
X-8116214Y-3431763D01*
X-8118011Y-3438056D01*
X-8120013Y-3444287D01*
X-8122218Y-3450450D01*
X-8124624Y-3456536D01*
X-8127227Y-3462541D01*
X-8130025Y-3468457D01*
X-8133015Y-3474279D01*
X-8136194Y-3480000D01*
X-8139559Y-3485613D01*
X-8143106Y-3491114D01*
X-8146830Y-3496495D01*
X-8150729Y-3501752D01*
X-8154797Y-3506878D01*
X-8159032Y-3511869D01*
X-8163427Y-3516718D01*
X-8167978Y-3521421D01*
X-8172681Y-3525972D01*
X-8177530Y-3530367D01*
X-8182521Y-3534602D01*
X-8187647Y-3538670D01*
X-8192904Y-3542569D01*
X-8198285Y-3546293D01*
X-8203786Y-3549840D01*
X-8209400Y-3553205D01*
X-8215120Y-3556384D01*
X-8220942Y-3559374D01*
X-8226858Y-3562172D01*
X-8232863Y-3564775D01*
X-8238949Y-3567181D01*
X-8245112Y-3569386D01*
X-8251343Y-3571388D01*
X-8257636Y-3573185D01*
X-8263984Y-3574775D01*
X-8270381Y-3576157D01*
X-8276820Y-3577328D01*
X-8283294Y-3578288D01*
X-8289796Y-3579036D01*
X-8296319Y-3579571D01*
X-8302856Y-3579892D01*
X-8309400Y-3580000D01*
X-9509400Y-3580000D01*
X-9515943Y-3579892D01*
X-9522480Y-3579571D01*
X-9529003Y-3579036D01*
X-9535505Y-3578288D01*
X-9541979Y-3577328D01*
X-9548418Y-3576157D01*
X-9554815Y-3574775D01*
X-9561163Y-3573185D01*
X-9567456Y-3571388D01*
X-9573687Y-3569386D01*
X-9579850Y-3567181D01*
X-9585936Y-3564775D01*
X-9591941Y-3562172D01*
X-9597857Y-3559374D01*
X-9603679Y-3556384D01*
X-9609399Y-3553205D01*
X-9615013Y-3549840D01*
X-9620514Y-3546293D01*
X-9625895Y-3542569D01*
X-9631152Y-3538670D01*
X-9636278Y-3534602D01*
X-9641269Y-3530367D01*
X-9646118Y-3525972D01*
X-9650821Y-3521421D01*
X-9655372Y-3516718D01*
X-9659767Y-3511869D01*
X-9664002Y-3506878D01*
X-9668070Y-3501752D01*
X-9671969Y-3496495D01*
X-9675693Y-3491114D01*
X-9679240Y-3485613D01*
X-9682605Y-3480000D01*
X-9685784Y-3474279D01*
X-9688774Y-3468457D01*
X-9691572Y-3462541D01*
X-9694175Y-3456536D01*
X-9696581Y-3450450D01*
X-9698786Y-3444287D01*
X-9700788Y-3438056D01*
X-9702585Y-3431763D01*
X-9704175Y-3425415D01*
X-9705557Y-3419018D01*
X-9706728Y-3412579D01*
X-9707688Y-3406105D01*
X-9708436Y-3399603D01*
X-9708971Y-3393080D01*
X-9709292Y-3386543D01*
X-9709400Y-3380000D01*
X-9709400Y-2780000D01*
X-9709292Y-2773456D01*
X-9708971Y-2766919D01*
X-9708436Y-2760396D01*
X-9707688Y-2753894D01*
X-9706728Y-2747420D01*
X-9705557Y-2740981D01*
X-9704175Y-2734584D01*
X-9702585Y-2728236D01*
X-9700788Y-2721943D01*
X-9698786Y-2715712D01*
X-9696581Y-2709549D01*
X-9694175Y-2703463D01*
X-9691572Y-2697458D01*
X-9688774Y-2691542D01*
X-9685784Y-2685720D01*
X-9682605Y-2680000D01*
X-9679240Y-2674386D01*
X-9675693Y-2668885D01*
X-9671969Y-2663504D01*
X-9668070Y-2658247D01*
X-9664002Y-2653121D01*
X-9659767Y-2648130D01*
X-9655372Y-2643281D01*
X-9650821Y-2638578D01*
X-9646118Y-2634027D01*
X-9641269Y-2629632D01*
X-9636278Y-2625397D01*
X-9631152Y-2621329D01*
X-9625895Y-2617430D01*
X-9620514Y-2613706D01*
X-9615013Y-2610159D01*
X-9609399Y-2606794D01*
X-9603679Y-2603615D01*
X-9597857Y-2600625D01*
X-9591941Y-2597827D01*
X-9585936Y-2595224D01*
X-9579850Y-2592818D01*
X-9573687Y-2590613D01*
X-9567456Y-2588611D01*
X-9561163Y-2586814D01*
X-9554815Y-2585224D01*
X-9548418Y-2583842D01*
X-9541979Y-2582671D01*
X-9535505Y-2581711D01*
X-9529003Y-2580963D01*
X-9522480Y-2580428D01*
X-9515943Y-2580107D01*
X-9509400Y-2580000D01*
X-8309400Y-2580000D01*
X-8302856Y-2580107D01*
G37*
G36*
X9515943Y-40107D02*
G01*
X9522480Y-40428D01*
X9529003Y-40963D01*
X9535505Y-41711D01*
X9541979Y-42671D01*
X9548418Y-43842D01*
X9554815Y-45224D01*
X9561163Y-46814D01*
X9567456Y-48611D01*
X9573687Y-50613D01*
X9579850Y-52818D01*
X9585936Y-55224D01*
X9591941Y-57827D01*
X9597857Y-60625D01*
X9603679Y-63615D01*
X9609399Y-66794D01*
X9615013Y-70159D01*
X9620514Y-73706D01*
X9625895Y-77430D01*
X9631152Y-81329D01*
X9636278Y-85397D01*
X9641269Y-89632D01*
X9646118Y-94027D01*
X9650821Y-98578D01*
X9655372Y-103281D01*
X9659767Y-108130D01*
X9664002Y-113121D01*
X9668070Y-118247D01*
X9671969Y-123504D01*
X9675693Y-128885D01*
X9679240Y-134386D01*
X9682605Y-140000D01*
X9685784Y-145720D01*
X9688774Y-151542D01*
X9691572Y-157458D01*
X9694175Y-163463D01*
X9696581Y-169549D01*
X9698786Y-175712D01*
X9700788Y-181943D01*
X9702585Y-188236D01*
X9704175Y-194584D01*
X9705557Y-200981D01*
X9706728Y-207420D01*
X9707688Y-213894D01*
X9708436Y-220396D01*
X9708971Y-226919D01*
X9709292Y-233456D01*
X9709400Y-240000D01*
X9709400Y-840000D01*
X9709292Y-846543D01*
X9708971Y-853080D01*
X9708436Y-859603D01*
X9707688Y-866105D01*
X9706728Y-872579D01*
X9705557Y-879018D01*
X9704175Y-885415D01*
X9702585Y-891763D01*
X9700788Y-898056D01*
X9698786Y-904287D01*
X9696581Y-910450D01*
X9694175Y-916536D01*
X9691572Y-922541D01*
X9688774Y-928457D01*
X9685784Y-934279D01*
X9682605Y-940000D01*
X9679240Y-945613D01*
X9675693Y-951114D01*
X9671969Y-956495D01*
X9668070Y-961752D01*
X9664002Y-966878D01*
X9659767Y-971869D01*
X9655372Y-976718D01*
X9650821Y-981421D01*
X9646118Y-985972D01*
X9641269Y-990367D01*
X9636278Y-994602D01*
X9631152Y-998670D01*
X9625895Y-1002569D01*
X9620514Y-1006293D01*
X9615013Y-1009840D01*
X9609399Y-1013205D01*
X9603679Y-1016384D01*
X9597857Y-1019374D01*
X9591941Y-1022172D01*
X9585936Y-1024775D01*
X9579850Y-1027181D01*
X9573687Y-1029386D01*
X9567456Y-1031388D01*
X9561163Y-1033185D01*
X9554815Y-1034775D01*
X9548418Y-1036157D01*
X9541979Y-1037328D01*
X9535505Y-1038288D01*
X9529003Y-1039036D01*
X9522480Y-1039571D01*
X9515943Y-1039892D01*
X9509400Y-1040000D01*
X8309400Y-1040000D01*
X8302856Y-1039892D01*
X8296319Y-1039571D01*
X8289796Y-1039036D01*
X8283294Y-1038288D01*
X8276820Y-1037328D01*
X8270381Y-1036157D01*
X8263984Y-1034775D01*
X8257636Y-1033185D01*
X8251343Y-1031388D01*
X8245112Y-1029386D01*
X8238949Y-1027181D01*
X8232863Y-1024775D01*
X8226858Y-1022172D01*
X8220942Y-1019374D01*
X8215120Y-1016384D01*
X8209400Y-1013205D01*
X8203786Y-1009840D01*
X8198285Y-1006293D01*
X8192904Y-1002569D01*
X8187647Y-998670D01*
X8182521Y-994602D01*
X8177530Y-990367D01*
X8172681Y-985972D01*
X8167978Y-981421D01*
X8163427Y-976718D01*
X8159032Y-971869D01*
X8154797Y-966878D01*
X8150729Y-961752D01*
X8146830Y-956495D01*
X8143106Y-951114D01*
X8139559Y-945613D01*
X8136194Y-940000D01*
X8133015Y-934279D01*
X8130025Y-928457D01*
X8127227Y-922541D01*
X8124624Y-916536D01*
X8122218Y-910450D01*
X8120013Y-904287D01*
X8118011Y-898056D01*
X8116214Y-891763D01*
X8114624Y-885415D01*
X8113242Y-879018D01*
X8112071Y-872579D01*
X8111111Y-866105D01*
X8110363Y-859603D01*
X8109828Y-853080D01*
X8109507Y-846543D01*
X8109399Y-840000D01*
X8109399Y-240000D01*
X8109507Y-233456D01*
X8109828Y-226919D01*
X8110363Y-220396D01*
X8111111Y-213894D01*
X8112071Y-207420D01*
X8113242Y-200981D01*
X8114624Y-194584D01*
X8116214Y-188236D01*
X8118011Y-181943D01*
X8120013Y-175712D01*
X8122218Y-169549D01*
X8124624Y-163463D01*
X8127227Y-157458D01*
X8130025Y-151542D01*
X8133015Y-145720D01*
X8136194Y-140000D01*
X8139559Y-134386D01*
X8143106Y-128885D01*
X8146830Y-123504D01*
X8150729Y-118247D01*
X8154797Y-113121D01*
X8159032Y-108130D01*
X8163427Y-103281D01*
X8167978Y-98578D01*
X8172681Y-94027D01*
X8177530Y-89632D01*
X8182521Y-85397D01*
X8187647Y-81329D01*
X8192904Y-77430D01*
X8198285Y-73706D01*
X8203786Y-70159D01*
X8209400Y-66794D01*
X8215120Y-63615D01*
X8220942Y-60625D01*
X8226858Y-57827D01*
X8232863Y-55224D01*
X8238949Y-52818D01*
X8245112Y-50613D01*
X8251343Y-48611D01*
X8257636Y-46814D01*
X8263984Y-45224D01*
X8270381Y-43842D01*
X8276820Y-42671D01*
X8283294Y-41711D01*
X8289796Y-40963D01*
X8296319Y-40428D01*
X8302856Y-40107D01*
X8309400Y-40000D01*
X9509400Y-40000D01*
X9515943Y-40107D01*
G37*
G36*
X9515943Y2499892D02*
G01*
X9522480Y2499571D01*
X9529003Y2499036D01*
X9535505Y2498288D01*
X9541979Y2497328D01*
X9548418Y2496157D01*
X9554815Y2494775D01*
X9561163Y2493185D01*
X9567456Y2491388D01*
X9573687Y2489386D01*
X9579850Y2487181D01*
X9585936Y2484775D01*
X9591941Y2482172D01*
X9597857Y2479374D01*
X9603679Y2476384D01*
X9609399Y2473205D01*
X9615013Y2469840D01*
X9620514Y2466293D01*
X9625895Y2462569D01*
X9631152Y2458670D01*
X9636278Y2454602D01*
X9641269Y2450367D01*
X9646118Y2445972D01*
X9650821Y2441421D01*
X9655372Y2436718D01*
X9659767Y2431869D01*
X9664002Y2426878D01*
X9668070Y2421752D01*
X9671969Y2416495D01*
X9675693Y2411114D01*
X9679240Y2405613D01*
X9682605Y2400000D01*
X9685784Y2394279D01*
X9688774Y2388457D01*
X9691572Y2382541D01*
X9694175Y2376536D01*
X9696581Y2370450D01*
X9698786Y2364287D01*
X9700788Y2358056D01*
X9702585Y2351763D01*
X9704175Y2345415D01*
X9705557Y2339018D01*
X9706728Y2332579D01*
X9707688Y2326105D01*
X9708436Y2319603D01*
X9708971Y2313080D01*
X9709292Y2306543D01*
X9709400Y2300000D01*
X9709400Y1700000D01*
X9709292Y1693456D01*
X9708971Y1686919D01*
X9708436Y1680396D01*
X9707688Y1673894D01*
X9706728Y1667420D01*
X9705557Y1660981D01*
X9704175Y1654584D01*
X9702585Y1648236D01*
X9700788Y1641943D01*
X9698786Y1635712D01*
X9696581Y1629549D01*
X9694175Y1623463D01*
X9691572Y1617458D01*
X9688774Y1611542D01*
X9685784Y1605720D01*
X9682605Y1600000D01*
X9679240Y1594386D01*
X9675693Y1588885D01*
X9671969Y1583504D01*
X9668070Y1578247D01*
X9664002Y1573121D01*
X9659767Y1568130D01*
X9655372Y1563281D01*
X9650821Y1558578D01*
X9646118Y1554027D01*
X9641269Y1549632D01*
X9636278Y1545397D01*
X9631152Y1541329D01*
X9625895Y1537430D01*
X9620514Y1533706D01*
X9615013Y1530159D01*
X9609399Y1526794D01*
X9603679Y1523615D01*
X9597857Y1520625D01*
X9591941Y1517827D01*
X9585936Y1515224D01*
X9579850Y1512818D01*
X9573687Y1510613D01*
X9567456Y1508611D01*
X9561163Y1506814D01*
X9554815Y1505224D01*
X9548418Y1503842D01*
X9541979Y1502671D01*
X9535505Y1501711D01*
X9529003Y1500963D01*
X9522480Y1500428D01*
X9515943Y1500107D01*
X9509400Y1500000D01*
X8309400Y1500000D01*
X8302856Y1500107D01*
X8296319Y1500428D01*
X8289796Y1500963D01*
X8283294Y1501711D01*
X8276820Y1502671D01*
X8270381Y1503842D01*
X8263984Y1505224D01*
X8257636Y1506814D01*
X8251343Y1508611D01*
X8245112Y1510613D01*
X8238949Y1512818D01*
X8232863Y1515224D01*
X8226858Y1517827D01*
X8220942Y1520625D01*
X8215120Y1523615D01*
X8209400Y1526794D01*
X8203786Y1530159D01*
X8198285Y1533706D01*
X8192904Y1537430D01*
X8187647Y1541329D01*
X8182521Y1545397D01*
X8177530Y1549632D01*
X8172681Y1554027D01*
X8167978Y1558578D01*
X8163427Y1563281D01*
X8159032Y1568130D01*
X8154797Y1573121D01*
X8150729Y1578247D01*
X8146830Y1583504D01*
X8143106Y1588885D01*
X8139559Y1594386D01*
X8136194Y1600000D01*
X8133015Y1605720D01*
X8130025Y1611542D01*
X8127227Y1617458D01*
X8124624Y1623463D01*
X8122218Y1629549D01*
X8120013Y1635712D01*
X8118011Y1641943D01*
X8116214Y1648236D01*
X8114624Y1654584D01*
X8113242Y1660981D01*
X8112071Y1667420D01*
X8111111Y1673894D01*
X8110363Y1680396D01*
X8109828Y1686919D01*
X8109507Y1693456D01*
X8109399Y1700000D01*
X8109399Y2300000D01*
X8109507Y2306543D01*
X8109828Y2313080D01*
X8110363Y2319603D01*
X8111111Y2326105D01*
X8112071Y2332579D01*
X8113242Y2339018D01*
X8114624Y2345415D01*
X8116214Y2351763D01*
X8118011Y2358056D01*
X8120013Y2364287D01*
X8122218Y2370450D01*
X8124624Y2376536D01*
X8127227Y2382541D01*
X8130025Y2388457D01*
X8133015Y2394279D01*
X8136194Y2400000D01*
X8139559Y2405613D01*
X8143106Y2411114D01*
X8146830Y2416495D01*
X8150729Y2421752D01*
X8154797Y2426878D01*
X8159032Y2431869D01*
X8163427Y2436718D01*
X8167978Y2441421D01*
X8172681Y2445972D01*
X8177530Y2450367D01*
X8182521Y2454602D01*
X8187647Y2458670D01*
X8192904Y2462569D01*
X8198285Y2466293D01*
X8203786Y2469840D01*
X8209400Y2473205D01*
X8215120Y2476384D01*
X8220942Y2479374D01*
X8226858Y2482172D01*
X8232863Y2484775D01*
X8238949Y2487181D01*
X8245112Y2489386D01*
X8251343Y2491388D01*
X8257636Y2493185D01*
X8263984Y2494775D01*
X8270381Y2496157D01*
X8276820Y2497328D01*
X8283294Y2498288D01*
X8289796Y2499036D01*
X8296319Y2499571D01*
X8302856Y2499892D01*
X8309400Y2500000D01*
X9509400Y2500000D01*
X9515943Y2499892D01*
G37*
G36*
X-8302856Y2499892D02*
G01*
X-8296319Y2499571D01*
X-8289796Y2499036D01*
X-8283294Y2498288D01*
X-8276820Y2497328D01*
X-8270381Y2496157D01*
X-8263984Y2494775D01*
X-8257636Y2493185D01*
X-8251343Y2491388D01*
X-8245112Y2489386D01*
X-8238949Y2487181D01*
X-8232863Y2484775D01*
X-8226858Y2482172D01*
X-8220942Y2479374D01*
X-8215120Y2476384D01*
X-8209400Y2473205D01*
X-8203786Y2469840D01*
X-8198285Y2466293D01*
X-8192904Y2462569D01*
X-8187647Y2458670D01*
X-8182521Y2454602D01*
X-8177530Y2450367D01*
X-8172681Y2445972D01*
X-8167978Y2441421D01*
X-8163427Y2436718D01*
X-8159032Y2431869D01*
X-8154797Y2426878D01*
X-8150729Y2421752D01*
X-8146830Y2416495D01*
X-8143106Y2411114D01*
X-8139559Y2405613D01*
X-8136194Y2400000D01*
X-8133015Y2394279D01*
X-8130025Y2388457D01*
X-8127227Y2382541D01*
X-8124624Y2376536D01*
X-8122218Y2370450D01*
X-8120013Y2364287D01*
X-8118011Y2358056D01*
X-8116214Y2351763D01*
X-8114624Y2345415D01*
X-8113242Y2339018D01*
X-8112071Y2332579D01*
X-8111111Y2326105D01*
X-8110363Y2319603D01*
X-8109828Y2313080D01*
X-8109507Y2306543D01*
X-8109399Y2300000D01*
X-8109399Y1700000D01*
X-8109507Y1693456D01*
X-8109828Y1686919D01*
X-8110363Y1680396D01*
X-8111111Y1673894D01*
X-8112071Y1667420D01*
X-8113242Y1660981D01*
X-8114624Y1654584D01*
X-8116214Y1648236D01*
X-8118011Y1641943D01*
X-8120013Y1635712D01*
X-8122218Y1629549D01*
X-8124624Y1623463D01*
X-8127227Y1617458D01*
X-8130025Y1611542D01*
X-8133015Y1605720D01*
X-8136194Y1600000D01*
X-8139559Y1594386D01*
X-8143106Y1588885D01*
X-8146830Y1583504D01*
X-8150729Y1578247D01*
X-8154797Y1573121D01*
X-8159032Y1568130D01*
X-8163427Y1563281D01*
X-8167978Y1558578D01*
X-8172681Y1554027D01*
X-8177530Y1549632D01*
X-8182521Y1545397D01*
X-8187647Y1541329D01*
X-8192904Y1537430D01*
X-8198285Y1533706D01*
X-8203786Y1530159D01*
X-8209400Y1526794D01*
X-8215120Y1523615D01*
X-8220942Y1520625D01*
X-8226858Y1517827D01*
X-8232863Y1515224D01*
X-8238949Y1512818D01*
X-8245112Y1510613D01*
X-8251343Y1508611D01*
X-8257636Y1506814D01*
X-8263984Y1505224D01*
X-8270381Y1503842D01*
X-8276820Y1502671D01*
X-8283294Y1501711D01*
X-8289796Y1500963D01*
X-8296319Y1500428D01*
X-8302856Y1500107D01*
X-8309400Y1500000D01*
X-9509400Y1500000D01*
X-9515943Y1500107D01*
X-9522480Y1500428D01*
X-9529003Y1500963D01*
X-9535505Y1501711D01*
X-9541979Y1502671D01*
X-9548418Y1503842D01*
X-9554815Y1505224D01*
X-9561163Y1506814D01*
X-9567456Y1508611D01*
X-9573687Y1510613D01*
X-9579850Y1512818D01*
X-9585936Y1515224D01*
X-9591941Y1517827D01*
X-9597857Y1520625D01*
X-9603679Y1523615D01*
X-9609399Y1526794D01*
X-9615013Y1530159D01*
X-9620514Y1533706D01*
X-9625895Y1537430D01*
X-9631152Y1541329D01*
X-9636278Y1545397D01*
X-9641269Y1549632D01*
X-9646118Y1554027D01*
X-9650821Y1558578D01*
X-9655372Y1563281D01*
X-9659767Y1568130D01*
X-9664002Y1573121D01*
X-9668070Y1578247D01*
X-9671969Y1583504D01*
X-9675693Y1588885D01*
X-9679240Y1594386D01*
X-9682605Y1600000D01*
X-9685784Y1605720D01*
X-9688774Y1611542D01*
X-9691572Y1617458D01*
X-9694175Y1623463D01*
X-9696581Y1629549D01*
X-9698786Y1635712D01*
X-9700788Y1641943D01*
X-9702585Y1648236D01*
X-9704175Y1654584D01*
X-9705557Y1660981D01*
X-9706728Y1667420D01*
X-9707688Y1673894D01*
X-9708436Y1680396D01*
X-9708971Y1686919D01*
X-9709292Y1693456D01*
X-9709400Y1700000D01*
X-9709400Y2300000D01*
X-9709292Y2306543D01*
X-9708971Y2313080D01*
X-9708436Y2319603D01*
X-9707688Y2326105D01*
X-9706728Y2332579D01*
X-9705557Y2339018D01*
X-9704175Y2345415D01*
X-9702585Y2351763D01*
X-9700788Y2358056D01*
X-9698786Y2364287D01*
X-9696581Y2370450D01*
X-9694175Y2376536D01*
X-9691572Y2382541D01*
X-9688774Y2388457D01*
X-9685784Y2394279D01*
X-9682605Y2400000D01*
X-9679240Y2405613D01*
X-9675693Y2411114D01*
X-9671969Y2416495D01*
X-9668070Y2421752D01*
X-9664002Y2426878D01*
X-9659767Y2431869D01*
X-9655372Y2436718D01*
X-9650821Y2441421D01*
X-9646118Y2445972D01*
X-9641269Y2450367D01*
X-9636278Y2454602D01*
X-9631152Y2458670D01*
X-9625895Y2462569D01*
X-9620514Y2466293D01*
X-9615013Y2469840D01*
X-9609399Y2473205D01*
X-9603679Y2476384D01*
X-9597857Y2479374D01*
X-9591941Y2482172D01*
X-9585936Y2484775D01*
X-9579850Y2487181D01*
X-9573687Y2489386D01*
X-9567456Y2491388D01*
X-9561163Y2493185D01*
X-9554815Y2494775D01*
X-9548418Y2496157D01*
X-9541979Y2497328D01*
X-9535505Y2498288D01*
X-9529003Y2499036D01*
X-9522480Y2499571D01*
X-9515943Y2499892D01*
X-9509400Y2500000D01*
X-8309400Y2500000D01*
X-8302856Y2499892D01*
G37*
G36*
X-8302856Y5039892D02*
G01*
X-8296319Y5039571D01*
X-8289796Y5039036D01*
X-8283294Y5038288D01*
X-8276820Y5037328D01*
X-8270381Y5036157D01*
X-8263984Y5034775D01*
X-8257636Y5033185D01*
X-8251343Y5031388D01*
X-8245112Y5029386D01*
X-8238949Y5027181D01*
X-8232863Y5024775D01*
X-8226858Y5022172D01*
X-8220942Y5019374D01*
X-8215120Y5016384D01*
X-8209400Y5013205D01*
X-8203786Y5009840D01*
X-8198285Y5006293D01*
X-8192904Y5002569D01*
X-8187647Y4998670D01*
X-8182521Y4994602D01*
X-8177530Y4990367D01*
X-8172681Y4985972D01*
X-8167978Y4981421D01*
X-8163427Y4976718D01*
X-8159032Y4971869D01*
X-8154797Y4966878D01*
X-8150729Y4961752D01*
X-8146830Y4956495D01*
X-8143106Y4951114D01*
X-8139559Y4945613D01*
X-8136194Y4940000D01*
X-8133015Y4934279D01*
X-8130025Y4928457D01*
X-8127227Y4922541D01*
X-8124624Y4916536D01*
X-8122218Y4910450D01*
X-8120013Y4904287D01*
X-8118011Y4898056D01*
X-8116214Y4891763D01*
X-8114624Y4885415D01*
X-8113242Y4879018D01*
X-8112071Y4872579D01*
X-8111111Y4866105D01*
X-8110363Y4859603D01*
X-8109828Y4853080D01*
X-8109507Y4846543D01*
X-8109399Y4840000D01*
X-8109399Y4240000D01*
X-8109507Y4233456D01*
X-8109828Y4226919D01*
X-8110363Y4220396D01*
X-8111111Y4213894D01*
X-8112071Y4207420D01*
X-8113242Y4200981D01*
X-8114624Y4194584D01*
X-8116214Y4188236D01*
X-8118011Y4181943D01*
X-8120013Y4175712D01*
X-8122218Y4169549D01*
X-8124624Y4163463D01*
X-8127227Y4157458D01*
X-8130025Y4151542D01*
X-8133015Y4145720D01*
X-8136194Y4139999D01*
X-8139559Y4134386D01*
X-8143106Y4128885D01*
X-8146830Y4123504D01*
X-8150729Y4118247D01*
X-8154797Y4113121D01*
X-8159032Y4108130D01*
X-8163427Y4103281D01*
X-8167978Y4098578D01*
X-8172681Y4094027D01*
X-8177530Y4089632D01*
X-8182521Y4085397D01*
X-8187647Y4081329D01*
X-8192904Y4077430D01*
X-8198285Y4073706D01*
X-8203786Y4070159D01*
X-8209400Y4066794D01*
X-8215120Y4063615D01*
X-8220942Y4060625D01*
X-8226858Y4057827D01*
X-8232863Y4055224D01*
X-8238949Y4052818D01*
X-8245112Y4050613D01*
X-8251343Y4048611D01*
X-8257636Y4046814D01*
X-8263984Y4045224D01*
X-8270381Y4043842D01*
X-8276820Y4042671D01*
X-8283294Y4041711D01*
X-8289796Y4040963D01*
X-8296319Y4040428D01*
X-8302856Y4040107D01*
X-8309400Y4040000D01*
X-9509400Y4040000D01*
X-9515943Y4040107D01*
X-9522480Y4040428D01*
X-9529003Y4040963D01*
X-9535505Y4041711D01*
X-9541979Y4042671D01*
X-9548418Y4043842D01*
X-9554815Y4045224D01*
X-9561163Y4046814D01*
X-9567456Y4048611D01*
X-9573687Y4050613D01*
X-9579850Y4052818D01*
X-9585936Y4055224D01*
X-9591941Y4057827D01*
X-9597857Y4060625D01*
X-9603679Y4063615D01*
X-9609399Y4066794D01*
X-9615013Y4070159D01*
X-9620514Y4073706D01*
X-9625895Y4077430D01*
X-9631152Y4081329D01*
X-9636278Y4085397D01*
X-9641269Y4089632D01*
X-9646118Y4094027D01*
X-9650821Y4098578D01*
X-9655372Y4103281D01*
X-9659767Y4108130D01*
X-9664002Y4113121D01*
X-9668070Y4118247D01*
X-9671969Y4123504D01*
X-9675693Y4128885D01*
X-9679240Y4134386D01*
X-9682605Y4139999D01*
X-9685784Y4145720D01*
X-9688774Y4151542D01*
X-9691572Y4157458D01*
X-9694175Y4163463D01*
X-9696581Y4169549D01*
X-9698786Y4175712D01*
X-9700788Y4181943D01*
X-9702585Y4188236D01*
X-9704175Y4194584D01*
X-9705557Y4200981D01*
X-9706728Y4207420D01*
X-9707688Y4213894D01*
X-9708436Y4220396D01*
X-9708971Y4226919D01*
X-9709292Y4233456D01*
X-9709400Y4240000D01*
X-9709400Y4840000D01*
X-9709292Y4846543D01*
X-9708971Y4853080D01*
X-9708436Y4859603D01*
X-9707688Y4866105D01*
X-9706728Y4872579D01*
X-9705557Y4879018D01*
X-9704175Y4885415D01*
X-9702585Y4891763D01*
X-9700788Y4898056D01*
X-9698786Y4904287D01*
X-9696581Y4910450D01*
X-9694175Y4916536D01*
X-9691572Y4922541D01*
X-9688774Y4928457D01*
X-9685784Y4934279D01*
X-9682605Y4940000D01*
X-9679240Y4945613D01*
X-9675693Y4951114D01*
X-9671969Y4956495D01*
X-9668070Y4961752D01*
X-9664002Y4966878D01*
X-9659767Y4971869D01*
X-9655372Y4976718D01*
X-9650821Y4981421D01*
X-9646118Y4985972D01*
X-9641269Y4990367D01*
X-9636278Y4994602D01*
X-9631152Y4998670D01*
X-9625895Y5002569D01*
X-9620514Y5006293D01*
X-9615013Y5009840D01*
X-9609399Y5013205D01*
X-9603679Y5016384D01*
X-9597857Y5019374D01*
X-9591941Y5022172D01*
X-9585936Y5024775D01*
X-9579850Y5027181D01*
X-9573687Y5029386D01*
X-9567456Y5031388D01*
X-9561163Y5033185D01*
X-9554815Y5034775D01*
X-9548418Y5036157D01*
X-9541979Y5037328D01*
X-9535505Y5038288D01*
X-9529003Y5039036D01*
X-9522480Y5039571D01*
X-9515943Y5039892D01*
X-9509400Y5040000D01*
X-8309400Y5040000D01*
X-8302856Y5039892D01*
G37*
G36*
X-8302856Y10119892D02*
G01*
X-8296319Y10119571D01*
X-8289796Y10119036D01*
X-8283294Y10118288D01*
X-8276820Y10117328D01*
X-8270381Y10116157D01*
X-8263984Y10114775D01*
X-8257636Y10113185D01*
X-8251343Y10111388D01*
X-8245112Y10109386D01*
X-8238949Y10107181D01*
X-8232863Y10104775D01*
X-8226858Y10102172D01*
X-8220942Y10099374D01*
X-8215120Y10096384D01*
X-8209400Y10093205D01*
X-8203786Y10089840D01*
X-8198285Y10086293D01*
X-8192904Y10082569D01*
X-8187647Y10078670D01*
X-8182521Y10074602D01*
X-8177530Y10070367D01*
X-8172681Y10065972D01*
X-8167978Y10061421D01*
X-8163427Y10056718D01*
X-8159032Y10051869D01*
X-8154797Y10046878D01*
X-8150729Y10041752D01*
X-8146830Y10036495D01*
X-8143106Y10031114D01*
X-8139559Y10025613D01*
X-8136194Y10020000D01*
X-8133015Y10014279D01*
X-8130025Y10008457D01*
X-8127227Y10002541D01*
X-8124624Y9996536D01*
X-8122218Y9990450D01*
X-8120013Y9984287D01*
X-8118011Y9978056D01*
X-8116214Y9971763D01*
X-8114624Y9965415D01*
X-8113242Y9959018D01*
X-8112071Y9952579D01*
X-8111111Y9946105D01*
X-8110363Y9939603D01*
X-8109828Y9933080D01*
X-8109507Y9926543D01*
X-8109399Y9920000D01*
X-8109399Y9319999D01*
X-8109507Y9313456D01*
X-8109828Y9306919D01*
X-8110363Y9300396D01*
X-8111111Y9293894D01*
X-8112071Y9287420D01*
X-8113242Y9280981D01*
X-8114624Y9274584D01*
X-8116214Y9268236D01*
X-8118011Y9261943D01*
X-8120013Y9255712D01*
X-8122218Y9249549D01*
X-8124624Y9243463D01*
X-8127227Y9237458D01*
X-8130025Y9231542D01*
X-8133015Y9225720D01*
X-8136194Y9219999D01*
X-8139559Y9214386D01*
X-8143106Y9208885D01*
X-8146830Y9203504D01*
X-8150729Y9198247D01*
X-8154797Y9193121D01*
X-8159032Y9188130D01*
X-8163427Y9183281D01*
X-8167978Y9178578D01*
X-8172681Y9174027D01*
X-8177530Y9169632D01*
X-8182521Y9165397D01*
X-8187647Y9161329D01*
X-8192904Y9157430D01*
X-8198285Y9153706D01*
X-8203786Y9150159D01*
X-8209400Y9146794D01*
X-8215120Y9143615D01*
X-8220942Y9140625D01*
X-8226858Y9137827D01*
X-8232863Y9135224D01*
X-8238949Y9132818D01*
X-8245112Y9130613D01*
X-8251343Y9128611D01*
X-8257636Y9126814D01*
X-8263984Y9125224D01*
X-8270381Y9123842D01*
X-8276820Y9122671D01*
X-8283294Y9121711D01*
X-8289796Y9120963D01*
X-8296319Y9120428D01*
X-8302856Y9120107D01*
X-8309400Y9120000D01*
X-9509400Y9120000D01*
X-9515943Y9120107D01*
X-9522480Y9120428D01*
X-9529003Y9120963D01*
X-9535505Y9121711D01*
X-9541979Y9122671D01*
X-9548418Y9123842D01*
X-9554815Y9125224D01*
X-9561163Y9126814D01*
X-9567456Y9128611D01*
X-9573687Y9130613D01*
X-9579850Y9132818D01*
X-9585936Y9135224D01*
X-9591941Y9137827D01*
X-9597857Y9140625D01*
X-9603679Y9143615D01*
X-9609399Y9146794D01*
X-9615013Y9150159D01*
X-9620514Y9153706D01*
X-9625895Y9157430D01*
X-9631152Y9161329D01*
X-9636278Y9165397D01*
X-9641269Y9169632D01*
X-9646118Y9174027D01*
X-9650821Y9178578D01*
X-9655372Y9183281D01*
X-9659767Y9188130D01*
X-9664002Y9193121D01*
X-9668070Y9198247D01*
X-9671969Y9203504D01*
X-9675693Y9208885D01*
X-9679240Y9214386D01*
X-9682605Y9219999D01*
X-9685784Y9225720D01*
X-9688774Y9231542D01*
X-9691572Y9237458D01*
X-9694175Y9243463D01*
X-9696581Y9249549D01*
X-9698786Y9255712D01*
X-9700788Y9261943D01*
X-9702585Y9268236D01*
X-9704175Y9274584D01*
X-9705557Y9280981D01*
X-9706728Y9287420D01*
X-9707688Y9293894D01*
X-9708436Y9300396D01*
X-9708971Y9306919D01*
X-9709292Y9313456D01*
X-9709400Y9319999D01*
X-9709400Y9920000D01*
X-9709292Y9926543D01*
X-9708971Y9933080D01*
X-9708436Y9939603D01*
X-9707688Y9946105D01*
X-9706728Y9952579D01*
X-9705557Y9959018D01*
X-9704175Y9965415D01*
X-9702585Y9971763D01*
X-9700788Y9978056D01*
X-9698786Y9984287D01*
X-9696581Y9990450D01*
X-9694175Y9996536D01*
X-9691572Y10002541D01*
X-9688774Y10008457D01*
X-9685784Y10014279D01*
X-9682605Y10020000D01*
X-9679240Y10025613D01*
X-9675693Y10031114D01*
X-9671969Y10036495D01*
X-9668070Y10041752D01*
X-9664002Y10046878D01*
X-9659767Y10051869D01*
X-9655372Y10056718D01*
X-9650821Y10061421D01*
X-9646118Y10065972D01*
X-9641269Y10070367D01*
X-9636278Y10074602D01*
X-9631152Y10078670D01*
X-9625895Y10082569D01*
X-9620514Y10086293D01*
X-9615013Y10089840D01*
X-9609399Y10093205D01*
X-9603679Y10096384D01*
X-9597857Y10099374D01*
X-9591941Y10102172D01*
X-9585936Y10104775D01*
X-9579850Y10107181D01*
X-9573687Y10109386D01*
X-9567456Y10111388D01*
X-9561163Y10113185D01*
X-9554815Y10114775D01*
X-9548418Y10116157D01*
X-9541979Y10117328D01*
X-9535505Y10118288D01*
X-9529003Y10119036D01*
X-9522480Y10119571D01*
X-9515943Y10119892D01*
X-9509400Y10120000D01*
X-8309400Y10120000D01*
X-8302856Y10119892D01*
G37*
G36*
X9515943Y10119892D02*
G01*
X9522480Y10119571D01*
X9529003Y10119036D01*
X9535505Y10118288D01*
X9541979Y10117328D01*
X9548418Y10116157D01*
X9554815Y10114775D01*
X9561163Y10113185D01*
X9567456Y10111388D01*
X9573687Y10109386D01*
X9579850Y10107181D01*
X9585936Y10104775D01*
X9591941Y10102172D01*
X9597857Y10099374D01*
X9603679Y10096384D01*
X9609399Y10093205D01*
X9615013Y10089840D01*
X9620514Y10086293D01*
X9625895Y10082569D01*
X9631152Y10078670D01*
X9636278Y10074602D01*
X9641269Y10070367D01*
X9646118Y10065972D01*
X9650821Y10061421D01*
X9655372Y10056718D01*
X9659767Y10051869D01*
X9664002Y10046878D01*
X9668070Y10041752D01*
X9671969Y10036495D01*
X9675693Y10031114D01*
X9679240Y10025613D01*
X9682605Y10020000D01*
X9685784Y10014279D01*
X9688774Y10008457D01*
X9691572Y10002541D01*
X9694175Y9996536D01*
X9696581Y9990450D01*
X9698786Y9984287D01*
X9700788Y9978056D01*
X9702585Y9971763D01*
X9704175Y9965415D01*
X9705557Y9959018D01*
X9706728Y9952579D01*
X9707688Y9946105D01*
X9708436Y9939603D01*
X9708971Y9933080D01*
X9709292Y9926543D01*
X9709400Y9920000D01*
X9709400Y9319999D01*
X9709292Y9313456D01*
X9708971Y9306919D01*
X9708436Y9300396D01*
X9707688Y9293894D01*
X9706728Y9287420D01*
X9705557Y9280981D01*
X9704175Y9274584D01*
X9702585Y9268236D01*
X9700788Y9261943D01*
X9698786Y9255712D01*
X9696581Y9249549D01*
X9694175Y9243463D01*
X9691572Y9237458D01*
X9688774Y9231542D01*
X9685784Y9225720D01*
X9682605Y9219999D01*
X9679240Y9214386D01*
X9675693Y9208885D01*
X9671969Y9203504D01*
X9668070Y9198247D01*
X9664002Y9193121D01*
X9659767Y9188130D01*
X9655372Y9183281D01*
X9650821Y9178578D01*
X9646118Y9174027D01*
X9641269Y9169632D01*
X9636278Y9165397D01*
X9631152Y9161329D01*
X9625895Y9157430D01*
X9620514Y9153706D01*
X9615013Y9150159D01*
X9609399Y9146794D01*
X9603679Y9143615D01*
X9597857Y9140625D01*
X9591941Y9137827D01*
X9585936Y9135224D01*
X9579850Y9132818D01*
X9573687Y9130613D01*
X9567456Y9128611D01*
X9561163Y9126814D01*
X9554815Y9125224D01*
X9548418Y9123842D01*
X9541979Y9122671D01*
X9535505Y9121711D01*
X9529003Y9120963D01*
X9522480Y9120428D01*
X9515943Y9120107D01*
X9509400Y9120000D01*
X8309400Y9120000D01*
X8302856Y9120107D01*
X8296319Y9120428D01*
X8289796Y9120963D01*
X8283294Y9121711D01*
X8276820Y9122671D01*
X8270381Y9123842D01*
X8263984Y9125224D01*
X8257636Y9126814D01*
X8251343Y9128611D01*
X8245112Y9130613D01*
X8238949Y9132818D01*
X8232863Y9135224D01*
X8226858Y9137827D01*
X8220942Y9140625D01*
X8215120Y9143615D01*
X8209400Y9146794D01*
X8203786Y9150159D01*
X8198285Y9153706D01*
X8192904Y9157430D01*
X8187647Y9161329D01*
X8182521Y9165397D01*
X8177530Y9169632D01*
X8172681Y9174027D01*
X8167978Y9178578D01*
X8163427Y9183281D01*
X8159032Y9188130D01*
X8154797Y9193121D01*
X8150729Y9198247D01*
X8146830Y9203504D01*
X8143106Y9208885D01*
X8139559Y9214386D01*
X8136194Y9219999D01*
X8133015Y9225720D01*
X8130025Y9231542D01*
X8127227Y9237458D01*
X8124624Y9243463D01*
X8122218Y9249549D01*
X8120013Y9255712D01*
X8118011Y9261943D01*
X8116214Y9268236D01*
X8114624Y9274584D01*
X8113242Y9280981D01*
X8112071Y9287420D01*
X8111111Y9293894D01*
X8110363Y9300396D01*
X8109828Y9306919D01*
X8109507Y9313456D01*
X8109399Y9319999D01*
X8109399Y9920000D01*
X8109507Y9926543D01*
X8109828Y9933080D01*
X8110363Y9939603D01*
X8111111Y9946105D01*
X8112071Y9952579D01*
X8113242Y9959018D01*
X8114624Y9965415D01*
X8116214Y9971763D01*
X8118011Y9978056D01*
X8120013Y9984287D01*
X8122218Y9990450D01*
X8124624Y9996536D01*
X8127227Y10002541D01*
X8130025Y10008457D01*
X8133015Y10014279D01*
X8136194Y10020000D01*
X8139559Y10025613D01*
X8143106Y10031114D01*
X8146830Y10036495D01*
X8150729Y10041752D01*
X8154797Y10046878D01*
X8159032Y10051869D01*
X8163427Y10056718D01*
X8167978Y10061421D01*
X8172681Y10065972D01*
X8177530Y10070367D01*
X8182521Y10074602D01*
X8187647Y10078670D01*
X8192904Y10082569D01*
X8198285Y10086293D01*
X8203786Y10089840D01*
X8209400Y10093205D01*
X8215120Y10096384D01*
X8220942Y10099374D01*
X8226858Y10102172D01*
X8232863Y10104775D01*
X8238949Y10107181D01*
X8245112Y10109386D01*
X8251343Y10111388D01*
X8257636Y10113185D01*
X8263984Y10114775D01*
X8270381Y10116157D01*
X8276820Y10117328D01*
X8283294Y10118288D01*
X8289796Y10119036D01*
X8296319Y10119571D01*
X8302856Y10119892D01*
X8309400Y10120000D01*
X9509400Y10120000D01*
X9515943Y10119892D01*
G37*
G36*
X-8302856Y-40107D02*
G01*
X-8296319Y-40428D01*
X-8289796Y-40963D01*
X-8283294Y-41711D01*
X-8276820Y-42671D01*
X-8270381Y-43842D01*
X-8263984Y-45224D01*
X-8257636Y-46814D01*
X-8251343Y-48611D01*
X-8245112Y-50613D01*
X-8238949Y-52818D01*
X-8232863Y-55224D01*
X-8226858Y-57827D01*
X-8220942Y-60625D01*
X-8215120Y-63615D01*
X-8209400Y-66794D01*
X-8203786Y-70159D01*
X-8198285Y-73706D01*
X-8192904Y-77430D01*
X-8187647Y-81329D01*
X-8182521Y-85397D01*
X-8177530Y-89632D01*
X-8172681Y-94027D01*
X-8167978Y-98578D01*
X-8163427Y-103281D01*
X-8159032Y-108130D01*
X-8154797Y-113121D01*
X-8150729Y-118247D01*
X-8146830Y-123504D01*
X-8143106Y-128885D01*
X-8139559Y-134386D01*
X-8136194Y-140000D01*
X-8133015Y-145720D01*
X-8130025Y-151542D01*
X-8127227Y-157458D01*
X-8124624Y-163463D01*
X-8122218Y-169549D01*
X-8120013Y-175712D01*
X-8118011Y-181943D01*
X-8116214Y-188236D01*
X-8114624Y-194584D01*
X-8113242Y-200981D01*
X-8112071Y-207420D01*
X-8111111Y-213894D01*
X-8110363Y-220396D01*
X-8109828Y-226919D01*
X-8109507Y-233456D01*
X-8109399Y-240000D01*
X-8109399Y-840000D01*
X-8109507Y-846543D01*
X-8109828Y-853080D01*
X-8110363Y-859603D01*
X-8111111Y-866105D01*
X-8112071Y-872579D01*
X-8113242Y-879018D01*
X-8114624Y-885415D01*
X-8116214Y-891763D01*
X-8118011Y-898056D01*
X-8120013Y-904287D01*
X-8122218Y-910450D01*
X-8124624Y-916536D01*
X-8127227Y-922541D01*
X-8130025Y-928457D01*
X-8133015Y-934279D01*
X-8136194Y-940000D01*
X-8139559Y-945613D01*
X-8143106Y-951114D01*
X-8146830Y-956495D01*
X-8150729Y-961752D01*
X-8154797Y-966878D01*
X-8159032Y-971869D01*
X-8163427Y-976718D01*
X-8167978Y-981421D01*
X-8172681Y-985972D01*
X-8177530Y-990367D01*
X-8182521Y-994602D01*
X-8187647Y-998670D01*
X-8192904Y-1002569D01*
X-8198285Y-1006293D01*
X-8203786Y-1009840D01*
X-8209400Y-1013205D01*
X-8215120Y-1016384D01*
X-8220942Y-1019374D01*
X-8226858Y-1022172D01*
X-8232863Y-1024775D01*
X-8238949Y-1027181D01*
X-8245112Y-1029386D01*
X-8251343Y-1031388D01*
X-8257636Y-1033185D01*
X-8263984Y-1034775D01*
X-8270381Y-1036157D01*
X-8276820Y-1037328D01*
X-8283294Y-1038288D01*
X-8289796Y-1039036D01*
X-8296319Y-1039571D01*
X-8302856Y-1039892D01*
X-8309400Y-1040000D01*
X-9509400Y-1040000D01*
X-9515943Y-1039892D01*
X-9522480Y-1039571D01*
X-9529003Y-1039036D01*
X-9535505Y-1038288D01*
X-9541979Y-1037328D01*
X-9548418Y-1036157D01*
X-9554815Y-1034775D01*
X-9561163Y-1033185D01*
X-9567456Y-1031388D01*
X-9573687Y-1029386D01*
X-9579850Y-1027181D01*
X-9585936Y-1024775D01*
X-9591941Y-1022172D01*
X-9597857Y-1019374D01*
X-9603679Y-1016384D01*
X-9609399Y-1013205D01*
X-9615013Y-1009840D01*
X-9620514Y-1006293D01*
X-9625895Y-1002569D01*
X-9631152Y-998670D01*
X-9636278Y-994602D01*
X-9641269Y-990367D01*
X-9646118Y-985972D01*
X-9650821Y-981421D01*
X-9655372Y-976718D01*
X-9659767Y-971869D01*
X-9664002Y-966878D01*
X-9668070Y-961752D01*
X-9671969Y-956495D01*
X-9675693Y-951114D01*
X-9679240Y-945613D01*
X-9682605Y-940000D01*
X-9685784Y-934279D01*
X-9688774Y-928457D01*
X-9691572Y-922541D01*
X-9694175Y-916536D01*
X-9696581Y-910450D01*
X-9698786Y-904287D01*
X-9700788Y-898056D01*
X-9702585Y-891763D01*
X-9704175Y-885415D01*
X-9705557Y-879018D01*
X-9706728Y-872579D01*
X-9707688Y-866105D01*
X-9708436Y-859603D01*
X-9708971Y-853080D01*
X-9709292Y-846543D01*
X-9709400Y-840000D01*
X-9709400Y-240000D01*
X-9709292Y-233456D01*
X-9708971Y-226919D01*
X-9708436Y-220396D01*
X-9707688Y-213894D01*
X-9706728Y-207420D01*
X-9705557Y-200981D01*
X-9704175Y-194584D01*
X-9702585Y-188236D01*
X-9700788Y-181943D01*
X-9698786Y-175712D01*
X-9696581Y-169549D01*
X-9694175Y-163463D01*
X-9691572Y-157458D01*
X-9688774Y-151542D01*
X-9685784Y-145720D01*
X-9682605Y-140000D01*
X-9679240Y-134386D01*
X-9675693Y-128885D01*
X-9671969Y-123504D01*
X-9668070Y-118247D01*
X-9664002Y-113121D01*
X-9659767Y-108130D01*
X-9655372Y-103281D01*
X-9650821Y-98578D01*
X-9646118Y-94027D01*
X-9641269Y-89632D01*
X-9636278Y-85397D01*
X-9631152Y-81329D01*
X-9625895Y-77430D01*
X-9620514Y-73706D01*
X-9615013Y-70159D01*
X-9609399Y-66794D01*
X-9603679Y-63615D01*
X-9597857Y-60625D01*
X-9591941Y-57827D01*
X-9585936Y-55224D01*
X-9579850Y-52818D01*
X-9573687Y-50613D01*
X-9567456Y-48611D01*
X-9561163Y-46814D01*
X-9554815Y-45224D01*
X-9548418Y-43842D01*
X-9541979Y-42671D01*
X-9535505Y-41711D01*
X-9529003Y-40963D01*
X-9522480Y-40428D01*
X-9515943Y-40107D01*
X-9509400Y-40000D01*
X-8309400Y-40000D01*
X-8302856Y-40107D01*
G37*
G36*
X-8302856Y7579892D02*
G01*
X-8296319Y7579571D01*
X-8289796Y7579036D01*
X-8283294Y7578288D01*
X-8276820Y7577328D01*
X-8270381Y7576157D01*
X-8263984Y7574775D01*
X-8257636Y7573185D01*
X-8251343Y7571388D01*
X-8245112Y7569386D01*
X-8238949Y7567181D01*
X-8232863Y7564775D01*
X-8226858Y7562172D01*
X-8220942Y7559374D01*
X-8215120Y7556384D01*
X-8209400Y7553205D01*
X-8203786Y7549840D01*
X-8198285Y7546293D01*
X-8192904Y7542569D01*
X-8187647Y7538670D01*
X-8182521Y7534602D01*
X-8177530Y7530367D01*
X-8172681Y7525972D01*
X-8167978Y7521421D01*
X-8163427Y7516718D01*
X-8159032Y7511869D01*
X-8154797Y7506878D01*
X-8150729Y7501752D01*
X-8146830Y7496495D01*
X-8143106Y7491114D01*
X-8139559Y7485613D01*
X-8136194Y7480000D01*
X-8133015Y7474279D01*
X-8130025Y7468457D01*
X-8127227Y7462541D01*
X-8124624Y7456536D01*
X-8122218Y7450450D01*
X-8120013Y7444287D01*
X-8118011Y7438056D01*
X-8116214Y7431763D01*
X-8114624Y7425415D01*
X-8113242Y7419018D01*
X-8112071Y7412579D01*
X-8111111Y7406105D01*
X-8110363Y7399603D01*
X-8109828Y7393080D01*
X-8109507Y7386543D01*
X-8109399Y7380000D01*
X-8109399Y6780000D01*
X-8109507Y6773456D01*
X-8109828Y6766919D01*
X-8110363Y6760396D01*
X-8111111Y6753894D01*
X-8112071Y6747420D01*
X-8113242Y6740981D01*
X-8114624Y6734584D01*
X-8116214Y6728236D01*
X-8118011Y6721943D01*
X-8120013Y6715712D01*
X-8122218Y6709549D01*
X-8124624Y6703463D01*
X-8127227Y6697458D01*
X-8130025Y6691542D01*
X-8133015Y6685720D01*
X-8136194Y6680000D01*
X-8139559Y6674386D01*
X-8143106Y6668885D01*
X-8146830Y6663504D01*
X-8150729Y6658247D01*
X-8154797Y6653121D01*
X-8159032Y6648130D01*
X-8163427Y6643281D01*
X-8167978Y6638578D01*
X-8172681Y6634027D01*
X-8177530Y6629632D01*
X-8182521Y6625397D01*
X-8187647Y6621329D01*
X-8192904Y6617430D01*
X-8198285Y6613706D01*
X-8203786Y6610159D01*
X-8209400Y6606794D01*
X-8215120Y6603615D01*
X-8220942Y6600625D01*
X-8226858Y6597827D01*
X-8232863Y6595224D01*
X-8238949Y6592818D01*
X-8245112Y6590613D01*
X-8251343Y6588611D01*
X-8257636Y6586814D01*
X-8263984Y6585224D01*
X-8270381Y6583842D01*
X-8276820Y6582671D01*
X-8283294Y6581711D01*
X-8289796Y6580963D01*
X-8296319Y6580428D01*
X-8302856Y6580107D01*
X-8309400Y6580000D01*
X-9509400Y6580000D01*
X-9515943Y6580107D01*
X-9522480Y6580428D01*
X-9529003Y6580963D01*
X-9535505Y6581711D01*
X-9541979Y6582671D01*
X-9548418Y6583842D01*
X-9554815Y6585224D01*
X-9561163Y6586814D01*
X-9567456Y6588611D01*
X-9573687Y6590613D01*
X-9579850Y6592818D01*
X-9585936Y6595224D01*
X-9591941Y6597827D01*
X-9597857Y6600625D01*
X-9603679Y6603615D01*
X-9609399Y6606794D01*
X-9615013Y6610159D01*
X-9620514Y6613706D01*
X-9625895Y6617430D01*
X-9631152Y6621329D01*
X-9636278Y6625397D01*
X-9641269Y6629632D01*
X-9646118Y6634027D01*
X-9650821Y6638578D01*
X-9655372Y6643281D01*
X-9659767Y6648130D01*
X-9664002Y6653121D01*
X-9668070Y6658247D01*
X-9671969Y6663504D01*
X-9675693Y6668885D01*
X-9679240Y6674386D01*
X-9682605Y6680000D01*
X-9685784Y6685720D01*
X-9688774Y6691542D01*
X-9691572Y6697458D01*
X-9694175Y6703463D01*
X-9696581Y6709549D01*
X-9698786Y6715712D01*
X-9700788Y6721943D01*
X-9702585Y6728236D01*
X-9704175Y6734584D01*
X-9705557Y6740981D01*
X-9706728Y6747420D01*
X-9707688Y6753894D01*
X-9708436Y6760396D01*
X-9708971Y6766919D01*
X-9709292Y6773456D01*
X-9709400Y6780000D01*
X-9709400Y7380000D01*
X-9709292Y7386543D01*
X-9708971Y7393080D01*
X-9708436Y7399603D01*
X-9707688Y7406105D01*
X-9706728Y7412579D01*
X-9705557Y7419018D01*
X-9704175Y7425415D01*
X-9702585Y7431763D01*
X-9700788Y7438056D01*
X-9698786Y7444287D01*
X-9696581Y7450450D01*
X-9694175Y7456536D01*
X-9691572Y7462541D01*
X-9688774Y7468457D01*
X-9685784Y7474279D01*
X-9682605Y7480000D01*
X-9679240Y7485613D01*
X-9675693Y7491114D01*
X-9671969Y7496495D01*
X-9668070Y7501752D01*
X-9664002Y7506878D01*
X-9659767Y7511869D01*
X-9655372Y7516718D01*
X-9650821Y7521421D01*
X-9646118Y7525972D01*
X-9641269Y7530367D01*
X-9636278Y7534602D01*
X-9631152Y7538670D01*
X-9625895Y7542569D01*
X-9620514Y7546293D01*
X-9615013Y7549840D01*
X-9609399Y7553205D01*
X-9603679Y7556384D01*
X-9597857Y7559374D01*
X-9591941Y7562172D01*
X-9585936Y7564775D01*
X-9579850Y7567181D01*
X-9573687Y7569386D01*
X-9567456Y7571388D01*
X-9561163Y7573185D01*
X-9554815Y7574775D01*
X-9548418Y7576157D01*
X-9541979Y7577328D01*
X-9535505Y7578288D01*
X-9529003Y7579036D01*
X-9522480Y7579571D01*
X-9515943Y7579892D01*
X-9509400Y7580000D01*
X-8309400Y7580000D01*
X-8302856Y7579892D01*
G37*
G36*
X-11104719Y-3638502D02*
G01*
X-10912552Y-3749449D01*
X-10755649Y-3906352D01*
X-10644702Y-4098519D01*
X-10587271Y-4312852D01*
X-10587271Y-4534747D01*
X-10644702Y-4749080D01*
X-10755649Y-4941247D01*
X-10912552Y-5098150D01*
X-11104719Y-5209097D01*
X-11319052Y-5266528D01*
X-11540947Y-5266528D01*
X-11755280Y-5209097D01*
X-11947447Y-5098150D01*
X-12104350Y-4941247D01*
X-12215297Y-4749080D01*
X-12272728Y-4534747D01*
X-12272728Y-4312852D01*
X-12215297Y-4098519D01*
X-12104350Y-3906352D01*
X-11947447Y-3749449D01*
X-11755280Y-3638502D01*
X-11540947Y-3581071D01*
X-11319052Y-3581071D01*
X-11104719Y-3638502D01*
G37*
G36*
X-11104719Y-11258502D02*
G01*
X-10912552Y-11369449D01*
X-10755649Y-11526352D01*
X-10644702Y-11718519D01*
X-10587271Y-11932852D01*
X-10587271Y-12154747D01*
X-10644702Y-12369080D01*
X-10755649Y-12561247D01*
X-10912552Y-12718150D01*
X-11104719Y-12829097D01*
X-11319052Y-12886528D01*
X-11540947Y-12886528D01*
X-11755280Y-12829097D01*
X-11947447Y-12718150D01*
X-12104350Y-12561247D01*
X-12215297Y-12369080D01*
X-12272728Y-12154747D01*
X-12272728Y-11932852D01*
X-12215297Y-11718519D01*
X-12104350Y-11526352D01*
X-11947447Y-11369449D01*
X-11755280Y-11258502D01*
X-11540947Y-11201071D01*
X-11319052Y-11201071D01*
X-11104719Y-11258502D01*
G37*
G36*
X-11104719Y-6178502D02*
G01*
X-10912552Y-6289449D01*
X-10755649Y-6446352D01*
X-10644702Y-6638519D01*
X-10587271Y-6852852D01*
X-10587271Y-7074747D01*
X-10644702Y-7289080D01*
X-10755649Y-7481247D01*
X-10912552Y-7638150D01*
X-11104719Y-7749097D01*
X-11319052Y-7806528D01*
X-11540947Y-7806528D01*
X-11755280Y-7749097D01*
X-11947447Y-7638150D01*
X-12104350Y-7481247D01*
X-12215297Y-7289080D01*
X-12272728Y-7074747D01*
X-12272728Y-6852852D01*
X-12215297Y-6638519D01*
X-12104350Y-6446352D01*
X-11947447Y-6289449D01*
X-11755280Y-6178502D01*
X-11540947Y-6121071D01*
X-11319052Y-6121071D01*
X-11104719Y-6178502D01*
G37*
G36*
X-11104719Y6521497D02*
G01*
X-10912552Y6410550D01*
X-10755649Y6253647D01*
X-10644702Y6061480D01*
X-10587271Y5847147D01*
X-10587271Y5625252D01*
X-10644702Y5410919D01*
X-10755649Y5218752D01*
X-10912552Y5061849D01*
X-11104719Y4950902D01*
X-11319052Y4893471D01*
X-11540947Y4893471D01*
X-11755280Y4950902D01*
X-11947447Y5061849D01*
X-12104350Y5218752D01*
X-12215297Y5410919D01*
X-12272728Y5625252D01*
X-12272728Y5847147D01*
X-12215297Y6061480D01*
X-12104350Y6253647D01*
X-11947447Y6410550D01*
X-11755280Y6521497D01*
X-11540947Y6578928D01*
X-11319052Y6578928D01*
X-11104719Y6521497D01*
G37*
G36*
X-11104719Y3981497D02*
G01*
X-10912552Y3870550D01*
X-10755649Y3713647D01*
X-10644702Y3521480D01*
X-10587271Y3307147D01*
X-10587271Y3085252D01*
X-10644702Y2870919D01*
X-10755649Y2678752D01*
X-10912552Y2521849D01*
X-11104719Y2410902D01*
X-11319052Y2353471D01*
X-11540947Y2353471D01*
X-11755280Y2410902D01*
X-11947447Y2521849D01*
X-12104350Y2678752D01*
X-12215297Y2870919D01*
X-12272728Y3085252D01*
X-12272728Y3307147D01*
X-12215297Y3521480D01*
X-12104350Y3713647D01*
X-11947447Y3870550D01*
X-11755280Y3981497D01*
X-11540947Y4038928D01*
X-11319052Y4038928D01*
X-11104719Y3981497D01*
G37*
G36*
X-11104719Y11601497D02*
G01*
X-10912552Y11490550D01*
X-10755649Y11333647D01*
X-10644702Y11141480D01*
X-10587271Y10927147D01*
X-10587271Y10705252D01*
X-10644702Y10490919D01*
X-10755649Y10298752D01*
X-10912552Y10141849D01*
X-11104719Y10030902D01*
X-11319052Y9973471D01*
X-11540947Y9973471D01*
X-11755280Y10030902D01*
X-11947447Y10141849D01*
X-12104350Y10298752D01*
X-12215297Y10490919D01*
X-12272728Y10705252D01*
X-12272728Y10927147D01*
X-12215297Y11141480D01*
X-12104350Y11333647D01*
X-11947447Y11490550D01*
X-11755280Y11601497D01*
X-11540947Y11658928D01*
X-11319052Y11658928D01*
X-11104719Y11601497D01*
G37*
G36*
X-11104719Y-13798502D02*
G01*
X-10912552Y-13909449D01*
X-10755649Y-14066352D01*
X-10644702Y-14258519D01*
X-10587271Y-14472852D01*
X-10587271Y-14694747D01*
X-10644702Y-14909080D01*
X-10755649Y-15101247D01*
X-10912552Y-15258150D01*
X-11104719Y-15369097D01*
X-11319052Y-15426528D01*
X-11540947Y-15426528D01*
X-11755280Y-15369097D01*
X-11947447Y-15258150D01*
X-12104350Y-15101247D01*
X-12215297Y-14909080D01*
X-12272728Y-14694747D01*
X-12272728Y-14472852D01*
X-12215297Y-14258519D01*
X-12104350Y-14066352D01*
X-11947447Y-13909449D01*
X-11755280Y-13798502D01*
X-11540947Y-13741071D01*
X-11319052Y-13741071D01*
X-11104719Y-13798502D01*
G37*
G36*
X-11104719Y1441497D02*
G01*
X-10912552Y1330550D01*
X-10755649Y1173647D01*
X-10644702Y981480D01*
X-10587271Y767147D01*
X-10587271Y545252D01*
X-10644702Y330919D01*
X-10755649Y138752D01*
X-10912552Y-18150D01*
X-11104719Y-129097D01*
X-11319052Y-186528D01*
X-11540947Y-186528D01*
X-11755280Y-129097D01*
X-11947447Y-18150D01*
X-12104350Y138752D01*
X-12215297Y330919D01*
X-12272728Y545252D01*
X-12272728Y767147D01*
X-12215297Y981480D01*
X-12104350Y1173647D01*
X-11947447Y1330550D01*
X-11755280Y1441497D01*
X-11540947Y1498928D01*
X-11319052Y1498928D01*
X-11104719Y1441497D01*
G37*
G36*
X-11104719Y9061497D02*
G01*
X-10912552Y8950550D01*
X-10755649Y8793647D01*
X-10644702Y8601480D01*
X-10587271Y8387147D01*
X-10587271Y8165252D01*
X-10644702Y7950919D01*
X-10755649Y7758752D01*
X-10912552Y7601849D01*
X-11104719Y7490902D01*
X-11319052Y7433471D01*
X-11540947Y7433471D01*
X-11755280Y7490902D01*
X-11947447Y7601849D01*
X-12104350Y7758752D01*
X-12215297Y7950919D01*
X-12272728Y8165252D01*
X-12272728Y8387147D01*
X-12215297Y8601480D01*
X-12104350Y8793647D01*
X-11947447Y8950550D01*
X-11755280Y9061497D01*
X-11540947Y9118928D01*
X-11319052Y9118928D01*
X-11104719Y9061497D01*
G37*
G36*
X-11104719Y-8718502D02*
G01*
X-10912552Y-8829449D01*
X-10755649Y-8986352D01*
X-10644702Y-9178519D01*
X-10587271Y-9392852D01*
X-10587271Y-9614747D01*
X-10644702Y-9829080D01*
X-10755649Y-10021247D01*
X-10912552Y-10178150D01*
X-11104719Y-10289097D01*
X-11319052Y-10346528D01*
X-11540947Y-10346528D01*
X-11755280Y-10289097D01*
X-11947447Y-10178150D01*
X-12104350Y-10021247D01*
X-12215297Y-9829080D01*
X-12272728Y-9614747D01*
X-12272728Y-9392852D01*
X-12215297Y-9178519D01*
X-12104350Y-8986352D01*
X-11947447Y-8829449D01*
X-11755280Y-8718502D01*
X-11540947Y-8661071D01*
X-11319052Y-8661071D01*
X-11104719Y-8718502D01*
G37*
G36*
X-11104719Y-16338502D02*
G01*
X-10912552Y-16449449D01*
X-10755649Y-16606352D01*
X-10644702Y-16798519D01*
X-10587271Y-17012852D01*
X-10587271Y-17234747D01*
X-10644702Y-17449080D01*
X-10755649Y-17641247D01*
X-10912552Y-17798150D01*
X-11104719Y-17909097D01*
X-11319052Y-17966528D01*
X-11540947Y-17966528D01*
X-11755280Y-17909097D01*
X-11947447Y-17798150D01*
X-12104350Y-17641247D01*
X-12215297Y-17449080D01*
X-12272728Y-17234747D01*
X-12272728Y-17012852D01*
X-12215297Y-16798519D01*
X-12104350Y-16606352D01*
X-11947447Y-16449449D01*
X-11755280Y-16338502D01*
X-11540947Y-16281071D01*
X-11319052Y-16281071D01*
X-11104719Y-16338502D01*
G37*
G36*
X-11104719Y-1098502D02*
G01*
X-10912552Y-1209449D01*
X-10755649Y-1366352D01*
X-10644702Y-1558519D01*
X-10587271Y-1772852D01*
X-10587271Y-1994747D01*
X-10644702Y-2209080D01*
X-10755649Y-2401247D01*
X-10912552Y-2558150D01*
X-11104719Y-2669097D01*
X-11319052Y-2726528D01*
X-11540947Y-2726528D01*
X-11755280Y-2669097D01*
X-11947447Y-2558150D01*
X-12104350Y-2401247D01*
X-12215297Y-2209080D01*
X-12272728Y-1994747D01*
X-12272728Y-1772852D01*
X-12215297Y-1558519D01*
X-12104350Y-1366352D01*
X-11947447Y-1209449D01*
X-11755280Y-1098502D01*
X-11540947Y-1041071D01*
X-11319052Y-1041071D01*
X-11104719Y-1098502D01*
G37*
G36*
X-10580000Y12506200D02*
G01*
X-12280000Y12506200D01*
X-12280000Y14206199D01*
X-10580000Y14206199D01*
X-10580000Y12506200D01*
G37*
G36*
X11755280Y-3638502D02*
G01*
X11947447Y-3749449D01*
X12104350Y-3906352D01*
X12215297Y-4098519D01*
X12272728Y-4312852D01*
X12272728Y-4534747D01*
X12215297Y-4749080D01*
X12104350Y-4941247D01*
X11947447Y-5098150D01*
X11755280Y-5209097D01*
X11540947Y-5266528D01*
X11319052Y-5266528D01*
X11104719Y-5209097D01*
X10912552Y-5098150D01*
X10755649Y-4941247D01*
X10644702Y-4749080D01*
X10587271Y-4534747D01*
X10587271Y-4312852D01*
X10644702Y-4098519D01*
X10755649Y-3906352D01*
X10912552Y-3749449D01*
X11104719Y-3638502D01*
X11319052Y-3581071D01*
X11540947Y-3581071D01*
X11755280Y-3638502D01*
G37*
G36*
X11755280Y-11258502D02*
G01*
X11947447Y-11369449D01*
X12104350Y-11526352D01*
X12215297Y-11718519D01*
X12272728Y-11932852D01*
X12272728Y-12154747D01*
X12215297Y-12369080D01*
X12104350Y-12561247D01*
X11947447Y-12718150D01*
X11755280Y-12829097D01*
X11540947Y-12886528D01*
X11319052Y-12886528D01*
X11104719Y-12829097D01*
X10912552Y-12718150D01*
X10755649Y-12561247D01*
X10644702Y-12369080D01*
X10587271Y-12154747D01*
X10587271Y-11932852D01*
X10644702Y-11718519D01*
X10755649Y-11526352D01*
X10912552Y-11369449D01*
X11104719Y-11258502D01*
X11319052Y-11201071D01*
X11540947Y-11201071D01*
X11755280Y-11258502D01*
G37*
G36*
X11755280Y-6178502D02*
G01*
X11947447Y-6289449D01*
X12104350Y-6446352D01*
X12215297Y-6638519D01*
X12272728Y-6852852D01*
X12272728Y-7074747D01*
X12215297Y-7289080D01*
X12104350Y-7481247D01*
X11947447Y-7638150D01*
X11755280Y-7749097D01*
X11540947Y-7806528D01*
X11319052Y-7806528D01*
X11104719Y-7749097D01*
X10912552Y-7638150D01*
X10755649Y-7481247D01*
X10644702Y-7289080D01*
X10587271Y-7074747D01*
X10587271Y-6852852D01*
X10644702Y-6638519D01*
X10755649Y-6446352D01*
X10912552Y-6289449D01*
X11104719Y-6178502D01*
X11319052Y-6121071D01*
X11540947Y-6121071D01*
X11755280Y-6178502D01*
G37*
G36*
X11755280Y6521497D02*
G01*
X11947447Y6410550D01*
X12104350Y6253647D01*
X12215297Y6061480D01*
X12272728Y5847147D01*
X12272728Y5625252D01*
X12215297Y5410919D01*
X12104350Y5218752D01*
X11947447Y5061849D01*
X11755280Y4950902D01*
X11540947Y4893471D01*
X11319052Y4893471D01*
X11104719Y4950902D01*
X10912552Y5061849D01*
X10755649Y5218752D01*
X10644702Y5410919D01*
X10587271Y5625252D01*
X10587271Y5847147D01*
X10644702Y6061480D01*
X10755649Y6253647D01*
X10912552Y6410550D01*
X11104719Y6521497D01*
X11319052Y6578928D01*
X11540947Y6578928D01*
X11755280Y6521497D01*
G37*
G36*
X11755280Y3981497D02*
G01*
X11947447Y3870550D01*
X12104350Y3713647D01*
X12215297Y3521480D01*
X12272728Y3307147D01*
X12272728Y3085252D01*
X12215297Y2870919D01*
X12104350Y2678752D01*
X11947447Y2521849D01*
X11755280Y2410902D01*
X11540947Y2353471D01*
X11319052Y2353471D01*
X11104719Y2410902D01*
X10912552Y2521849D01*
X10755649Y2678752D01*
X10644702Y2870919D01*
X10587271Y3085252D01*
X10587271Y3307147D01*
X10644702Y3521480D01*
X10755649Y3713647D01*
X10912552Y3870550D01*
X11104719Y3981497D01*
X11319052Y4038928D01*
X11540947Y4038928D01*
X11755280Y3981497D01*
G37*
G36*
X11755280Y11601497D02*
G01*
X11947447Y11490550D01*
X12104350Y11333647D01*
X12215297Y11141480D01*
X12272728Y10927147D01*
X12272728Y10705252D01*
X12215297Y10490919D01*
X12104350Y10298752D01*
X11947447Y10141849D01*
X11755280Y10030902D01*
X11540947Y9973471D01*
X11319052Y9973471D01*
X11104719Y10030902D01*
X10912552Y10141849D01*
X10755649Y10298752D01*
X10644702Y10490919D01*
X10587271Y10705252D01*
X10587271Y10927147D01*
X10644702Y11141480D01*
X10755649Y11333647D01*
X10912552Y11490550D01*
X11104719Y11601497D01*
X11319052Y11658928D01*
X11540947Y11658928D01*
X11755280Y11601497D01*
G37*
G36*
X11755280Y-13798502D02*
G01*
X11947447Y-13909449D01*
X12104350Y-14066352D01*
X12215297Y-14258519D01*
X12272728Y-14472852D01*
X12272728Y-14694747D01*
X12215297Y-14909080D01*
X12104350Y-15101247D01*
X11947447Y-15258150D01*
X11755280Y-15369097D01*
X11540947Y-15426528D01*
X11319052Y-15426528D01*
X11104719Y-15369097D01*
X10912552Y-15258150D01*
X10755649Y-15101247D01*
X10644702Y-14909080D01*
X10587271Y-14694747D01*
X10587271Y-14472852D01*
X10644702Y-14258519D01*
X10755649Y-14066352D01*
X10912552Y-13909449D01*
X11104719Y-13798502D01*
X11319052Y-13741071D01*
X11540947Y-13741071D01*
X11755280Y-13798502D01*
G37*
G36*
X11755280Y1441497D02*
G01*
X11947447Y1330550D01*
X12104350Y1173647D01*
X12215297Y981480D01*
X12272728Y767147D01*
X12272728Y545252D01*
X12215297Y330919D01*
X12104350Y138752D01*
X11947447Y-18150D01*
X11755280Y-129097D01*
X11540947Y-186528D01*
X11319052Y-186528D01*
X11104719Y-129097D01*
X10912552Y-18150D01*
X10755649Y138752D01*
X10644702Y330919D01*
X10587271Y545252D01*
X10587271Y767147D01*
X10644702Y981480D01*
X10755649Y1173647D01*
X10912552Y1330550D01*
X11104719Y1441497D01*
X11319052Y1498928D01*
X11540947Y1498928D01*
X11755280Y1441497D01*
G37*
G36*
X11755280Y9061497D02*
G01*
X11947447Y8950550D01*
X12104350Y8793647D01*
X12215297Y8601480D01*
X12272728Y8387147D01*
X12272728Y8165252D01*
X12215297Y7950919D01*
X12104350Y7758752D01*
X11947447Y7601849D01*
X11755280Y7490902D01*
X11540947Y7433471D01*
X11319052Y7433471D01*
X11104719Y7490902D01*
X10912552Y7601849D01*
X10755649Y7758752D01*
X10644702Y7950919D01*
X10587271Y8165252D01*
X10587271Y8387147D01*
X10644702Y8601480D01*
X10755649Y8793647D01*
X10912552Y8950550D01*
X11104719Y9061497D01*
X11319052Y9118928D01*
X11540947Y9118928D01*
X11755280Y9061497D01*
G37*
G36*
X11755280Y-8718502D02*
G01*
X11947447Y-8829449D01*
X12104350Y-8986352D01*
X12215297Y-9178519D01*
X12272728Y-9392852D01*
X12272728Y-9614747D01*
X12215297Y-9829080D01*
X12104350Y-10021247D01*
X11947447Y-10178150D01*
X11755280Y-10289097D01*
X11540947Y-10346528D01*
X11319052Y-10346528D01*
X11104719Y-10289097D01*
X10912552Y-10178150D01*
X10755649Y-10021247D01*
X10644702Y-9829080D01*
X10587271Y-9614747D01*
X10587271Y-9392852D01*
X10644702Y-9178519D01*
X10755649Y-8986352D01*
X10912552Y-8829449D01*
X11104719Y-8718502D01*
X11319052Y-8661071D01*
X11540947Y-8661071D01*
X11755280Y-8718502D01*
G37*
G36*
X11755280Y-16338502D02*
G01*
X11947447Y-16449449D01*
X12104350Y-16606352D01*
X12215297Y-16798519D01*
X12272728Y-17012852D01*
X12272728Y-17234747D01*
X12215297Y-17449080D01*
X12104350Y-17641247D01*
X11947447Y-17798150D01*
X11755280Y-17909097D01*
X11540947Y-17966528D01*
X11319052Y-17966528D01*
X11104719Y-17909097D01*
X10912552Y-17798150D01*
X10755649Y-17641247D01*
X10644702Y-17449080D01*
X10587271Y-17234747D01*
X10587271Y-17012852D01*
X10644702Y-16798519D01*
X10755649Y-16606352D01*
X10912552Y-16449449D01*
X11104719Y-16338502D01*
X11319052Y-16281071D01*
X11540947Y-16281071D01*
X11755280Y-16338502D01*
G37*
G36*
X11755280Y-1098502D02*
G01*
X11947447Y-1209449D01*
X12104350Y-1366352D01*
X12215297Y-1558519D01*
X12272728Y-1772852D01*
X12272728Y-1994747D01*
X12215297Y-2209080D01*
X12104350Y-2401247D01*
X11947447Y-2558150D01*
X11755280Y-2669097D01*
X11540947Y-2726528D01*
X11319052Y-2726528D01*
X11104719Y-2669097D01*
X10912552Y-2558150D01*
X10755649Y-2401247D01*
X10644702Y-2209080D01*
X10587271Y-1994747D01*
X10587271Y-1772852D01*
X10644702Y-1558519D01*
X10755649Y-1366352D01*
X10912552Y-1209449D01*
X11104719Y-1098502D01*
X11319052Y-1041071D01*
X11540947Y-1041071D01*
X11755280Y-1098502D01*
G37*
G36*
X12280000Y12506200D02*
G01*
X10580000Y12506200D01*
X10580000Y14206199D01*
X12280000Y14206199D01*
X12280000Y12506200D01*
G37*
%TD*%
M02*
