M48
; DRILL file {KiCad 7.0.11-7.0.11~ubuntu20.04.1} date Fri Feb 14 06:42:17 2025
; FORMAT={-:-/ absolute / metric / decimal}
; #@! TF.CreationDate,2025-02-14T06:42:17+00:00
; #@! TF.GenerationSoftware,Kicad,Pcbnew,7.0.11-7.0.11~ubuntu20.04.1
; #@! TF.FileFunction,MixedPlating,1,2
FMAT,2
METRIC
; #@! TA.AperFunction,Plated,PTH,ComponentDrill
T1C0.300
; #@! TA.AperFunction,Plated,PTH,ComponentDrill
T2C0.700
; #@! TA.AperFunction,Plated,PTH,ComponentDrill
T3C1.000
%
G90
G05
T1
X-8.881Y-14.012
X-8.5Y14.5
X-8.5Y12.5
X-8.5Y-9.5
X-8.5Y-17.5
X-6.5Y14.5
X-6.5Y12.5
X-6.5Y-15.5
X-6.5Y-17.5
X-6.383Y0.73
X-5.569Y-0.54
X-4.835Y-1.884
X-4.5Y14.5
X-4.5Y12.5
X-4.5Y10.5
X-4.5Y8.5
X-4.5Y6.5
X-4.5Y4.5
X-4.5Y2.5
X-4.5Y0.5
X-4.5Y-13.5
X-4.5Y-15.5
X-4.5Y-17.5
X-3.784Y-3.08
X-2.857Y-4.35
X-2.5Y14.5
X-2.5Y12.5
X-2.5Y10.5
X-2.5Y8.5
X-2.5Y6.5
X-2.5Y4.5
X-2.5Y2.5
X-2.5Y0.5
X-2.5Y-1.5
X-2.5Y-11.5
X-2.5Y-13.5
X-2.5Y-15.5
X-2.5Y-17.5
X-1.774Y-5.962
X-0.5Y14.5
X-0.5Y12.5
X-0.5Y10.5
X-0.5Y8.5
X-0.5Y6.5
X-0.5Y4.5
X-0.5Y2.5
X-0.5Y-11.5
X-0.5Y-13.5
X-0.5Y-15.5
X-0.5Y-17.5
X1.5Y14.5
X1.5Y12.5
X1.5Y10.5
X1.5Y8.5
X1.5Y6.5
X1.5Y4.5
X1.5Y2.5
X1.5Y-13.5
X1.5Y-15.5
X1.5Y-17.5
X3.5Y14.5
X3.5Y12.5
X3.5Y10.5
X3.5Y8.5
X3.5Y6.5
X3.5Y4.5
X3.5Y2.5
X3.5Y0.5
X3.5Y-1.5
X3.5Y-3.5
X3.5Y-5.5
X3.5Y-7.5
X3.5Y-15.5
X3.5Y-17.5
X5.5Y14.5
X5.5Y12.5
X5.5Y10.5
X5.5Y8.5
X5.5Y6.5
X5.5Y4.5
X5.5Y2.5
X5.5Y0.5
X5.5Y-1.5
X5.5Y-3.5
X5.5Y-17.5
X6.659Y-9.543
X7.5Y14.5
X7.5Y12.5
X7.5Y-17.5
X9.5Y14.5
X9.5Y-7.5
X9.5Y-17.5
X9.909Y-10.774
T2
X-0.977Y-2.976
X0.976Y0.105
X0.976Y-2.976
T3
X-11.43Y13.356
X-11.43Y10.816
X-11.43Y8.276
X-11.43Y5.736
X-11.43Y3.196
X-11.43Y0.656
X-11.43Y-1.884
X-11.43Y-4.424
X-11.43Y-6.964
X-11.43Y-9.504
X-11.43Y-12.044
X-11.43Y-14.584
X-11.43Y-17.124
X-7.62Y9.62
X-7.62Y7.08
X-7.62Y4.54
X-7.62Y2.0
X-7.62Y-0.54
X-7.62Y-3.08
X-7.62Y-5.62
X7.62Y9.62
X7.62Y7.08
X7.62Y4.54
X7.62Y2.0
X7.62Y-0.54
X7.62Y-3.08
X7.62Y-5.62
X11.43Y13.356
X11.43Y10.816
X11.43Y8.276
X11.43Y5.736
X11.43Y3.196
X11.43Y0.656
X11.43Y-1.884
X11.43Y-4.424
X11.43Y-6.964
X11.43Y-9.504
X11.43Y-12.044
X11.43Y-14.584
X11.43Y-17.124
M30
