%TF.GenerationSoftware,Flux,Pcbnew,7.0.11-7.0.11~ubuntu20.04.1*%
%TF.CreationDate,2025-02-14T06:42:17+00:00*%
%TF.ProjectId,input,696e7075-742e-46b6-9963-61645f706362,rev?*%
%TF.SameCoordinates,Original*%
%TF.FileFunction,Copper,L1,Top*%
%TF.FilePolarity,Positive*%
%FSLAX46Y46*%
G04 Gerber Fmt 4.6, Leading zero omitted, Abs format (unit mm)*
G04 Filename: xiao-plus-expander*
G04 Build it with Flux! Visit our site at: https://www.flux.ai (PCBNEW 7.0.11-7.0.11~ubuntu20.04.1) date 2025-02-14 06:42:17*
%MOMM*%
%LPD*%
G01*
G04 APERTURE LIST*
G04 Aperture macros list*
%AMFreePoly0*
4,1,101,0.719621,0.499358,0.739158,0.497433,0.758527,0.494236,0.777646,0.489778,0.796432,0.484079,0.814805,0.477164,0.832687,0.469062,0.850000,0.459808,0.866671,0.449441,0.882628,0.438006,0.897804,0.425552,0.912132,0.412132,0.925552,0.397804,0.938006,0.382628,0.949441,0.366671,0.959808,0.350000,0.969062,0.332687,0.977164,0.314805,0.984079,0.296432,0.989778,0.277646,
0.994236,0.258527,0.997433,0.239158,0.999358,0.219621,1.000000,0.200000,1.000000,-0.200000,0.999358,-0.219621,0.997433,-0.239158,0.994236,-0.258527,0.989778,-0.277646,0.984079,-0.296432,0.977164,-0.314805,0.969062,-0.332687,0.959808,-0.350000,0.949441,-0.366671,0.938006,-0.382628,0.925552,-0.397804,0.912132,-0.412132,0.897804,-0.425552,0.882628,-0.438006,0.866671,-0.449441,
0.850000,-0.459808,0.832687,-0.469062,0.814805,-0.477164,0.796432,-0.484079,0.777646,-0.489778,0.758527,-0.494236,0.739158,-0.497433,0.719621,-0.499358,0.700000,-0.500000,-0.700000,-0.500000,-0.719621,-0.499358,-0.739158,-0.497433,-0.758527,-0.494236,-0.777646,-0.489778,-0.796432,-0.484079,-0.814805,-0.477164,-0.832687,-0.469062,-0.850000,-0.459808,-0.866671,-0.449441,-0.882628,-0.438006,
-0.897804,-0.425552,-0.912132,-0.412132,-0.925552,-0.397804,-0.938006,-0.382628,-0.949441,-0.366671,-0.959808,-0.350000,-0.969062,-0.332687,-0.977164,-0.314805,-0.984079,-0.296432,-0.989778,-0.277646,-0.994236,-0.258527,-0.997433,-0.239158,-0.999358,-0.219621,-1.000000,-0.200000,-1.000000,0.200000,-0.999358,0.219621,-0.997433,0.239158,-0.994236,0.258527,-0.989778,0.277646,-0.984079,0.296432,
-0.977164,0.314805,-0.969062,0.332687,-0.959808,0.350000,-0.949441,0.366671,-0.938006,0.382628,-0.925552,0.397804,-0.912132,0.412132,-0.897804,0.425552,-0.882628,0.438006,-0.866671,0.449441,-0.850000,0.459808,-0.832687,0.469062,-0.814805,0.477164,-0.796432,0.484079,-0.777646,0.489778,-0.758527,0.494236,-0.739158,0.497433,-0.719621,0.499358,-0.700000,0.500000,0.700000,0.500000,
0.719621,0.499358,0.719621,0.499358,$1*%
%AMFreePoly1*
4,1,101,0.519621,0.499358,0.539158,0.497433,0.558527,0.494236,0.577646,0.489778,0.596432,0.484079,0.614805,0.477164,0.632687,0.469062,0.650000,0.459808,0.666671,0.449441,0.682628,0.438006,0.697804,0.425552,0.712132,0.412132,0.725552,0.397804,0.738006,0.382628,0.749441,0.366671,0.759808,0.350000,0.769062,0.332687,0.777164,0.314805,0.784079,0.296432,0.789778,0.277646,
0.794236,0.258527,0.797433,0.239158,0.799358,0.219621,0.800000,0.200000,0.800000,-0.200000,0.799358,-0.219621,0.797433,-0.239158,0.794236,-0.258527,0.789778,-0.277646,0.784079,-0.296432,0.777164,-0.314805,0.769062,-0.332687,0.759808,-0.350000,0.749441,-0.366671,0.738006,-0.382628,0.725552,-0.397804,0.712132,-0.412132,0.697804,-0.425552,0.682628,-0.438006,0.666671,-0.449441,
0.650000,-0.459808,0.632687,-0.469062,0.614805,-0.477164,0.596432,-0.484079,0.577646,-0.489778,0.558527,-0.494236,0.539158,-0.497433,0.519621,-0.499358,0.500000,-0.500000,-0.500000,-0.500000,-0.519621,-0.499358,-0.539158,-0.497433,-0.558527,-0.494236,-0.577646,-0.489778,-0.596432,-0.484079,-0.614805,-0.477164,-0.632687,-0.469062,-0.650000,-0.459808,-0.666671,-0.449441,-0.682628,-0.438006,
-0.697804,-0.425552,-0.712132,-0.412132,-0.725552,-0.397804,-0.738006,-0.382628,-0.749441,-0.366671,-0.759808,-0.350000,-0.769062,-0.332687,-0.777164,-0.314805,-0.784079,-0.296432,-0.789778,-0.277646,-0.794236,-0.258527,-0.797433,-0.239158,-0.799358,-0.219621,-0.800000,-0.200000,-0.800000,0.200000,-0.799358,0.219621,-0.797433,0.239158,-0.794236,0.258527,-0.789778,0.277646,-0.784079,0.296432,
-0.777164,0.314805,-0.769062,0.332687,-0.759808,0.350000,-0.749441,0.366671,-0.738006,0.382628,-0.725552,0.397804,-0.712132,0.412132,-0.697804,0.425552,-0.682628,0.438006,-0.666671,0.449441,-0.650000,0.459808,-0.632687,0.469062,-0.614805,0.477164,-0.596432,0.484079,-0.577646,0.489778,-0.558527,0.494236,-0.539158,0.497433,-0.519621,0.499358,-0.500000,0.500000,0.500000,0.500000,
0.519621,0.499358,0.519621,0.499358,$1*%
%AMFreePoly2*
4,1,101,0.569621,0.499358,0.589158,0.497433,0.608527,0.494236,0.627646,0.489778,0.646432,0.484079,0.664805,0.477164,0.682687,0.469062,0.700000,0.459808,0.716671,0.449441,0.732628,0.438006,0.747804,0.425552,0.762132,0.412132,0.775552,0.397804,0.788006,0.382628,0.799441,0.366671,0.809808,0.350000,0.819062,0.332687,0.827164,0.314805,0.834079,0.296432,0.839778,0.277646,
0.844236,0.258527,0.847433,0.239158,0.849358,0.219621,0.850000,0.200000,0.850000,-0.200000,0.849358,-0.219621,0.847433,-0.239158,0.844236,-0.258527,0.839778,-0.277646,0.834079,-0.296432,0.827164,-0.314805,0.819062,-0.332687,0.809808,-0.350000,0.799441,-0.366671,0.788006,-0.382628,0.775552,-0.397804,0.762132,-0.412132,0.747804,-0.425552,0.732628,-0.438006,0.716671,-0.449441,
0.700000,-0.459808,0.682687,-0.469062,0.664805,-0.477164,0.646432,-0.484079,0.627646,-0.489778,0.608527,-0.494236,0.589158,-0.497433,0.569621,-0.499358,0.550000,-0.500000,-0.550000,-0.500000,-0.569621,-0.499358,-0.589158,-0.497433,-0.608527,-0.494236,-0.627646,-0.489778,-0.646432,-0.484079,-0.664805,-0.477164,-0.682687,-0.469062,-0.700000,-0.459808,-0.716671,-0.449441,-0.732628,-0.438006,
-0.747804,-0.425552,-0.762132,-0.412132,-0.775552,-0.397804,-0.788006,-0.382628,-0.799441,-0.366671,-0.809808,-0.350000,-0.819062,-0.332687,-0.827164,-0.314805,-0.834079,-0.296432,-0.839778,-0.277646,-0.844236,-0.258527,-0.847433,-0.239158,-0.849358,-0.219621,-0.850000,-0.200000,-0.850000,0.200000,-0.849358,0.219621,-0.847433,0.239158,-0.844236,0.258527,-0.839778,0.277646,-0.834079,0.296432,
-0.827164,0.314805,-0.819062,0.332687,-0.809808,0.350000,-0.799441,0.366671,-0.788006,0.382628,-0.775552,0.397804,-0.762132,0.412132,-0.747804,0.425552,-0.732628,0.438006,-0.716671,0.449441,-0.700000,0.459808,-0.682687,0.469062,-0.664805,0.477164,-0.646432,0.484079,-0.627646,0.489778,-0.608527,0.494236,-0.589158,0.497433,-0.569621,0.499358,-0.550000,0.500000,0.550000,0.500000,
0.569621,0.499358,0.569621,0.499358,$1*%
%AMFreePoly3*
4,1,65,0.117384,0.791341,0.194384,0.776025,0.269512,0.753235,0.342044,0.723191,0.411282,0.686183,0.476559,0.642566,0.537247,0.592761,0.592761,0.537247,0.642566,0.476559,0.686183,0.411282,0.723191,0.342044,0.753235,0.269512,0.776025,0.194384,0.791341,0.117384,0.799036,0.039254,0.799036,-0.039254,0.791341,-0.117384,0.776025,-0.194384,0.753235,-0.269512,0.723191,-0.342044,
0.686183,-0.411282,0.642566,-0.476559,0.592761,-0.537247,0.537247,-0.592761,0.476559,-0.642566,0.411282,-0.686183,0.342044,-0.723191,0.269512,-0.753235,0.194384,-0.776025,0.117384,-0.791341,0.039254,-0.799036,-0.039254,-0.799036,-0.117384,-0.791341,-0.194384,-0.776025,-0.269512,-0.753235,-0.342044,-0.723191,-0.411282,-0.686183,-0.476559,-0.642566,-0.537247,-0.592761,-0.592761,-0.537247,
-0.642566,-0.476559,-0.686183,-0.411282,-0.723191,-0.342044,-0.753235,-0.269512,-0.776025,-0.194384,-0.791341,-0.117384,-0.799036,-0.039254,-0.799036,0.039254,-0.791341,0.117384,-0.776025,0.194384,-0.753235,0.269512,-0.723191,0.342044,-0.686183,0.411282,-0.642566,0.476559,-0.592761,0.537247,-0.537247,0.592761,-0.476559,0.642566,-0.411282,0.686183,-0.342044,0.723191,-0.269512,0.753235,
-0.194384,0.776025,-0.117384,0.791341,-0.039254,0.799036,0.039254,0.799036,0.117384,0.791341,0.117384,0.791341,$1*%
%AMFreePoly4*
4,1,101,1.219621,1.499358,1.239158,1.497433,1.258527,1.494236,1.277646,1.489778,1.296432,1.484079,1.314805,1.477164,1.332687,1.469062,1.350000,1.459808,1.366671,1.449441,1.382628,1.438006,1.397804,1.425552,1.412132,1.412132,1.425552,1.397804,1.438006,1.382628,1.449441,1.366671,1.459808,1.350000,1.469062,1.332687,1.477164,1.314805,1.484079,1.296432,1.489778,1.277646,
1.494236,1.258527,1.497433,1.239158,1.499358,1.219621,1.500000,1.200000,1.500000,-1.200000,1.499358,-1.219621,1.497433,-1.239158,1.494236,-1.258527,1.489778,-1.277646,1.484079,-1.296432,1.477164,-1.314805,1.469062,-1.332687,1.459808,-1.350000,1.449441,-1.366671,1.438006,-1.382628,1.425552,-1.397804,1.412132,-1.412132,1.397804,-1.425552,1.382628,-1.438006,1.366671,-1.449441,
1.350000,-1.459808,1.332687,-1.469062,1.314805,-1.477164,1.296432,-1.484079,1.277646,-1.489778,1.258527,-1.494236,1.239158,-1.497433,1.219621,-1.499358,1.200000,-1.500000,-1.200000,-1.500000,-1.219621,-1.499358,-1.239158,-1.497433,-1.258527,-1.494236,-1.277646,-1.489778,-1.296432,-1.484079,-1.314805,-1.477164,-1.332687,-1.469062,-1.350000,-1.459808,-1.366671,-1.449441,-1.382628,-1.438006,
-1.397804,-1.425552,-1.412132,-1.412132,-1.425552,-1.397804,-1.438006,-1.382628,-1.449441,-1.366671,-1.459808,-1.350000,-1.469062,-1.332687,-1.477164,-1.314805,-1.484079,-1.296432,-1.489778,-1.277646,-1.494236,-1.258527,-1.497433,-1.239158,-1.499358,-1.219621,-1.500000,-1.200000,-1.500000,1.200000,-1.499358,1.219621,-1.497433,1.239158,-1.494236,1.258527,-1.489778,1.277646,-1.484079,1.296432,
-1.477164,1.314805,-1.469062,1.332687,-1.459808,1.350000,-1.449441,1.366671,-1.438006,1.382628,-1.425552,1.397804,-1.412132,1.412132,-1.397804,1.425552,-1.382628,1.438006,-1.366671,1.449441,-1.350000,1.459808,-1.332687,1.469062,-1.314805,1.477164,-1.296432,1.484079,-1.277646,1.489778,-1.258527,1.494236,-1.239158,1.497433,-1.219621,1.499358,-1.200000,1.500000,1.200000,1.500000,
1.219621,1.499358,1.219621,1.499358,$1*%
%AMFreePoly5*
4,1,101,0.613081,0.499572,0.626105,0.498289,0.639018,0.496157,0.651764,0.493185,0.664288,0.489386,0.676537,0.484776,0.688458,0.479375,0.700000,0.473205,0.711114,0.466294,0.721752,0.458671,0.731869,0.450368,0.741421,0.441421,0.750368,0.431869,0.758671,0.421752,0.766294,0.411114,0.773205,0.400000,0.779375,0.388458,0.784776,0.376537,0.789386,0.364288,0.793185,0.351764,
0.796157,0.339018,0.798289,0.326105,0.799572,0.313081,0.800000,0.300000,0.800000,-0.300000,0.799572,-0.313081,0.798289,-0.326105,0.796157,-0.339018,0.793185,-0.351764,0.789386,-0.364288,0.784776,-0.376537,0.779375,-0.388458,0.773205,-0.400000,0.766294,-0.411114,0.758671,-0.421752,0.750368,-0.431869,0.741421,-0.441421,0.731869,-0.450368,0.721752,-0.458671,0.711114,-0.466294,
0.700000,-0.473205,0.688458,-0.479375,0.676537,-0.484776,0.664288,-0.489386,0.651764,-0.493185,0.639018,-0.496157,0.626105,-0.498289,0.613081,-0.499572,0.600000,-0.500000,-0.600000,-0.500000,-0.613081,-0.499572,-0.626105,-0.498289,-0.639018,-0.496157,-0.651764,-0.493185,-0.664288,-0.489386,-0.676537,-0.484776,-0.688458,-0.479375,-0.700000,-0.473205,-0.711114,-0.466294,-0.721752,-0.458671,
-0.731869,-0.450368,-0.741421,-0.441421,-0.750368,-0.431869,-0.758671,-0.421752,-0.766294,-0.411114,-0.773205,-0.400000,-0.779375,-0.388458,-0.784776,-0.376537,-0.789386,-0.364288,-0.793185,-0.351764,-0.796157,-0.339018,-0.798289,-0.326105,-0.799572,-0.313081,-0.800000,-0.300000,-0.800000,0.300000,-0.799572,0.313081,-0.798289,0.326105,-0.796157,0.339018,-0.793185,0.351764,-0.789386,0.364288,
-0.784776,0.376537,-0.779375,0.388458,-0.773205,0.400000,-0.766294,0.411114,-0.758671,0.421752,-0.750368,0.431869,-0.741421,0.441421,-0.731869,0.450368,-0.721752,0.458671,-0.711114,0.466294,-0.700000,0.473205,-0.688458,0.479375,-0.676537,0.484776,-0.664288,0.489386,-0.651764,0.493185,-0.639018,0.496157,-0.626105,0.498289,-0.613081,0.499572,-0.600000,0.500000,0.600000,0.500000,
0.613081,0.499572,0.613081,0.499572,$1*%
%AMFreePoly6*
4,1,65,0.124721,0.840800,0.206533,0.824527,0.286356,0.800312,0.363422,0.768391,0.436987,0.729069,0.506344,0.682726,0.570825,0.629808,0.629808,0.570825,0.682726,0.506344,0.729069,0.436987,0.768391,0.363422,0.800312,0.286356,0.824527,0.206533,0.840800,0.124721,0.848976,0.041708,0.848976,-0.041708,0.840800,-0.124721,0.824527,-0.206533,0.800312,-0.286356,0.768391,-0.363422,
0.729069,-0.436987,0.682726,-0.506344,0.629808,-0.570825,0.570825,-0.629808,0.506344,-0.682726,0.436987,-0.729069,0.363422,-0.768391,0.286356,-0.800312,0.206533,-0.824527,0.124721,-0.840800,0.041708,-0.848976,-0.041708,-0.848976,-0.124721,-0.840800,-0.206533,-0.824527,-0.286356,-0.800312,-0.363422,-0.768391,-0.436987,-0.729069,-0.506344,-0.682726,-0.570825,-0.629808,-0.629808,-0.570825,
-0.682726,-0.506344,-0.729069,-0.436987,-0.768391,-0.363422,-0.800312,-0.286356,-0.824527,-0.206533,-0.840800,-0.124721,-0.848976,-0.041708,-0.848976,0.041708,-0.840800,0.124721,-0.824527,0.206533,-0.800312,0.286356,-0.768391,0.363422,-0.729069,0.436987,-0.682726,0.506344,-0.629808,0.570825,-0.570825,0.629808,-0.506344,0.682726,-0.436987,0.729069,-0.363422,0.768391,-0.286356,0.800312,
-0.206533,0.824527,-0.124721,0.840800,-0.041708,0.848976,0.041708,0.848976,0.124721,0.840800,0.124721,0.840800,$1*%
%AMFreePoly7*
4,1,5,0.850000,-0.850000,-0.850000,-0.850000,-0.850000,0.850000,0.850000,0.850000,0.850000,-0.850000,0.850000,-0.850000,$1*%
%AMFreePoly8*
4,1,129,0.022069,0.299187,0.036723,0.297744,0.051289,0.295583,0.065730,0.292711,0.080014,0.289133,0.094105,0.284858,0.107969,0.279898,0.121572,0.274263,0.134883,0.267967,0.147869,0.261026,0.160499,0.253456,0.172742,0.245275,0.184569,0.236504,0.195952,0.227163,0.206862,0.217274,0.217274,0.206862,0.227163,0.195952,0.236504,0.184569,0.245275,0.172742,0.253456,0.160499,
0.261026,0.147869,0.267967,0.134883,0.274263,0.121572,0.279898,0.107969,0.284858,0.094105,0.289133,0.080014,0.292711,0.065730,0.295583,0.051289,0.297744,0.036723,0.299187,0.022069,0.299910,0.007362,0.299910,-0.007362,0.299187,-0.022069,0.297744,-0.036723,0.295583,-0.051289,0.292711,-0.065730,0.289133,-0.080014,0.284858,-0.094105,0.279898,-0.107969,0.274263,-0.121572,
0.267967,-0.134883,0.261026,-0.147869,0.253456,-0.160499,0.245275,-0.172742,0.236504,-0.184569,0.227163,-0.195952,0.217274,-0.206862,0.206862,-0.217274,0.195952,-0.227163,0.184569,-0.236504,0.172742,-0.245275,0.160499,-0.253456,0.147869,-0.261026,0.134883,-0.267967,0.121572,-0.274263,0.107969,-0.279898,0.094105,-0.284858,0.080014,-0.289133,0.065730,-0.292711,0.051289,-0.295583,
0.036723,-0.297744,0.022069,-0.299187,0.007362,-0.299910,-0.007362,-0.299910,-0.022069,-0.299187,-0.036723,-0.297744,-0.051289,-0.295583,-0.065730,-0.292711,-0.080014,-0.289133,-0.094105,-0.284858,-0.107969,-0.279898,-0.121572,-0.274263,-0.134883,-0.267967,-0.147869,-0.261026,-0.160499,-0.253456,-0.172742,-0.245275,-0.184569,-0.236504,-0.195952,-0.227163,-0.206862,-0.217274,-0.217274,-0.206862,
-0.227163,-0.195952,-0.236504,-0.184569,-0.245275,-0.172742,-0.253456,-0.160499,-0.261026,-0.147869,-0.267967,-0.134883,-0.274263,-0.121572,-0.279898,-0.107969,-0.284858,-0.094105,-0.289133,-0.080014,-0.292711,-0.065730,-0.295583,-0.051289,-0.297744,-0.036723,-0.299187,-0.022069,-0.299910,-0.007362,-0.299910,0.007362,-0.299187,0.022069,-0.297744,0.036723,-0.295583,0.051289,-0.292711,0.065730,
-0.289133,0.080014,-0.284858,0.094105,-0.279898,0.107969,-0.274263,0.121572,-0.267967,0.134883,-0.261026,0.147869,-0.253456,0.160499,-0.245275,0.172742,-0.236504,0.184569,-0.227163,0.195952,-0.217274,0.206862,-0.206862,0.217274,-0.195952,0.227163,-0.184569,0.236504,-0.172742,0.245275,-0.160499,0.253456,-0.147869,0.261026,-0.134883,0.267967,-0.121572,0.274263,-0.107969,0.279898,
-0.094105,0.284858,-0.080014,0.289133,-0.065730,0.292711,-0.051289,0.295583,-0.036723,0.297744,-0.022069,0.299187,-0.007362,0.299910,0.007362,0.299910,0.022069,0.299187,0.022069,0.299187,$1*%
G04 Aperture macros list end*
%TA.AperFunction,ComponentPad*%
%ADD10FreePoly0,90.000000*%
%TD*%
%TA.AperFunction,SMDPad,CuDef*%
%ADD11FreePoly1,0.000000*%
%TD*%
%TA.AperFunction,SMDPad,CuDef*%
%ADD12FreePoly2,0.000000*%
%TD*%
%TA.AperFunction,ComponentPad*%
%ADD13FreePoly3,0.000000*%
%TD*%
%TA.AperFunction,ComponentPad*%
%ADD14FreePoly4,0.000000*%
%TD*%
%TA.AperFunction,SMDPad,CuDef*%
%ADD15FreePoly5,0.000000*%
%TD*%
%TA.AperFunction,ComponentPad*%
%ADD16FreePoly6,0.000000*%
%TD*%
%TA.AperFunction,ComponentPad*%
%ADD17FreePoly7,0.000000*%
%TD*%
%TA.AperFunction,ComponentPad*%
%ADD18FreePoly8,0.000000*%
%TD*%
%TA.AperFunction,Conductor*%
%ADD19C,0.254000*%
%TD*%
%TA.AperFunction,Conductor*%
%ADD20C,0.500000*%
%TD*%
G04 APERTURE END LIST*
D10*
%TO.P,,BAT-*%
%TO.N,N/C*%
X976000Y-2976000D03*
D11*
%TO.P,,D19*%
X8909400Y730000D03*
%TO.P,,D13*%
X-8909400Y3270000D03*
D12*
%TO.P,,D11*%
X-8909400Y8350000D03*
D13*
%TO.P,,D6*%
X-7620000Y-5620000D03*
%TO.P,,GND*%
X7620000Y7080000D03*
D14*
%TO.P,,G_PAD*%
X976000Y105000D03*
D13*
%TO.P,,D7*%
X7620000Y-5620000D03*
D11*
%TO.P,,D17*%
X8909400Y-4350000D03*
D13*
%TO.P,,3V3*%
X7620000Y4540000D03*
D10*
%TO.P,,BAT+*%
X-976800Y-2976000D03*
D13*
%TO.P,,D8*%
X7620000Y-3080000D03*
%TO.P,,D5*%
X-7620000Y-3080000D03*
%TO.P,,D9*%
X7620000Y-540000D03*
%TO.P,,D10*%
X7620000Y2000000D03*
%TO.P,,D3*%
X-7620000Y2000000D03*
%TO.P,,D2*%
X-7620000Y4540000D03*
D11*
%TO.P,,D14*%
X-8909400Y730000D03*
D13*
%TO.P,,D0*%
X-7620000Y9620000D03*
D11*
%TO.P,,D12*%
X-8909400Y5810000D03*
D13*
%TO.P,,5V*%
X7620000Y9620000D03*
%TO.P,,D4*%
X-7620000Y-540000D03*
D11*
%TO.P,,D16*%
X-8909400Y-4350000D03*
%TO.P,,D18*%
X8909400Y-1810000D03*
D13*
%TO.P,,D1*%
X-7620000Y7080000D03*
D11*
%TO.P,,D15*%
X-8909400Y-1810000D03*
D15*
%TO.P,,Pad*%
X-8909400Y-5620000D03*
X8909400Y7080000D03*
X8909400Y-5620000D03*
X8909400Y-3080000D03*
X8909400Y4540000D03*
X-8909400Y-3080000D03*
X8909400Y-540000D03*
X8909400Y2000000D03*
X-8909400Y2000000D03*
X-8909400Y4540000D03*
X-8909400Y9620000D03*
X8909400Y9620000D03*
X-8909400Y-540000D03*
X-8909400Y7080000D03*
D16*
%TO.P,,Pin_8*%
X-11430000Y-4423800D03*
%TO.P,,Pin_11*%
X-11430000Y-12043800D03*
%TO.P,,Pin_9*%
X-11430000Y-6963800D03*
%TO.P,,Pin_4*%
X-11430000Y5736200D03*
%TO.P,,Pin_5*%
X-11430000Y3196200D03*
%TO.P,,Pin_2*%
X-11430000Y10816200D03*
%TO.P,,Pin_12*%
X-11430000Y-14583800D03*
%TO.P,,Pin_6*%
X-11430000Y656200D03*
%TO.P,,Pin_3*%
X-11430000Y8276200D03*
%TO.P,,Pin_10*%
X-11430000Y-9503800D03*
%TO.P,,Pin_13*%
X-11430000Y-17123800D03*
%TO.P,,Pin_7*%
X-11430000Y-1883800D03*
D17*
%TO.P,,Pin_1*%
X-11430000Y13356200D03*
D16*
%TO.P,,Pin_8*%
X11430000Y-4423800D03*
%TO.P,,Pin_11*%
X11430000Y-12043800D03*
%TO.P,,Pin_9*%
X11430000Y-6963800D03*
%TO.P,,Pin_4*%
X11430000Y5736200D03*
%TO.P,,Pin_5*%
X11430000Y3196200D03*
%TO.P,,Pin_2*%
X11430000Y10816200D03*
%TO.P,,Pin_12*%
X11430000Y-14583800D03*
%TO.P,,Pin_6*%
X11430000Y656200D03*
%TO.P,,Pin_3*%
X11430000Y8276200D03*
%TO.P,,Pin_10*%
X11430000Y-9503800D03*
%TO.P,,Pin_13*%
X11430000Y-17123800D03*
%TO.P,,Pin_7*%
X11430000Y-1883800D03*
D17*
%TO.P,,Pin_1*%
X11430000Y13356200D03*
D18*
%TO.P,,5cec7741-df0d-4e58-be1f-8e526f2aee50.throughHole.0-0*%
%TO.N,Net 8*%
X-1773700Y-5961800D03*
%TO.P,,cc6788e1-2f74-400e-a0eb-2b6e1f5e0c07.throughHole.0-0*%
%TO.N,Net 19*%
X-6383500Y730000D03*
%TO.P,,63698d3d-326b-4d33-9961-7bf11d6fa8f3.throughHole.0-0*%
%TO.N,Net 22*%
X6659300Y-9543400D03*
%TO.P,,34d7d47a-d4e9-4c6a-83db-4c793760fab1.throughHole.0-0*%
%TO.N,Net 7*%
X-3783800Y-3080000D03*
%TO.P,,9e3ea10a-bae8-4f7d-b2a2-1f028199cc09.via.stitch.85*%
%TO.N,GND*%
X-8500000Y-9500000D03*
%TO.P,,9e3ea10a-bae8-4f7d-b2a2-1f028199cc09.via.stitch.84*%
X-8880600Y-14012000D03*
%TO.P,,9e3ea10a-bae8-4f7d-b2a2-1f028199cc09.via.stitch.83*%
X-500000Y-11500000D03*
%TO.P,,9e3ea10a-bae8-4f7d-b2a2-1f028199cc09.via.stitch.82*%
X-2500000Y-11500000D03*
%TO.P,,9e3ea10a-bae8-4f7d-b2a2-1f028199cc09.via.stitch.81*%
X1500000Y-13500000D03*
%TO.P,,9e3ea10a-bae8-4f7d-b2a2-1f028199cc09.via.stitch.80*%
X-500000Y-13500000D03*
%TO.P,,9e3ea10a-bae8-4f7d-b2a2-1f028199cc09.via.stitch.79*%
X-2500000Y-13500000D03*
%TO.P,,9e3ea10a-bae8-4f7d-b2a2-1f028199cc09.via.stitch.78*%
X-4500000Y-13500000D03*
%TO.P,,9e3ea10a-bae8-4f7d-b2a2-1f028199cc09.via.stitch.77*%
X3500000Y-15500000D03*
%TO.P,,9e3ea10a-bae8-4f7d-b2a2-1f028199cc09.via.stitch.76*%
X1500000Y-15500000D03*
%TO.P,,9e3ea10a-bae8-4f7d-b2a2-1f028199cc09.via.stitch.75*%
X-500000Y-15500000D03*
%TO.P,,9e3ea10a-bae8-4f7d-b2a2-1f028199cc09.via.stitch.74*%
X-2500000Y-15500000D03*
%TO.P,,9e3ea10a-bae8-4f7d-b2a2-1f028199cc09.via.stitch.73*%
X-4500000Y-15500000D03*
%TO.P,,9e3ea10a-bae8-4f7d-b2a2-1f028199cc09.via.stitch.72*%
X-6500000Y-15500000D03*
%TO.P,,9e3ea10a-bae8-4f7d-b2a2-1f028199cc09.via.stitch.71*%
X9500000Y-17500000D03*
%TO.P,,9e3ea10a-bae8-4f7d-b2a2-1f028199cc09.via.stitch.70*%
X7500000Y-17500000D03*
%TO.P,,9e3ea10a-bae8-4f7d-b2a2-1f028199cc09.via.stitch.69*%
X5500000Y-17500000D03*
%TO.P,,9e3ea10a-bae8-4f7d-b2a2-1f028199cc09.via.stitch.68*%
X3500000Y-17500000D03*
%TO.P,,9e3ea10a-bae8-4f7d-b2a2-1f028199cc09.via.stitch.67*%
X1500000Y-17500000D03*
%TO.P,,9e3ea10a-bae8-4f7d-b2a2-1f028199cc09.via.stitch.66*%
X-500000Y-17500000D03*
%TO.P,,9e3ea10a-bae8-4f7d-b2a2-1f028199cc09.via.stitch.65*%
X-2500000Y-17500000D03*
%TO.P,,9e3ea10a-bae8-4f7d-b2a2-1f028199cc09.via.stitch.64*%
X-4500000Y-17500000D03*
%TO.P,,9e3ea10a-bae8-4f7d-b2a2-1f028199cc09.via.stitch.63*%
X-6500000Y-17500000D03*
%TO.P,,9e3ea10a-bae8-4f7d-b2a2-1f028199cc09.via.stitch.62*%
X-8500000Y-17500000D03*
%TO.P,,9e3ea10a-bae8-4f7d-b2a2-1f028199cc09.via.stitch.61*%
X9500000Y-7500000D03*
%TO.P,,9e3ea10a-bae8-4f7d-b2a2-1f028199cc09.via.stitch.60*%
X9909100Y-10774500D03*
%TO.P,,9e3ea10a-bae8-4f7d-b2a2-1f028199cc09.via.stitch.59*%
X9500000Y14500000D03*
%TO.P,,9e3ea10a-bae8-4f7d-b2a2-1f028199cc09.via.stitch.58*%
X7500000Y14500000D03*
%TO.P,,9e3ea10a-bae8-4f7d-b2a2-1f028199cc09.via.stitch.57*%
X5500000Y14500000D03*
%TO.P,,9e3ea10a-bae8-4f7d-b2a2-1f028199cc09.via.stitch.56*%
X3500000Y14500000D03*
%TO.P,,9e3ea10a-bae8-4f7d-b2a2-1f028199cc09.via.stitch.55*%
X1500000Y14500000D03*
%TO.P,,9e3ea10a-bae8-4f7d-b2a2-1f028199cc09.via.stitch.54*%
X-500000Y14500000D03*
%TO.P,,9e3ea10a-bae8-4f7d-b2a2-1f028199cc09.via.stitch.53*%
X-2500000Y14500000D03*
%TO.P,,9e3ea10a-bae8-4f7d-b2a2-1f028199cc09.via.stitch.52*%
X-4500000Y14500000D03*
%TO.P,,9e3ea10a-bae8-4f7d-b2a2-1f028199cc09.via.stitch.51*%
X-6500000Y14500000D03*
%TO.P,,9e3ea10a-bae8-4f7d-b2a2-1f028199cc09.via.stitch.50*%
X-8500000Y14500000D03*
%TO.P,,9e3ea10a-bae8-4f7d-b2a2-1f028199cc09.via.stitch.49*%
X7500000Y12500000D03*
%TO.P,,9e3ea10a-bae8-4f7d-b2a2-1f028199cc09.via.stitch.48*%
X5500000Y12500000D03*
%TO.P,,9e3ea10a-bae8-4f7d-b2a2-1f028199cc09.via.stitch.47*%
X3500000Y12500000D03*
%TO.P,,9e3ea10a-bae8-4f7d-b2a2-1f028199cc09.via.stitch.46*%
X1500000Y12500000D03*
%TO.P,,9e3ea10a-bae8-4f7d-b2a2-1f028199cc09.via.stitch.45*%
X-500000Y12500000D03*
%TO.P,,9e3ea10a-bae8-4f7d-b2a2-1f028199cc09.via.stitch.44*%
X-2500000Y12500000D03*
%TO.P,,9e3ea10a-bae8-4f7d-b2a2-1f028199cc09.via.stitch.43*%
X-4500000Y12500000D03*
%TO.P,,9e3ea10a-bae8-4f7d-b2a2-1f028199cc09.via.stitch.42*%
X-6500000Y12500000D03*
%TO.P,,9e3ea10a-bae8-4f7d-b2a2-1f028199cc09.via.stitch.41*%
X-8500000Y12500000D03*
%TO.P,,9e3ea10a-bae8-4f7d-b2a2-1f028199cc09.via.stitch.40*%
X5500000Y10500000D03*
%TO.P,,9e3ea10a-bae8-4f7d-b2a2-1f028199cc09.via.stitch.39*%
X3500000Y10500000D03*
%TO.P,,9e3ea10a-bae8-4f7d-b2a2-1f028199cc09.via.stitch.38*%
X1500000Y10500000D03*
%TO.P,,9e3ea10a-bae8-4f7d-b2a2-1f028199cc09.via.stitch.37*%
X-500000Y10500000D03*
%TO.P,,9e3ea10a-bae8-4f7d-b2a2-1f028199cc09.via.stitch.36*%
X-2500000Y10500000D03*
%TO.P,,9e3ea10a-bae8-4f7d-b2a2-1f028199cc09.via.stitch.35*%
X-4500000Y10500000D03*
%TO.P,,9e3ea10a-bae8-4f7d-b2a2-1f028199cc09.via.stitch.34*%
X5500000Y8500000D03*
%TO.P,,9e3ea10a-bae8-4f7d-b2a2-1f028199cc09.via.stitch.33*%
X3500000Y8500000D03*
%TO.P,,9e3ea10a-bae8-4f7d-b2a2-1f028199cc09.via.stitch.32*%
X1500000Y8500000D03*
%TO.P,,9e3ea10a-bae8-4f7d-b2a2-1f028199cc09.via.stitch.31*%
X-500000Y8500000D03*
%TO.P,,9e3ea10a-bae8-4f7d-b2a2-1f028199cc09.via.stitch.30*%
X-2500000Y8500000D03*
%TO.P,,9e3ea10a-bae8-4f7d-b2a2-1f028199cc09.via.stitch.29*%
X-4500000Y8500000D03*
%TO.P,,9e3ea10a-bae8-4f7d-b2a2-1f028199cc09.via.stitch.28*%
X5500000Y6500000D03*
%TO.P,,9e3ea10a-bae8-4f7d-b2a2-1f028199cc09.via.stitch.27*%
X3500000Y6500000D03*
%TO.P,,9e3ea10a-bae8-4f7d-b2a2-1f028199cc09.via.stitch.26*%
X1500000Y6500000D03*
%TO.P,,9e3ea10a-bae8-4f7d-b2a2-1f028199cc09.via.stitch.25*%
X-500000Y6500000D03*
%TO.P,,9e3ea10a-bae8-4f7d-b2a2-1f028199cc09.via.stitch.24*%
X-2500000Y6500000D03*
%TO.P,,9e3ea10a-bae8-4f7d-b2a2-1f028199cc09.via.stitch.23*%
X-4500000Y6500000D03*
%TO.P,,9e3ea10a-bae8-4f7d-b2a2-1f028199cc09.via.stitch.22*%
X5500000Y4500000D03*
%TO.P,,9e3ea10a-bae8-4f7d-b2a2-1f028199cc09.via.stitch.21*%
X3500000Y4500000D03*
%TO.P,,9e3ea10a-bae8-4f7d-b2a2-1f028199cc09.via.stitch.20*%
X1500000Y4500000D03*
%TO.P,,9e3ea10a-bae8-4f7d-b2a2-1f028199cc09.via.stitch.19*%
X-500000Y4500000D03*
%TO.P,,9e3ea10a-bae8-4f7d-b2a2-1f028199cc09.via.stitch.18*%
X-2500000Y4500000D03*
%TO.P,,9e3ea10a-bae8-4f7d-b2a2-1f028199cc09.via.stitch.17*%
X-4500000Y4500000D03*
%TO.P,,9e3ea10a-bae8-4f7d-b2a2-1f028199cc09.via.stitch.16*%
X5500000Y2500000D03*
%TO.P,,9e3ea10a-bae8-4f7d-b2a2-1f028199cc09.via.stitch.15*%
X3500000Y2500000D03*
%TO.P,,9e3ea10a-bae8-4f7d-b2a2-1f028199cc09.via.stitch.14*%
X1500000Y2500000D03*
%TO.P,,9e3ea10a-bae8-4f7d-b2a2-1f028199cc09.via.stitch.13*%
X-500000Y2500000D03*
%TO.P,,9e3ea10a-bae8-4f7d-b2a2-1f028199cc09.via.stitch.12*%
X-2500000Y2500000D03*
%TO.P,,9e3ea10a-bae8-4f7d-b2a2-1f028199cc09.via.stitch.11*%
X-4500000Y2500000D03*
%TO.P,,9e3ea10a-bae8-4f7d-b2a2-1f028199cc09.via.stitch.10*%
X5500000Y500000D03*
%TO.P,,9e3ea10a-bae8-4f7d-b2a2-1f028199cc09.via.stitch.9*%
X3500000Y500000D03*
%TO.P,,9e3ea10a-bae8-4f7d-b2a2-1f028199cc09.via.stitch.8*%
X-2500000Y500000D03*
%TO.P,,9e3ea10a-bae8-4f7d-b2a2-1f028199cc09.via.stitch.7*%
X-4500000Y500000D03*
%TO.P,,9e3ea10a-bae8-4f7d-b2a2-1f028199cc09.via.stitch.6*%
X5500000Y-1500000D03*
%TO.P,,9e3ea10a-bae8-4f7d-b2a2-1f028199cc09.via.stitch.5*%
X3500000Y-1500000D03*
%TO.P,,9e3ea10a-bae8-4f7d-b2a2-1f028199cc09.via.stitch.4*%
X-2500000Y-1500000D03*
%TO.P,,9e3ea10a-bae8-4f7d-b2a2-1f028199cc09.via.stitch.3*%
X5500000Y-3500000D03*
%TO.P,,9e3ea10a-bae8-4f7d-b2a2-1f028199cc09.via.stitch.2*%
X3500000Y-3500000D03*
%TO.P,,9e3ea10a-bae8-4f7d-b2a2-1f028199cc09.via.stitch.1*%
X3500000Y-5500000D03*
%TO.P,,9e3ea10a-bae8-4f7d-b2a2-1f028199cc09.via.stitch.0*%
X3500000Y-7500000D03*
%TO.P,,1224965a-0004-4c30-afbb-87cecafa3a9b.throughHole.0-0*%
%TO.N,Net 6*%
X-5568600Y-540000D03*
%TO.P,,b1dacd5e-a22e-4ca8-b1eb-7b7fc03cb02e.throughHole.0-0*%
%TO.N,Net 20*%
X-4834800Y-1883800D03*
%TO.P,,0a5f74fc-a8b5-406b-8929-1fd92e2176a7.throughHole.0-0*%
%TO.N,Net 21*%
X-2856600Y-4350000D03*
%TD*%
D19*
%TO.N,Net 13*%
X7620000Y4540000D02*
X10233800Y4540000D01*
X10233800Y4540000D02*
X11430000Y5736200D01*
%TO.N,Net 8*%
X-7620000Y-5620000D02*
X-2115400Y-5620000D01*
X-2115500Y-5620000D02*
X-1773700Y-5961800D01*
%TO.N,Net 5*%
X-7620000Y2000000D02*
X-9177800Y2000000D01*
%TO.N,Net 24*%
X-7620000Y7080000D02*
X-10233800Y7080000D01*
X-10233800Y7080000D02*
X-11430000Y8276200D01*
%TO.N,Net 19*%
X-8909400Y730000D02*
X-6383400Y730000D01*
D20*
%TO.N,Net 2*%
X5241600Y-14583700D02*
X8889900Y-14583700D01*
X8889900Y-14583700D02*
X11429900Y-17123700D01*
X-976800Y-8365300D02*
X-976800Y-2976000D01*
X-976800Y-8365300D02*
X5241600Y-14583700D01*
D19*
%TO.N,Net 18*%
X-10381700Y1704500D02*
X-11429900Y656300D01*
X-10381700Y2482700D02*
X-10381700Y1704500D01*
X-8909400Y3270000D02*
X-9594400Y3270000D01*
X-9594500Y3270000D02*
X-10381700Y2482800D01*
%TO.N,Net 1*%
X-11356200Y13356200D02*
X-7620000Y9620000D01*
X-11430000Y13356200D02*
X-11356200Y13356200D01*
%TO.N,Net 23*%
X8909400Y-1810000D02*
X9419200Y-1810000D01*
X10689200Y-3683000D02*
X11430000Y-4423800D01*
X10689200Y-3080000D02*
X10689200Y-3683000D01*
X9419200Y-1810000D02*
X10689200Y-3080000D01*
%TO.N,Net 3*%
X11356200Y730000D02*
X11430000Y656200D01*
X8909400Y730000D02*
X11356200Y730000D01*
%TO.N,Net 4*%
X-7620000Y4540000D02*
X-10086200Y4540000D01*
X-10086200Y4540000D02*
X-11430000Y3196200D01*
D20*
%TO.N,Net 26*%
X976000Y-8535100D02*
X5241600Y-12800700D01*
X976000Y-2976000D02*
X976000Y-8535200D01*
X9646900Y-12800700D02*
X11429900Y-14583700D01*
X5241500Y-12800700D02*
X9646900Y-12800700D01*
D19*
%TO.N,Net 22*%
X5911800Y-5193700D02*
X5911800Y-9232100D01*
X8909400Y-4350000D02*
X6755600Y-4350000D01*
X6755600Y-4350000D02*
X5911800Y-5193800D01*
X5911800Y-9232200D02*
X6659300Y-9543400D01*
D20*
%TO.N,Net 15*%
X11430000Y13356200D02*
X7693800Y9620000D01*
D19*
X7620000Y9620000D02*
X7693800Y9620000D01*
%TO.N,Net 7*%
X-3783700Y-3080000D02*
X-3783500Y-3079800D01*
X-7620000Y-3080000D02*
X-3783800Y-3080000D01*
%TO.N,Net 11*%
X7620000Y-540000D02*
X10086200Y-540000D01*
X10086200Y-540000D02*
X11430000Y-1883800D01*
%TO.N,Net 6*%
X-7620000Y-540000D02*
X-5568600Y-540000D01*
X-7620000Y-540000D02*
X-9606400Y-540000D01*
%TO.N,Net 20*%
X-8909400Y-1810000D02*
X-4908600Y-1810000D01*
X-4908600Y-1810000D02*
X-4834800Y-1883800D01*
X-4834800Y-1883800D02*
X-4834600Y-1883600D01*
%TO.N,Net 17*%
X-8909400Y5810000D02*
X-10934000Y5810000D01*
X-10934000Y5810000D02*
X-11356200Y5810000D01*
X-11356200Y5810000D02*
X-11430000Y5736200D01*
%TO.N,Net 9*%
X9398700Y-12043800D02*
X7620000Y-10265100D01*
X11430000Y-12043800D02*
X9398600Y-12043800D01*
X7620000Y-5620000D02*
X7620000Y-10265100D01*
%TO.N,Net 21*%
X-8909400Y-4350000D02*
X-2856600Y-4350000D01*
%TO.N,Net 12*%
X7620000Y2000000D02*
X10233800Y2000000D01*
X10233800Y2000000D02*
X11430000Y3196200D01*
%TO.N,Net 16*%
X-8909400Y8350000D02*
X-9546400Y8350000D01*
X-10381800Y9768000D02*
X-11430000Y10816200D01*
X-9546300Y8350000D02*
X-10381700Y9185400D01*
X-10381700Y9185300D02*
X-10381700Y9767900D01*
%TO.N,Net 14*%
X7882800Y7080000D02*
X7751400Y6948600D01*
X7693800Y6891000D02*
X7751400Y6948600D01*
D20*
X10233800Y7080000D02*
X7882800Y7080000D01*
X10233800Y7080000D02*
X11430000Y8276200D01*
D19*
X7693800Y6891000D02*
X7751400Y6948600D01*
D20*
X11430000Y10816200D02*
X11430000Y8276200D01*
%TD*%
%TA.AperFunction,Conductor*%
%TO.N,GND*%
G36*
X10355000Y-10327000D02*
G01*
X10607000Y-10579000D01*
X10794000Y-10688000D01*
X10794000Y-10861000D01*
X10606000Y-10969000D01*
X10357000Y-11218000D01*
X10265000Y-11377000D01*
X10195000Y-11417000D01*
X9692000Y-11417000D01*
X9637000Y-11394000D01*
X8270000Y-10028000D01*
X8247000Y-9973000D01*
X8247000Y-6798000D01*
X8287000Y-6728000D01*
X8415000Y-6654000D01*
X8438000Y-6636000D01*
X8485000Y-6620000D01*
X9536000Y-6620000D01*
X9601000Y-6615000D01*
X9601000Y-6614000D01*
X9609000Y-6613000D01*
X9686000Y-6598000D01*
X9777000Y-6569000D01*
X9781000Y-6567000D01*
X9861000Y-6524000D01*
X9863000Y-6523000D01*
X9868000Y-6521000D01*
X9982000Y-6450000D01*
X10146000Y-6572000D01*
X10087000Y-6788000D01*
X10087000Y-7140000D01*
X10180000Y-7485000D01*
X10355000Y-7787000D01*
X10607000Y-8039000D01*
X10794000Y-8148000D01*
X10794000Y-8321000D01*
X10606000Y-8429000D01*
X10357000Y-8678000D01*
X10180000Y-8984000D01*
X10087000Y-9328000D01*
X10087000Y-9680000D01*
X10180000Y-10026000D01*
X10181000Y-10027000D01*
X10355000Y-10327000D01*
G37*
%TD.AperFunction*%
%TA.AperFunction,Conductor*%
G36*
X10355000Y-17947000D02*
G01*
X10607000Y-18199000D01*
X10909000Y-18374000D01*
X11254000Y-18467000D01*
X11606000Y-18467000D01*
X11949000Y-18375000D01*
X12099000Y-18288000D01*
X12250000Y-18374000D01*
X12250000Y-18505000D01*
X12249000Y-18528000D01*
X12248000Y-18561000D01*
X12247000Y-18567000D01*
X12246000Y-18580000D01*
X12246000Y-18583000D01*
X12242000Y-18605000D01*
X12238000Y-18635000D01*
X12237000Y-18640000D01*
X12229000Y-18675000D01*
X12229000Y-18677000D01*
X12222000Y-18703000D01*
X12219000Y-18713000D01*
X12217000Y-18718000D01*
X12208000Y-18745000D01*
X12208000Y-18747000D01*
X12201000Y-18768000D01*
X12200000Y-18768000D01*
X12198000Y-18775000D01*
X12196000Y-18781000D01*
X12181000Y-18816000D01*
X12179000Y-18819000D01*
X12177000Y-18823000D01*
X12184000Y-18836000D01*
X12122000Y-18918000D01*
X12113000Y-18931000D01*
X12101000Y-18949000D01*
X12078000Y-18978000D01*
X12077000Y-18979000D01*
X12059000Y-19001000D01*
X12000000Y-19060000D01*
X11991000Y-19067000D01*
X11990000Y-19068000D01*
X11979000Y-19077000D01*
X11978000Y-19078000D01*
X11949000Y-19101000D01*
X11931000Y-19113000D01*
X11918000Y-19122000D01*
X11836000Y-19184000D01*
X11823000Y-19177000D01*
X11821000Y-19178000D01*
X11810000Y-19183000D01*
X11809000Y-19183000D01*
X11784000Y-19194000D01*
X11780000Y-19196000D01*
X11770000Y-19200000D01*
X11768000Y-19200000D01*
X11747000Y-19208000D01*
X11745000Y-19208000D01*
X11709000Y-19220000D01*
X11694000Y-19224000D01*
X11693000Y-19225000D01*
X11680000Y-19228000D01*
X11676000Y-19229000D01*
X11641000Y-19237000D01*
X11640000Y-19237000D01*
X11632000Y-19239000D01*
X11627000Y-19239000D01*
X11600000Y-19243000D01*
X11566000Y-19247000D01*
X11558000Y-19248000D01*
X11526000Y-19249000D01*
X11491000Y-19250000D01*
X-11492000Y-19250000D01*
X-11526000Y-19249000D01*
X-11559000Y-19248000D01*
X-11565000Y-19247000D01*
X-11600000Y-19243000D01*
X-11626000Y-19240000D01*
X-11632000Y-19239000D01*
X-11640000Y-19237000D01*
X-11641000Y-19237000D01*
X-11676000Y-19229000D01*
X-11680000Y-19228000D01*
X-11693000Y-19225000D01*
X-11694000Y-19224000D01*
X-11709000Y-19220000D01*
X-11745000Y-19208000D01*
X-11747000Y-19208000D01*
X-11768000Y-19200000D01*
X-11770000Y-19200000D01*
X-11780000Y-19196000D01*
X-11784000Y-19194000D01*
X-11810000Y-19183000D01*
X-11822000Y-19177000D01*
X-11836000Y-19184000D01*
X-11918000Y-19122000D01*
X-11931000Y-19113000D01*
X-11949000Y-19101000D01*
X-11978000Y-19078000D01*
X-11979000Y-19077000D01*
X-12001000Y-19059000D01*
X-12060000Y-19000000D01*
X-12083000Y-18972000D01*
X-12085000Y-18970000D01*
X-12102000Y-18948000D01*
X-12107000Y-18940000D01*
X-12113000Y-18931000D01*
X-12122000Y-18918000D01*
X-12184000Y-18836000D01*
X-12177000Y-18823000D01*
X-12179000Y-18819000D01*
X-12181000Y-18816000D01*
X-12195000Y-18782000D01*
X-12197000Y-18778000D01*
X-12204000Y-18759000D01*
X-12205000Y-18757000D01*
X-12213000Y-18733000D01*
X-12213000Y-18731000D01*
X-12227000Y-18687000D01*
X-12227000Y-18684000D01*
X-12229000Y-18681000D01*
X-12238000Y-18637000D01*
X-12238000Y-18633000D01*
X-12243000Y-18601000D01*
X-12247000Y-18566000D01*
X-12248000Y-18558000D01*
X-12249000Y-18526000D01*
X-12250000Y-18491000D01*
X-12250000Y-18374000D01*
X-12099000Y-18288000D01*
X-11949000Y-18375000D01*
X-11606000Y-18467000D01*
X-11254000Y-18467000D01*
X-10908000Y-18374000D01*
X-10909000Y-18374000D01*
X-10607000Y-18199000D01*
X-10355000Y-17947000D01*
X-10180000Y-17645000D01*
X-10087000Y-17300000D01*
X-10087000Y-16948000D01*
X-10180000Y-16604000D01*
X-10357000Y-16298000D01*
X-10606000Y-16049000D01*
X-10794000Y-15941000D01*
X-10794000Y-15768000D01*
X-10607000Y-15659000D01*
X-10355000Y-15407000D01*
X-10180000Y-15105000D01*
X-10087000Y-14760000D01*
X-10087000Y-14408000D01*
X-10180000Y-14064000D01*
X-10357000Y-13758000D01*
X-10606000Y-13509000D01*
X-10794000Y-13401000D01*
X-10794000Y-13228000D01*
X-10607000Y-13119000D01*
X-10355000Y-12867000D01*
X-10180000Y-12565000D01*
X-10087000Y-12220000D01*
X-10087000Y-11868000D01*
X-10180000Y-11524000D01*
X-10357000Y-11218000D01*
X-10606000Y-10969000D01*
X-10794000Y-10861000D01*
X-10794000Y-10688000D01*
X-10607000Y-10579000D01*
X-10355000Y-10327000D01*
X-10181000Y-10027000D01*
X-10180000Y-10026000D01*
X-10087000Y-9680000D01*
X-10087000Y-9328000D01*
X-10180000Y-8984000D01*
X-10357000Y-8678000D01*
X-10606000Y-8429000D01*
X-10794000Y-8321000D01*
X-10794000Y-8148000D01*
X-10607000Y-8039000D01*
X-10355000Y-7787000D01*
X-10180000Y-7485000D01*
X-10087000Y-7140000D01*
X-10087000Y-6788000D01*
X-10146000Y-6572000D01*
X-9982000Y-6450000D01*
X-9868000Y-6521000D01*
X-9863000Y-6523000D01*
X-9861000Y-6524000D01*
X-9781000Y-6567000D01*
X-9777000Y-6569000D01*
X-9686000Y-6598000D01*
X-9609000Y-6613000D01*
X-9601000Y-6614000D01*
X-9601000Y-6615000D01*
X-9536000Y-6620000D01*
X-8485000Y-6620000D01*
X-8438000Y-6636000D01*
X-8415000Y-6654000D01*
X-8119000Y-6824000D01*
X-7787000Y-6913000D01*
X-7453000Y-6913000D01*
X-7120000Y-6824000D01*
X-7121000Y-6824000D01*
X-6825000Y-6654000D01*
X-6586000Y-6415000D01*
X-6512000Y-6287000D01*
X-6442000Y-6247000D01*
X-2577000Y-6247000D01*
X-2508000Y-6287000D01*
X-2410000Y-6453000D01*
X-2265000Y-6598000D01*
X-2083000Y-6704000D01*
X-2081000Y-6705000D01*
X-1877000Y-6759000D01*
X-1815000Y-6759000D01*
X-1727000Y-6847000D01*
X-1727000Y-8376000D01*
X-1728000Y-8405000D01*
X-1728000Y-8412000D01*
X-1718000Y-8473000D01*
X-1718000Y-8476000D01*
X-1712000Y-8528000D01*
X-1712000Y-8529000D01*
X-1709000Y-8536000D01*
X-1704000Y-8554000D01*
X-1702000Y-8574000D01*
X-1677000Y-8631000D01*
X-1660000Y-8682000D01*
X-1658000Y-8687000D01*
X-1647000Y-8705000D01*
X-1642000Y-8715000D01*
X-1637000Y-8728000D01*
X-1614000Y-8759000D01*
X-1610000Y-8765000D01*
X-1574000Y-8826000D01*
X-1546000Y-8855000D01*
X-1541000Y-8861000D01*
X-1539000Y-8863000D01*
X-1532000Y-8871000D01*
X4727000Y-15131000D01*
X4729000Y-15133000D01*
X4738000Y-15143000D01*
X4741000Y-15146000D01*
X4790000Y-15182000D01*
X4792000Y-15183000D01*
X4839000Y-15219000D01*
X4845000Y-15222000D01*
X4859000Y-15230000D01*
X4877000Y-15243000D01*
X4946000Y-15272000D01*
X4951000Y-15274000D01*
X4982000Y-15290000D01*
X4989000Y-15291000D01*
X5005000Y-15296000D01*
X5036000Y-15309000D01*
X5084000Y-15316000D01*
X5090000Y-15317000D01*
X5143000Y-15330000D01*
X5146000Y-15330000D01*
X5176000Y-15331000D01*
X5181000Y-15331000D01*
X5206000Y-15334000D01*
X8547000Y-15334000D01*
X8602000Y-15357000D01*
X10076000Y-16831000D01*
X10097000Y-16907000D01*
X10087000Y-16949000D01*
X10087000Y-17300000D01*
X10180000Y-17645000D01*
X10355000Y-17947000D01*
G37*
%TD.AperFunction*%
%TA.AperFunction,Conductor*%
G36*
X5604000Y-9776000D02*
G01*
X5624000Y-9790000D01*
X5632000Y-9795000D01*
X5658000Y-9806000D01*
X5664000Y-9809000D01*
X5700000Y-9829000D01*
X5717000Y-9832000D01*
X5731000Y-9836000D01*
X5939000Y-9922000D01*
X5977000Y-9955000D01*
X6021000Y-10033000D01*
X6024000Y-10036000D01*
X6167000Y-10178000D01*
X6169000Y-10180000D01*
X6348000Y-10287000D01*
X6553000Y-10341000D01*
X6764000Y-10341000D01*
X6893000Y-10307000D01*
X7005000Y-10380000D01*
X7016000Y-10452000D01*
X7029000Y-10478000D01*
X7035000Y-10494000D01*
X7042000Y-10524000D01*
X7074000Y-10574000D01*
X7100000Y-10625000D01*
X7103000Y-10630000D01*
X7127000Y-10654000D01*
X7140000Y-10671000D01*
X7142000Y-10675000D01*
X8334000Y-11866000D01*
X8257000Y-12051000D01*
X5585000Y-12051000D01*
X5530000Y-12028000D01*
X1749000Y-8247000D01*
X1726000Y-8192000D01*
X1726000Y-4289000D01*
X1746000Y-4238000D01*
X1813000Y-4162000D01*
X1872000Y-4074000D01*
X1913000Y-3989000D01*
X1949000Y-3887000D01*
X1952000Y-3876000D01*
X1970000Y-3783000D01*
X1969000Y-3783000D01*
X1969000Y-3782000D01*
X1976000Y-3691000D01*
X1976000Y-2261000D01*
X1970000Y-2177000D01*
X1969000Y-2169000D01*
X1970000Y-2169000D01*
X1952000Y-2076000D01*
X1952000Y-2075000D01*
X1913000Y-1963000D01*
X1873000Y-1880000D01*
X1813000Y-1790000D01*
X1742000Y-1710000D01*
X1663000Y-1640000D01*
X1662000Y-1639000D01*
X1574000Y-1580000D01*
X1489000Y-1539000D01*
X1383000Y-1502000D01*
X1376000Y-1500000D01*
X1283000Y-1482000D01*
X1283000Y-1483000D01*
X1282000Y-1483000D01*
X1191000Y-1476000D01*
X761000Y-1476000D01*
X670000Y-1483000D01*
X669000Y-1483000D01*
X669000Y-1482000D01*
X576000Y-1500000D01*
X569000Y-1502000D01*
X463000Y-1539000D01*
X378000Y-1580000D01*
X290000Y-1639000D01*
X289000Y-1640000D01*
X210000Y-1710000D01*
X139000Y-1790000D01*
X137000Y-1793000D01*
X78000Y-1880000D01*
X-83000Y-1878000D01*
X-140000Y-1790000D01*
X-211000Y-1710000D01*
X-290000Y-1640000D01*
X-291000Y-1639000D01*
X-379000Y-1580000D01*
X-464000Y-1539000D01*
X-570000Y-1502000D01*
X-577000Y-1500000D01*
X-670000Y-1482000D01*
X-670000Y-1483000D01*
X-671000Y-1483000D01*
X-762000Y-1476000D01*
X-1193000Y-1476000D01*
X-1285000Y-1483000D01*
X-1287000Y-1483000D01*
X-1381000Y-1501000D01*
X-1487000Y-1538000D01*
X-1488000Y-1538000D01*
X-1581000Y-1584000D01*
X-1586000Y-1587000D01*
X-1666000Y-1643000D01*
X-1670000Y-1646000D01*
X-1737000Y-1704000D01*
X-1740000Y-1707000D01*
X-1814000Y-1790000D01*
X-1874000Y-1880000D01*
X-1914000Y-1963000D01*
X-1953000Y-2075000D01*
X-1953000Y-2076000D01*
X-1971000Y-2169000D01*
X-1970000Y-2169000D01*
X-1971000Y-2177000D01*
X-1977000Y-2261000D01*
X-1977000Y-3692000D01*
X-1967000Y-3836000D01*
X-2156000Y-3923000D01*
X-2367000Y-3712000D01*
X-2549000Y-3608000D01*
X-2548000Y-3608000D01*
X-2754000Y-3553000D01*
X-2964000Y-3553000D01*
X-3054000Y-3435000D01*
X-2986000Y-3184000D01*
X-2986000Y-2976000D01*
X-3043000Y-2770000D01*
X-3145000Y-2591000D01*
X-3294000Y-2442000D01*
X-3481000Y-2335000D01*
X-3678000Y-2283000D01*
X-3889000Y-2283000D01*
X-3975000Y-2301000D01*
X-4089000Y-2178000D01*
X-4037000Y-1988000D01*
X-4037000Y-1781000D01*
X-4094000Y-1574000D01*
X-4195000Y-1397000D01*
X-4197000Y-1394000D01*
X-4345000Y-1246000D01*
X-4525000Y-1143000D01*
X-4524000Y-1143000D01*
X-4738000Y-1084000D01*
X-4808000Y-1070000D01*
X-4872000Y-928000D01*
X-4827000Y-854000D01*
X-4826000Y-850000D01*
X-4771000Y-645000D01*
X-4771000Y-435000D01*
X-4826000Y-230000D01*
X-4826000Y-229000D01*
X-4934000Y-48000D01*
X-4933000Y-48000D01*
X-5079000Y98000D01*
X-5168250Y149000D01*
X629000Y149000D01*
X629000Y61000D01*
X654000Y-30000D01*
X655000Y-33000D01*
X699000Y-109000D01*
X762000Y-172000D01*
X841000Y-217000D01*
X842000Y-218000D01*
X932000Y-242000D01*
X1020000Y-242000D01*
X1110000Y-218000D01*
X1111000Y-217000D01*
X1190000Y-172000D01*
X1253000Y-109000D01*
X1297000Y-33000D01*
X1298000Y-30000D01*
X1323000Y61000D01*
X1323000Y149000D01*
X1299000Y239000D01*
X1298000Y240000D01*
X1253000Y319000D01*
X1190000Y382000D01*
X1111000Y427000D01*
X1110000Y428000D01*
X1020000Y452000D01*
X932000Y452000D01*
X842000Y428000D01*
X841000Y427000D01*
X762000Y382000D01*
X699000Y319000D01*
X654000Y240000D01*
X653000Y239000D01*
X629000Y149000D01*
X-5168250Y149000D01*
X-5261000Y202000D01*
X-5260000Y202000D01*
X-5466000Y257000D01*
X-5562000Y257000D01*
X-5652000Y374000D01*
X-5586000Y624000D01*
X-5586000Y836000D01*
X-5638000Y1033000D01*
X-5745000Y1220000D01*
X-5746000Y1221000D01*
X-5895000Y1369000D01*
X-5898000Y1371000D01*
X-6073000Y1471000D01*
X-6075000Y1472000D01*
X-6315000Y1536000D01*
X-6377000Y1643000D01*
X-6327000Y1831000D01*
X-6327000Y2167000D01*
X-6416000Y2499000D01*
X-6586000Y2795000D01*
X-6825000Y3034000D01*
X-7084000Y3183000D01*
X-7084000Y3357000D01*
X-6825000Y3506000D01*
X-6586000Y3745000D01*
X-6416000Y4041000D01*
X-6327000Y4373000D01*
X-6327000Y4707000D01*
X-6416000Y5039000D01*
X-6586000Y5335000D01*
X-6825000Y5574000D01*
X-7084000Y5723000D01*
X-7084000Y5897000D01*
X-6825000Y6046000D01*
X-6586000Y6285000D01*
X-6416000Y6581000D01*
X-6327000Y6913000D01*
X-6327000Y7247000D01*
X-6416000Y7579000D01*
X-6586000Y7875000D01*
X-6825000Y8114000D01*
X-7084000Y8263000D01*
X-7084000Y8437000D01*
X-6825000Y8586000D01*
X-6586000Y8825000D01*
X-6416000Y9121000D01*
X-6327000Y9453000D01*
X-6327000Y9787000D01*
X-6416000Y10119000D01*
X-6586000Y10415000D01*
X-6825000Y10654000D01*
X-7121000Y10824000D01*
X-7120000Y10824000D01*
X-7453000Y10913000D01*
X-7788000Y10913000D01*
X-7929000Y10875000D01*
X-8007000Y10895000D01*
X-10057000Y12944000D01*
X-10080000Y12999000D01*
X-10080000Y14706000D01*
X-12073000Y14706000D01*
X-12158000Y14864000D01*
X-12104000Y14944000D01*
X-12101000Y14949000D01*
X-12085000Y14970000D01*
X-12083000Y14972000D01*
X-12060000Y15000000D01*
X-12001000Y15059000D01*
X-11979000Y15077000D01*
X-11977000Y15078000D01*
X-11952000Y15098000D01*
X-11950000Y15100000D01*
X-11941000Y15106000D01*
X-11940000Y15107000D01*
X-11918000Y15122000D01*
X-11836000Y15184000D01*
X-11823000Y15177000D01*
X-11815000Y15181000D01*
X-11786000Y15193000D01*
X-11784000Y15194000D01*
X-11772000Y15199000D01*
X-11769000Y15200000D01*
X-11747000Y15208000D01*
X-11745000Y15208000D01*
X-11709000Y15220000D01*
X-11694000Y15224000D01*
X-11693000Y15225000D01*
X-11679000Y15228000D01*
X-11675000Y15229000D01*
X-11649000Y15235000D01*
X-11646000Y15236000D01*
X-11631000Y15239000D01*
X-11600000Y15243000D01*
X-11566000Y15247000D01*
X-11558000Y15248000D01*
X-11526000Y15249000D01*
X-11491000Y15250000D01*
X11492000Y15250000D01*
X11526000Y15249000D01*
X11559000Y15248000D01*
X11565000Y15247000D01*
X11600000Y15243000D01*
X11631000Y15239000D01*
X11645000Y15236000D01*
X11648000Y15235000D01*
X11675000Y15229000D01*
X11679000Y15228000D01*
X11693000Y15225000D01*
X11694000Y15224000D01*
X11709000Y15220000D01*
X11745000Y15208000D01*
X11747000Y15208000D01*
X11769000Y15200000D01*
X11772000Y15199000D01*
X11784000Y15194000D01*
X11786000Y15193000D01*
X11815000Y15181000D01*
X11823000Y15177000D01*
X11836000Y15184000D01*
X11918000Y15122000D01*
X11940000Y15107000D01*
X11941000Y15106000D01*
X11950000Y15100000D01*
X11952000Y15098000D01*
X11977000Y15078000D01*
X11979000Y15077000D01*
X12001000Y15059000D01*
X12060000Y15000000D01*
X12083000Y14972000D01*
X12085000Y14970000D01*
X12101000Y14949000D01*
X12104000Y14944000D01*
X12158000Y14864000D01*
X12073000Y14706000D01*
X10080000Y14706000D01*
X10080000Y13099000D01*
X10057000Y13044000D01*
X7929000Y10916000D01*
X7851000Y10896000D01*
X7790000Y10913000D01*
X7453000Y10913000D01*
X7121000Y10824000D01*
X6825000Y10654000D01*
X6586000Y10415000D01*
X6416000Y10119000D01*
X6327000Y9787000D01*
X6327000Y9453000D01*
X6416000Y9121000D01*
X6586000Y8825000D01*
X6825000Y8586000D01*
X7121000Y8416000D01*
X7453000Y8327000D01*
X7787000Y8327000D01*
X8120000Y8416000D01*
X8119000Y8416000D01*
X8415000Y8586000D01*
X8438000Y8604000D01*
X8485000Y8620000D01*
X9536000Y8620000D01*
X9601000Y8625000D01*
X9601000Y8626000D01*
X9609000Y8627000D01*
X9686000Y8642000D01*
X9777000Y8671000D01*
X9781000Y8673000D01*
X9861000Y8716000D01*
X9863000Y8717000D01*
X9868000Y8719000D01*
X9982000Y8790000D01*
X10146000Y8668000D01*
X10087000Y8452000D01*
X10087000Y8030000D01*
X9945000Y7942000D01*
X9861000Y7984000D01*
X9781000Y8027000D01*
X9777000Y8029000D01*
X9686000Y8058000D01*
X9609000Y8073000D01*
X9601000Y8074000D01*
X9601000Y8075000D01*
X9536000Y8080000D01*
X8282000Y8080000D01*
X8218000Y8075000D01*
X8218000Y8074000D01*
X8210000Y8073000D01*
X8135000Y8058000D01*
X8042000Y8028000D01*
X7955000Y7984000D01*
X7954000Y7984000D01*
X7879000Y7935000D01*
X7814000Y7876000D01*
X7785000Y7843000D01*
X7739000Y7818000D01*
X7718000Y7815000D01*
X7562000Y7760000D01*
X7422000Y7676000D01*
X7305000Y7562000D01*
X7213000Y7421000D01*
X7155000Y7273000D01*
X7154000Y7268000D01*
X7152000Y7249000D01*
X7150000Y7240000D01*
X7138000Y7196000D01*
X7130000Y7177000D01*
X7128000Y7174000D01*
X7071000Y6995000D01*
X7066000Y6813000D01*
X7066000Y6799000D01*
X7093000Y6715000D01*
X7094000Y6713000D01*
X7121000Y6620000D01*
X7230000Y6459000D01*
X7235000Y6453000D01*
X7236000Y6451000D01*
X7293000Y6409000D01*
X7294000Y6408000D01*
X7388000Y6336000D01*
X7496000Y6297000D01*
X7497000Y6296000D01*
X7572000Y6268000D01*
X7700000Y6265000D01*
X7702000Y6265000D01*
X7755000Y6263000D01*
X7782000Y6269000D01*
X7858000Y6248000D01*
X7884000Y6222000D01*
X7954000Y6176000D01*
X7955000Y6176000D01*
X8042000Y6132000D01*
X8135000Y6102000D01*
X8210000Y6087000D01*
X8218000Y6086000D01*
X8218000Y6085000D01*
X8282000Y6080000D01*
X9536000Y6080000D01*
X9601000Y6085000D01*
X9601000Y6086000D01*
X9609000Y6087000D01*
X9686000Y6102000D01*
X9777000Y6131000D01*
X9781000Y6133000D01*
X9861000Y6176000D01*
X9863000Y6177000D01*
X9868000Y6179000D01*
X9982000Y6250000D01*
X10146000Y6128000D01*
X10087000Y5912000D01*
X10087000Y5490000D01*
X9945000Y5402000D01*
X9861000Y5444000D01*
X9781000Y5487000D01*
X9777000Y5489000D01*
X9686000Y5518000D01*
X9609000Y5533000D01*
X9601000Y5534000D01*
X9601000Y5535000D01*
X9536000Y5540000D01*
X8485000Y5540000D01*
X8438000Y5556000D01*
X8415000Y5574000D01*
X8119000Y5744000D01*
X8120000Y5744000D01*
X7787000Y5833000D01*
X7453000Y5833000D01*
X7121000Y5744000D01*
X6825000Y5574000D01*
X6586000Y5335000D01*
X6416000Y5039000D01*
X6327000Y4707000D01*
X6327000Y4373000D01*
X6416000Y4041000D01*
X6586000Y3745000D01*
X6825000Y3506000D01*
X7084000Y3357000D01*
X7084000Y3183000D01*
X6825000Y3034000D01*
X6586000Y2795000D01*
X6416000Y2499000D01*
X6327000Y2167000D01*
X6327000Y1833000D01*
X6416000Y1501000D01*
X6586000Y1205000D01*
X6825000Y966000D01*
X7084000Y817000D01*
X7084000Y643000D01*
X6825000Y494000D01*
X6586000Y255000D01*
X6416000Y-41000D01*
X6327000Y-373000D01*
X6327000Y-707000D01*
X6416000Y-1039000D01*
X6586000Y-1335000D01*
X6825000Y-1574000D01*
X7084000Y-1723000D01*
X7084000Y-1897000D01*
X6825000Y-2046000D01*
X6586000Y-2285000D01*
X6416000Y-2581000D01*
X6327000Y-2913000D01*
X6327000Y-3247000D01*
X6417000Y-3582000D01*
X6474000Y-3679000D01*
X6447000Y-3795000D01*
X6390000Y-3833000D01*
X6365000Y-3857000D01*
X6358000Y-3863000D01*
X6350000Y-3869000D01*
X6347000Y-3871000D01*
X5468000Y-4752000D01*
X5464000Y-4755000D01*
X5417000Y-4797000D01*
X5387000Y-4851000D01*
X5382000Y-4858000D01*
X5348000Y-4906000D01*
X5336000Y-4942000D01*
X5330000Y-4957000D01*
X5318000Y-4978000D01*
X5308000Y-5026000D01*
X5306000Y-5034000D01*
X5289000Y-5089000D01*
X5288000Y-5123000D01*
X5287000Y-5132000D01*
X5285000Y-5141000D01*
X5286000Y-5141000D01*
X5285000Y-5149000D01*
X5285000Y-5251000D01*
X5284000Y-5275000D01*
X5285000Y-5280000D01*
X5285000Y-9153000D01*
X5284000Y-9159000D01*
X5285000Y-9206000D01*
X5285000Y-9270000D01*
X5287000Y-9287000D01*
X5287000Y-9291000D01*
X5289000Y-9343000D01*
X5289000Y-9347000D01*
X5303000Y-9386000D01*
X5306000Y-9400000D01*
X5309000Y-9421000D01*
X5310000Y-9426000D01*
X5329000Y-9463000D01*
X5333000Y-9472000D01*
X5358000Y-9541000D01*
X5376000Y-9563000D01*
X5387000Y-9580000D01*
X5394000Y-9595000D01*
X5437000Y-9640000D01*
X5441000Y-9645000D01*
X5482000Y-9696000D01*
X5500000Y-9709000D01*
X5510000Y-9717000D01*
X5527000Y-9734000D01*
X5530000Y-9736000D01*
X5596000Y-9771000D01*
X5604000Y-9776000D01*
G37*
%TD.AperFunction*%
%TD*%
M02*
