G04 MADE WITH FRITZING*
G04 WWW.FRITZING.ORG*
G04 DOUBLE SIDED*
G04 HOLES PLATED*
G04 CONTOUR ON CENTER OF CONTOUR VECTOR*
%ASAXBY*%
%FSLAX23Y23*%
%MOIN*%
%OFA0B0*%
%SFA1.0B1.0*%
%ADD10C,0.010000*%
%ADD11R,0.001000X0.001000*%
%LNSILK1*%
G90*
G70*
G54D10*
X676Y134D02*
X876Y134D01*
D02*
X876Y134D02*
X876Y68D01*
D02*
X876Y68D02*
X676Y68D01*
D02*
X676Y68D02*
X676Y134D01*
D02*
X1917Y151D02*
X1617Y151D01*
D02*
X1617Y151D02*
X1617Y51D01*
D02*
X1617Y51D02*
X1917Y51D01*
D02*
X1917Y51D02*
X1917Y151D01*
G54D11*
X1Y1181D02*
X2362Y1181D01*
X1Y1180D02*
X2362Y1180D01*
X1Y1179D02*
X2362Y1179D01*
X1Y1178D02*
X2362Y1178D01*
X1Y1177D02*
X2362Y1177D01*
X1Y1176D02*
X2362Y1176D01*
X1Y1175D02*
X2362Y1175D01*
X1Y1174D02*
X2362Y1174D01*
X1Y1173D02*
X8Y1173D01*
X421Y1173D02*
X430Y1173D01*
X705Y1173D02*
X714Y1173D01*
X1720Y1173D02*
X1729Y1173D01*
X2005Y1173D02*
X2014Y1173D01*
X2355Y1173D02*
X2362Y1173D01*
X1Y1172D02*
X8Y1172D01*
X421Y1172D02*
X430Y1172D01*
X705Y1172D02*
X714Y1172D01*
X1720Y1172D02*
X1729Y1172D01*
X2005Y1172D02*
X2014Y1172D01*
X2355Y1172D02*
X2362Y1172D01*
X1Y1171D02*
X8Y1171D01*
X421Y1171D02*
X430Y1171D01*
X705Y1171D02*
X714Y1171D01*
X1720Y1171D02*
X1729Y1171D01*
X2005Y1171D02*
X2014Y1171D01*
X2355Y1171D02*
X2362Y1171D01*
X1Y1170D02*
X8Y1170D01*
X421Y1170D02*
X430Y1170D01*
X705Y1170D02*
X714Y1170D01*
X1720Y1170D02*
X1729Y1170D01*
X2005Y1170D02*
X2014Y1170D01*
X2355Y1170D02*
X2362Y1170D01*
X1Y1169D02*
X8Y1169D01*
X421Y1169D02*
X430Y1169D01*
X705Y1169D02*
X714Y1169D01*
X1720Y1169D02*
X1729Y1169D01*
X2005Y1169D02*
X2014Y1169D01*
X2355Y1169D02*
X2362Y1169D01*
X1Y1168D02*
X8Y1168D01*
X421Y1168D02*
X430Y1168D01*
X705Y1168D02*
X714Y1168D01*
X1720Y1168D02*
X1729Y1168D01*
X2005Y1168D02*
X2014Y1168D01*
X2355Y1168D02*
X2362Y1168D01*
X1Y1167D02*
X8Y1167D01*
X421Y1167D02*
X430Y1167D01*
X705Y1167D02*
X714Y1167D01*
X1720Y1167D02*
X1729Y1167D01*
X2005Y1167D02*
X2014Y1167D01*
X2355Y1167D02*
X2362Y1167D01*
X1Y1166D02*
X8Y1166D01*
X421Y1166D02*
X430Y1166D01*
X705Y1166D02*
X714Y1166D01*
X1720Y1166D02*
X1729Y1166D01*
X2005Y1166D02*
X2014Y1166D01*
X2355Y1166D02*
X2362Y1166D01*
X1Y1165D02*
X8Y1165D01*
X421Y1165D02*
X430Y1165D01*
X705Y1165D02*
X714Y1165D01*
X1720Y1165D02*
X1729Y1165D01*
X2005Y1165D02*
X2014Y1165D01*
X2355Y1165D02*
X2362Y1165D01*
X1Y1164D02*
X8Y1164D01*
X421Y1164D02*
X430Y1164D01*
X705Y1164D02*
X714Y1164D01*
X1720Y1164D02*
X1729Y1164D01*
X2005Y1164D02*
X2014Y1164D01*
X2355Y1164D02*
X2362Y1164D01*
X1Y1163D02*
X8Y1163D01*
X421Y1163D02*
X430Y1163D01*
X705Y1163D02*
X714Y1163D01*
X1720Y1163D02*
X1729Y1163D01*
X2005Y1163D02*
X2014Y1163D01*
X2355Y1163D02*
X2362Y1163D01*
X1Y1162D02*
X8Y1162D01*
X421Y1162D02*
X430Y1162D01*
X705Y1162D02*
X714Y1162D01*
X1720Y1162D02*
X1729Y1162D01*
X2005Y1162D02*
X2014Y1162D01*
X2355Y1162D02*
X2362Y1162D01*
X1Y1161D02*
X8Y1161D01*
X421Y1161D02*
X430Y1161D01*
X705Y1161D02*
X714Y1161D01*
X1720Y1161D02*
X1729Y1161D01*
X2005Y1161D02*
X2014Y1161D01*
X2355Y1161D02*
X2362Y1161D01*
X1Y1160D02*
X8Y1160D01*
X421Y1160D02*
X430Y1160D01*
X705Y1160D02*
X714Y1160D01*
X1720Y1160D02*
X1729Y1160D01*
X2005Y1160D02*
X2014Y1160D01*
X2355Y1160D02*
X2362Y1160D01*
X1Y1159D02*
X8Y1159D01*
X421Y1159D02*
X430Y1159D01*
X705Y1159D02*
X714Y1159D01*
X1720Y1159D02*
X1729Y1159D01*
X2005Y1159D02*
X2014Y1159D01*
X2355Y1159D02*
X2362Y1159D01*
X1Y1158D02*
X8Y1158D01*
X421Y1158D02*
X430Y1158D01*
X705Y1158D02*
X714Y1158D01*
X1720Y1158D02*
X1729Y1158D01*
X2005Y1158D02*
X2014Y1158D01*
X2355Y1158D02*
X2362Y1158D01*
X1Y1157D02*
X8Y1157D01*
X421Y1157D02*
X430Y1157D01*
X705Y1157D02*
X714Y1157D01*
X1720Y1157D02*
X1729Y1157D01*
X2005Y1157D02*
X2014Y1157D01*
X2355Y1157D02*
X2362Y1157D01*
X1Y1156D02*
X8Y1156D01*
X421Y1156D02*
X430Y1156D01*
X705Y1156D02*
X714Y1156D01*
X1720Y1156D02*
X1729Y1156D01*
X2005Y1156D02*
X2014Y1156D01*
X2355Y1156D02*
X2362Y1156D01*
X1Y1155D02*
X8Y1155D01*
X421Y1155D02*
X430Y1155D01*
X705Y1155D02*
X714Y1155D01*
X1720Y1155D02*
X1729Y1155D01*
X2005Y1155D02*
X2014Y1155D01*
X2355Y1155D02*
X2362Y1155D01*
X1Y1154D02*
X8Y1154D01*
X421Y1154D02*
X430Y1154D01*
X705Y1154D02*
X714Y1154D01*
X1720Y1154D02*
X1729Y1154D01*
X2005Y1154D02*
X2014Y1154D01*
X2355Y1154D02*
X2362Y1154D01*
X1Y1153D02*
X8Y1153D01*
X421Y1153D02*
X430Y1153D01*
X705Y1153D02*
X714Y1153D01*
X1720Y1153D02*
X1729Y1153D01*
X2005Y1153D02*
X2014Y1153D01*
X2355Y1153D02*
X2362Y1153D01*
X1Y1152D02*
X8Y1152D01*
X421Y1152D02*
X430Y1152D01*
X705Y1152D02*
X714Y1152D01*
X1720Y1152D02*
X1729Y1152D01*
X2005Y1152D02*
X2014Y1152D01*
X2355Y1152D02*
X2362Y1152D01*
X1Y1151D02*
X8Y1151D01*
X421Y1151D02*
X430Y1151D01*
X705Y1151D02*
X714Y1151D01*
X1720Y1151D02*
X1729Y1151D01*
X2005Y1151D02*
X2014Y1151D01*
X2355Y1151D02*
X2362Y1151D01*
X1Y1150D02*
X8Y1150D01*
X421Y1150D02*
X430Y1150D01*
X705Y1150D02*
X714Y1150D01*
X1720Y1150D02*
X1729Y1150D01*
X2005Y1150D02*
X2014Y1150D01*
X2355Y1150D02*
X2362Y1150D01*
X1Y1149D02*
X8Y1149D01*
X421Y1149D02*
X430Y1149D01*
X705Y1149D02*
X714Y1149D01*
X1720Y1149D02*
X1729Y1149D01*
X2005Y1149D02*
X2014Y1149D01*
X2355Y1149D02*
X2362Y1149D01*
X1Y1148D02*
X8Y1148D01*
X421Y1148D02*
X430Y1148D01*
X705Y1148D02*
X714Y1148D01*
X1720Y1148D02*
X1729Y1148D01*
X2005Y1148D02*
X2014Y1148D01*
X2355Y1148D02*
X2362Y1148D01*
X1Y1147D02*
X8Y1147D01*
X421Y1147D02*
X430Y1147D01*
X705Y1147D02*
X714Y1147D01*
X1720Y1147D02*
X1729Y1147D01*
X2005Y1147D02*
X2014Y1147D01*
X2355Y1147D02*
X2362Y1147D01*
X1Y1146D02*
X8Y1146D01*
X421Y1146D02*
X430Y1146D01*
X705Y1146D02*
X714Y1146D01*
X1720Y1146D02*
X1729Y1146D01*
X2005Y1146D02*
X2014Y1146D01*
X2355Y1146D02*
X2362Y1146D01*
X1Y1145D02*
X8Y1145D01*
X421Y1145D02*
X430Y1145D01*
X705Y1145D02*
X714Y1145D01*
X1720Y1145D02*
X1729Y1145D01*
X2005Y1145D02*
X2014Y1145D01*
X2355Y1145D02*
X2362Y1145D01*
X1Y1144D02*
X8Y1144D01*
X421Y1144D02*
X430Y1144D01*
X705Y1144D02*
X714Y1144D01*
X1720Y1144D02*
X1729Y1144D01*
X2005Y1144D02*
X2014Y1144D01*
X2355Y1144D02*
X2362Y1144D01*
X1Y1143D02*
X8Y1143D01*
X421Y1143D02*
X430Y1143D01*
X705Y1143D02*
X714Y1143D01*
X1720Y1143D02*
X1729Y1143D01*
X2005Y1143D02*
X2014Y1143D01*
X2355Y1143D02*
X2362Y1143D01*
X1Y1142D02*
X8Y1142D01*
X421Y1142D02*
X430Y1142D01*
X705Y1142D02*
X714Y1142D01*
X1720Y1142D02*
X1729Y1142D01*
X2005Y1142D02*
X2014Y1142D01*
X2355Y1142D02*
X2362Y1142D01*
X1Y1141D02*
X8Y1141D01*
X421Y1141D02*
X430Y1141D01*
X705Y1141D02*
X714Y1141D01*
X1720Y1141D02*
X1729Y1141D01*
X2005Y1141D02*
X2014Y1141D01*
X2355Y1141D02*
X2362Y1141D01*
X1Y1140D02*
X8Y1140D01*
X421Y1140D02*
X430Y1140D01*
X705Y1140D02*
X714Y1140D01*
X1720Y1140D02*
X1729Y1140D01*
X2005Y1140D02*
X2014Y1140D01*
X2355Y1140D02*
X2362Y1140D01*
X1Y1139D02*
X8Y1139D01*
X421Y1139D02*
X430Y1139D01*
X705Y1139D02*
X714Y1139D01*
X1720Y1139D02*
X1729Y1139D01*
X2005Y1139D02*
X2014Y1139D01*
X2355Y1139D02*
X2362Y1139D01*
X1Y1138D02*
X8Y1138D01*
X421Y1138D02*
X430Y1138D01*
X705Y1138D02*
X714Y1138D01*
X1720Y1138D02*
X1729Y1138D01*
X2005Y1138D02*
X2014Y1138D01*
X2355Y1138D02*
X2362Y1138D01*
X1Y1137D02*
X8Y1137D01*
X421Y1137D02*
X430Y1137D01*
X705Y1137D02*
X714Y1137D01*
X1720Y1137D02*
X1729Y1137D01*
X2005Y1137D02*
X2014Y1137D01*
X2355Y1137D02*
X2362Y1137D01*
X1Y1136D02*
X8Y1136D01*
X421Y1136D02*
X430Y1136D01*
X705Y1136D02*
X714Y1136D01*
X1720Y1136D02*
X1729Y1136D01*
X2005Y1136D02*
X2014Y1136D01*
X2355Y1136D02*
X2362Y1136D01*
X1Y1135D02*
X8Y1135D01*
X421Y1135D02*
X430Y1135D01*
X705Y1135D02*
X714Y1135D01*
X1720Y1135D02*
X1729Y1135D01*
X2005Y1135D02*
X2014Y1135D01*
X2355Y1135D02*
X2362Y1135D01*
X1Y1134D02*
X8Y1134D01*
X421Y1134D02*
X430Y1134D01*
X705Y1134D02*
X714Y1134D01*
X1720Y1134D02*
X1729Y1134D01*
X2005Y1134D02*
X2014Y1134D01*
X2355Y1134D02*
X2362Y1134D01*
X1Y1133D02*
X8Y1133D01*
X421Y1133D02*
X430Y1133D01*
X705Y1133D02*
X714Y1133D01*
X1720Y1133D02*
X1729Y1133D01*
X2005Y1133D02*
X2014Y1133D01*
X2355Y1133D02*
X2362Y1133D01*
X1Y1132D02*
X8Y1132D01*
X421Y1132D02*
X430Y1132D01*
X705Y1132D02*
X714Y1132D01*
X1720Y1132D02*
X1729Y1132D01*
X2005Y1132D02*
X2014Y1132D01*
X2355Y1132D02*
X2362Y1132D01*
X1Y1131D02*
X8Y1131D01*
X421Y1131D02*
X430Y1131D01*
X705Y1131D02*
X714Y1131D01*
X1720Y1131D02*
X1729Y1131D01*
X2005Y1131D02*
X2014Y1131D01*
X2355Y1131D02*
X2362Y1131D01*
X1Y1130D02*
X8Y1130D01*
X421Y1130D02*
X430Y1130D01*
X705Y1130D02*
X714Y1130D01*
X1720Y1130D02*
X1729Y1130D01*
X2005Y1130D02*
X2014Y1130D01*
X2355Y1130D02*
X2362Y1130D01*
X1Y1129D02*
X8Y1129D01*
X421Y1129D02*
X430Y1129D01*
X705Y1129D02*
X714Y1129D01*
X1720Y1129D02*
X1729Y1129D01*
X2005Y1129D02*
X2014Y1129D01*
X2355Y1129D02*
X2362Y1129D01*
X1Y1128D02*
X8Y1128D01*
X421Y1128D02*
X430Y1128D01*
X705Y1128D02*
X714Y1128D01*
X1720Y1128D02*
X1729Y1128D01*
X2005Y1128D02*
X2014Y1128D01*
X2355Y1128D02*
X2362Y1128D01*
X1Y1127D02*
X8Y1127D01*
X421Y1127D02*
X430Y1127D01*
X705Y1127D02*
X714Y1127D01*
X1720Y1127D02*
X1729Y1127D01*
X2005Y1127D02*
X2014Y1127D01*
X2355Y1127D02*
X2362Y1127D01*
X1Y1126D02*
X8Y1126D01*
X421Y1126D02*
X430Y1126D01*
X705Y1126D02*
X714Y1126D01*
X1720Y1126D02*
X1729Y1126D01*
X2005Y1126D02*
X2014Y1126D01*
X2355Y1126D02*
X2362Y1126D01*
X1Y1125D02*
X8Y1125D01*
X421Y1125D02*
X430Y1125D01*
X705Y1125D02*
X714Y1125D01*
X1720Y1125D02*
X1729Y1125D01*
X2005Y1125D02*
X2014Y1125D01*
X2355Y1125D02*
X2362Y1125D01*
X1Y1124D02*
X8Y1124D01*
X421Y1124D02*
X430Y1124D01*
X705Y1124D02*
X714Y1124D01*
X1720Y1124D02*
X1729Y1124D01*
X2005Y1124D02*
X2014Y1124D01*
X2355Y1124D02*
X2362Y1124D01*
X1Y1123D02*
X8Y1123D01*
X421Y1123D02*
X430Y1123D01*
X705Y1123D02*
X714Y1123D01*
X1720Y1123D02*
X1729Y1123D01*
X2005Y1123D02*
X2014Y1123D01*
X2355Y1123D02*
X2362Y1123D01*
X1Y1122D02*
X8Y1122D01*
X421Y1122D02*
X430Y1122D01*
X705Y1122D02*
X714Y1122D01*
X1720Y1122D02*
X1729Y1122D01*
X2005Y1122D02*
X2014Y1122D01*
X2355Y1122D02*
X2362Y1122D01*
X1Y1121D02*
X8Y1121D01*
X421Y1121D02*
X430Y1121D01*
X705Y1121D02*
X714Y1121D01*
X1720Y1121D02*
X1729Y1121D01*
X2005Y1121D02*
X2014Y1121D01*
X2355Y1121D02*
X2362Y1121D01*
X1Y1120D02*
X8Y1120D01*
X421Y1120D02*
X430Y1120D01*
X705Y1120D02*
X714Y1120D01*
X1720Y1120D02*
X1729Y1120D01*
X2005Y1120D02*
X2014Y1120D01*
X2355Y1120D02*
X2362Y1120D01*
X1Y1119D02*
X8Y1119D01*
X421Y1119D02*
X430Y1119D01*
X705Y1119D02*
X714Y1119D01*
X1720Y1119D02*
X1729Y1119D01*
X2005Y1119D02*
X2014Y1119D01*
X2355Y1119D02*
X2362Y1119D01*
X1Y1118D02*
X8Y1118D01*
X421Y1118D02*
X430Y1118D01*
X705Y1118D02*
X714Y1118D01*
X1720Y1118D02*
X1729Y1118D01*
X2005Y1118D02*
X2014Y1118D01*
X2355Y1118D02*
X2362Y1118D01*
X1Y1117D02*
X8Y1117D01*
X421Y1117D02*
X430Y1117D01*
X705Y1117D02*
X714Y1117D01*
X1720Y1117D02*
X1729Y1117D01*
X2005Y1117D02*
X2014Y1117D01*
X2355Y1117D02*
X2362Y1117D01*
X1Y1116D02*
X8Y1116D01*
X285Y1116D02*
X849Y1116D01*
X1585Y1116D02*
X2149Y1116D01*
X2355Y1116D02*
X2362Y1116D01*
X1Y1115D02*
X8Y1115D01*
X279Y1115D02*
X856Y1115D01*
X1579Y1115D02*
X2156Y1115D01*
X2355Y1115D02*
X2362Y1115D01*
X1Y1114D02*
X8Y1114D01*
X274Y1114D02*
X861Y1114D01*
X1574Y1114D02*
X2160Y1114D01*
X2355Y1114D02*
X2362Y1114D01*
X1Y1113D02*
X8Y1113D01*
X270Y1113D02*
X864Y1113D01*
X1570Y1113D02*
X2164Y1113D01*
X2355Y1113D02*
X2362Y1113D01*
X1Y1112D02*
X8Y1112D01*
X267Y1112D02*
X867Y1112D01*
X1567Y1112D02*
X2167Y1112D01*
X2355Y1112D02*
X2362Y1112D01*
X1Y1111D02*
X8Y1111D01*
X265Y1111D02*
X870Y1111D01*
X1564Y1111D02*
X2170Y1111D01*
X2355Y1111D02*
X2362Y1111D01*
X1Y1110D02*
X8Y1110D01*
X262Y1110D02*
X873Y1110D01*
X1562Y1110D02*
X2173Y1110D01*
X2355Y1110D02*
X2362Y1110D01*
X1Y1109D02*
X8Y1109D01*
X260Y1109D02*
X875Y1109D01*
X1560Y1109D02*
X2175Y1109D01*
X2355Y1109D02*
X2362Y1109D01*
X1Y1108D02*
X8Y1108D01*
X258Y1108D02*
X877Y1108D01*
X1558Y1108D02*
X2177Y1108D01*
X2355Y1108D02*
X2362Y1108D01*
X1Y1107D02*
X8Y1107D01*
X256Y1107D02*
X879Y1107D01*
X1555Y1107D02*
X2179Y1107D01*
X2355Y1107D02*
X2362Y1107D01*
X1Y1106D02*
X8Y1106D01*
X254Y1106D02*
X285Y1106D01*
X850Y1106D02*
X881Y1106D01*
X1554Y1106D02*
X1585Y1106D01*
X2150Y1106D02*
X2181Y1106D01*
X2355Y1106D02*
X2362Y1106D01*
X1Y1105D02*
X8Y1105D01*
X252Y1105D02*
X278Y1105D01*
X857Y1105D02*
X883Y1105D01*
X1552Y1105D02*
X1578Y1105D01*
X2157Y1105D02*
X2183Y1105D01*
X2355Y1105D02*
X2362Y1105D01*
X1Y1104D02*
X8Y1104D01*
X250Y1104D02*
X274Y1104D01*
X861Y1104D02*
X884Y1104D01*
X1550Y1104D02*
X1574Y1104D01*
X2161Y1104D02*
X2184Y1104D01*
X2355Y1104D02*
X2362Y1104D01*
X1Y1103D02*
X8Y1103D01*
X249Y1103D02*
X270Y1103D01*
X865Y1103D02*
X886Y1103D01*
X1549Y1103D02*
X1570Y1103D01*
X2164Y1103D02*
X2186Y1103D01*
X2355Y1103D02*
X2362Y1103D01*
X1Y1102D02*
X8Y1102D01*
X247Y1102D02*
X268Y1102D01*
X867Y1102D02*
X887Y1102D01*
X1547Y1102D02*
X1567Y1102D01*
X2167Y1102D02*
X2187Y1102D01*
X2355Y1102D02*
X2362Y1102D01*
X1Y1101D02*
X8Y1101D01*
X246Y1101D02*
X265Y1101D01*
X870Y1101D02*
X889Y1101D01*
X1546Y1101D02*
X1565Y1101D01*
X2170Y1101D02*
X2189Y1101D01*
X2355Y1101D02*
X2362Y1101D01*
X1Y1100D02*
X8Y1100D01*
X245Y1100D02*
X263Y1100D01*
X872Y1100D02*
X890Y1100D01*
X1544Y1100D02*
X1563Y1100D01*
X2172Y1100D02*
X2190Y1100D01*
X2355Y1100D02*
X2362Y1100D01*
X1Y1099D02*
X8Y1099D01*
X243Y1099D02*
X261Y1099D01*
X874Y1099D02*
X891Y1099D01*
X1543Y1099D02*
X1560Y1099D01*
X2174Y1099D02*
X2191Y1099D01*
X2355Y1099D02*
X2362Y1099D01*
X1Y1098D02*
X8Y1098D01*
X242Y1098D02*
X259Y1098D01*
X876Y1098D02*
X893Y1098D01*
X1542Y1098D02*
X1558Y1098D01*
X2176Y1098D02*
X2193Y1098D01*
X2355Y1098D02*
X2362Y1098D01*
X1Y1097D02*
X8Y1097D01*
X241Y1097D02*
X257Y1097D01*
X878Y1097D02*
X894Y1097D01*
X1541Y1097D02*
X1557Y1097D01*
X2178Y1097D02*
X2194Y1097D01*
X2355Y1097D02*
X2362Y1097D01*
X1Y1096D02*
X8Y1096D01*
X240Y1096D02*
X255Y1096D01*
X879Y1096D02*
X895Y1096D01*
X1540Y1096D02*
X1555Y1096D01*
X2179Y1096D02*
X2195Y1096D01*
X2355Y1096D02*
X2362Y1096D01*
X1Y1095D02*
X8Y1095D01*
X239Y1095D02*
X254Y1095D01*
X881Y1095D02*
X896Y1095D01*
X1538Y1095D02*
X1554Y1095D01*
X2181Y1095D02*
X2196Y1095D01*
X2355Y1095D02*
X2362Y1095D01*
X1Y1094D02*
X8Y1094D01*
X237Y1094D02*
X252Y1094D01*
X883Y1094D02*
X897Y1094D01*
X1537Y1094D02*
X1552Y1094D01*
X2182Y1094D02*
X2197Y1094D01*
X2355Y1094D02*
X2362Y1094D01*
X1Y1093D02*
X8Y1093D01*
X236Y1093D02*
X251Y1093D01*
X884Y1093D02*
X898Y1093D01*
X1536Y1093D02*
X1551Y1093D01*
X2184Y1093D02*
X2198Y1093D01*
X2355Y1093D02*
X2362Y1093D01*
X1Y1092D02*
X8Y1092D01*
X235Y1092D02*
X249Y1092D01*
X885Y1092D02*
X899Y1092D01*
X1535Y1092D02*
X1549Y1092D01*
X2185Y1092D02*
X2199Y1092D01*
X2355Y1092D02*
X2362Y1092D01*
X1Y1091D02*
X8Y1091D01*
X235Y1091D02*
X248Y1091D01*
X887Y1091D02*
X900Y1091D01*
X1534Y1091D02*
X1548Y1091D01*
X2186Y1091D02*
X2200Y1091D01*
X2355Y1091D02*
X2362Y1091D01*
X1Y1090D02*
X8Y1090D01*
X234Y1090D02*
X247Y1090D01*
X888Y1090D02*
X901Y1090D01*
X1534Y1090D02*
X1547Y1090D01*
X2188Y1090D02*
X2201Y1090D01*
X2355Y1090D02*
X2362Y1090D01*
X1Y1089D02*
X8Y1089D01*
X233Y1089D02*
X246Y1089D01*
X889Y1089D02*
X902Y1089D01*
X1533Y1089D02*
X1546Y1089D01*
X2189Y1089D02*
X2202Y1089D01*
X2355Y1089D02*
X2362Y1089D01*
X1Y1088D02*
X8Y1088D01*
X232Y1088D02*
X245Y1088D01*
X890Y1088D02*
X903Y1088D01*
X1532Y1088D02*
X1545Y1088D01*
X2190Y1088D02*
X2203Y1088D01*
X2355Y1088D02*
X2362Y1088D01*
X1Y1087D02*
X8Y1087D01*
X231Y1087D02*
X244Y1087D01*
X891Y1087D02*
X904Y1087D01*
X1531Y1087D02*
X1544Y1087D01*
X2191Y1087D02*
X2204Y1087D01*
X2355Y1087D02*
X2362Y1087D01*
X1Y1086D02*
X8Y1086D01*
X230Y1086D02*
X243Y1086D01*
X892Y1086D02*
X904Y1086D01*
X1530Y1086D02*
X1542Y1086D01*
X2192Y1086D02*
X2204Y1086D01*
X2355Y1086D02*
X2362Y1086D01*
X1Y1085D02*
X8Y1085D01*
X230Y1085D02*
X242Y1085D01*
X893Y1085D02*
X905Y1085D01*
X1529Y1085D02*
X1542Y1085D01*
X2193Y1085D02*
X2205Y1085D01*
X2355Y1085D02*
X2362Y1085D01*
X1Y1084D02*
X8Y1084D01*
X229Y1084D02*
X241Y1084D01*
X894Y1084D02*
X906Y1084D01*
X1529Y1084D02*
X1541Y1084D01*
X2194Y1084D02*
X2206Y1084D01*
X2355Y1084D02*
X2362Y1084D01*
X1Y1083D02*
X8Y1083D01*
X228Y1083D02*
X240Y1083D01*
X895Y1083D02*
X907Y1083D01*
X1528Y1083D02*
X1540Y1083D01*
X2195Y1083D02*
X2207Y1083D01*
X2355Y1083D02*
X2362Y1083D01*
X1Y1082D02*
X8Y1082D01*
X227Y1082D02*
X239Y1082D01*
X896Y1082D02*
X907Y1082D01*
X1527Y1082D02*
X1539Y1082D01*
X2196Y1082D02*
X2207Y1082D01*
X2355Y1082D02*
X2362Y1082D01*
X1Y1081D02*
X8Y1081D01*
X227Y1081D02*
X238Y1081D01*
X897Y1081D02*
X908Y1081D01*
X1526Y1081D02*
X1538Y1081D01*
X2197Y1081D02*
X2208Y1081D01*
X2355Y1081D02*
X2362Y1081D01*
X1Y1080D02*
X8Y1080D01*
X226Y1080D02*
X237Y1080D01*
X898Y1080D02*
X909Y1080D01*
X1526Y1080D02*
X1537Y1080D01*
X2197Y1080D02*
X2209Y1080D01*
X2355Y1080D02*
X2362Y1080D01*
X1Y1079D02*
X8Y1079D01*
X225Y1079D02*
X236Y1079D01*
X898Y1079D02*
X909Y1079D01*
X1525Y1079D02*
X1536Y1079D01*
X2198Y1079D02*
X2209Y1079D01*
X2355Y1079D02*
X2362Y1079D01*
X1Y1078D02*
X8Y1078D01*
X225Y1078D02*
X236Y1078D01*
X899Y1078D02*
X910Y1078D01*
X1525Y1078D02*
X1536Y1078D01*
X2199Y1078D02*
X2210Y1078D01*
X2355Y1078D02*
X2362Y1078D01*
X1Y1077D02*
X8Y1077D01*
X224Y1077D02*
X235Y1077D01*
X900Y1077D02*
X911Y1077D01*
X1524Y1077D02*
X1535Y1077D01*
X2200Y1077D02*
X2210Y1077D01*
X2355Y1077D02*
X2362Y1077D01*
X1Y1076D02*
X8Y1076D01*
X224Y1076D02*
X234Y1076D01*
X901Y1076D02*
X911Y1076D01*
X1523Y1076D02*
X1534Y1076D01*
X2200Y1076D02*
X2211Y1076D01*
X2355Y1076D02*
X2362Y1076D01*
X1Y1075D02*
X8Y1075D01*
X223Y1075D02*
X233Y1075D01*
X901Y1075D02*
X912Y1075D01*
X1523Y1075D02*
X1533Y1075D01*
X2201Y1075D02*
X2212Y1075D01*
X2355Y1075D02*
X2362Y1075D01*
X1Y1074D02*
X8Y1074D01*
X222Y1074D02*
X233Y1074D01*
X902Y1074D02*
X912Y1074D01*
X1522Y1074D02*
X1533Y1074D01*
X2202Y1074D02*
X2212Y1074D01*
X2355Y1074D02*
X2362Y1074D01*
X1Y1073D02*
X8Y1073D01*
X222Y1073D02*
X232Y1073D01*
X902Y1073D02*
X913Y1073D01*
X1522Y1073D02*
X1532Y1073D01*
X2202Y1073D02*
X2213Y1073D01*
X2355Y1073D02*
X2362Y1073D01*
X1Y1072D02*
X8Y1072D01*
X221Y1072D02*
X232Y1072D01*
X903Y1072D02*
X913Y1072D01*
X1521Y1072D02*
X1532Y1072D01*
X2203Y1072D02*
X2213Y1072D01*
X2355Y1072D02*
X2362Y1072D01*
X1Y1071D02*
X8Y1071D01*
X221Y1071D02*
X231Y1071D01*
X904Y1071D02*
X914Y1071D01*
X1521Y1071D02*
X1531Y1071D01*
X2204Y1071D02*
X2214Y1071D01*
X2355Y1071D02*
X2362Y1071D01*
X1Y1070D02*
X8Y1070D01*
X220Y1070D02*
X230Y1070D01*
X904Y1070D02*
X914Y1070D01*
X1520Y1070D02*
X1530Y1070D01*
X2204Y1070D02*
X2214Y1070D01*
X2355Y1070D02*
X2362Y1070D01*
X1Y1069D02*
X8Y1069D01*
X220Y1069D02*
X230Y1069D01*
X905Y1069D02*
X915Y1069D01*
X1520Y1069D02*
X1530Y1069D01*
X2205Y1069D02*
X2215Y1069D01*
X2355Y1069D02*
X2362Y1069D01*
X1Y1068D02*
X8Y1068D01*
X220Y1068D02*
X229Y1068D01*
X905Y1068D02*
X915Y1068D01*
X1519Y1068D02*
X1529Y1068D01*
X2205Y1068D02*
X2215Y1068D01*
X2355Y1068D02*
X2362Y1068D01*
X1Y1067D02*
X8Y1067D01*
X219Y1067D02*
X229Y1067D01*
X906Y1067D02*
X916Y1067D01*
X1519Y1067D02*
X1529Y1067D01*
X2206Y1067D02*
X2216Y1067D01*
X2355Y1067D02*
X2362Y1067D01*
X1Y1066D02*
X8Y1066D01*
X219Y1066D02*
X228Y1066D01*
X906Y1066D02*
X916Y1066D01*
X1519Y1066D02*
X1528Y1066D01*
X2206Y1066D02*
X2216Y1066D01*
X2355Y1066D02*
X2362Y1066D01*
X1Y1065D02*
X8Y1065D01*
X218Y1065D02*
X228Y1065D01*
X907Y1065D02*
X916Y1065D01*
X1518Y1065D02*
X1528Y1065D01*
X2207Y1065D02*
X2216Y1065D01*
X2355Y1065D02*
X2362Y1065D01*
X1Y1064D02*
X8Y1064D01*
X218Y1064D02*
X227Y1064D01*
X907Y1064D02*
X917Y1064D01*
X1518Y1064D02*
X1527Y1064D01*
X2207Y1064D02*
X2217Y1064D01*
X2355Y1064D02*
X2362Y1064D01*
X1Y1063D02*
X8Y1063D01*
X218Y1063D02*
X227Y1063D01*
X908Y1063D02*
X917Y1063D01*
X1518Y1063D02*
X1527Y1063D01*
X2208Y1063D02*
X2217Y1063D01*
X2355Y1063D02*
X2362Y1063D01*
X1Y1062D02*
X8Y1062D01*
X217Y1062D02*
X227Y1062D01*
X908Y1062D02*
X917Y1062D01*
X1517Y1062D02*
X1527Y1062D01*
X2208Y1062D02*
X2217Y1062D01*
X2355Y1062D02*
X2362Y1062D01*
X1Y1061D02*
X8Y1061D01*
X217Y1061D02*
X226Y1061D01*
X908Y1061D02*
X918Y1061D01*
X1517Y1061D02*
X1526Y1061D01*
X2208Y1061D02*
X2218Y1061D01*
X2355Y1061D02*
X2362Y1061D01*
X1Y1060D02*
X8Y1060D01*
X217Y1060D02*
X226Y1060D01*
X909Y1060D02*
X918Y1060D01*
X1516Y1060D02*
X1526Y1060D01*
X2209Y1060D02*
X2218Y1060D01*
X2355Y1060D02*
X2362Y1060D01*
X1Y1059D02*
X8Y1059D01*
X216Y1059D02*
X226Y1059D01*
X909Y1059D02*
X918Y1059D01*
X1516Y1059D02*
X1526Y1059D01*
X2209Y1059D02*
X2218Y1059D01*
X2355Y1059D02*
X2362Y1059D01*
X1Y1058D02*
X8Y1058D01*
X216Y1058D02*
X225Y1058D01*
X909Y1058D02*
X919Y1058D01*
X1516Y1058D02*
X1525Y1058D01*
X2209Y1058D02*
X2219Y1058D01*
X2355Y1058D02*
X2362Y1058D01*
X1Y1057D02*
X8Y1057D01*
X216Y1057D02*
X225Y1057D01*
X910Y1057D02*
X919Y1057D01*
X1516Y1057D02*
X1525Y1057D01*
X2210Y1057D02*
X2219Y1057D01*
X2355Y1057D02*
X2362Y1057D01*
X1Y1056D02*
X8Y1056D01*
X215Y1056D02*
X225Y1056D01*
X910Y1056D02*
X919Y1056D01*
X1515Y1056D02*
X1525Y1056D01*
X2210Y1056D02*
X2219Y1056D01*
X2355Y1056D02*
X2362Y1056D01*
X1Y1055D02*
X8Y1055D01*
X215Y1055D02*
X224Y1055D01*
X910Y1055D02*
X920Y1055D01*
X1515Y1055D02*
X1524Y1055D01*
X2210Y1055D02*
X2219Y1055D01*
X2355Y1055D02*
X2362Y1055D01*
X1Y1054D02*
X8Y1054D01*
X215Y1054D02*
X224Y1054D01*
X911Y1054D02*
X920Y1054D01*
X1515Y1054D02*
X1524Y1054D01*
X2210Y1054D02*
X2220Y1054D01*
X2355Y1054D02*
X2362Y1054D01*
X1Y1053D02*
X8Y1053D01*
X215Y1053D02*
X224Y1053D01*
X911Y1053D02*
X920Y1053D01*
X1515Y1053D02*
X1524Y1053D01*
X2211Y1053D02*
X2220Y1053D01*
X2355Y1053D02*
X2362Y1053D01*
X1Y1052D02*
X8Y1052D01*
X214Y1052D02*
X224Y1052D01*
X911Y1052D02*
X920Y1052D01*
X1514Y1052D02*
X1524Y1052D01*
X2211Y1052D02*
X2220Y1052D01*
X2355Y1052D02*
X2362Y1052D01*
X1Y1051D02*
X8Y1051D01*
X214Y1051D02*
X223Y1051D01*
X911Y1051D02*
X920Y1051D01*
X1514Y1051D02*
X1523Y1051D01*
X2211Y1051D02*
X2220Y1051D01*
X2355Y1051D02*
X2362Y1051D01*
X1Y1050D02*
X8Y1050D01*
X214Y1050D02*
X223Y1050D01*
X912Y1050D02*
X921Y1050D01*
X1514Y1050D02*
X1523Y1050D01*
X2211Y1050D02*
X2220Y1050D01*
X2355Y1050D02*
X2362Y1050D01*
X1Y1049D02*
X8Y1049D01*
X214Y1049D02*
X223Y1049D01*
X912Y1049D02*
X921Y1049D01*
X1514Y1049D02*
X1523Y1049D01*
X2212Y1049D02*
X2221Y1049D01*
X2355Y1049D02*
X2362Y1049D01*
X1Y1048D02*
X8Y1048D01*
X214Y1048D02*
X223Y1048D01*
X912Y1048D02*
X921Y1048D01*
X1514Y1048D02*
X1523Y1048D01*
X2212Y1048D02*
X2221Y1048D01*
X2355Y1048D02*
X2362Y1048D01*
X1Y1047D02*
X8Y1047D01*
X214Y1047D02*
X223Y1047D01*
X912Y1047D02*
X921Y1047D01*
X1514Y1047D02*
X1523Y1047D01*
X2212Y1047D02*
X2221Y1047D01*
X2355Y1047D02*
X2362Y1047D01*
X1Y1046D02*
X8Y1046D01*
X214Y1046D02*
X223Y1046D01*
X912Y1046D02*
X921Y1046D01*
X1513Y1046D02*
X1523Y1046D01*
X2212Y1046D02*
X2221Y1046D01*
X2355Y1046D02*
X2362Y1046D01*
X1Y1045D02*
X8Y1045D01*
X213Y1045D02*
X222Y1045D01*
X912Y1045D02*
X921Y1045D01*
X1513Y1045D02*
X1522Y1045D01*
X2212Y1045D02*
X2221Y1045D01*
X2355Y1045D02*
X2362Y1045D01*
X1Y1044D02*
X8Y1044D01*
X213Y1044D02*
X222Y1044D01*
X912Y1044D02*
X921Y1044D01*
X1513Y1044D02*
X1522Y1044D01*
X2212Y1044D02*
X2221Y1044D01*
X2355Y1044D02*
X2362Y1044D01*
X1Y1043D02*
X8Y1043D01*
X213Y1043D02*
X222Y1043D01*
X913Y1043D02*
X922Y1043D01*
X1513Y1043D02*
X1522Y1043D01*
X2212Y1043D02*
X2221Y1043D01*
X2355Y1043D02*
X2362Y1043D01*
X1Y1042D02*
X8Y1042D01*
X213Y1042D02*
X222Y1042D01*
X913Y1042D02*
X922Y1042D01*
X1513Y1042D02*
X1522Y1042D01*
X2212Y1042D02*
X2222Y1042D01*
X2355Y1042D02*
X2362Y1042D01*
X1Y1041D02*
X8Y1041D01*
X213Y1041D02*
X222Y1041D01*
X913Y1041D02*
X922Y1041D01*
X1513Y1041D02*
X1522Y1041D01*
X2212Y1041D02*
X2222Y1041D01*
X2355Y1041D02*
X2362Y1041D01*
X1Y1040D02*
X8Y1040D01*
X213Y1040D02*
X222Y1040D01*
X913Y1040D02*
X922Y1040D01*
X1513Y1040D02*
X1522Y1040D01*
X2213Y1040D02*
X2222Y1040D01*
X2355Y1040D02*
X2362Y1040D01*
X1Y1039D02*
X8Y1039D01*
X213Y1039D02*
X222Y1039D01*
X913Y1039D02*
X922Y1039D01*
X1513Y1039D02*
X1522Y1039D01*
X2213Y1039D02*
X2222Y1039D01*
X2355Y1039D02*
X2362Y1039D01*
X1Y1038D02*
X8Y1038D01*
X213Y1038D02*
X222Y1038D01*
X913Y1038D02*
X922Y1038D01*
X1513Y1038D02*
X1522Y1038D01*
X2213Y1038D02*
X2222Y1038D01*
X2355Y1038D02*
X2362Y1038D01*
X1Y1037D02*
X8Y1037D01*
X213Y1037D02*
X222Y1037D01*
X913Y1037D02*
X922Y1037D01*
X1513Y1037D02*
X1522Y1037D01*
X2213Y1037D02*
X2222Y1037D01*
X2355Y1037D02*
X2362Y1037D01*
X1Y1036D02*
X8Y1036D01*
X213Y1036D02*
X222Y1036D01*
X913Y1036D02*
X922Y1036D01*
X1513Y1036D02*
X1522Y1036D01*
X2213Y1036D02*
X2222Y1036D01*
X2355Y1036D02*
X2362Y1036D01*
X1Y1035D02*
X8Y1035D01*
X213Y1035D02*
X222Y1035D01*
X913Y1035D02*
X922Y1035D01*
X1513Y1035D02*
X1522Y1035D01*
X2213Y1035D02*
X2222Y1035D01*
X2355Y1035D02*
X2362Y1035D01*
X1Y1034D02*
X8Y1034D01*
X213Y1034D02*
X222Y1034D01*
X913Y1034D02*
X922Y1034D01*
X1513Y1034D02*
X1522Y1034D01*
X2213Y1034D02*
X2222Y1034D01*
X2355Y1034D02*
X2362Y1034D01*
X1Y1033D02*
X8Y1033D01*
X213Y1033D02*
X222Y1033D01*
X913Y1033D02*
X922Y1033D01*
X1513Y1033D02*
X1522Y1033D01*
X2213Y1033D02*
X2222Y1033D01*
X2355Y1033D02*
X2362Y1033D01*
X1Y1032D02*
X8Y1032D01*
X213Y1032D02*
X222Y1032D01*
X913Y1032D02*
X922Y1032D01*
X1513Y1032D02*
X1522Y1032D01*
X2213Y1032D02*
X2222Y1032D01*
X2355Y1032D02*
X2362Y1032D01*
X1Y1031D02*
X8Y1031D01*
X213Y1031D02*
X222Y1031D01*
X913Y1031D02*
X922Y1031D01*
X1513Y1031D02*
X1522Y1031D01*
X2213Y1031D02*
X2222Y1031D01*
X2355Y1031D02*
X2362Y1031D01*
X1Y1030D02*
X8Y1030D01*
X213Y1030D02*
X222Y1030D01*
X913Y1030D02*
X922Y1030D01*
X1513Y1030D02*
X1522Y1030D01*
X2213Y1030D02*
X2222Y1030D01*
X2355Y1030D02*
X2362Y1030D01*
X1Y1029D02*
X8Y1029D01*
X213Y1029D02*
X222Y1029D01*
X913Y1029D02*
X922Y1029D01*
X1513Y1029D02*
X1522Y1029D01*
X2213Y1029D02*
X2222Y1029D01*
X2355Y1029D02*
X2362Y1029D01*
X1Y1028D02*
X8Y1028D01*
X213Y1028D02*
X222Y1028D01*
X913Y1028D02*
X922Y1028D01*
X1513Y1028D02*
X1522Y1028D01*
X2213Y1028D02*
X2222Y1028D01*
X2355Y1028D02*
X2362Y1028D01*
X1Y1027D02*
X8Y1027D01*
X213Y1027D02*
X222Y1027D01*
X913Y1027D02*
X922Y1027D01*
X1513Y1027D02*
X1522Y1027D01*
X2213Y1027D02*
X2222Y1027D01*
X2355Y1027D02*
X2362Y1027D01*
X1Y1026D02*
X8Y1026D01*
X213Y1026D02*
X222Y1026D01*
X913Y1026D02*
X922Y1026D01*
X1513Y1026D02*
X1522Y1026D01*
X2213Y1026D02*
X2222Y1026D01*
X2355Y1026D02*
X2362Y1026D01*
X1Y1025D02*
X8Y1025D01*
X213Y1025D02*
X222Y1025D01*
X913Y1025D02*
X922Y1025D01*
X1513Y1025D02*
X1522Y1025D01*
X2213Y1025D02*
X2222Y1025D01*
X2355Y1025D02*
X2362Y1025D01*
X1Y1024D02*
X8Y1024D01*
X213Y1024D02*
X222Y1024D01*
X913Y1024D02*
X922Y1024D01*
X1513Y1024D02*
X1522Y1024D01*
X2213Y1024D02*
X2222Y1024D01*
X2355Y1024D02*
X2362Y1024D01*
X1Y1023D02*
X8Y1023D01*
X213Y1023D02*
X222Y1023D01*
X913Y1023D02*
X922Y1023D01*
X1513Y1023D02*
X1522Y1023D01*
X2213Y1023D02*
X2222Y1023D01*
X2355Y1023D02*
X2362Y1023D01*
X1Y1022D02*
X8Y1022D01*
X213Y1022D02*
X222Y1022D01*
X913Y1022D02*
X922Y1022D01*
X1513Y1022D02*
X1522Y1022D01*
X2213Y1022D02*
X2222Y1022D01*
X2355Y1022D02*
X2362Y1022D01*
X1Y1021D02*
X8Y1021D01*
X213Y1021D02*
X222Y1021D01*
X913Y1021D02*
X922Y1021D01*
X1513Y1021D02*
X1522Y1021D01*
X2213Y1021D02*
X2222Y1021D01*
X2355Y1021D02*
X2362Y1021D01*
X1Y1020D02*
X8Y1020D01*
X213Y1020D02*
X222Y1020D01*
X913Y1020D02*
X922Y1020D01*
X1513Y1020D02*
X1522Y1020D01*
X2213Y1020D02*
X2222Y1020D01*
X2355Y1020D02*
X2362Y1020D01*
X1Y1019D02*
X8Y1019D01*
X213Y1019D02*
X222Y1019D01*
X913Y1019D02*
X922Y1019D01*
X1513Y1019D02*
X1522Y1019D01*
X2213Y1019D02*
X2222Y1019D01*
X2355Y1019D02*
X2362Y1019D01*
X1Y1018D02*
X8Y1018D01*
X213Y1018D02*
X222Y1018D01*
X913Y1018D02*
X922Y1018D01*
X1513Y1018D02*
X1522Y1018D01*
X2213Y1018D02*
X2222Y1018D01*
X2355Y1018D02*
X2362Y1018D01*
X1Y1017D02*
X8Y1017D01*
X213Y1017D02*
X222Y1017D01*
X913Y1017D02*
X922Y1017D01*
X1513Y1017D02*
X1522Y1017D01*
X2213Y1017D02*
X2222Y1017D01*
X2355Y1017D02*
X2362Y1017D01*
X1Y1016D02*
X8Y1016D01*
X213Y1016D02*
X222Y1016D01*
X913Y1016D02*
X922Y1016D01*
X1513Y1016D02*
X1522Y1016D01*
X2213Y1016D02*
X2222Y1016D01*
X2355Y1016D02*
X2362Y1016D01*
X1Y1015D02*
X8Y1015D01*
X213Y1015D02*
X222Y1015D01*
X913Y1015D02*
X922Y1015D01*
X1513Y1015D02*
X1522Y1015D01*
X2213Y1015D02*
X2222Y1015D01*
X2355Y1015D02*
X2362Y1015D01*
X1Y1014D02*
X8Y1014D01*
X213Y1014D02*
X222Y1014D01*
X913Y1014D02*
X922Y1014D01*
X1513Y1014D02*
X1522Y1014D01*
X2213Y1014D02*
X2222Y1014D01*
X2355Y1014D02*
X2362Y1014D01*
X1Y1013D02*
X8Y1013D01*
X213Y1013D02*
X222Y1013D01*
X913Y1013D02*
X922Y1013D01*
X1513Y1013D02*
X1522Y1013D01*
X2213Y1013D02*
X2222Y1013D01*
X2355Y1013D02*
X2362Y1013D01*
X1Y1012D02*
X8Y1012D01*
X213Y1012D02*
X222Y1012D01*
X913Y1012D02*
X922Y1012D01*
X1513Y1012D02*
X1522Y1012D01*
X2213Y1012D02*
X2222Y1012D01*
X2355Y1012D02*
X2362Y1012D01*
X1Y1011D02*
X8Y1011D01*
X213Y1011D02*
X222Y1011D01*
X913Y1011D02*
X922Y1011D01*
X1513Y1011D02*
X1522Y1011D01*
X2213Y1011D02*
X2222Y1011D01*
X2355Y1011D02*
X2362Y1011D01*
X1Y1010D02*
X8Y1010D01*
X213Y1010D02*
X222Y1010D01*
X913Y1010D02*
X922Y1010D01*
X1513Y1010D02*
X1522Y1010D01*
X2213Y1010D02*
X2222Y1010D01*
X2355Y1010D02*
X2362Y1010D01*
X1Y1009D02*
X8Y1009D01*
X213Y1009D02*
X222Y1009D01*
X913Y1009D02*
X922Y1009D01*
X1513Y1009D02*
X1522Y1009D01*
X2213Y1009D02*
X2222Y1009D01*
X2355Y1009D02*
X2362Y1009D01*
X1Y1008D02*
X8Y1008D01*
X213Y1008D02*
X222Y1008D01*
X913Y1008D02*
X922Y1008D01*
X1513Y1008D02*
X1522Y1008D01*
X2213Y1008D02*
X2222Y1008D01*
X2355Y1008D02*
X2362Y1008D01*
X1Y1007D02*
X8Y1007D01*
X213Y1007D02*
X222Y1007D01*
X913Y1007D02*
X922Y1007D01*
X1513Y1007D02*
X1522Y1007D01*
X2213Y1007D02*
X2222Y1007D01*
X2355Y1007D02*
X2362Y1007D01*
X1Y1006D02*
X8Y1006D01*
X213Y1006D02*
X222Y1006D01*
X913Y1006D02*
X922Y1006D01*
X1513Y1006D02*
X1522Y1006D01*
X2213Y1006D02*
X2222Y1006D01*
X2355Y1006D02*
X2362Y1006D01*
X1Y1005D02*
X8Y1005D01*
X213Y1005D02*
X222Y1005D01*
X913Y1005D02*
X922Y1005D01*
X1513Y1005D02*
X1522Y1005D01*
X2213Y1005D02*
X2222Y1005D01*
X2355Y1005D02*
X2362Y1005D01*
X1Y1004D02*
X8Y1004D01*
X213Y1004D02*
X222Y1004D01*
X913Y1004D02*
X922Y1004D01*
X1513Y1004D02*
X1522Y1004D01*
X2213Y1004D02*
X2222Y1004D01*
X2355Y1004D02*
X2362Y1004D01*
X1Y1003D02*
X8Y1003D01*
X213Y1003D02*
X222Y1003D01*
X913Y1003D02*
X922Y1003D01*
X1513Y1003D02*
X1522Y1003D01*
X2213Y1003D02*
X2222Y1003D01*
X2355Y1003D02*
X2362Y1003D01*
X1Y1002D02*
X8Y1002D01*
X213Y1002D02*
X222Y1002D01*
X913Y1002D02*
X922Y1002D01*
X1513Y1002D02*
X1522Y1002D01*
X2213Y1002D02*
X2222Y1002D01*
X2355Y1002D02*
X2362Y1002D01*
X1Y1001D02*
X8Y1001D01*
X213Y1001D02*
X222Y1001D01*
X913Y1001D02*
X922Y1001D01*
X1513Y1001D02*
X1522Y1001D01*
X2213Y1001D02*
X2222Y1001D01*
X2355Y1001D02*
X2362Y1001D01*
X1Y1000D02*
X8Y1000D01*
X213Y1000D02*
X222Y1000D01*
X913Y1000D02*
X922Y1000D01*
X1513Y1000D02*
X1522Y1000D01*
X2213Y1000D02*
X2222Y1000D01*
X2355Y1000D02*
X2362Y1000D01*
X1Y999D02*
X8Y999D01*
X213Y999D02*
X222Y999D01*
X913Y999D02*
X922Y999D01*
X1513Y999D02*
X1522Y999D01*
X2213Y999D02*
X2222Y999D01*
X2355Y999D02*
X2362Y999D01*
X1Y998D02*
X8Y998D01*
X213Y998D02*
X222Y998D01*
X913Y998D02*
X922Y998D01*
X1513Y998D02*
X1522Y998D01*
X2213Y998D02*
X2222Y998D01*
X2355Y998D02*
X2362Y998D01*
X1Y997D02*
X8Y997D01*
X213Y997D02*
X222Y997D01*
X913Y997D02*
X922Y997D01*
X1513Y997D02*
X1522Y997D01*
X2213Y997D02*
X2222Y997D01*
X2355Y997D02*
X2362Y997D01*
X1Y996D02*
X8Y996D01*
X213Y996D02*
X222Y996D01*
X913Y996D02*
X922Y996D01*
X1513Y996D02*
X1522Y996D01*
X2213Y996D02*
X2222Y996D01*
X2355Y996D02*
X2362Y996D01*
X1Y995D02*
X8Y995D01*
X213Y995D02*
X222Y995D01*
X913Y995D02*
X922Y995D01*
X1513Y995D02*
X1522Y995D01*
X2213Y995D02*
X2222Y995D01*
X2355Y995D02*
X2362Y995D01*
X1Y994D02*
X8Y994D01*
X213Y994D02*
X222Y994D01*
X913Y994D02*
X922Y994D01*
X1513Y994D02*
X1522Y994D01*
X2213Y994D02*
X2222Y994D01*
X2355Y994D02*
X2362Y994D01*
X1Y993D02*
X8Y993D01*
X213Y993D02*
X222Y993D01*
X913Y993D02*
X922Y993D01*
X1513Y993D02*
X1522Y993D01*
X2213Y993D02*
X2222Y993D01*
X2355Y993D02*
X2362Y993D01*
X1Y992D02*
X8Y992D01*
X213Y992D02*
X222Y992D01*
X913Y992D02*
X922Y992D01*
X1513Y992D02*
X1522Y992D01*
X2213Y992D02*
X2222Y992D01*
X2355Y992D02*
X2362Y992D01*
X1Y991D02*
X8Y991D01*
X213Y991D02*
X222Y991D01*
X913Y991D02*
X922Y991D01*
X1513Y991D02*
X1522Y991D01*
X2213Y991D02*
X2222Y991D01*
X2355Y991D02*
X2362Y991D01*
X1Y990D02*
X8Y990D01*
X213Y990D02*
X222Y990D01*
X913Y990D02*
X922Y990D01*
X1513Y990D02*
X1522Y990D01*
X2213Y990D02*
X2222Y990D01*
X2355Y990D02*
X2362Y990D01*
X1Y989D02*
X8Y989D01*
X213Y989D02*
X222Y989D01*
X913Y989D02*
X922Y989D01*
X1513Y989D02*
X1522Y989D01*
X2213Y989D02*
X2222Y989D01*
X2355Y989D02*
X2362Y989D01*
X1Y988D02*
X8Y988D01*
X213Y988D02*
X222Y988D01*
X913Y988D02*
X922Y988D01*
X1513Y988D02*
X1522Y988D01*
X2213Y988D02*
X2222Y988D01*
X2355Y988D02*
X2362Y988D01*
X1Y987D02*
X8Y987D01*
X213Y987D02*
X222Y987D01*
X913Y987D02*
X922Y987D01*
X1513Y987D02*
X1522Y987D01*
X2213Y987D02*
X2222Y987D01*
X2355Y987D02*
X2362Y987D01*
X1Y986D02*
X8Y986D01*
X213Y986D02*
X222Y986D01*
X913Y986D02*
X922Y986D01*
X1513Y986D02*
X1522Y986D01*
X2213Y986D02*
X2222Y986D01*
X2355Y986D02*
X2362Y986D01*
X1Y985D02*
X8Y985D01*
X213Y985D02*
X222Y985D01*
X913Y985D02*
X922Y985D01*
X1513Y985D02*
X1522Y985D01*
X2213Y985D02*
X2222Y985D01*
X2355Y985D02*
X2362Y985D01*
X1Y984D02*
X8Y984D01*
X213Y984D02*
X222Y984D01*
X913Y984D02*
X922Y984D01*
X1513Y984D02*
X1522Y984D01*
X2213Y984D02*
X2222Y984D01*
X2355Y984D02*
X2362Y984D01*
X1Y983D02*
X8Y983D01*
X213Y983D02*
X222Y983D01*
X913Y983D02*
X922Y983D01*
X1513Y983D02*
X1522Y983D01*
X2213Y983D02*
X2222Y983D01*
X2355Y983D02*
X2362Y983D01*
X1Y982D02*
X8Y982D01*
X213Y982D02*
X222Y982D01*
X913Y982D02*
X922Y982D01*
X1513Y982D02*
X1522Y982D01*
X2213Y982D02*
X2222Y982D01*
X2355Y982D02*
X2362Y982D01*
X1Y981D02*
X8Y981D01*
X213Y981D02*
X222Y981D01*
X913Y981D02*
X922Y981D01*
X1513Y981D02*
X1522Y981D01*
X2213Y981D02*
X2222Y981D01*
X2355Y981D02*
X2362Y981D01*
X1Y980D02*
X8Y980D01*
X213Y980D02*
X222Y980D01*
X913Y980D02*
X922Y980D01*
X1513Y980D02*
X1522Y980D01*
X2213Y980D02*
X2222Y980D01*
X2355Y980D02*
X2362Y980D01*
X1Y979D02*
X8Y979D01*
X213Y979D02*
X222Y979D01*
X913Y979D02*
X922Y979D01*
X1513Y979D02*
X1522Y979D01*
X2213Y979D02*
X2222Y979D01*
X2355Y979D02*
X2362Y979D01*
X1Y978D02*
X8Y978D01*
X213Y978D02*
X222Y978D01*
X913Y978D02*
X922Y978D01*
X1513Y978D02*
X1522Y978D01*
X2213Y978D02*
X2222Y978D01*
X2355Y978D02*
X2362Y978D01*
X1Y977D02*
X8Y977D01*
X213Y977D02*
X222Y977D01*
X913Y977D02*
X922Y977D01*
X1513Y977D02*
X1522Y977D01*
X2213Y977D02*
X2222Y977D01*
X2355Y977D02*
X2362Y977D01*
X1Y976D02*
X8Y976D01*
X213Y976D02*
X222Y976D01*
X913Y976D02*
X922Y976D01*
X1513Y976D02*
X1522Y976D01*
X2213Y976D02*
X2222Y976D01*
X2355Y976D02*
X2362Y976D01*
X1Y975D02*
X8Y975D01*
X213Y975D02*
X222Y975D01*
X913Y975D02*
X922Y975D01*
X1513Y975D02*
X1522Y975D01*
X2213Y975D02*
X2222Y975D01*
X2355Y975D02*
X2362Y975D01*
X1Y974D02*
X8Y974D01*
X213Y974D02*
X222Y974D01*
X913Y974D02*
X922Y974D01*
X1513Y974D02*
X1522Y974D01*
X2213Y974D02*
X2222Y974D01*
X2355Y974D02*
X2362Y974D01*
X1Y973D02*
X8Y973D01*
X213Y973D02*
X222Y973D01*
X913Y973D02*
X922Y973D01*
X1513Y973D02*
X1522Y973D01*
X2213Y973D02*
X2222Y973D01*
X2355Y973D02*
X2362Y973D01*
X1Y972D02*
X8Y972D01*
X213Y972D02*
X222Y972D01*
X913Y972D02*
X922Y972D01*
X1513Y972D02*
X1522Y972D01*
X2213Y972D02*
X2222Y972D01*
X2355Y972D02*
X2362Y972D01*
X1Y971D02*
X8Y971D01*
X213Y971D02*
X222Y971D01*
X913Y971D02*
X922Y971D01*
X1513Y971D02*
X1522Y971D01*
X2213Y971D02*
X2222Y971D01*
X2355Y971D02*
X2362Y971D01*
X1Y970D02*
X8Y970D01*
X213Y970D02*
X222Y970D01*
X913Y970D02*
X922Y970D01*
X1513Y970D02*
X1522Y970D01*
X2213Y970D02*
X2222Y970D01*
X2355Y970D02*
X2362Y970D01*
X1Y969D02*
X8Y969D01*
X213Y969D02*
X222Y969D01*
X913Y969D02*
X922Y969D01*
X1513Y969D02*
X1522Y969D01*
X2213Y969D02*
X2222Y969D01*
X2355Y969D02*
X2362Y969D01*
X1Y968D02*
X8Y968D01*
X213Y968D02*
X222Y968D01*
X913Y968D02*
X922Y968D01*
X1513Y968D02*
X1522Y968D01*
X2213Y968D02*
X2222Y968D01*
X2355Y968D02*
X2362Y968D01*
X1Y967D02*
X8Y967D01*
X213Y967D02*
X222Y967D01*
X913Y967D02*
X922Y967D01*
X1513Y967D02*
X1522Y967D01*
X2213Y967D02*
X2222Y967D01*
X2355Y967D02*
X2362Y967D01*
X1Y966D02*
X8Y966D01*
X213Y966D02*
X222Y966D01*
X913Y966D02*
X922Y966D01*
X1513Y966D02*
X1522Y966D01*
X2213Y966D02*
X2222Y966D01*
X2355Y966D02*
X2362Y966D01*
X1Y965D02*
X8Y965D01*
X213Y965D02*
X222Y965D01*
X913Y965D02*
X922Y965D01*
X1513Y965D02*
X1522Y965D01*
X2213Y965D02*
X2222Y965D01*
X2355Y965D02*
X2362Y965D01*
X1Y964D02*
X8Y964D01*
X213Y964D02*
X222Y964D01*
X913Y964D02*
X922Y964D01*
X1513Y964D02*
X1522Y964D01*
X2213Y964D02*
X2222Y964D01*
X2355Y964D02*
X2362Y964D01*
X1Y963D02*
X8Y963D01*
X213Y963D02*
X222Y963D01*
X913Y963D02*
X922Y963D01*
X1513Y963D02*
X1522Y963D01*
X2213Y963D02*
X2222Y963D01*
X2355Y963D02*
X2362Y963D01*
X1Y962D02*
X8Y962D01*
X213Y962D02*
X222Y962D01*
X913Y962D02*
X922Y962D01*
X1513Y962D02*
X1522Y962D01*
X2213Y962D02*
X2222Y962D01*
X2355Y962D02*
X2362Y962D01*
X1Y961D02*
X8Y961D01*
X213Y961D02*
X222Y961D01*
X913Y961D02*
X922Y961D01*
X1513Y961D02*
X1522Y961D01*
X2213Y961D02*
X2222Y961D01*
X2355Y961D02*
X2362Y961D01*
X1Y960D02*
X8Y960D01*
X213Y960D02*
X222Y960D01*
X913Y960D02*
X922Y960D01*
X1513Y960D02*
X1522Y960D01*
X2213Y960D02*
X2222Y960D01*
X2355Y960D02*
X2362Y960D01*
X1Y959D02*
X8Y959D01*
X213Y959D02*
X222Y959D01*
X913Y959D02*
X922Y959D01*
X1513Y959D02*
X1522Y959D01*
X2213Y959D02*
X2222Y959D01*
X2355Y959D02*
X2362Y959D01*
X1Y958D02*
X8Y958D01*
X213Y958D02*
X222Y958D01*
X913Y958D02*
X922Y958D01*
X1513Y958D02*
X1522Y958D01*
X2213Y958D02*
X2222Y958D01*
X2355Y958D02*
X2362Y958D01*
X1Y957D02*
X8Y957D01*
X213Y957D02*
X222Y957D01*
X913Y957D02*
X922Y957D01*
X1513Y957D02*
X1522Y957D01*
X2213Y957D02*
X2222Y957D01*
X2355Y957D02*
X2362Y957D01*
X1Y956D02*
X8Y956D01*
X213Y956D02*
X222Y956D01*
X913Y956D02*
X922Y956D01*
X1513Y956D02*
X1522Y956D01*
X2213Y956D02*
X2222Y956D01*
X2355Y956D02*
X2362Y956D01*
X1Y955D02*
X8Y955D01*
X213Y955D02*
X222Y955D01*
X913Y955D02*
X922Y955D01*
X1513Y955D02*
X1522Y955D01*
X2213Y955D02*
X2222Y955D01*
X2355Y955D02*
X2362Y955D01*
X1Y954D02*
X8Y954D01*
X213Y954D02*
X222Y954D01*
X913Y954D02*
X922Y954D01*
X1513Y954D02*
X1522Y954D01*
X2213Y954D02*
X2222Y954D01*
X2355Y954D02*
X2362Y954D01*
X1Y953D02*
X8Y953D01*
X213Y953D02*
X222Y953D01*
X913Y953D02*
X922Y953D01*
X1513Y953D02*
X1522Y953D01*
X2213Y953D02*
X2222Y953D01*
X2355Y953D02*
X2362Y953D01*
X1Y952D02*
X8Y952D01*
X213Y952D02*
X222Y952D01*
X913Y952D02*
X922Y952D01*
X1513Y952D02*
X1522Y952D01*
X2213Y952D02*
X2222Y952D01*
X2355Y952D02*
X2362Y952D01*
X1Y951D02*
X8Y951D01*
X213Y951D02*
X222Y951D01*
X913Y951D02*
X922Y951D01*
X1513Y951D02*
X1522Y951D01*
X2213Y951D02*
X2222Y951D01*
X2355Y951D02*
X2362Y951D01*
X1Y950D02*
X8Y950D01*
X213Y950D02*
X222Y950D01*
X913Y950D02*
X922Y950D01*
X1513Y950D02*
X1522Y950D01*
X2213Y950D02*
X2222Y950D01*
X2355Y950D02*
X2362Y950D01*
X1Y949D02*
X8Y949D01*
X213Y949D02*
X222Y949D01*
X913Y949D02*
X922Y949D01*
X1513Y949D02*
X1522Y949D01*
X2213Y949D02*
X2222Y949D01*
X2355Y949D02*
X2362Y949D01*
X1Y948D02*
X8Y948D01*
X213Y948D02*
X222Y948D01*
X913Y948D02*
X922Y948D01*
X1513Y948D02*
X1522Y948D01*
X2213Y948D02*
X2222Y948D01*
X2355Y948D02*
X2362Y948D01*
X1Y947D02*
X8Y947D01*
X213Y947D02*
X222Y947D01*
X913Y947D02*
X922Y947D01*
X1513Y947D02*
X1522Y947D01*
X2213Y947D02*
X2222Y947D01*
X2355Y947D02*
X2362Y947D01*
X1Y946D02*
X8Y946D01*
X213Y946D02*
X222Y946D01*
X913Y946D02*
X922Y946D01*
X1513Y946D02*
X1522Y946D01*
X2213Y946D02*
X2222Y946D01*
X2355Y946D02*
X2362Y946D01*
X1Y945D02*
X8Y945D01*
X213Y945D02*
X222Y945D01*
X913Y945D02*
X922Y945D01*
X1513Y945D02*
X1522Y945D01*
X2213Y945D02*
X2222Y945D01*
X2355Y945D02*
X2362Y945D01*
X1Y944D02*
X8Y944D01*
X213Y944D02*
X222Y944D01*
X913Y944D02*
X922Y944D01*
X1513Y944D02*
X1522Y944D01*
X2213Y944D02*
X2222Y944D01*
X2355Y944D02*
X2362Y944D01*
X1Y943D02*
X8Y943D01*
X213Y943D02*
X222Y943D01*
X913Y943D02*
X922Y943D01*
X1513Y943D02*
X1522Y943D01*
X2213Y943D02*
X2222Y943D01*
X2355Y943D02*
X2362Y943D01*
X1Y942D02*
X8Y942D01*
X213Y942D02*
X222Y942D01*
X913Y942D02*
X922Y942D01*
X1513Y942D02*
X1522Y942D01*
X2213Y942D02*
X2222Y942D01*
X2355Y942D02*
X2362Y942D01*
X1Y941D02*
X8Y941D01*
X213Y941D02*
X222Y941D01*
X913Y941D02*
X922Y941D01*
X1513Y941D02*
X1522Y941D01*
X2213Y941D02*
X2222Y941D01*
X2355Y941D02*
X2362Y941D01*
X1Y940D02*
X8Y940D01*
X213Y940D02*
X222Y940D01*
X913Y940D02*
X922Y940D01*
X1513Y940D02*
X1522Y940D01*
X2213Y940D02*
X2222Y940D01*
X2355Y940D02*
X2362Y940D01*
X1Y939D02*
X8Y939D01*
X213Y939D02*
X222Y939D01*
X913Y939D02*
X922Y939D01*
X1513Y939D02*
X1522Y939D01*
X2213Y939D02*
X2222Y939D01*
X2355Y939D02*
X2362Y939D01*
X1Y938D02*
X8Y938D01*
X213Y938D02*
X222Y938D01*
X913Y938D02*
X922Y938D01*
X1513Y938D02*
X1522Y938D01*
X2213Y938D02*
X2222Y938D01*
X2355Y938D02*
X2362Y938D01*
X1Y937D02*
X8Y937D01*
X213Y937D02*
X222Y937D01*
X913Y937D02*
X922Y937D01*
X1513Y937D02*
X1522Y937D01*
X2213Y937D02*
X2222Y937D01*
X2355Y937D02*
X2362Y937D01*
X1Y936D02*
X8Y936D01*
X213Y936D02*
X222Y936D01*
X913Y936D02*
X922Y936D01*
X1513Y936D02*
X1522Y936D01*
X2213Y936D02*
X2222Y936D01*
X2355Y936D02*
X2362Y936D01*
X1Y935D02*
X8Y935D01*
X213Y935D02*
X222Y935D01*
X913Y935D02*
X922Y935D01*
X1513Y935D02*
X1522Y935D01*
X2213Y935D02*
X2222Y935D01*
X2355Y935D02*
X2362Y935D01*
X1Y934D02*
X8Y934D01*
X213Y934D02*
X222Y934D01*
X913Y934D02*
X922Y934D01*
X1513Y934D02*
X1522Y934D01*
X2213Y934D02*
X2222Y934D01*
X2355Y934D02*
X2362Y934D01*
X1Y933D02*
X8Y933D01*
X213Y933D02*
X222Y933D01*
X913Y933D02*
X922Y933D01*
X1513Y933D02*
X1522Y933D01*
X2213Y933D02*
X2222Y933D01*
X2355Y933D02*
X2362Y933D01*
X1Y932D02*
X8Y932D01*
X213Y932D02*
X222Y932D01*
X913Y932D02*
X922Y932D01*
X1513Y932D02*
X1522Y932D01*
X2213Y932D02*
X2222Y932D01*
X2355Y932D02*
X2362Y932D01*
X1Y931D02*
X8Y931D01*
X213Y931D02*
X222Y931D01*
X913Y931D02*
X922Y931D01*
X1513Y931D02*
X1522Y931D01*
X2213Y931D02*
X2222Y931D01*
X2355Y931D02*
X2362Y931D01*
X1Y930D02*
X8Y930D01*
X213Y930D02*
X222Y930D01*
X913Y930D02*
X922Y930D01*
X1513Y930D02*
X1522Y930D01*
X2213Y930D02*
X2222Y930D01*
X2355Y930D02*
X2362Y930D01*
X1Y929D02*
X8Y929D01*
X213Y929D02*
X222Y929D01*
X913Y929D02*
X922Y929D01*
X1513Y929D02*
X1522Y929D01*
X2213Y929D02*
X2222Y929D01*
X2355Y929D02*
X2362Y929D01*
X1Y928D02*
X8Y928D01*
X213Y928D02*
X222Y928D01*
X913Y928D02*
X922Y928D01*
X1513Y928D02*
X1522Y928D01*
X2213Y928D02*
X2222Y928D01*
X2355Y928D02*
X2362Y928D01*
X1Y927D02*
X8Y927D01*
X213Y927D02*
X222Y927D01*
X913Y927D02*
X922Y927D01*
X1513Y927D02*
X1522Y927D01*
X2213Y927D02*
X2222Y927D01*
X2355Y927D02*
X2362Y927D01*
X1Y926D02*
X8Y926D01*
X213Y926D02*
X222Y926D01*
X913Y926D02*
X922Y926D01*
X1513Y926D02*
X1522Y926D01*
X2213Y926D02*
X2222Y926D01*
X2355Y926D02*
X2362Y926D01*
X1Y925D02*
X8Y925D01*
X213Y925D02*
X222Y925D01*
X913Y925D02*
X922Y925D01*
X1513Y925D02*
X1522Y925D01*
X2213Y925D02*
X2222Y925D01*
X2355Y925D02*
X2362Y925D01*
X1Y924D02*
X8Y924D01*
X213Y924D02*
X222Y924D01*
X913Y924D02*
X922Y924D01*
X1513Y924D02*
X1522Y924D01*
X2213Y924D02*
X2222Y924D01*
X2355Y924D02*
X2362Y924D01*
X1Y923D02*
X8Y923D01*
X213Y923D02*
X222Y923D01*
X913Y923D02*
X922Y923D01*
X1513Y923D02*
X1522Y923D01*
X2213Y923D02*
X2222Y923D01*
X2355Y923D02*
X2362Y923D01*
X1Y922D02*
X8Y922D01*
X213Y922D02*
X222Y922D01*
X913Y922D02*
X922Y922D01*
X1513Y922D02*
X1522Y922D01*
X2213Y922D02*
X2222Y922D01*
X2355Y922D02*
X2362Y922D01*
X1Y921D02*
X8Y921D01*
X213Y921D02*
X222Y921D01*
X913Y921D02*
X922Y921D01*
X1513Y921D02*
X1522Y921D01*
X2213Y921D02*
X2222Y921D01*
X2355Y921D02*
X2362Y921D01*
X1Y920D02*
X8Y920D01*
X213Y920D02*
X222Y920D01*
X913Y920D02*
X922Y920D01*
X1513Y920D02*
X1522Y920D01*
X2213Y920D02*
X2222Y920D01*
X2355Y920D02*
X2362Y920D01*
X1Y919D02*
X8Y919D01*
X213Y919D02*
X222Y919D01*
X913Y919D02*
X922Y919D01*
X1513Y919D02*
X1522Y919D01*
X2213Y919D02*
X2222Y919D01*
X2355Y919D02*
X2362Y919D01*
X1Y918D02*
X8Y918D01*
X213Y918D02*
X222Y918D01*
X913Y918D02*
X922Y918D01*
X1513Y918D02*
X1522Y918D01*
X2213Y918D02*
X2222Y918D01*
X2355Y918D02*
X2362Y918D01*
X1Y917D02*
X8Y917D01*
X213Y917D02*
X222Y917D01*
X913Y917D02*
X922Y917D01*
X1513Y917D02*
X1522Y917D01*
X2213Y917D02*
X2222Y917D01*
X2355Y917D02*
X2362Y917D01*
X1Y916D02*
X8Y916D01*
X213Y916D02*
X222Y916D01*
X913Y916D02*
X922Y916D01*
X1513Y916D02*
X1522Y916D01*
X2213Y916D02*
X2222Y916D01*
X2355Y916D02*
X2362Y916D01*
X1Y915D02*
X8Y915D01*
X213Y915D02*
X222Y915D01*
X913Y915D02*
X922Y915D01*
X1513Y915D02*
X1522Y915D01*
X2213Y915D02*
X2222Y915D01*
X2355Y915D02*
X2362Y915D01*
X1Y914D02*
X8Y914D01*
X213Y914D02*
X222Y914D01*
X913Y914D02*
X922Y914D01*
X1513Y914D02*
X1522Y914D01*
X2213Y914D02*
X2222Y914D01*
X2355Y914D02*
X2362Y914D01*
X1Y913D02*
X8Y913D01*
X213Y913D02*
X222Y913D01*
X913Y913D02*
X922Y913D01*
X1513Y913D02*
X1522Y913D01*
X2213Y913D02*
X2222Y913D01*
X2355Y913D02*
X2362Y913D01*
X1Y912D02*
X8Y912D01*
X213Y912D02*
X222Y912D01*
X913Y912D02*
X922Y912D01*
X1513Y912D02*
X1522Y912D01*
X2213Y912D02*
X2222Y912D01*
X2355Y912D02*
X2362Y912D01*
X1Y911D02*
X8Y911D01*
X213Y911D02*
X222Y911D01*
X913Y911D02*
X922Y911D01*
X1513Y911D02*
X1522Y911D01*
X2213Y911D02*
X2222Y911D01*
X2355Y911D02*
X2362Y911D01*
X1Y910D02*
X8Y910D01*
X213Y910D02*
X222Y910D01*
X913Y910D02*
X922Y910D01*
X1513Y910D02*
X1522Y910D01*
X2213Y910D02*
X2222Y910D01*
X2355Y910D02*
X2362Y910D01*
X1Y909D02*
X8Y909D01*
X213Y909D02*
X222Y909D01*
X913Y909D02*
X922Y909D01*
X1513Y909D02*
X1522Y909D01*
X2213Y909D02*
X2222Y909D01*
X2355Y909D02*
X2362Y909D01*
X1Y908D02*
X8Y908D01*
X213Y908D02*
X222Y908D01*
X913Y908D02*
X922Y908D01*
X1513Y908D02*
X1522Y908D01*
X2213Y908D02*
X2222Y908D01*
X2355Y908D02*
X2362Y908D01*
X1Y907D02*
X8Y907D01*
X213Y907D02*
X222Y907D01*
X913Y907D02*
X922Y907D01*
X1513Y907D02*
X1522Y907D01*
X2213Y907D02*
X2222Y907D01*
X2355Y907D02*
X2362Y907D01*
X1Y906D02*
X8Y906D01*
X213Y906D02*
X222Y906D01*
X913Y906D02*
X922Y906D01*
X1513Y906D02*
X1522Y906D01*
X2213Y906D02*
X2222Y906D01*
X2355Y906D02*
X2362Y906D01*
X1Y905D02*
X8Y905D01*
X213Y905D02*
X222Y905D01*
X913Y905D02*
X922Y905D01*
X1513Y905D02*
X1522Y905D01*
X2213Y905D02*
X2222Y905D01*
X2355Y905D02*
X2362Y905D01*
X1Y904D02*
X8Y904D01*
X213Y904D02*
X222Y904D01*
X913Y904D02*
X922Y904D01*
X1513Y904D02*
X1522Y904D01*
X2213Y904D02*
X2222Y904D01*
X2355Y904D02*
X2362Y904D01*
X1Y903D02*
X8Y903D01*
X213Y903D02*
X222Y903D01*
X913Y903D02*
X922Y903D01*
X1513Y903D02*
X1522Y903D01*
X2213Y903D02*
X2222Y903D01*
X2355Y903D02*
X2362Y903D01*
X1Y902D02*
X8Y902D01*
X213Y902D02*
X222Y902D01*
X913Y902D02*
X922Y902D01*
X1513Y902D02*
X1522Y902D01*
X2213Y902D02*
X2222Y902D01*
X2355Y902D02*
X2362Y902D01*
X1Y901D02*
X8Y901D01*
X213Y901D02*
X222Y901D01*
X913Y901D02*
X922Y901D01*
X1513Y901D02*
X1522Y901D01*
X2213Y901D02*
X2222Y901D01*
X2355Y901D02*
X2362Y901D01*
X1Y900D02*
X8Y900D01*
X213Y900D02*
X222Y900D01*
X913Y900D02*
X922Y900D01*
X1513Y900D02*
X1522Y900D01*
X2213Y900D02*
X2222Y900D01*
X2355Y900D02*
X2362Y900D01*
X1Y899D02*
X8Y899D01*
X213Y899D02*
X222Y899D01*
X913Y899D02*
X922Y899D01*
X1513Y899D02*
X1522Y899D01*
X2213Y899D02*
X2222Y899D01*
X2355Y899D02*
X2362Y899D01*
X1Y898D02*
X8Y898D01*
X213Y898D02*
X222Y898D01*
X913Y898D02*
X922Y898D01*
X1513Y898D02*
X1522Y898D01*
X2213Y898D02*
X2222Y898D01*
X2355Y898D02*
X2362Y898D01*
X1Y897D02*
X8Y897D01*
X213Y897D02*
X222Y897D01*
X913Y897D02*
X922Y897D01*
X1513Y897D02*
X1522Y897D01*
X2213Y897D02*
X2222Y897D01*
X2355Y897D02*
X2362Y897D01*
X1Y896D02*
X8Y896D01*
X213Y896D02*
X222Y896D01*
X913Y896D02*
X922Y896D01*
X1513Y896D02*
X1522Y896D01*
X2213Y896D02*
X2222Y896D01*
X2355Y896D02*
X2362Y896D01*
X1Y895D02*
X8Y895D01*
X213Y895D02*
X222Y895D01*
X913Y895D02*
X922Y895D01*
X1513Y895D02*
X1522Y895D01*
X2213Y895D02*
X2222Y895D01*
X2355Y895D02*
X2362Y895D01*
X1Y894D02*
X8Y894D01*
X213Y894D02*
X222Y894D01*
X913Y894D02*
X922Y894D01*
X1513Y894D02*
X1522Y894D01*
X2213Y894D02*
X2222Y894D01*
X2355Y894D02*
X2362Y894D01*
X1Y893D02*
X8Y893D01*
X213Y893D02*
X222Y893D01*
X913Y893D02*
X922Y893D01*
X1513Y893D02*
X1522Y893D01*
X2213Y893D02*
X2222Y893D01*
X2355Y893D02*
X2362Y893D01*
X1Y892D02*
X8Y892D01*
X213Y892D02*
X222Y892D01*
X913Y892D02*
X922Y892D01*
X1513Y892D02*
X1522Y892D01*
X2213Y892D02*
X2222Y892D01*
X2355Y892D02*
X2362Y892D01*
X1Y891D02*
X8Y891D01*
X213Y891D02*
X222Y891D01*
X913Y891D02*
X922Y891D01*
X1513Y891D02*
X1522Y891D01*
X2213Y891D02*
X2222Y891D01*
X2355Y891D02*
X2362Y891D01*
X1Y890D02*
X8Y890D01*
X213Y890D02*
X222Y890D01*
X913Y890D02*
X922Y890D01*
X1513Y890D02*
X1522Y890D01*
X2213Y890D02*
X2222Y890D01*
X2355Y890D02*
X2362Y890D01*
X1Y889D02*
X8Y889D01*
X213Y889D02*
X222Y889D01*
X913Y889D02*
X922Y889D01*
X1513Y889D02*
X1522Y889D01*
X2213Y889D02*
X2222Y889D01*
X2355Y889D02*
X2362Y889D01*
X1Y888D02*
X8Y888D01*
X213Y888D02*
X222Y888D01*
X913Y888D02*
X922Y888D01*
X1513Y888D02*
X1522Y888D01*
X2213Y888D02*
X2222Y888D01*
X2355Y888D02*
X2362Y888D01*
X1Y887D02*
X8Y887D01*
X213Y887D02*
X222Y887D01*
X913Y887D02*
X922Y887D01*
X1513Y887D02*
X1522Y887D01*
X2213Y887D02*
X2222Y887D01*
X2355Y887D02*
X2362Y887D01*
X1Y886D02*
X8Y886D01*
X213Y886D02*
X222Y886D01*
X913Y886D02*
X922Y886D01*
X1513Y886D02*
X1522Y886D01*
X2213Y886D02*
X2222Y886D01*
X2355Y886D02*
X2362Y886D01*
X1Y885D02*
X8Y885D01*
X213Y885D02*
X222Y885D01*
X913Y885D02*
X922Y885D01*
X1513Y885D02*
X1522Y885D01*
X2213Y885D02*
X2222Y885D01*
X2355Y885D02*
X2362Y885D01*
X1Y884D02*
X8Y884D01*
X213Y884D02*
X222Y884D01*
X913Y884D02*
X922Y884D01*
X1513Y884D02*
X1522Y884D01*
X2213Y884D02*
X2222Y884D01*
X2355Y884D02*
X2362Y884D01*
X1Y883D02*
X8Y883D01*
X213Y883D02*
X222Y883D01*
X913Y883D02*
X922Y883D01*
X1513Y883D02*
X1522Y883D01*
X2213Y883D02*
X2222Y883D01*
X2355Y883D02*
X2362Y883D01*
X1Y882D02*
X8Y882D01*
X213Y882D02*
X222Y882D01*
X913Y882D02*
X922Y882D01*
X1513Y882D02*
X1522Y882D01*
X2213Y882D02*
X2222Y882D01*
X2355Y882D02*
X2362Y882D01*
X1Y881D02*
X8Y881D01*
X213Y881D02*
X222Y881D01*
X913Y881D02*
X922Y881D01*
X1513Y881D02*
X1522Y881D01*
X2213Y881D02*
X2222Y881D01*
X2355Y881D02*
X2362Y881D01*
X1Y880D02*
X8Y880D01*
X213Y880D02*
X222Y880D01*
X913Y880D02*
X922Y880D01*
X1513Y880D02*
X1522Y880D01*
X2213Y880D02*
X2222Y880D01*
X2355Y880D02*
X2362Y880D01*
X1Y879D02*
X8Y879D01*
X213Y879D02*
X222Y879D01*
X913Y879D02*
X922Y879D01*
X1513Y879D02*
X1522Y879D01*
X2213Y879D02*
X2222Y879D01*
X2355Y879D02*
X2362Y879D01*
X1Y878D02*
X8Y878D01*
X213Y878D02*
X222Y878D01*
X913Y878D02*
X922Y878D01*
X1513Y878D02*
X1522Y878D01*
X2213Y878D02*
X2222Y878D01*
X2355Y878D02*
X2362Y878D01*
X1Y877D02*
X8Y877D01*
X213Y877D02*
X222Y877D01*
X913Y877D02*
X922Y877D01*
X1513Y877D02*
X1522Y877D01*
X2213Y877D02*
X2222Y877D01*
X2355Y877D02*
X2362Y877D01*
X1Y876D02*
X8Y876D01*
X213Y876D02*
X222Y876D01*
X913Y876D02*
X922Y876D01*
X1513Y876D02*
X1522Y876D01*
X2213Y876D02*
X2222Y876D01*
X2355Y876D02*
X2362Y876D01*
X1Y875D02*
X8Y875D01*
X213Y875D02*
X222Y875D01*
X913Y875D02*
X922Y875D01*
X1513Y875D02*
X1522Y875D01*
X2213Y875D02*
X2222Y875D01*
X2355Y875D02*
X2362Y875D01*
X1Y874D02*
X8Y874D01*
X213Y874D02*
X222Y874D01*
X913Y874D02*
X922Y874D01*
X1513Y874D02*
X1522Y874D01*
X2213Y874D02*
X2222Y874D01*
X2355Y874D02*
X2362Y874D01*
X1Y873D02*
X8Y873D01*
X213Y873D02*
X222Y873D01*
X913Y873D02*
X922Y873D01*
X1513Y873D02*
X1522Y873D01*
X2213Y873D02*
X2222Y873D01*
X2355Y873D02*
X2362Y873D01*
X1Y872D02*
X8Y872D01*
X213Y872D02*
X222Y872D01*
X913Y872D02*
X922Y872D01*
X1513Y872D02*
X1522Y872D01*
X2213Y872D02*
X2222Y872D01*
X2355Y872D02*
X2362Y872D01*
X1Y871D02*
X8Y871D01*
X213Y871D02*
X222Y871D01*
X913Y871D02*
X922Y871D01*
X1513Y871D02*
X1522Y871D01*
X2213Y871D02*
X2222Y871D01*
X2355Y871D02*
X2362Y871D01*
X1Y870D02*
X8Y870D01*
X213Y870D02*
X222Y870D01*
X913Y870D02*
X922Y870D01*
X1513Y870D02*
X1522Y870D01*
X2213Y870D02*
X2222Y870D01*
X2355Y870D02*
X2362Y870D01*
X1Y869D02*
X8Y869D01*
X213Y869D02*
X222Y869D01*
X913Y869D02*
X922Y869D01*
X1513Y869D02*
X1522Y869D01*
X2213Y869D02*
X2222Y869D01*
X2355Y869D02*
X2362Y869D01*
X1Y868D02*
X8Y868D01*
X213Y868D02*
X222Y868D01*
X913Y868D02*
X922Y868D01*
X1513Y868D02*
X1522Y868D01*
X2213Y868D02*
X2222Y868D01*
X2355Y868D02*
X2362Y868D01*
X1Y867D02*
X8Y867D01*
X213Y867D02*
X222Y867D01*
X913Y867D02*
X922Y867D01*
X1513Y867D02*
X1522Y867D01*
X2213Y867D02*
X2222Y867D01*
X2355Y867D02*
X2362Y867D01*
X1Y866D02*
X8Y866D01*
X213Y866D02*
X222Y866D01*
X913Y866D02*
X922Y866D01*
X1513Y866D02*
X1522Y866D01*
X2213Y866D02*
X2222Y866D01*
X2355Y866D02*
X2362Y866D01*
X1Y865D02*
X8Y865D01*
X213Y865D02*
X222Y865D01*
X913Y865D02*
X922Y865D01*
X1513Y865D02*
X1522Y865D01*
X2213Y865D02*
X2222Y865D01*
X2355Y865D02*
X2362Y865D01*
X1Y864D02*
X8Y864D01*
X213Y864D02*
X222Y864D01*
X913Y864D02*
X922Y864D01*
X1513Y864D02*
X1522Y864D01*
X2213Y864D02*
X2222Y864D01*
X2355Y864D02*
X2362Y864D01*
X1Y863D02*
X8Y863D01*
X213Y863D02*
X222Y863D01*
X913Y863D02*
X922Y863D01*
X1513Y863D02*
X1522Y863D01*
X2213Y863D02*
X2222Y863D01*
X2355Y863D02*
X2362Y863D01*
X1Y862D02*
X8Y862D01*
X213Y862D02*
X222Y862D01*
X913Y862D02*
X922Y862D01*
X1513Y862D02*
X1522Y862D01*
X2213Y862D02*
X2222Y862D01*
X2355Y862D02*
X2362Y862D01*
X1Y861D02*
X8Y861D01*
X213Y861D02*
X222Y861D01*
X913Y861D02*
X922Y861D01*
X1513Y861D02*
X1522Y861D01*
X2213Y861D02*
X2222Y861D01*
X2355Y861D02*
X2362Y861D01*
X1Y860D02*
X8Y860D01*
X213Y860D02*
X222Y860D01*
X913Y860D02*
X922Y860D01*
X1513Y860D02*
X1522Y860D01*
X2213Y860D02*
X2222Y860D01*
X2355Y860D02*
X2362Y860D01*
X1Y859D02*
X8Y859D01*
X213Y859D02*
X222Y859D01*
X913Y859D02*
X922Y859D01*
X1513Y859D02*
X1522Y859D01*
X2213Y859D02*
X2222Y859D01*
X2355Y859D02*
X2362Y859D01*
X1Y858D02*
X8Y858D01*
X213Y858D02*
X222Y858D01*
X913Y858D02*
X922Y858D01*
X1513Y858D02*
X1522Y858D01*
X2213Y858D02*
X2222Y858D01*
X2355Y858D02*
X2362Y858D01*
X1Y857D02*
X8Y857D01*
X213Y857D02*
X222Y857D01*
X913Y857D02*
X922Y857D01*
X1513Y857D02*
X1522Y857D01*
X2213Y857D02*
X2222Y857D01*
X2355Y857D02*
X2362Y857D01*
X1Y856D02*
X8Y856D01*
X213Y856D02*
X222Y856D01*
X913Y856D02*
X922Y856D01*
X1513Y856D02*
X1522Y856D01*
X2213Y856D02*
X2222Y856D01*
X2355Y856D02*
X2362Y856D01*
X1Y855D02*
X8Y855D01*
X213Y855D02*
X222Y855D01*
X913Y855D02*
X922Y855D01*
X1513Y855D02*
X1522Y855D01*
X2213Y855D02*
X2222Y855D01*
X2355Y855D02*
X2362Y855D01*
X1Y854D02*
X8Y854D01*
X213Y854D02*
X222Y854D01*
X913Y854D02*
X922Y854D01*
X1513Y854D02*
X1522Y854D01*
X2213Y854D02*
X2222Y854D01*
X2355Y854D02*
X2362Y854D01*
X1Y853D02*
X8Y853D01*
X213Y853D02*
X222Y853D01*
X913Y853D02*
X922Y853D01*
X1513Y853D02*
X1522Y853D01*
X2213Y853D02*
X2222Y853D01*
X2355Y853D02*
X2362Y853D01*
X1Y852D02*
X8Y852D01*
X213Y852D02*
X222Y852D01*
X913Y852D02*
X922Y852D01*
X1513Y852D02*
X1522Y852D01*
X2213Y852D02*
X2222Y852D01*
X2355Y852D02*
X2362Y852D01*
X1Y851D02*
X8Y851D01*
X213Y851D02*
X222Y851D01*
X913Y851D02*
X922Y851D01*
X1513Y851D02*
X1522Y851D01*
X2213Y851D02*
X2222Y851D01*
X2355Y851D02*
X2362Y851D01*
X1Y850D02*
X8Y850D01*
X213Y850D02*
X222Y850D01*
X913Y850D02*
X922Y850D01*
X1513Y850D02*
X1522Y850D01*
X2213Y850D02*
X2222Y850D01*
X2355Y850D02*
X2362Y850D01*
X1Y849D02*
X8Y849D01*
X213Y849D02*
X222Y849D01*
X913Y849D02*
X922Y849D01*
X1513Y849D02*
X1522Y849D01*
X2213Y849D02*
X2222Y849D01*
X2355Y849D02*
X2362Y849D01*
X1Y848D02*
X8Y848D01*
X213Y848D02*
X222Y848D01*
X913Y848D02*
X922Y848D01*
X1513Y848D02*
X1522Y848D01*
X2213Y848D02*
X2222Y848D01*
X2355Y848D02*
X2362Y848D01*
X1Y847D02*
X8Y847D01*
X213Y847D02*
X222Y847D01*
X913Y847D02*
X922Y847D01*
X1513Y847D02*
X1522Y847D01*
X2213Y847D02*
X2222Y847D01*
X2355Y847D02*
X2362Y847D01*
X1Y846D02*
X8Y846D01*
X213Y846D02*
X222Y846D01*
X913Y846D02*
X922Y846D01*
X1513Y846D02*
X1522Y846D01*
X2213Y846D02*
X2222Y846D01*
X2355Y846D02*
X2362Y846D01*
X1Y845D02*
X8Y845D01*
X213Y845D02*
X222Y845D01*
X913Y845D02*
X922Y845D01*
X1513Y845D02*
X1522Y845D01*
X2213Y845D02*
X2222Y845D01*
X2355Y845D02*
X2362Y845D01*
X1Y844D02*
X8Y844D01*
X213Y844D02*
X222Y844D01*
X913Y844D02*
X922Y844D01*
X1513Y844D02*
X1522Y844D01*
X2213Y844D02*
X2222Y844D01*
X2355Y844D02*
X2362Y844D01*
X1Y843D02*
X8Y843D01*
X213Y843D02*
X222Y843D01*
X913Y843D02*
X922Y843D01*
X1513Y843D02*
X1522Y843D01*
X2213Y843D02*
X2222Y843D01*
X2355Y843D02*
X2362Y843D01*
X1Y842D02*
X8Y842D01*
X213Y842D02*
X222Y842D01*
X913Y842D02*
X922Y842D01*
X1513Y842D02*
X1522Y842D01*
X2213Y842D02*
X2222Y842D01*
X2355Y842D02*
X2362Y842D01*
X1Y841D02*
X8Y841D01*
X213Y841D02*
X222Y841D01*
X913Y841D02*
X922Y841D01*
X1513Y841D02*
X1522Y841D01*
X2213Y841D02*
X2222Y841D01*
X2355Y841D02*
X2362Y841D01*
X1Y840D02*
X8Y840D01*
X213Y840D02*
X222Y840D01*
X913Y840D02*
X922Y840D01*
X1513Y840D02*
X1522Y840D01*
X2213Y840D02*
X2222Y840D01*
X2355Y840D02*
X2362Y840D01*
X1Y839D02*
X8Y839D01*
X213Y839D02*
X222Y839D01*
X913Y839D02*
X922Y839D01*
X1513Y839D02*
X1522Y839D01*
X2213Y839D02*
X2222Y839D01*
X2355Y839D02*
X2362Y839D01*
X1Y838D02*
X8Y838D01*
X213Y838D02*
X222Y838D01*
X913Y838D02*
X922Y838D01*
X1513Y838D02*
X1522Y838D01*
X2213Y838D02*
X2222Y838D01*
X2355Y838D02*
X2362Y838D01*
X1Y837D02*
X8Y837D01*
X213Y837D02*
X222Y837D01*
X913Y837D02*
X922Y837D01*
X1513Y837D02*
X1522Y837D01*
X2213Y837D02*
X2222Y837D01*
X2355Y837D02*
X2362Y837D01*
X1Y836D02*
X8Y836D01*
X213Y836D02*
X222Y836D01*
X913Y836D02*
X922Y836D01*
X1513Y836D02*
X1522Y836D01*
X2213Y836D02*
X2222Y836D01*
X2355Y836D02*
X2362Y836D01*
X1Y835D02*
X8Y835D01*
X213Y835D02*
X222Y835D01*
X913Y835D02*
X922Y835D01*
X1513Y835D02*
X1522Y835D01*
X2213Y835D02*
X2222Y835D01*
X2355Y835D02*
X2362Y835D01*
X1Y834D02*
X8Y834D01*
X213Y834D02*
X222Y834D01*
X913Y834D02*
X922Y834D01*
X1513Y834D02*
X1522Y834D01*
X2213Y834D02*
X2222Y834D01*
X2355Y834D02*
X2362Y834D01*
X1Y833D02*
X8Y833D01*
X213Y833D02*
X222Y833D01*
X913Y833D02*
X922Y833D01*
X1513Y833D02*
X1522Y833D01*
X2213Y833D02*
X2222Y833D01*
X2355Y833D02*
X2362Y833D01*
X1Y832D02*
X8Y832D01*
X213Y832D02*
X222Y832D01*
X913Y832D02*
X922Y832D01*
X1513Y832D02*
X1522Y832D01*
X2213Y832D02*
X2222Y832D01*
X2355Y832D02*
X2362Y832D01*
X1Y831D02*
X8Y831D01*
X213Y831D02*
X222Y831D01*
X913Y831D02*
X922Y831D01*
X1513Y831D02*
X1522Y831D01*
X2213Y831D02*
X2222Y831D01*
X2355Y831D02*
X2362Y831D01*
X1Y830D02*
X8Y830D01*
X213Y830D02*
X222Y830D01*
X913Y830D02*
X922Y830D01*
X1513Y830D02*
X1522Y830D01*
X2213Y830D02*
X2222Y830D01*
X2355Y830D02*
X2362Y830D01*
X1Y829D02*
X8Y829D01*
X213Y829D02*
X222Y829D01*
X913Y829D02*
X922Y829D01*
X1513Y829D02*
X1522Y829D01*
X2213Y829D02*
X2222Y829D01*
X2355Y829D02*
X2362Y829D01*
X1Y828D02*
X8Y828D01*
X213Y828D02*
X222Y828D01*
X913Y828D02*
X922Y828D01*
X1513Y828D02*
X1522Y828D01*
X2213Y828D02*
X2222Y828D01*
X2355Y828D02*
X2362Y828D01*
X1Y827D02*
X8Y827D01*
X213Y827D02*
X222Y827D01*
X913Y827D02*
X922Y827D01*
X1513Y827D02*
X1522Y827D01*
X2213Y827D02*
X2222Y827D01*
X2355Y827D02*
X2362Y827D01*
X1Y826D02*
X8Y826D01*
X213Y826D02*
X222Y826D01*
X913Y826D02*
X922Y826D01*
X1513Y826D02*
X1522Y826D01*
X2213Y826D02*
X2222Y826D01*
X2355Y826D02*
X2362Y826D01*
X1Y825D02*
X8Y825D01*
X213Y825D02*
X222Y825D01*
X913Y825D02*
X922Y825D01*
X1513Y825D02*
X1522Y825D01*
X2213Y825D02*
X2222Y825D01*
X2355Y825D02*
X2362Y825D01*
X1Y824D02*
X8Y824D01*
X213Y824D02*
X222Y824D01*
X913Y824D02*
X922Y824D01*
X1513Y824D02*
X1522Y824D01*
X2213Y824D02*
X2222Y824D01*
X2355Y824D02*
X2362Y824D01*
X1Y823D02*
X8Y823D01*
X213Y823D02*
X222Y823D01*
X913Y823D02*
X922Y823D01*
X1513Y823D02*
X1522Y823D01*
X2213Y823D02*
X2222Y823D01*
X2355Y823D02*
X2362Y823D01*
X1Y822D02*
X8Y822D01*
X213Y822D02*
X222Y822D01*
X913Y822D02*
X922Y822D01*
X1513Y822D02*
X1522Y822D01*
X2213Y822D02*
X2222Y822D01*
X2355Y822D02*
X2362Y822D01*
X1Y821D02*
X8Y821D01*
X213Y821D02*
X222Y821D01*
X913Y821D02*
X922Y821D01*
X1513Y821D02*
X1522Y821D01*
X2213Y821D02*
X2222Y821D01*
X2355Y821D02*
X2362Y821D01*
X1Y820D02*
X8Y820D01*
X213Y820D02*
X222Y820D01*
X913Y820D02*
X922Y820D01*
X1513Y820D02*
X1522Y820D01*
X2213Y820D02*
X2222Y820D01*
X2355Y820D02*
X2362Y820D01*
X1Y819D02*
X8Y819D01*
X213Y819D02*
X222Y819D01*
X913Y819D02*
X922Y819D01*
X1513Y819D02*
X1522Y819D01*
X2213Y819D02*
X2222Y819D01*
X2355Y819D02*
X2362Y819D01*
X1Y818D02*
X8Y818D01*
X213Y818D02*
X222Y818D01*
X913Y818D02*
X922Y818D01*
X1513Y818D02*
X1522Y818D01*
X2213Y818D02*
X2222Y818D01*
X2355Y818D02*
X2362Y818D01*
X1Y817D02*
X8Y817D01*
X213Y817D02*
X222Y817D01*
X913Y817D02*
X922Y817D01*
X1513Y817D02*
X1522Y817D01*
X2213Y817D02*
X2222Y817D01*
X2355Y817D02*
X2362Y817D01*
X1Y816D02*
X8Y816D01*
X213Y816D02*
X222Y816D01*
X913Y816D02*
X922Y816D01*
X1513Y816D02*
X1522Y816D01*
X2213Y816D02*
X2222Y816D01*
X2355Y816D02*
X2362Y816D01*
X1Y815D02*
X8Y815D01*
X213Y815D02*
X222Y815D01*
X913Y815D02*
X922Y815D01*
X1513Y815D02*
X1522Y815D01*
X2213Y815D02*
X2222Y815D01*
X2355Y815D02*
X2362Y815D01*
X1Y814D02*
X8Y814D01*
X213Y814D02*
X222Y814D01*
X913Y814D02*
X922Y814D01*
X1513Y814D02*
X1522Y814D01*
X2213Y814D02*
X2222Y814D01*
X2355Y814D02*
X2362Y814D01*
X1Y813D02*
X8Y813D01*
X213Y813D02*
X222Y813D01*
X913Y813D02*
X922Y813D01*
X1513Y813D02*
X1522Y813D01*
X2213Y813D02*
X2222Y813D01*
X2355Y813D02*
X2362Y813D01*
X1Y812D02*
X8Y812D01*
X213Y812D02*
X222Y812D01*
X913Y812D02*
X922Y812D01*
X1513Y812D02*
X1522Y812D01*
X2213Y812D02*
X2222Y812D01*
X2355Y812D02*
X2362Y812D01*
X1Y811D02*
X8Y811D01*
X213Y811D02*
X222Y811D01*
X913Y811D02*
X922Y811D01*
X1513Y811D02*
X1522Y811D01*
X2213Y811D02*
X2222Y811D01*
X2355Y811D02*
X2362Y811D01*
X1Y810D02*
X8Y810D01*
X213Y810D02*
X222Y810D01*
X913Y810D02*
X922Y810D01*
X1513Y810D02*
X1522Y810D01*
X2213Y810D02*
X2222Y810D01*
X2355Y810D02*
X2362Y810D01*
X1Y809D02*
X8Y809D01*
X213Y809D02*
X222Y809D01*
X913Y809D02*
X922Y809D01*
X1513Y809D02*
X1522Y809D01*
X2213Y809D02*
X2222Y809D01*
X2355Y809D02*
X2362Y809D01*
X1Y808D02*
X8Y808D01*
X213Y808D02*
X222Y808D01*
X913Y808D02*
X922Y808D01*
X1513Y808D02*
X1522Y808D01*
X2213Y808D02*
X2222Y808D01*
X2355Y808D02*
X2362Y808D01*
X1Y807D02*
X8Y807D01*
X213Y807D02*
X222Y807D01*
X913Y807D02*
X922Y807D01*
X1513Y807D02*
X1522Y807D01*
X2213Y807D02*
X2222Y807D01*
X2355Y807D02*
X2362Y807D01*
X1Y806D02*
X8Y806D01*
X213Y806D02*
X222Y806D01*
X913Y806D02*
X922Y806D01*
X1513Y806D02*
X1522Y806D01*
X2213Y806D02*
X2222Y806D01*
X2355Y806D02*
X2362Y806D01*
X1Y805D02*
X8Y805D01*
X213Y805D02*
X222Y805D01*
X913Y805D02*
X922Y805D01*
X1513Y805D02*
X1522Y805D01*
X2213Y805D02*
X2222Y805D01*
X2355Y805D02*
X2362Y805D01*
X1Y804D02*
X8Y804D01*
X213Y804D02*
X222Y804D01*
X913Y804D02*
X922Y804D01*
X1513Y804D02*
X1522Y804D01*
X2213Y804D02*
X2222Y804D01*
X2355Y804D02*
X2362Y804D01*
X1Y803D02*
X8Y803D01*
X213Y803D02*
X222Y803D01*
X913Y803D02*
X922Y803D01*
X1513Y803D02*
X1522Y803D01*
X2213Y803D02*
X2222Y803D01*
X2355Y803D02*
X2362Y803D01*
X1Y802D02*
X8Y802D01*
X213Y802D02*
X222Y802D01*
X913Y802D02*
X922Y802D01*
X1513Y802D02*
X1522Y802D01*
X2213Y802D02*
X2222Y802D01*
X2355Y802D02*
X2362Y802D01*
X1Y801D02*
X8Y801D01*
X213Y801D02*
X222Y801D01*
X913Y801D02*
X922Y801D01*
X1513Y801D02*
X1522Y801D01*
X2213Y801D02*
X2222Y801D01*
X2355Y801D02*
X2362Y801D01*
X1Y800D02*
X8Y800D01*
X213Y800D02*
X222Y800D01*
X913Y800D02*
X922Y800D01*
X1513Y800D02*
X1522Y800D01*
X2213Y800D02*
X2222Y800D01*
X2355Y800D02*
X2362Y800D01*
X1Y799D02*
X8Y799D01*
X213Y799D02*
X222Y799D01*
X913Y799D02*
X922Y799D01*
X1513Y799D02*
X1522Y799D01*
X2213Y799D02*
X2222Y799D01*
X2355Y799D02*
X2362Y799D01*
X1Y798D02*
X8Y798D01*
X213Y798D02*
X222Y798D01*
X913Y798D02*
X922Y798D01*
X1513Y798D02*
X1522Y798D01*
X2213Y798D02*
X2222Y798D01*
X2355Y798D02*
X2362Y798D01*
X1Y797D02*
X8Y797D01*
X213Y797D02*
X222Y797D01*
X913Y797D02*
X922Y797D01*
X1513Y797D02*
X1522Y797D01*
X2213Y797D02*
X2222Y797D01*
X2355Y797D02*
X2362Y797D01*
X1Y796D02*
X8Y796D01*
X213Y796D02*
X222Y796D01*
X913Y796D02*
X922Y796D01*
X1513Y796D02*
X1522Y796D01*
X2213Y796D02*
X2222Y796D01*
X2355Y796D02*
X2362Y796D01*
X1Y795D02*
X8Y795D01*
X213Y795D02*
X222Y795D01*
X913Y795D02*
X922Y795D01*
X1513Y795D02*
X1522Y795D01*
X2213Y795D02*
X2222Y795D01*
X2355Y795D02*
X2362Y795D01*
X1Y794D02*
X8Y794D01*
X213Y794D02*
X222Y794D01*
X913Y794D02*
X922Y794D01*
X1513Y794D02*
X1522Y794D01*
X2213Y794D02*
X2222Y794D01*
X2355Y794D02*
X2362Y794D01*
X1Y793D02*
X8Y793D01*
X213Y793D02*
X222Y793D01*
X913Y793D02*
X922Y793D01*
X1513Y793D02*
X1522Y793D01*
X2213Y793D02*
X2222Y793D01*
X2355Y793D02*
X2362Y793D01*
X1Y792D02*
X8Y792D01*
X213Y792D02*
X222Y792D01*
X913Y792D02*
X922Y792D01*
X1513Y792D02*
X1522Y792D01*
X2213Y792D02*
X2222Y792D01*
X2355Y792D02*
X2362Y792D01*
X1Y791D02*
X8Y791D01*
X213Y791D02*
X222Y791D01*
X913Y791D02*
X922Y791D01*
X1513Y791D02*
X1522Y791D01*
X2213Y791D02*
X2222Y791D01*
X2355Y791D02*
X2362Y791D01*
X1Y790D02*
X8Y790D01*
X213Y790D02*
X222Y790D01*
X913Y790D02*
X922Y790D01*
X1513Y790D02*
X1522Y790D01*
X2213Y790D02*
X2222Y790D01*
X2355Y790D02*
X2362Y790D01*
X1Y789D02*
X8Y789D01*
X213Y789D02*
X222Y789D01*
X913Y789D02*
X922Y789D01*
X1513Y789D02*
X1522Y789D01*
X2213Y789D02*
X2222Y789D01*
X2355Y789D02*
X2362Y789D01*
X1Y788D02*
X8Y788D01*
X213Y788D02*
X222Y788D01*
X913Y788D02*
X922Y788D01*
X1513Y788D02*
X1522Y788D01*
X2213Y788D02*
X2222Y788D01*
X2355Y788D02*
X2362Y788D01*
X1Y787D02*
X8Y787D01*
X213Y787D02*
X222Y787D01*
X913Y787D02*
X922Y787D01*
X1513Y787D02*
X1522Y787D01*
X2213Y787D02*
X2222Y787D01*
X2355Y787D02*
X2362Y787D01*
X1Y786D02*
X8Y786D01*
X213Y786D02*
X222Y786D01*
X913Y786D02*
X922Y786D01*
X1513Y786D02*
X1522Y786D01*
X2213Y786D02*
X2222Y786D01*
X2355Y786D02*
X2362Y786D01*
X1Y785D02*
X8Y785D01*
X213Y785D02*
X222Y785D01*
X913Y785D02*
X922Y785D01*
X1513Y785D02*
X1522Y785D01*
X2213Y785D02*
X2222Y785D01*
X2355Y785D02*
X2362Y785D01*
X1Y784D02*
X8Y784D01*
X213Y784D02*
X222Y784D01*
X913Y784D02*
X922Y784D01*
X1513Y784D02*
X1522Y784D01*
X2213Y784D02*
X2222Y784D01*
X2355Y784D02*
X2362Y784D01*
X1Y783D02*
X8Y783D01*
X213Y783D02*
X222Y783D01*
X913Y783D02*
X922Y783D01*
X1513Y783D02*
X1522Y783D01*
X2213Y783D02*
X2222Y783D01*
X2355Y783D02*
X2362Y783D01*
X1Y782D02*
X8Y782D01*
X213Y782D02*
X222Y782D01*
X913Y782D02*
X922Y782D01*
X1513Y782D02*
X1522Y782D01*
X2213Y782D02*
X2222Y782D01*
X2355Y782D02*
X2362Y782D01*
X1Y781D02*
X8Y781D01*
X213Y781D02*
X222Y781D01*
X913Y781D02*
X922Y781D01*
X1513Y781D02*
X1522Y781D01*
X2213Y781D02*
X2222Y781D01*
X2355Y781D02*
X2362Y781D01*
X1Y780D02*
X8Y780D01*
X213Y780D02*
X222Y780D01*
X913Y780D02*
X922Y780D01*
X1513Y780D02*
X1522Y780D01*
X2213Y780D02*
X2222Y780D01*
X2355Y780D02*
X2362Y780D01*
X1Y779D02*
X8Y779D01*
X213Y779D02*
X222Y779D01*
X913Y779D02*
X922Y779D01*
X1513Y779D02*
X1522Y779D01*
X2213Y779D02*
X2222Y779D01*
X2355Y779D02*
X2362Y779D01*
X1Y778D02*
X8Y778D01*
X213Y778D02*
X222Y778D01*
X913Y778D02*
X922Y778D01*
X1513Y778D02*
X1522Y778D01*
X2213Y778D02*
X2222Y778D01*
X2355Y778D02*
X2362Y778D01*
X1Y777D02*
X8Y777D01*
X213Y777D02*
X222Y777D01*
X913Y777D02*
X922Y777D01*
X1513Y777D02*
X1522Y777D01*
X2213Y777D02*
X2222Y777D01*
X2355Y777D02*
X2362Y777D01*
X1Y776D02*
X8Y776D01*
X213Y776D02*
X222Y776D01*
X913Y776D02*
X922Y776D01*
X1513Y776D02*
X1522Y776D01*
X2213Y776D02*
X2222Y776D01*
X2355Y776D02*
X2362Y776D01*
X1Y775D02*
X8Y775D01*
X213Y775D02*
X222Y775D01*
X913Y775D02*
X922Y775D01*
X1513Y775D02*
X1522Y775D01*
X2213Y775D02*
X2222Y775D01*
X2355Y775D02*
X2362Y775D01*
X1Y774D02*
X8Y774D01*
X213Y774D02*
X222Y774D01*
X913Y774D02*
X922Y774D01*
X1513Y774D02*
X1522Y774D01*
X2213Y774D02*
X2222Y774D01*
X2355Y774D02*
X2362Y774D01*
X1Y773D02*
X8Y773D01*
X213Y773D02*
X222Y773D01*
X913Y773D02*
X922Y773D01*
X1513Y773D02*
X1522Y773D01*
X2213Y773D02*
X2222Y773D01*
X2355Y773D02*
X2362Y773D01*
X1Y772D02*
X8Y772D01*
X213Y772D02*
X222Y772D01*
X913Y772D02*
X922Y772D01*
X1513Y772D02*
X1522Y772D01*
X2213Y772D02*
X2222Y772D01*
X2355Y772D02*
X2362Y772D01*
X1Y771D02*
X8Y771D01*
X213Y771D02*
X222Y771D01*
X913Y771D02*
X922Y771D01*
X1513Y771D02*
X1522Y771D01*
X2213Y771D02*
X2222Y771D01*
X2355Y771D02*
X2362Y771D01*
X1Y770D02*
X8Y770D01*
X213Y770D02*
X222Y770D01*
X913Y770D02*
X922Y770D01*
X1513Y770D02*
X1522Y770D01*
X2213Y770D02*
X2222Y770D01*
X2355Y770D02*
X2362Y770D01*
X1Y769D02*
X8Y769D01*
X213Y769D02*
X222Y769D01*
X913Y769D02*
X922Y769D01*
X1513Y769D02*
X1522Y769D01*
X2213Y769D02*
X2222Y769D01*
X2355Y769D02*
X2362Y769D01*
X1Y768D02*
X8Y768D01*
X213Y768D02*
X222Y768D01*
X913Y768D02*
X922Y768D01*
X1513Y768D02*
X1522Y768D01*
X2213Y768D02*
X2222Y768D01*
X2355Y768D02*
X2362Y768D01*
X1Y767D02*
X8Y767D01*
X213Y767D02*
X222Y767D01*
X913Y767D02*
X922Y767D01*
X1513Y767D02*
X1522Y767D01*
X2213Y767D02*
X2222Y767D01*
X2355Y767D02*
X2362Y767D01*
X1Y766D02*
X8Y766D01*
X213Y766D02*
X222Y766D01*
X913Y766D02*
X922Y766D01*
X1513Y766D02*
X1522Y766D01*
X2213Y766D02*
X2222Y766D01*
X2355Y766D02*
X2362Y766D01*
X1Y765D02*
X8Y765D01*
X213Y765D02*
X222Y765D01*
X913Y765D02*
X922Y765D01*
X1513Y765D02*
X1522Y765D01*
X2213Y765D02*
X2222Y765D01*
X2355Y765D02*
X2362Y765D01*
X1Y764D02*
X8Y764D01*
X213Y764D02*
X222Y764D01*
X913Y764D02*
X922Y764D01*
X1513Y764D02*
X1522Y764D01*
X2213Y764D02*
X2222Y764D01*
X2355Y764D02*
X2362Y764D01*
X1Y763D02*
X8Y763D01*
X213Y763D02*
X222Y763D01*
X913Y763D02*
X922Y763D01*
X1513Y763D02*
X1522Y763D01*
X2213Y763D02*
X2222Y763D01*
X2355Y763D02*
X2362Y763D01*
X1Y762D02*
X8Y762D01*
X213Y762D02*
X222Y762D01*
X913Y762D02*
X922Y762D01*
X1513Y762D02*
X1522Y762D01*
X2213Y762D02*
X2222Y762D01*
X2355Y762D02*
X2362Y762D01*
X1Y761D02*
X8Y761D01*
X213Y761D02*
X222Y761D01*
X913Y761D02*
X922Y761D01*
X1513Y761D02*
X1522Y761D01*
X2213Y761D02*
X2222Y761D01*
X2355Y761D02*
X2362Y761D01*
X1Y760D02*
X8Y760D01*
X213Y760D02*
X222Y760D01*
X913Y760D02*
X922Y760D01*
X1513Y760D02*
X1522Y760D01*
X2213Y760D02*
X2222Y760D01*
X2355Y760D02*
X2362Y760D01*
X1Y759D02*
X8Y759D01*
X213Y759D02*
X222Y759D01*
X913Y759D02*
X922Y759D01*
X1513Y759D02*
X1522Y759D01*
X2213Y759D02*
X2222Y759D01*
X2355Y759D02*
X2362Y759D01*
X1Y758D02*
X8Y758D01*
X213Y758D02*
X222Y758D01*
X913Y758D02*
X922Y758D01*
X1513Y758D02*
X1522Y758D01*
X2213Y758D02*
X2222Y758D01*
X2355Y758D02*
X2362Y758D01*
X1Y757D02*
X8Y757D01*
X213Y757D02*
X222Y757D01*
X913Y757D02*
X922Y757D01*
X1513Y757D02*
X1522Y757D01*
X2213Y757D02*
X2222Y757D01*
X2355Y757D02*
X2362Y757D01*
X1Y756D02*
X8Y756D01*
X213Y756D02*
X222Y756D01*
X913Y756D02*
X922Y756D01*
X1513Y756D02*
X1522Y756D01*
X2213Y756D02*
X2222Y756D01*
X2355Y756D02*
X2362Y756D01*
X1Y755D02*
X8Y755D01*
X213Y755D02*
X222Y755D01*
X913Y755D02*
X922Y755D01*
X1513Y755D02*
X1522Y755D01*
X2213Y755D02*
X2222Y755D01*
X2355Y755D02*
X2362Y755D01*
X1Y754D02*
X8Y754D01*
X213Y754D02*
X222Y754D01*
X913Y754D02*
X922Y754D01*
X1513Y754D02*
X1522Y754D01*
X2213Y754D02*
X2222Y754D01*
X2355Y754D02*
X2362Y754D01*
X1Y753D02*
X8Y753D01*
X213Y753D02*
X222Y753D01*
X913Y753D02*
X922Y753D01*
X1513Y753D02*
X1522Y753D01*
X2213Y753D02*
X2222Y753D01*
X2355Y753D02*
X2362Y753D01*
X1Y752D02*
X8Y752D01*
X213Y752D02*
X222Y752D01*
X913Y752D02*
X922Y752D01*
X1513Y752D02*
X1522Y752D01*
X2213Y752D02*
X2222Y752D01*
X2355Y752D02*
X2362Y752D01*
X1Y751D02*
X8Y751D01*
X213Y751D02*
X222Y751D01*
X913Y751D02*
X922Y751D01*
X1513Y751D02*
X1522Y751D01*
X2213Y751D02*
X2222Y751D01*
X2355Y751D02*
X2362Y751D01*
X1Y750D02*
X8Y750D01*
X213Y750D02*
X222Y750D01*
X913Y750D02*
X922Y750D01*
X1513Y750D02*
X1522Y750D01*
X2213Y750D02*
X2222Y750D01*
X2355Y750D02*
X2362Y750D01*
X1Y749D02*
X8Y749D01*
X213Y749D02*
X222Y749D01*
X913Y749D02*
X922Y749D01*
X1513Y749D02*
X1522Y749D01*
X2213Y749D02*
X2222Y749D01*
X2355Y749D02*
X2362Y749D01*
X1Y748D02*
X8Y748D01*
X213Y748D02*
X222Y748D01*
X913Y748D02*
X922Y748D01*
X1513Y748D02*
X1522Y748D01*
X2213Y748D02*
X2222Y748D01*
X2355Y748D02*
X2362Y748D01*
X1Y747D02*
X8Y747D01*
X213Y747D02*
X222Y747D01*
X913Y747D02*
X922Y747D01*
X1513Y747D02*
X1522Y747D01*
X2213Y747D02*
X2222Y747D01*
X2355Y747D02*
X2362Y747D01*
X1Y746D02*
X8Y746D01*
X213Y746D02*
X222Y746D01*
X913Y746D02*
X922Y746D01*
X1513Y746D02*
X1522Y746D01*
X2213Y746D02*
X2222Y746D01*
X2355Y746D02*
X2362Y746D01*
X1Y745D02*
X8Y745D01*
X213Y745D02*
X222Y745D01*
X913Y745D02*
X922Y745D01*
X1513Y745D02*
X1522Y745D01*
X2213Y745D02*
X2222Y745D01*
X2355Y745D02*
X2362Y745D01*
X1Y744D02*
X8Y744D01*
X213Y744D02*
X222Y744D01*
X913Y744D02*
X922Y744D01*
X1513Y744D02*
X1522Y744D01*
X2213Y744D02*
X2222Y744D01*
X2355Y744D02*
X2362Y744D01*
X1Y743D02*
X8Y743D01*
X213Y743D02*
X222Y743D01*
X913Y743D02*
X922Y743D01*
X1513Y743D02*
X1522Y743D01*
X2213Y743D02*
X2222Y743D01*
X2355Y743D02*
X2362Y743D01*
X1Y742D02*
X8Y742D01*
X213Y742D02*
X222Y742D01*
X913Y742D02*
X922Y742D01*
X1513Y742D02*
X1522Y742D01*
X2213Y742D02*
X2222Y742D01*
X2355Y742D02*
X2362Y742D01*
X1Y741D02*
X8Y741D01*
X213Y741D02*
X222Y741D01*
X913Y741D02*
X922Y741D01*
X1513Y741D02*
X1522Y741D01*
X2213Y741D02*
X2222Y741D01*
X2355Y741D02*
X2362Y741D01*
X1Y740D02*
X8Y740D01*
X213Y740D02*
X222Y740D01*
X913Y740D02*
X922Y740D01*
X1513Y740D02*
X1522Y740D01*
X2213Y740D02*
X2222Y740D01*
X2355Y740D02*
X2362Y740D01*
X1Y739D02*
X8Y739D01*
X213Y739D02*
X222Y739D01*
X913Y739D02*
X922Y739D01*
X1513Y739D02*
X1522Y739D01*
X2213Y739D02*
X2222Y739D01*
X2355Y739D02*
X2362Y739D01*
X1Y738D02*
X8Y738D01*
X213Y738D02*
X222Y738D01*
X913Y738D02*
X922Y738D01*
X1513Y738D02*
X1522Y738D01*
X2213Y738D02*
X2222Y738D01*
X2355Y738D02*
X2362Y738D01*
X1Y737D02*
X8Y737D01*
X213Y737D02*
X222Y737D01*
X913Y737D02*
X922Y737D01*
X1513Y737D02*
X1522Y737D01*
X2213Y737D02*
X2222Y737D01*
X2355Y737D02*
X2362Y737D01*
X1Y736D02*
X8Y736D01*
X213Y736D02*
X222Y736D01*
X913Y736D02*
X922Y736D01*
X1513Y736D02*
X1522Y736D01*
X2213Y736D02*
X2222Y736D01*
X2355Y736D02*
X2362Y736D01*
X1Y735D02*
X8Y735D01*
X213Y735D02*
X222Y735D01*
X913Y735D02*
X922Y735D01*
X1513Y735D02*
X1522Y735D01*
X2213Y735D02*
X2222Y735D01*
X2355Y735D02*
X2362Y735D01*
X1Y734D02*
X8Y734D01*
X213Y734D02*
X222Y734D01*
X913Y734D02*
X922Y734D01*
X1513Y734D02*
X1522Y734D01*
X2213Y734D02*
X2222Y734D01*
X2355Y734D02*
X2362Y734D01*
X1Y733D02*
X8Y733D01*
X213Y733D02*
X222Y733D01*
X913Y733D02*
X922Y733D01*
X1513Y733D02*
X1522Y733D01*
X2213Y733D02*
X2222Y733D01*
X2355Y733D02*
X2362Y733D01*
X1Y732D02*
X8Y732D01*
X213Y732D02*
X222Y732D01*
X913Y732D02*
X922Y732D01*
X1513Y732D02*
X1522Y732D01*
X2213Y732D02*
X2222Y732D01*
X2355Y732D02*
X2362Y732D01*
X1Y731D02*
X8Y731D01*
X213Y731D02*
X222Y731D01*
X913Y731D02*
X922Y731D01*
X1513Y731D02*
X1522Y731D01*
X2213Y731D02*
X2222Y731D01*
X2355Y731D02*
X2362Y731D01*
X1Y730D02*
X8Y730D01*
X213Y730D02*
X222Y730D01*
X913Y730D02*
X922Y730D01*
X1513Y730D02*
X1522Y730D01*
X2213Y730D02*
X2222Y730D01*
X2355Y730D02*
X2362Y730D01*
X1Y729D02*
X8Y729D01*
X213Y729D02*
X222Y729D01*
X913Y729D02*
X922Y729D01*
X1513Y729D02*
X1522Y729D01*
X2213Y729D02*
X2222Y729D01*
X2355Y729D02*
X2362Y729D01*
X1Y728D02*
X8Y728D01*
X213Y728D02*
X222Y728D01*
X913Y728D02*
X922Y728D01*
X1513Y728D02*
X1522Y728D01*
X2213Y728D02*
X2222Y728D01*
X2355Y728D02*
X2362Y728D01*
X1Y727D02*
X8Y727D01*
X213Y727D02*
X222Y727D01*
X913Y727D02*
X922Y727D01*
X1513Y727D02*
X1522Y727D01*
X2213Y727D02*
X2222Y727D01*
X2355Y727D02*
X2362Y727D01*
X1Y726D02*
X8Y726D01*
X213Y726D02*
X222Y726D01*
X913Y726D02*
X922Y726D01*
X1513Y726D02*
X1522Y726D01*
X2213Y726D02*
X2222Y726D01*
X2355Y726D02*
X2362Y726D01*
X1Y725D02*
X8Y725D01*
X213Y725D02*
X222Y725D01*
X913Y725D02*
X922Y725D01*
X1513Y725D02*
X1522Y725D01*
X2213Y725D02*
X2222Y725D01*
X2355Y725D02*
X2362Y725D01*
X1Y724D02*
X8Y724D01*
X213Y724D02*
X222Y724D01*
X913Y724D02*
X922Y724D01*
X1513Y724D02*
X1522Y724D01*
X2213Y724D02*
X2222Y724D01*
X2355Y724D02*
X2362Y724D01*
X1Y723D02*
X8Y723D01*
X213Y723D02*
X222Y723D01*
X913Y723D02*
X922Y723D01*
X1513Y723D02*
X1522Y723D01*
X2213Y723D02*
X2222Y723D01*
X2355Y723D02*
X2362Y723D01*
X1Y722D02*
X8Y722D01*
X213Y722D02*
X222Y722D01*
X913Y722D02*
X922Y722D01*
X1513Y722D02*
X1522Y722D01*
X2213Y722D02*
X2222Y722D01*
X2355Y722D02*
X2362Y722D01*
X1Y721D02*
X8Y721D01*
X213Y721D02*
X222Y721D01*
X913Y721D02*
X922Y721D01*
X1513Y721D02*
X1522Y721D01*
X2213Y721D02*
X2222Y721D01*
X2355Y721D02*
X2362Y721D01*
X1Y720D02*
X8Y720D01*
X213Y720D02*
X222Y720D01*
X913Y720D02*
X922Y720D01*
X1513Y720D02*
X1522Y720D01*
X2213Y720D02*
X2222Y720D01*
X2355Y720D02*
X2362Y720D01*
X1Y719D02*
X8Y719D01*
X213Y719D02*
X222Y719D01*
X913Y719D02*
X922Y719D01*
X1513Y719D02*
X1522Y719D01*
X2213Y719D02*
X2222Y719D01*
X2355Y719D02*
X2362Y719D01*
X1Y718D02*
X8Y718D01*
X213Y718D02*
X222Y718D01*
X913Y718D02*
X922Y718D01*
X1513Y718D02*
X1522Y718D01*
X2213Y718D02*
X2222Y718D01*
X2355Y718D02*
X2362Y718D01*
X1Y717D02*
X8Y717D01*
X213Y717D02*
X222Y717D01*
X913Y717D02*
X922Y717D01*
X1513Y717D02*
X1522Y717D01*
X2213Y717D02*
X2222Y717D01*
X2355Y717D02*
X2362Y717D01*
X1Y716D02*
X8Y716D01*
X213Y716D02*
X222Y716D01*
X913Y716D02*
X922Y716D01*
X1513Y716D02*
X1522Y716D01*
X2213Y716D02*
X2222Y716D01*
X2355Y716D02*
X2362Y716D01*
X1Y715D02*
X8Y715D01*
X213Y715D02*
X222Y715D01*
X913Y715D02*
X922Y715D01*
X1513Y715D02*
X1522Y715D01*
X2213Y715D02*
X2222Y715D01*
X2355Y715D02*
X2362Y715D01*
X1Y714D02*
X8Y714D01*
X213Y714D02*
X222Y714D01*
X913Y714D02*
X922Y714D01*
X1513Y714D02*
X1522Y714D01*
X2213Y714D02*
X2222Y714D01*
X2355Y714D02*
X2362Y714D01*
X1Y713D02*
X8Y713D01*
X213Y713D02*
X222Y713D01*
X913Y713D02*
X922Y713D01*
X1513Y713D02*
X1522Y713D01*
X2213Y713D02*
X2222Y713D01*
X2355Y713D02*
X2362Y713D01*
X1Y712D02*
X8Y712D01*
X213Y712D02*
X222Y712D01*
X913Y712D02*
X922Y712D01*
X1513Y712D02*
X1522Y712D01*
X2213Y712D02*
X2222Y712D01*
X2355Y712D02*
X2362Y712D01*
X1Y711D02*
X8Y711D01*
X213Y711D02*
X222Y711D01*
X913Y711D02*
X922Y711D01*
X1513Y711D02*
X1522Y711D01*
X2213Y711D02*
X2222Y711D01*
X2355Y711D02*
X2362Y711D01*
X1Y710D02*
X8Y710D01*
X213Y710D02*
X222Y710D01*
X913Y710D02*
X922Y710D01*
X1513Y710D02*
X1522Y710D01*
X2213Y710D02*
X2222Y710D01*
X2355Y710D02*
X2362Y710D01*
X1Y709D02*
X8Y709D01*
X213Y709D02*
X222Y709D01*
X913Y709D02*
X922Y709D01*
X1513Y709D02*
X1522Y709D01*
X2213Y709D02*
X2222Y709D01*
X2355Y709D02*
X2362Y709D01*
X1Y708D02*
X8Y708D01*
X213Y708D02*
X222Y708D01*
X913Y708D02*
X922Y708D01*
X1513Y708D02*
X1522Y708D01*
X2213Y708D02*
X2222Y708D01*
X2355Y708D02*
X2362Y708D01*
X1Y707D02*
X8Y707D01*
X213Y707D02*
X222Y707D01*
X913Y707D02*
X922Y707D01*
X1513Y707D02*
X1522Y707D01*
X2213Y707D02*
X2222Y707D01*
X2355Y707D02*
X2362Y707D01*
X1Y706D02*
X8Y706D01*
X213Y706D02*
X222Y706D01*
X913Y706D02*
X922Y706D01*
X1513Y706D02*
X1522Y706D01*
X2213Y706D02*
X2222Y706D01*
X2355Y706D02*
X2362Y706D01*
X1Y705D02*
X8Y705D01*
X213Y705D02*
X222Y705D01*
X913Y705D02*
X922Y705D01*
X1513Y705D02*
X1522Y705D01*
X2213Y705D02*
X2222Y705D01*
X2355Y705D02*
X2362Y705D01*
X1Y704D02*
X8Y704D01*
X213Y704D02*
X222Y704D01*
X913Y704D02*
X922Y704D01*
X1513Y704D02*
X1522Y704D01*
X2213Y704D02*
X2222Y704D01*
X2355Y704D02*
X2362Y704D01*
X1Y703D02*
X8Y703D01*
X213Y703D02*
X222Y703D01*
X913Y703D02*
X922Y703D01*
X1513Y703D02*
X1522Y703D01*
X2213Y703D02*
X2222Y703D01*
X2355Y703D02*
X2362Y703D01*
X1Y702D02*
X8Y702D01*
X213Y702D02*
X222Y702D01*
X913Y702D02*
X922Y702D01*
X1513Y702D02*
X1522Y702D01*
X2213Y702D02*
X2222Y702D01*
X2355Y702D02*
X2362Y702D01*
X1Y701D02*
X8Y701D01*
X213Y701D02*
X222Y701D01*
X913Y701D02*
X922Y701D01*
X1513Y701D02*
X1522Y701D01*
X2213Y701D02*
X2222Y701D01*
X2355Y701D02*
X2362Y701D01*
X1Y700D02*
X8Y700D01*
X213Y700D02*
X222Y700D01*
X913Y700D02*
X922Y700D01*
X1513Y700D02*
X1522Y700D01*
X2213Y700D02*
X2222Y700D01*
X2355Y700D02*
X2362Y700D01*
X1Y699D02*
X8Y699D01*
X213Y699D02*
X222Y699D01*
X913Y699D02*
X922Y699D01*
X1513Y699D02*
X1522Y699D01*
X2213Y699D02*
X2222Y699D01*
X2355Y699D02*
X2362Y699D01*
X1Y698D02*
X8Y698D01*
X213Y698D02*
X222Y698D01*
X913Y698D02*
X922Y698D01*
X1513Y698D02*
X1522Y698D01*
X2213Y698D02*
X2222Y698D01*
X2355Y698D02*
X2362Y698D01*
X1Y697D02*
X8Y697D01*
X213Y697D02*
X222Y697D01*
X913Y697D02*
X922Y697D01*
X1513Y697D02*
X1522Y697D01*
X2213Y697D02*
X2222Y697D01*
X2355Y697D02*
X2362Y697D01*
X1Y696D02*
X8Y696D01*
X213Y696D02*
X222Y696D01*
X913Y696D02*
X922Y696D01*
X1513Y696D02*
X1522Y696D01*
X2213Y696D02*
X2222Y696D01*
X2355Y696D02*
X2362Y696D01*
X1Y695D02*
X8Y695D01*
X213Y695D02*
X222Y695D01*
X913Y695D02*
X922Y695D01*
X1513Y695D02*
X1522Y695D01*
X2213Y695D02*
X2222Y695D01*
X2355Y695D02*
X2362Y695D01*
X1Y694D02*
X8Y694D01*
X213Y694D02*
X222Y694D01*
X913Y694D02*
X922Y694D01*
X1513Y694D02*
X1522Y694D01*
X2213Y694D02*
X2222Y694D01*
X2355Y694D02*
X2362Y694D01*
X1Y693D02*
X8Y693D01*
X213Y693D02*
X222Y693D01*
X913Y693D02*
X922Y693D01*
X1513Y693D02*
X1522Y693D01*
X2213Y693D02*
X2222Y693D01*
X2355Y693D02*
X2362Y693D01*
X1Y692D02*
X8Y692D01*
X213Y692D02*
X222Y692D01*
X913Y692D02*
X922Y692D01*
X1513Y692D02*
X1522Y692D01*
X2213Y692D02*
X2222Y692D01*
X2355Y692D02*
X2362Y692D01*
X1Y691D02*
X8Y691D01*
X213Y691D02*
X222Y691D01*
X913Y691D02*
X922Y691D01*
X1513Y691D02*
X1522Y691D01*
X2213Y691D02*
X2222Y691D01*
X2355Y691D02*
X2362Y691D01*
X1Y690D02*
X8Y690D01*
X213Y690D02*
X222Y690D01*
X913Y690D02*
X922Y690D01*
X1513Y690D02*
X1522Y690D01*
X2213Y690D02*
X2222Y690D01*
X2355Y690D02*
X2362Y690D01*
X1Y689D02*
X8Y689D01*
X213Y689D02*
X222Y689D01*
X913Y689D02*
X922Y689D01*
X1513Y689D02*
X1522Y689D01*
X2213Y689D02*
X2222Y689D01*
X2355Y689D02*
X2362Y689D01*
X1Y688D02*
X8Y688D01*
X213Y688D02*
X222Y688D01*
X913Y688D02*
X922Y688D01*
X1513Y688D02*
X1522Y688D01*
X2213Y688D02*
X2222Y688D01*
X2355Y688D02*
X2362Y688D01*
X1Y687D02*
X8Y687D01*
X213Y687D02*
X222Y687D01*
X913Y687D02*
X922Y687D01*
X1513Y687D02*
X1522Y687D01*
X2213Y687D02*
X2222Y687D01*
X2355Y687D02*
X2362Y687D01*
X1Y686D02*
X8Y686D01*
X213Y686D02*
X222Y686D01*
X913Y686D02*
X922Y686D01*
X1513Y686D02*
X1522Y686D01*
X2213Y686D02*
X2222Y686D01*
X2355Y686D02*
X2362Y686D01*
X1Y685D02*
X8Y685D01*
X213Y685D02*
X222Y685D01*
X913Y685D02*
X922Y685D01*
X1513Y685D02*
X1522Y685D01*
X2213Y685D02*
X2222Y685D01*
X2355Y685D02*
X2362Y685D01*
X1Y684D02*
X8Y684D01*
X213Y684D02*
X222Y684D01*
X913Y684D02*
X922Y684D01*
X1513Y684D02*
X1522Y684D01*
X2213Y684D02*
X2222Y684D01*
X2355Y684D02*
X2362Y684D01*
X1Y683D02*
X8Y683D01*
X213Y683D02*
X222Y683D01*
X913Y683D02*
X922Y683D01*
X1513Y683D02*
X1522Y683D01*
X2213Y683D02*
X2222Y683D01*
X2355Y683D02*
X2362Y683D01*
X1Y682D02*
X8Y682D01*
X213Y682D02*
X222Y682D01*
X913Y682D02*
X922Y682D01*
X1513Y682D02*
X1522Y682D01*
X2213Y682D02*
X2222Y682D01*
X2355Y682D02*
X2362Y682D01*
X1Y681D02*
X8Y681D01*
X213Y681D02*
X222Y681D01*
X913Y681D02*
X922Y681D01*
X1513Y681D02*
X1522Y681D01*
X2213Y681D02*
X2222Y681D01*
X2355Y681D02*
X2362Y681D01*
X1Y680D02*
X8Y680D01*
X213Y680D02*
X222Y680D01*
X913Y680D02*
X922Y680D01*
X1513Y680D02*
X1522Y680D01*
X2213Y680D02*
X2222Y680D01*
X2355Y680D02*
X2362Y680D01*
X1Y679D02*
X8Y679D01*
X213Y679D02*
X222Y679D01*
X913Y679D02*
X922Y679D01*
X1513Y679D02*
X1522Y679D01*
X2213Y679D02*
X2222Y679D01*
X2355Y679D02*
X2362Y679D01*
X1Y678D02*
X8Y678D01*
X213Y678D02*
X222Y678D01*
X913Y678D02*
X922Y678D01*
X1513Y678D02*
X1522Y678D01*
X2213Y678D02*
X2222Y678D01*
X2355Y678D02*
X2362Y678D01*
X1Y677D02*
X8Y677D01*
X213Y677D02*
X222Y677D01*
X913Y677D02*
X922Y677D01*
X1513Y677D02*
X1522Y677D01*
X2213Y677D02*
X2222Y677D01*
X2355Y677D02*
X2362Y677D01*
X1Y676D02*
X8Y676D01*
X213Y676D02*
X222Y676D01*
X913Y676D02*
X922Y676D01*
X1513Y676D02*
X1522Y676D01*
X2213Y676D02*
X2222Y676D01*
X2355Y676D02*
X2362Y676D01*
X1Y675D02*
X8Y675D01*
X213Y675D02*
X222Y675D01*
X913Y675D02*
X922Y675D01*
X1513Y675D02*
X1522Y675D01*
X2213Y675D02*
X2222Y675D01*
X2355Y675D02*
X2362Y675D01*
X1Y674D02*
X8Y674D01*
X213Y674D02*
X222Y674D01*
X913Y674D02*
X922Y674D01*
X1513Y674D02*
X1522Y674D01*
X2213Y674D02*
X2222Y674D01*
X2355Y674D02*
X2362Y674D01*
X1Y673D02*
X8Y673D01*
X213Y673D02*
X222Y673D01*
X913Y673D02*
X922Y673D01*
X1513Y673D02*
X1522Y673D01*
X2213Y673D02*
X2222Y673D01*
X2355Y673D02*
X2362Y673D01*
X1Y672D02*
X8Y672D01*
X213Y672D02*
X222Y672D01*
X913Y672D02*
X922Y672D01*
X1513Y672D02*
X1522Y672D01*
X2213Y672D02*
X2222Y672D01*
X2355Y672D02*
X2362Y672D01*
X1Y671D02*
X8Y671D01*
X213Y671D02*
X222Y671D01*
X913Y671D02*
X922Y671D01*
X1513Y671D02*
X1522Y671D01*
X2213Y671D02*
X2222Y671D01*
X2355Y671D02*
X2362Y671D01*
X1Y670D02*
X8Y670D01*
X213Y670D02*
X222Y670D01*
X913Y670D02*
X922Y670D01*
X1513Y670D02*
X1522Y670D01*
X2213Y670D02*
X2222Y670D01*
X2355Y670D02*
X2362Y670D01*
X1Y669D02*
X8Y669D01*
X213Y669D02*
X222Y669D01*
X913Y669D02*
X922Y669D01*
X1513Y669D02*
X1522Y669D01*
X2213Y669D02*
X2222Y669D01*
X2355Y669D02*
X2362Y669D01*
X1Y668D02*
X8Y668D01*
X213Y668D02*
X222Y668D01*
X913Y668D02*
X922Y668D01*
X1513Y668D02*
X1522Y668D01*
X2213Y668D02*
X2222Y668D01*
X2355Y668D02*
X2362Y668D01*
X1Y667D02*
X8Y667D01*
X213Y667D02*
X222Y667D01*
X913Y667D02*
X922Y667D01*
X1513Y667D02*
X1522Y667D01*
X2213Y667D02*
X2222Y667D01*
X2355Y667D02*
X2362Y667D01*
X1Y666D02*
X8Y666D01*
X213Y666D02*
X222Y666D01*
X913Y666D02*
X922Y666D01*
X1513Y666D02*
X1522Y666D01*
X2213Y666D02*
X2222Y666D01*
X2355Y666D02*
X2362Y666D01*
X1Y665D02*
X8Y665D01*
X213Y665D02*
X222Y665D01*
X913Y665D02*
X922Y665D01*
X1513Y665D02*
X1522Y665D01*
X2213Y665D02*
X2222Y665D01*
X2355Y665D02*
X2362Y665D01*
X1Y664D02*
X8Y664D01*
X213Y664D02*
X222Y664D01*
X913Y664D02*
X922Y664D01*
X1513Y664D02*
X1522Y664D01*
X2213Y664D02*
X2222Y664D01*
X2355Y664D02*
X2362Y664D01*
X1Y663D02*
X8Y663D01*
X213Y663D02*
X222Y663D01*
X913Y663D02*
X922Y663D01*
X1513Y663D02*
X1522Y663D01*
X2213Y663D02*
X2222Y663D01*
X2355Y663D02*
X2362Y663D01*
X1Y662D02*
X8Y662D01*
X213Y662D02*
X222Y662D01*
X913Y662D02*
X922Y662D01*
X1513Y662D02*
X1522Y662D01*
X2213Y662D02*
X2222Y662D01*
X2355Y662D02*
X2362Y662D01*
X1Y661D02*
X8Y661D01*
X213Y661D02*
X222Y661D01*
X913Y661D02*
X922Y661D01*
X1513Y661D02*
X1522Y661D01*
X2213Y661D02*
X2222Y661D01*
X2355Y661D02*
X2362Y661D01*
X1Y660D02*
X8Y660D01*
X213Y660D02*
X222Y660D01*
X913Y660D02*
X922Y660D01*
X1513Y660D02*
X1522Y660D01*
X2213Y660D02*
X2222Y660D01*
X2355Y660D02*
X2362Y660D01*
X1Y659D02*
X8Y659D01*
X213Y659D02*
X222Y659D01*
X913Y659D02*
X922Y659D01*
X1513Y659D02*
X1522Y659D01*
X2213Y659D02*
X2222Y659D01*
X2355Y659D02*
X2362Y659D01*
X1Y658D02*
X8Y658D01*
X213Y658D02*
X222Y658D01*
X913Y658D02*
X922Y658D01*
X1513Y658D02*
X1522Y658D01*
X2213Y658D02*
X2222Y658D01*
X2355Y658D02*
X2362Y658D01*
X1Y657D02*
X8Y657D01*
X213Y657D02*
X222Y657D01*
X913Y657D02*
X922Y657D01*
X1513Y657D02*
X1522Y657D01*
X2213Y657D02*
X2222Y657D01*
X2355Y657D02*
X2362Y657D01*
X1Y656D02*
X8Y656D01*
X213Y656D02*
X222Y656D01*
X913Y656D02*
X922Y656D01*
X1513Y656D02*
X1522Y656D01*
X2213Y656D02*
X2222Y656D01*
X2355Y656D02*
X2362Y656D01*
X1Y655D02*
X8Y655D01*
X213Y655D02*
X222Y655D01*
X913Y655D02*
X922Y655D01*
X1513Y655D02*
X1522Y655D01*
X2213Y655D02*
X2222Y655D01*
X2355Y655D02*
X2362Y655D01*
X1Y654D02*
X8Y654D01*
X213Y654D02*
X222Y654D01*
X913Y654D02*
X922Y654D01*
X1513Y654D02*
X1522Y654D01*
X2213Y654D02*
X2222Y654D01*
X2355Y654D02*
X2362Y654D01*
X1Y653D02*
X8Y653D01*
X213Y653D02*
X222Y653D01*
X913Y653D02*
X922Y653D01*
X1513Y653D02*
X1522Y653D01*
X2213Y653D02*
X2222Y653D01*
X2355Y653D02*
X2362Y653D01*
X1Y652D02*
X8Y652D01*
X213Y652D02*
X222Y652D01*
X913Y652D02*
X922Y652D01*
X1513Y652D02*
X1522Y652D01*
X2213Y652D02*
X2222Y652D01*
X2355Y652D02*
X2362Y652D01*
X1Y651D02*
X8Y651D01*
X213Y651D02*
X222Y651D01*
X913Y651D02*
X922Y651D01*
X1513Y651D02*
X1522Y651D01*
X2213Y651D02*
X2222Y651D01*
X2355Y651D02*
X2362Y651D01*
X1Y650D02*
X8Y650D01*
X213Y650D02*
X222Y650D01*
X913Y650D02*
X922Y650D01*
X1513Y650D02*
X1522Y650D01*
X2213Y650D02*
X2222Y650D01*
X2355Y650D02*
X2362Y650D01*
X1Y649D02*
X8Y649D01*
X213Y649D02*
X222Y649D01*
X913Y649D02*
X922Y649D01*
X1513Y649D02*
X1522Y649D01*
X2213Y649D02*
X2222Y649D01*
X2355Y649D02*
X2362Y649D01*
X1Y648D02*
X8Y648D01*
X213Y648D02*
X222Y648D01*
X913Y648D02*
X922Y648D01*
X1513Y648D02*
X1522Y648D01*
X2213Y648D02*
X2222Y648D01*
X2355Y648D02*
X2362Y648D01*
X1Y647D02*
X8Y647D01*
X213Y647D02*
X222Y647D01*
X913Y647D02*
X922Y647D01*
X1513Y647D02*
X1522Y647D01*
X2213Y647D02*
X2222Y647D01*
X2355Y647D02*
X2362Y647D01*
X1Y646D02*
X8Y646D01*
X213Y646D02*
X222Y646D01*
X913Y646D02*
X922Y646D01*
X1513Y646D02*
X1522Y646D01*
X2213Y646D02*
X2222Y646D01*
X2355Y646D02*
X2362Y646D01*
X1Y645D02*
X8Y645D01*
X213Y645D02*
X222Y645D01*
X913Y645D02*
X922Y645D01*
X1513Y645D02*
X1522Y645D01*
X2213Y645D02*
X2222Y645D01*
X2355Y645D02*
X2362Y645D01*
X1Y644D02*
X8Y644D01*
X213Y644D02*
X222Y644D01*
X913Y644D02*
X922Y644D01*
X1513Y644D02*
X1522Y644D01*
X2213Y644D02*
X2222Y644D01*
X2355Y644D02*
X2362Y644D01*
X1Y643D02*
X8Y643D01*
X213Y643D02*
X222Y643D01*
X913Y643D02*
X922Y643D01*
X1513Y643D02*
X1522Y643D01*
X2213Y643D02*
X2222Y643D01*
X2355Y643D02*
X2362Y643D01*
X1Y642D02*
X8Y642D01*
X213Y642D02*
X222Y642D01*
X913Y642D02*
X922Y642D01*
X1513Y642D02*
X1522Y642D01*
X2213Y642D02*
X2222Y642D01*
X2355Y642D02*
X2362Y642D01*
X1Y641D02*
X8Y641D01*
X213Y641D02*
X222Y641D01*
X913Y641D02*
X922Y641D01*
X1513Y641D02*
X1522Y641D01*
X2213Y641D02*
X2222Y641D01*
X2355Y641D02*
X2362Y641D01*
X1Y640D02*
X8Y640D01*
X213Y640D02*
X222Y640D01*
X913Y640D02*
X922Y640D01*
X1513Y640D02*
X1522Y640D01*
X2213Y640D02*
X2222Y640D01*
X2355Y640D02*
X2362Y640D01*
X1Y639D02*
X8Y639D01*
X213Y639D02*
X222Y639D01*
X913Y639D02*
X922Y639D01*
X1513Y639D02*
X1522Y639D01*
X2213Y639D02*
X2222Y639D01*
X2355Y639D02*
X2362Y639D01*
X1Y638D02*
X8Y638D01*
X213Y638D02*
X222Y638D01*
X913Y638D02*
X922Y638D01*
X1513Y638D02*
X1522Y638D01*
X2213Y638D02*
X2222Y638D01*
X2355Y638D02*
X2362Y638D01*
X1Y637D02*
X8Y637D01*
X213Y637D02*
X222Y637D01*
X913Y637D02*
X922Y637D01*
X1513Y637D02*
X1522Y637D01*
X2213Y637D02*
X2222Y637D01*
X2355Y637D02*
X2362Y637D01*
X1Y636D02*
X8Y636D01*
X213Y636D02*
X222Y636D01*
X913Y636D02*
X922Y636D01*
X1513Y636D02*
X1522Y636D01*
X2213Y636D02*
X2222Y636D01*
X2355Y636D02*
X2362Y636D01*
X1Y635D02*
X8Y635D01*
X213Y635D02*
X222Y635D01*
X913Y635D02*
X922Y635D01*
X1513Y635D02*
X1522Y635D01*
X2213Y635D02*
X2222Y635D01*
X2355Y635D02*
X2362Y635D01*
X1Y634D02*
X8Y634D01*
X213Y634D02*
X222Y634D01*
X913Y634D02*
X922Y634D01*
X1513Y634D02*
X1522Y634D01*
X2213Y634D02*
X2222Y634D01*
X2355Y634D02*
X2362Y634D01*
X1Y633D02*
X8Y633D01*
X213Y633D02*
X222Y633D01*
X913Y633D02*
X922Y633D01*
X1513Y633D02*
X1522Y633D01*
X2213Y633D02*
X2222Y633D01*
X2355Y633D02*
X2362Y633D01*
X1Y632D02*
X8Y632D01*
X213Y632D02*
X222Y632D01*
X913Y632D02*
X922Y632D01*
X1513Y632D02*
X1522Y632D01*
X2213Y632D02*
X2222Y632D01*
X2355Y632D02*
X2362Y632D01*
X1Y631D02*
X8Y631D01*
X213Y631D02*
X222Y631D01*
X913Y631D02*
X922Y631D01*
X1513Y631D02*
X1522Y631D01*
X2213Y631D02*
X2222Y631D01*
X2355Y631D02*
X2362Y631D01*
X1Y630D02*
X8Y630D01*
X213Y630D02*
X222Y630D01*
X913Y630D02*
X922Y630D01*
X1513Y630D02*
X1522Y630D01*
X2213Y630D02*
X2222Y630D01*
X2355Y630D02*
X2362Y630D01*
X1Y629D02*
X8Y629D01*
X213Y629D02*
X222Y629D01*
X913Y629D02*
X922Y629D01*
X1513Y629D02*
X1522Y629D01*
X2213Y629D02*
X2222Y629D01*
X2355Y629D02*
X2362Y629D01*
X1Y628D02*
X8Y628D01*
X213Y628D02*
X222Y628D01*
X913Y628D02*
X922Y628D01*
X1513Y628D02*
X1522Y628D01*
X2213Y628D02*
X2222Y628D01*
X2355Y628D02*
X2362Y628D01*
X1Y627D02*
X8Y627D01*
X213Y627D02*
X222Y627D01*
X913Y627D02*
X922Y627D01*
X1513Y627D02*
X1522Y627D01*
X2213Y627D02*
X2222Y627D01*
X2355Y627D02*
X2362Y627D01*
X1Y626D02*
X8Y626D01*
X213Y626D02*
X222Y626D01*
X913Y626D02*
X922Y626D01*
X1513Y626D02*
X1522Y626D01*
X2213Y626D02*
X2222Y626D01*
X2355Y626D02*
X2362Y626D01*
X1Y625D02*
X8Y625D01*
X213Y625D02*
X222Y625D01*
X913Y625D02*
X922Y625D01*
X1513Y625D02*
X1522Y625D01*
X2213Y625D02*
X2222Y625D01*
X2355Y625D02*
X2362Y625D01*
X1Y624D02*
X8Y624D01*
X213Y624D02*
X222Y624D01*
X913Y624D02*
X922Y624D01*
X1513Y624D02*
X1522Y624D01*
X2213Y624D02*
X2222Y624D01*
X2355Y624D02*
X2362Y624D01*
X1Y623D02*
X8Y623D01*
X213Y623D02*
X222Y623D01*
X913Y623D02*
X922Y623D01*
X1513Y623D02*
X1522Y623D01*
X2213Y623D02*
X2222Y623D01*
X2355Y623D02*
X2362Y623D01*
X1Y622D02*
X8Y622D01*
X213Y622D02*
X222Y622D01*
X913Y622D02*
X922Y622D01*
X1513Y622D02*
X1522Y622D01*
X2213Y622D02*
X2222Y622D01*
X2355Y622D02*
X2362Y622D01*
X1Y621D02*
X8Y621D01*
X213Y621D02*
X222Y621D01*
X913Y621D02*
X922Y621D01*
X1513Y621D02*
X1522Y621D01*
X2213Y621D02*
X2222Y621D01*
X2355Y621D02*
X2362Y621D01*
X1Y620D02*
X8Y620D01*
X213Y620D02*
X222Y620D01*
X913Y620D02*
X922Y620D01*
X1513Y620D02*
X1522Y620D01*
X2213Y620D02*
X2222Y620D01*
X2355Y620D02*
X2362Y620D01*
X1Y619D02*
X8Y619D01*
X213Y619D02*
X222Y619D01*
X913Y619D02*
X922Y619D01*
X1513Y619D02*
X1522Y619D01*
X2213Y619D02*
X2222Y619D01*
X2355Y619D02*
X2362Y619D01*
X1Y618D02*
X8Y618D01*
X213Y618D02*
X222Y618D01*
X913Y618D02*
X922Y618D01*
X1513Y618D02*
X1522Y618D01*
X2213Y618D02*
X2222Y618D01*
X2355Y618D02*
X2362Y618D01*
X1Y617D02*
X8Y617D01*
X213Y617D02*
X222Y617D01*
X913Y617D02*
X922Y617D01*
X1513Y617D02*
X1522Y617D01*
X2213Y617D02*
X2222Y617D01*
X2355Y617D02*
X2362Y617D01*
X1Y616D02*
X8Y616D01*
X213Y616D02*
X222Y616D01*
X913Y616D02*
X922Y616D01*
X1513Y616D02*
X1522Y616D01*
X2213Y616D02*
X2222Y616D01*
X2355Y616D02*
X2362Y616D01*
X1Y615D02*
X8Y615D01*
X213Y615D02*
X222Y615D01*
X913Y615D02*
X922Y615D01*
X1513Y615D02*
X1522Y615D01*
X2213Y615D02*
X2222Y615D01*
X2355Y615D02*
X2362Y615D01*
X1Y614D02*
X8Y614D01*
X213Y614D02*
X222Y614D01*
X913Y614D02*
X922Y614D01*
X1513Y614D02*
X1522Y614D01*
X2213Y614D02*
X2222Y614D01*
X2355Y614D02*
X2362Y614D01*
X1Y613D02*
X8Y613D01*
X213Y613D02*
X222Y613D01*
X913Y613D02*
X922Y613D01*
X1513Y613D02*
X1522Y613D01*
X2213Y613D02*
X2222Y613D01*
X2355Y613D02*
X2362Y613D01*
X1Y612D02*
X8Y612D01*
X213Y612D02*
X222Y612D01*
X913Y612D02*
X922Y612D01*
X1513Y612D02*
X1522Y612D01*
X2213Y612D02*
X2222Y612D01*
X2355Y612D02*
X2362Y612D01*
X1Y611D02*
X8Y611D01*
X213Y611D02*
X222Y611D01*
X913Y611D02*
X922Y611D01*
X1513Y611D02*
X1522Y611D01*
X2213Y611D02*
X2222Y611D01*
X2355Y611D02*
X2362Y611D01*
X1Y610D02*
X8Y610D01*
X213Y610D02*
X222Y610D01*
X913Y610D02*
X922Y610D01*
X1513Y610D02*
X1522Y610D01*
X2213Y610D02*
X2222Y610D01*
X2355Y610D02*
X2362Y610D01*
X1Y609D02*
X8Y609D01*
X213Y609D02*
X222Y609D01*
X913Y609D02*
X922Y609D01*
X1513Y609D02*
X1522Y609D01*
X2213Y609D02*
X2222Y609D01*
X2355Y609D02*
X2362Y609D01*
X1Y608D02*
X8Y608D01*
X213Y608D02*
X222Y608D01*
X913Y608D02*
X922Y608D01*
X1513Y608D02*
X1522Y608D01*
X2213Y608D02*
X2222Y608D01*
X2355Y608D02*
X2362Y608D01*
X1Y607D02*
X8Y607D01*
X213Y607D02*
X222Y607D01*
X913Y607D02*
X922Y607D01*
X1513Y607D02*
X1522Y607D01*
X2213Y607D02*
X2222Y607D01*
X2355Y607D02*
X2362Y607D01*
X1Y606D02*
X8Y606D01*
X213Y606D02*
X222Y606D01*
X913Y606D02*
X922Y606D01*
X1513Y606D02*
X1522Y606D01*
X2213Y606D02*
X2222Y606D01*
X2355Y606D02*
X2362Y606D01*
X1Y605D02*
X8Y605D01*
X213Y605D02*
X222Y605D01*
X913Y605D02*
X922Y605D01*
X1513Y605D02*
X1522Y605D01*
X2213Y605D02*
X2222Y605D01*
X2355Y605D02*
X2362Y605D01*
X1Y604D02*
X8Y604D01*
X213Y604D02*
X222Y604D01*
X913Y604D02*
X922Y604D01*
X1513Y604D02*
X1522Y604D01*
X2213Y604D02*
X2222Y604D01*
X2355Y604D02*
X2362Y604D01*
X1Y603D02*
X8Y603D01*
X213Y603D02*
X222Y603D01*
X913Y603D02*
X922Y603D01*
X1513Y603D02*
X1522Y603D01*
X2213Y603D02*
X2222Y603D01*
X2355Y603D02*
X2362Y603D01*
X1Y602D02*
X8Y602D01*
X213Y602D02*
X222Y602D01*
X913Y602D02*
X922Y602D01*
X1513Y602D02*
X1522Y602D01*
X2213Y602D02*
X2222Y602D01*
X2355Y602D02*
X2362Y602D01*
X1Y601D02*
X8Y601D01*
X213Y601D02*
X222Y601D01*
X913Y601D02*
X922Y601D01*
X1513Y601D02*
X1522Y601D01*
X2213Y601D02*
X2222Y601D01*
X2355Y601D02*
X2362Y601D01*
X1Y600D02*
X8Y600D01*
X213Y600D02*
X222Y600D01*
X913Y600D02*
X922Y600D01*
X1513Y600D02*
X1522Y600D01*
X2213Y600D02*
X2222Y600D01*
X2355Y600D02*
X2362Y600D01*
X1Y599D02*
X8Y599D01*
X213Y599D02*
X222Y599D01*
X913Y599D02*
X922Y599D01*
X1513Y599D02*
X1522Y599D01*
X2213Y599D02*
X2222Y599D01*
X2355Y599D02*
X2362Y599D01*
X1Y598D02*
X8Y598D01*
X213Y598D02*
X222Y598D01*
X913Y598D02*
X922Y598D01*
X1513Y598D02*
X1522Y598D01*
X2213Y598D02*
X2222Y598D01*
X2355Y598D02*
X2362Y598D01*
X1Y597D02*
X8Y597D01*
X213Y597D02*
X222Y597D01*
X913Y597D02*
X922Y597D01*
X1513Y597D02*
X1522Y597D01*
X2213Y597D02*
X2222Y597D01*
X2355Y597D02*
X2362Y597D01*
X1Y596D02*
X8Y596D01*
X213Y596D02*
X222Y596D01*
X913Y596D02*
X922Y596D01*
X1513Y596D02*
X1522Y596D01*
X2213Y596D02*
X2222Y596D01*
X2355Y596D02*
X2362Y596D01*
X1Y595D02*
X8Y595D01*
X213Y595D02*
X222Y595D01*
X913Y595D02*
X922Y595D01*
X1513Y595D02*
X1522Y595D01*
X2213Y595D02*
X2222Y595D01*
X2355Y595D02*
X2362Y595D01*
X1Y594D02*
X8Y594D01*
X213Y594D02*
X222Y594D01*
X913Y594D02*
X922Y594D01*
X1513Y594D02*
X1522Y594D01*
X2213Y594D02*
X2222Y594D01*
X2355Y594D02*
X2362Y594D01*
X1Y593D02*
X8Y593D01*
X213Y593D02*
X222Y593D01*
X913Y593D02*
X922Y593D01*
X1513Y593D02*
X1522Y593D01*
X2213Y593D02*
X2222Y593D01*
X2355Y593D02*
X2362Y593D01*
X1Y592D02*
X8Y592D01*
X213Y592D02*
X222Y592D01*
X913Y592D02*
X922Y592D01*
X1513Y592D02*
X1522Y592D01*
X2213Y592D02*
X2222Y592D01*
X2355Y592D02*
X2362Y592D01*
X1Y591D02*
X8Y591D01*
X213Y591D02*
X222Y591D01*
X913Y591D02*
X922Y591D01*
X1513Y591D02*
X1522Y591D01*
X2213Y591D02*
X2222Y591D01*
X2355Y591D02*
X2362Y591D01*
X1Y590D02*
X8Y590D01*
X213Y590D02*
X222Y590D01*
X913Y590D02*
X922Y590D01*
X1513Y590D02*
X1522Y590D01*
X2213Y590D02*
X2222Y590D01*
X2355Y590D02*
X2362Y590D01*
X1Y589D02*
X8Y589D01*
X213Y589D02*
X222Y589D01*
X913Y589D02*
X922Y589D01*
X1513Y589D02*
X1522Y589D01*
X2213Y589D02*
X2222Y589D01*
X2355Y589D02*
X2362Y589D01*
X1Y588D02*
X8Y588D01*
X213Y588D02*
X222Y588D01*
X913Y588D02*
X922Y588D01*
X1513Y588D02*
X1522Y588D01*
X2213Y588D02*
X2222Y588D01*
X2355Y588D02*
X2362Y588D01*
X1Y587D02*
X8Y587D01*
X213Y587D02*
X222Y587D01*
X913Y587D02*
X922Y587D01*
X1513Y587D02*
X1522Y587D01*
X2213Y587D02*
X2222Y587D01*
X2355Y587D02*
X2362Y587D01*
X1Y586D02*
X8Y586D01*
X213Y586D02*
X222Y586D01*
X913Y586D02*
X922Y586D01*
X1513Y586D02*
X1522Y586D01*
X2213Y586D02*
X2222Y586D01*
X2355Y586D02*
X2362Y586D01*
X1Y585D02*
X8Y585D01*
X213Y585D02*
X222Y585D01*
X913Y585D02*
X922Y585D01*
X1513Y585D02*
X1522Y585D01*
X2213Y585D02*
X2222Y585D01*
X2355Y585D02*
X2362Y585D01*
X1Y584D02*
X8Y584D01*
X213Y584D02*
X222Y584D01*
X913Y584D02*
X922Y584D01*
X1513Y584D02*
X1522Y584D01*
X2213Y584D02*
X2222Y584D01*
X2355Y584D02*
X2362Y584D01*
X1Y583D02*
X8Y583D01*
X213Y583D02*
X222Y583D01*
X913Y583D02*
X922Y583D01*
X1513Y583D02*
X1522Y583D01*
X2213Y583D02*
X2222Y583D01*
X2355Y583D02*
X2362Y583D01*
X1Y582D02*
X8Y582D01*
X213Y582D02*
X222Y582D01*
X913Y582D02*
X922Y582D01*
X1513Y582D02*
X1522Y582D01*
X2213Y582D02*
X2222Y582D01*
X2355Y582D02*
X2362Y582D01*
X1Y581D02*
X8Y581D01*
X213Y581D02*
X222Y581D01*
X913Y581D02*
X922Y581D01*
X1513Y581D02*
X1522Y581D01*
X2213Y581D02*
X2222Y581D01*
X2355Y581D02*
X2362Y581D01*
X1Y580D02*
X8Y580D01*
X213Y580D02*
X222Y580D01*
X913Y580D02*
X922Y580D01*
X1513Y580D02*
X1522Y580D01*
X2213Y580D02*
X2222Y580D01*
X2355Y580D02*
X2362Y580D01*
X1Y579D02*
X8Y579D01*
X213Y579D02*
X222Y579D01*
X913Y579D02*
X922Y579D01*
X1513Y579D02*
X1522Y579D01*
X2213Y579D02*
X2222Y579D01*
X2355Y579D02*
X2362Y579D01*
X1Y578D02*
X8Y578D01*
X213Y578D02*
X222Y578D01*
X913Y578D02*
X922Y578D01*
X1513Y578D02*
X1522Y578D01*
X2213Y578D02*
X2222Y578D01*
X2355Y578D02*
X2362Y578D01*
X1Y577D02*
X8Y577D01*
X213Y577D02*
X222Y577D01*
X913Y577D02*
X922Y577D01*
X1513Y577D02*
X1522Y577D01*
X2213Y577D02*
X2222Y577D01*
X2355Y577D02*
X2362Y577D01*
X1Y576D02*
X8Y576D01*
X213Y576D02*
X222Y576D01*
X913Y576D02*
X922Y576D01*
X1513Y576D02*
X1522Y576D01*
X2213Y576D02*
X2222Y576D01*
X2355Y576D02*
X2362Y576D01*
X1Y575D02*
X8Y575D01*
X213Y575D02*
X222Y575D01*
X913Y575D02*
X922Y575D01*
X1513Y575D02*
X1522Y575D01*
X2213Y575D02*
X2222Y575D01*
X2355Y575D02*
X2362Y575D01*
X1Y574D02*
X8Y574D01*
X213Y574D02*
X222Y574D01*
X913Y574D02*
X922Y574D01*
X1513Y574D02*
X1522Y574D01*
X2213Y574D02*
X2222Y574D01*
X2355Y574D02*
X2362Y574D01*
X1Y573D02*
X8Y573D01*
X213Y573D02*
X222Y573D01*
X913Y573D02*
X922Y573D01*
X1513Y573D02*
X1522Y573D01*
X2213Y573D02*
X2222Y573D01*
X2355Y573D02*
X2362Y573D01*
X1Y572D02*
X8Y572D01*
X213Y572D02*
X222Y572D01*
X913Y572D02*
X922Y572D01*
X1513Y572D02*
X1522Y572D01*
X2213Y572D02*
X2222Y572D01*
X2355Y572D02*
X2362Y572D01*
X1Y571D02*
X8Y571D01*
X213Y571D02*
X222Y571D01*
X913Y571D02*
X922Y571D01*
X1513Y571D02*
X1522Y571D01*
X2213Y571D02*
X2222Y571D01*
X2355Y571D02*
X2362Y571D01*
X1Y570D02*
X8Y570D01*
X213Y570D02*
X222Y570D01*
X913Y570D02*
X922Y570D01*
X1513Y570D02*
X1522Y570D01*
X2213Y570D02*
X2222Y570D01*
X2355Y570D02*
X2362Y570D01*
X1Y569D02*
X8Y569D01*
X213Y569D02*
X222Y569D01*
X913Y569D02*
X922Y569D01*
X1513Y569D02*
X1522Y569D01*
X2213Y569D02*
X2222Y569D01*
X2355Y569D02*
X2362Y569D01*
X1Y568D02*
X8Y568D01*
X213Y568D02*
X222Y568D01*
X913Y568D02*
X922Y568D01*
X1513Y568D02*
X1522Y568D01*
X2213Y568D02*
X2222Y568D01*
X2355Y568D02*
X2362Y568D01*
X1Y567D02*
X8Y567D01*
X213Y567D02*
X222Y567D01*
X913Y567D02*
X922Y567D01*
X1513Y567D02*
X1522Y567D01*
X2213Y567D02*
X2222Y567D01*
X2355Y567D02*
X2362Y567D01*
X1Y566D02*
X8Y566D01*
X213Y566D02*
X222Y566D01*
X913Y566D02*
X922Y566D01*
X1513Y566D02*
X1522Y566D01*
X2213Y566D02*
X2222Y566D01*
X2355Y566D02*
X2362Y566D01*
X1Y565D02*
X8Y565D01*
X213Y565D02*
X222Y565D01*
X913Y565D02*
X922Y565D01*
X1513Y565D02*
X1522Y565D01*
X2213Y565D02*
X2222Y565D01*
X2355Y565D02*
X2362Y565D01*
X1Y564D02*
X8Y564D01*
X213Y564D02*
X222Y564D01*
X913Y564D02*
X922Y564D01*
X1513Y564D02*
X1522Y564D01*
X2213Y564D02*
X2222Y564D01*
X2355Y564D02*
X2362Y564D01*
X1Y563D02*
X8Y563D01*
X213Y563D02*
X222Y563D01*
X913Y563D02*
X922Y563D01*
X1513Y563D02*
X1522Y563D01*
X2213Y563D02*
X2222Y563D01*
X2355Y563D02*
X2362Y563D01*
X1Y562D02*
X8Y562D01*
X213Y562D02*
X222Y562D01*
X913Y562D02*
X922Y562D01*
X1513Y562D02*
X1522Y562D01*
X2213Y562D02*
X2222Y562D01*
X2355Y562D02*
X2362Y562D01*
X1Y561D02*
X8Y561D01*
X213Y561D02*
X222Y561D01*
X913Y561D02*
X922Y561D01*
X1513Y561D02*
X1522Y561D01*
X2213Y561D02*
X2222Y561D01*
X2355Y561D02*
X2362Y561D01*
X1Y560D02*
X8Y560D01*
X213Y560D02*
X222Y560D01*
X913Y560D02*
X922Y560D01*
X1513Y560D02*
X1522Y560D01*
X2213Y560D02*
X2222Y560D01*
X2355Y560D02*
X2362Y560D01*
X1Y559D02*
X8Y559D01*
X213Y559D02*
X222Y559D01*
X913Y559D02*
X922Y559D01*
X1513Y559D02*
X1522Y559D01*
X2213Y559D02*
X2222Y559D01*
X2355Y559D02*
X2362Y559D01*
X1Y558D02*
X8Y558D01*
X213Y558D02*
X222Y558D01*
X913Y558D02*
X922Y558D01*
X1513Y558D02*
X1522Y558D01*
X2213Y558D02*
X2222Y558D01*
X2355Y558D02*
X2362Y558D01*
X1Y557D02*
X8Y557D01*
X213Y557D02*
X222Y557D01*
X913Y557D02*
X922Y557D01*
X1513Y557D02*
X1522Y557D01*
X2213Y557D02*
X2222Y557D01*
X2355Y557D02*
X2362Y557D01*
X1Y556D02*
X8Y556D01*
X213Y556D02*
X222Y556D01*
X913Y556D02*
X922Y556D01*
X1513Y556D02*
X1522Y556D01*
X2213Y556D02*
X2222Y556D01*
X2355Y556D02*
X2362Y556D01*
X1Y555D02*
X8Y555D01*
X213Y555D02*
X222Y555D01*
X913Y555D02*
X922Y555D01*
X1513Y555D02*
X1522Y555D01*
X2213Y555D02*
X2222Y555D01*
X2355Y555D02*
X2362Y555D01*
X1Y554D02*
X8Y554D01*
X213Y554D02*
X222Y554D01*
X913Y554D02*
X922Y554D01*
X1513Y554D02*
X1522Y554D01*
X2213Y554D02*
X2222Y554D01*
X2355Y554D02*
X2362Y554D01*
X1Y553D02*
X8Y553D01*
X213Y553D02*
X222Y553D01*
X913Y553D02*
X922Y553D01*
X1513Y553D02*
X1522Y553D01*
X2213Y553D02*
X2222Y553D01*
X2355Y553D02*
X2362Y553D01*
X1Y552D02*
X8Y552D01*
X213Y552D02*
X222Y552D01*
X913Y552D02*
X922Y552D01*
X1513Y552D02*
X1522Y552D01*
X2213Y552D02*
X2222Y552D01*
X2355Y552D02*
X2362Y552D01*
X1Y551D02*
X8Y551D01*
X213Y551D02*
X222Y551D01*
X913Y551D02*
X922Y551D01*
X1513Y551D02*
X1522Y551D01*
X2213Y551D02*
X2222Y551D01*
X2355Y551D02*
X2362Y551D01*
X1Y550D02*
X8Y550D01*
X213Y550D02*
X222Y550D01*
X913Y550D02*
X922Y550D01*
X1513Y550D02*
X1522Y550D01*
X2213Y550D02*
X2222Y550D01*
X2355Y550D02*
X2362Y550D01*
X1Y549D02*
X8Y549D01*
X213Y549D02*
X222Y549D01*
X913Y549D02*
X922Y549D01*
X1513Y549D02*
X1522Y549D01*
X2213Y549D02*
X2222Y549D01*
X2355Y549D02*
X2362Y549D01*
X1Y548D02*
X8Y548D01*
X213Y548D02*
X222Y548D01*
X913Y548D02*
X922Y548D01*
X1513Y548D02*
X1522Y548D01*
X2213Y548D02*
X2222Y548D01*
X2355Y548D02*
X2362Y548D01*
X1Y547D02*
X8Y547D01*
X213Y547D02*
X222Y547D01*
X913Y547D02*
X922Y547D01*
X1513Y547D02*
X1522Y547D01*
X2213Y547D02*
X2222Y547D01*
X2355Y547D02*
X2362Y547D01*
X1Y546D02*
X8Y546D01*
X213Y546D02*
X222Y546D01*
X913Y546D02*
X922Y546D01*
X1513Y546D02*
X1522Y546D01*
X2213Y546D02*
X2222Y546D01*
X2355Y546D02*
X2362Y546D01*
X1Y545D02*
X8Y545D01*
X213Y545D02*
X222Y545D01*
X913Y545D02*
X922Y545D01*
X1513Y545D02*
X1522Y545D01*
X2213Y545D02*
X2222Y545D01*
X2355Y545D02*
X2362Y545D01*
X1Y544D02*
X8Y544D01*
X213Y544D02*
X222Y544D01*
X913Y544D02*
X922Y544D01*
X1513Y544D02*
X1522Y544D01*
X2213Y544D02*
X2222Y544D01*
X2355Y544D02*
X2362Y544D01*
X1Y543D02*
X8Y543D01*
X213Y543D02*
X222Y543D01*
X913Y543D02*
X922Y543D01*
X1513Y543D02*
X1522Y543D01*
X2213Y543D02*
X2222Y543D01*
X2355Y543D02*
X2362Y543D01*
X1Y542D02*
X8Y542D01*
X213Y542D02*
X222Y542D01*
X913Y542D02*
X922Y542D01*
X1513Y542D02*
X1522Y542D01*
X2213Y542D02*
X2222Y542D01*
X2355Y542D02*
X2362Y542D01*
X1Y541D02*
X8Y541D01*
X213Y541D02*
X222Y541D01*
X913Y541D02*
X922Y541D01*
X1513Y541D02*
X1522Y541D01*
X2213Y541D02*
X2222Y541D01*
X2355Y541D02*
X2362Y541D01*
X1Y540D02*
X8Y540D01*
X213Y540D02*
X222Y540D01*
X913Y540D02*
X922Y540D01*
X1513Y540D02*
X1522Y540D01*
X2213Y540D02*
X2222Y540D01*
X2355Y540D02*
X2362Y540D01*
X1Y539D02*
X8Y539D01*
X213Y539D02*
X222Y539D01*
X913Y539D02*
X922Y539D01*
X1513Y539D02*
X1522Y539D01*
X2213Y539D02*
X2222Y539D01*
X2355Y539D02*
X2362Y539D01*
X1Y538D02*
X8Y538D01*
X213Y538D02*
X222Y538D01*
X913Y538D02*
X922Y538D01*
X1513Y538D02*
X1522Y538D01*
X2213Y538D02*
X2222Y538D01*
X2355Y538D02*
X2362Y538D01*
X1Y537D02*
X8Y537D01*
X213Y537D02*
X222Y537D01*
X913Y537D02*
X922Y537D01*
X1513Y537D02*
X1522Y537D01*
X2213Y537D02*
X2222Y537D01*
X2355Y537D02*
X2362Y537D01*
X1Y536D02*
X8Y536D01*
X213Y536D02*
X222Y536D01*
X913Y536D02*
X922Y536D01*
X1513Y536D02*
X1522Y536D01*
X2213Y536D02*
X2222Y536D01*
X2355Y536D02*
X2362Y536D01*
X1Y535D02*
X8Y535D01*
X213Y535D02*
X222Y535D01*
X913Y535D02*
X922Y535D01*
X1513Y535D02*
X1522Y535D01*
X2213Y535D02*
X2222Y535D01*
X2355Y535D02*
X2362Y535D01*
X1Y534D02*
X8Y534D01*
X213Y534D02*
X222Y534D01*
X913Y534D02*
X922Y534D01*
X1513Y534D02*
X1522Y534D01*
X2213Y534D02*
X2222Y534D01*
X2355Y534D02*
X2362Y534D01*
X1Y533D02*
X8Y533D01*
X213Y533D02*
X222Y533D01*
X913Y533D02*
X922Y533D01*
X1513Y533D02*
X1522Y533D01*
X2213Y533D02*
X2222Y533D01*
X2355Y533D02*
X2362Y533D01*
X1Y532D02*
X8Y532D01*
X213Y532D02*
X222Y532D01*
X913Y532D02*
X922Y532D01*
X1513Y532D02*
X1522Y532D01*
X2213Y532D02*
X2222Y532D01*
X2355Y532D02*
X2362Y532D01*
X1Y531D02*
X8Y531D01*
X213Y531D02*
X222Y531D01*
X913Y531D02*
X922Y531D01*
X1513Y531D02*
X1522Y531D01*
X2213Y531D02*
X2222Y531D01*
X2355Y531D02*
X2362Y531D01*
X1Y530D02*
X8Y530D01*
X213Y530D02*
X222Y530D01*
X913Y530D02*
X922Y530D01*
X1513Y530D02*
X1522Y530D01*
X2213Y530D02*
X2222Y530D01*
X2355Y530D02*
X2362Y530D01*
X1Y529D02*
X8Y529D01*
X213Y529D02*
X222Y529D01*
X913Y529D02*
X922Y529D01*
X1513Y529D02*
X1522Y529D01*
X2213Y529D02*
X2222Y529D01*
X2355Y529D02*
X2362Y529D01*
X1Y528D02*
X8Y528D01*
X213Y528D02*
X222Y528D01*
X913Y528D02*
X922Y528D01*
X1513Y528D02*
X1522Y528D01*
X2213Y528D02*
X2222Y528D01*
X2355Y528D02*
X2362Y528D01*
X1Y527D02*
X8Y527D01*
X213Y527D02*
X222Y527D01*
X913Y527D02*
X922Y527D01*
X1513Y527D02*
X1522Y527D01*
X2213Y527D02*
X2222Y527D01*
X2355Y527D02*
X2362Y527D01*
X1Y526D02*
X8Y526D01*
X213Y526D02*
X222Y526D01*
X913Y526D02*
X922Y526D01*
X1513Y526D02*
X1522Y526D01*
X2213Y526D02*
X2222Y526D01*
X2355Y526D02*
X2362Y526D01*
X1Y525D02*
X8Y525D01*
X213Y525D02*
X222Y525D01*
X913Y525D02*
X922Y525D01*
X1513Y525D02*
X1522Y525D01*
X2213Y525D02*
X2222Y525D01*
X2355Y525D02*
X2362Y525D01*
X1Y524D02*
X8Y524D01*
X213Y524D02*
X222Y524D01*
X913Y524D02*
X922Y524D01*
X1513Y524D02*
X1522Y524D01*
X2213Y524D02*
X2222Y524D01*
X2355Y524D02*
X2362Y524D01*
X1Y523D02*
X8Y523D01*
X213Y523D02*
X222Y523D01*
X913Y523D02*
X922Y523D01*
X1513Y523D02*
X1522Y523D01*
X2213Y523D02*
X2222Y523D01*
X2355Y523D02*
X2362Y523D01*
X1Y522D02*
X8Y522D01*
X213Y522D02*
X222Y522D01*
X913Y522D02*
X922Y522D01*
X1513Y522D02*
X1522Y522D01*
X2213Y522D02*
X2222Y522D01*
X2355Y522D02*
X2362Y522D01*
X1Y521D02*
X8Y521D01*
X213Y521D02*
X222Y521D01*
X913Y521D02*
X922Y521D01*
X1513Y521D02*
X1522Y521D01*
X2213Y521D02*
X2222Y521D01*
X2355Y521D02*
X2362Y521D01*
X1Y520D02*
X8Y520D01*
X213Y520D02*
X222Y520D01*
X913Y520D02*
X922Y520D01*
X1513Y520D02*
X1522Y520D01*
X2213Y520D02*
X2222Y520D01*
X2355Y520D02*
X2362Y520D01*
X1Y519D02*
X8Y519D01*
X213Y519D02*
X222Y519D01*
X913Y519D02*
X922Y519D01*
X1513Y519D02*
X1522Y519D01*
X2213Y519D02*
X2222Y519D01*
X2355Y519D02*
X2362Y519D01*
X1Y518D02*
X8Y518D01*
X213Y518D02*
X222Y518D01*
X913Y518D02*
X922Y518D01*
X1513Y518D02*
X1522Y518D01*
X2213Y518D02*
X2222Y518D01*
X2355Y518D02*
X2362Y518D01*
X1Y517D02*
X8Y517D01*
X213Y517D02*
X222Y517D01*
X913Y517D02*
X922Y517D01*
X1513Y517D02*
X1522Y517D01*
X2213Y517D02*
X2222Y517D01*
X2355Y517D02*
X2362Y517D01*
X1Y516D02*
X8Y516D01*
X213Y516D02*
X222Y516D01*
X913Y516D02*
X922Y516D01*
X1513Y516D02*
X1522Y516D01*
X2213Y516D02*
X2222Y516D01*
X2355Y516D02*
X2362Y516D01*
X1Y515D02*
X8Y515D01*
X213Y515D02*
X222Y515D01*
X913Y515D02*
X922Y515D01*
X1513Y515D02*
X1522Y515D01*
X2213Y515D02*
X2222Y515D01*
X2355Y515D02*
X2362Y515D01*
X1Y514D02*
X8Y514D01*
X213Y514D02*
X222Y514D01*
X913Y514D02*
X922Y514D01*
X1513Y514D02*
X1522Y514D01*
X2213Y514D02*
X2222Y514D01*
X2355Y514D02*
X2362Y514D01*
X1Y513D02*
X8Y513D01*
X213Y513D02*
X222Y513D01*
X913Y513D02*
X922Y513D01*
X1513Y513D02*
X1522Y513D01*
X2213Y513D02*
X2222Y513D01*
X2355Y513D02*
X2362Y513D01*
X1Y512D02*
X8Y512D01*
X213Y512D02*
X222Y512D01*
X913Y512D02*
X922Y512D01*
X1513Y512D02*
X1522Y512D01*
X2213Y512D02*
X2222Y512D01*
X2355Y512D02*
X2362Y512D01*
X1Y511D02*
X8Y511D01*
X213Y511D02*
X222Y511D01*
X913Y511D02*
X922Y511D01*
X1513Y511D02*
X1522Y511D01*
X2213Y511D02*
X2222Y511D01*
X2355Y511D02*
X2362Y511D01*
X1Y510D02*
X8Y510D01*
X213Y510D02*
X222Y510D01*
X913Y510D02*
X922Y510D01*
X1513Y510D02*
X1522Y510D01*
X2213Y510D02*
X2222Y510D01*
X2355Y510D02*
X2362Y510D01*
X1Y509D02*
X8Y509D01*
X213Y509D02*
X222Y509D01*
X913Y509D02*
X922Y509D01*
X1513Y509D02*
X1522Y509D01*
X2213Y509D02*
X2222Y509D01*
X2355Y509D02*
X2362Y509D01*
X1Y508D02*
X8Y508D01*
X213Y508D02*
X222Y508D01*
X913Y508D02*
X922Y508D01*
X1513Y508D02*
X1522Y508D01*
X2213Y508D02*
X2222Y508D01*
X2355Y508D02*
X2362Y508D01*
X1Y507D02*
X8Y507D01*
X213Y507D02*
X222Y507D01*
X913Y507D02*
X922Y507D01*
X1513Y507D02*
X1522Y507D01*
X2213Y507D02*
X2222Y507D01*
X2355Y507D02*
X2362Y507D01*
X1Y506D02*
X8Y506D01*
X213Y506D02*
X222Y506D01*
X913Y506D02*
X922Y506D01*
X1513Y506D02*
X1522Y506D01*
X2213Y506D02*
X2222Y506D01*
X2355Y506D02*
X2362Y506D01*
X1Y505D02*
X8Y505D01*
X213Y505D02*
X222Y505D01*
X913Y505D02*
X922Y505D01*
X1513Y505D02*
X1522Y505D01*
X2213Y505D02*
X2222Y505D01*
X2355Y505D02*
X2362Y505D01*
X1Y504D02*
X8Y504D01*
X213Y504D02*
X222Y504D01*
X913Y504D02*
X922Y504D01*
X1513Y504D02*
X1522Y504D01*
X2213Y504D02*
X2222Y504D01*
X2355Y504D02*
X2362Y504D01*
X1Y503D02*
X8Y503D01*
X213Y503D02*
X222Y503D01*
X913Y503D02*
X922Y503D01*
X1513Y503D02*
X1522Y503D01*
X2213Y503D02*
X2222Y503D01*
X2355Y503D02*
X2362Y503D01*
X1Y502D02*
X8Y502D01*
X213Y502D02*
X222Y502D01*
X913Y502D02*
X922Y502D01*
X1513Y502D02*
X1522Y502D01*
X2213Y502D02*
X2222Y502D01*
X2355Y502D02*
X2362Y502D01*
X1Y501D02*
X8Y501D01*
X213Y501D02*
X222Y501D01*
X913Y501D02*
X922Y501D01*
X1513Y501D02*
X1522Y501D01*
X2213Y501D02*
X2222Y501D01*
X2355Y501D02*
X2362Y501D01*
X1Y500D02*
X8Y500D01*
X213Y500D02*
X222Y500D01*
X913Y500D02*
X922Y500D01*
X1513Y500D02*
X1522Y500D01*
X2213Y500D02*
X2222Y500D01*
X2355Y500D02*
X2362Y500D01*
X1Y499D02*
X8Y499D01*
X213Y499D02*
X222Y499D01*
X913Y499D02*
X922Y499D01*
X1513Y499D02*
X1522Y499D01*
X2213Y499D02*
X2222Y499D01*
X2355Y499D02*
X2362Y499D01*
X1Y498D02*
X8Y498D01*
X213Y498D02*
X222Y498D01*
X913Y498D02*
X922Y498D01*
X1513Y498D02*
X1522Y498D01*
X2213Y498D02*
X2222Y498D01*
X2355Y498D02*
X2362Y498D01*
X1Y497D02*
X8Y497D01*
X213Y497D02*
X222Y497D01*
X913Y497D02*
X922Y497D01*
X1513Y497D02*
X1522Y497D01*
X2213Y497D02*
X2222Y497D01*
X2355Y497D02*
X2362Y497D01*
X1Y496D02*
X8Y496D01*
X213Y496D02*
X222Y496D01*
X913Y496D02*
X922Y496D01*
X1513Y496D02*
X1522Y496D01*
X2213Y496D02*
X2222Y496D01*
X2355Y496D02*
X2362Y496D01*
X1Y495D02*
X8Y495D01*
X213Y495D02*
X222Y495D01*
X913Y495D02*
X922Y495D01*
X1513Y495D02*
X1522Y495D01*
X2213Y495D02*
X2222Y495D01*
X2355Y495D02*
X2362Y495D01*
X1Y494D02*
X8Y494D01*
X213Y494D02*
X222Y494D01*
X913Y494D02*
X922Y494D01*
X1513Y494D02*
X1522Y494D01*
X2213Y494D02*
X2222Y494D01*
X2355Y494D02*
X2362Y494D01*
X1Y493D02*
X8Y493D01*
X213Y493D02*
X222Y493D01*
X913Y493D02*
X922Y493D01*
X1513Y493D02*
X1522Y493D01*
X2213Y493D02*
X2222Y493D01*
X2355Y493D02*
X2362Y493D01*
X1Y492D02*
X8Y492D01*
X213Y492D02*
X222Y492D01*
X913Y492D02*
X922Y492D01*
X1513Y492D02*
X1522Y492D01*
X2213Y492D02*
X2222Y492D01*
X2355Y492D02*
X2362Y492D01*
X1Y491D02*
X8Y491D01*
X213Y491D02*
X222Y491D01*
X913Y491D02*
X922Y491D01*
X1513Y491D02*
X1522Y491D01*
X2213Y491D02*
X2222Y491D01*
X2355Y491D02*
X2362Y491D01*
X1Y490D02*
X8Y490D01*
X213Y490D02*
X222Y490D01*
X913Y490D02*
X922Y490D01*
X1513Y490D02*
X1522Y490D01*
X2213Y490D02*
X2222Y490D01*
X2355Y490D02*
X2362Y490D01*
X1Y489D02*
X8Y489D01*
X213Y489D02*
X222Y489D01*
X913Y489D02*
X922Y489D01*
X1513Y489D02*
X1522Y489D01*
X2213Y489D02*
X2222Y489D01*
X2355Y489D02*
X2362Y489D01*
X1Y488D02*
X8Y488D01*
X213Y488D02*
X222Y488D01*
X913Y488D02*
X922Y488D01*
X1513Y488D02*
X1522Y488D01*
X2213Y488D02*
X2222Y488D01*
X2355Y488D02*
X2362Y488D01*
X1Y487D02*
X8Y487D01*
X213Y487D02*
X222Y487D01*
X913Y487D02*
X922Y487D01*
X1513Y487D02*
X1522Y487D01*
X2213Y487D02*
X2222Y487D01*
X2355Y487D02*
X2362Y487D01*
X1Y486D02*
X8Y486D01*
X213Y486D02*
X222Y486D01*
X913Y486D02*
X922Y486D01*
X1513Y486D02*
X1522Y486D01*
X2213Y486D02*
X2222Y486D01*
X2355Y486D02*
X2362Y486D01*
X1Y485D02*
X8Y485D01*
X213Y485D02*
X222Y485D01*
X913Y485D02*
X922Y485D01*
X1513Y485D02*
X1522Y485D01*
X2213Y485D02*
X2222Y485D01*
X2355Y485D02*
X2362Y485D01*
X1Y484D02*
X8Y484D01*
X213Y484D02*
X222Y484D01*
X913Y484D02*
X922Y484D01*
X1513Y484D02*
X1522Y484D01*
X2213Y484D02*
X2222Y484D01*
X2355Y484D02*
X2362Y484D01*
X1Y483D02*
X8Y483D01*
X213Y483D02*
X222Y483D01*
X913Y483D02*
X922Y483D01*
X1513Y483D02*
X1522Y483D01*
X2213Y483D02*
X2222Y483D01*
X2355Y483D02*
X2362Y483D01*
X1Y482D02*
X8Y482D01*
X213Y482D02*
X222Y482D01*
X913Y482D02*
X922Y482D01*
X1513Y482D02*
X1522Y482D01*
X2213Y482D02*
X2222Y482D01*
X2355Y482D02*
X2362Y482D01*
X1Y481D02*
X8Y481D01*
X213Y481D02*
X222Y481D01*
X913Y481D02*
X922Y481D01*
X1513Y481D02*
X1522Y481D01*
X2213Y481D02*
X2222Y481D01*
X2355Y481D02*
X2362Y481D01*
X1Y480D02*
X8Y480D01*
X213Y480D02*
X222Y480D01*
X913Y480D02*
X922Y480D01*
X1513Y480D02*
X1522Y480D01*
X2213Y480D02*
X2222Y480D01*
X2355Y480D02*
X2362Y480D01*
X1Y479D02*
X8Y479D01*
X213Y479D02*
X222Y479D01*
X913Y479D02*
X922Y479D01*
X1513Y479D02*
X1522Y479D01*
X2213Y479D02*
X2222Y479D01*
X2355Y479D02*
X2362Y479D01*
X1Y478D02*
X8Y478D01*
X213Y478D02*
X222Y478D01*
X913Y478D02*
X922Y478D01*
X1513Y478D02*
X1522Y478D01*
X2213Y478D02*
X2222Y478D01*
X2355Y478D02*
X2362Y478D01*
X1Y477D02*
X8Y477D01*
X213Y477D02*
X222Y477D01*
X913Y477D02*
X922Y477D01*
X1513Y477D02*
X1522Y477D01*
X2213Y477D02*
X2222Y477D01*
X2355Y477D02*
X2362Y477D01*
X1Y476D02*
X8Y476D01*
X213Y476D02*
X222Y476D01*
X913Y476D02*
X922Y476D01*
X1513Y476D02*
X1522Y476D01*
X2213Y476D02*
X2222Y476D01*
X2355Y476D02*
X2362Y476D01*
X1Y475D02*
X8Y475D01*
X213Y475D02*
X222Y475D01*
X913Y475D02*
X922Y475D01*
X1513Y475D02*
X1522Y475D01*
X2213Y475D02*
X2222Y475D01*
X2355Y475D02*
X2362Y475D01*
X1Y474D02*
X8Y474D01*
X213Y474D02*
X222Y474D01*
X913Y474D02*
X922Y474D01*
X1513Y474D02*
X1522Y474D01*
X2213Y474D02*
X2222Y474D01*
X2355Y474D02*
X2362Y474D01*
X1Y473D02*
X8Y473D01*
X213Y473D02*
X222Y473D01*
X913Y473D02*
X922Y473D01*
X1513Y473D02*
X1522Y473D01*
X2213Y473D02*
X2222Y473D01*
X2355Y473D02*
X2362Y473D01*
X1Y472D02*
X8Y472D01*
X213Y472D02*
X222Y472D01*
X913Y472D02*
X922Y472D01*
X1513Y472D02*
X1522Y472D01*
X2213Y472D02*
X2222Y472D01*
X2355Y472D02*
X2362Y472D01*
X1Y471D02*
X8Y471D01*
X213Y471D02*
X222Y471D01*
X913Y471D02*
X922Y471D01*
X1513Y471D02*
X1522Y471D01*
X2213Y471D02*
X2222Y471D01*
X2355Y471D02*
X2362Y471D01*
X1Y470D02*
X8Y470D01*
X213Y470D02*
X222Y470D01*
X913Y470D02*
X922Y470D01*
X1513Y470D02*
X1522Y470D01*
X2213Y470D02*
X2222Y470D01*
X2355Y470D02*
X2362Y470D01*
X1Y469D02*
X8Y469D01*
X213Y469D02*
X222Y469D01*
X913Y469D02*
X922Y469D01*
X1513Y469D02*
X1522Y469D01*
X2213Y469D02*
X2222Y469D01*
X2355Y469D02*
X2362Y469D01*
X1Y468D02*
X8Y468D01*
X213Y468D02*
X222Y468D01*
X913Y468D02*
X922Y468D01*
X1513Y468D02*
X1522Y468D01*
X2213Y468D02*
X2222Y468D01*
X2355Y468D02*
X2362Y468D01*
X1Y467D02*
X8Y467D01*
X213Y467D02*
X222Y467D01*
X913Y467D02*
X922Y467D01*
X1513Y467D02*
X1522Y467D01*
X2213Y467D02*
X2222Y467D01*
X2355Y467D02*
X2362Y467D01*
X1Y466D02*
X8Y466D01*
X213Y466D02*
X222Y466D01*
X913Y466D02*
X922Y466D01*
X1513Y466D02*
X1522Y466D01*
X2213Y466D02*
X2222Y466D01*
X2355Y466D02*
X2362Y466D01*
X1Y465D02*
X8Y465D01*
X213Y465D02*
X222Y465D01*
X913Y465D02*
X922Y465D01*
X1513Y465D02*
X1522Y465D01*
X2213Y465D02*
X2222Y465D01*
X2355Y465D02*
X2362Y465D01*
X1Y464D02*
X8Y464D01*
X213Y464D02*
X222Y464D01*
X913Y464D02*
X922Y464D01*
X1513Y464D02*
X1522Y464D01*
X2213Y464D02*
X2222Y464D01*
X2355Y464D02*
X2362Y464D01*
X1Y463D02*
X8Y463D01*
X213Y463D02*
X222Y463D01*
X913Y463D02*
X922Y463D01*
X1513Y463D02*
X1522Y463D01*
X2213Y463D02*
X2222Y463D01*
X2355Y463D02*
X2362Y463D01*
X1Y462D02*
X8Y462D01*
X213Y462D02*
X222Y462D01*
X913Y462D02*
X922Y462D01*
X1513Y462D02*
X1522Y462D01*
X2213Y462D02*
X2222Y462D01*
X2355Y462D02*
X2362Y462D01*
X1Y461D02*
X8Y461D01*
X213Y461D02*
X222Y461D01*
X913Y461D02*
X922Y461D01*
X1513Y461D02*
X1522Y461D01*
X2213Y461D02*
X2222Y461D01*
X2355Y461D02*
X2362Y461D01*
X1Y460D02*
X8Y460D01*
X213Y460D02*
X222Y460D01*
X913Y460D02*
X922Y460D01*
X1513Y460D02*
X1522Y460D01*
X2213Y460D02*
X2222Y460D01*
X2355Y460D02*
X2362Y460D01*
X1Y459D02*
X8Y459D01*
X213Y459D02*
X222Y459D01*
X913Y459D02*
X922Y459D01*
X1513Y459D02*
X1522Y459D01*
X2213Y459D02*
X2222Y459D01*
X2355Y459D02*
X2362Y459D01*
X1Y458D02*
X8Y458D01*
X213Y458D02*
X222Y458D01*
X913Y458D02*
X922Y458D01*
X1513Y458D02*
X1522Y458D01*
X2213Y458D02*
X2222Y458D01*
X2355Y458D02*
X2362Y458D01*
X1Y457D02*
X8Y457D01*
X213Y457D02*
X222Y457D01*
X913Y457D02*
X922Y457D01*
X1513Y457D02*
X1522Y457D01*
X2213Y457D02*
X2222Y457D01*
X2355Y457D02*
X2362Y457D01*
X1Y456D02*
X8Y456D01*
X213Y456D02*
X222Y456D01*
X913Y456D02*
X922Y456D01*
X1513Y456D02*
X1522Y456D01*
X2213Y456D02*
X2222Y456D01*
X2355Y456D02*
X2362Y456D01*
X1Y455D02*
X8Y455D01*
X213Y455D02*
X222Y455D01*
X913Y455D02*
X922Y455D01*
X1513Y455D02*
X1522Y455D01*
X2213Y455D02*
X2222Y455D01*
X2355Y455D02*
X2362Y455D01*
X1Y454D02*
X8Y454D01*
X213Y454D02*
X222Y454D01*
X913Y454D02*
X922Y454D01*
X1513Y454D02*
X1522Y454D01*
X2213Y454D02*
X2222Y454D01*
X2355Y454D02*
X2362Y454D01*
X1Y453D02*
X8Y453D01*
X213Y453D02*
X222Y453D01*
X913Y453D02*
X922Y453D01*
X1513Y453D02*
X1522Y453D01*
X2213Y453D02*
X2222Y453D01*
X2355Y453D02*
X2362Y453D01*
X1Y452D02*
X8Y452D01*
X213Y452D02*
X222Y452D01*
X913Y452D02*
X922Y452D01*
X1513Y452D02*
X1522Y452D01*
X2213Y452D02*
X2222Y452D01*
X2355Y452D02*
X2362Y452D01*
X1Y451D02*
X8Y451D01*
X213Y451D02*
X222Y451D01*
X913Y451D02*
X922Y451D01*
X1513Y451D02*
X1522Y451D01*
X2213Y451D02*
X2222Y451D01*
X2355Y451D02*
X2362Y451D01*
X1Y450D02*
X8Y450D01*
X213Y450D02*
X222Y450D01*
X913Y450D02*
X922Y450D01*
X1513Y450D02*
X1522Y450D01*
X2213Y450D02*
X2222Y450D01*
X2355Y450D02*
X2362Y450D01*
X1Y449D02*
X8Y449D01*
X213Y449D02*
X222Y449D01*
X913Y449D02*
X922Y449D01*
X1513Y449D02*
X1522Y449D01*
X2213Y449D02*
X2222Y449D01*
X2355Y449D02*
X2362Y449D01*
X1Y448D02*
X8Y448D01*
X213Y448D02*
X222Y448D01*
X913Y448D02*
X922Y448D01*
X1513Y448D02*
X1522Y448D01*
X2213Y448D02*
X2222Y448D01*
X2355Y448D02*
X2362Y448D01*
X1Y447D02*
X8Y447D01*
X213Y447D02*
X222Y447D01*
X913Y447D02*
X922Y447D01*
X1513Y447D02*
X1522Y447D01*
X2213Y447D02*
X2222Y447D01*
X2355Y447D02*
X2362Y447D01*
X1Y446D02*
X8Y446D01*
X213Y446D02*
X222Y446D01*
X913Y446D02*
X922Y446D01*
X1513Y446D02*
X1522Y446D01*
X2213Y446D02*
X2222Y446D01*
X2355Y446D02*
X2362Y446D01*
X1Y445D02*
X8Y445D01*
X213Y445D02*
X222Y445D01*
X913Y445D02*
X922Y445D01*
X1513Y445D02*
X1522Y445D01*
X2213Y445D02*
X2222Y445D01*
X2355Y445D02*
X2362Y445D01*
X1Y444D02*
X8Y444D01*
X213Y444D02*
X222Y444D01*
X913Y444D02*
X922Y444D01*
X1513Y444D02*
X1522Y444D01*
X2213Y444D02*
X2222Y444D01*
X2355Y444D02*
X2362Y444D01*
X1Y443D02*
X8Y443D01*
X213Y443D02*
X222Y443D01*
X913Y443D02*
X922Y443D01*
X1513Y443D02*
X1522Y443D01*
X2213Y443D02*
X2222Y443D01*
X2355Y443D02*
X2362Y443D01*
X1Y442D02*
X8Y442D01*
X213Y442D02*
X222Y442D01*
X913Y442D02*
X922Y442D01*
X1513Y442D02*
X1522Y442D01*
X2213Y442D02*
X2222Y442D01*
X2355Y442D02*
X2362Y442D01*
X1Y441D02*
X8Y441D01*
X213Y441D02*
X222Y441D01*
X913Y441D02*
X922Y441D01*
X1513Y441D02*
X1522Y441D01*
X2213Y441D02*
X2222Y441D01*
X2355Y441D02*
X2362Y441D01*
X1Y440D02*
X8Y440D01*
X213Y440D02*
X222Y440D01*
X913Y440D02*
X922Y440D01*
X1513Y440D02*
X1522Y440D01*
X2213Y440D02*
X2222Y440D01*
X2355Y440D02*
X2362Y440D01*
X1Y439D02*
X8Y439D01*
X213Y439D02*
X222Y439D01*
X913Y439D02*
X922Y439D01*
X1513Y439D02*
X1522Y439D01*
X2213Y439D02*
X2222Y439D01*
X2355Y439D02*
X2362Y439D01*
X1Y438D02*
X8Y438D01*
X213Y438D02*
X222Y438D01*
X913Y438D02*
X922Y438D01*
X1513Y438D02*
X1522Y438D01*
X2213Y438D02*
X2222Y438D01*
X2355Y438D02*
X2362Y438D01*
X1Y437D02*
X8Y437D01*
X213Y437D02*
X222Y437D01*
X913Y437D02*
X922Y437D01*
X1513Y437D02*
X1522Y437D01*
X2213Y437D02*
X2222Y437D01*
X2355Y437D02*
X2362Y437D01*
X1Y436D02*
X8Y436D01*
X213Y436D02*
X222Y436D01*
X913Y436D02*
X922Y436D01*
X1513Y436D02*
X1522Y436D01*
X2213Y436D02*
X2222Y436D01*
X2355Y436D02*
X2362Y436D01*
X1Y435D02*
X8Y435D01*
X213Y435D02*
X222Y435D01*
X913Y435D02*
X922Y435D01*
X1513Y435D02*
X1522Y435D01*
X2213Y435D02*
X2222Y435D01*
X2355Y435D02*
X2362Y435D01*
X1Y434D02*
X8Y434D01*
X213Y434D02*
X222Y434D01*
X913Y434D02*
X922Y434D01*
X1513Y434D02*
X1522Y434D01*
X2213Y434D02*
X2222Y434D01*
X2355Y434D02*
X2362Y434D01*
X1Y433D02*
X8Y433D01*
X213Y433D02*
X222Y433D01*
X913Y433D02*
X922Y433D01*
X1513Y433D02*
X1522Y433D01*
X2213Y433D02*
X2222Y433D01*
X2355Y433D02*
X2362Y433D01*
X1Y432D02*
X8Y432D01*
X213Y432D02*
X222Y432D01*
X913Y432D02*
X922Y432D01*
X1513Y432D02*
X1522Y432D01*
X2213Y432D02*
X2222Y432D01*
X2355Y432D02*
X2362Y432D01*
X1Y431D02*
X8Y431D01*
X213Y431D02*
X222Y431D01*
X913Y431D02*
X922Y431D01*
X1513Y431D02*
X1522Y431D01*
X2213Y431D02*
X2222Y431D01*
X2355Y431D02*
X2362Y431D01*
X1Y430D02*
X8Y430D01*
X213Y430D02*
X222Y430D01*
X913Y430D02*
X922Y430D01*
X1513Y430D02*
X1522Y430D01*
X2213Y430D02*
X2222Y430D01*
X2355Y430D02*
X2362Y430D01*
X1Y429D02*
X8Y429D01*
X213Y429D02*
X222Y429D01*
X913Y429D02*
X922Y429D01*
X1513Y429D02*
X1522Y429D01*
X2213Y429D02*
X2222Y429D01*
X2355Y429D02*
X2362Y429D01*
X1Y428D02*
X8Y428D01*
X213Y428D02*
X222Y428D01*
X913Y428D02*
X922Y428D01*
X1513Y428D02*
X1522Y428D01*
X2213Y428D02*
X2222Y428D01*
X2355Y428D02*
X2362Y428D01*
X1Y427D02*
X8Y427D01*
X213Y427D02*
X222Y427D01*
X913Y427D02*
X922Y427D01*
X1513Y427D02*
X1522Y427D01*
X2213Y427D02*
X2222Y427D01*
X2355Y427D02*
X2362Y427D01*
X1Y426D02*
X8Y426D01*
X213Y426D02*
X222Y426D01*
X913Y426D02*
X922Y426D01*
X1513Y426D02*
X1522Y426D01*
X2213Y426D02*
X2222Y426D01*
X2355Y426D02*
X2362Y426D01*
X1Y425D02*
X8Y425D01*
X213Y425D02*
X222Y425D01*
X913Y425D02*
X922Y425D01*
X1513Y425D02*
X1522Y425D01*
X2213Y425D02*
X2222Y425D01*
X2355Y425D02*
X2362Y425D01*
X1Y424D02*
X8Y424D01*
X213Y424D02*
X222Y424D01*
X913Y424D02*
X922Y424D01*
X1513Y424D02*
X1522Y424D01*
X2213Y424D02*
X2222Y424D01*
X2355Y424D02*
X2362Y424D01*
X1Y423D02*
X8Y423D01*
X213Y423D02*
X222Y423D01*
X913Y423D02*
X922Y423D01*
X1513Y423D02*
X1522Y423D01*
X2213Y423D02*
X2222Y423D01*
X2355Y423D02*
X2362Y423D01*
X1Y422D02*
X8Y422D01*
X213Y422D02*
X222Y422D01*
X913Y422D02*
X922Y422D01*
X1513Y422D02*
X1522Y422D01*
X2213Y422D02*
X2222Y422D01*
X2355Y422D02*
X2362Y422D01*
X1Y421D02*
X8Y421D01*
X213Y421D02*
X222Y421D01*
X913Y421D02*
X922Y421D01*
X1513Y421D02*
X1522Y421D01*
X2213Y421D02*
X2222Y421D01*
X2355Y421D02*
X2362Y421D01*
X1Y420D02*
X8Y420D01*
X213Y420D02*
X222Y420D01*
X913Y420D02*
X922Y420D01*
X1513Y420D02*
X1522Y420D01*
X2213Y420D02*
X2222Y420D01*
X2355Y420D02*
X2362Y420D01*
X1Y419D02*
X8Y419D01*
X213Y419D02*
X222Y419D01*
X913Y419D02*
X922Y419D01*
X1513Y419D02*
X1522Y419D01*
X2213Y419D02*
X2222Y419D01*
X2355Y419D02*
X2362Y419D01*
X1Y418D02*
X8Y418D01*
X213Y418D02*
X222Y418D01*
X913Y418D02*
X922Y418D01*
X1513Y418D02*
X1522Y418D01*
X2213Y418D02*
X2222Y418D01*
X2355Y418D02*
X2362Y418D01*
X1Y417D02*
X8Y417D01*
X213Y417D02*
X222Y417D01*
X913Y417D02*
X922Y417D01*
X1513Y417D02*
X1522Y417D01*
X2213Y417D02*
X2222Y417D01*
X2355Y417D02*
X2362Y417D01*
X1Y416D02*
X8Y416D01*
X213Y416D02*
X222Y416D01*
X913Y416D02*
X922Y416D01*
X1513Y416D02*
X1522Y416D01*
X2213Y416D02*
X2222Y416D01*
X2355Y416D02*
X2362Y416D01*
X1Y415D02*
X8Y415D01*
X213Y415D02*
X222Y415D01*
X913Y415D02*
X922Y415D01*
X1513Y415D02*
X1522Y415D01*
X2213Y415D02*
X2222Y415D01*
X2355Y415D02*
X2362Y415D01*
X1Y414D02*
X8Y414D01*
X213Y414D02*
X222Y414D01*
X913Y414D02*
X922Y414D01*
X1513Y414D02*
X1522Y414D01*
X2213Y414D02*
X2222Y414D01*
X2355Y414D02*
X2362Y414D01*
X1Y413D02*
X8Y413D01*
X213Y413D02*
X222Y413D01*
X913Y413D02*
X922Y413D01*
X1513Y413D02*
X1522Y413D01*
X2213Y413D02*
X2222Y413D01*
X2355Y413D02*
X2362Y413D01*
X1Y412D02*
X8Y412D01*
X213Y412D02*
X222Y412D01*
X913Y412D02*
X922Y412D01*
X1513Y412D02*
X1522Y412D01*
X2213Y412D02*
X2222Y412D01*
X2355Y412D02*
X2362Y412D01*
X1Y411D02*
X8Y411D01*
X213Y411D02*
X222Y411D01*
X913Y411D02*
X922Y411D01*
X1513Y411D02*
X1522Y411D01*
X2213Y411D02*
X2222Y411D01*
X2355Y411D02*
X2362Y411D01*
X1Y410D02*
X8Y410D01*
X213Y410D02*
X222Y410D01*
X913Y410D02*
X922Y410D01*
X1513Y410D02*
X1522Y410D01*
X2213Y410D02*
X2222Y410D01*
X2355Y410D02*
X2362Y410D01*
X1Y409D02*
X8Y409D01*
X213Y409D02*
X222Y409D01*
X913Y409D02*
X922Y409D01*
X1513Y409D02*
X1522Y409D01*
X2213Y409D02*
X2222Y409D01*
X2355Y409D02*
X2362Y409D01*
X1Y408D02*
X8Y408D01*
X213Y408D02*
X222Y408D01*
X913Y408D02*
X922Y408D01*
X1513Y408D02*
X1522Y408D01*
X2213Y408D02*
X2222Y408D01*
X2355Y408D02*
X2362Y408D01*
X1Y407D02*
X8Y407D01*
X213Y407D02*
X222Y407D01*
X913Y407D02*
X922Y407D01*
X1513Y407D02*
X1522Y407D01*
X2213Y407D02*
X2222Y407D01*
X2355Y407D02*
X2362Y407D01*
X1Y406D02*
X8Y406D01*
X213Y406D02*
X222Y406D01*
X913Y406D02*
X922Y406D01*
X1513Y406D02*
X1522Y406D01*
X2213Y406D02*
X2222Y406D01*
X2355Y406D02*
X2362Y406D01*
X1Y405D02*
X8Y405D01*
X213Y405D02*
X222Y405D01*
X913Y405D02*
X922Y405D01*
X1513Y405D02*
X1522Y405D01*
X2213Y405D02*
X2222Y405D01*
X2355Y405D02*
X2362Y405D01*
X1Y404D02*
X8Y404D01*
X213Y404D02*
X222Y404D01*
X913Y404D02*
X922Y404D01*
X1513Y404D02*
X1522Y404D01*
X2213Y404D02*
X2222Y404D01*
X2355Y404D02*
X2362Y404D01*
X1Y403D02*
X8Y403D01*
X213Y403D02*
X222Y403D01*
X913Y403D02*
X922Y403D01*
X1513Y403D02*
X1522Y403D01*
X2213Y403D02*
X2222Y403D01*
X2355Y403D02*
X2362Y403D01*
X1Y402D02*
X8Y402D01*
X213Y402D02*
X222Y402D01*
X913Y402D02*
X922Y402D01*
X1513Y402D02*
X1522Y402D01*
X2213Y402D02*
X2222Y402D01*
X2355Y402D02*
X2362Y402D01*
X1Y401D02*
X8Y401D01*
X213Y401D02*
X222Y401D01*
X913Y401D02*
X922Y401D01*
X1513Y401D02*
X1522Y401D01*
X2213Y401D02*
X2222Y401D01*
X2355Y401D02*
X2362Y401D01*
X1Y400D02*
X8Y400D01*
X213Y400D02*
X222Y400D01*
X913Y400D02*
X922Y400D01*
X1513Y400D02*
X1522Y400D01*
X2213Y400D02*
X2222Y400D01*
X2355Y400D02*
X2362Y400D01*
X1Y399D02*
X8Y399D01*
X213Y399D02*
X222Y399D01*
X913Y399D02*
X922Y399D01*
X1513Y399D02*
X1522Y399D01*
X2213Y399D02*
X2222Y399D01*
X2355Y399D02*
X2362Y399D01*
X1Y398D02*
X8Y398D01*
X213Y398D02*
X222Y398D01*
X913Y398D02*
X922Y398D01*
X1513Y398D02*
X1522Y398D01*
X2213Y398D02*
X2222Y398D01*
X2355Y398D02*
X2362Y398D01*
X1Y397D02*
X8Y397D01*
X213Y397D02*
X222Y397D01*
X913Y397D02*
X922Y397D01*
X1513Y397D02*
X1522Y397D01*
X2213Y397D02*
X2222Y397D01*
X2355Y397D02*
X2362Y397D01*
X1Y396D02*
X8Y396D01*
X213Y396D02*
X222Y396D01*
X913Y396D02*
X922Y396D01*
X1513Y396D02*
X1522Y396D01*
X2213Y396D02*
X2222Y396D01*
X2355Y396D02*
X2362Y396D01*
X1Y395D02*
X8Y395D01*
X213Y395D02*
X222Y395D01*
X913Y395D02*
X922Y395D01*
X1513Y395D02*
X1522Y395D01*
X2213Y395D02*
X2222Y395D01*
X2355Y395D02*
X2362Y395D01*
X1Y394D02*
X8Y394D01*
X213Y394D02*
X222Y394D01*
X913Y394D02*
X922Y394D01*
X1513Y394D02*
X1522Y394D01*
X2213Y394D02*
X2222Y394D01*
X2355Y394D02*
X2362Y394D01*
X1Y393D02*
X8Y393D01*
X213Y393D02*
X222Y393D01*
X913Y393D02*
X922Y393D01*
X1513Y393D02*
X1522Y393D01*
X2213Y393D02*
X2222Y393D01*
X2355Y393D02*
X2362Y393D01*
X1Y392D02*
X8Y392D01*
X213Y392D02*
X222Y392D01*
X913Y392D02*
X922Y392D01*
X1513Y392D02*
X1522Y392D01*
X2213Y392D02*
X2222Y392D01*
X2355Y392D02*
X2362Y392D01*
X1Y391D02*
X8Y391D01*
X213Y391D02*
X222Y391D01*
X913Y391D02*
X922Y391D01*
X1513Y391D02*
X1522Y391D01*
X2213Y391D02*
X2222Y391D01*
X2355Y391D02*
X2362Y391D01*
X1Y390D02*
X8Y390D01*
X213Y390D02*
X222Y390D01*
X913Y390D02*
X922Y390D01*
X1513Y390D02*
X1522Y390D01*
X2213Y390D02*
X2222Y390D01*
X2355Y390D02*
X2362Y390D01*
X1Y389D02*
X8Y389D01*
X213Y389D02*
X222Y389D01*
X913Y389D02*
X922Y389D01*
X1513Y389D02*
X1522Y389D01*
X2213Y389D02*
X2222Y389D01*
X2355Y389D02*
X2362Y389D01*
X1Y388D02*
X8Y388D01*
X213Y388D02*
X222Y388D01*
X913Y388D02*
X922Y388D01*
X1513Y388D02*
X1522Y388D01*
X2213Y388D02*
X2222Y388D01*
X2355Y388D02*
X2362Y388D01*
X1Y387D02*
X8Y387D01*
X213Y387D02*
X222Y387D01*
X913Y387D02*
X922Y387D01*
X1513Y387D02*
X1522Y387D01*
X2213Y387D02*
X2222Y387D01*
X2355Y387D02*
X2362Y387D01*
X1Y386D02*
X8Y386D01*
X213Y386D02*
X222Y386D01*
X913Y386D02*
X922Y386D01*
X1513Y386D02*
X1522Y386D01*
X2213Y386D02*
X2222Y386D01*
X2355Y386D02*
X2362Y386D01*
X1Y385D02*
X8Y385D01*
X213Y385D02*
X222Y385D01*
X913Y385D02*
X922Y385D01*
X1513Y385D02*
X1522Y385D01*
X2213Y385D02*
X2222Y385D01*
X2355Y385D02*
X2362Y385D01*
X1Y384D02*
X8Y384D01*
X213Y384D02*
X222Y384D01*
X913Y384D02*
X922Y384D01*
X1513Y384D02*
X1522Y384D01*
X2213Y384D02*
X2222Y384D01*
X2355Y384D02*
X2362Y384D01*
X1Y383D02*
X8Y383D01*
X213Y383D02*
X222Y383D01*
X913Y383D02*
X922Y383D01*
X1513Y383D02*
X1522Y383D01*
X2213Y383D02*
X2222Y383D01*
X2355Y383D02*
X2362Y383D01*
X1Y382D02*
X8Y382D01*
X213Y382D02*
X222Y382D01*
X913Y382D02*
X922Y382D01*
X1513Y382D02*
X1522Y382D01*
X2213Y382D02*
X2222Y382D01*
X2355Y382D02*
X2362Y382D01*
X1Y381D02*
X8Y381D01*
X213Y381D02*
X222Y381D01*
X913Y381D02*
X922Y381D01*
X1513Y381D02*
X1522Y381D01*
X2213Y381D02*
X2222Y381D01*
X2355Y381D02*
X2362Y381D01*
X1Y380D02*
X8Y380D01*
X213Y380D02*
X222Y380D01*
X913Y380D02*
X922Y380D01*
X1513Y380D02*
X1522Y380D01*
X2213Y380D02*
X2222Y380D01*
X2355Y380D02*
X2362Y380D01*
X1Y379D02*
X8Y379D01*
X213Y379D02*
X222Y379D01*
X913Y379D02*
X922Y379D01*
X1513Y379D02*
X1522Y379D01*
X2213Y379D02*
X2222Y379D01*
X2355Y379D02*
X2362Y379D01*
X1Y378D02*
X8Y378D01*
X213Y378D02*
X222Y378D01*
X913Y378D02*
X922Y378D01*
X1513Y378D02*
X1522Y378D01*
X2213Y378D02*
X2222Y378D01*
X2355Y378D02*
X2362Y378D01*
X1Y377D02*
X8Y377D01*
X213Y377D02*
X222Y377D01*
X913Y377D02*
X922Y377D01*
X1513Y377D02*
X1522Y377D01*
X2213Y377D02*
X2222Y377D01*
X2355Y377D02*
X2362Y377D01*
X1Y376D02*
X8Y376D01*
X213Y376D02*
X222Y376D01*
X913Y376D02*
X922Y376D01*
X1513Y376D02*
X1522Y376D01*
X2213Y376D02*
X2222Y376D01*
X2355Y376D02*
X2362Y376D01*
X1Y375D02*
X8Y375D01*
X213Y375D02*
X222Y375D01*
X913Y375D02*
X922Y375D01*
X1513Y375D02*
X1522Y375D01*
X2213Y375D02*
X2222Y375D01*
X2355Y375D02*
X2362Y375D01*
X1Y374D02*
X8Y374D01*
X213Y374D02*
X222Y374D01*
X913Y374D02*
X922Y374D01*
X1513Y374D02*
X1522Y374D01*
X2213Y374D02*
X2222Y374D01*
X2355Y374D02*
X2362Y374D01*
X1Y373D02*
X8Y373D01*
X213Y373D02*
X222Y373D01*
X913Y373D02*
X922Y373D01*
X1513Y373D02*
X1522Y373D01*
X2213Y373D02*
X2222Y373D01*
X2355Y373D02*
X2362Y373D01*
X1Y372D02*
X8Y372D01*
X213Y372D02*
X222Y372D01*
X913Y372D02*
X922Y372D01*
X1513Y372D02*
X1522Y372D01*
X2213Y372D02*
X2222Y372D01*
X2355Y372D02*
X2362Y372D01*
X1Y371D02*
X8Y371D01*
X213Y371D02*
X222Y371D01*
X913Y371D02*
X922Y371D01*
X1513Y371D02*
X1522Y371D01*
X2213Y371D02*
X2222Y371D01*
X2355Y371D02*
X2362Y371D01*
X1Y370D02*
X8Y370D01*
X213Y370D02*
X222Y370D01*
X913Y370D02*
X922Y370D01*
X1513Y370D02*
X1522Y370D01*
X2213Y370D02*
X2222Y370D01*
X2355Y370D02*
X2362Y370D01*
X1Y369D02*
X8Y369D01*
X213Y369D02*
X222Y369D01*
X913Y369D02*
X922Y369D01*
X1513Y369D02*
X1522Y369D01*
X2213Y369D02*
X2222Y369D01*
X2355Y369D02*
X2362Y369D01*
X1Y368D02*
X8Y368D01*
X213Y368D02*
X222Y368D01*
X913Y368D02*
X922Y368D01*
X1513Y368D02*
X1522Y368D01*
X2213Y368D02*
X2222Y368D01*
X2355Y368D02*
X2362Y368D01*
X1Y367D02*
X8Y367D01*
X213Y367D02*
X222Y367D01*
X913Y367D02*
X922Y367D01*
X1513Y367D02*
X1522Y367D01*
X2213Y367D02*
X2222Y367D01*
X2355Y367D02*
X2362Y367D01*
X1Y366D02*
X8Y366D01*
X213Y366D02*
X222Y366D01*
X913Y366D02*
X922Y366D01*
X1513Y366D02*
X1522Y366D01*
X2213Y366D02*
X2222Y366D01*
X2355Y366D02*
X2362Y366D01*
X1Y365D02*
X8Y365D01*
X213Y365D02*
X222Y365D01*
X913Y365D02*
X922Y365D01*
X1513Y365D02*
X1522Y365D01*
X2213Y365D02*
X2222Y365D01*
X2355Y365D02*
X2362Y365D01*
X1Y364D02*
X8Y364D01*
X213Y364D02*
X222Y364D01*
X913Y364D02*
X922Y364D01*
X1513Y364D02*
X1522Y364D01*
X2213Y364D02*
X2222Y364D01*
X2355Y364D02*
X2362Y364D01*
X1Y363D02*
X8Y363D01*
X213Y363D02*
X222Y363D01*
X913Y363D02*
X922Y363D01*
X1513Y363D02*
X1522Y363D01*
X2213Y363D02*
X2222Y363D01*
X2355Y363D02*
X2362Y363D01*
X1Y362D02*
X8Y362D01*
X213Y362D02*
X222Y362D01*
X913Y362D02*
X922Y362D01*
X1513Y362D02*
X1522Y362D01*
X2213Y362D02*
X2222Y362D01*
X2355Y362D02*
X2362Y362D01*
X1Y361D02*
X8Y361D01*
X213Y361D02*
X222Y361D01*
X913Y361D02*
X922Y361D01*
X1513Y361D02*
X1522Y361D01*
X2213Y361D02*
X2222Y361D01*
X2355Y361D02*
X2362Y361D01*
X1Y360D02*
X8Y360D01*
X213Y360D02*
X222Y360D01*
X913Y360D02*
X922Y360D01*
X1513Y360D02*
X1522Y360D01*
X2213Y360D02*
X2222Y360D01*
X2355Y360D02*
X2362Y360D01*
X1Y359D02*
X8Y359D01*
X213Y359D02*
X222Y359D01*
X913Y359D02*
X922Y359D01*
X1513Y359D02*
X1522Y359D01*
X2213Y359D02*
X2222Y359D01*
X2355Y359D02*
X2362Y359D01*
X1Y358D02*
X8Y358D01*
X213Y358D02*
X222Y358D01*
X913Y358D02*
X922Y358D01*
X1513Y358D02*
X1522Y358D01*
X2213Y358D02*
X2222Y358D01*
X2355Y358D02*
X2362Y358D01*
X1Y357D02*
X8Y357D01*
X213Y357D02*
X222Y357D01*
X913Y357D02*
X922Y357D01*
X1513Y357D02*
X1522Y357D01*
X2213Y357D02*
X2222Y357D01*
X2355Y357D02*
X2362Y357D01*
X1Y356D02*
X8Y356D01*
X213Y356D02*
X222Y356D01*
X913Y356D02*
X922Y356D01*
X1513Y356D02*
X1522Y356D01*
X2212Y356D02*
X2222Y356D01*
X2355Y356D02*
X2362Y356D01*
X1Y355D02*
X8Y355D01*
X213Y355D02*
X222Y355D01*
X913Y355D02*
X922Y355D01*
X1513Y355D02*
X1522Y355D01*
X2212Y355D02*
X2221Y355D01*
X2355Y355D02*
X2362Y355D01*
X1Y354D02*
X8Y354D01*
X213Y354D02*
X222Y354D01*
X912Y354D02*
X921Y354D01*
X1513Y354D02*
X1522Y354D01*
X2212Y354D02*
X2221Y354D01*
X2355Y354D02*
X2362Y354D01*
X1Y353D02*
X8Y353D01*
X213Y353D02*
X222Y353D01*
X912Y353D02*
X921Y353D01*
X1513Y353D02*
X1522Y353D01*
X2212Y353D02*
X2221Y353D01*
X2355Y353D02*
X2362Y353D01*
X1Y352D02*
X8Y352D01*
X214Y352D02*
X223Y352D01*
X912Y352D02*
X921Y352D01*
X1513Y352D02*
X1522Y352D01*
X2212Y352D02*
X2221Y352D01*
X2355Y352D02*
X2362Y352D01*
X1Y351D02*
X8Y351D01*
X214Y351D02*
X223Y351D01*
X912Y351D02*
X921Y351D01*
X1514Y351D02*
X1523Y351D01*
X2212Y351D02*
X2221Y351D01*
X2355Y351D02*
X2362Y351D01*
X1Y350D02*
X8Y350D01*
X214Y350D02*
X223Y350D01*
X912Y350D02*
X921Y350D01*
X1514Y350D02*
X1523Y350D01*
X2212Y350D02*
X2221Y350D01*
X2355Y350D02*
X2362Y350D01*
X1Y349D02*
X8Y349D01*
X214Y349D02*
X223Y349D01*
X912Y349D02*
X921Y349D01*
X1514Y349D02*
X1523Y349D01*
X2212Y349D02*
X2221Y349D01*
X2355Y349D02*
X2362Y349D01*
X1Y348D02*
X8Y348D01*
X214Y348D02*
X223Y348D01*
X912Y348D02*
X921Y348D01*
X1514Y348D02*
X1523Y348D01*
X2211Y348D02*
X2220Y348D01*
X2355Y348D02*
X2362Y348D01*
X1Y347D02*
X8Y347D01*
X214Y347D02*
X223Y347D01*
X911Y347D02*
X920Y347D01*
X1514Y347D02*
X1523Y347D01*
X2211Y347D02*
X2220Y347D01*
X2355Y347D02*
X2362Y347D01*
X1Y346D02*
X8Y346D01*
X214Y346D02*
X224Y346D01*
X911Y346D02*
X920Y346D01*
X1514Y346D02*
X1524Y346D01*
X2211Y346D02*
X2220Y346D01*
X2355Y346D02*
X2362Y346D01*
X1Y345D02*
X8Y345D01*
X215Y345D02*
X224Y345D01*
X911Y345D02*
X920Y345D01*
X1515Y345D02*
X1524Y345D01*
X2211Y345D02*
X2220Y345D01*
X2355Y345D02*
X2362Y345D01*
X1Y344D02*
X8Y344D01*
X215Y344D02*
X224Y344D01*
X911Y344D02*
X920Y344D01*
X1515Y344D02*
X1524Y344D01*
X2211Y344D02*
X2220Y344D01*
X2355Y344D02*
X2362Y344D01*
X1Y343D02*
X8Y343D01*
X215Y343D02*
X224Y343D01*
X910Y343D02*
X920Y343D01*
X1515Y343D02*
X1524Y343D01*
X2210Y343D02*
X2219Y343D01*
X2355Y343D02*
X2362Y343D01*
X1Y342D02*
X8Y342D01*
X215Y342D02*
X225Y342D01*
X910Y342D02*
X919Y342D01*
X1515Y342D02*
X1525Y342D01*
X2210Y342D02*
X2219Y342D01*
X2355Y342D02*
X2362Y342D01*
X1Y341D02*
X8Y341D01*
X216Y341D02*
X225Y341D01*
X910Y341D02*
X919Y341D01*
X1516Y341D02*
X1525Y341D01*
X2210Y341D02*
X2219Y341D01*
X2355Y341D02*
X2362Y341D01*
X1Y340D02*
X8Y340D01*
X216Y340D02*
X225Y340D01*
X910Y340D02*
X919Y340D01*
X1516Y340D02*
X1525Y340D01*
X2209Y340D02*
X2219Y340D01*
X2355Y340D02*
X2362Y340D01*
X1Y339D02*
X8Y339D01*
X216Y339D02*
X226Y339D01*
X909Y339D02*
X919Y339D01*
X1516Y339D02*
X1525Y339D01*
X2209Y339D02*
X2218Y339D01*
X2355Y339D02*
X2362Y339D01*
X1Y338D02*
X8Y338D01*
X216Y338D02*
X226Y338D01*
X909Y338D02*
X918Y338D01*
X1516Y338D02*
X1526Y338D01*
X2209Y338D02*
X2218Y338D01*
X2355Y338D02*
X2362Y338D01*
X1Y337D02*
X8Y337D01*
X217Y337D02*
X226Y337D01*
X908Y337D02*
X918Y337D01*
X1517Y337D02*
X1526Y337D01*
X2208Y337D02*
X2218Y337D01*
X2355Y337D02*
X2362Y337D01*
X1Y336D02*
X8Y336D01*
X217Y336D02*
X227Y336D01*
X908Y336D02*
X918Y336D01*
X1517Y336D02*
X1527Y336D01*
X2208Y336D02*
X2217Y336D01*
X2355Y336D02*
X2362Y336D01*
X1Y335D02*
X8Y335D01*
X218Y335D02*
X227Y335D01*
X908Y335D02*
X917Y335D01*
X1517Y335D02*
X1527Y335D01*
X2208Y335D02*
X2217Y335D01*
X2355Y335D02*
X2362Y335D01*
X1Y334D02*
X8Y334D01*
X218Y334D02*
X227Y334D01*
X907Y334D02*
X917Y334D01*
X1518Y334D02*
X1527Y334D01*
X2207Y334D02*
X2217Y334D01*
X2355Y334D02*
X2362Y334D01*
X1Y333D02*
X8Y333D01*
X218Y333D02*
X228Y333D01*
X907Y333D02*
X916Y333D01*
X1518Y333D02*
X1528Y333D01*
X2207Y333D02*
X2216Y333D01*
X2355Y333D02*
X2362Y333D01*
X1Y332D02*
X8Y332D01*
X219Y332D02*
X228Y332D01*
X906Y332D02*
X916Y332D01*
X1519Y332D02*
X1528Y332D01*
X2206Y332D02*
X2216Y332D01*
X2355Y332D02*
X2362Y332D01*
X1Y331D02*
X8Y331D01*
X219Y331D02*
X229Y331D01*
X906Y331D02*
X916Y331D01*
X1519Y331D02*
X1529Y331D01*
X2206Y331D02*
X2216Y331D01*
X2355Y331D02*
X2362Y331D01*
X1Y330D02*
X8Y330D01*
X219Y330D02*
X229Y330D01*
X905Y330D02*
X915Y330D01*
X1519Y330D02*
X1529Y330D01*
X2205Y330D02*
X2215Y330D01*
X2355Y330D02*
X2362Y330D01*
X1Y329D02*
X8Y329D01*
X220Y329D02*
X230Y329D01*
X905Y329D02*
X915Y329D01*
X1520Y329D02*
X1530Y329D01*
X2205Y329D02*
X2215Y329D01*
X2355Y329D02*
X2362Y329D01*
X1Y328D02*
X8Y328D01*
X220Y328D02*
X230Y328D01*
X904Y328D02*
X914Y328D01*
X1520Y328D02*
X1530Y328D01*
X2204Y328D02*
X2214Y328D01*
X2355Y328D02*
X2362Y328D01*
X1Y327D02*
X8Y327D01*
X221Y327D02*
X231Y327D01*
X904Y327D02*
X914Y327D01*
X1521Y327D02*
X1531Y327D01*
X2204Y327D02*
X2214Y327D01*
X2355Y327D02*
X2362Y327D01*
X1Y326D02*
X8Y326D01*
X221Y326D02*
X232Y326D01*
X903Y326D02*
X913Y326D01*
X1521Y326D02*
X1531Y326D01*
X2203Y326D02*
X2213Y326D01*
X2355Y326D02*
X2362Y326D01*
X1Y325D02*
X8Y325D01*
X222Y325D02*
X232Y325D01*
X903Y325D02*
X913Y325D01*
X1522Y325D02*
X1532Y325D01*
X2202Y325D02*
X2213Y325D01*
X2355Y325D02*
X2362Y325D01*
X1Y324D02*
X8Y324D01*
X222Y324D02*
X233Y324D01*
X902Y324D02*
X912Y324D01*
X1522Y324D02*
X1533Y324D01*
X2202Y324D02*
X2212Y324D01*
X2355Y324D02*
X2362Y324D01*
X1Y323D02*
X8Y323D01*
X223Y323D02*
X233Y323D01*
X901Y323D02*
X912Y323D01*
X1523Y323D02*
X1533Y323D01*
X2201Y323D02*
X2212Y323D01*
X2355Y323D02*
X2362Y323D01*
X1Y322D02*
X8Y322D01*
X223Y322D02*
X234Y322D01*
X901Y322D02*
X911Y322D01*
X1523Y322D02*
X1534Y322D01*
X2201Y322D02*
X2211Y322D01*
X2355Y322D02*
X2362Y322D01*
X1Y321D02*
X8Y321D01*
X224Y321D02*
X235Y321D01*
X900Y321D02*
X911Y321D01*
X1524Y321D02*
X1535Y321D01*
X2200Y321D02*
X2211Y321D01*
X2355Y321D02*
X2362Y321D01*
X1Y320D02*
X8Y320D01*
X225Y320D02*
X236Y320D01*
X899Y320D02*
X910Y320D01*
X1525Y320D02*
X1535Y320D01*
X2199Y320D02*
X2210Y320D01*
X2355Y320D02*
X2362Y320D01*
X1Y319D02*
X8Y319D01*
X225Y319D02*
X236Y319D01*
X898Y319D02*
X909Y319D01*
X1525Y319D02*
X1536Y319D01*
X2198Y319D02*
X2209Y319D01*
X2355Y319D02*
X2362Y319D01*
X1Y318D02*
X8Y318D01*
X226Y318D02*
X237Y318D01*
X898Y318D02*
X909Y318D01*
X1526Y318D02*
X1537Y318D01*
X2198Y318D02*
X2209Y318D01*
X2355Y318D02*
X2362Y318D01*
X1Y317D02*
X8Y317D01*
X226Y317D02*
X238Y317D01*
X897Y317D02*
X908Y317D01*
X1526Y317D02*
X1538Y317D01*
X2197Y317D02*
X2208Y317D01*
X2355Y317D02*
X2362Y317D01*
X1Y316D02*
X8Y316D01*
X227Y316D02*
X239Y316D01*
X896Y316D02*
X908Y316D01*
X1527Y316D02*
X1539Y316D01*
X2196Y316D02*
X2207Y316D01*
X2355Y316D02*
X2362Y316D01*
X1Y315D02*
X8Y315D01*
X228Y315D02*
X240Y315D01*
X895Y315D02*
X907Y315D01*
X1528Y315D02*
X1540Y315D01*
X2195Y315D02*
X2207Y315D01*
X2355Y315D02*
X2362Y315D01*
X1Y314D02*
X8Y314D01*
X229Y314D02*
X241Y314D01*
X894Y314D02*
X906Y314D01*
X1529Y314D02*
X1540Y314D01*
X2194Y314D02*
X2206Y314D01*
X2355Y314D02*
X2362Y314D01*
X1Y313D02*
X8Y313D01*
X229Y313D02*
X241Y313D01*
X893Y313D02*
X905Y313D01*
X1529Y313D02*
X1541Y313D01*
X2193Y313D02*
X2205Y313D01*
X2355Y313D02*
X2362Y313D01*
X1Y312D02*
X8Y312D01*
X230Y312D02*
X242Y312D01*
X892Y312D02*
X905Y312D01*
X1530Y312D02*
X1542Y312D01*
X2192Y312D02*
X2205Y312D01*
X2355Y312D02*
X2362Y312D01*
X1Y311D02*
X8Y311D01*
X231Y311D02*
X243Y311D01*
X891Y311D02*
X904Y311D01*
X1531Y311D02*
X1543Y311D01*
X2191Y311D02*
X2204Y311D01*
X2355Y311D02*
X2362Y311D01*
X1Y310D02*
X8Y310D01*
X232Y310D02*
X245Y310D01*
X890Y310D02*
X903Y310D01*
X1532Y310D02*
X1544Y310D01*
X2190Y310D02*
X2203Y310D01*
X2355Y310D02*
X2362Y310D01*
X1Y309D02*
X8Y309D01*
X233Y309D02*
X246Y309D01*
X889Y309D02*
X902Y309D01*
X1532Y309D02*
X1546Y309D01*
X2189Y309D02*
X2202Y309D01*
X2355Y309D02*
X2362Y309D01*
X1Y308D02*
X8Y308D01*
X233Y308D02*
X247Y308D01*
X888Y308D02*
X901Y308D01*
X1533Y308D02*
X1547Y308D01*
X2188Y308D02*
X2201Y308D01*
X2355Y308D02*
X2362Y308D01*
X1Y307D02*
X8Y307D01*
X234Y307D02*
X248Y307D01*
X887Y307D02*
X900Y307D01*
X1534Y307D02*
X1548Y307D01*
X2187Y307D02*
X2200Y307D01*
X2355Y307D02*
X2362Y307D01*
X1Y306D02*
X8Y306D01*
X235Y306D02*
X249Y306D01*
X886Y306D02*
X899Y306D01*
X1535Y306D02*
X1549Y306D01*
X2185Y306D02*
X2199Y306D01*
X2355Y306D02*
X2362Y306D01*
X1Y305D02*
X8Y305D01*
X236Y305D02*
X251Y305D01*
X884Y305D02*
X899Y305D01*
X1536Y305D02*
X1550Y305D01*
X2184Y305D02*
X2198Y305D01*
X2355Y305D02*
X2362Y305D01*
X1Y304D02*
X8Y304D01*
X237Y304D02*
X252Y304D01*
X883Y304D02*
X897Y304D01*
X1537Y304D02*
X1552Y304D01*
X2183Y304D02*
X2197Y304D01*
X2355Y304D02*
X2362Y304D01*
X1Y303D02*
X8Y303D01*
X238Y303D02*
X253Y303D01*
X881Y303D02*
X896Y303D01*
X1538Y303D02*
X1553Y303D01*
X2181Y303D02*
X2196Y303D01*
X2355Y303D02*
X2362Y303D01*
X1Y302D02*
X8Y302D01*
X240Y302D02*
X255Y302D01*
X880Y302D02*
X895Y302D01*
X1539Y302D02*
X1555Y302D01*
X2180Y302D02*
X2195Y302D01*
X2355Y302D02*
X2362Y302D01*
X1Y301D02*
X8Y301D01*
X241Y301D02*
X257Y301D01*
X878Y301D02*
X894Y301D01*
X1540Y301D02*
X1556Y301D01*
X2178Y301D02*
X2194Y301D01*
X2355Y301D02*
X2362Y301D01*
X1Y300D02*
X8Y300D01*
X242Y300D02*
X258Y300D01*
X877Y300D02*
X893Y300D01*
X1542Y300D02*
X1558Y300D01*
X2176Y300D02*
X2193Y300D01*
X2355Y300D02*
X2362Y300D01*
X1Y299D02*
X8Y299D01*
X243Y299D02*
X260Y299D01*
X875Y299D02*
X892Y299D01*
X1543Y299D02*
X1560Y299D01*
X2174Y299D02*
X2192Y299D01*
X2355Y299D02*
X2362Y299D01*
X1Y298D02*
X8Y298D01*
X244Y298D02*
X262Y298D01*
X872Y298D02*
X890Y298D01*
X1544Y298D02*
X1562Y298D01*
X2172Y298D02*
X2190Y298D01*
X2355Y298D02*
X2362Y298D01*
X1Y297D02*
X8Y297D01*
X246Y297D02*
X264Y297D01*
X870Y297D02*
X889Y297D01*
X1546Y297D02*
X1564Y297D01*
X2170Y297D02*
X2189Y297D01*
X2355Y297D02*
X2362Y297D01*
X1Y296D02*
X8Y296D01*
X247Y296D02*
X267Y296D01*
X868Y296D02*
X888Y296D01*
X1547Y296D02*
X1567Y296D01*
X2168Y296D02*
X2188Y296D01*
X2355Y296D02*
X2362Y296D01*
X1Y295D02*
X8Y295D01*
X248Y295D02*
X270Y295D01*
X865Y295D02*
X886Y295D01*
X1548Y295D02*
X1570Y295D01*
X2165Y295D02*
X2186Y295D01*
X2355Y295D02*
X2362Y295D01*
X1Y294D02*
X8Y294D01*
X250Y294D02*
X273Y294D01*
X862Y294D02*
X885Y294D01*
X1550Y294D02*
X1573Y294D01*
X2162Y294D02*
X2185Y294D01*
X2355Y294D02*
X2362Y294D01*
X1Y293D02*
X8Y293D01*
X252Y293D02*
X277Y293D01*
X858Y293D02*
X883Y293D01*
X1552Y293D02*
X1577Y293D01*
X2158Y293D02*
X2183Y293D01*
X2355Y293D02*
X2362Y293D01*
X1Y292D02*
X8Y292D01*
X253Y292D02*
X283Y292D01*
X851Y292D02*
X881Y292D01*
X1553Y292D02*
X1583Y292D01*
X2151Y292D02*
X2181Y292D01*
X2355Y292D02*
X2362Y292D01*
X1Y291D02*
X8Y291D01*
X255Y291D02*
X880Y291D01*
X1555Y291D02*
X2179Y291D01*
X2355Y291D02*
X2362Y291D01*
X1Y290D02*
X8Y290D01*
X257Y290D02*
X877Y290D01*
X1557Y290D02*
X2177Y290D01*
X2355Y290D02*
X2362Y290D01*
X1Y289D02*
X8Y289D01*
X259Y289D02*
X875Y289D01*
X1559Y289D02*
X2175Y289D01*
X2355Y289D02*
X2362Y289D01*
X1Y288D02*
X8Y288D01*
X261Y288D02*
X873Y288D01*
X1561Y288D02*
X2173Y288D01*
X2355Y288D02*
X2362Y288D01*
X1Y287D02*
X8Y287D01*
X264Y287D02*
X871Y287D01*
X1564Y287D02*
X2171Y287D01*
X2355Y287D02*
X2362Y287D01*
X1Y286D02*
X8Y286D01*
X267Y286D02*
X868Y286D01*
X1567Y286D02*
X2168Y286D01*
X2355Y286D02*
X2362Y286D01*
X1Y285D02*
X8Y285D01*
X270Y285D02*
X865Y285D01*
X1569Y285D02*
X2165Y285D01*
X2355Y285D02*
X2362Y285D01*
X1Y284D02*
X8Y284D01*
X273Y284D02*
X861Y284D01*
X1573Y284D02*
X2161Y284D01*
X2355Y284D02*
X2362Y284D01*
X1Y283D02*
X8Y283D01*
X277Y283D02*
X857Y283D01*
X1577Y283D02*
X2157Y283D01*
X2355Y283D02*
X2362Y283D01*
X1Y282D02*
X8Y282D01*
X284Y282D02*
X851Y282D01*
X1584Y282D02*
X2151Y282D01*
X2355Y282D02*
X2362Y282D01*
X1Y281D02*
X8Y281D01*
X2355Y281D02*
X2362Y281D01*
X1Y280D02*
X8Y280D01*
X2355Y280D02*
X2362Y280D01*
X1Y279D02*
X8Y279D01*
X2355Y279D02*
X2362Y279D01*
X1Y278D02*
X8Y278D01*
X2355Y278D02*
X2362Y278D01*
X1Y277D02*
X8Y277D01*
X2355Y277D02*
X2362Y277D01*
X1Y276D02*
X8Y276D01*
X2355Y276D02*
X2362Y276D01*
X1Y275D02*
X8Y275D01*
X2355Y275D02*
X2362Y275D01*
X1Y274D02*
X8Y274D01*
X2355Y274D02*
X2362Y274D01*
X1Y273D02*
X8Y273D01*
X933Y273D02*
X937Y273D01*
X2233Y273D02*
X2236Y273D01*
X2355Y273D02*
X2362Y273D01*
X1Y272D02*
X8Y272D01*
X932Y272D02*
X940Y272D01*
X2232Y272D02*
X2240Y272D01*
X2355Y272D02*
X2362Y272D01*
X1Y271D02*
X8Y271D01*
X931Y271D02*
X943Y271D01*
X2231Y271D02*
X2243Y271D01*
X2355Y271D02*
X2362Y271D01*
X1Y270D02*
X8Y270D01*
X931Y270D02*
X947Y270D01*
X2231Y270D02*
X2247Y270D01*
X2355Y270D02*
X2362Y270D01*
X1Y269D02*
X8Y269D01*
X931Y269D02*
X950Y269D01*
X2231Y269D02*
X2250Y269D01*
X2355Y269D02*
X2362Y269D01*
X1Y268D02*
X8Y268D01*
X932Y268D02*
X954Y268D01*
X2232Y268D02*
X2253Y268D01*
X2355Y268D02*
X2362Y268D01*
X1Y267D02*
X8Y267D01*
X933Y267D02*
X957Y267D01*
X2233Y267D02*
X2257Y267D01*
X2355Y267D02*
X2362Y267D01*
X1Y266D02*
X8Y266D01*
X936Y266D02*
X960Y266D01*
X2236Y266D02*
X2260Y266D01*
X2355Y266D02*
X2362Y266D01*
X1Y265D02*
X8Y265D01*
X940Y265D02*
X964Y265D01*
X2240Y265D02*
X2264Y265D01*
X2355Y265D02*
X2362Y265D01*
X1Y264D02*
X8Y264D01*
X943Y264D02*
X967Y264D01*
X2243Y264D02*
X2267Y264D01*
X2355Y264D02*
X2362Y264D01*
X1Y263D02*
X8Y263D01*
X943Y263D02*
X971Y263D01*
X2243Y263D02*
X2271Y263D01*
X2355Y263D02*
X2362Y263D01*
X1Y262D02*
X8Y262D01*
X943Y262D02*
X974Y262D01*
X2243Y262D02*
X2274Y262D01*
X2355Y262D02*
X2362Y262D01*
X1Y261D02*
X8Y261D01*
X943Y261D02*
X949Y261D01*
X953Y261D02*
X977Y261D01*
X2243Y261D02*
X2249Y261D01*
X2253Y261D02*
X2277Y261D01*
X2355Y261D02*
X2362Y261D01*
X1Y260D02*
X8Y260D01*
X943Y260D02*
X949Y260D01*
X957Y260D02*
X981Y260D01*
X2243Y260D02*
X2249Y260D01*
X2257Y260D02*
X2281Y260D01*
X2355Y260D02*
X2362Y260D01*
X1Y259D02*
X8Y259D01*
X943Y259D02*
X949Y259D01*
X960Y259D02*
X983Y259D01*
X2243Y259D02*
X2249Y259D01*
X2260Y259D02*
X2283Y259D01*
X2355Y259D02*
X2362Y259D01*
X1Y258D02*
X8Y258D01*
X943Y258D02*
X949Y258D01*
X964Y258D02*
X984Y258D01*
X2243Y258D02*
X2249Y258D01*
X2264Y258D02*
X2284Y258D01*
X2355Y258D02*
X2362Y258D01*
X1Y257D02*
X8Y257D01*
X943Y257D02*
X949Y257D01*
X967Y257D02*
X984Y257D01*
X2243Y257D02*
X2249Y257D01*
X2267Y257D02*
X2284Y257D01*
X2355Y257D02*
X2362Y257D01*
X1Y256D02*
X8Y256D01*
X943Y256D02*
X949Y256D01*
X968Y256D02*
X984Y256D01*
X2243Y256D02*
X2249Y256D01*
X2268Y256D02*
X2284Y256D01*
X2355Y256D02*
X2362Y256D01*
X1Y255D02*
X8Y255D01*
X943Y255D02*
X949Y255D01*
X965Y255D02*
X984Y255D01*
X2243Y255D02*
X2249Y255D01*
X2265Y255D02*
X2284Y255D01*
X2355Y255D02*
X2362Y255D01*
X1Y254D02*
X8Y254D01*
X943Y254D02*
X949Y254D01*
X961Y254D02*
X983Y254D01*
X2243Y254D02*
X2249Y254D01*
X2261Y254D02*
X2283Y254D01*
X2355Y254D02*
X2362Y254D01*
X1Y253D02*
X8Y253D01*
X943Y253D02*
X949Y253D01*
X958Y253D02*
X982Y253D01*
X2243Y253D02*
X2249Y253D01*
X2258Y253D02*
X2282Y253D01*
X2355Y253D02*
X2362Y253D01*
X1Y252D02*
X8Y252D01*
X943Y252D02*
X949Y252D01*
X955Y252D02*
X979Y252D01*
X2243Y252D02*
X2249Y252D01*
X2254Y252D02*
X2278Y252D01*
X2355Y252D02*
X2362Y252D01*
X1Y251D02*
X8Y251D01*
X943Y251D02*
X949Y251D01*
X951Y251D02*
X975Y251D01*
X2243Y251D02*
X2249Y251D01*
X2251Y251D02*
X2275Y251D01*
X2355Y251D02*
X2362Y251D01*
X1Y250D02*
X8Y250D01*
X943Y250D02*
X972Y250D01*
X2243Y250D02*
X2272Y250D01*
X2355Y250D02*
X2362Y250D01*
X1Y249D02*
X8Y249D01*
X943Y249D02*
X968Y249D01*
X2243Y249D02*
X2268Y249D01*
X2355Y249D02*
X2362Y249D01*
X1Y248D02*
X8Y248D01*
X941Y248D02*
X965Y248D01*
X2241Y248D02*
X2265Y248D01*
X2355Y248D02*
X2362Y248D01*
X1Y247D02*
X8Y247D01*
X937Y247D02*
X962Y247D01*
X2237Y247D02*
X2261Y247D01*
X2355Y247D02*
X2362Y247D01*
X1Y246D02*
X8Y246D01*
X934Y246D02*
X958Y246D01*
X2234Y246D02*
X2258Y246D01*
X2355Y246D02*
X2362Y246D01*
X1Y245D02*
X8Y245D01*
X932Y245D02*
X955Y245D01*
X2232Y245D02*
X2255Y245D01*
X2355Y245D02*
X2362Y245D01*
X1Y244D02*
X8Y244D01*
X932Y244D02*
X951Y244D01*
X2231Y244D02*
X2251Y244D01*
X2355Y244D02*
X2362Y244D01*
X1Y243D02*
X8Y243D01*
X931Y243D02*
X948Y243D01*
X2231Y243D02*
X2248Y243D01*
X2355Y243D02*
X2362Y243D01*
X1Y242D02*
X8Y242D01*
X931Y242D02*
X944Y242D01*
X2231Y242D02*
X2244Y242D01*
X2355Y242D02*
X2362Y242D01*
X1Y241D02*
X8Y241D01*
X931Y241D02*
X941Y241D01*
X2231Y241D02*
X2241Y241D01*
X2355Y241D02*
X2362Y241D01*
X1Y240D02*
X8Y240D01*
X932Y240D02*
X938Y240D01*
X2232Y240D02*
X2238Y240D01*
X2355Y240D02*
X2362Y240D01*
X1Y239D02*
X8Y239D01*
X2355Y239D02*
X2362Y239D01*
X1Y238D02*
X8Y238D01*
X2355Y238D02*
X2362Y238D01*
X1Y237D02*
X8Y237D01*
X2355Y237D02*
X2362Y237D01*
X1Y236D02*
X8Y236D01*
X2355Y236D02*
X2362Y236D01*
X1Y235D02*
X8Y235D01*
X2355Y235D02*
X2362Y235D01*
X1Y234D02*
X8Y234D01*
X2355Y234D02*
X2362Y234D01*
X1Y233D02*
X8Y233D01*
X2355Y233D02*
X2362Y233D01*
X1Y232D02*
X8Y232D01*
X2355Y232D02*
X2362Y232D01*
X1Y231D02*
X8Y231D01*
X2355Y231D02*
X2362Y231D01*
X1Y230D02*
X8Y230D01*
X2355Y230D02*
X2362Y230D01*
X1Y229D02*
X8Y229D01*
X2355Y229D02*
X2362Y229D01*
X1Y228D02*
X8Y228D01*
X2355Y228D02*
X2362Y228D01*
X1Y227D02*
X8Y227D01*
X2355Y227D02*
X2362Y227D01*
X1Y226D02*
X8Y226D01*
X2355Y226D02*
X2362Y226D01*
X1Y225D02*
X8Y225D01*
X2355Y225D02*
X2362Y225D01*
X1Y224D02*
X8Y224D01*
X2355Y224D02*
X2362Y224D01*
X1Y223D02*
X8Y223D01*
X931Y223D02*
X956Y223D01*
X980Y223D02*
X982Y223D01*
X2233Y223D02*
X2235Y223D01*
X2280Y223D02*
X2282Y223D01*
X2355Y223D02*
X2362Y223D01*
X1Y222D02*
X8Y222D01*
X931Y222D02*
X958Y222D01*
X979Y222D02*
X984Y222D01*
X2232Y222D02*
X2236Y222D01*
X2279Y222D02*
X2283Y222D01*
X2355Y222D02*
X2362Y222D01*
X1Y221D02*
X8Y221D01*
X931Y221D02*
X959Y221D01*
X979Y221D02*
X984Y221D01*
X2231Y221D02*
X2237Y221D01*
X2278Y221D02*
X2284Y221D01*
X2355Y221D02*
X2362Y221D01*
X1Y220D02*
X8Y220D01*
X931Y220D02*
X960Y220D01*
X978Y220D02*
X984Y220D01*
X2231Y220D02*
X2237Y220D01*
X2278Y220D02*
X2284Y220D01*
X2355Y220D02*
X2362Y220D01*
X1Y219D02*
X8Y219D01*
X931Y219D02*
X960Y219D01*
X978Y219D02*
X984Y219D01*
X2231Y219D02*
X2237Y219D01*
X2278Y219D02*
X2284Y219D01*
X2355Y219D02*
X2362Y219D01*
X1Y218D02*
X8Y218D01*
X931Y218D02*
X960Y218D01*
X978Y218D02*
X984Y218D01*
X2231Y218D02*
X2237Y218D01*
X2278Y218D02*
X2284Y218D01*
X2355Y218D02*
X2362Y218D01*
X1Y217D02*
X8Y217D01*
X931Y217D02*
X961Y217D01*
X978Y217D02*
X984Y217D01*
X2231Y217D02*
X2237Y217D01*
X2278Y217D02*
X2284Y217D01*
X2355Y217D02*
X2362Y217D01*
X1Y216D02*
X8Y216D01*
X931Y216D02*
X937Y216D01*
X955Y216D02*
X961Y216D01*
X978Y216D02*
X984Y216D01*
X2231Y216D02*
X2237Y216D01*
X2278Y216D02*
X2284Y216D01*
X2355Y216D02*
X2362Y216D01*
X1Y215D02*
X8Y215D01*
X931Y215D02*
X937Y215D01*
X955Y215D02*
X961Y215D01*
X978Y215D02*
X984Y215D01*
X2231Y215D02*
X2237Y215D01*
X2278Y215D02*
X2284Y215D01*
X2355Y215D02*
X2362Y215D01*
X1Y214D02*
X8Y214D01*
X931Y214D02*
X937Y214D01*
X955Y214D02*
X961Y214D01*
X978Y214D02*
X984Y214D01*
X2231Y214D02*
X2237Y214D01*
X2278Y214D02*
X2284Y214D01*
X2355Y214D02*
X2362Y214D01*
X1Y213D02*
X8Y213D01*
X931Y213D02*
X937Y213D01*
X955Y213D02*
X961Y213D01*
X978Y213D02*
X984Y213D01*
X2231Y213D02*
X2237Y213D01*
X2278Y213D02*
X2284Y213D01*
X2355Y213D02*
X2362Y213D01*
X1Y212D02*
X8Y212D01*
X931Y212D02*
X937Y212D01*
X955Y212D02*
X961Y212D01*
X978Y212D02*
X984Y212D01*
X2231Y212D02*
X2237Y212D01*
X2278Y212D02*
X2284Y212D01*
X2355Y212D02*
X2362Y212D01*
X1Y211D02*
X8Y211D01*
X931Y211D02*
X937Y211D01*
X955Y211D02*
X961Y211D01*
X978Y211D02*
X984Y211D01*
X2231Y211D02*
X2237Y211D01*
X2278Y211D02*
X2284Y211D01*
X2355Y211D02*
X2362Y211D01*
X1Y210D02*
X8Y210D01*
X931Y210D02*
X937Y210D01*
X955Y210D02*
X961Y210D01*
X978Y210D02*
X984Y210D01*
X2231Y210D02*
X2237Y210D01*
X2278Y210D02*
X2284Y210D01*
X2355Y210D02*
X2362Y210D01*
X1Y209D02*
X8Y209D01*
X931Y209D02*
X937Y209D01*
X955Y209D02*
X961Y209D01*
X978Y209D02*
X984Y209D01*
X2231Y209D02*
X2284Y209D01*
X2355Y209D02*
X2362Y209D01*
X1Y208D02*
X8Y208D01*
X931Y208D02*
X937Y208D01*
X955Y208D02*
X961Y208D01*
X978Y208D02*
X984Y208D01*
X2231Y208D02*
X2284Y208D01*
X2355Y208D02*
X2362Y208D01*
X1Y207D02*
X8Y207D01*
X931Y207D02*
X937Y207D01*
X955Y207D02*
X961Y207D01*
X978Y207D02*
X984Y207D01*
X2231Y207D02*
X2284Y207D01*
X2355Y207D02*
X2362Y207D01*
X1Y206D02*
X8Y206D01*
X931Y206D02*
X937Y206D01*
X955Y206D02*
X961Y206D01*
X978Y206D02*
X984Y206D01*
X1013Y206D02*
X1040Y206D01*
X1065Y206D02*
X1083Y206D01*
X2231Y206D02*
X2284Y206D01*
X2355Y206D02*
X2362Y206D01*
X1Y205D02*
X8Y205D01*
X931Y205D02*
X937Y205D01*
X955Y205D02*
X961Y205D01*
X978Y205D02*
X984Y205D01*
X1013Y205D02*
X1042Y205D01*
X1064Y205D02*
X1083Y205D01*
X2231Y205D02*
X2284Y205D01*
X2355Y205D02*
X2362Y205D01*
X1Y204D02*
X8Y204D01*
X931Y204D02*
X937Y204D01*
X955Y204D02*
X961Y204D01*
X978Y204D02*
X984Y204D01*
X1013Y204D02*
X1043Y204D01*
X1063Y204D02*
X1083Y204D01*
X2231Y204D02*
X2284Y204D01*
X2355Y204D02*
X2362Y204D01*
X1Y203D02*
X8Y203D01*
X931Y203D02*
X937Y203D01*
X955Y203D02*
X961Y203D01*
X978Y203D02*
X984Y203D01*
X1013Y203D02*
X1044Y203D01*
X1063Y203D02*
X1083Y203D01*
X2231Y203D02*
X2284Y203D01*
X2355Y203D02*
X2362Y203D01*
X1Y202D02*
X8Y202D01*
X931Y202D02*
X937Y202D01*
X955Y202D02*
X961Y202D01*
X978Y202D02*
X984Y202D01*
X1013Y202D02*
X1045Y202D01*
X1064Y202D02*
X1083Y202D01*
X2231Y202D02*
X2237Y202D01*
X2355Y202D02*
X2362Y202D01*
X1Y201D02*
X8Y201D01*
X931Y201D02*
X937Y201D01*
X955Y201D02*
X961Y201D01*
X978Y201D02*
X984Y201D01*
X1013Y201D02*
X1046Y201D01*
X1064Y201D02*
X1083Y201D01*
X2231Y201D02*
X2237Y201D01*
X2355Y201D02*
X2362Y201D01*
X1Y200D02*
X8Y200D01*
X931Y200D02*
X937Y200D01*
X955Y200D02*
X961Y200D01*
X978Y200D02*
X984Y200D01*
X1013Y200D02*
X1046Y200D01*
X1066Y200D02*
X1083Y200D01*
X2231Y200D02*
X2237Y200D01*
X2355Y200D02*
X2362Y200D01*
X1Y199D02*
X8Y199D01*
X931Y199D02*
X937Y199D01*
X955Y199D02*
X961Y199D01*
X978Y199D02*
X984Y199D01*
X1013Y199D02*
X1019Y199D01*
X1039Y199D02*
X1046Y199D01*
X1077Y199D02*
X1083Y199D01*
X2231Y199D02*
X2237Y199D01*
X2355Y199D02*
X2362Y199D01*
X1Y198D02*
X8Y198D01*
X931Y198D02*
X937Y198D01*
X955Y198D02*
X961Y198D01*
X978Y198D02*
X984Y198D01*
X1013Y198D02*
X1019Y198D01*
X1040Y198D02*
X1047Y198D01*
X1077Y198D02*
X1083Y198D01*
X2231Y198D02*
X2237Y198D01*
X2355Y198D02*
X2362Y198D01*
X1Y197D02*
X8Y197D01*
X931Y197D02*
X937Y197D01*
X955Y197D02*
X961Y197D01*
X978Y197D02*
X984Y197D01*
X1013Y197D02*
X1019Y197D01*
X1041Y197D02*
X1047Y197D01*
X1077Y197D02*
X1083Y197D01*
X2231Y197D02*
X2237Y197D01*
X2355Y197D02*
X2362Y197D01*
X1Y196D02*
X8Y196D01*
X931Y196D02*
X937Y196D01*
X955Y196D02*
X961Y196D01*
X978Y196D02*
X984Y196D01*
X1013Y196D02*
X1019Y196D01*
X1041Y196D02*
X1047Y196D01*
X1077Y196D02*
X1083Y196D01*
X2231Y196D02*
X2237Y196D01*
X2355Y196D02*
X2362Y196D01*
X1Y195D02*
X8Y195D01*
X931Y195D02*
X937Y195D01*
X955Y195D02*
X984Y195D01*
X1013Y195D02*
X1019Y195D01*
X1041Y195D02*
X1047Y195D01*
X1077Y195D02*
X1083Y195D01*
X2231Y195D02*
X2250Y195D01*
X2355Y195D02*
X2362Y195D01*
X1Y194D02*
X8Y194D01*
X931Y194D02*
X937Y194D01*
X955Y194D02*
X984Y194D01*
X1013Y194D02*
X1019Y194D01*
X1041Y194D02*
X1047Y194D01*
X1077Y194D02*
X1083Y194D01*
X2231Y194D02*
X2251Y194D01*
X2355Y194D02*
X2362Y194D01*
X1Y193D02*
X8Y193D01*
X931Y193D02*
X937Y193D01*
X955Y193D02*
X984Y193D01*
X1013Y193D02*
X1019Y193D01*
X1041Y193D02*
X1047Y193D01*
X1077Y193D02*
X1083Y193D01*
X2231Y193D02*
X2251Y193D01*
X2355Y193D02*
X2362Y193D01*
X1Y192D02*
X8Y192D01*
X931Y192D02*
X937Y192D01*
X956Y192D02*
X983Y192D01*
X1013Y192D02*
X1019Y192D01*
X1041Y192D02*
X1047Y192D01*
X1077Y192D02*
X1083Y192D01*
X2231Y192D02*
X2251Y192D01*
X2355Y192D02*
X2362Y192D01*
X1Y191D02*
X8Y191D01*
X932Y191D02*
X937Y191D01*
X957Y191D02*
X982Y191D01*
X1013Y191D02*
X1019Y191D01*
X1040Y191D02*
X1047Y191D01*
X1077Y191D02*
X1083Y191D01*
X2231Y191D02*
X2251Y191D01*
X2355Y191D02*
X2362Y191D01*
X1Y190D02*
X8Y190D01*
X932Y190D02*
X936Y190D01*
X958Y190D02*
X981Y190D01*
X1013Y190D02*
X1019Y190D01*
X1039Y190D02*
X1046Y190D01*
X1077Y190D02*
X1083Y190D01*
X2232Y190D02*
X2250Y190D01*
X2355Y190D02*
X2362Y190D01*
X1Y189D02*
X8Y189D01*
X934Y189D02*
X935Y189D01*
X960Y189D02*
X979Y189D01*
X1013Y189D02*
X1046Y189D01*
X1077Y189D02*
X1083Y189D01*
X2234Y189D02*
X2248Y189D01*
X2355Y189D02*
X2362Y189D01*
X1Y188D02*
X8Y188D01*
X1013Y188D02*
X1046Y188D01*
X1077Y188D02*
X1083Y188D01*
X2355Y188D02*
X2362Y188D01*
X1Y187D02*
X8Y187D01*
X1013Y187D02*
X1045Y187D01*
X1077Y187D02*
X1083Y187D01*
X2355Y187D02*
X2362Y187D01*
X1Y186D02*
X8Y186D01*
X1013Y186D02*
X1044Y186D01*
X1077Y186D02*
X1083Y186D01*
X2355Y186D02*
X2362Y186D01*
X1Y185D02*
X8Y185D01*
X1013Y185D02*
X1043Y185D01*
X1077Y185D02*
X1083Y185D01*
X2355Y185D02*
X2362Y185D01*
X1Y184D02*
X8Y184D01*
X1013Y184D02*
X1042Y184D01*
X1077Y184D02*
X1083Y184D01*
X2355Y184D02*
X2362Y184D01*
X1Y183D02*
X8Y183D01*
X1013Y183D02*
X1040Y183D01*
X1077Y183D02*
X1083Y183D01*
X2355Y183D02*
X2362Y183D01*
X1Y182D02*
X8Y182D01*
X1013Y182D02*
X1019Y182D01*
X1025Y182D02*
X1033Y182D01*
X1077Y182D02*
X1083Y182D01*
X2355Y182D02*
X2362Y182D01*
X1Y181D02*
X8Y181D01*
X1013Y181D02*
X1019Y181D01*
X1026Y181D02*
X1033Y181D01*
X1077Y181D02*
X1083Y181D01*
X2355Y181D02*
X2362Y181D01*
X1Y180D02*
X8Y180D01*
X1013Y180D02*
X1019Y180D01*
X1026Y180D02*
X1033Y180D01*
X1077Y180D02*
X1083Y180D01*
X2355Y180D02*
X2362Y180D01*
X1Y179D02*
X8Y179D01*
X1013Y179D02*
X1019Y179D01*
X1027Y179D02*
X1034Y179D01*
X1077Y179D02*
X1083Y179D01*
X2355Y179D02*
X2362Y179D01*
X1Y178D02*
X8Y178D01*
X1013Y178D02*
X1019Y178D01*
X1027Y178D02*
X1035Y178D01*
X1077Y178D02*
X1083Y178D01*
X2355Y178D02*
X2362Y178D01*
X1Y177D02*
X8Y177D01*
X1013Y177D02*
X1019Y177D01*
X1028Y177D02*
X1035Y177D01*
X1077Y177D02*
X1083Y177D01*
X2355Y177D02*
X2362Y177D01*
X1Y176D02*
X8Y176D01*
X1013Y176D02*
X1019Y176D01*
X1029Y176D02*
X1036Y176D01*
X1077Y176D02*
X1083Y176D01*
X2355Y176D02*
X2362Y176D01*
X1Y175D02*
X8Y175D01*
X1013Y175D02*
X1019Y175D01*
X1029Y175D02*
X1036Y175D01*
X1077Y175D02*
X1083Y175D01*
X2355Y175D02*
X2362Y175D01*
X1Y174D02*
X8Y174D01*
X1013Y174D02*
X1019Y174D01*
X1030Y174D02*
X1037Y174D01*
X1077Y174D02*
X1083Y174D01*
X2355Y174D02*
X2362Y174D01*
X1Y173D02*
X8Y173D01*
X1013Y173D02*
X1019Y173D01*
X1030Y173D02*
X1038Y173D01*
X1077Y173D02*
X1083Y173D01*
X1092Y173D02*
X1096Y173D01*
X2355Y173D02*
X2362Y173D01*
X1Y172D02*
X8Y172D01*
X1013Y172D02*
X1019Y172D01*
X1031Y172D02*
X1038Y172D01*
X1077Y172D02*
X1083Y172D01*
X1091Y172D02*
X1096Y172D01*
X2355Y172D02*
X2362Y172D01*
X1Y171D02*
X8Y171D01*
X1013Y171D02*
X1019Y171D01*
X1032Y171D02*
X1039Y171D01*
X1077Y171D02*
X1083Y171D01*
X1091Y171D02*
X1097Y171D01*
X2355Y171D02*
X2362Y171D01*
X1Y170D02*
X8Y170D01*
X1013Y170D02*
X1019Y170D01*
X1032Y170D02*
X1039Y170D01*
X1077Y170D02*
X1083Y170D01*
X1091Y170D02*
X1097Y170D01*
X2355Y170D02*
X2362Y170D01*
X1Y169D02*
X8Y169D01*
X1013Y169D02*
X1019Y169D01*
X1033Y169D02*
X1040Y169D01*
X1077Y169D02*
X1083Y169D01*
X1091Y169D02*
X1097Y169D01*
X2355Y169D02*
X2362Y169D01*
X1Y168D02*
X8Y168D01*
X1013Y168D02*
X1019Y168D01*
X1033Y168D02*
X1040Y168D01*
X1077Y168D02*
X1083Y168D01*
X1091Y168D02*
X1097Y168D01*
X2355Y168D02*
X2362Y168D01*
X1Y167D02*
X8Y167D01*
X1013Y167D02*
X1019Y167D01*
X1034Y167D02*
X1041Y167D01*
X1077Y167D02*
X1083Y167D01*
X1091Y167D02*
X1097Y167D01*
X2355Y167D02*
X2362Y167D01*
X1Y166D02*
X8Y166D01*
X1013Y166D02*
X1019Y166D01*
X1034Y166D02*
X1042Y166D01*
X1077Y166D02*
X1083Y166D01*
X1091Y166D02*
X1097Y166D01*
X2355Y166D02*
X2362Y166D01*
X1Y165D02*
X8Y165D01*
X1013Y165D02*
X1019Y165D01*
X1035Y165D02*
X1042Y165D01*
X1077Y165D02*
X1083Y165D01*
X1091Y165D02*
X1097Y165D01*
X2355Y165D02*
X2362Y165D01*
X1Y164D02*
X8Y164D01*
X1013Y164D02*
X1019Y164D01*
X1036Y164D02*
X1043Y164D01*
X1077Y164D02*
X1083Y164D01*
X1091Y164D02*
X1097Y164D01*
X2355Y164D02*
X2362Y164D01*
X1Y163D02*
X8Y163D01*
X1013Y163D02*
X1019Y163D01*
X1036Y163D02*
X1043Y163D01*
X1077Y163D02*
X1083Y163D01*
X1091Y163D02*
X1097Y163D01*
X2355Y163D02*
X2362Y163D01*
X1Y162D02*
X8Y162D01*
X1013Y162D02*
X1019Y162D01*
X1037Y162D02*
X1044Y162D01*
X1077Y162D02*
X1083Y162D01*
X1091Y162D02*
X1097Y162D01*
X2355Y162D02*
X2362Y162D01*
X1Y161D02*
X8Y161D01*
X1013Y161D02*
X1019Y161D01*
X1037Y161D02*
X1045Y161D01*
X1077Y161D02*
X1083Y161D01*
X1091Y161D02*
X1097Y161D01*
X2355Y161D02*
X2362Y161D01*
X1Y160D02*
X8Y160D01*
X1013Y160D02*
X1019Y160D01*
X1038Y160D02*
X1045Y160D01*
X1077Y160D02*
X1083Y160D01*
X1091Y160D02*
X1097Y160D01*
X2355Y160D02*
X2362Y160D01*
X1Y159D02*
X8Y159D01*
X1013Y159D02*
X1019Y159D01*
X1039Y159D02*
X1046Y159D01*
X1065Y159D02*
X1097Y159D01*
X2355Y159D02*
X2362Y159D01*
X1Y158D02*
X8Y158D01*
X1013Y158D02*
X1019Y158D01*
X1039Y158D02*
X1046Y158D01*
X1064Y158D02*
X1097Y158D01*
X2355Y158D02*
X2362Y158D01*
X1Y157D02*
X8Y157D01*
X1013Y157D02*
X1019Y157D01*
X1040Y157D02*
X1047Y157D01*
X1063Y157D02*
X1097Y157D01*
X2355Y157D02*
X2362Y157D01*
X1Y156D02*
X8Y156D01*
X1013Y156D02*
X1019Y156D01*
X1040Y156D02*
X1047Y156D01*
X1063Y156D02*
X1097Y156D01*
X2355Y156D02*
X2362Y156D01*
X1Y155D02*
X8Y155D01*
X1013Y155D02*
X1019Y155D01*
X1041Y155D02*
X1046Y155D01*
X1064Y155D02*
X1097Y155D01*
X2355Y155D02*
X2362Y155D01*
X1Y154D02*
X8Y154D01*
X1014Y154D02*
X1018Y154D01*
X1042Y154D02*
X1046Y154D01*
X1064Y154D02*
X1096Y154D01*
X2355Y154D02*
X2362Y154D01*
X1Y153D02*
X8Y153D01*
X1016Y153D02*
X1017Y153D01*
X1043Y153D02*
X1044Y153D01*
X1066Y153D02*
X1094Y153D01*
X2355Y153D02*
X2362Y153D01*
X1Y152D02*
X8Y152D01*
X1883Y152D02*
X1885Y152D01*
X2355Y152D02*
X2362Y152D01*
X1Y151D02*
X8Y151D01*
X1882Y151D02*
X1886Y151D01*
X2355Y151D02*
X2362Y151D01*
X1Y150D02*
X8Y150D01*
X1881Y150D02*
X1887Y150D01*
X2355Y150D02*
X2362Y150D01*
X1Y149D02*
X8Y149D01*
X1882Y149D02*
X1888Y149D01*
X2355Y149D02*
X2362Y149D01*
X1Y148D02*
X8Y148D01*
X1883Y148D02*
X1889Y148D01*
X2355Y148D02*
X2362Y148D01*
X1Y147D02*
X8Y147D01*
X1884Y147D02*
X1890Y147D01*
X2355Y147D02*
X2362Y147D01*
X1Y146D02*
X8Y146D01*
X1885Y146D02*
X1891Y146D01*
X2355Y146D02*
X2362Y146D01*
X1Y145D02*
X8Y145D01*
X2355Y145D02*
X2362Y145D01*
X1Y144D02*
X8Y144D01*
X2355Y144D02*
X2362Y144D01*
X1Y143D02*
X8Y143D01*
X2355Y143D02*
X2362Y143D01*
X1Y142D02*
X8Y142D01*
X2355Y142D02*
X2362Y142D01*
X1Y141D02*
X8Y141D01*
X2355Y141D02*
X2362Y141D01*
X1Y140D02*
X8Y140D01*
X2355Y140D02*
X2362Y140D01*
X1Y139D02*
X8Y139D01*
X2355Y139D02*
X2362Y139D01*
X1Y138D02*
X8Y138D01*
X2355Y138D02*
X2362Y138D01*
X1Y137D02*
X8Y137D01*
X2355Y137D02*
X2362Y137D01*
X1Y136D02*
X8Y136D01*
X2355Y136D02*
X2362Y136D01*
X1Y135D02*
X8Y135D01*
X2355Y135D02*
X2362Y135D01*
X1Y134D02*
X8Y134D01*
X2355Y134D02*
X2362Y134D01*
X1Y133D02*
X8Y133D01*
X2355Y133D02*
X2362Y133D01*
X1Y132D02*
X8Y132D01*
X2355Y132D02*
X2362Y132D01*
X1Y131D02*
X8Y131D01*
X2355Y131D02*
X2362Y131D01*
X1Y130D02*
X8Y130D01*
X2355Y130D02*
X2362Y130D01*
X1Y129D02*
X8Y129D01*
X2355Y129D02*
X2362Y129D01*
X1Y128D02*
X8Y128D01*
X2355Y128D02*
X2362Y128D01*
X1Y127D02*
X8Y127D01*
X2355Y127D02*
X2362Y127D01*
X1Y126D02*
X8Y126D01*
X2355Y126D02*
X2362Y126D01*
X1Y125D02*
X8Y125D01*
X1912Y125D02*
X1912Y125D01*
X2355Y125D02*
X2362Y125D01*
X1Y124D02*
X8Y124D01*
X1912Y124D02*
X1913Y124D01*
X2355Y124D02*
X2362Y124D01*
X1Y123D02*
X8Y123D01*
X1912Y123D02*
X1914Y123D01*
X2355Y123D02*
X2362Y123D01*
X1Y122D02*
X8Y122D01*
X1912Y122D02*
X1915Y122D01*
X2355Y122D02*
X2362Y122D01*
X1Y121D02*
X8Y121D01*
X1912Y121D02*
X1916Y121D01*
X2355Y121D02*
X2362Y121D01*
X1Y120D02*
X8Y120D01*
X1912Y120D02*
X1917Y120D01*
X2355Y120D02*
X2362Y120D01*
X1Y119D02*
X8Y119D01*
X1912Y119D02*
X1918Y119D01*
X2355Y119D02*
X2362Y119D01*
X1Y118D02*
X8Y118D01*
X1913Y118D02*
X1918Y118D01*
X2355Y118D02*
X2362Y118D01*
X1Y117D02*
X8Y117D01*
X1914Y117D02*
X1917Y117D01*
X2355Y117D02*
X2362Y117D01*
X1Y116D02*
X8Y116D01*
X1915Y116D02*
X1916Y116D01*
X2355Y116D02*
X2362Y116D01*
X1Y115D02*
X8Y115D01*
X2355Y115D02*
X2362Y115D01*
X1Y114D02*
X8Y114D01*
X2355Y114D02*
X2362Y114D01*
X1Y113D02*
X8Y113D01*
X2355Y113D02*
X2362Y113D01*
X1Y112D02*
X8Y112D01*
X2355Y112D02*
X2362Y112D01*
X1Y111D02*
X8Y111D01*
X2355Y111D02*
X2362Y111D01*
X1Y110D02*
X8Y110D01*
X2355Y110D02*
X2362Y110D01*
X1Y109D02*
X8Y109D01*
X2355Y109D02*
X2362Y109D01*
X1Y108D02*
X8Y108D01*
X2355Y108D02*
X2362Y108D01*
X1Y107D02*
X8Y107D01*
X2355Y107D02*
X2362Y107D01*
X1Y106D02*
X8Y106D01*
X610Y106D02*
X676Y106D01*
X877Y106D02*
X925Y106D01*
X2355Y106D02*
X2362Y106D01*
X1Y105D02*
X8Y105D01*
X610Y105D02*
X676Y105D01*
X877Y105D02*
X925Y105D01*
X2355Y105D02*
X2362Y105D01*
X1Y104D02*
X8Y104D01*
X610Y104D02*
X676Y104D01*
X877Y104D02*
X924Y104D01*
X2355Y104D02*
X2362Y104D01*
X1Y103D02*
X8Y103D01*
X610Y103D02*
X676Y103D01*
X877Y103D02*
X924Y103D01*
X2355Y103D02*
X2362Y103D01*
X1Y102D02*
X8Y102D01*
X610Y102D02*
X676Y102D01*
X877Y102D02*
X924Y102D01*
X2355Y102D02*
X2362Y102D01*
X1Y101D02*
X8Y101D01*
X610Y101D02*
X676Y101D01*
X877Y101D02*
X924Y101D01*
X2355Y101D02*
X2362Y101D01*
X1Y100D02*
X8Y100D01*
X610Y100D02*
X676Y100D01*
X877Y100D02*
X924Y100D01*
X2355Y100D02*
X2362Y100D01*
X1Y99D02*
X8Y99D01*
X610Y99D02*
X676Y99D01*
X877Y99D02*
X924Y99D01*
X2355Y99D02*
X2362Y99D01*
X1Y98D02*
X8Y98D01*
X610Y98D02*
X676Y98D01*
X877Y98D02*
X925Y98D01*
X2355Y98D02*
X2362Y98D01*
X1Y97D02*
X8Y97D01*
X610Y97D02*
X676Y97D01*
X877Y97D02*
X925Y97D01*
X2355Y97D02*
X2362Y97D01*
X1Y96D02*
X8Y96D01*
X2355Y96D02*
X2362Y96D01*
X1Y95D02*
X8Y95D01*
X2355Y95D02*
X2362Y95D01*
X1Y94D02*
X8Y94D01*
X2355Y94D02*
X2362Y94D01*
X1Y93D02*
X8Y93D01*
X2355Y93D02*
X2362Y93D01*
X1Y92D02*
X8Y92D01*
X2355Y92D02*
X2362Y92D01*
X1Y91D02*
X8Y91D01*
X2355Y91D02*
X2362Y91D01*
X1Y90D02*
X8Y90D01*
X2355Y90D02*
X2362Y90D01*
X1Y89D02*
X8Y89D01*
X2355Y89D02*
X2362Y89D01*
X1Y88D02*
X8Y88D01*
X2355Y88D02*
X2362Y88D01*
X1Y87D02*
X8Y87D01*
X2355Y87D02*
X2362Y87D01*
X1Y86D02*
X8Y86D01*
X2355Y86D02*
X2362Y86D01*
X1Y85D02*
X8Y85D01*
X2355Y85D02*
X2362Y85D01*
X1Y84D02*
X8Y84D01*
X2355Y84D02*
X2362Y84D01*
X1Y83D02*
X8Y83D01*
X2355Y83D02*
X2362Y83D01*
X1Y82D02*
X8Y82D01*
X2355Y82D02*
X2362Y82D01*
X1Y81D02*
X8Y81D01*
X2355Y81D02*
X2362Y81D01*
X1Y80D02*
X8Y80D01*
X2355Y80D02*
X2362Y80D01*
X1Y79D02*
X8Y79D01*
X2355Y79D02*
X2362Y79D01*
X1Y78D02*
X8Y78D01*
X2355Y78D02*
X2362Y78D01*
X1Y77D02*
X8Y77D01*
X2355Y77D02*
X2362Y77D01*
X1Y76D02*
X8Y76D01*
X2355Y76D02*
X2362Y76D01*
X1Y75D02*
X8Y75D01*
X2355Y75D02*
X2362Y75D01*
X1Y74D02*
X8Y74D01*
X2355Y74D02*
X2362Y74D01*
X1Y73D02*
X8Y73D01*
X2355Y73D02*
X2362Y73D01*
X1Y72D02*
X8Y72D01*
X2355Y72D02*
X2362Y72D01*
X1Y71D02*
X8Y71D01*
X2355Y71D02*
X2362Y71D01*
X1Y70D02*
X8Y70D01*
X2355Y70D02*
X2362Y70D01*
X1Y69D02*
X8Y69D01*
X2355Y69D02*
X2362Y69D01*
X1Y68D02*
X8Y68D01*
X2355Y68D02*
X2362Y68D01*
X1Y67D02*
X8Y67D01*
X2355Y67D02*
X2362Y67D01*
X1Y66D02*
X8Y66D01*
X2355Y66D02*
X2362Y66D01*
X1Y65D02*
X8Y65D01*
X2355Y65D02*
X2362Y65D01*
X1Y64D02*
X8Y64D01*
X2355Y64D02*
X2362Y64D01*
X1Y63D02*
X8Y63D01*
X2355Y63D02*
X2362Y63D01*
X1Y62D02*
X8Y62D01*
X2355Y62D02*
X2362Y62D01*
X1Y61D02*
X8Y61D01*
X2355Y61D02*
X2362Y61D01*
X1Y60D02*
X8Y60D01*
X2355Y60D02*
X2362Y60D01*
X1Y59D02*
X8Y59D01*
X2355Y59D02*
X2362Y59D01*
X1Y58D02*
X8Y58D01*
X2355Y58D02*
X2362Y58D01*
X1Y57D02*
X8Y57D01*
X2355Y57D02*
X2362Y57D01*
X1Y56D02*
X8Y56D01*
X2355Y56D02*
X2362Y56D01*
X1Y55D02*
X8Y55D01*
X2355Y55D02*
X2362Y55D01*
X1Y54D02*
X8Y54D01*
X2355Y54D02*
X2362Y54D01*
X1Y53D02*
X8Y53D01*
X2355Y53D02*
X2362Y53D01*
X1Y52D02*
X8Y52D01*
X2355Y52D02*
X2362Y52D01*
X1Y51D02*
X8Y51D01*
X2355Y51D02*
X2362Y51D01*
X1Y50D02*
X8Y50D01*
X2355Y50D02*
X2362Y50D01*
X1Y49D02*
X8Y49D01*
X2355Y49D02*
X2362Y49D01*
X1Y48D02*
X8Y48D01*
X2355Y48D02*
X2362Y48D01*
X1Y47D02*
X8Y47D01*
X2355Y47D02*
X2362Y47D01*
X1Y46D02*
X8Y46D01*
X2355Y46D02*
X2362Y46D01*
X1Y45D02*
X8Y45D01*
X2355Y45D02*
X2362Y45D01*
X1Y44D02*
X8Y44D01*
X2355Y44D02*
X2362Y44D01*
X1Y43D02*
X8Y43D01*
X2355Y43D02*
X2362Y43D01*
X1Y42D02*
X8Y42D01*
X2355Y42D02*
X2362Y42D01*
X1Y41D02*
X8Y41D01*
X2355Y41D02*
X2362Y41D01*
X1Y40D02*
X8Y40D01*
X2355Y40D02*
X2362Y40D01*
X1Y39D02*
X8Y39D01*
X2355Y39D02*
X2362Y39D01*
X1Y38D02*
X8Y38D01*
X2355Y38D02*
X2362Y38D01*
X1Y37D02*
X8Y37D01*
X2355Y37D02*
X2362Y37D01*
X1Y36D02*
X8Y36D01*
X2355Y36D02*
X2362Y36D01*
X1Y35D02*
X8Y35D01*
X2355Y35D02*
X2362Y35D01*
X1Y34D02*
X8Y34D01*
X2355Y34D02*
X2362Y34D01*
X1Y33D02*
X8Y33D01*
X2355Y33D02*
X2362Y33D01*
X1Y32D02*
X8Y32D01*
X2355Y32D02*
X2362Y32D01*
X1Y31D02*
X8Y31D01*
X2355Y31D02*
X2362Y31D01*
X1Y30D02*
X8Y30D01*
X2355Y30D02*
X2362Y30D01*
X1Y29D02*
X8Y29D01*
X2355Y29D02*
X2362Y29D01*
X1Y28D02*
X8Y28D01*
X2355Y28D02*
X2362Y28D01*
X1Y27D02*
X8Y27D01*
X2355Y27D02*
X2362Y27D01*
X1Y26D02*
X8Y26D01*
X2355Y26D02*
X2362Y26D01*
X1Y25D02*
X8Y25D01*
X2355Y25D02*
X2362Y25D01*
X1Y24D02*
X8Y24D01*
X2355Y24D02*
X2362Y24D01*
X1Y23D02*
X8Y23D01*
X1952Y23D02*
X1956Y23D01*
X1989Y23D02*
X1994Y23D01*
X2355Y23D02*
X2362Y23D01*
X1Y22D02*
X8Y22D01*
X1950Y22D02*
X1957Y22D01*
X1987Y22D02*
X1996Y22D01*
X2355Y22D02*
X2362Y22D01*
X1Y21D02*
X8Y21D01*
X1949Y21D02*
X1958Y21D01*
X1986Y21D02*
X1997Y21D01*
X2355Y21D02*
X2362Y21D01*
X1Y20D02*
X8Y20D01*
X1948Y20D02*
X1958Y20D01*
X1985Y20D02*
X1998Y20D01*
X2355Y20D02*
X2362Y20D01*
X1Y19D02*
X8Y19D01*
X1947Y19D02*
X1958Y19D01*
X1984Y19D02*
X1998Y19D01*
X2355Y19D02*
X2362Y19D01*
X1Y18D02*
X8Y18D01*
X1947Y18D02*
X1957Y18D01*
X1982Y18D02*
X1999Y18D01*
X2355Y18D02*
X2362Y18D01*
X1Y17D02*
X8Y17D01*
X1947Y17D02*
X1956Y17D01*
X1981Y17D02*
X1999Y17D01*
X2355Y17D02*
X2362Y17D01*
X1Y16D02*
X8Y16D01*
X1946Y16D02*
X1953Y16D01*
X1980Y16D02*
X1990Y16D01*
X1993Y16D02*
X1999Y16D01*
X2355Y16D02*
X2362Y16D01*
X1Y15D02*
X8Y15D01*
X1946Y15D02*
X1952Y15D01*
X1978Y15D02*
X1989Y15D01*
X1993Y15D02*
X1999Y15D01*
X2355Y15D02*
X2362Y15D01*
X1Y14D02*
X8Y14D01*
X1946Y14D02*
X1952Y14D01*
X1977Y14D02*
X1988Y14D01*
X1993Y14D02*
X1999Y14D01*
X2355Y14D02*
X2362Y14D01*
X1Y13D02*
X8Y13D01*
X1946Y13D02*
X1952Y13D01*
X1976Y13D02*
X1986Y13D01*
X1993Y13D02*
X1999Y13D01*
X2355Y13D02*
X2362Y13D01*
X1Y12D02*
X8Y12D01*
X1946Y12D02*
X1952Y12D01*
X1975Y12D02*
X1985Y12D01*
X1993Y12D02*
X1999Y12D01*
X2355Y12D02*
X2362Y12D01*
X1Y11D02*
X8Y11D01*
X1946Y11D02*
X1952Y11D01*
X1973Y11D02*
X1984Y11D01*
X1993Y11D02*
X1999Y11D01*
X2355Y11D02*
X2362Y11D01*
X1Y10D02*
X8Y10D01*
X1946Y10D02*
X1952Y10D01*
X1972Y10D02*
X1983Y10D01*
X1993Y10D02*
X1999Y10D01*
X2355Y10D02*
X2362Y10D01*
X1Y9D02*
X8Y9D01*
X1946Y9D02*
X1952Y9D01*
X1971Y9D02*
X1981Y9D01*
X1993Y9D02*
X1999Y9D01*
X2355Y9D02*
X2362Y9D01*
X1Y8D02*
X2362Y8D01*
X1Y7D02*
X2362Y7D01*
X1Y6D02*
X2362Y6D01*
X1Y5D02*
X2362Y5D01*
X1Y4D02*
X2362Y4D01*
X1Y3D02*
X2362Y3D01*
X1Y2D02*
X2362Y2D01*
X1Y1D02*
X2362Y1D01*
X1946Y0D02*
X1952Y0D01*
X1959Y0D02*
X1970Y0D01*
X1993Y0D02*
X1999Y0D01*
X1946Y-1D02*
X1952Y-1D01*
X1958Y-1D02*
X1968Y-1D01*
X1993Y-1D02*
X1999Y-1D01*
D02*
G04 End of Silk1*
M02*