G04 MADE WITH FRITZING*
G04 WWW.FRITZING.ORG*
G04 DOUBLE SIDED*
G04 HOLES PLATED*
G04 CONTOUR ON CENTER OF CONTOUR VECTOR*
%ASAXBY*%
%FSLAX23Y23*%
%MOIN*%
%OFA0B0*%
%SFA1.0B1.0*%
%ADD10C,0.075000*%
%ADD11C,0.078000*%
%ADD12R,0.078000X0.078000*%
%ADD13C,0.024000*%
%LNCOPPER1*%
G90*
G70*
G54D10*
X567Y101D03*
X967Y101D03*
G54D11*
X1867Y101D03*
X1767Y101D03*
X1667Y101D03*
X1567Y1001D03*
X1567Y901D03*
X1567Y801D03*
X1567Y701D03*
X1567Y601D03*
X1567Y501D03*
X1567Y401D03*
X2167Y401D03*
X2167Y501D03*
X2167Y601D03*
X2167Y701D03*
X2167Y801D03*
X2167Y901D03*
X2167Y1001D03*
X267Y1001D03*
X267Y901D03*
X267Y801D03*
X267Y701D03*
X267Y601D03*
X267Y501D03*
X267Y401D03*
X867Y401D03*
X867Y501D03*
X867Y601D03*
X867Y701D03*
X867Y801D03*
X867Y901D03*
X867Y1001D03*
G54D12*
X1867Y101D03*
G54D13*
X2168Y1001D02*
X2168Y1001D01*
D02*
X2168Y1001D02*
X2267Y901D01*
D02*
X2268Y202D02*
X2167Y101D01*
D02*
X2167Y101D02*
X1886Y101D01*
D02*
X2267Y901D02*
X2268Y202D01*
D02*
X279Y386D02*
X363Y277D01*
D02*
X2065Y277D02*
X2155Y386D01*
D02*
X363Y277D02*
X2065Y277D01*
D02*
X1548Y401D02*
X886Y401D01*
D02*
X267Y102D02*
X549Y101D01*
D02*
X886Y901D02*
X966Y901D01*
D02*
X67Y983D02*
X64Y281D01*
D02*
X64Y281D02*
X267Y102D01*
D02*
X1155Y1151D02*
X246Y1155D01*
D02*
X966Y901D02*
X1155Y1151D01*
D02*
X246Y1155D02*
X67Y983D01*
D02*
X1162Y1151D02*
X966Y901D01*
D02*
X966Y901D02*
X886Y901D01*
D02*
X1779Y1155D02*
X1162Y1151D01*
D02*
X2148Y901D02*
X2068Y901D01*
D02*
X2068Y901D02*
X1779Y1155D01*
D02*
X884Y238D02*
X958Y116D01*
D02*
X253Y788D02*
X167Y702D01*
D02*
X164Y345D02*
X285Y238D01*
D02*
X167Y702D02*
X164Y345D01*
D02*
X285Y238D02*
X884Y238D01*
D02*
X1655Y24D02*
X856Y24D01*
D02*
X856Y24D02*
X745Y170D01*
D02*
X745Y170D02*
X278Y170D01*
D02*
X278Y170D02*
X117Y316D01*
D02*
X117Y316D02*
X117Y955D01*
D02*
X267Y1101D02*
X766Y1101D01*
D02*
X766Y1101D02*
X853Y1014D01*
D02*
X117Y955D02*
X267Y1101D01*
D02*
X1751Y90D02*
X1655Y24D01*
D02*
X367Y702D02*
X280Y788D01*
D02*
X1580Y787D02*
X1665Y702D01*
D02*
X367Y402D02*
X367Y702D01*
D02*
X1665Y702D02*
X1665Y402D01*
D02*
X438Y323D02*
X367Y402D01*
D02*
X1590Y323D02*
X438Y323D01*
D02*
X1665Y402D02*
X1590Y323D01*
G04 End of Copper1*
M02*